<svg width="40" height="52" xmlns="http://www.w3.org/2000/svg" fill-rule="evenodd" clip-rule="evenodd" stroke-linejoin="round" stroke-miterlimit="2"><path fill="#fff" d="M0 20h40v26H0z"/><path d="M17.322 30.182l2.05-1.382h.953v8.76h-.953v-7.687l-1.526 1.025-.524-.716z" fill-rule="nonzero"/><path d="M40 46H0V20h40v26zM1 21v24h38V21H1z" fill="gray"/><g transform="matrix(.95 0 0 .76923 0 -15.385)"><path fill="#fff" d="M0 20h40v26H0z"/><clipPath id="a"><path d="M0 20h40v26H0z"/></clipPath><g clip-path="url(#a)"><path d="M40 46H0V20h40v26zM1.053 44.7h37.894V21.3H1.053v23.4z" fill="#316ac5"/><path fill="#98b5e2" d="M24.21 20H40v26H24.21z"/><path d="M40 46H24.21V20H40v26zm-14.737-1.3h13.684V21.3H25.263v23.4z" fill="#316ac5"/><path d="M10.172 29.593c.038-.42.151-.794.315-1.151.189-.42.453-.747.793-.996.365-.264.818-.388 1.335-.388.516 0 .957.124 1.322.388.34.234.604.576.793.996.227.482.34 1.026.34 1.633 0 .622-.138 1.228-.415 1.82-.24.528-.73 1.18-1.474 1.943-.717.762-1.208 1.415-1.46 1.975-.214.45-.353 1.01-.428 1.68h3.727v1.12h-4.785v-.016c0-1.416.176-2.52.541-3.297.29-.638.831-1.338 1.625-2.13.667-.67 1.12-1.245 1.347-1.711.214-.451.315-.918.315-1.384 0-.405-.076-.762-.214-1.073a1.338 1.338 0 00-.479-.591 1.263 1.263 0 00-.768-.234c-.29 0-.529.078-.743.234-.201.14-.365.342-.49.606a2.537 2.537 0 00-.215.793l-.982-.217z" fill-rule="nonzero"/><g><path d="M32.105 35.6l3.158-3.9h-6.316l3.158 3.9z"/></g></g><path d="M40 46H0V20h40v26zM1.053 44.7h37.894V21.3H1.053v23.4z" fill="#316ac5"/></g></svg>