<svg width="35" height="28" xmlns="http://www.w3.org/2000/svg" fill-rule="evenodd" clip-rule="evenodd" stroke-linejoin="round" stroke-miterlimit="2"><path fill="#9ab4df" d="M0 0h35v22H0z"/><path d="M35 22H0V0h35v22zM1 1v20h33V1H1z" fill="#316ac5"/><path d="M2.447 13.452v.672h4.99v-.672c-1.21-.016-2.42-.656-1.815-1.776.17-.368.624-1.216.624-1.216h5.142l1.059 2.112c.453.96-1.191.864-1.72.88v.672h6.294v-.672c-.51.08-1.19-.096-1.455-.56l-5.293-10.56H9.27L4.28 12.348c-.322.656-1.022 1.024-1.834 1.104zM8.74 5.34l2.25 4.224H6.643L8.741 5.34z" fill="navy" fill-rule="nonzero"/><path d="M19.322 22.755l.103-16.24 11.319 11.647-4.844.328 3.365 8.366-2.856 1.149-3.365-8.367-3.722 3.117z" fill="#fff"/><path d="M30.744 18.162l-4.844.328 3.365 8.366-2.856 1.149-3.365-8.367-3.722 3.117.103-16.24 11.319 11.647zm-10.409 2.441l3.124-2.615 3.505 8.716 1-.402-3.506-8.716 4.064-.276-8.113-8.349-.074 11.642z" fill="red"/><path d="M2 15h16v4H2z"/><g><path d="M28.5 13l3-3h-6l3 3z"/></g></svg>