<svg width="60" height="17" xmlns="http://www.w3.org/2000/svg" fill-rule="evenodd" clip-rule="evenodd" stroke-linecap="round" stroke-linejoin="round" stroke-miterlimit="1.5"><path d="M60 1v15l-1 1H1l-1-1V1l1-1h58l1 1zM1 1v15h58V1H1z" fill="#003bae"/><path fill="url(#_Linear1)" d="M1 1h58v15H1z"/><path d="M59 16H1V1h58v15zM2 2v13h56V2H2z" fill="#6e90c5" fill-opacity=".27"/><path d="M2 2h3v1H3v3H2V2z" fill="url(#_Linear2)"/><path d="M2 2h2v1H3v2H2V2z" fill="#fff"/><g><path fill="#fff" d="M7 8.5l4.536-4.536 6.364 6.364-4.536 4.536z"/><path fill="#2c68cc" d="M8.303 8.732l3.536-3.535.707.707L9.01 9.439zM10.425 10.854l3.535-3.536.707.707-3.535 3.536zM12.546 12.975l3.535-3.536.708.707-3.536 3.536z"/></g><path d="M15 9V7l3.5-3.5 2 2L17 9h-2z" fill="#fff" stroke="#2c68cc"/><g><path d="M28.498 13.227V3.77h4.211v1.159h-3.057V7.54h2.376v1.158h-2.376v3.371h3.057v1.158h-4.211z" fill="#fff" fill-rule="nonzero"/><path d="M32.753 3.238l.044.005.043.01.042.011.041.017.04.02.038.021.036.026.033.03.031.03.029.034.026.035.022.038.02.04.016.04.012.043.009.044.006.043.001.044v1.159l-.001.043-.006.044-.009.043-.012.042-.016.042-.02.039-.022.038-.026.035-.029.035-.031.031-.033.028-.036.026-.038.022-.04.02-.041.016-.042.012-.043.009-.044.005-.044.003h-2.524v1.546h1.887l.044.006.043.01.043.013.041.015.039.02.038.023.036.025.034.028.031.031.028.034.026.036.022.037.02.04.016.042.012.042.009.043.006.043.002.045v1.158l-.002.044-.006.044-.009.043-.012.043-.016.04-.02.04-.022.038-.026.036-.028.033-.031.031-.034.03-.036.025-.038.022-.039.02-.041.015-.043.013-.043.01-.044.005h-1.887v2.306h2.524l.044.003.044.004.043.01.042.012.041.016.04.02.038.022.036.026.033.028.031.031.029.034.026.036.022.037.02.04.016.042.012.042.009.042.006.045.001.043v1.158l-.001.045-.006.043-.009.044-.012.042-.016.04-.02.04-.022.039-.026.035-.029.034-.031.03-.033.03-.036.026-.038.022-.04.019-.041.017-.042.012-.043.009-.044.005-.044.003h-4.211l-.044-.003-.044-.005-.043-.01-.042-.011-.041-.017-.04-.02-.038-.021-.036-.026-.033-.03-.031-.03-.029-.034-.026-.035-.022-.038-.019-.04-.016-.04-.013-.043-.009-.044-.006-.043-.001-.045V3.77l.001-.044.006-.043.009-.044.013-.042.016-.042.019-.039.022-.038.026-.035.029-.034.031-.03.033-.03.036-.026.038-.022.04-.019.041-.017.042-.012.043-.009.044-.005.044-.003h4.211l.044.003zm-4.255.53v9.46h4.211v-1.159h-3.057V8.698h2.376V7.54h-2.376V4.928h3.057v-1.16h-4.211z" fill="#003bae"/><path d="M33.955 13.227V3.77h1.95c.5 0 .942.125 1.327.373.369.232.665.57.888 1.016.3.576.45 1.288.45 2.138V9.7c0 .85-.15 1.562-.45 2.136-.231.447-.527.786-.888 1.018-.377.248-.819.372-1.327.372h-1.95zm1.154-1.158h.796c.254 0 .477-.064.669-.192.208-.138.385-.34.531-.605.208-.412.311-.936.311-1.57V7.295c0-.636-.103-1.16-.311-1.571-.139-.274-.315-.476-.531-.605-.2-.129-.423-.192-.669-.192h-.796v7.141z" fill="#fff" fill-rule="nonzero"/><path d="M36.015 3.238l.107.004.056.005.054.004.054.006.053.006.053.008.053.009.053.009.052.01.052.011.052.012.051.013.051.014.051.015.05.015.05.017.05.018.049.018.049.02.049.02.048.021.048.022.047.023.047.024.046.025.046.025.046.027.045.027.041.027.04.025.042.028.042.03.041.028.041.032.04.03.039.032.039.033.038.034.04.036.072.069.071.073.069.076.067.08.064.08.062.084.059.087.057.089.054.091.052.094.048.091.03.06.031.064.03.065.029.066.028.066.027.067.026.068.024.068.024.07.023.07.021.071.02.072.02.071.018.074.017.073.017.074.015.075.014.075.013.077.012.077.011.077.011.08.009.078.008.08.007.08.006.082.006.081.004.083.003.082.003.085.001.084V9.787l-.001.084-.003.084-.003.083-.004.083-.006.081-.006.082-.007.08-.008.08-.009.078-.011.08-.011.077-.012.077-.013.076-.014.075-.015.076-.017.074-.017.073-.018.073-.02.072-.02.072-.021.071-.023.07-.024.07-.024.068-.026.068-.027.067-.028.066-.029.065-.03.066-.031.064-.032.063-.05.093-.053.093-.055.09-.057.089-.06.086-.061.082-.064.082-.066.078-.069.076-.07.072-.073.07-.075.067-.077.065-.079.061-.081.06-.079.052-.043.028-.044.027-.046.026-.045.027-.047.025-.046.024-.047.022-.048.023-.048.021-.049.021-.049.02-.049.018-.05.018-.05.017-.05.015-.051.015-.051.014-.052.013-.052.012-.052.011-.053.01-.053.009-.053.009-.053.008-.054.006-.054.006-.054.004-.057.005-.108.004-.107.003h-1.954l-.044-.003-.044-.005-.043-.01-.042-.011-.041-.017-.04-.02-.038-.021-.035-.026-.034-.03-.031-.03-.029-.034-.025-.035-.023-.038-.019-.04-.016-.04-.013-.043-.009-.044-.005-.043-.002-.045V3.77l.002-.044.005-.043.009-.044.013-.042.016-.042.019-.039.023-.038.025-.035.029-.034.031-.03.034-.03.035-.026.038-.022.04-.019.041-.017.042-.012.043-.009.044-.005.044-.003h1.954l.106.003zm-2.06.53v9.46h1.95l.094-.002.093-.004.046-.004.046-.003.045-.006.044-.004.045-.007.044-.006.043-.008.043-.01.043-.008.043-.01.042-.01.041-.011.042-.013.041-.012.04-.014.04-.014.04-.015.039-.016.039-.016.039-.017.038-.018.038-.018.037-.02.037-.02.037-.02.036-.023.036-.022.036-.022.067-.045.065-.048.064-.049.063-.052.061-.055.059-.057.058-.06.056-.063.055-.064.053-.067.052-.07.05-.073.048-.075.048-.077.045-.08.044-.083.028-.053.027-.056.026-.056.025-.056.024-.057.023-.058.022-.06.022-.06.021-.061.019-.061.019-.063.018-.062.017-.065.017-.065.015-.064.015-.067.013-.067.013-.068.012-.07.011-.069.01-.07.009-.071.009-.073.007-.072.007-.074.005-.074.005-.075.004-.076.003-.077.002-.078.002-.078V7.216l-.002-.079-.002-.077-.003-.077-.004-.076-.005-.075-.005-.074-.007-.074-.007-.073-.009-.072-.009-.071-.01-.07-.011-.07-.012-.069-.013-.068-.013-.067-.015-.067-.015-.064-.017-.066-.017-.064-.018-.062-.019-.063-.019-.062-.021-.06-.022-.06-.022-.06-.023-.058-.024-.058-.025-.055-.026-.056-.027-.056-.028-.055-.043-.081-.044-.08-.046-.077-.048-.075-.049-.073-.052-.07-.053-.067-.054-.064-.057-.063-.058-.06-.06-.057-.03-.028-.031-.027-.031-.026-.032-.026-.033-.026-.032-.024-.033-.024-.034-.023-.034-.022-.034-.023-.036-.023-.037-.022-.037-.022-.037-.02-.038-.02-.038-.02-.038-.018-.038-.018-.039-.017-.04-.016-.039-.016-.04-.015-.04-.015-.041-.013-.041-.012-.041-.013-.042-.01-.042-.012-.042-.009-.043-.01-.043-.008-.043-.008-.044-.006-.044-.007-.044-.006-.045-.004-.045-.003-.045-.004-.092-.004-.093-.002h-1.95zm1.996 1.16l.045.002.045.004.044.006.044.006.043.008.043.01.042.011.041.014.041.013.041.017.04.017.039.019.039.02.038.022.038.023.04.025.039.027.038.029.037.03.037.031.035.034.035.035.033.037.033.04.032.04.031.042.03.043.029.046.028.047.027.049.027.05.019.04.019.04.018.04.017.04.017.04.016.043.015.044.015.043.014.044.014.045.013.045.013.047.023.094.02.097.019.099.016.103.013.103.011.108.008.11.007.112.003.115.001.119V9.7l-.001.119-.003.115-.007.112-.008.11-.011.107-.013.104-.016.103-.019.1-.02.096-.023.094-.013.047-.013.045-.014.044-.014.045-.015.043-.015.044-.016.041-.017.042-.017.04-.018.04-.019.04-.019.04-.028.049-.028.047-.03.047-.03.044-.03.043-.032.042-.032.04-.032.038-.034.037-.034.036-.035.034-.036.033-.036.03-.037.03-.038.028-.039.027-.036.023-.037.022-.038.02-.039.02-.039.016-.04.016-.041.014-.041.014-.043.01-.042.01-.044.009-.044.006-.046.006-.045.003-.047.002-.047.001h-.796V4.928H35.951zm-.309.533v6.075H35.935l.029-.002.028-.002.026-.004.026-.003.024-.004.024-.006.023-.007.022-.006.021-.008.021-.008.02-.009.02-.01.02-.01.019-.011.021-.013.024-.017.023-.017.023-.019.023-.019.022-.02.023-.022.022-.024.023-.024.022-.027.022-.028.023-.029.022-.031.022-.032.021-.035.022-.037.017-.03.01-.02.015-.031.013-.03.014-.033.013-.032.013-.033.012-.035.012-.035.012-.035.011-.037.01-.037.01-.036.02-.08.017-.081.016-.085.013-.088.012-.09.01-.094.007-.098.006-.1.003-.103.001-.11V7.298l-.001-.11-.003-.103-.006-.1-.007-.098-.01-.093-.012-.092-.013-.087-.016-.085-.017-.081-.02-.08-.01-.036-.01-.038-.011-.036-.012-.035-.012-.035-.012-.035-.013-.033-.013-.032-.014-.033-.013-.03-.015-.031-.014-.03-.02-.037-.02-.036-.02-.033-.02-.031-.02-.03-.021-.028-.02-.026-.021-.025-.02-.022-.021-.021-.02-.019-.021-.019-.021-.017-.021-.015-.021-.015-.03-.018-.028-.018-.022-.012-.022-.01-.022-.012-.022-.009-.022-.009-.022-.008-.023-.006-.023-.007-.024-.006-.024-.004-.025-.005-.026-.002-.026-.002-.028-.002H35.642z" fill="#003bae"/><path d="M40.37 13.227V12.07h1.038V4.928H40.37v-1.16h3.23v1.16h-1.038v7.141H43.6v1.158h-3.23z" fill="#fff" fill-rule="nonzero"/><path d="M43.644 3.238l.044.005.043.01.043.011.041.017.039.02.038.021.036.026.034.03.031.03.028.034.026.035.022.038.02.04.016.04.012.043.009.044.006.043.002.044v1.159l-.002.043-.006.044-.009.043-.012.042-.016.042-.02.039-.022.038-.026.035-.028.035-.031.031-.034.028-.036.026-.038.022-.039.02-.041.016-.043.012-.043.009-.044.005-.044.003h-.505v6.075h.505l.044.003.044.004.043.01.043.012.041.016.039.02.038.022.036.026.034.028.031.031.028.034.026.036.022.037.02.04.016.042.012.042.009.042.006.045.002.043v1.158l-.002.045-.006.043-.009.044-.012.042-.016.04-.02.04-.022.039-.026.035-.028.034-.031.03-.034.03-.036.026-.038.022-.039.019-.041.017-.043.012-.043.009-.044.005-.044.003h-3.23l-.044-.003-.044-.005-.043-.01-.042-.011-.041-.017-.04-.02-.038-.021-.036-.026-.033-.03-.031-.03-.029-.034-.026-.035-.022-.038-.019-.04-.016-.04-.013-.043-.009-.044-.006-.043-.001-.045V12.07l.001-.043.006-.045.009-.042.013-.042.016-.042.019-.04.022-.037.026-.036.029-.034.031-.031.033-.028.036-.026.038-.022.04-.02.041-.016.042-.012.043-.01.044-.004.044-.003h.505V5.461h-.505l-.044-.003-.044-.005-.043-.01-.042-.011-.041-.016-.04-.02-.038-.022-.036-.026-.033-.028-.031-.031-.029-.035-.026-.035-.022-.038-.019-.04-.016-.04-.013-.043-.009-.043-.006-.044-.001-.043v-1.16l.001-.043.006-.043.009-.044.013-.042.016-.042.019-.039.022-.038.026-.035.029-.034.031-.03.033-.03.036-.026.038-.022.04-.019.041-.017.042-.012.043-.009.044-.005.044-.003h3.23l.044.003zm-3.274.53v1.16h1.038v7.141H40.37v1.158h3.23V12.07h-1.038V4.928H43.6v-1.16h-3.23z" fill="#003bae"/><path d="M45.493 4.928v-1.16h4.522v1.16h-1.684v8.3h-1.154v-8.3h-1.684z" fill="#fff" fill-rule="nonzero"/><path d="M50.059 3.238l.044.005.043.01.042.011.041.017.04.02.038.021.036.026.033.03.032.03.028.034.026.035.022.038.02.04.016.04.012.043.009.044.006.043.002.044v1.159l-.002.043-.006.044-.009.043-.012.042-.016.042-.02.039-.022.038-.026.035-.028.035-.032.031-.033.028-.036.026-.038.022-.04.02-.041.016-.042.012-.043.009-.044.005-.044.003h-1.151v7.766l-.002.045-.005.043-.009.044-.013.042-.016.04-.019.04-.023.039-.025.035-.029.034-.031.03-.034.03-.036.026-.037.022-.04.019-.041.017-.042.012-.043.009-.044.005-.044.003h-1.154l-.044-.003-.044-.005-.043-.01-.042-.011-.041-.017-.04-.02-.038-.021-.036-.026-.033-.03-.031-.03-.029-.034-.025-.035-.023-.038-.019-.04-.016-.04-.013-.043-.009-.044-.005-.043-.002-.045V5.461h-1.151l-.044-.003-.044-.005-.043-.01-.043-.011-.041-.016-.039-.02-.038-.022-.036-.026-.034-.028-.031-.031-.028-.035-.026-.035-.022-.038-.02-.04-.016-.04-.012-.043-.009-.043-.006-.044-.002-.043v-1.16l.002-.043.006-.043.009-.044.012-.042.016-.042.02-.039.022-.038.026-.035.028-.034.031-.03.034-.03.036-.026.038-.022.039-.019.041-.017.043-.012.043-.009.044-.005.044-.003h4.522l.044.003zm-4.566.53v1.16h1.684v8.3h1.154v-8.3h1.684v-1.16h-4.522z" fill="#003bae"/></g><defs><linearGradient id="_Linear1" x1="0" y1="0" x2="1" y2="0" gradientUnits="userSpaceOnUse" gradientTransform="matrix(58 0 0 15 1 8.5)"><stop offset="0" stop-color="#6b8dc4"/><stop offset=".43" stop-color="#87a3cf"/><stop offset=".89" stop-color="#d5dfee"/><stop offset=".96" stop-color="#c5d3e8"/><stop offset=".98" stop-color="#9bb3d7"/><stop offset="1" stop-color="#6b8dc4"/></linearGradient><linearGradient id="_Linear2" x1="0" y1="0" x2="1" y2="0" gradientUnits="userSpaceOnUse" gradientTransform="matrix(0 -2 2.66667 0 3 5)"><stop offset="0" stop-color="#b3c4e0"/><stop offset="1" stop-color="#a1b7d9"/></linearGradient></defs></svg>