<svg width="60" height="17" xmlns="http://www.w3.org/2000/svg" fill-rule="evenodd" clip-rule="evenodd" stroke-linejoin="round" stroke-miterlimit="2"><path d="M60 1v15l-1 1H1l-1-1V1l1-1h58l1 1zM1 1v15h58V1H1z" fill="#003bae"/><path fill="url(#_Linear1)" d="M1 1h58v15H1z"/><path d="M59 16H1V1h58v15zM2 2v13h56V2H2z" fill="#6e90c5" fill-opacity=".27"/><path d="M2 2h3v1H3v3H2V2z" fill="url(#_Linear2)"/><path d="M2 2h2v1H3v2H2V2zM19 5.74L17.26 4H8.74L7 5.74v5.52L8.74 13h8.52L19 11.26V5.74z" fill="#fff"/><clipPath id="a"><path d="M19 5.74L17.26 4H8.74L7 5.74v5.52L8.74 13h8.52L19 11.26V5.74z"/></clipPath><g clip-path="url(#a)"><path fill="#2c68cc" d="M14 5h3v3h-3zM9 8h3v1H9zM9 10h8v1H9z"/></g><g><path d="M23.498 13.227V3.77h4.211v1.159h-3.057V7.54h2.376v1.158h-2.376v3.371h3.057v1.158h-4.211z" fill="#fff" fill-rule="nonzero"/><path d="M27.753 3.238l.044.005.043.01.042.011.041.017.04.02.038.021.036.026.033.03.031.03.029.034.026.035.022.038.02.04.016.04.012.043.009.044.006.043.001.044v1.159l-.001.043-.006.044-.009.043-.012.042-.016.042-.02.039-.022.038-.026.035-.029.035-.031.031-.033.028-.036.026-.038.022-.04.02-.041.016-.042.012-.043.009-.044.005-.044.003h-2.524v1.546h1.887l.044.006.043.01.043.013.041.015.039.02.038.023.036.025.034.028.031.031.028.034.026.036.022.037.02.04.016.042.012.042.009.043.006.043.002.045v1.158l-.002.044-.006.044-.009.043-.012.043-.016.04-.02.04-.022.038-.026.036-.028.033-.031.031-.034.03-.036.025-.038.022-.039.02-.041.015-.043.013-.043.01-.044.005h-1.887v2.306h2.524l.044.003.044.004.043.01.042.012.041.016.04.02.038.022.036.026.033.028.031.031.029.034.026.036.022.037.02.04.016.042.012.042.009.042.006.045.001.043v1.158l-.001.045-.006.043-.009.044-.012.042-.016.04-.02.04-.022.039-.026.035-.029.034-.031.03-.033.03-.036.026-.038.022-.04.019-.041.017-.042.012-.043.009-.044.005-.044.003h-4.211l-.044-.003-.044-.005-.043-.01-.042-.011-.041-.017-.04-.02-.038-.021-.036-.026-.033-.03-.031-.03-.029-.034-.026-.035-.022-.038-.019-.04-.016-.04-.013-.043-.009-.044-.006-.043-.001-.045V3.77l.001-.044.006-.043.009-.044.013-.042.016-.042.019-.039.022-.038.026-.035.029-.034.031-.03.033-.03.036-.026.038-.022.04-.019.041-.017.042-.012.043-.009.044-.005.044-.003h4.211l.044.003zm-4.255.53v9.46h4.211v-1.159h-3.057V8.698h2.376V7.54h-2.376V4.928h3.057v-1.16h-4.211z" fill="#003bae"/><path fill="#fff" fill-rule="nonzero" d="M29.196 6.517h3.272v1.606h-3.272z"/><path d="M32.494 5.985l.026.002.026.002.026.005.026.007.025.006.025.008.024.01.024.01.023.012.023.013.022.014.022.015.02.016.02.017.02.018.017.019.017.02.016.021.015.021.015.023.013.022.011.023.011.024.01.024.007.026.008.025.005.025.004.026.004.027.002.025V8.15l-.002.026-.004.026-.004.026-.005.026-.008.024-.008.026-.009.023-.01.025-.012.023-.013.023-.015.022-.015.021-.016.021-.017.02-.018.02-.019.017-.02.017-.02.015-.022.016-.022.015-.023.012-.023.012-.024.01-.024.01-.025.008-.025.007-.026.005-.026.005-.026.003-.026.002-.026.001H29.17l-.026-.003-.026-.003-.026-.005-.025-.005-.026-.007-.024-.008-.025-.01-.024-.01-.023-.012-.023-.012-.022-.015-.022-.016-.02-.015-.02-.017-.02-.018-.017-.019-.017-.02-.016-.021-.015-.021-.014-.022-.013-.023-.012-.023-.01-.025-.01-.023-.008-.026-.007-.024-.006-.026-.004-.026-.004-.026-.002-.026V6.49l.002-.025.004-.027.004-.026.006-.025.007-.025.008-.026.01-.024.01-.024.012-.023.013-.022.014-.023.015-.02.016-.022.017-.02.018-.019.02-.018.019-.017.02-.016.022-.015.022-.014.023-.013.023-.012.024-.01.025-.01.024-.008.026-.006.025-.007.026-.005.026-.002.026-.002.026-.001H32.494zm-3.298.532v1.606h3.272V6.517h-3.272z" fill="#003bae"/><path d="M33.955 13.227V3.77h1.096l1.165 4.993 1.166-4.993h1.096v9.458h-1.154v-1.891c0-1.184.065-2.445.196-3.784.062-.6.108-1.179.139-1.737l-1.062 4.581h-.761l-1.062-4.58c.031.557.077 1.136.139 1.736.131 1.339.196 2.6.196 3.784v1.891h-1.154z" fill="#fff" fill-rule="nonzero"/><path d="M35.096 3.238l.044.005.044.01.043.013.041.016.04.02.039.023.036.026.034.03.031.032.028.034.026.037.022.038.019.041.016.042.012.043.645 2.767.646-2.767.012-.043.016-.042.019-.04.022-.039.026-.037.028-.034.031-.033.034-.029.036-.026.039-.023.04-.02.041-.016.043-.014.044-.009.044-.005.045-.003h1.096l.044.003.044.005.043.01.042.011.041.017.04.02.038.021.035.026.034.03.031.03.029.034.025.035.023.038.019.04.016.04.013.043.009.044.005.043.002.044v9.458l-.002.045-.005.043-.009.044-.013.042-.016.04-.019.04-.023.039-.025.035-.029.034-.031.03-.034.03-.035.026-.038.022-.04.019-.041.017-.042.012-.043.009-.044.005-.044.003h-1.154l-.044-.003-.044-.005-.043-.01-.042-.011-.041-.017-.04-.02-.038-.021-.036-.026-.033-.03-.031-.03-.029-.034-.025-.035-.023-.038-.019-.04-.016-.04-.013-.043-.009-.044-.005-.043-.002-.045v-1.891l.001-.227.002-.217-.021.009-.043.012-.044.01-.044.005-.045.002h-.761l-.045-.002-.044-.005-.044-.01-.043-.012-.021-.01.002.218.001.227v1.891l-.002.045-.005.043-.009.044-.013.042-.016.04-.019.04-.023.039-.025.035-.029.034-.031.03-.034.03-.035.026-.038.022-.04.019-.041.017-.042.012-.043.009-.044.005-.044.003h-1.154l-.044-.003-.044-.005-.043-.01-.042-.011-.041-.017-.04-.02-.038-.021-.035-.026-.034-.03-.031-.03-.029-.034-.025-.035-.023-.038-.019-.04-.016-.04-.013-.043-.009-.044-.005-.043-.002-.045V3.77l.002-.044.005-.043.009-.044.013-.042.016-.042.019-.039.023-.038.025-.035.029-.034.031-.03.034-.03.035-.026.038-.022.04-.019.041-.017.042-.012.043-.009.044-.005.044-.003h1.096l.045.003zm-1.141.53v9.46h1.154v-1.892l-.001-.222-.002-.226-.004-.226-.005-.229-.007-.23-.009-.232-.01-.233-.011-.236-.013-.237-.015-.24-.016-.24-.017-.244-.02-.244-.02-.246-.022-.248-.024-.25-.023-.225-.021-.222-.019-.22-.018-.218-.017-.217-.015-.214-.013-.212-.013-.21 1.062 4.581h.761l1.062-4.58-.013.21-.013.211-.015.214-.017.217-.018.218-.02.22-.02.222-.023.224-.024.251-.022.248-.02.246-.02.244-.017.244-.016.24-.015.24-.013.237-.011.236-.01.233-.009.232-.007.23-.005.229-.004.226-.002.226-.001.222v1.891h1.154V3.77h-1.096l-1.166 4.993-1.165-4.993h-1.096z" fill="#003bae"/><path d="M39.724 13.227v-.951c0-1.717.561-4.552 1.684-8.507h1.154c1.123 3.955 1.685 6.79 1.685 8.507v.951h-1.154v-.951c0-.378-.023-.811-.069-1.3h-2.077c-.046.489-.069.922-.069 1.3v.951h-1.154zm1.373-3.41h1.777c-.185-1.235-.481-2.737-.889-4.504-.407 1.767-.704 3.269-.888 4.504z" fill="#fff" fill-rule="nonzero"/><path d="M42.605 3.238l.043.005.042.008.042.012.04.016.039.019.037.021.036.025.033.028.031.03.029.032.026.035.022.036.02.038.017.04.013.042.104.368.101.362.098.357.094.35.091.343.088.338.084.33.082.323.078.318.074.312.072.304.068.299.065.292.061.286.059.279.055.272.051.266.049.261.045.254.042.247.039.241.035.236.032.228.029.222.025.217.022.21.019.204.015.198.012.193.009.184.003.092.002.09.001.088.001.085v.953l-.002.045-.005.043-.009.044-.013.042-.016.04-.019.04-.023.039-.026.035-.028.034-.031.03-.034.03-.036.026-.038.022-.039.019-.041.017-.043.012-.043.009-.043.005-.044.003h-1.154l-.044-.003-.044-.005-.043-.01-.042-.011-.041-.017-.04-.02-.038-.021-.036-.026-.033-.03-.032-.03-.028-.034-.026-.035-.022-.038-.02-.04-.016-.04-.012-.043-.009-.044-.006-.043-.002-.045v-.95l-.001-.138-.003-.142-.005-.148-.007-.153-.01-.16-.001-.026h-1.093l-.002.026-.01.16-.007.153-.005.148-.003.142-.001.138v.95l-.002.045-.005.043-.009.044-.013.042-.016.04-.019.04-.023.039-.026.035-.028.034-.031.03-.034.03-.036.026-.038.022-.039.019-.041.017-.042.012-.044.009-.043.005-.044.003h-1.154l-.044-.003-.044-.005-.043-.01-.042-.011-.041-.017-.04-.02-.038-.021-.036-.026-.033-.03-.032-.03-.028-.034-.026-.035-.022-.038-.02-.04-.016-.04-.012-.043-.009-.044-.006-.043-.001-.045V12.19l.001-.088.002-.09.004-.092.008-.185.012-.192.016-.198.018-.204.022-.21.026-.217.029-.222.032-.228.035-.236.038-.24.042-.248.046-.254.048-.26.052-.267.055-.272.058-.28.062-.285.065-.292.068-.299.071-.304.075-.312.078-.318.081-.323.084-.33.088-.338.091-.343.095-.35.097-.357.101-.362.104-.368.013-.042.017-.04.02-.038.023-.036.026-.035.028-.032.031-.03.033-.028.036-.025.037-.021.039-.02.041-.015.041-.012.042-.008.043-.005.043-.003h1.154l.043.003zm-1.197.53l-.103.369-.101.36-.097.355-.093.348-.091.341-.087.335-.084.328-.081.322-.077.314-.074.31-.071.3-.067.296-.064.289-.061.282-.058.276-.054.269-.051.263-.048.255-.044.25-.041.243-.038.236-.035.23-.031.222-.028.218-.025.21-.021.203-.018.197-.015.19-.011.185-.009.176-.002.087-.003.084-.001.083v1.033h1.154v-.951l.001-.145.003-.15.005-.154.008-.16.01-.164.012-.17.014-.177.016-.18h2.077l.016.18.014.176.012.17.009.166.008.16.005.153.004.15.001.145v.951h1.154v-.951l-.001-.082-.001-.083-.002-.084-.003-.087-.008-.176-.012-.184-.015-.19-.018-.198-.021-.203-.025-.21-.028-.218-.031-.223-.035-.23-.037-.235-.041-.243-.045-.25-.048-.255-.051-.263-.054-.27-.057-.275-.061-.282-.064-.289-.068-.295-.071-.302-.074-.309-.077-.314-.081-.322-.083-.328-.088-.335-.09-.341-.094-.348-.097-.355-.1-.36-.104-.368h-1.154zm.652 1.873l.073.323.07.315.067.31.065.303.062.298.059.29.057.285.054.278.052.272.049.267.046.26.044.253.041.246.039.242.036.234h-1.777l.036-.234.038-.242.041-.246.044-.254.047-.26.049-.266.051-.272.054-.278.057-.284.06-.291.062-.298.064-.303.068-.31.07-.315.072-.323.075-.328.075.328zm-.079 2.227l-.054.276-.051.27-.049.262-.046.257-.043.25-.016.101h.527l-.017-.1-.043-.251-.046-.257-.048-.263-.052-.269-.053-.276-.005-.023-.004.023z" fill="#003bae"/><path d="M46.139 13.227V12.07h1.038V4.928h-1.038v-1.16h3.23v1.16h-1.038v7.141h1.038v1.158h-3.23z" fill="#fff" fill-rule="nonzero"/><path d="M49.413 3.238l.044.005.043.01.042.011.041.017.04.02.038.021.036.026.033.03.032.03.028.034.026.035.022.038.02.04.016.04.012.043.009.044.006.043.001.044v1.159l-.001.043-.006.044-.009.043-.012.042-.016.042-.02.039-.022.038-.026.035-.028.035-.032.031-.033.028-.036.026-.038.022-.04.02-.041.016-.042.012-.043.009-.044.005-.044.003h-.505v6.075h.505l.044.003.044.004.043.01.042.012.041.016.04.02.038.022.036.026.033.028.032.031.028.034.026.036.022.037.02.04.016.042.012.042.009.042.006.045.001.043v1.158l-.001.045-.006.043-.009.044-.012.042-.016.04-.02.04-.022.039-.026.035-.028.034-.032.03-.033.03-.036.026-.038.022-.04.019-.041.017-.042.012-.043.009-.044.005-.044.003h-3.23l-.044-.003-.044-.005-.043-.01-.043-.011-.041-.017-.039-.02-.038-.021-.036-.026-.034-.03-.031-.03-.028-.034-.026-.035-.022-.038-.02-.04-.016-.04-.012-.043-.009-.044-.006-.043-.002-.045V12.07l.002-.043.006-.045.009-.042.012-.042.016-.042.02-.04.022-.037.026-.036.028-.034.031-.031.034-.028.036-.026.038-.022.039-.02.041-.016.043-.012.043-.01.044-.004.044-.003h.505V5.461h-.505l-.044-.003-.044-.005-.043-.01-.043-.011-.041-.016-.039-.02-.038-.022-.036-.026-.034-.028-.031-.031-.028-.035-.026-.035-.022-.038-.02-.04-.016-.04-.012-.043-.009-.043-.006-.044-.002-.043v-1.16l.002-.043.006-.043.009-.044.012-.042.016-.042.02-.039.022-.038.026-.035.028-.034.031-.03.034-.03.036-.026.038-.022.039-.019.041-.017.043-.012.043-.009.044-.005.044-.003h3.23l.044.003zm-3.274.53v1.16h1.038v7.141h-1.038v1.158h3.23V12.07h-1.038V4.928h1.038v-1.16h-3.23z" fill="#003bae"/><path d="M51.573 13.227V3.77h1.154v8.3h3.149v1.158h-4.303z" fill="#fff" fill-rule="nonzero"/><path d="M52.771 3.238l.043.005.043.01.043.011.041.017.039.02.038.021.036.026.034.03.031.03.028.034.026.035.023.038.019.04.016.04.013.043.009.044.005.043.002.044v7.767h2.616l.044.003.044.004.043.01.042.012.041.016.04.02.038.022.036.026.033.028.032.031.028.034.026.036.022.037.02.04.016.042.012.042.009.042.006.045.002.043v1.158l-.002.045-.006.043-.009.044-.012.042-.016.04-.02.04-.022.039-.026.035-.028.034-.032.03-.033.03-.036.026-.038.022-.04.019-.041.017-.042.012-.043.009-.044.005-.044.003h-4.303l-.044-.003-.044-.005-.043-.01-.042-.011-.041-.017-.04-.02-.038-.021-.036-.026-.033-.03-.032-.03-.028-.034-.026-.035-.022-.038-.02-.04-.016-.04-.012-.043-.009-.044-.006-.043-.002-.045V3.77l.002-.044.006-.043.009-.044.012-.042.016-.042.02-.039.022-.038.026-.035.028-.034.032-.03.033-.03.036-.026.038-.022.04-.019.041-.017.042-.012.043-.009.044-.005.044-.003h1.154l.044.003zm-1.198.53v9.46h4.303v-1.159h-3.149v-8.3h-1.154z" fill="#003bae"/></g><defs><linearGradient id="_Linear1" x1="0" y1="0" x2="1" y2="0" gradientUnits="userSpaceOnUse" gradientTransform="matrix(58 0 0 15 1 8.5)"><stop offset="0" stop-color="#6b8dc4"/><stop offset=".43" stop-color="#87a3cf"/><stop offset=".89" stop-color="#d5dfee"/><stop offset=".96" stop-color="#c5d3e8"/><stop offset=".98" stop-color="#9bb3d7"/><stop offset="1" stop-color="#6b8dc4"/></linearGradient><linearGradient id="_Linear2" x1="0" y1="0" x2="1" y2="0" gradientUnits="userSpaceOnUse" gradientTransform="matrix(0 -2 2.66667 0 3 5)"><stop offset="0" stop-color="#b3c4e0"/><stop offset="1" stop-color="#a1b7d9"/></linearGradient></defs></svg>