<svg width="60" height="17" xmlns="http://www.w3.org/2000/svg" fill-rule="evenodd" clip-rule="evenodd" stroke-linecap="round" stroke-linejoin="round" stroke-miterlimit="1.5"><path d="M60 1v15l-1 1H1l-1-1V1l1-1h58l1 1zM1 1v15h58V1H1z" fill="#003bae"/><path fill="url(#_Linear1)" d="M1 1h58v15H1z"/><path d="M59 16H1V1h58v15zM2 2v13h56V2H2z" fill="#6e90c5" fill-opacity=".27"/><path d="M2 2h3v1H3v3H2V2z" fill="url(#_Linear2)"/><path d="M2 2h2v1H3v2H2V2z" fill="#fff"/><g transform="translate(1.796)" fill="none" stroke="#003ac4"><circle cx="10" cy="7" r="4"/><path d="M12.636 10.007L16.629 14"/></g><g transform="translate(2)" fill="none" stroke="#fff"><circle cx="10" cy="7" r="4"/><path d="M12.636 10.007L16.629 14"/></g><g><path d="M21.129 11.233l1.13-.205v.077c0 .18.043.347.127.502.085.162.2.29.346.386.185.12.412.18.681.18.246 0 .454-.057.623-.168a1.12 1.12 0 00.369-.412c.1-.197.15-.42.15-.67 0-.265-.065-.522-.196-.77-.184-.352-.577-.726-1.177-1.12-.846-.55-1.399-1.077-1.661-1.584a2.914 2.914 0 01-.335-1.364c0-.463.1-.888.3-1.274.177-.343.42-.609.727-.797.354-.232.777-.348 1.269-.348.523 0 .973.12 1.35.36.293.189.523.442.693.76.161.309.242.635.242.978l-1.131.205v-.077c0-.18-.042-.347-.127-.502a.995.995 0 00-.346-.386 1.22 1.22 0 00-.681-.18 1.11 1.11 0 00-.623.167c-.153.104-.277.241-.369.413-.1.197-.15.42-.15.669 0 .265.066.523.196.772.185.351.577.725 1.177 1.12.846.549 1.4 1.076 1.662 1.583.223.428.334.883.334 1.364 0 .463-.1.888-.3 1.273a1.966 1.966 0 01-.727.798c-.354.232-.777.348-1.269.348-.523 0-.973-.12-1.35-.36a2.018 2.018 0 01-.692-.76 2.087 2.087 0 01-.242-.978z" fill="#fff" fill-rule="nonzero"/><path d="M23.595 3.134l.112.005.11.008.107.011.056.008.054.008.054.009.053.01.053.011.052.011.052.013.052.013.051.015.051.014.051.017.05.016.049.018.05.018.049.02.048.02.048.023.047.022.047.023.047.024.046.025.046.026.044.027.048.029.068.046.066.048.065.049.063.052.062.054.059.054.058.058.056.06.054.06.052.063.05.065.048.067.046.068.044.069.042.071.041.074.037.075.034.072.032.074.03.073.027.075.025.076.023.076.02.077.018.077.015.078.013.078.011.08.009.077.005.08.004.08.001.072-.001.044-.005.043-.008.044-.012.042-.016.041-.018.04-.022.038-.026.037-.028.034-.03.032-.033.03-.036.025-.037.023-.04.02-.041.017-.042.012-.043.01-1.13.207-.044.005-.045.002h-.044l-.044-.005-.044-.009-.043-.012-.041-.016-.04-.019-.039-.022-.036-.026-.034-.029-.032-.031-.029-.034-.026-.035-.023-.038-.02-.04-.016-.042-.013-.042-.009-.043-.005-.045-.002-.045v-.072l-.001-.023v-.016L24.1 5.84l-.001-.017-.002-.015-.003-.016-.003-.016-.004-.014-.004-.016-.004-.014-.005-.015-.005-.013-.006-.015-.007-.014-.007-.015-.01-.02-.012-.02-.009-.016-.009-.015L24 5.577l-.009-.014-.01-.012-.009-.012-.01-.011-.01-.01-.01-.012-.01-.009-.011-.01-.011-.008-.012-.01-.012-.008-.012-.008-.018-.011-.017-.01-.018-.01-.018-.008-.02-.008-.02-.008-.022-.006-.023-.007-.024-.006-.026-.005-.027-.005-.029-.004-.03-.004-.032-.002h-.127l-.027.002-.026.003-.024.004-.023.003-.022.005-.021.005-.019.006-.018.006-.017.006-.016.007-.015.007-.015.008-.014.007-.013.01-.012.007-.014.011-.014.011-.014.012-.013.01-.013.013-.012.012-.012.014-.012.013-.012.014-.011.016-.011.016-.011.015-.011.017-.011.018-.007.013-.008.017-.01.022-.009.023-.009.023-.008.025-.008.024-.007.026-.006.025-.005.027-.005.028-.005.028-.003.029-.003.03-.002.031-.001.032v.065l.002.034.002.032.004.034.004.032.006.032.007.033.007.032.009.032.01.033.011.032.012.032.013.034.015.033.015.033.018.034.011.02.012.022.013.022.015.022.016.024.017.023.018.026.02.024.021.026.022.027.024.026.025.028.026.028.028.03.029.028.029.028.067.061.07.062.076.062.081.065.086.065.092.067.097.068.104.069.078.051.081.054.079.054.078.054.076.054.074.054.073.055.071.053.07.055.068.053.066.055.065.055.063.054.062.055.06.055.059.054.057.056.055.055.054.055.052.056.051.056.049.057.048.057.045.057.045.057.042.058.041.058.039.058.038.059.035.059.034.059.032.06.047.094.045.095.041.097.039.097.035.098.033.1.029.1.026.1.024.101.02.102.017.104.014.102.011.105.007.104.005.105.001.105-.001.101-.004.1-.007.1-.01.099-.012.098-.015.098-.019.096-.021.096-.024.095-.026.095-.03.092-.032.093-.036.09-.038.09-.041.089-.043.087-.041.078-.044.076-.046.074-.048.073-.051.07-.052.07-.055.066-.057.065-.059.062-.061.06-.063.059-.065.055-.067.054-.069.051-.071.048-.065.042-.037.024-.043.026-.043.025-.044.025-.044.023-.045.024-.046.02-.045.022-.047.02-.046.02-.047.018-.048.017-.048.017-.048.015-.048.016-.05.013-.049.014-.052.012-.098.021-.102.018-.103.016-.104.01-.105.008-.106.005-.108.002-.113-.002-.111-.005-.111-.007-.107-.013-.056-.006-.054-.008-.053-.009-.053-.01-.053-.011-.052-.011-.052-.013-.052-.013-.051-.015-.051-.014-.051-.017-.05-.016-.05-.018-.049-.02-.049-.018-.048-.021-.048-.022-.048-.022-.047-.023-.046-.024-.046-.025-.046-.026-.045-.027-.047-.03-.068-.045-.067-.048-.064-.05-.064-.051-.061-.054-.06-.055-.057-.057-.056-.06-.054-.06-.052-.063-.05-.065-.048-.067-.046-.068-.044-.069-.043-.071-.041-.075-.037-.074-.034-.072-.032-.074-.029-.073-.028-.075-.025-.076-.022-.076-.02-.077-.018-.077-.016-.078-.013-.078-.011-.08-.008-.078-.006-.08-.003-.079-.002-.072.002-.044.004-.044.009-.043.012-.042.015-.041.019-.04.022-.039.025-.036.028-.034.031-.032.033-.03.035-.025.038-.023.039-.02.041-.017.042-.013.043-.01 1.131-.206.044-.005.044-.004.045.003.044.004.044.009.042.012.042.016.04.019.038.022.037.026.034.028.032.03.028.036.026.035.023.038.02.04.016.042.013.042.009.043.006.045.002.045v.094l.001.017.001.017.002.017.002.015.003.016.003.016.003.014.004.015.005.014.005.015.005.014.006.015.006.014.007.015.011.02.011.02.009.016.009.015.009.013.01.014.009.012.01.012.009.011.01.01.011.01.01.01.011.01.011.01.011.008.012.01.013.007.018.011.017.01.017.01.019.007.019.009.021.007.022.007.023.007.024.006.026.005.027.005.028.004.03.002.032.003.033.002h.065l.029-.001.028-.002.025-.004.025-.003.023-.003.022-.005.02-.005.019-.006.018-.006.017-.006.017-.007.015-.008.014-.007.014-.007.013-.01.012-.007.015-.011.014-.011.013-.012.013-.01.013-.013.013-.013.012-.013.012-.014.011-.014.012-.015.011-.016.011-.015.011-.018.01-.018.007-.012.008-.017.01-.022.01-.024.009-.023.008-.024.007-.024.007-.026.006-.025.006-.027.005-.028.004-.028.004-.029.002-.03.002-.031.002-.032v-.032l-.001-.035-.001-.032-.003-.033-.003-.033-.005-.032-.005-.032-.007-.033-.008-.032-.008-.032-.01-.033-.011-.032-.012-.034-.014-.032-.014-.033-.016-.034-.017-.033-.011-.02-.012-.022-.014-.022-.014-.022-.016-.024-.017-.024-.019-.025-.02-.024-.021-.027-.022-.026-.024-.028-.025-.026-.026-.028-.028-.03-.029-.028-.029-.028-.066-.061-.07-.062-.076-.062-.081-.065-.087-.066-.091-.066-.097-.068-.104-.069-.078-.051-.081-.055-.079-.053-.078-.054-.076-.054-.074-.054-.073-.055-.072-.053-.069-.055-.068-.054-.067-.054-.065-.055-.063-.054-.062-.055-.06-.055-.058-.055-.057-.055-.056-.056-.054-.054-.052-.056-.051-.057-.049-.056-.047-.057-.046-.057-.044-.057-.043-.058-.04-.058-.04-.058-.037-.059-.036-.059-.034-.059-.032-.06L21 7.6l-.044-.096-.042-.096-.038-.097-.036-.098-.032-.1-.03-.1-.026-.1-.023-.101-.02-.103-.017-.103-.014-.102-.011-.105-.008-.104-.004-.105-.002-.106.001-.1.005-.1.006-.1.01-.099.013-.098.015-.098.018-.097.021-.096.024-.095.027-.094.029-.092.033-.093.035-.09.038-.09.041-.09.044-.087.041-.077.044-.076.046-.074.048-.073.05-.07.053-.07.055-.066.056-.065.06-.062.061-.06.063-.059.065-.055.067-.054.069-.051.071-.05.064-.04.037-.024.043-.026.044-.025.044-.025.044-.023.045-.024.045-.021.046-.021.046-.02.047-.02.047-.018.047-.018.048-.016.048-.015.049-.016.049-.013.049-.014.052-.012.098-.021.102-.019.103-.015.104-.01.106-.009.106-.005.107-.001h.113zm-.204.533l-.09.005-.088.006-.087.01-.085.013-.083.014-.082.018-.04.01-.04.01-.04.011-.039.012-.038.013-.038.013-.038.013-.038.015-.037.016-.036.015-.037.017-.035.018-.036.018-.035.019-.034.019-.035.02-.033.02-.034.022-.057.036-.055.038-.054.04-.052.042-.051.044-.049.044-.048.047-.046.05-.045.05-.043.053-.042.055-.04.055-.038.058-.037.06-.036.062-.034.063-.036.073-.034.074-.032.074-.029.076-.027.077-.024.077-.023.078-.02.08-.017.08-.015.08-.013.083-.011.082-.008.084-.006.085-.003.085-.002.086.002.09.004.09.006.088.009.088.012.087.014.087.017.086.02.086.022.085.025.084.028.084.03.083.032.082.036.083.038.081.04.08.025.048.027.047.029.048.031.048.032.048.034.048.036.05.037.047.039.05.041.047.042.05.045.048.045.05.048.048.049.05.052.049.052.05.055.049.056.05.058.05.06.05.061.05.063.05.065.051.066.05.068.05.07.052.072.051.073.05.075.052.077.05.078.052.11.074.106.073.1.073.095.072.091.072.086.071.081.072.076.07.036.034.035.035.033.035.033.034.031.035.03.034.029.034.028.034.026.034.025.034.024.034.023.033.022.034.02.033.019.033.018.033.024.047.022.047.021.047.019.048.018.046.016.048.014.048.013.048.012.05.01.047.008.05.007.049.005.049.004.049.003.05v.096l-.002.046-.003.044-.004.045-.005.044-.007.043-.007.043-.009.042-.01.042-.011.04-.013.041-.013.04-.015.038-.015.04-.017.037-.019.037-.017.033-.019.03-.019.03-.02.03-.02.028-.021.028-.022.026-.023.027-.024.026-.024.024-.025.024-.025.022-.027.022-.027.022-.027.02-.029.02-.032.021-.033.019-.034.017-.035.016-.036.015-.036.014-.038.013-.038.01-.04.01-.04.009-.041.007-.042.006-.043.005-.044.003-.045.002h-.096l-.049-.002-.048-.003-.047-.006-.046-.006-.045-.007-.044-.01-.043-.01-.042-.013-.041-.013-.04-.015-.039-.016-.038-.017-.037-.02-.036-.02-.036-.021-.027-.018-.026-.02-.026-.02-.024-.02-.025-.022-.023-.021-.023-.023-.022-.024-.021-.024-.021-.026-.019-.026-.019-.026-.019-.028-.018-.03-.016-.028-.017-.03-.015-.03-.014-.03-.014-.029-.012-.03-.012-.03-.01-.031-.009-.031-.009-.031-.007-.032-.007-.03-.005-.033-.005-.033-.003-.033-.003-.032-.001-.034-.001-.033v-.077l-1.13.205.001.065.003.063.004.064.007.062.008.063.011.062.012.062.014.06.016.062.018.06.02.06.022.06.024.06.025.058.028.06.029.057.032.06.034.056.036.056.036.055.039.052.039.051.041.05.043.048.044.046.045.046.047.043.049.043.049.04.052.04.052.037.054.037.036.022.036.021.036.02.037.02.037.02.038.018.038.02.039.016.039.017.039.015.04.016.04.014.041.014.041.013.041.012.042.012.043.01.043.01.043.01.044.009.044.009.044.006.045.007.046.007.092.009.093.007.096.004.097.002.092-.002.09-.004.088-.006.086-.01.085-.013.084-.014.082-.018.04-.01.04-.01.039-.011.039-.012.039-.013.038-.013.038-.013.037-.016.037-.015.037-.016.036-.016.036-.018.035-.018.035-.019.035-.019.034-.02.034-.02.033-.022.057-.036.056-.038.053-.04.053-.042.051-.044.049-.044.048-.048.046-.05.044-.05.044-.052.041-.055.04-.055.039-.058.037-.06.035-.062.034-.064.036-.072.034-.075.032-.073.029-.076.027-.077.025-.077.022-.078.02-.08.018-.08.015-.081.013-.082.01-.082.009-.084.005-.085.004-.085.001-.086-.001-.09-.004-.09-.007-.088-.009-.088-.012-.087-.014-.087-.017-.086-.02-.086-.022-.085-.025-.084-.027-.084-.03-.084-.033-.082-.035-.082-.038-.081-.04-.08-.026-.048-.027-.048-.029-.047-.03-.048-.032-.048-.034-.05-.036-.047-.037-.048-.039-.05-.041-.047-.043-.05-.044-.048-.046-.05-.048-.049-.049-.049-.051-.049-.053-.05-.054-.049-.056-.05-.058-.05-.06-.05-.061-.05-.063-.05-.065-.051-.067-.05-.068-.052-.07-.05-.071-.051-.074-.05-.075-.052-.076-.05-.079-.052-.11-.075-.105-.072-.1-.073-.096-.072-.09-.072-.086-.071-.081-.072-.076-.07-.036-.034-.035-.035-.034-.035-.032-.034-.032-.035-.03-.034-.029-.034-.027-.034-.027-.034-.025-.034-.024-.034-.023-.033-.021-.034-.021-.033-.019-.034-.018-.032-.023-.047-.023-.047-.02-.047-.019-.048-.018-.048-.016-.046-.015-.048-.013-.048-.011-.05-.01-.047-.009-.05-.007-.049-.005-.049-.004-.049-.002-.05-.001-.049.001-.047.002-.046.002-.044.005-.045.005-.044.006-.044.008-.042.009-.043.01-.04.011-.042.012-.04.014-.04.014-.038.016-.04.017-.037.018-.037.018-.033.018-.03.019-.03.02-.03.021-.029.021-.027.022-.028.023-.025.023-.026.024-.024.025-.024.026-.023.026-.021.027-.022.028-.02.028-.02.033-.021.033-.019.034-.018.034-.015.036-.016.037-.013.038-.013.038-.01.039-.01.041-.009.041-.008.042-.005.043-.005.044-.003.045-.002.045-.001h.05l.049.003.048.003.047.006.046.006.045.007.044.01.043.01.043.013.041.013.04.015.039.015.038.018.037.02.036.02.035.021.027.018.026.02.026.02.025.02.024.02.024.023.022.023.022.024.021.024.021.026.02.026.019.026.018.028.018.03.017.028.016.03.016.03.014.03.013.029.013.03.011.03.011.031.009.03.008.031.008.033.006.03.006.033.004.033.004.032.002.033.002.034v.11l1.131-.205-.001-.065-.003-.063-.005-.064-.006-.062-.009-.063-.01-.062-.013-.062-.014-.06-.016-.062-.018-.06-.02-.06-.021-.06-.024-.06-.026-.06-.027-.057-.029-.058-.033-.06-.034-.056-.035-.056-.037-.055-.038-.052-.04-.051-.041-.05-.042-.048-.044-.047-.046-.045-.047-.043-.048-.043-.05-.041-.051-.04-.053-.036-.054-.037-.035-.022-.036-.021-.037-.021-.036-.02-.038-.02-.037-.018-.039-.018-.038-.017-.039-.017-.039-.015-.04-.016-.041-.014-.04-.014-.041-.013-.042-.013-.042-.01-.042-.012-.043-.01-.043-.01-.044-.008-.044-.009-.045-.006-.045-.007-.045-.007-.092-.01-.094-.006-.095-.005-.098-.001-.091.001z" fill="#003bae"/><path d="M27.267 13.227V3.77h4.211v1.159H28.42V7.54h2.377v1.158H28.42v3.371h3.058v1.158h-4.211z" fill="#fff" fill-rule="nonzero"/><path d="M31.522 3.238l.044.005.043.01.042.011.041.017.04.02.038.021.035.026.034.03.031.03.029.034.025.035.023.038.019.04.016.04.013.043.009.044.005.043.002.044v1.159l-.002.043-.005.044-.009.043-.013.042-.016.042-.019.039-.023.038-.025.035-.029.035-.031.031-.034.028-.035.026-.038.022-.04.02-.041.016-.042.012-.043.009-.044.005-.044.003h-2.524v1.546h1.887l.044.006.043.01.042.013.041.015.04.02.038.023.036.025.033.028.031.031.029.034.026.036.022.037.02.04.016.042.012.042.009.043.006.043.001.045v1.158l-.001.044-.006.044-.009.043-.012.043-.016.04-.02.04-.022.038-.026.036-.029.033-.031.031-.033.03-.036.025-.038.022-.04.02-.041.015-.042.013-.043.01-.044.005h-1.887v2.306h2.524l.044.003.044.004.043.01.042.012.041.016.04.02.038.022.035.026.034.028.031.031.029.034.025.036.023.037.019.04.016.042.013.042.009.042.005.045.002.043v1.158l-.002.045-.005.043-.009.044-.013.042-.016.04-.019.04-.023.039-.025.035-.029.034-.031.03-.034.03-.035.026-.038.022-.04.019-.041.017-.042.012-.043.009-.044.005-.044.003h-4.211l-.044-.003-.044-.005-.043-.01-.043-.011-.041-.017-.039-.02-.038-.021-.036-.026-.034-.03-.031-.03-.028-.034-.026-.035-.022-.038-.02-.04-.016-.04-.012-.043-.009-.044-.006-.043-.002-.045V3.77l.002-.044.006-.043.009-.044.012-.042.016-.042.02-.039.022-.038.026-.035.028-.034.031-.03.034-.03.036-.026.038-.022.039-.019.041-.017.043-.012.043-.009.044-.005.044-.003h4.211l.044.003zm-4.255.53v9.46h4.211v-1.159H28.42V8.698h2.377V7.54H28.42V4.928h3.058v-1.16h-4.211z" fill="#003bae"/><path d="M32.724 13.227v-.951c0-1.717.561-4.552 1.684-8.507h1.154c1.123 3.955 1.685 6.79 1.685 8.507v.951h-1.154v-.951c0-.378-.023-.811-.069-1.3h-2.077c-.046.489-.069.922-.069 1.3v.951h-1.154zm1.373-3.41h1.777c-.185-1.235-.481-2.737-.889-4.504-.407 1.767-.704 3.269-.888 4.504z" fill="#fff" fill-rule="nonzero"/><path d="M35.605 3.238l.043.005.042.008.042.012.04.016.039.019.037.021.036.025.033.028.031.03.029.032.026.035.022.036.02.038.017.04.013.042.104.368.101.362.098.357.094.35.091.343.088.338.084.33.082.323.078.318.074.312.072.304.068.299.065.292.061.286.059.279.055.272.051.266.049.261.045.254.042.247.039.241.035.236.032.228.029.222.025.217.022.21.019.204.015.198.012.192.009.185.003.092.002.09.001.088.001.085v.953l-.002.045-.005.043-.009.044-.013.042-.016.04-.019.04-.023.039-.026.035-.028.034-.031.03-.034.03-.036.026-.038.022-.039.019-.041.017-.043.012-.043.009-.043.005-.044.003h-1.154l-.044-.003-.044-.005-.043-.01-.042-.011-.041-.017-.04-.02-.038-.021-.036-.026-.033-.03-.032-.03-.028-.034-.026-.035-.022-.038-.02-.04-.016-.04-.012-.043-.009-.044-.006-.043-.002-.045v-.95l-.001-.138-.003-.142-.005-.148-.007-.153-.009-.16-.002-.026h-1.093l-.002.026-.01.16-.007.153-.005.148-.003.142-.001.138v.95l-.002.045-.005.043-.009.044-.013.042-.016.04-.019.04-.023.039-.026.035-.028.034-.031.03-.034.03-.036.026-.038.022-.039.019-.041.017-.042.012-.044.009-.043.005-.044.003h-1.154l-.044-.003-.044-.005-.043-.01-.042-.011-.041-.017-.04-.02-.038-.021-.036-.026-.033-.03-.032-.03-.028-.034-.026-.035-.022-.038-.02-.04-.016-.04-.012-.043-.009-.044-.006-.043-.001-.045V12.19l.001-.088.002-.09.004-.092.008-.185.012-.192.016-.198.018-.204.022-.21.026-.217.029-.222.032-.228.035-.236.038-.24.042-.248.046-.254.048-.26.052-.267.055-.272.058-.28.062-.285.065-.292.068-.299.071-.304.075-.312.078-.318.081-.323.084-.33.088-.338.091-.343.095-.35.097-.357.101-.362.104-.368.013-.042.017-.04.02-.038.023-.036.026-.035.028-.032.031-.03.033-.028.036-.025.037-.021.039-.02.041-.015.041-.012.042-.008.043-.005.043-.003h1.154l.043.003zm-1.197.53l-.103.369-.101.36-.097.355-.093.348-.091.341-.087.335-.084.328-.081.322-.077.314-.074.31-.071.3-.067.296-.064.289-.061.282-.058.276-.054.269-.051.263-.048.255-.044.25-.041.243-.038.236-.035.23-.031.222-.028.218-.025.21-.021.203-.018.197-.015.19-.011.185-.009.176-.002.087-.003.084-.001.083v1.033h1.154v-.951l.001-.145.003-.15.005-.154.008-.16.01-.164.012-.17.014-.177.016-.18h2.077l.016.18.014.176.012.17.009.166.008.16.005.153.004.15.001.145v.951h1.154v-.951l-.001-.082-.001-.083-.002-.084-.003-.087-.008-.176-.012-.184-.015-.19-.018-.198-.021-.203-.025-.21-.028-.218-.031-.223-.035-.23-.037-.235-.041-.243-.045-.25-.048-.255-.051-.263-.054-.27-.057-.275-.061-.282-.064-.289-.068-.295-.071-.302-.074-.309-.077-.314-.081-.322-.083-.328-.088-.335-.09-.341-.094-.348-.097-.355-.1-.36-.104-.368h-1.154zm.652 1.873l.073.323.07.315.067.31.065.303.062.298.059.29.057.285.054.278.052.272.049.267.046.26.044.253.041.246.039.242.036.234h-1.777l.036-.234.038-.242.041-.246.044-.254.047-.26.049-.266.051-.272.054-.278.057-.284.06-.291.062-.298.064-.303.068-.31.07-.315.072-.323.075-.328.075.328zm-.079 2.227l-.054.276-.051.27-.049.262-.046.257-.043.25-.016.101h.527l-.017-.1-.043-.251-.046-.257-.048-.263-.052-.269-.053-.276-.005-.023-.004.023z" fill="#003bae"/><path d="M38.493 13.227V3.77h2.249c.485 0 .904.116 1.258.348.323.206.577.493.761.862.231.437.347.974.347 1.608 0 .635-.116 1.171-.347 1.609A2.22 2.22 0 0142 9.07c-.1.06-.204.112-.312.154.177.292.339.584.485.876.623 1.201.935 2.243.935 3.126h-1.154c0-.728-.254-1.582-.762-2.56a14.26 14.26 0 00-.738-1.261h-.808v3.821h-1.153zm1.153-4.98h1.096c.223 0 .42-.056.589-.167a1.18 1.18 0 00.404-.463c.146-.275.219-.618.219-1.03 0-.411-.073-.755-.219-1.03a1.189 1.189 0 00-.404-.462 1.046 1.046 0 00-.589-.167h-1.096v3.319z" fill="#fff" fill-rule="nonzero"/><path d="M40.849 3.238l.105.004.104.008.103.012.102.015.101.018.098.02.051.014.049.012.049.015.048.014.048.016.048.017.047.018.047.017.046.02.046.02.046.02.045.023.044.022.044.025.044.023.043.026.043.027.041.025.071.047.073.053.072.054.069.058.067.06.065.062.064.063.06.067.059.07.056.07.055.073.052.075.049.077.047.08.046.08.039.075.024.047.025.05.024.052.023.052.023.053.021.052.021.054.019.054.019.054.018.056.017.055.017.056.015.056.015.058.013.057.013.058.013.058.011.059.01.06.01.061.017.12.014.122.01.125.008.126.004.129.002.13-.002.13-.004.129-.008.127-.01.124-.014.124-.017.118-.01.062-.01.06-.011.059-.013.058-.013.058-.013.058-.015.057-.015.055-.017.057-.017.055-.018.056-.019.054-.019.054-.021.053-.021.053-.023.052-.023.053-.024.051-.025.05-.025.048-.041.08-.046.08-.048.08-.05.077-.052.076-.054.072-.056.072-.058.069-.06.067-.062.064-.065.063-.066.06-.068.058-.07.055-.017.012.05.092.061.114.06.114.056.112.058.112.058.116.056.115.055.115.052.114.051.113.049.111.047.112.045.11.044.11.042.109.039.108.038.108.036.107.035.106.032.105.03.105.029.105.027.102.025.104.022.102.021.101.02.1.017.1.015.1.013.1.011.098.009.098.008.096.005.097.003.094.001.09-.002.044-.005.044-.008.044-.013.043-.015.041-.02.04-.022.038-.026.037-.028.033-.031.033-.034.028-.036.026-.038.023-.04.02-.041.015-.043.014-.043.009-.044.005-.044.003h-1.154l-.044-.003-.043-.005-.043-.01-.042-.011-.041-.016-.039-.019-.038-.022-.036-.026-.033-.028-.032-.031-.028-.034-.026-.034-.022-.038-.02-.04-.016-.04-.013-.042-.009-.042-.006-.044-.003-.043v-.064l-.002-.058-.003-.059-.005-.06-.005-.061-.007-.063-.009-.063-.009-.064-.011-.066-.013-.066-.014-.066-.015-.069-.017-.069-.018-.07-.019-.071-.021-.073-.022-.072-.024-.074-.025-.076-.027-.076-.028-.077-.029-.077-.031-.079-.033-.079-.034-.08-.036-.082-.037-.082-.038-.084-.04-.084-.042-.085-.043-.085-.044-.087-.077-.147-.08-.148-.083-.148-.087-.152-.091-.153-.094-.153-.027-.044v3.26l-.002.044-.006.043-.009.044-.012.042-.016.04-.02.04-.022.039-.026.035-.028.034-.031.03-.034.03-.036.026-.038.022-.039.019-.042.017-.042.012-.043.009-.044.005-.044.003h-1.153l-.044-.003-.044-.005-.043-.01-.043-.011-.041-.017-.039-.02-.038-.021-.036-.026-.034-.03-.031-.03-.028-.034-.026-.035-.022-.038-.02-.04-.016-.04-.012-.043-.01-.044-.005-.043-.002-.045V3.77l.002-.044.005-.043.01-.044.012-.042.016-.042.02-.039.022-.038.026-.035.028-.034.031-.03.034-.03.036-.026.038-.022.039-.019.041-.017.043-.012.043-.009.044-.005.044-.003h2.253l.103.003zm-2.356.53v9.46h1.153V9.405h.808l.105.163.101.161.098.161.094.158.09.157.087.155.084.154.079.151.047.092.046.091.043.09.043.089.041.088.039.088.038.087.036.086.035.086.034.084.032.084.03.084.029.082.028.082.026.081.024.08.023.08.022.079.02.078.019.078.017.077.015.076.015.075.012.074.011.074.01.074.008.072.007.071.005.072.004.07.002.07.001.067h1.154l-.001-.082-.003-.085-.005-.085-.006-.086-.008-.087-.01-.088-.012-.09-.014-.088-.015-.092-.018-.091-.019-.093-.021-.093-.023-.095-.024-.095-.027-.096-.028-.098-.03-.098-.032-.1-.034-.099-.036-.101-.037-.102-.039-.103-.041-.103-.043-.105-.045-.106-.046-.106-.049-.108-.05-.108-.052-.11-.054-.11-.056-.112-.057-.111-.056-.11-.056-.109-.059-.11-.06-.108-.061-.11-.063-.11-.064-.11-.066-.109.041-.017.039-.016.04-.018.039-.02.039-.02.038-.02.038-.02L42 9.07l.058-.04.057-.041.056-.044.054-.045.053-.048.051-.05.05-.052.048-.053.047-.056.045-.057.044-.06.043-.062.041-.063.039-.066.039-.068.036-.07.022-.042.02-.04.02-.043.02-.044.018-.043.018-.045.017-.045.017-.045.016-.046.015-.046.014-.048.014-.047.014-.049.012-.048.012-.05.011-.049.01-.051.01-.051.009-.052.009-.052.015-.106.012-.11.009-.11.007-.114.004-.115.002-.118-.002-.118-.004-.115-.007-.114-.009-.11-.012-.11-.015-.105-.009-.053-.009-.051-.01-.051-.01-.05-.011-.05-.012-.05-.012-.049-.014-.048-.014-.048-.014-.047-.015-.047-.016-.045-.017-.046-.017-.045-.018-.044-.018-.044-.02-.042-.02-.043-.02-.042-.022-.041-.035-.068-.037-.067-.039-.064-.04-.062-.042-.062-.043-.058-.046-.056-.046-.055-.049-.054-.05-.05-.051-.05-.054-.047-.055-.046-.056-.042-.058-.042-.06-.04-.033-.02-.034-.022-.034-.02-.035-.019-.035-.019-.035-.018-.036-.016-.036-.017-.036-.017-.037-.014-.037-.015-.038-.014-.038-.014-.038-.012-.039-.012-.039-.011-.039-.01-.04-.01-.081-.018-.083-.015-.083-.012-.086-.01-.087-.007-.089-.003-.09-.002h-2.249zm2.291 1.16l.041.002.04.003.04.005.039.005.038.008.038.008.037.01.036.01.036.013.035.015.035.014.034.017.033.018.033.019.032.02.03.02.029.021.029.022.028.024.027.024.027.026.026.027.026.029.025.029.024.031.024.032.023.033.022.034.022.036.021.037.021.038.026.052.025.054.023.055.021.057.02.06.018.06.016.061.015.064.013.065.011.067.009.068.008.07.006.072.004.074.003.074.001.076-.001.077-.003.075-.004.072-.006.072-.008.07-.009.068-.011.067-.013.066-.015.063-.016.062-.018.06-.02.06-.021.056-.023.056-.025.053-.026.053-.02.037-.02.035-.02.035-.022.033-.022.033-.024.03-.024.031-.024.03-.026.028-.026.028-.028.026-.028.025-.029.025-.029.023-.031.022-.031.022-.032.02-.033.02-.033.017-.034.016-.035.016-.035.013-.036.013-.036.01-.037.01-.038.009-.038.007-.039.006-.04.004-.04.004-.041.002H39.646v-3.32H40.784zm-.604.533v2.253H40.767l.023-.001.023-.003.021-.002.021-.003.019-.003.019-.005.018-.004.017-.006.017-.006.016-.006.016-.007.015-.007.015-.009.015-.007.016-.01.016-.012.015-.01.016-.013.015-.013.014-.013.015-.014.014-.015.014-.015.013-.016.013-.017.013-.017.013-.02.013-.018.013-.022.012-.022.014-.026.02-.04.016-.035.016-.038.015-.04.014-.04.013-.044.011-.045.011-.048.01-.049.009-.051.007-.055.006-.055.005-.058.004-.06.002-.062v-.129l-.002-.062-.004-.06-.005-.058-.006-.056-.007-.053-.009-.053-.01-.049-.011-.047-.011-.045-.013-.044-.014-.041-.015-.04-.016-.037-.016-.036-.019-.037-.014-.025-.014-.025-.014-.023-.014-.021-.014-.02-.014-.02-.013-.016-.014-.017-.014-.014-.013-.015-.014-.013-.013-.012-.013-.01-.013-.012-.014-.009-.016-.01-.019-.012-.015-.009-.015-.008-.015-.008-.016-.006-.016-.007-.017-.006-.017-.005-.018-.005-.019-.004-.019-.003-.021-.004-.021-.002-.023-.002-.023-.001H40.18z" fill="#003bae"/><path d="M44.169 10.615V6.382c0-.592.111-1.103.335-1.531.184-.36.434-.64.749-.837.354-.232.777-.348 1.27-.348.492 0 .915.116 1.269.348.323.205.577.489.761.849.146.274.242.574.289.901l-1.12.27a1.55 1.55 0 00-.173-.579 1.148 1.148 0 00-.415-.464 1.085 1.085 0 00-.611-.167c-.231 0-.431.056-.6.167-.17.112-.304.262-.404.45-.131.258-.196.572-.196.941v4.233c0 .515.127.918.38 1.21.07.077.143.137.22.18.169.111.369.167.6.167.23 0 .434-.056.611-.167.169-.112.308-.266.415-.463a1.55 1.55 0 00.173-.579l1.12.27a2.736 2.736 0 01-.289.901c-.184.36-.438.644-.761.849-.354.232-.777.348-1.269.348-.493 0-.916-.116-1.27-.348a2.062 2.062 0 01-.749-.837c-.224-.42-.335-.93-.335-1.531z" fill="#fff" fill-rule="nonzero"/><path d="M46.63 3.134l.106.005.106.008.104.011.103.015.101.019.099.021.052.012.049.014.049.013.049.016.048.015.048.016.047.018.047.019.047.019.046.02.046.021.045.021.045.024.044.023.044.025.044.025.043.026.041.027.07.047.073.05.071.056.069.055.067.06.065.06.063.064.061.065.058.068.056.07.055.07.052.074.049.076.048.078.045.08.04.075.031.06.031.063.03.063.028.065.027.066.025.066.024.067.022.067.021.068.019.068.018.069.017.069.015.07.014.07.012.072.01.066.005.043.001.045-.003.043-.006.044-.009.042-.013.043-.017.04-.02.04-.023.037-.026.035-.029.034-.031.03-.034.029-.036.025-.038.022-.04.019-.041.015-.042.013-1.119.27-.045.009-.044.004-.045.001-.045-.002-.045-.007-.044-.01-.043-.014-.041-.017-.04-.021-.038-.025-.036-.027-.033-.03-.031-.033-.028-.035-.025-.038-.021-.039-.018-.04-.015-.044-.011-.044-.007-.045-.004-.033-.004-.028-.005-.028-.004-.027-.006-.025-.006-.025-.006-.025-.007-.024-.007-.023-.008-.024-.008-.022-.009-.021-.009-.021-.01-.022-.01-.02-.013-.025-.015-.03-.012-.02-.012-.02-.012-.018-.013-.018L47 5.579l-.013-.016-.014-.015-.013-.016-.015-.014-.014-.014-.015-.013-.016-.012-.016-.013-.017-.012-.021-.013-.019-.013-.015-.007-.014-.008-.016-.008-.016-.007-.016-.006-.018-.006-.019-.006-.019-.004-.021-.005-.022-.004-.023-.003-.024-.003-.026-.002H46.471l-.024.002-.023.003-.022.003-.021.003-.019.005-.019.005-.018.005-.017.007-.017.005-.015.007-.016.008-.015.007-.014.01-.016.008-.016.011-.017.013-.016.013-.016.012-.015.014-.015.014-.014.015-.014.015-.014.016-.013.017-.013.016-.013.018-.013.02-.012.02-.012.02-.009.016-.014.028-.015.033-.013.035-.014.036-.012.038-.011.039-.011.04-.009.043-.009.044-.007.046-.007.048-.005.05-.004.05-.003.053-.002.055-.001.06v4.27l.001.04.002.036.002.038.003.036.003.034.004.035.004.033.005.033.005.032.006.03.006.03.007.03.007.028.008.027.008.027.008.025.009.026.009.023.01.024.01.023.01.021.011.023.011.02.011.02.012.02.012.019.012.018.013.018.013.017.014.017.011.014.011.01.012.014.012.01.011.01.01.008.008.006.008.005.025.015.031.019.014.009.015.007.016.007.015.007.017.006.017.006.018.006.019.005.019.004.021.004.022.003.023.003.024.002h.104l.024-.002.024-.003.022-.003.022-.004.021-.005.02-.004.019-.006.019-.007.018-.006.018-.008.017-.008.017-.009.017-.009.012-.008.013-.007.016-.013.016-.013.016-.013.016-.014.016-.014.015-.016.015-.017.015-.016.014-.018.015-.02.014-.02.014-.02.014-.022.014-.023.012-.022.01-.02.01-.02.01-.02.009-.022.009-.021.008-.023.008-.023.007-.023.007-.025.006-.024.006-.025.006-.027.004-.025.005-.028.004-.028.004-.033.007-.045.011-.044.015-.043.018-.041.021-.04.025-.037.028-.036.031-.032.033-.03.036-.028.038-.024.04-.021.041-.018.043-.013.044-.01.045-.007.045-.002h.045l.044.005.045.01 1.119.27.042.012.041.015.04.02.038.021.036.025.034.028.031.031.029.034.026.034.023.038.02.04.017.04.013.042.009.043.006.044.003.043-.001.045-.005.043-.01.066-.012.071-.014.07-.015.071-.017.07-.018.068-.019.068-.021.068-.022.067-.024.067-.025.066-.027.066-.028.063-.03.065-.031.063-.031.06-.04.076-.045.079-.048.078-.049.075-.052.073-.055.073-.056.069-.058.068-.061.065-.063.063-.065.062-.067.059-.069.055-.071.055-.073.051-.07.047-.041.027-.043.026-.044.025-.044.025-.044.023-.045.024-.045.02-.046.022-.046.02-.047.02-.047.018-.047.017-.048.017-.048.015-.049.016-.049.013-.049.014-.052.012-.099.021-.101.018-.103.016-.104.01-.106.008-.106.005-.107.002-.108-.002-.106-.005-.106-.007-.104-.011-.103-.016-.101-.018-.098-.021-.052-.012-.05-.014-.049-.013-.048-.016-.049-.015-.048-.017-.047-.017-.047-.019-.047-.019-.046-.02-.046-.021-.045-.021-.045-.024-.044-.023-.044-.025-.043-.025-.043-.026-.041-.027-.071-.047-.072-.05-.071-.054-.069-.056-.066-.06-.065-.06-.062-.062-.06-.065-.058-.068-.056-.068-.054-.071-.051-.073-.049-.074-.046-.077-.044-.078-.038-.074-.024-.045-.024-.049-.023-.049-.023-.05-.022-.05-.021-.052-.02-.05-.019-.053-.018-.053-.018-.052-.016-.054-.016-.053-.015-.055-.014-.054-.014-.056-.013-.057-.022-.11-.02-.115-.016-.116-.014-.118-.01-.119-.008-.12-.004-.123-.001-.122v-4.24l.001-.12.004-.12.008-.12.01-.119.014-.117.016-.115.02-.114.023-.112.025-.109.015-.056.015-.055.015-.054.017-.053.018-.054.018-.052.019-.051.02-.053.02-.051.022-.05.022-.05.023-.05.025-.05.024-.049.042-.078.045-.08.047-.076.049-.075.052-.074.053-.07.056-.069.058-.067.061-.066.062-.062.064-.06.067-.058.068-.056.07-.053.073-.05.067-.044.04-.026.043-.026.043-.025.044-.025.044-.023.045-.024.045-.021.046-.021.046-.02.047-.02.047-.018.047-.018.048-.016.049-.015.048-.016.049-.013.05-.014.052-.012.098-.021.101-.019.103-.015.104-.01.106-.009.106-.005.108-.001h.107zm-.199.533l-.09.005-.088.006-.087.01-.085.013-.083.014-.082.018-.04.01-.04.01-.039.011-.039.012-.039.013-.038.013-.038.013-.038.015-.037.016-.036.015-.036.017-.036.018-.036.018-.035.019-.034.019-.034.02-.034.02-.034.022-.058.038-.057.039-.055.042-.054.044-.052.046-.051.046-.049.05-.048.052-.046.053-.044.055-.043.057-.042.06-.04.06-.038.063-.037.065-.035.067-.021.04-.02.041-.019.041-.019.042-.018.042-.017.043-.017.043-.016.044-.015.044-.015.046-.014.044-.013.046-.013.046-.012.047-.022.094-.02.097-.017.099-.014.1-.012.103-.009.104-.007.106-.004.109-.001.11v4.233l.001.112.004.109.007.108.009.105.012.102.014.102.017.1.02.095.01.048.012.047.012.047.013.046.013.045.014.045.015.045.015.043.016.044.017.043.017.042.018.042.019.041.019.041.02.04.021.04.034.065.035.063.038.062.039.06.041.058.042.056.045.056.046.052.047.052.05.05.051.048.053.046.054.044.057.044.058.041.059.039.034.021.034.021.034.02.034.02.035.018.036.018.036.018.036.016.036.016.037.015.038.016.038.013.038.013.039.013.039.012.039.011.04.01.04.01.082.018.083.014.085.013.087.01.088.006.09.004.092.002.091-.002.09-.004.088-.006.087-.01.085-.013.083-.014.082-.018.04-.01.04-.01.04-.011.039-.012.038-.013.038-.013.038-.013.038-.016.037-.015.036-.016.037-.016.035-.018.036-.018.035-.019.034-.019.035-.02.033-.02.034-.022.059-.039.059-.041.056-.044.055-.044.053-.047.052-.05.05-.05.048-.052.047-.054.045-.055.044-.058.042-.06.04-.06.039-.063.037-.066.035-.066.027-.052.026-.053.024-.052.023-.054.023-.054.021-.055.019-.056.019-.055.017-.057.017-.057.015-.058.014-.058.012-.06.012-.059.01-.06.01-.061-1.12-.27-.004.04-.006.04-.006.038-.007.038-.008.038-.009.038-.01.037-.01.037-.011.035-.012.036-.013.035-.014.034-.014.034-.016.033-.016.034-.017.032-.02.037-.021.035-.022.034-.023.033-.024.034-.024.031-.025.03-.025.03-.026.028-.028.028-.027.026-.029.025-.029.025-.03.023-.031.023-.031.02-.033.022-.035.019-.034.017-.036.016-.036.015-.036.014-.038.013-.037.01-.039.01-.039.009-.04.007-.04.006-.041.005-.042.003-.042.002h-.086l-.042-.002-.042-.003-.041-.005-.04-.006-.039-.007-.039-.008-.037-.01-.038-.011-.036-.013-.036-.014-.035-.015-.034-.016-.033-.017-.033-.019-.032-.021-.029-.017-.028-.018-.028-.02-.028-.022-.027-.024-.027-.024-.026-.027-.027-.028-.023-.028-.023-.028-.022-.029-.021-.03-.02-.03-.02-.031-.019-.031-.018-.033-.018-.033-.016-.034-.016-.033-.016-.036-.014-.034-.014-.037-.013-.037-.012-.037-.012-.039-.01-.038-.01-.04-.01-.04-.008-.04-.008-.041-.007-.043-.006-.042-.006-.044-.005-.044-.004-.045-.003-.045-.003-.046-.002-.046-.001-.048V6.312l.003-.066.004-.066.005-.065.007-.063.008-.062.01-.06.012-.06.013-.058.014-.057.016-.056.018-.053.019-.054.021-.051.022-.05.024-.05.019-.034.02-.034.021-.033.021-.032.023-.031.023-.03.024-.03.025-.03.025-.026.027-.027.027-.027.028-.024.029-.025.03-.022.03-.023.032-.022.032-.02.033-.019.033-.018.034-.015.035-.016.036-.013.036-.013.038-.01.037-.01.039-.009.039-.008.04-.005.041-.005.042-.003.042-.002.043-.001h.044l.043.003.043.003.042.005.041.005.04.008.04.008.038.01.038.011.037.013.036.013.036.016.034.015.034.018.033.019.032.02.033.022.032.023.031.023.03.025.029.024.028.027.027.028.027.028.025.03.025.03.023.031.023.033.022.033.021.035.02.035.019.037.017.032.016.033.016.033.014.035.014.034.013.035.012.036.011.035.01.037.01.037.009.037.008.038.007.039.006.039.006.039.004.04 1.12-.27-.01-.061-.01-.06-.012-.06-.012-.059-.014-.059-.015-.057-.017-.058-.017-.056-.019-.056-.019-.055-.021-.055-.023-.054-.023-.054-.024-.053-.026-.052-.027-.052-.035-.067-.037-.065-.039-.062-.04-.062-.042-.059-.044-.058-.045-.056-.047-.054-.048-.051-.05-.05-.052-.05-.053-.047-.055-.044-.056-.044-.059-.041-.059-.039-.034-.022-.033-.02-.035-.02-.034-.02-.035-.018-.036-.018-.035-.018-.037-.017-.036-.015-.037-.016-.038-.015-.038-.013-.038-.013-.038-.013-.039-.012-.04-.011-.04-.01-.04-.01-.082-.018-.083-.014-.085-.013-.087-.01-.088-.006-.09-.005-.091-.001-.092.001z" fill="#003bae"/><path d="M50.03 13.227V3.77h1.154V7.68h2.215V3.77h1.154v9.458h-1.154V8.84h-2.215v4.388H50.03z" fill="#fff" fill-rule="nonzero"/><path d="M51.228 3.238l.044.005.043.01.042.011.041.017.04.02.037.021.036.026.034.03.031.03.029.034.025.035.023.038.019.04.016.04.013.043.009.044.005.043.002.044v3.38h1.149v-3.38l.001-.044.006-.043.009-.044.012-.042.016-.042.02-.039.022-.038.026-.035.029-.034.031-.03.033-.03.036-.026.038-.022.04-.019.041-.017.042-.012.043-.009.044-.005.044-.003h1.154l.044.003.043.005.044.01.042.011.041.017.039.02.038.021.036.026.034.03.031.03.029.034.025.035.023.038.019.04.016.04.013.043.009.044.005.043.002.044v9.458l-.002.045-.005.043-.009.044-.013.042-.016.04-.019.04-.023.039-.025.035-.029.034-.031.03-.034.03-.036.026-.038.022-.039.019-.041.017-.042.012-.044.009-.043.005-.044.003h-1.154l-.044-.003-.044-.005-.043-.01-.042-.011-.041-.017-.04-.02-.038-.021-.036-.026-.033-.03-.031-.03-.029-.034-.026-.035-.022-.038-.02-.04-.016-.04-.012-.043-.009-.044-.006-.043-.001-.045V9.372h-1.149v3.855l-.002.045-.005.043-.009.044-.013.042-.016.04-.019.04-.023.039-.025.035-.029.034-.031.03-.034.03-.036.026-.037.022-.04.019-.041.017-.042.012-.043.009-.044.005-.044.003H50.03l-.044-.003-.044-.005-.043-.01-.042-.011-.041-.017-.04-.02-.038-.021-.036-.026-.033-.03-.031-.03-.029-.034-.026-.035-.022-.038-.019-.04-.016-.04-.013-.043-.009-.044-.006-.043-.001-.045V3.77l.001-.044.006-.043.009-.044.013-.042.016-.042.019-.039.022-.038.026-.035.029-.034.031-.03.033-.03.036-.026.038-.022.04-.019.041-.017.042-.012.043-.009.044-.005.044-.003h1.154l.044.003zm-1.198.53v9.46h1.154V8.838h2.215v4.388h1.154V3.77h-1.154V7.68h-2.215V3.77H50.03z" fill="#003bae"/></g><defs><linearGradient id="_Linear1" x1="0" y1="0" x2="1" y2="0" gradientUnits="userSpaceOnUse" gradientTransform="matrix(58 0 0 15 1 8.5)"><stop offset="0" stop-color="#6b8dc4"/><stop offset=".43" stop-color="#87a3cf"/><stop offset=".89" stop-color="#d5dfee"/><stop offset=".96" stop-color="#c5d3e8"/><stop offset=".98" stop-color="#9bb3d7"/><stop offset="1" stop-color="#6b8dc4"/></linearGradient><linearGradient id="_Linear2" x1="0" y1="0" x2="1" y2="0" gradientUnits="userSpaceOnUse" gradientTransform="matrix(0 -2 2.66667 0 3 5)"><stop offset="0" stop-color="#b3c4e0"/><stop offset="1" stop-color="#a1b7d9"/></linearGradient></defs></svg>