<svg width="60" height="17" xmlns="http://www.w3.org/2000/svg" fill-rule="evenodd" clip-rule="evenodd" stroke-linejoin="round" stroke-miterlimit="2"><path d="M60 1v15l-1 1H1l-1-1V1l1-1h58l1 1zM1 1v15h58V1H1z" fill="#003bae"/><path fill="url(#_Linear1)" d="M1 1h58v15H1z"/><path d="M59 16H1V1h58v15zM2 2v13h56V2H2z" fill="#6e90c5" fill-opacity=".27"/><path d="M2 2h3v1H3v3H2V2z" fill="url(#_Linear2)"/><path d="M2 2h2v1H3v2H2V2z" fill="#fff"/><g><path d="M6 3v11h8V5l-2-2H6z" fill="#fff"/><path d="M4.95 8.735l.048 4.383 4.373.29-1.474-1.558c3.004-1.791 3.701-4.775 2.818-8.575-.328 3.55-1.444 6.235-4.291 7.018L4.95 8.735z" fill="#2c68cc"/><path d="M10.73 3.076l.029.004.027.009.026.011.023.015.021.02.019.02.015.024.012.026.008.026.04.179.04.178.035.178.034.176.032.175.028.174.027.173.023.17.021.171.02.17.016.167.014.167.011.166.01.164.006.163.003.162v.319l-.005.158-.007.157-.01.155-.012.154-.015.153-.018.151-.022.15-.023.15-.027.146-.015.074-.014.073-.016.073-.017.072-.016.072-.019.071-.018.071-.02.07-.02.07-.02.07-.022.071-.022.069-.024.069-.024.068-.024.069-.025.068-.026.068-.027.067-.028.066-.029.066-.029.066-.03.066-.03.065-.031.066-.033.064-.032.063-.035.064-.034.063-.035.063-.036.062-.037.063-.038.06-.038.063-.04.06-.04.06-.04.06-.042.06-.042.06-.043.058-.045.059-.044.058-.046.057-.046.057-.047.057-.048.056-.049.055-.05.056-.05.055-.051.055-.051.054-.054.053-.053.054-.055.053-.054.052-.057.052-.057.05-.057.052-.059.051-.059.05-.06.05-.061.049-.062.047-.063.05-.062.047-.065.048-.065.047-.066.046-.067.045-.067.046-.068.046-.07.045v-.001l1.305 1.379.018.022.014.024.012.026.007.028.003.027v.028l-.005.029-.008.025-.012.026-.015.024-.02.02-.02.02-.025.014-.025.013-.027.007-.027.004h-.029l-4.373-.29-.027-.003-.027-.008-.025-.01-.022-.014-.022-.017-.019-.02-.015-.022-.013-.024-.009-.025-.006-.027-.003-.027-.047-4.383.001-.028.006-.028.01-.026.013-.025.016-.023.02-.02.022-.018.024-.013.027-.011.026-.007.028-.003h.029l.027.006.027.009.025.012.024.016.02.02 1.391 1.469.012-.004.063-.02.062-.019.062-.021.06-.021.06-.022.06-.023.06-.023.058-.024.057-.024.058-.026.057-.025.056-.026.055-.028.056-.027.053-.029.054-.028.053-.03.053-.03.052-.03.05-.031.052-.033.05-.032.05-.033.05-.034.048-.034.048-.034.048-.036.047-.036.047-.037.046-.037.045-.038.045-.038.046-.039.043-.04.044-.04.042-.04.043-.041.042-.042.041-.042.041-.043.04-.044.04-.044.04-.044.04-.045.076-.092.075-.094.073-.096.072-.1.069-.1.067-.103.066-.105.065-.107.062-.11.06-.11.059-.114.057-.115.056-.117.054-.12.051-.12.052-.124.048-.125.048-.127.046-.13.044-.13.042-.133.041-.134.04-.136.038-.139.037-.14.035-.14.033-.144.033-.145.031-.146.03-.149.028-.15.028-.15.025-.153.025-.155.023-.156.021-.156.02-.16.02-.16.02-.16.015-.164.017-.165.004-.027.008-.027.013-.026.015-.023.02-.021.02-.018.025-.016.026-.011.026-.008.029-.003h.028zm-.03.365l-.018.165-.018.162-.02.163-.02.16-.023.159-.023.157-.025.157-.026.154-.027.154-.029.152-.03.15-.031.148-.033.148-.035.145-.035.144-.038.142-.039.142-.04.138-.042.137-.043.136-.046.133-.047.132-.048.13-.05.128-.051.127-.054.125-.056.121-.057.12-.059.12-.06.117-.063.114-.064.113-.066.111-.068.109-.07.106-.073.104-.073.102-.076.1-.077.098-.081.096-.04.047-.041.046-.041.046-.044.045-.042.045-.043.044-.043.044-.046.043-.045.042-.045.041-.045.042-.047.04-.047.04-.047.04-.05.039-.048.038-.049.038-.05.037-.05.037-.05.035-.052.035-.052.035-.053.033-.053.034-.053.032-.055.032-.055.031-.055.032-.056.03-.057.03-.057.028-.058.029-.058.026-.06.027-.059.027-.06.025-.06.024-.062.025-.063.023-.062.023-.063.022-.065.022-.064.02-.065.02-.066.02-.066.019L4.95 8.735l.048 4.383 4.373.29-1.474-1.558.07-.042.07-.043.067-.043.068-.043.067-.044.066-.045.065-.045.064-.045.064-.045.061-.046.062-.047.062-.047.059-.047.06-.048.058-.048.057-.05.057-.048.056-.049.055-.05.054-.05.054-.051.052-.051.053-.052.05-.052.05-.052.05-.053.05-.053.048-.053.046-.055.047-.054.046-.055.045-.055.043-.055.044-.057.042-.056.042-.057.041-.057.04-.057.04-.06.039-.057.037-.059.037-.059.037-.06.035-.06.035-.06.034-.06.034-.062.032-.061.032-.062.031-.062.03-.063.03-.063.03-.063.027-.065.028-.063.026-.065.027-.065.025-.065.024-.066.024-.066.023-.066.022-.068.022-.066.02-.068.021-.068.02-.069.019-.068.018-.069.017-.07.017-.068.016-.072.015-.07.015-.07.014-.072.026-.143.022-.145.02-.146.018-.147.015-.15.012-.15.01-.152.007-.153.004-.155.002-.155v-.157l-.005-.159-.005-.16-.01-.161-.01-.162-.014-.165-.016-.164-.019-.167-.021-.167-.024-.17-.026-.17-.028-.171-.031-.173-.033-.174-.036-.175-.037-.176-.04-.178-.016.166z" fill="#fff"/></g><g><path d="M16.498 13.227V3.77h4.211v1.159h-3.057V7.54h2.376v1.158h-2.376v4.53h-1.154z" fill="#fff" fill-rule="nonzero"/><path d="M20.753 3.238l.044.005.043.01.042.011.041.017.04.02.038.021.036.026.033.03.031.03.029.034.026.035.022.038.02.04.016.04.012.043.009.044.006.043.001.044v1.159l-.001.043-.006.044-.009.043-.012.042-.016.042-.02.039-.022.038-.026.035-.029.035-.031.031-.033.028-.036.026-.038.022-.04.02-.041.016-.042.012-.043.009-.044.005-.044.003h-2.524v1.546h1.887l.044.006.043.01.043.013.041.015.039.02.038.023.036.025.034.028.031.031.028.034.026.036.022.037.02.04.016.042.012.042.009.043.006.043.002.045v1.158l-.002.044-.006.044-.009.043-.012.043-.016.04-.02.04-.022.038-.026.036-.028.033-.031.031-.034.03-.036.025-.038.022-.039.02-.041.015-.043.013-.043.01-.044.005h-1.887v3.997l-.002.045-.005.043-.009.044-.013.042-.016.04-.019.04-.023.039-.025.035-.029.034-.031.03-.034.03-.036.026-.037.022-.04.019-.041.017-.042.012-.044.009-.043.005-.044.003h-1.154l-.044-.003-.044-.005-.043-.01-.042-.011-.041-.017-.04-.02-.038-.021-.036-.026-.033-.03-.031-.03-.029-.034-.026-.035-.022-.038-.019-.04-.016-.04-.013-.043-.009-.044-.006-.043-.001-.045V3.77l.001-.044.006-.043.009-.044.013-.042.016-.042.019-.039.022-.038.026-.035.029-.034.031-.03.033-.03.036-.026.038-.022.04-.019.041-.017.042-.012.043-.009.044-.005.044-.003h4.211l.044.003zm-4.255.53v9.46h1.154v-4.53h2.376V7.54h-2.376V4.928h3.057v-1.16h-4.211z" fill="#003bae"/><path d="M21.863 10.615V6.382c0-.592.108-1.099.323-1.52.184-.36.438-.647.761-.861.354-.223.777-.335 1.269-.335.493 0 .916.112 1.27.335.323.206.576.493.761.862.215.42.323.927.323 1.519v4.233c0 .592-.108 1.099-.323 1.52-.185.36-.438.646-.761.861-.354.223-.777.335-1.27.335-.492 0-.915-.112-1.269-.335a2.126 2.126 0 01-.761-.862c-.215-.42-.323-.927-.323-1.519zm1.154 0c0 .37.065.683.196.94.1.197.234.35.404.456.169.108.369.161.599.161.231 0 .431-.053.6-.16.17-.108.304-.26.404-.457.131-.257.196-.57.196-.94V6.382c0-.37-.065-.683-.196-.94-.1-.198-.234-.35-.404-.456a1.098 1.098 0 00-.6-.162c-.23 0-.43.054-.599.162-.17.107-.304.258-.404.456-.131.257-.196.57-.196.94v4.233z" fill="#fff" fill-rule="nonzero"/><path d="M24.323 3.134l.106.004.105.008.103.011.103.015.101.017.099.02.099.025.097.027.093.03.05.018.047.018.046.018.046.02.046.02.045.021.045.021.044.024.044.023.043.025.043.024.045.028.075.05.073.052.071.054.07.058.067.06.065.062.063.065.061.065.059.07.056.07.054.073.052.075.05.077.047.08.045.08.041.079.024.047.023.049.023.049.021.049.021.05.02.051.02.052.018.051.018.051.017.055.031.105.028.107.025.11.022.11.019.113.016.115.013.116.01.118.007.12.004.12.001.12v4.24l-.001.119-.004.12-.007.12-.01.118-.013.116-.016.113-.019.114-.022.11-.025.111-.028.107-.031.105-.017.054-.018.052-.018.051-.02.052-.02.05-.021.05-.021.05-.023.05-.023.048-.025.05-.042.079-.045.079-.047.077-.05.076-.051.073-.054.072-.056.07-.058.068-.06.066-.062.063-.065.063-.066.059-.068.058-.07.055-.072.053-.078.053-.049.03-.043.025-.043.025-.044.023-.044.024-.045.02-.045.022-.046.02-.046.02-.046.018-.047.018-.05.017-.093.03-.097.028-.099.024-.099.02-.101.018-.103.015-.103.01-.105.007-.106.006-.107.001h-.106l-.106-.007-.105-.007-.103-.01-.103-.015-.101-.018-.1-.02-.098-.024-.097-.028-.093-.03-.05-.017-.047-.018-.046-.019-.046-.019-.046-.02-.045-.021-.045-.021-.044-.024-.044-.023-.043-.025-.043-.024-.045-.028-.075-.05-.073-.053-.071-.054-.07-.057-.067-.06-.065-.062-.063-.065-.061-.065-.059-.07-.056-.07-.054-.073-.052-.075-.05-.077-.047-.08-.045-.08-.041-.079-.024-.047-.023-.049-.023-.049-.021-.05-.021-.05-.02-.05-.02-.052-.018-.051-.018-.052-.017-.054-.031-.105-.028-.107-.025-.11-.022-.11-.019-.115-.016-.113-.013-.116-.01-.119-.007-.119-.004-.12-.001-.12v-4.24l.001-.119.004-.12.007-.12.01-.118.013-.116.016-.115.019-.112.022-.11.025-.111.028-.107.031-.105.017-.055.018-.051.018-.051.02-.052.02-.051.021-.05.021-.05.023-.048.023-.05.025-.048.042-.08.045-.079.047-.077.05-.076.051-.073.054-.072.056-.07.058-.068.06-.066.062-.063.065-.063.066-.059.068-.058.07-.055.072-.053.078-.054.049-.03.043-.024.043-.025.044-.023.044-.024.045-.02.045-.022.046-.02.046-.02.046-.018.047-.018.05-.018.093-.03.097-.027.098-.024.1-.021.101-.017.103-.015.103-.01.105-.009.106-.004.106-.001h.107zm-.198.533l-.09.005-.088.006-.087.01-.085.01-.083.015-.082.018-.08.019-.079.022-.076.024-.038.014-.038.014-.037.015-.036.015-.037.016-.035.017-.036.018-.035.018-.034.017-.034.02-.034.02-.034.02-.059.042-.059.042-.056.045-.055.047-.053.048-.052.049-.05.051-.048.054-.047.054-.045.056-.044.058-.042.06-.04.062-.039.063-.037.065-.035.067-.02.04-.019.04-.019.04-.018.042-.017.04-.017.043-.016.043-.015.043-.015.044-.014.044-.027.09-.024.092-.021.094-.019.096-.017.098-.014.1-.011.102-.009.103-.006.106-.004.109-.001.11v4.233l.001.11.004.109.006.106.009.103.011.102.014.1.017.098.019.096.021.094.024.091.027.09.014.044.015.045.015.042.016.044.017.041.017.042.018.042.019.04.019.04.02.04.035.068.037.066.039.065.04.062.042.06.044.06.045.056.047.055.048.052.05.052.052.049.053.048.055.044.056.044.059.041.059.04.034.02.034.02.034.02.034.018.035.018.036.018.035.017.037.015.036.016.037.015.038.014.038.013.076.025.079.022.08.02.082.017.083.014.085.012.087.009.088.006.09.005.091.001.092-.001.09-.005.088-.006.087-.01.085-.011.083-.014.082-.018.08-.019.078-.022.077-.025.038-.013.038-.014.037-.015.036-.016.036-.015.036-.017.036-.018.035-.018.034-.019.034-.018.034-.02.034-.02.059-.042.058-.042.057-.045.055-.047.053-.048.052-.049.05-.051.048-.054.047-.054.045-.056.044-.06.042-.058.04-.062.039-.063.037-.065.035-.067.02-.04.019-.04.019-.04.018-.042.017-.042.017-.041.016-.044.015-.042.015-.045.014-.043.027-.09.024-.092.021-.094.019-.096.017-.098.014-.1.011-.102.009-.103.006-.106.004-.109.001-.11V6.382l-.001-.11-.004-.109-.006-.106-.009-.103-.011-.103-.014-.1-.017-.097-.019-.096-.021-.094-.024-.091-.027-.09-.014-.045-.015-.044-.015-.043-.016-.043-.017-.042-.017-.041-.018-.042-.019-.04-.019-.04-.02-.04-.035-.068-.037-.067-.039-.064-.04-.062-.042-.062-.044-.058-.045-.056-.047-.055-.048-.054-.05-.05-.052-.049-.053-.048-.055-.044-.057-.044-.058-.041-.059-.04-.034-.02-.034-.02-.034-.02-.034-.018-.035-.018-.036-.018-.036-.017-.036-.016-.036-.015-.037-.015-.038-.014-.038-.014-.077-.024-.078-.022-.08-.02-.082-.017-.083-.015-.085-.01-.087-.01-.088-.006-.09-.005-.092-.001-.091.001zm.134 1.158l.043.002.041.003.041.004.04.006.039.007.039.008.038.01.037.01.036.012.036.014.035.014.034.016.034.017.032.017.032.02.032.02.03.023.03.022.029.024.028.025.027.026.027.027.025.028.025.029.024.03.023.03.023.033.021.034.021.034.02.036.019.036.024.049.022.05.021.051.019.054.018.053.016.056.014.057.013.058.012.06.01.06.008.062.007.063.005.065.004.066.003.067v4.372l-.003.066-.004.066-.005.065-.007.063-.008.061-.01.062-.012.059-.013.058-.014.057-.016.056-.018.053-.019.053-.021.052-.022.05-.024.05-.019.035-.02.036-.021.034-.021.034-.023.032-.023.031-.024.03-.025.03-.025.027-.027.027-.027.026-.028.024-.029.025-.03.022-.03.022-.032.02-.032.02-.032.018-.034.017-.034.016-.035.014-.036.014-.036.012-.037.01-.038.01-.039.008-.039.006-.04.006-.041.005-.041.003-.043.002H24.174l-.043-.002-.041-.003-.041-.005-.04-.006-.039-.006-.039-.008-.038-.01-.037-.01-.036-.012-.036-.014-.035-.014-.034-.016-.034-.017-.032-.017-.032-.02-.032-.02-.03-.023-.03-.022-.029-.025-.028-.024-.027-.026-.027-.027-.025-.028-.025-.029-.024-.03-.023-.031-.023-.032-.021-.034-.021-.034-.02-.036-.019-.036-.024-.049-.022-.05-.021-.052-.019-.053-.018-.053-.016-.056-.014-.057-.013-.058-.012-.06-.01-.06-.008-.062-.007-.063-.006-.065-.003-.066-.003-.067V6.312l.003-.066.003-.066.006-.065.007-.063.008-.062.01-.06.012-.06.013-.058.014-.057.016-.056.018-.053.019-.054.021-.051.022-.05.024-.05.019-.035.02-.036.021-.034.021-.034.023-.032.023-.031.024-.03.025-.03.025-.027.027-.027.027-.026.028-.025.029-.024.03-.022.03-.022.032-.02.032-.02.032-.018.034-.017.034-.016.035-.014.036-.014.036-.012.037-.01.038-.01.039-.008.039-.007.04-.006.041-.004.041-.003.043-.002.042-.001h.043zm-.07.533l-.026.001-.024.002-.024.003-.022.003-.022.003-.02.005-.019.004-.019.006-.018.005-.016.007-.017.007-.015.006-.016.008-.014.01-.015.008-.015.01-.016.01-.014.011-.014.013-.014.012-.014.013-.013.014-.014.014-.013.016-.013.015-.012.017-.013.02-.012.018-.013.02-.012.021-.011.023-.016.032-.015.033-.014.035-.013.036-.012.038-.011.039-.011.04-.009.043-.009.044-.007.046-.007.048-.005.05-.004.05-.004.053-.001.055-.001.06v4.228l.001.059.001.055.004.052.004.051.005.05.007.047.007.047.009.044.009.042.011.041.011.04.012.037.013.036.014.035.015.032.016.033.011.023.012.02.013.02.012.02.013.018.012.018.013.015.013.016.014.014.013.014.014.013.014.012.014.011.014.012.016.01.015.01.015.01.014.008.016.007.015.008.017.007.016.005.018.007.019.005.019.005.02.005.022.003.022.003.024.003.024.002h.107l.024-.002.024-.003.022-.003.022-.003.02-.005.019-.005.019-.005.017-.007.017-.005.017-.007.015-.008.016-.007.014-.008.015-.01.015-.01.015-.01.015-.012.014-.01.014-.013.014-.013.013-.014.014-.014.013-.016.013-.015.012-.018.013-.018.012-.02.013-.02.012-.02.011-.023.016-.033.015-.032.014-.035.013-.036.012-.038.011-.039.011-.041.009-.042.009-.044.007-.047.007-.047.005-.05.004-.051.004-.052.001-.055.001-.06V6.385l-.001-.059-.001-.055-.004-.053-.004-.05-.005-.05-.007-.048-.007-.046-.009-.044-.009-.042-.011-.041-.011-.04-.012-.037-.013-.036-.014-.035-.015-.033-.016-.032-.011-.023-.012-.02-.013-.02-.012-.02-.013-.019-.012-.017-.013-.015-.013-.016-.014-.014-.013-.014-.014-.013-.014-.012-.014-.013-.015-.01-.015-.01-.015-.01-.015-.01-.014-.009-.016-.008-.015-.006-.017-.007-.017-.007-.017-.005-.019-.006-.019-.004-.02-.005-.022-.003-.022-.003-.024-.003-.024-.002h-.081z" fill="#003bae"/><path d="M27.724 13.227V3.77h2.25c.484 0 .903.116 1.257.348.323.206.577.493.762.862.23.437.346.974.346 1.608 0 .635-.116 1.171-.346 1.609-.193.378-.446.669-.762.875-.1.06-.204.112-.311.154.177.292.338.584.484.876.623 1.201.935 2.243.935 3.126h-1.154c0-.728-.254-1.582-.761-2.56a14.532 14.532 0 00-.739-1.261h-.807v3.821h-1.154zm1.154-4.98h1.096c.223 0 .419-.056.588-.167a1.18 1.18 0 00.404-.463c.146-.275.219-.618.219-1.03 0-.411-.073-.755-.219-1.03a1.18 1.18 0 00-.404-.462 1.043 1.043 0 00-.588-.167h-1.096v3.319z" fill="#fff" fill-rule="nonzero"/><path d="M30.08 3.238l.105.004.105.008.103.012.102.015.101.018.097.02.052.014.049.012.048.015.048.014.048.016.048.017.047.018.047.017.046.02.046.02.046.02.045.023.044.022.045.025.043.023.044.026.042.027.041.025.071.047.073.053.072.054.069.058.068.06.065.062.063.063.061.067.058.07.057.07.054.073.052.075.049.077.048.08.045.08.039.075.024.047.025.05.024.052.024.052.022.053.021.052.021.054.02.054.019.054.018.056.017.055.016.056.015.056.015.058.014.057.013.058.012.058.011.059.011.06.01.061.016.12.014.122.011.125.007.126.005.129.001.13-.001.13-.005.129-.007.127-.011.124-.014.124-.016.118-.01.062-.011.06-.011.059-.012.058-.013.058-.014.058-.015.057-.015.055-.016.057-.017.055-.018.056-.019.054-.02.054-.021.053-.021.053-.022.052-.024.053-.024.051-.025.05-.024.048-.042.08-.046.08-.047.08-.05.077-.052.076-.054.072-.056.072-.059.069-.06.067-.062.064-.064.063-.067.06-.068.058-.07.055-.017.012.051.092.061.114.059.114.056.112.059.112.058.116.056.115.054.115.053.114.05.113.049.111.047.112.046.11.043.11.042.109.04.108.038.108.036.107.034.106.032.105.031.105.028.105.027.103.025.103.023.102.021.101.019.1.017.1.015.1.013.1.011.098.01.097.007.097.005.097.003.094.001.09-.001.044-.005.044-.009.044-.012.043-.016.041-.019.04-.023.038-.025.037-.029.033-.031.033-.034.028-.036.026-.038.023-.04.02-.041.015-.042.014-.044.009-.044.005-.044.003h-1.154l-.044-.003-.043-.005-.043-.01-.042-.011-.041-.016-.039-.019-.038-.022-.036-.026-.033-.028-.031-.031-.029-.034-.025-.034-.023-.038-.02-.04-.016-.04-.013-.042-.009-.042-.006-.044-.002-.043-.001-.064-.002-.058-.003-.059-.004-.06-.006-.061-.007-.063-.008-.063-.01-.064-.011-.066-.013-.066-.013-.066-.016-.069-.016-.069-.018-.07-.02-.071-.021-.073-.022-.072-.024-.074-.025-.076-.026-.076-.029-.077-.029-.077-.031-.079-.033-.079-.034-.08-.035-.082-.037-.082-.039-.084-.04-.084-.041-.085-.043-.085-.045-.087-.077-.147-.08-.148-.083-.148-.087-.152-.091-.153-.094-.153-.027-.044v3.26l-.002.044-.005.043-.009.044-.013.042-.016.04-.019.04-.023.039-.026.035-.028.034-.031.03-.034.03-.036.026-.038.022-.039.019-.041.017-.042.012-.044.009-.043.005-.044.003h-1.154l-.044-.003-.044-.005-.043-.01-.042-.011-.041-.017-.04-.02-.038-.021-.036-.026-.033-.03-.032-.03-.028-.034-.026-.035-.022-.038-.02-.04-.016-.04-.012-.043-.009-.044-.006-.043-.001-.045V3.77l.001-.044.006-.043.009-.044.012-.042.016-.042.02-.039.022-.038.026-.035.028-.034.032-.03.033-.03.036-.026.038-.022.04-.019.041-.017.042-.012.043-.009.044-.005.044-.003h2.254l.102.003zm-2.356.53v9.46h1.154V9.405h.807l.105.163.101.161.098.161.094.158.091.157.087.155.083.154.08.151.046.092.046.091.044.09.042.089.041.088.039.088.038.087.037.086.035.086.033.084.032.084.031.084.029.082.027.082.026.081.025.08.023.08.021.079.02.078.019.078.017.077.016.076.014.075.012.074.012.074.009.074.008.072.007.071.005.072.004.07.002.07.001.067h1.154l-.001-.082-.003-.085-.004-.085-.007-.086-.008-.087-.01-.088-.012-.09-.014-.088-.015-.092-.017-.091-.02-.093-.021-.093-.022-.095-.025-.095-.027-.096-.028-.098-.03-.098-.032-.1-.034-.099-.035-.101-.038-.102-.039-.103-.041-.103-.043-.105-.045-.106-.046-.106-.048-.108-.051-.108-.052-.11-.054-.11-.055-.112-.058-.111-.055-.11-.057-.109-.059-.11-.059-.108-.062-.11-.062-.11-.065-.11-.065-.109.04-.017.04-.016.039-.018.039-.02.039-.02.039-.02.038-.02.037-.023.059-.04.057-.041.055-.044.054-.045.053-.048.051-.05.05-.052.048-.053.047-.056.045-.057.044-.06.043-.062.041-.063.04-.066.038-.068.037-.07.021-.042.021-.04.02-.043.019-.044.018-.043.018-.045.018-.045.016-.045.016-.046.015-.046.015-.048.014-.047.013-.049.012-.048.012-.05.011-.049.011-.051.01-.051.009-.052.008-.052.015-.106.012-.11.01-.11.006-.114.004-.115.002-.118-.002-.118-.004-.115-.006-.114-.01-.11-.012-.11-.015-.105-.008-.053-.009-.051-.01-.051-.011-.05-.011-.05-.012-.05-.012-.049-.013-.048-.014-.048-.015-.047-.015-.047-.016-.045-.016-.046-.018-.045-.018-.044-.018-.044-.019-.042-.02-.043-.021-.042-.021-.041-.036-.068-.037-.067-.038-.064-.041-.062-.042-.062-.043-.058-.045-.056-.047-.055-.049-.054-.05-.05-.051-.05-.053-.047-.055-.046-.057-.042-.058-.042-.06-.04-.033-.02-.034-.022-.034-.02-.035-.019-.034-.019-.036-.018-.035-.016-.036-.017-.037-.017-.037-.014-.037-.015-.037-.014-.038-.014-.039-.012-.038-.012-.04-.011-.039-.01-.04-.01-.081-.018-.082-.015-.084-.012-.086-.01-.087-.007-.088-.003-.09-.002h-2.25zm2.291 1.16l.041.002.04.003.04.005.039.005.038.008.038.008.037.01.037.01.035.013.036.015.034.014.034.017.033.018.033.019.032.02.03.02.029.021.029.022.028.024.028.024.026.026.027.027.025.029.025.029.024.031.024.032.023.033.022.034.022.036.021.037.021.038.026.052.025.054.023.055.022.057.019.06.018.06.017.061.014.064.013.065.011.067.01.068.007.07.006.072.005.074.002.074.001.076-.001.077-.002.075-.005.072-.006.072-.007.07-.01.068-.011.067-.013.066-.014.063-.017.062-.018.06-.019.06-.022.056-.023.056-.025.053-.026.053-.019.037-.02.035-.021.035-.022.033-.022.033-.023.03-.024.031-.025.03-.026.028-.026.028-.027.026-.029.025-.028.025-.03.023-.031.022-.031.022-.032.02-.033.02-.033.017-.034.016-.034.016-.036.013-.035.013-.037.01-.037.01-.038.009-.038.007-.039.006-.04.004-.04.004-.041.002h-1.137v-3.32h1.137zm-.604.533v2.253H29.998l.024-.001.022-.003.021-.002.021-.003.019-.003.019-.005.018-.004.017-.006.017-.006.016-.006.016-.007.015-.007.016-.009.015-.007.015-.01.016-.012.016-.01.015-.013.015-.013.015-.013.014-.014.014-.015.014-.015.013-.016.014-.017.013-.017.013-.02.012-.018.013-.022.012-.022.014-.026.02-.04.017-.035.015-.038.015-.04.014-.04.013-.044.012-.045.011-.048.009-.049.009-.051.007-.055.006-.055.005-.058.004-.06.002-.062.001-.065-.001-.064-.002-.062-.004-.06-.005-.058-.006-.056-.007-.053-.009-.053-.009-.049-.011-.047-.012-.045-.013-.044-.014-.041-.015-.04-.015-.037-.017-.036-.019-.037-.014-.025-.014-.025-.014-.023-.014-.021-.013-.02-.014-.02-.014-.016-.014-.017-.014-.014-.013-.015-.013-.013-.014-.012-.013-.01-.013-.012-.013-.009-.017-.01-.018-.012-.015-.009-.016-.008-.015-.008-.016-.006-.016-.007-.017-.006-.017-.005-.018-.005-.019-.004-.019-.003-.021-.004-.021-.002-.022-.002-.024-.001H29.411z" fill="#003bae"/><path d="M33.493 6.137V3.769h1.153v2.368c0 1.09.054 2.723.162 4.903l.634-3.488h.623l.635 3.488c.108-2.18.161-3.814.161-4.903V3.769h1.154v2.368c0 1.433-.311 3.796-.934 7.09h-.635l-.692-3.898-.692 3.898h-.635c-.623-3.294-.934-5.657-.934-7.09z" fill="#fff" fill-rule="nonzero"/><path d="M34.69 3.238l.044.005.043.01.042.011.042.017.039.02.038.021.036.026.034.03.031.03.028.034.026.035.022.038.02.04.016.04.012.043.009.044.006.043.002.044V6.344l.002.22.003.235.005.247v.036h.001l.039-.018.041-.016.042-.012.043-.01.043-.005.043-.002h.623l.044.002.043.006.043.009.042.012.041.016.039.018.001-.036.005-.247.003-.234.002-.22V3.768l.002-.044.005-.043.009-.044.013-.042.016-.042.019-.039.023-.038.026-.035.028-.034.031-.03.034-.03.036-.026.038-.022.039-.019.041-.017.043-.012.043-.009.043-.005.044-.003h1.154l.044.003.044.005.043.01.042.011.041.017.04.02.038.021.036.026.033.03.032.03.028.034.026.035.022.038.02.04.016.04.012.043.009.044.006.043.002.044v2.37l-.001.141-.003.15-.005.154-.007.158-.008.164-.01.17-.013.174-.014.18-.015.185-.018.19-.02.194-.021.201-.023.205-.025.211-.027.217-.029.22-.03.228-.032.232-.034.238-.036.243-.038.247-.04.254-.041.26-.043.264-.045.269-.047.275-.049.28-.05.287-.052.29-.055.298-.056.302-.057.307-.01.042-.013.041-.017.04-.019.038-.023.038-.026.035-.028.032-.031.031-.034.028-.035.025-.038.022-.039.018-.041.016-.041.012-.043.009-.043.005-.043.003h-.635l-.044-.003-.043-.005-.043-.01-.042-.011-.041-.016-.039-.019-.038-.022-.035-.026-.034-.028-.031-.031-.029-.032-.025-.036-.023-.038-.019-.04-.017-.04-.013-.042-.009-.042-.167-.941-.167.941-.01.042-.013.043-.016.04-.019.039-.023.038-.026.036-.028.032-.031.031-.034.028-.036.026-.037.022-.04.019-.04.016-.042.012-.043.009-.044.005-.043.003h-.635l-.043-.003-.043-.005-.043-.01-.042-.011-.04-.016-.039-.018-.038-.022-.035-.025-.034-.028-.031-.03-.028-.033-.026-.035-.023-.038-.02-.038-.016-.04-.013-.041-.01-.042-.058-.307-.056-.302-.054-.297-.052-.291-.05-.287-.049-.28-.047-.275-.045-.27-.043-.264-.042-.26-.039-.253-.038-.247-.036-.243-.034-.238-.032-.232-.031-.228-.028-.22-.027-.217-.025-.21-.023-.206-.022-.2-.019-.196-.018-.19-.016-.185-.014-.18-.012-.173-.01-.17-.009-.164-.006-.158-.005-.154-.003-.15-.001-.141v-2.37l.002-.044.006-.043.009-.044.012-.042.016-.042.02-.039.022-.038.026-.035.028-.034.031-.03.034-.03.036-.026.038-.022.039-.019.041-.017.043-.012.043-.009.044-.005.044-.003h1.153l.044.003zm-1.197.53V6.275l.003.143.005.148.006.153.008.16.01.163.012.17.014.175.015.18.018.187.019.192.021.196.023.203.024.207.027.215.028.218.03.224.032.23.034.236.036.24.037.246.039.252.041.257.043.263.045.267.046.274.049.279.05.284.052.29.054.294.056.302.057.305h.635l.692-3.898.692 3.898h.635l.057-.305.056-.302.054-.294.052-.29.05-.284.048-.28.047-.273.045-.267.042-.263.042-.257.039-.252.037-.246.036-.24.034-.236.031-.23.031-.224.028-.218.026-.215.025-.207.023-.203.021-.196.019-.192.017-.186.016-.181.014-.175.011-.17.01-.164.009-.16.006-.152.005-.148.002-.143.001-.137V3.769h-1.154v2.578l-.002.225-.003.235-.005.25-.005.26-.007.275-.008.288-.01.3-.011.312-.012.326-.027.69-.033.74-.038.792-.635-3.488h-.623l-.634 3.488-.038-.792-.033-.74-.028-.69-.012-.326-.01-.312-.01-.3-.008-.288-.007-.274-.006-.261-.004-.25-.003-.235-.002-.225-.001-.21V3.769h-1.153z" fill="#003bae"/><path d="M39.261 13.227v-.951c0-1.717.562-4.552 1.685-8.507h1.153c1.123 3.955 1.685 6.79 1.685 8.507v.951H42.63v-.951c0-.378-.023-.811-.069-1.3h-2.077c-.046.489-.069.922-.069 1.3v.951h-1.154zm1.373-3.41h1.777c-.185-1.235-.481-2.737-.888-4.504-.408 1.767-.704 3.269-.889 4.504z" fill="#fff" fill-rule="nonzero"/><path d="M42.143 3.238l.042.005.043.008.041.012.041.016.039.019.037.021.035.025.034.028.031.03.028.032.026.035.023.036.02.038.016.04.014.042.104.368.101.362.097.357.095.35.091.343.087.338.085.33.081.323.078.318.075.312.071.304.068.299.065.292.062.286.058.279.055.272.052.266.048.261.045.254.042.247.039.241.035.236.032.228.029.222.025.217.022.21.019.204.016.198.012.193.008.184.003.092.003.09.001.088v1.038l-.002.045-.005.043-.009.044-.013.042-.016.04-.019.04-.023.039-.025.035-.029.034-.031.03-.033.03-.036.026-.038.022-.04.019-.041.017-.042.012-.043.009-.044.005-.044.003H42.63l-.044-.003-.044-.005-.043-.01-.042-.011-.041-.017-.04-.02-.038-.021-.035-.026-.034-.03-.031-.03-.029-.034-.025-.035-.023-.038-.019-.04-.016-.04-.013-.043-.009-.044-.005-.043-.002-.045v-.95l-.001-.138-.003-.142-.005-.148-.008-.153-.009-.16-.002-.026h-1.093l-.002.026-.009.16-.007.153-.006.148-.003.142-.001.138v.95l-.001.045-.006.043-.009.044-.013.042-.016.04-.019.04-.023.039-.025.035-.029.034-.031.03-.033.03-.036.026-.038.022-.04.019-.041.017-.042.012-.043.009-.044.005-.044.003h-1.154l-.044-.003-.044-.005-.043-.01-.042-.011-.041-.017-.04-.02-.037-.021-.036-.026-.034-.03-.031-.03-.029-.034-.025-.035-.023-.038-.019-.04-.016-.04-.013-.043-.009-.044-.005-.043-.002-.045V12.19l.002-.088.002-.09.003-.092.009-.185.012-.192.015-.198.019-.204.022-.21.025-.217.029-.222.032-.228.035-.236.039-.24.042-.248.045-.254.048-.26.052-.267.055-.272.059-.28.061-.285.065-.292.068-.299.071-.304.075-.312.078-.318.081-.323.085-.33.088-.338.091-.343.094-.35.098-.357.101-.362.103-.368.014-.042.016-.04.02-.038.023-.036.026-.035.028-.032.031-.03.034-.028.035-.025.038-.021.039-.02.04-.015.041-.012.043-.008.043-.005.043-.003h1.153l.044.003zm-1.197.53l-.104.369-.1.36-.097.355-.094.348-.091.341-.087.335-.084.328-.08.322-.078.314-.074.31-.07.3-.068.296-.064.289-.061.282-.057.276-.055.269-.051.263-.047.255-.045.25-.041.243-.038.236-.034.23-.031.222-.028.218-.025.21-.022.203-.018.197-.014.19-.012.185-.008.176-.003.087-.002.084-.001.083-.001.082v.951h1.154v-.951l.001-.145.003-.15.006-.154.007-.16.01-.164.012-.17.014-.177.016-.18h2.077l.016.18.014.176.012.17.01.166.007.16.006.153.003.15.001.145v.951h1.154v-1.033l-.002-.083-.002-.084-.003-.087-.008-.176-.011-.184-.015-.19-.018-.198-.022-.203-.024-.21-.028-.218-.032-.223-.034-.23-.038-.235-.041-.243-.044-.25-.048-.255-.051-.263-.054-.27-.058-.275-.061-.282-.064-.289-.068-.295-.07-.302-.074-.309-.078-.314-.08-.322-.084-.328-.087-.335-.091-.341-.093-.348-.098-.355-.1-.36-.104-.368h-1.153zm.652 1.873l.072.323.07.315.067.31.065.303.062.298.06.29.056.285.055.278.051.272.049.267.047.26.043.253.042.246.038.242.036.234h-1.777l.036-.234.039-.242.041-.246.044-.254.046-.26.049-.266.052-.272.054-.278.057-.284.059-.291.062-.298.065-.303.067-.31.07-.315.072-.323.076-.328.075.328zm-.08 2.227l-.054.276-.051.27-.048.262-.046.257-.043.25-.017.101h.527l-.016-.1-.044-.251-.046-.257-.048-.263-.051-.269-.054-.276-.004-.023-.005.023z" fill="#003bae"/><path d="M45.03 13.227V3.77h2.25c.484 0 .904.116 1.257.348.323.206.577.493.762.862.231.437.346.974.346 1.608 0 .635-.115 1.171-.346 1.609-.192.378-.446.669-.762.875-.1.06-.203.112-.311.154.177.292.338.584.484.876.623 1.201.935 2.243.935 3.126h-1.154c0-.728-.254-1.582-.761-2.56a14.532 14.532 0 00-.739-1.261h-.807v3.821H45.03zm1.154-4.98h1.096c.223 0 .419-.056.588-.167a1.18 1.18 0 00.404-.463c.146-.275.219-.618.219-1.03 0-.411-.073-.755-.219-1.03a1.18 1.18 0 00-.404-.462 1.043 1.043 0 00-.588-.167h-1.096v3.319z" fill="#fff" fill-rule="nonzero"/><path d="M47.386 3.238l.105.004.105.008.103.012.102.015.101.018.097.02.052.014.049.012.048.015.049.014.048.016.047.017.047.018.047.017.046.02.046.02.046.02.045.023.045.022.044.025.043.023.044.026.042.027.041.025.071.047.074.053.071.054.069.058.068.06.065.062.063.063.061.067.058.07.057.07.054.073.052.075.05.077.047.08.045.08.04.075.023.047.025.05.024.052.024.052.022.053.021.052.021.054.02.054.019.054.018.056.017.055.016.056.016.056.014.058.014.057.013.058.012.058.011.059.011.06.01.061.016.12.014.122.011.125.007.126.005.129.001.13-.001.13-.005.129-.007.127-.011.124-.014.124-.016.118-.01.062-.011.06-.011.059-.012.058-.013.058-.014.058-.014.057-.016.055-.016.057-.017.055-.018.056-.019.054-.02.054-.021.053-.021.053-.022.052-.024.053-.024.051-.025.05-.024.048-.042.08-.045.08-.048.08-.05.077-.052.076-.054.072-.056.072-.058.069-.061.067-.062.064-.064.063-.067.06-.068.058-.07.055-.017.012.051.092.061.114.059.114.056.112.059.112.058.116.056.115.054.115.053.114.051.113.049.111.047.112.045.11.043.11.042.109.04.108.038.108.036.107.034.106.032.105.031.105.028.105.027.103.025.103.023.102.021.101.019.1.017.1.015.1.013.1.012.098.009.098.007.096.005.097.003.094.001.09-.001.044-.005.044-.009.044-.012.043-.016.041-.019.04-.023.038-.025.037-.029.033-.031.033-.034.028-.036.026-.038.023-.039.02-.042.015-.042.014-.044.009-.044.005-.044.003h-1.154l-.044-.003-.043-.005-.043-.01-.042-.011-.041-.016-.039-.019-.038-.022-.035-.026-.034-.028-.031-.031-.029-.034-.025-.034-.023-.038-.019-.04-.017-.04-.013-.042-.009-.042-.006-.044-.002-.043-.001-.064-.002-.058-.003-.059-.004-.06-.006-.061-.007-.063-.008-.063-.01-.064-.011-.066-.013-.066-.013-.066-.016-.069-.016-.069-.018-.07-.02-.071-.02-.073-.023-.072-.023-.074-.026-.076-.026-.076-.028-.077-.03-.077-.031-.079-.033-.079-.034-.08-.035-.082-.037-.082-.039-.084-.04-.084-.041-.085-.043-.085-.045-.087-.077-.147-.079-.148-.084-.148-.087-.152-.091-.153-.094-.153-.027-.044v3.26l-.002.044-.005.043-.009.044-.013.042-.016.04-.019.04-.023.039-.025.035-.029.034-.031.03-.034.03-.036.026-.037.022-.04.019-.041.017-.042.012-.044.009-.043.005-.044.003H45.03l-.044-.003-.044-.005-.043-.01-.042-.011-.041-.017-.04-.02-.038-.021-.036-.026-.033-.03-.031-.03-.029-.034-.026-.035-.022-.038-.019-.04-.016-.04-.013-.043-.009-.044-.006-.043-.001-.045V3.77l.001-.044.006-.043.009-.044.013-.042.016-.042.019-.039.022-.038.026-.035.029-.034.031-.03.033-.03.036-.026.038-.022.04-.019.041-.017.042-.012.043-.009.044-.005.044-.003h2.254l.102.003zm-2.356.53v9.46h1.154V9.405h.807l.105.163.102.161.097.161.094.158.091.157.087.155.083.154.08.151.047.092.045.091.044.09.042.089.041.088.04.088.037.087.037.086.035.086.033.084.032.084.031.084.029.082.027.082.026.081.025.08.023.08.021.079.021.078.018.078.017.077.016.076.014.075.013.074.011.074.009.074.009.072.006.071.006.072.003.07.002.07.001.067h1.154l-.001-.082-.003-.085-.004-.085-.007-.086-.008-.087-.01-.088-.012-.09-.013-.088-.016-.092-.017-.091-.019-.093-.021-.093-.023-.095-.025-.095-.026-.096-.029-.098-.03-.098-.032-.1-.034-.099-.035-.101-.038-.102-.039-.103-.041-.103-.043-.105-.044-.106-.047-.106-.048-.108-.051-.108-.052-.11-.053-.11-.056-.112-.058-.111-.055-.11-.057-.109-.058-.11-.06-.108-.062-.11-.062-.11-.065-.11-.065-.109.04-.017.04-.016.039-.018.039-.02.039-.02.039-.02.038-.02.037-.023.059-.04.057-.041.055-.044.054-.045.053-.048.051-.05.05-.052.048-.053.047-.056.046-.057.044-.06.042-.062.041-.063.04-.066.038-.068.037-.07.021-.042.021-.04.02-.043.019-.044.019-.043.017-.045.018-.045.016-.045.016-.046.015-.046.015-.048.014-.047.013-.049.012-.048.012-.05.011-.049.011-.051.01-.051.009-.052.008-.052.015-.106.012-.11.01-.11.007-.114.004-.115.001-.118-.001-.118-.004-.115-.007-.114-.01-.11-.012-.11-.015-.105-.008-.053-.009-.051-.01-.051-.011-.05-.011-.05-.012-.05-.012-.049-.013-.048-.014-.048-.015-.047-.015-.047-.016-.045-.016-.046-.018-.045-.017-.044-.019-.044-.019-.042-.02-.043-.021-.042-.021-.041-.036-.068-.037-.067-.038-.064-.041-.062-.042-.062-.043-.058-.045-.056-.047-.055-.048-.054-.05-.05-.052-.05-.053-.047-.055-.046-.057-.042-.058-.042-.06-.04-.033-.02-.034-.022-.034-.02-.034-.019-.035-.019-.036-.018-.035-.016-.036-.017-.037-.017-.037-.014-.037-.015-.037-.014-.038-.014-.039-.012-.038-.012-.039-.011-.04-.01-.04-.01-.081-.018-.082-.015-.084-.012-.086-.01-.087-.007-.088-.003-.09-.002h-2.25zm2.291 1.16l.041.002.04.003.04.005.039.005.038.008.038.008.037.01.037.01.035.013.036.015.034.014.034.017.033.018.033.019.032.02.03.02.029.021.029.022.028.024.028.024.027.026.026.027.025.029.025.029.024.031.024.032.023.033.023.034.021.036.021.037.021.038.027.052.024.054.023.055.022.057.02.06.018.06.016.061.014.064.013.065.011.067.01.068.007.07.006.072.005.074.002.074.001.076-.001.077-.002.075-.005.072-.006.072-.007.07-.01.068-.011.067-.013.066-.014.063-.016.062-.018.06-.02.06-.022.056-.023.056-.024.053-.027.053-.019.037-.02.035-.021.035-.021.033-.023.033-.023.03-.024.031-.025.03-.026.028-.026.028-.027.026-.028.025-.029.025-.03.023-.03.022-.032.022-.032.02-.033.02-.033.017-.034.016-.034.016-.036.013-.035.013-.037.01-.037.01-.038.009-.038.007-.039.006-.04.004-.04.004-.041.002h-1.137v-3.32h1.137zm-.604.533v2.253H47.304l.024-.001.022-.003.022-.002.02-.003.02-.003.018-.005.018-.004.018-.006.016-.006.016-.006.016-.007.016-.007.015-.009.015-.007.015-.01.016-.012.016-.01.015-.013.015-.013.015-.013.014-.014.014-.015.014-.015.013-.016.014-.017.013-.017.013-.02.012-.018.013-.022.012-.022.014-.026.02-.04.017-.035.015-.038.015-.04.014-.04.013-.044.012-.045.011-.048.009-.049.009-.051.007-.055.007-.055.004-.058.004-.06.002-.062.001-.065-.001-.064-.002-.062-.004-.06-.004-.058-.007-.056-.007-.053-.009-.053-.009-.049-.011-.047-.012-.045-.013-.044-.014-.041-.015-.04-.015-.037-.017-.036-.019-.037-.014-.025-.013-.025-.014-.023-.014-.021-.014-.02-.014-.02-.014-.016-.014-.017-.013-.014-.014-.015-.013-.013-.014-.012-.013-.01-.013-.012-.013-.009-.017-.01-.018-.012-.015-.009-.015-.008-.016-.008-.016-.006-.016-.007-.016-.006-.018-.005-.018-.005-.018-.004-.02-.003-.02-.004-.022-.002-.022-.002-.024-.001H46.717z" fill="#003bae"/><path d="M50.799 13.227V3.77h1.95c.499 0 .942.125 1.326.373.37.232.666.57.889 1.016.3.576.45 1.288.45 2.138V9.7c0 .85-.15 1.562-.45 2.136-.231.447-.527.786-.889 1.018-.377.248-.819.372-1.326.372h-1.95zm1.153-1.158h.797c.253 0 .476-.064.669-.192.207-.138.384-.34.53-.605.208-.412.312-.936.312-1.57V7.295c0-.636-.104-1.16-.312-1.571-.138-.274-.315-.476-.53-.605-.2-.129-.423-.192-.669-.192h-.797v7.141z" fill="#fff" fill-rule="nonzero"/><path d="M52.858 3.238l.107.004.057.005.053.004.054.006.053.006.054.008.052.009.053.009.052.01.052.011.052.012.052.013.051.014.05.015.051.015.05.017.05.018.049.018.049.02.048.02.048.021.048.022.048.023.046.024.047.025.046.025.045.027.045.027.042.027.04.025.042.028.041.03.042.028.04.032.04.03.04.032.039.033.038.034.04.036.072.069.071.073.069.076.066.08.065.08.061.084.06.087.056.089.055.091.052.094.047.091.031.06.031.064.03.065.029.066.028.066.027.067.025.068.025.068.024.07.022.07.022.071.02.072.019.071.019.074.017.073.016.074.015.075.014.075.014.077.012.077.011.077.01.08.009.078.008.08.008.08.006.082.005.081.004.083.004.082.002.085.002.084V9.787l-.002.084-.002.084-.004.083-.004.083-.005.081-.006.082-.008.08-.008.08-.009.078-.01.08-.011.077-.012.077-.014.076-.014.075-.015.076-.016.074-.017.073-.019.073-.019.072-.02.072-.022.071-.022.07-.024.07-.025.068-.025.068-.027.067-.028.066-.029.065-.03.066-.031.064-.033.063-.049.093-.053.093-.056.09-.057.089-.059.086-.062.082-.064.082-.066.078-.068.076-.071.072-.072.07-.075.067-.077.065-.079.061-.082.06-.078.052-.043.028-.045.027-.045.026-.046.027-.046.025-.047.024-.047.022-.047.023-.049.021-.048.021-.049.02-.049.018-.05.018-.05.017-.051.015-.051.015-.051.014-.051.013-.052.012-.053.011-.052.01-.053.009-.053.009-.054.008-.054.006-.054.006-.054.004-.057.005-.107.004-.107.003h-1.954l-.044-.003-.044-.005-.043-.01-.042-.011-.042-.017-.039-.02-.038-.021-.036-.026-.034-.03-.031-.03-.028-.034-.026-.035-.022-.038-.02-.04-.016-.04-.012-.043-.009-.044-.006-.043-.002-.045V3.77l.002-.044.006-.043.009-.044.012-.042.016-.042.02-.039.022-.038.026-.035.028-.034.031-.03.034-.03.036-.026.038-.022.039-.019.042-.017.042-.012.043-.009.044-.005.044-.003h1.954l.105.003zm-2.059.53v9.46h1.95l.094-.002.093-.004.046-.004.045-.003.045-.006.045-.004.044-.007.044-.006.044-.008.043-.01.043-.008.042-.01.042-.01.042-.011.041-.013.041-.012.041-.014.04-.014.039-.015.04-.016.039-.016.038-.017.039-.018.037-.018.038-.02.037-.02.037-.02.036-.023.036-.022.035-.022.067-.045.066-.048.064-.049.062-.052.061-.055.059-.057.058-.06.057-.063.054-.064.054-.067.051-.07.05-.073.049-.075.047-.077.046-.08.044-.083.027-.053.027-.056.026-.056.025-.056.024-.057.024-.058.022-.06.022-.06.02-.061.02-.061.019-.063.018-.062.017-.065.016-.065.016-.064.014-.067.014-.067.013-.068.011-.07.011-.069.01-.07.01-.071.008-.073.008-.072.006-.074.006-.074.005-.075.004-.076.003-.077.002-.078.001-.078.001-.08V7.296l-.001-.08-.001-.079-.002-.077-.003-.077-.004-.076-.005-.075-.006-.074-.006-.074-.008-.073-.008-.072-.01-.071-.01-.07-.011-.07-.011-.069-.013-.068-.014-.067-.014-.067-.016-.064-.016-.066-.017-.064-.018-.062-.019-.063-.02-.062-.02-.06-.022-.06-.022-.06-.024-.058-.024-.058-.025-.055-.026-.056-.027-.056-.027-.055-.043-.081-.044-.08-.046-.077-.048-.075-.05-.073-.051-.07-.053-.067-.055-.064-.056-.063-.058-.06-.06-.057-.031-.028-.03-.027-.032-.026-.032-.026-.032-.026-.033-.024-.033-.024-.033-.023-.034-.022-.035-.023-.036-.023-.036-.022-.037-.022-.038-.02-.037-.02-.038-.02-.038-.018-.039-.018-.039-.017-.039-.016-.04-.016-.04-.015-.04-.015-.041-.013-.041-.012-.041-.013-.041-.01-.042-.012-.043-.009-.042-.01-.043-.008-.044-.008-.043-.006-.044-.007-.045-.006-.044-.004-.045-.003-.046-.004-.091-.004-.093-.002h-1.95zm1.995 1.16l.046.002.045.004.044.006.043.006.044.008.042.01.042.011.042.014.041.013.04.017.04.017.04.019.039.02.038.022.038.023.04.025.039.027.038.029.037.03.036.031.036.034.034.035.034.037.033.04.031.04.031.042.03.043.029.046.029.047.027.049.026.05.02.04.018.04.018.04.017.04.017.04.016.043.016.044.015.043.014.044.014.045.013.045.012.047.023.094.021.097.018.099.016.103.013.103.011.108.009.11.006.112.004.115.001.119V9.7l-.001.119-.004.115-.006.112-.009.11-.011.107-.013.104-.016.103-.018.1-.021.096-.023.094-.012.047-.013.045-.014.044-.014.045-.015.043-.016.044-.016.041-.017.042-.017.04-.018.04-.018.04-.02.04-.027.049-.029.047-.029.047-.03.044-.031.043-.031.042-.032.04-.033.038-.033.037-.035.036-.035.034-.035.033-.037.03-.037.03-.038.028-.038.027-.037.023-.037.022-.038.02-.038.02-.04.016-.04.016-.04.014-.042.014-.042.01-.043.01-.044.009-.044.006-.045.006-.046.003-.046.002-.047.001h-.797V4.928H52.794zm-.308.533v6.075H52.779l.028-.002.028-.002.027-.004.025-.003.025-.004.023-.006.023-.007.022-.006.022-.008.021-.008.02-.009.02-.01.019-.01.02-.011.021-.013.024-.017.023-.017.022-.019.023-.019.023-.02.022-.022.023-.024.022-.024.023-.027.022-.028.022-.029.022-.031.022-.032.022-.035.022-.037.017-.03.01-.02.014-.031.014-.03.013-.033.014-.032.012-.033.013-.035.012-.035.011-.035.011-.037.011-.037.01-.036.019-.08.018-.081.015-.085.014-.088.012-.09.009-.094.008-.098.005-.1.003-.103.002-.11V7.298l-.002-.11-.003-.103-.005-.1-.008-.098-.009-.093-.012-.092-.014-.087-.015-.085-.018-.081-.019-.08-.01-.036-.011-.038-.011-.036-.011-.035-.012-.035-.013-.035-.012-.033-.014-.032-.013-.033-.014-.03-.014-.031-.014-.03-.02-.037-.02-.036-.02-.033-.02-.031-.021-.03-.02-.028-.02-.026-.021-.025-.021-.022-.02-.021-.021-.019-.021-.019-.02-.017-.021-.015-.022-.015-.029-.018-.029-.018-.021-.012-.022-.01-.022-.012-.022-.009-.022-.009-.023-.008-.022-.006-.024-.007-.023-.006-.025-.004-.025-.005-.025-.002-.027-.002-.027-.002H52.486z" fill="#003bae"/></g><defs><linearGradient id="_Linear1" x1="0" y1="0" x2="1" y2="0" gradientUnits="userSpaceOnUse" gradientTransform="matrix(58 0 0 15 1 8.5)"><stop offset="0" stop-color="#6b8dc4"/><stop offset=".43" stop-color="#87a3cf"/><stop offset=".89" stop-color="#d5dfee"/><stop offset=".96" stop-color="#c5d3e8"/><stop offset=".98" stop-color="#9bb3d7"/><stop offset="1" stop-color="#6b8dc4"/></linearGradient><linearGradient id="_Linear2" x1="0" y1="0" x2="1" y2="0" gradientUnits="userSpaceOnUse" gradientTransform="matrix(0 -2 2.66667 0 3 5)"><stop offset="0" stop-color="#b3c4e0"/><stop offset="1" stop-color="#a1b7d9"/></linearGradient></defs></svg>