<svg width="60" height="17" xmlns="http://www.w3.org/2000/svg" fill-rule="evenodd" clip-rule="evenodd" stroke-linejoin="round" stroke-miterlimit="2"><path d="M60 1v15l-1 1H1l-1-1V1l1-1h58l1 1zM1 1v15h58V1H1z" fill="#003bae"/><path fill="url(#_Linear1)" d="M1 1h58v15H1z"/><path d="M59 16H1V1h58v15zM2 2v13h56V2H2z" fill="#6e90c5" fill-opacity=".27"/><path d="M2 2h3v1H3v3H2V2z" fill="url(#_Linear2)"/><path d="M2 2h2v1H3v2H2V2zM9 9v4h7V9h2l-5.5-6L7 9h2z" fill="#fff"/><clipPath id="a"><path d="M9 9v4h7V9h2l-5.5-6L7 9h2z"/></clipPath><g clip-path="url(#a)"><path fill="#2c68cc" d="M11 9h3v3h-3z"/></g><g><path d="M26.186 13.227V3.77h1.154V7.68h2.215V3.77h1.154v9.458h-1.154V8.84H27.34v4.388h-1.154z" fill="#fff" fill-rule="nonzero"/><path d="M27.384 3.238l.044.005.043.01.042.011.041.017.04.02.038.021.036.026.033.03.032.03.028.034.026.035.022.038.02.04.016.04.012.043.009.044.006.043.002.044v3.38h1.148v-3.38l.002-.044.005-.043.009-.044.013-.042.016-.042.019-.039.023-.038.025-.035.029-.034.031-.03.034-.03.036-.026.038-.022.039-.019.041-.017.042-.012.044-.009.043-.005.044-.003h1.154l.044.003.044.005.043.01.042.011.041.017.04.02.038.021.036.026.033.03.031.03.029.034.026.035.022.038.02.04.016.04.012.043.009.044.006.043.001.044v9.458l-.001.045-.006.043-.009.044-.012.042-.016.04-.02.04-.022.039-.026.035-.029.034-.031.03-.033.03-.036.026-.038.022-.04.019-.041.017-.042.012-.043.009-.044.005-.044.003h-1.154l-.044-.003-.043-.005-.044-.01-.042-.011-.041-.017-.039-.02-.038-.021-.036-.026-.034-.03-.031-.03-.029-.034-.025-.035-.023-.038-.019-.04-.016-.04-.013-.043-.009-.044-.005-.043-.002-.045V9.372h-1.148v3.855l-.002.045-.006.043-.009.044-.012.042-.016.04-.02.04-.022.039-.026.035-.028.034-.032.03-.033.03-.036.026-.038.022-.04.019-.041.017-.042.012-.043.009-.044.005-.044.003h-1.154l-.044-.003-.043-.005-.043-.01-.043-.011-.041-.017-.039-.02-.038-.021-.036-.026-.034-.03-.031-.03-.028-.034-.026-.035-.023-.038-.019-.04-.016-.04-.013-.043-.009-.044-.005-.043-.002-.045V3.77l.002-.044.005-.043.009-.044.013-.042.016-.042.019-.039.023-.038.026-.035.028-.034.031-.03.034-.03.036-.026.038-.022.039-.019.041-.017.043-.012.043-.009.043-.005.044-.003h1.154l.044.003zm-1.198.53v9.46h1.154V8.838h2.215v4.388h1.154V3.77h-1.154V7.68H27.34V3.77h-1.154z" fill="#003bae"/><path d="M31.863 10.615V6.382c0-.592.108-1.099.323-1.52.184-.36.438-.647.761-.861.354-.223.777-.335 1.269-.335.493 0 .916.112 1.27.335.323.206.576.493.761.862.215.42.323.927.323 1.519v4.233c0 .592-.108 1.099-.323 1.52-.185.36-.438.646-.761.861-.354.223-.777.335-1.27.335-.492 0-.915-.112-1.269-.335a2.126 2.126 0 01-.761-.862c-.215-.42-.323-.927-.323-1.519zm1.154 0c0 .37.065.683.196.94.1.197.234.35.404.456.169.108.369.161.599.161.231 0 .431-.053.6-.16.17-.108.304-.26.404-.457.131-.257.196-.57.196-.94V6.382c0-.37-.065-.683-.196-.94-.1-.198-.234-.35-.404-.456a1.098 1.098 0 00-.6-.162c-.23 0-.43.054-.599.162-.17.107-.304.258-.404.456-.131.257-.196.57-.196.94v4.233z" fill="#fff" fill-rule="nonzero"/><path d="M34.323 3.134l.106.004.105.008.103.011.103.015.101.017.099.02.099.025.097.027.093.03.05.018.047.018.046.018.046.02.046.02.045.021.045.021.044.024.044.023.043.025.043.024.045.028.075.05.073.052.071.054.07.058.067.06.065.062.063.065.061.065.059.07.056.07.054.073.052.075.05.077.047.08.045.08.041.079.024.047.023.049.023.049.021.049.021.05.02.051.02.052.018.051.018.051.017.055.031.105.028.107.025.11.022.11.019.113.016.115.013.116.01.118.007.12.004.12.001.12v4.24l-.001.119-.004.12-.007.12-.01.118-.013.116-.016.113-.019.114-.022.11-.025.111-.028.107-.031.105-.017.054-.018.052-.018.051-.02.052-.02.05-.021.05-.021.05-.023.05-.023.048-.025.05-.042.079-.045.079-.047.077-.05.076-.051.073-.054.072-.056.07-.058.068-.06.066-.062.063-.065.063-.066.059-.068.058-.07.055-.072.053-.078.054-.049.03-.043.024-.043.025-.044.023-.044.024-.045.02-.045.022-.046.02-.046.02-.046.018-.047.018-.05.017-.093.03-.097.028-.099.024-.099.02-.101.018-.103.015-.103.01-.105.007-.106.006-.107.001h-.106l-.106-.007-.105-.007-.103-.01-.103-.015-.101-.018-.1-.02-.098-.024-.097-.028-.093-.03-.05-.017-.047-.018-.046-.019-.046-.019-.046-.02-.045-.021-.045-.021-.044-.024-.044-.023-.043-.025-.043-.024-.045-.028-.075-.05-.073-.053-.071-.054-.07-.057-.067-.06-.065-.062-.063-.065-.061-.065-.059-.07-.056-.07-.054-.073-.052-.075-.05-.077-.047-.08-.045-.08-.041-.079-.024-.047-.023-.049-.023-.049-.021-.05-.021-.05-.02-.05-.02-.052-.018-.051-.018-.052-.017-.054-.031-.105-.028-.107-.025-.11-.022-.11-.019-.115-.016-.113-.013-.116-.01-.119-.007-.119-.004-.12-.001-.12v-4.24l.001-.119.004-.12.007-.12.01-.118.013-.116.016-.115.019-.112.022-.11.025-.111.028-.107.031-.105.017-.055.018-.051.018-.051.02-.052.02-.051.021-.05.021-.05.023-.048.023-.05.025-.048.042-.08.045-.079.047-.077.05-.076.051-.073.054-.072.056-.07.058-.068.06-.066.062-.063.065-.063.066-.059.068-.058.07-.055.072-.053.078-.054.049-.03.043-.024.043-.025.044-.023.044-.024.045-.02.045-.022.046-.02.046-.02.046-.018.047-.018.05-.018.093-.03.097-.027.098-.024.1-.021.101-.017.103-.015.103-.01.105-.009.106-.004.106-.001h.107zm-.198.533l-.09.005-.088.006-.087.01-.085.01-.083.015-.082.018-.08.019-.079.022-.076.024-.038.014-.038.014-.037.015-.036.015-.037.016-.035.017-.036.018-.035.018-.034.017-.034.02-.034.02-.034.02-.059.042-.059.042-.056.045-.055.047-.053.048-.052.049-.05.051-.048.054-.047.054-.045.056-.044.058-.042.06-.04.062-.039.063-.037.065-.035.067-.02.04-.019.04-.019.04-.018.042-.017.04-.017.043-.016.043-.015.043-.015.044-.014.044-.027.09-.024.092-.021.094-.019.096-.017.098-.014.1-.011.102-.009.103-.006.106-.004.109-.001.11v4.233l.001.11.004.109.006.106.009.103.011.102.014.1.017.098.019.096.021.094.024.091.027.09.014.044.015.045.015.042.016.044.017.041.017.042.018.042.019.04.019.04.02.04.035.068.037.066.039.065.04.062.042.06.044.06.045.056.047.055.048.052.05.052.052.049.053.048.055.044.056.044.059.041.059.04.034.02.034.02.034.02.034.018.035.018.036.018.035.017.037.015.036.016.037.015.038.014.038.013.076.025.079.022.08.02.082.017.083.014.085.012.087.009.088.006.09.005.091.001.092-.001.09-.005.088-.006.087-.01.085-.011.083-.014.082-.018.08-.019.078-.022.077-.025.038-.013.038-.014.037-.015.036-.016.036-.015.036-.017.036-.018.035-.018.034-.019.034-.018.034-.02.034-.02.059-.042.058-.042.057-.045.055-.047.053-.048.052-.049.05-.051.048-.054.047-.054.045-.056.044-.06.042-.058.04-.062.039-.063.037-.065.035-.067.02-.04.019-.04.019-.04.018-.042.017-.042.017-.041.016-.044.015-.042.015-.045.014-.043.027-.09.024-.092.021-.094.019-.096.017-.098.014-.1.011-.102.009-.103.006-.106.004-.109.001-.11V6.382l-.001-.11-.004-.109-.006-.106-.009-.103-.011-.103-.014-.1-.017-.097-.019-.096-.021-.094-.024-.091-.027-.09-.014-.045-.015-.044-.015-.043-.016-.043-.017-.042-.017-.041-.018-.042-.019-.04-.019-.04-.02-.04-.035-.068-.037-.067-.039-.064-.04-.062-.042-.062-.044-.058-.045-.056-.047-.055-.048-.054-.05-.05-.052-.049-.053-.048-.055-.044-.057-.044-.058-.041-.059-.04-.034-.02-.034-.02-.034-.02-.034-.018-.035-.018-.036-.018-.036-.017-.036-.016-.036-.015-.037-.015-.038-.014-.038-.014-.077-.024-.078-.022-.08-.02-.082-.017-.083-.015-.085-.01-.087-.01-.088-.006-.09-.005-.092-.001-.091.001zm.134 1.158l.043.002.041.003.041.004.04.006.039.007.039.008.038.01.037.01.036.012.036.014.035.014.034.016.034.017.032.017.032.02.032.02.03.023.03.022.029.024.028.025.027.026.027.027.025.028.025.029.024.03.023.03.023.033.021.034.021.034.02.036.019.036.024.049.022.05.021.051.019.054.018.053.016.056.014.057.013.058.012.06.01.06.008.062.007.063.005.065.004.066.003.067v4.372l-.003.066-.004.066-.005.065-.007.063-.008.061-.01.062-.012.059-.013.058-.014.057-.016.056-.018.053-.019.053-.021.052-.022.05-.024.05-.019.035-.02.036-.021.034-.021.034-.023.032-.023.031-.024.03-.025.03-.025.027-.027.027-.027.026-.028.024-.029.025-.03.022-.03.022-.032.02-.032.02-.032.018-.034.017-.034.016-.035.014-.036.014-.036.012-.037.01-.038.01-.039.008-.039.006-.04.006-.041.005-.041.003-.043.002H34.174l-.043-.002-.041-.003-.041-.005-.04-.006-.039-.006-.039-.008-.038-.01-.037-.01-.036-.012-.036-.014-.035-.014-.034-.016-.034-.017-.032-.017-.032-.02-.032-.02-.03-.023-.03-.022-.029-.025-.028-.024-.027-.026-.027-.027-.025-.028-.025-.029-.024-.03-.023-.031-.023-.032-.021-.034-.021-.034-.02-.036-.019-.036-.024-.049-.022-.05-.021-.052-.019-.053-.018-.053-.016-.056-.014-.057-.013-.058-.012-.06-.01-.06-.008-.062-.007-.063-.006-.065-.003-.066-.003-.067V6.312l.003-.066.003-.066.006-.065.007-.063.008-.062.01-.06.012-.06.013-.058.014-.057.016-.056.018-.053.019-.054.021-.051.022-.05.024-.05.019-.035.02-.036.021-.034.021-.034.023-.032.023-.031.024-.03.025-.03.025-.027.027-.027.027-.026.028-.025.029-.024.03-.022.03-.022.032-.02.032-.02.032-.018.034-.017.034-.016.035-.014.036-.014.036-.012.037-.01.038-.01.039-.008.039-.007.04-.006.041-.004.041-.003.043-.002.042-.001h.043zm-.07.533l-.026.001-.024.002-.024.003-.022.003-.022.003-.02.005-.019.004-.019.006-.018.005-.016.007-.017.007-.015.006-.016.008-.014.01-.015.008-.015.01-.016.01-.014.011-.014.013-.014.012-.014.013-.013.014-.014.014-.013.016-.013.015-.012.017-.013.02-.012.018-.013.02-.012.021-.011.023-.016.032-.015.033-.014.035-.013.036-.012.038-.011.039-.011.04-.009.043-.009.044-.007.046-.007.048-.005.05-.004.05-.004.053-.001.055-.001.06v4.228l.001.059.001.055.004.052.004.051.005.05.007.047.007.047.009.044.009.042.011.041.011.04.012.037.013.036.014.035.015.032.016.033.011.023.012.02.013.02.012.02.013.018.012.018.013.015.013.016.014.014.013.014.014.013.014.012.014.011.014.012.016.01.015.01.015.01.014.008.016.007.015.008.017.007.016.005.018.007.019.005.019.005.02.005.022.003.022.003.024.003.024.002h.107l.024-.002.024-.003.022-.003.022-.003.02-.005.019-.005.019-.005.017-.007.017-.005.017-.007.015-.008.016-.007.014-.008.015-.01.015-.01.015-.01.015-.012.014-.01.014-.013.014-.013.013-.014.014-.014.013-.016.013-.015.012-.018.013-.018.012-.02.013-.02.012-.02.011-.023.016-.033.015-.032.014-.035.013-.036.012-.038.011-.039.011-.041.009-.042.009-.044.007-.047.007-.047.005-.05.004-.051.004-.052.001-.055.001-.06V6.385l-.001-.059-.001-.055-.004-.053-.004-.05-.005-.05-.007-.048-.007-.046-.009-.044-.009-.042-.011-.041-.011-.04-.012-.037-.013-.036-.014-.035-.015-.033-.016-.032-.011-.023-.012-.02-.013-.02-.012-.02-.013-.019-.012-.017-.013-.015-.013-.016-.014-.014-.013-.014-.014-.013-.014-.012-.014-.013-.014-.01-.016-.01-.015-.01-.015-.01-.014-.009-.016-.008-.015-.006-.017-.007-.017-.007-.017-.005-.019-.006-.019-.004-.02-.005-.022-.003-.022-.003-.024-.003-.024-.002h-.081z" fill="#003bae"/><path d="M37.724 13.227V3.77h1.096l1.165 4.993L41.15 3.77h1.097v9.458h-1.154v-1.891c0-1.184.065-2.445.196-3.784.061-.6.108-1.179.138-1.737l-1.061 4.581h-.762l-1.061-4.58a38.1 38.1 0 00.138 1.736c.131 1.339.197 2.6.197 3.784v1.891h-1.154z" fill="#fff" fill-rule="nonzero"/><path d="M38.865 3.238l.044.005.044.01.042.013.042.016.04.02.038.023.036.026.034.03.031.032.029.034.025.037.023.038.019.041.015.042.012.043.646 2.767.646-2.767.012-.043.016-.042.019-.04.022-.039.025-.037.029-.034.031-.033.034-.029.036-.026.038-.023.04-.02.042-.016.043-.014.043-.009.045-.005.044-.003h1.097l.044.003.043.005.043.01.043.011.041.017.039.02.038.021.036.026.034.03.031.03.028.034.026.035.023.038.019.04.016.04.013.043.009.044.005.043.002.044v9.458l-.002.045-.005.043-.009.044-.013.042-.016.04-.019.04-.023.039-.026.035-.028.034-.031.03-.034.03-.036.026-.038.022-.039.019-.041.017-.043.012-.043.009-.043.005-.044.003h-1.154l-.044-.003-.044-.005-.043-.01-.042-.011-.041-.017-.04-.02-.038-.021-.036-.026-.033-.03-.032-.03-.028-.034-.026-.035-.022-.038-.02-.04-.016-.04-.012-.043-.009-.044-.006-.043-.002-.045v-1.891l.001-.227.002-.217-.02.009-.043.012-.044.01-.044.005-.045.002h-.762l-.044-.002-.045-.005-.043-.01-.043-.012-.021-.01.002.218.001.227v1.891l-.002.045-.005.043-.009.044-.013.042-.016.04-.019.04-.023.039-.026.035-.028.034-.031.03-.034.03-.036.026-.038.022-.039.019-.041.017-.042.012-.044.009-.043.005-.044.003h-1.154l-.044-.003-.044-.005-.043-.01-.042-.011-.041-.017-.04-.02-.038-.021-.036-.026-.033-.03-.032-.03-.028-.034-.026-.035-.022-.038-.02-.04-.016-.04-.012-.043-.009-.044-.006-.043-.001-.045V3.77l.001-.044.006-.043.009-.044.012-.042.016-.042.02-.039.022-.038.026-.035.028-.034.032-.03.033-.03.036-.026.038-.022.04-.019.041-.017.042-.012.043-.009.044-.005.044-.003h1.096l.045.003zm-1.141.53v9.46h1.154v-1.892l-.001-.222-.002-.226-.004-.226-.006-.229-.007-.23-.008-.232-.01-.233-.011-.236-.013-.237-.015-.24-.016-.24-.018-.244-.019-.244-.021-.246-.022-.248-.024-.25-.022-.225-.021-.222-.019-.22-.018-.218-.017-.217-.015-.214-.014-.212-.012-.21 1.061 4.581h.762l1.061-4.58-.012.21-.014.211-.015.214-.016.217-.018.218-.02.22-.021.222-.022.224-.024.251-.022.248-.021.246-.019.244-.018.244-.016.24-.014.24-.013.237-.012.236-.01.233-.008.232-.007.23-.005.229-.004.226-.002.226-.001.222v1.891h1.154V3.77H41.15l-1.165 4.993L38.82 3.77h-1.096z" fill="#003bae"/><path d="M43.804 13.227V3.77h4.211v1.159h-3.057V7.54h2.377v1.158h-2.377v3.371h3.057v1.158h-4.211z" fill="#fff" fill-rule="nonzero"/><path d="M48.059 3.238l.044.005.043.01.042.011.041.017.04.02.038.021.036.026.033.03.032.03.028.034.026.035.022.038.02.04.016.04.012.043.009.044.006.043.002.044v1.159l-.002.043-.006.044-.009.043-.012.042-.016.042-.02.039-.022.038-.026.035-.028.035-.032.031-.033.028-.036.026-.038.022-.04.02-.041.016-.042.012-.043.009-.044.005-.044.003h-2.524v1.546H47.379l.043.006.043.01.043.013.041.015.039.02.038.023.036.025.034.028.031.031.028.034.026.036.023.037.019.04.016.042.013.042.009.043.005.043.002.045v1.158l-.002.044-.005.044-.009.043-.013.043-.016.04-.019.04-.023.038-.026.036-.028.033-.031.031-.034.03-.036.025-.038.022-.039.02-.041.015-.043.013-.043.01-.043.005H45.491v2.306h2.524l.044.003.044.004.043.01.042.012.041.016.04.02.038.022.036.026.033.028.032.031.028.034.026.036.022.037.02.04.016.042.012.042.009.042.006.045.002.043v1.158l-.002.045-.006.043-.009.044-.012.042-.016.04-.02.04-.022.039-.026.035-.028.034-.032.03-.033.03-.036.026-.038.022-.04.019-.041.017-.042.012-.043.009-.044.005-.044.003h-4.211l-.044-.003-.044-.005-.043-.01-.042-.011-.041-.017-.04-.02-.038-.021-.036-.026-.033-.03-.031-.03-.029-.034-.025-.035-.023-.038-.019-.04-.016-.04-.013-.043-.009-.044-.005-.043-.002-.045V3.77l.002-.044.005-.043.009-.044.013-.042.016-.042.019-.039.023-.038.025-.035.029-.034.031-.03.033-.03.036-.026.038-.022.04-.019.041-.017.042-.012.043-.009.044-.005.044-.003h4.211l.044.003zm-4.255.53v9.46h4.211v-1.159h-3.057V8.698h2.377V7.54h-2.377V4.928h3.057v-1.16h-4.211z" fill="#003bae"/></g><defs><linearGradient id="_Linear1" x1="0" y1="0" x2="1" y2="0" gradientUnits="userSpaceOnUse" gradientTransform="matrix(58 0 0 15 1 8.5)"><stop offset="0" stop-color="#6b8dc4"/><stop offset=".43" stop-color="#87a3cf"/><stop offset=".89" stop-color="#d5dfee"/><stop offset=".96" stop-color="#c5d3e8"/><stop offset=".98" stop-color="#9bb3d7"/><stop offset="1" stop-color="#6b8dc4"/></linearGradient><linearGradient id="_Linear2" x1="0" y1="0" x2="1" y2="0" gradientUnits="userSpaceOnUse" gradientTransform="matrix(0 -2 2.66667 0 3 5)"><stop offset="0" stop-color="#b3c4e0"/><stop offset="1" stop-color="#a1b7d9"/></linearGradient></defs></svg>