<svg width="60" height="17" xmlns="http://www.w3.org/2000/svg" fill-rule="evenodd" clip-rule="evenodd" stroke-linejoin="round" stroke-miterlimit="2"><path d="M60 1v15l-1 1H1l-1-1V1l1-1h58l1 1zM1 1v15h58V1H1z" fill="#003bae"/><path fill="url(#_Linear1)" d="M1 1h58v15H1z"/><path d="M59 16H1V1h58v15zM2 2v13h56V2H2z" fill="#6e90c5" fill-opacity=".27"/><path d="M2 2h3v1H3v3H2V2z" fill="url(#_Linear2)"/><path d="M2 2h2v1H3v2H2V2z" fill="#fff"/><g><path d="M10 3v11h8V5l-2-2h-6z" fill="#fff"/><clipPath id="a"><path d="M10 3v11h8V5l-2-2h-6z"/></clipPath><g clip-path="url(#a)"><path d="M15 4h-1v3h3V6h-2V4z" fill="#2c68cc"/></g><path d="M7 7h6l1 1v7H7V7" fill="#fff"/><clipPath id="b"><path d="M7 7h6l1 1v7H7V7"/></clipPath><g clip-path="url(#b)"><path d="M8 8v6h5V9l-1-1H8zm2 1h1l1 1v1h-2" fill="#2c68cc"/></g></g><g><path d="M25.094 10.615V6.382c0-.592.108-1.099.323-1.52.185-.36.439-.647.762-.861.353-.223.777-.335 1.269-.335.492 0 .915.112 1.269.335.323.206.577.493.761.862.216.42.323.927.323 1.519v4.233c0 .592-.107 1.099-.323 1.52a2.24 2.24 0 01-.761.861c-.092.06-.192.112-.3.154l.427 1.969H27.69l-.415-1.788a2.293 2.293 0 01-1.096-.335 2.135 2.135 0 01-.762-.862c-.215-.42-.323-.927-.323-1.519zm1.154 0c0 .37.065.683.196.94.1.197.235.35.404.456.169.108.369.161.6.161.231 0 .431-.053.6-.16.169-.108.304-.26.404-.457.13-.257.196-.57.196-.94V6.382c0-.37-.066-.683-.196-.94a1.13 1.13 0 00-.404-.456 1.098 1.098 0 00-.6-.162c-.231 0-.431.054-.6.162a1.13 1.13 0 00-.404.456c-.131.257-.196.57-.196.94v4.233z" fill="#fff" fill-rule="nonzero"/><path d="M27.555 3.134l.105.004.105.008.104.011.102.015.101.017.1.02.098.025.097.027.094.03.049.018.047.018.047.018.046.02.045.02.045.021.045.021.044.024.044.023.043.025.043.024.045.028.075.05.073.052.071.054.07.058.067.06.065.062.063.065.061.065.059.07.056.07.055.073.051.075.05.077.047.08.045.08.041.079.024.047.023.049.023.049.022.049.021.05.02.051.019.052.018.051.018.051.017.055.031.105.028.107.025.11.022.11.019.113.016.115.013.116.01.118.007.12.004.12.002.12v4.24l-.002.119-.004.12-.007.12-.01.118-.013.116-.016.113-.019.114-.022.11-.025.111-.028.107-.031.105-.017.054-.018.052-.018.051-.019.052-.02.05-.021.05-.022.05-.023.05-.023.048-.025.05-.042.079-.045.079-.047.077-.049.076-.052.073-.054.072-.056.07-.058.068-.06.066-.062.063-.064.063-.067.059-.068.058-.07.055-.072.053-.062.043.341 1.573.008.047.004.048-.001.047-.004.048-.009.047-.013.046-.017.043-.021.044-.025.04-.028.039-.032.035-.034.033-.037.029-.04.027-.042.022-.044.018-.045.015-.047.01-.047.007-.047.002H27.69l-.048-.002-.047-.007-.046-.01-.046-.015-.044-.02-.042-.022-.04-.025-.037-.03-.035-.033-.031-.036-.028-.038-.025-.042-.021-.042-.017-.045-.012-.045-.332-1.428-.047-.01-.087-.02-.086-.02-.086-.025-.084-.028-.083-.029-.081-.032-.081-.036-.079-.037-.078-.04-.076-.042-.077-.047-.077-.051-.074-.053-.071-.054-.069-.057-.068-.06-.065-.062-.063-.065-.061-.065-.058-.07-.057-.07-.054-.073-.052-.075-.05-.077-.047-.08-.045-.08-.041-.079-.024-.047-.023-.049-.022-.049-.022-.05-.021-.05-.02-.05-.019-.052-.019-.051-.017-.052-.018-.054-.031-.105-.028-.107-.025-.11-.022-.11-.019-.115-.016-.113-.012-.116-.01-.119-.008-.119-.004-.12-.001-.12v-4.24l.001-.119.004-.12.008-.12.01-.118.012-.116.016-.115.019-.112.022-.11.025-.111.028-.107.031-.105.018-.055.017-.051.019-.051.019-.052.02-.051.021-.05.022-.05.022-.048.023-.05.025-.048.042-.08.045-.079.048-.077.049-.076.051-.073.054-.072.056-.07.058-.068.06-.066.063-.063.064-.063.066-.059.068-.058.071-.055.072-.053.077-.054.049-.03.043-.024.044-.025.043-.023.045-.024.044-.02.045-.022.046-.02.046-.02.046-.018.047-.018.05-.018.093-.03.097-.027.099-.024.1-.021.101-.017.102-.015.103-.01.105-.009.106-.004.107-.001h.107zm-.199.533l-.09.005-.088.006-.086.01-.085.01-.084.015-.082.018-.08.019-.078.022-.077.024-.038.014-.037.014-.037.015-.037.015-.036.016-.036.017-.035.018-.035.018-.035.017-.034.02-.034.02-.033.02-.06.042-.058.042-.057.045-.055.047-.053.048-.052.049-.05.051-.048.054-.047.054-.045.056-.043.058-.042.06-.041.062-.038.063-.037.065-.036.067-.02.04-.019.04-.019.04-.018.042-.017.04-.017.043-.016.043-.015.043-.015.044-.014.044-.027.09-.024.092-.021.094-.019.096-.016.098-.014.1-.012.102-.009.103-.006.106-.004.109-.001.11v4.233l.001.11.004.109.006.106.009.103.012.102.014.1.016.098.019.096.021.094.024.091.027.09.014.044.015.045.015.042.016.044.017.041.017.042.018.042.019.04.019.04.02.04.036.068.037.066.038.065.041.062.042.06.043.06.045.056.047.055.048.052.05.052.052.049.053.048.055.044.057.044.058.041.06.04.059.036.061.034.062.032.064.03.064.028.066.026.066.024.068.021.069.02.071.018.071.017.073.013.073.013.075.009.076.007.078.007.415 1.788h1.154l-.427-1.969.04-.016.039-.017.039-.018.038-.019.037-.02.036-.02.036-.021.035-.023.06-.04.058-.043.056-.045.055-.047.053-.048.052-.049.05-.051.049-.054.046-.054.045-.056.044-.06.042-.058.04-.062.039-.063.037-.065.035-.067.02-.04.019-.04.019-.04.018-.042.017-.042.017-.041.016-.044.016-.042.015-.045.014-.043.026-.09.024-.092.022-.094.019-.096.016-.098.014-.1.011-.102.009-.103.006-.106.004-.109.001-.11V6.382l-.001-.11-.004-.109-.006-.106-.009-.103-.011-.103-.014-.1-.016-.097-.019-.096-.022-.094-.024-.091-.026-.09-.014-.045-.015-.044-.016-.043-.016-.043-.017-.042-.017-.041-.018-.042-.019-.04-.019-.04-.02-.04-.035-.068-.037-.067-.039-.064-.04-.062-.042-.062-.044-.058-.045-.056-.046-.055-.049-.054-.05-.05-.052-.049-.053-.048-.055-.044-.056-.044-.058-.041-.06-.04-.033-.02-.034-.02-.034-.02-.035-.018-.035-.018-.035-.018-.036-.017-.036-.016-.037-.015-.037-.015-.038-.014-.037-.014-.077-.024-.079-.022-.08-.02-.082-.017-.083-.015-.085-.01-.087-.01-.088-.006-.09-.005-.091-.001-.092.001zm.135 1.158l.042.002.041.003.041.004.04.006.039.007.039.008.038.01.037.01.036.012.036.014.035.014.034.016.034.017.033.017.032.02.031.02.031.023.029.022.029.024.028.025.027.026.027.027.026.028.024.029.024.03.024.03.022.033.022.034.02.034.02.036.02.036.023.049.022.05.021.051.019.054.018.053.016.056.015.057.013.058.011.06.01.06.009.062.006.063.006.065.004.066.002.067.001.069v4.233l-.001.07-.002.066-.004.066-.006.065-.006.063-.009.061-.01.062-.011.059-.013.058-.015.057-.016.056-.018.053-.019.053-.021.052-.022.05-.023.05-.02.035-.02.036-.02.034-.022.034-.022.032-.024.031-.024.03-.024.03-.026.027-.027.027-.027.026-.028.024-.029.025-.029.022-.031.022-.031.02-.032.02-.033.018-.034.017-.034.016-.035.014-.036.014-.036.012-.037.01-.038.01-.039.008-.039.006-.04.006-.041.005-.041.003-.042.002h-.086l-.042-.002-.042-.003-.041-.005-.04-.006-.039-.006-.038-.008-.038-.01-.037-.01-.037-.012-.036-.014-.034-.014-.035-.016-.033-.017-.033-.017-.032-.02-.031-.02-.031-.023-.03-.022-.029-.025-.028-.024-.027-.026-.026-.027-.026-.028-.025-.029-.024-.03-.023-.031-.023-.032-.021-.034-.021-.034-.02-.036-.019-.036-.024-.049-.022-.05-.021-.052-.019-.053-.017-.053-.017-.056-.014-.057-.013-.058-.012-.06-.01-.06-.008-.062-.007-.063-.005-.065-.004-.066-.002-.067-.001-.069V6.382l.001-.07.002-.066.004-.066.005-.065.007-.063.008-.062.01-.06.012-.06.013-.058.014-.057.017-.056.017-.053.019-.054.021-.051.022-.05.024-.05.019-.035.02-.036.021-.034.021-.034.023-.032.023-.031.024-.03.025-.03.026-.027.026-.027.027-.026.028-.025.029-.024.03-.022.031-.022.031-.02.032-.02.033-.018.033-.017.035-.016.034-.014.036-.014.037-.012.037-.01.038-.01.038-.008.039-.007.04-.006.041-.004.042-.003.042-.002.043-.001h.043zm-.07.533l-.026.001-.025.002-.024.003-.022.003-.021.003-.021.005-.019.004-.019.006-.017.005-.017.007-.016.007-.016.006-.015.008-.015.01-.015.008-.015.01-.015.01-.015.011-.014.013-.014.012-.014.013-.013.014-.013.014-.013.016-.013.015-.013.017-.013.02-.012.018-.012.02-.012.021-.012.023-.016.032-.014.033-.014.035-.013.036-.013.038-.011.039-.01.04-.01.043-.009.044-.007.046-.007.048-.005.05-.004.05-.003.053-.002.055-.001.06v4.228l.001.059.002.055.003.052.004.051.005.05.007.047.007.047.009.044.01.042.01.041.011.04.013.037.013.036.014.035.014.032.016.033.012.023.012.02.012.02.012.02.013.018.013.018.013.015.013.016.013.014.013.014.014.013.014.012.014.011.015.012.015.01.015.01.015.01.015.008.015.007.016.008.016.007.017.005.017.007.019.005.019.005.021.005.021.003.022.003.024.003.025.002h.106l.025-.002.023-.003.023-.003.021-.003.02-.005.02-.005.018-.005.018-.007.017-.005.016-.007.016-.008.015-.007.015-.008.015-.01.015-.01.015-.01.014-.012.015-.01.014-.013.013-.013.014-.014.013-.014.013-.016.013-.015.013-.018.012-.018.013-.02.012-.02.012-.02.011-.023.016-.033.015-.032.014-.035.013-.036.012-.038.012-.039.01-.041.01-.042.008-.044.008-.047.006-.047.005-.05.005-.051.003-.052.002-.055V6.325l-.002-.055-.003-.053-.005-.05-.005-.05-.006-.048-.008-.046-.008-.044-.01-.042-.01-.041-.012-.04-.012-.037-.013-.036-.014-.035-.015-.033-.016-.032-.011-.023-.012-.02-.012-.02-.013-.02-.012-.019-.013-.017-.013-.015-.013-.016-.013-.014-.014-.014-.013-.013-.014-.012-.015-.013-.014-.01-.015-.01-.015-.01-.015-.01-.015-.009-.015-.008-.016-.006-.016-.007-.017-.007-.018-.005-.018-.006-.02-.004-.02-.005-.021-.003-.023-.003-.023-.003-.025-.002h-.08z" fill="#003bae"/><path d="M30.955 10.615V3.769h1.154v6.846c0 .395.069.72.208.978.1.189.226.335.38.437a.931.931 0 00.519.142c.2 0 .374-.047.52-.142.153-.102.28-.248.38-.437.139-.257.208-.583.208-.978V3.769h1.154v6.846c0 .609-.112 1.129-.335 1.557a2.222 2.222 0 01-.738.837c-.331.215-.727.322-1.189.322-.461 0-.857-.107-1.188-.322a2.003 2.003 0 01-.738-.837c-.223-.428-.335-.948-.335-1.557z" fill="#fff" fill-rule="nonzero"/><path d="M32.153 3.238l.044.005.043.01.042.011.041.017.04.02.038.021.035.026.034.03.031.03.029.034.025.035.023.038.019.04.016.04.013.043.009.044.005.043.002.044v6.844l.001.063.002.06.003.056.005.055.006.054.006.05.008.048.01.045.01.045.011.042.011.04.013.037.014.036.014.035.015.03.017.034.012.024.013.021.012.02.013.019.013.019.013.017.012.016.013.015.013.014.013.014.013.012.013.012.013.011.013.012.013.01.01.005.007.005.01.005.01.006.011.005.012.005.011.004.013.005.013.003.014.004.015.003.016.003.017.002.017.003h.019l.02.002h.043l.02-.001.019-.001.017-.003.017-.002.016-.003.015-.003.014-.004.013-.003.013-.005.011-.004.012-.005.011-.005.01-.006.01-.005.007-.005.01-.005.013-.01.013-.012.013-.01.013-.013.013-.012.013-.014.013-.014.013-.015.012-.016.013-.017.013-.019.013-.019.012-.02.013-.021.012-.024.017-.033.015-.031.014-.035.014-.036.012-.038.012-.039.011-.042.01-.045.009-.045.008-.048.007-.05.006-.054.005-.055.003-.057.002-.059.001-.063V3.769l.002-.044.005-.043.009-.044.013-.042.016-.042.019-.039.023-.038.025-.035.029-.034.031-.03.033-.03.036-.026.038-.022.04-.019.041-.017.042-.012.043-.009.044-.005.044-.003h1.154l.044.003.044.005.043.01.042.011.041.017.04.02.038.021.035.026.034.03.031.03.029.034.025.035.023.038.019.04.016.04.013.043.009.044.005.043.002.044v6.85l-.001.122-.005.124-.007.123-.01.12-.014.12-.016.116-.02.115-.022.113-.013.058-.013.056-.014.056-.015.054-.016.055-.017.053-.017.054-.018.053-.02.053-.019.052-.021.052-.022.05-.022.052-.024.05-.024.05-.026.05-.042.079-.044.076-.047.076-.048.072-.051.071-.052.07-.055.069-.056.066-.058.063-.061.063-.062.06-.064.057-.065.056-.068.053-.069.053-.076.05-.083.053-.083.047-.084.044-.087.04-.088.037-.089.033-.091.03-.093.027-.094.023-.095.022-.096.016-.097.014-.099.01-.099.009-.101.004-.102.001h-.101l-.101-.005-.099-.008-.099-.011-.097-.014-.096-.016-.095-.022-.094-.023-.093-.027-.091-.03-.089-.033-.088-.037-.087-.04-.085-.044-.082-.047-.077-.048-.071-.047-.073-.05-.07-.053-.068-.056-.067-.06-.064-.06-.062-.063-.06-.065-.057-.068-.056-.07-.053-.071-.05-.074-.049-.076-.046-.078-.044-.08-.038-.074-.022-.044-.025-.05-.023-.05-.022-.051-.022-.051-.021-.052-.02-.052-.019-.053-.018-.053-.017-.054-.017-.053-.016-.055-.015-.054-.014-.056-.013-.056-.013-.058-.022-.113-.02-.115-.016-.117-.014-.119-.01-.12-.007-.123-.005-.124-.001-.123v-6.85l.002-.043.005-.043.009-.044.013-.042.016-.042.019-.039.023-.038.025-.035.029-.034.031-.03.034-.03.035-.026.038-.022.04-.019.041-.017.042-.012.043-.009.044-.005.044-.003h1.154l.044.003zm-1.198.53v6.847l.001.114.004.11.007.11.009.107.012.104.014.103.017.1.02.099.011.048.011.047.012.048.013.047.013.046.014.046.015.046.015.044.016.044.017.044.017.043.018.042.019.042.019.042.02.04.021.041.034.067.035.065.038.062.038.062.041.059.042.057.044.054.045.054.047.051.049.05.05.047.052.046.053.043.055.043.057.039.058.038.063.039.064.036.066.034.067.031.069.03.071.026.072.023.073.023.075.019.077.015.078.015.08.01.081.01.082.005.085.005.085.001.086-.001.084-.005.083-.005.081-.01.08-.01.078-.015.077-.015.075-.02.073-.022.072-.023.071-.027.069-.029.067-.031.066-.034.064-.036.063-.04.057-.038.055-.042.054-.042.053-.045.051-.047.05-.047.048-.05.047-.052.046-.052.044-.055.042-.057.041-.058.04-.06.038-.062.037-.063.035-.066.021-.04.02-.041.019-.042.019-.042.018-.042.017-.043.017-.044.016-.044.015-.044.015-.046.014-.046.013-.046.013-.047.012-.048.011-.047.011-.048.02-.099.017-.1.014-.103.012-.104.009-.108.007-.109.004-.11.001-.114V3.769h-1.154v6.846l-.001.074-.002.071-.004.07-.006.068-.007.067-.009.065-.011.063-.012.063-.014.06-.015.06-.017.056-.019.056-.02.053-.022.053-.023.05-.026.05-.019.034-.019.034-.021.033-.021.032-.021.031-.022.03-.023.028-.024.028-.024.027-.025.026-.025.025-.026.024-.027.022-.027.022-.028.021-.028.02-.028.017-.028.016-.029.016-.03.013-.03.012-.031.012-.032.01-.032.01-.033.008-.033.008-.034.006-.035.004-.035.005-.036.002-.036.002h-.075l-.036-.002-.036-.002-.035-.005-.035-.004-.034-.006-.034-.008-.032-.007-.032-.01-.032-.01-.031-.013-.03-.012-.03-.013-.029-.016-.028-.016-.028-.018-.028-.019-.028-.02-.027-.023-.027-.022-.026-.024-.025-.025-.025-.026-.024-.027-.024-.028-.023-.029-.022-.029-.021-.031-.021-.032-.021-.033-.019-.034-.019-.035-.026-.049-.023-.05-.022-.053-.02-.053-.019-.056-.017-.057-.015-.059-.014-.06-.012-.063-.011-.063-.009-.065-.007-.067-.006-.068-.004-.07-.002-.071-.001-.074V3.769h-1.154z" fill="#003bae"/><path d="M36.632 10.615V6.382c0-.592.107-1.099.323-1.52.184-.36.438-.647.761-.861.354-.223.777-.335 1.269-.335.492 0 .915.112 1.269.335.323.206.577.493.762.862.215.42.323.927.323 1.519v4.233c0 .592-.108 1.099-.323 1.52a2.25 2.25 0 01-.762.861c-.354.223-.777.335-1.269.335-.492 0-.915-.112-1.269-.335a2.126 2.126 0 01-.761-.862c-.216-.42-.323-.927-.323-1.519zm1.153 0c0 .37.066.683.196.94.1.197.235.35.404.456.169.108.369.161.6.161.231 0 .431-.053.6-.16.169-.108.304-.26.404-.457.131-.257.196-.57.196-.94V6.382c0-.37-.065-.683-.196-.94a1.13 1.13 0 00-.404-.456 1.098 1.098 0 00-.6-.162c-.231 0-.431.054-.6.162a1.13 1.13 0 00-.404.456c-.13.257-.196.57-.196.94v4.233z" fill="#fff" fill-rule="nonzero"/><path d="M39.092 3.134l.106.004.105.008.103.011.102.015.101.017.1.02.099.025.097.027.093.03.05.018.046.018.047.018.046.02.046.02.045.021.044.021.045.024.043.023.044.025.042.024.046.028.074.05.074.052.071.054.069.058.068.06.065.062.063.065.061.065.058.07.057.07.054.073.052.075.049.077.048.08.045.08.041.079.024.047.023.049.022.049.022.049.021.05.02.051.019.052.019.051.017.051.018.055.031.105.028.107.025.11.022.11.019.113.016.115.012.116.01.118.008.12.004.12.001.12v4.24l-.001.119-.004.12-.008.12-.01.118-.012.116-.016.113-.019.114-.022.11-.025.111-.028.107-.031.105-.018.054-.017.052-.019.051-.019.052-.02.05-.021.05-.022.05-.022.05-.023.048-.025.05-.042.079-.045.079-.048.077-.049.076-.052.073-.053.072-.056.07-.058.068-.06.066-.063.063-.064.063-.066.059-.069.058-.07.055-.072.053-.077.053-.05.03-.042.025-.044.025-.043.023-.045.024-.044.02-.045.022-.046.02-.046.02-.047.018-.046.018-.05.017-.093.03-.097.028-.099.024-.1.02-.101.018-.102.015-.103.01-.105.007-.106.006-.107.001h-.107l-.105-.007-.105-.007-.104-.01-.102-.015-.101-.018-.1-.02-.098-.024-.097-.028-.094-.03-.049-.017-.047-.018-.047-.019-.046-.019-.045-.02-.045-.021-.045-.021-.044-.024-.044-.023-.043-.025-.043-.024-.045-.028-.075-.05-.073-.053-.072-.054-.069-.057-.067-.06-.065-.062-.064-.065-.06-.065-.059-.07-.056-.07-.055-.073-.051-.075-.05-.077-.047-.08-.046-.08-.04-.079-.024-.047-.024-.049-.022-.049-.022-.05-.021-.05-.02-.05-.019-.052-.018-.051-.018-.052-.018-.054-.03-.105-.028-.107-.025-.11-.022-.11-.019-.115-.016-.113-.013-.116-.01-.119-.007-.119-.004-.12-.002-.12v-4.24l.002-.119.004-.12.007-.12.01-.118.013-.116.016-.115.019-.112.022-.11.025-.111.028-.107.03-.105.018-.055.018-.051.018-.051.019-.052.02-.051.021-.05.022-.05.022-.048.024-.05.025-.048.042-.08.045-.079.047-.077.049-.076.052-.073.054-.072.056-.07.058-.068.06-.066.062-.063.064-.063.067-.059.068-.058.07-.055.072-.053.078-.054.049-.03.043-.024.043-.025.044-.023.044-.024.045-.02.045-.022.045-.02.046-.02.047-.018.047-.018.049-.018.094-.03.097-.027.098-.024.1-.021.101-.017.102-.015.104-.01.105-.009.105-.004.107-.001h.107zm-.198.533l-.09.005-.088.006-.087.01-.085.01-.083.015-.082.018-.08.019-.079.022-.077.024-.038.014-.037.014-.037.015-.037.015-.036.016-.036.017-.035.018-.035.018-.035.017-.034.02-.034.02-.033.02-.06.042-.058.042-.056.045-.055.047-.054.048-.051.049-.05.051-.049.054-.046.054-.046.056-.043.058-.042.06-.04.062-.039.063-.037.065-.035.067-.02.04-.02.04-.018.04-.018.042-.017.04-.017.043-.016.043-.016.043-.015.044-.014.044-.026.09-.024.092-.022.094-.019.096-.016.098-.014.1-.011.102-.009.103-.006.106-.004.109-.001.11v4.233l.001.11.004.109.006.106.009.103.011.102.014.1.016.098.019.096.022.094.024.091.026.09.014.044.015.045.016.042.016.044.017.041.017.042.018.042.018.04.02.04.02.04.035.068.037.066.039.065.04.062.042.06.043.06.046.056.046.055.049.052.05.052.051.049.054.048.055.044.056.044.058.041.06.04.033.02.034.02.034.02.035.018.035.018.035.018.036.017.036.015.037.016.037.015.037.014.038.013.077.025.079.022.08.02.082.017.083.014.085.012.087.009.088.006.09.005.091.001.092-.001.09-.005.088-.006.086-.01.085-.011.084-.014.082-.018.08-.019.078-.022.077-.025.038-.013.037-.014.037-.015.037-.016.036-.015.036-.017.035-.018.035-.018.035-.019.034-.018.034-.02.033-.02.06-.042.058-.042.057-.045.055-.047.053-.048.052-.049.05-.051.048-.054.047-.054.045-.056.043-.06.042-.058.041-.062.038-.063.037-.065.036-.067.02-.04.019-.04.019-.04.017-.042.018-.042.017-.041.016-.044.015-.042.015-.045.014-.043.027-.09.024-.092.021-.094.019-.096.016-.098.014-.1.012-.102.008-.103.007-.106.004-.109.001-.11V6.382l-.001-.11-.004-.109-.007-.106-.008-.103-.012-.103-.014-.1-.016-.097-.019-.096-.021-.094-.024-.091-.027-.09-.014-.045-.015-.044-.015-.043-.016-.043-.017-.042-.018-.041-.017-.042-.019-.04-.019-.04-.02-.04-.036-.068-.037-.067-.038-.064-.041-.062-.042-.062-.043-.058-.045-.056-.047-.055-.048-.054-.05-.05-.052-.049-.053-.048-.055-.044-.057-.044-.058-.041-.06-.04-.033-.02-.034-.02-.034-.02-.035-.018-.035-.018-.035-.018-.036-.017-.036-.016-.037-.015-.037-.015-.037-.014-.038-.014-.077-.024-.078-.022-.08-.02-.082-.017-.084-.015-.085-.01-.086-.01-.088-.006-.09-.005-.092-.001-.091.001zm.134 1.158l.042.002.042.003.04.004.04.006.04.007.038.008.038.01.037.01.037.012.035.014.035.014.035.016.033.017.033.017.032.02.031.02.031.023.03.022.029.024.028.025.027.026.026.027.026.028.025.029.024.03.023.03.022.033.022.034.021.034.02.036.019.036.024.049.022.05.021.051.019.054.017.053.016.056.015.057.013.058.012.06.009.06.009.062.007.063.005.065.004.066.002.067.001.069v4.233l-.001.07-.002.066-.004.066-.005.065-.007.063-.009.061-.009.062-.012.059-.013.058-.015.057-.016.056-.017.053-.019.053-.021.052-.022.05-.024.05-.019.035-.02.036-.021.034-.022.034-.022.032-.023.031-.024.03-.025.03-.026.027-.026.027-.027.026-.028.024-.029.025-.03.022-.031.022-.031.02-.032.02-.033.018-.033.017-.035.016-.035.014-.035.014-.037.012-.037.01-.038.01-.038.008-.04.006-.04.006-.04.005-.042.003-.042.002h-.086l-.042-.002-.041-.003-.041-.005-.04-.006-.039-.006-.039-.008-.038-.01-.037-.01-.036-.012-.036-.014-.035-.014-.034-.016-.034-.017-.033-.017-.032-.02-.031-.02-.031-.023-.029-.022-.029-.025-.028-.024-.028-.026-.026-.027-.026-.028-.024-.029-.024-.03-.024-.031-.022-.032-.022-.034-.02-.034-.02-.036-.02-.036-.023-.049-.023-.05-.02-.052-.019-.053-.018-.053-.016-.056-.015-.057-.013-.058-.011-.06-.01-.06-.009-.062-.006-.063-.006-.065-.004-.066-.002-.067-.001-.069V6.382l.001-.07.002-.066.004-.066.006-.065.006-.063.009-.062.01-.06.011-.06.013-.058.015-.057.016-.056.018-.053.019-.054.02-.051.023-.05.023-.05.02-.035.02-.036.02-.034.022-.034.022-.032.024-.031.024-.03.024-.03.026-.027.026-.027.028-.026.028-.025.029-.024.029-.022.031-.022.031-.02.032-.02.033-.018.034-.017.034-.016.035-.014.036-.014.036-.012.037-.01.038-.01.039-.008.039-.007.04-.006.041-.004.041-.003.042-.002.043-.001h.043zm-.07.533l-.026.001-.025.002-.023.003-.023.003-.021.003-.02.005-.02.004-.018.006-.018.005-.017.007-.016.007-.016.006-.015.008-.015.01-.015.008-.015.01-.015.01-.014.011-.015.013-.014.012-.013.013-.014.014-.013.014-.013.016-.013.015-.013.017-.012.02-.013.018-.012.02-.012.021-.011.023-.016.032-.015.033-.014.035-.013.036-.012.038-.012.039-.01.04-.01.043-.008.044-.008.046-.006.048-.006.05-.004.05-.003.053-.002.055V10.672l.002.055.003.052.004.051.006.05.006.047.008.047.008.044.01.042.01.041.012.04.012.037.013.036.014.035.015.032.016.033.011.023.012.02.012.02.013.02.012.018.013.018.013.015.013.016.013.014.014.014.013.013.014.012.015.011.014.012.015.01.015.01.015.01.015.008.015.007.016.008.016.007.017.005.018.007.018.005.02.005.02.005.021.003.023.003.023.003.025.002h.106l.025-.002.024-.003.022-.003.021-.003.021-.005.019-.005.019-.005.017-.007.017-.005.016-.007.016-.008.015-.007.015-.008.015-.01.015-.01.015-.01.015-.012.014-.01.014-.013.014-.013.013-.014.013-.014.013-.016.013-.015.013-.018.013-.018.012-.02.012-.02.012-.02.012-.023.016-.033.014-.032.014-.035.013-.036.013-.038.011-.039.01-.041.01-.042.008-.044.008-.047.006-.047.006-.05.004-.051.003-.052.002-.055.001-.06V6.385l-.001-.059-.002-.055-.003-.053-.004-.05-.006-.05-.006-.048-.008-.046-.008-.044-.01-.042-.01-.041-.011-.04-.013-.037-.013-.036-.014-.035-.014-.033-.016-.032-.012-.023-.012-.02-.012-.02-.012-.02-.013-.019-.013-.017-.013-.015-.013-.016-.013-.014-.013-.014-.014-.013-.014-.012-.014-.013-.015-.01-.015-.01-.015-.01-.015-.01-.015-.009-.015-.008-.016-.006-.016-.007-.017-.007-.017-.005-.019-.006-.019-.004-.021-.005-.021-.003-.022-.003-.024-.003-.025-.002h-.08z" fill="#003bae"/><path d="M42.493 4.928v-1.16h4.522v1.16h-1.684v8.3h-1.154v-8.3h-1.684z" fill="#fff" fill-rule="nonzero"/><path d="M47.059 3.238l.044.005.043.01.042.011.041.017.04.02.038.021.036.026.033.03.032.03.028.034.026.035.022.038.02.04.016.04.012.043.009.044.006.043.002.044v1.159l-.002.043-.006.044-.009.043-.012.042-.016.042-.02.039-.022.038-.026.035-.028.035-.032.031-.033.028-.036.026-.038.022-.04.02-.041.016-.042.012-.043.009-.044.005-.044.003h-1.151v7.766l-.002.045-.005.043-.009.044-.013.042-.016.04-.019.04-.023.039-.025.035-.029.034-.031.03-.034.03-.036.026-.037.022-.04.019-.041.017-.042.012-.043.009-.044.005-.044.003h-1.154l-.044-.003-.044-.005-.043-.01-.042-.011-.041-.017-.04-.02-.038-.021-.036-.026-.033-.03-.031-.03-.029-.034-.025-.035-.023-.038-.019-.04-.016-.04-.013-.043-.009-.044-.005-.043-.002-.045V5.461h-1.151l-.044-.003-.044-.005-.043-.01-.043-.011-.041-.016-.039-.02-.038-.022-.036-.026-.034-.028-.031-.031-.028-.035-.026-.035-.022-.038-.02-.04-.016-.04-.012-.043-.009-.043-.006-.044-.002-.043v-1.16l.002-.043.006-.043.009-.044.012-.042.016-.042.02-.039.022-.038.026-.035.028-.034.031-.03.034-.03.036-.026.038-.022.039-.019.041-.017.043-.012.043-.009.044-.005.044-.003h4.522l.044.003zm-4.566.53v1.16h1.684v8.3h1.154v-8.3h1.684v-1.16h-4.522z" fill="#003bae"/><path d="M48.573 13.227V3.77h4.211v1.159h-3.057V7.54h2.376v1.158h-2.376v3.371h3.057v1.158h-4.211z" fill="#fff" fill-rule="nonzero"/><path d="M52.828 3.238l.044.005.043.01.042.011.041.017.04.02.038.021.036.026.033.03.031.03.029.034.025.035.023.038.019.04.016.04.013.043.009.044.005.043.002.044v1.159l-.002.043-.005.044-.009.043-.013.042-.016.042-.019.039-.023.038-.025.035-.029.035-.031.031-.033.028-.036.026-.038.022-.04.02-.041.016-.042.012-.043.009-.044.005-.044.003H50.26v1.546h1.887l.044.006.043.01.042.013.041.015.04.02.038.023.036.025.033.028.032.031.028.034.026.036.022.037.02.04.016.042.012.042.009.043.006.043.002.045v1.158l-.002.044-.006.044-.009.043-.012.043-.016.04-.02.04-.022.038-.026.036-.028.033-.032.031-.033.03-.036.025-.038.022-.04.02-.041.015-.042.013-.043.01-.044.005H50.26v2.306h2.524l.044.003.044.004.043.01.042.012.041.016.04.02.038.022.036.026.033.028.031.031.029.034.025.036.023.037.019.04.016.042.013.042.009.042.005.045.002.043v1.158l-.002.045-.005.043-.009.044-.013.042-.016.04-.019.04-.023.039-.025.035-.029.034-.031.03-.033.03-.036.026-.038.022-.04.019-.041.017-.042.012-.043.009-.044.005-.044.003h-4.211l-.044-.003-.044-.005-.043-.01-.042-.011-.041-.017-.04-.02-.038-.021-.036-.026-.033-.03-.032-.03-.028-.034-.026-.035-.022-.038-.02-.04-.016-.04-.012-.043-.009-.044-.006-.043-.002-.045V3.77l.002-.044.006-.043.009-.044.012-.042.016-.042.02-.039.022-.038.026-.035.028-.034.032-.03.033-.03.036-.026.038-.022.04-.019.041-.017.042-.012.043-.009.044-.005.044-.003h4.211l.044.003zm-4.255.53v9.46h4.211v-1.159h-3.057V8.698h2.376V7.54h-2.376V4.928h3.057v-1.16h-4.211z" fill="#003bae"/></g><defs><linearGradient id="_Linear1" x1="0" y1="0" x2="1" y2="0" gradientUnits="userSpaceOnUse" gradientTransform="matrix(58 0 0 15 1 8.5)"><stop offset="0" stop-color="#6b8dc4"/><stop offset=".43" stop-color="#87a3cf"/><stop offset=".89" stop-color="#d5dfee"/><stop offset=".96" stop-color="#c5d3e8"/><stop offset=".98" stop-color="#9bb3d7"/><stop offset="1" stop-color="#6b8dc4"/></linearGradient><linearGradient id="_Linear2" x1="0" y1="0" x2="1" y2="0" gradientUnits="userSpaceOnUse" gradientTransform="matrix(0 -2 2.66667 0 3 5)"><stop offset="0" stop-color="#b3c4e0"/><stop offset="1" stop-color="#a1b7d9"/></linearGradient></defs></svg>