<svg width="60" height="17" xmlns="http://www.w3.org/2000/svg" fill-rule="evenodd" clip-rule="evenodd" stroke-linejoin="round" stroke-miterlimit="2"><path d="M60 1v15l-1 1H1l-1-1V1l1-1h58l1 1zM1 1v15h58V1H1z" fill="#003bae"/><path fill="url(#_Linear1)" d="M1 1h58v15H1z"/><path d="M59 16H1V1h58v15zM2 2v13h56V2H2z" fill="#6e90c5" fill-opacity=".27"/><path d="M2 2h3v1H3v3H2V2z" fill="url(#_Linear2)"/><path d="M2 2h2v1H3v2H2V2z" fill="#fff"/><g><path d="M10 3v11h8V5l-2-2h-6z" fill="#fff"/><path d="M12.042 6.377l4.062-1.223 1.223 4.063-1.762-.947c-1 3.367-3.607 4.89-7.312 5.153 3.21-1.338 5.448-3.173 5.55-6.1l-1.761-.946z" fill="#2c68cc"/></g><g><path d="M25.186 13.227V3.77h2.25c.485 0 .904.116 1.258.348.323.206.577.493.761.862.231.437.346.974.346 1.608 0 .635-.115 1.171-.346 1.609a2.22 2.22 0 01-.761.875c-.1.06-.204.112-.312.154.177.292.339.584.485.876.623 1.201.934 2.243.934 3.126h-1.153c0-.728-.254-1.582-.762-2.56a14.51 14.51 0 00-.738-1.261h-.808v3.821h-1.154zm1.154-4.98h1.096c.223 0 .419-.056.589-.167.169-.112.303-.266.403-.463.147-.275.22-.618.22-1.03 0-.411-.073-.755-.22-1.03a1.179 1.179 0 00-.403-.462 1.048 1.048 0 00-.589-.167H26.34v3.319z" fill="#fff" fill-rule="nonzero"/><path d="M27.543 3.238l.105.004.104.008.103.012.102.015.101.018.097.02.052.014.049.012.049.015.048.014.048.016.048.017.047.018.047.017.046.02.046.02.045.02.045.023.045.022.044.025.044.023.043.026.043.027.041.025.071.047.073.053.071.054.07.058.067.06.065.062.063.063.061.067.059.07.056.07.054.073.052.075.05.077.047.08.045.08.04.075.024.047.025.05.024.052.023.052.022.053.022.052.021.054.019.054.019.054.018.056.017.055.017.056.015.056.015.058.013.057.013.058.012.058.012.059.01.06.01.061.017.12.014.122.01.125.008.126.004.129.002.13-.002.13-.004.129-.008.127-.01.124-.014.124-.017.118-.01.062-.01.06-.012.059-.012.058-.013.058-.013.058-.015.057-.015.055-.017.057-.017.055-.018.056-.019.054-.019.054-.021.053-.022.053-.022.052-.023.053-.024.051-.025.05-.025.048-.041.08-.046.08-.048.08-.05.077-.052.076-.054.072-.056.072-.058.069-.06.067-.062.064-.065.063-.066.06-.068.058-.071.055-.016.012.05.092.061.114.06.114.056.112.058.112.058.116.056.115.055.115.052.114.051.113.049.111.047.112.045.11.044.11.041.109.04.108.038.108.036.107.034.106.033.105.03.105.029.105.027.103.024.103.023.102.021.101.019.1.018.1.015.1.013.1.011.098.009.098.007.096.006.097.003.094.001.09-.002.044-.005.044-.008.044-.013.043-.015.041-.02.04-.022.038-.026.037-.028.033-.031.033-.034.028-.036.026-.038.023-.04.02-.041.015-.043.014-.043.009-.044.005-.045.003h-1.153l-.044-.003-.044-.005-.042-.01-.042-.011-.041-.016-.04-.019-.037-.022-.036-.026-.034-.028-.031-.031-.028-.034-.026-.034-.022-.038-.02-.04-.016-.04-.013-.042-.01-.042-.005-.044-.003-.043v-.064l-.002-.058-.003-.059-.005-.06-.005-.061-.008-.063-.008-.063-.01-.064-.011-.066-.012-.066-.014-.066-.015-.069-.017-.069-.018-.07-.019-.071-.021-.073-.022-.072-.024-.074-.025-.076-.027-.076-.028-.077-.03-.077-.031-.079-.032-.079-.034-.08-.036-.082-.037-.082-.038-.084-.04-.084-.042-.085-.043-.085-.044-.087-.077-.147-.08-.148-.083-.148-.087-.152-.091-.153-.095-.153-.026-.044v3.26l-.002.044-.006.043-.009.044-.012.042-.016.04-.02.04-.022.039-.026.035-.028.034-.032.03-.033.03-.036.026-.038.022-.04.019-.041.017-.042.012-.043.009-.044.005-.044.003h-1.154l-.044-.003-.043-.005-.043-.01-.043-.011-.041-.017-.039-.02-.038-.021-.036-.026-.034-.03-.031-.03-.028-.034-.026-.035-.023-.038-.019-.04-.016-.04-.013-.043-.009-.044-.005-.043-.002-.045V3.77l.002-.044.005-.043.009-.044.013-.042.016-.042.019-.039.023-.038.026-.035.028-.034.031-.03.034-.03.036-.026.038-.022.039-.019.041-.017.043-.012.043-.009.043-.005.044-.003h2.254l.103.003zm-2.357.53v9.46h1.154V9.405h.808l.105.163.101.161.098.161.094.158.09.157.087.155.084.154.079.151.047.092.045.091.044.09.043.089.041.088.039.088.038.087.036.086.035.086.034.084.032.084.03.084.029.082.028.082.026.081.024.08.023.08.022.079.02.078.019.078.017.077.015.076.014.075.013.074.011.074.01.074.008.072.007.071.005.072.004.07.002.07.001.067h1.153l-.001-.082-.002-.085-.005-.085-.006-.086-.008-.087-.01-.088-.012-.09-.014-.088-.016-.092-.017-.091-.019-.093-.021-.093-.023-.095-.024-.095-.027-.096-.028-.098-.03-.098-.032-.1-.034-.099-.036-.101-.037-.102-.039-.103-.041-.103-.043-.105-.045-.106-.047-.106-.048-.108-.05-.108-.052-.11-.054-.11-.056-.112-.057-.111-.056-.11-.057-.109-.058-.11-.06-.108-.061-.11-.063-.11-.064-.11-.066-.109.041-.017.039-.016.04-.018.039-.02.039-.02.038-.02.038-.02.038-.023.058-.04.057-.041.056-.044.054-.045.052-.048.052-.05.049-.052.049-.053.047-.056.045-.057.044-.06.043-.062.041-.063.039-.066.039-.068.036-.07.022-.042.02-.04.02-.043.019-.044.019-.043.018-.045.017-.045.017-.045.016-.046.015-.046.014-.048.014-.047.013-.049.013-.048.012-.05.011-.049.01-.051.01-.051.009-.052.009-.052.015-.106.012-.11.009-.11.007-.114.004-.115.001-.118-.001-.118-.004-.115-.007-.114-.009-.11-.012-.11-.015-.105-.009-.053-.009-.051-.01-.051-.01-.05-.011-.05-.012-.05-.013-.049-.013-.048-.014-.048-.014-.047-.015-.047-.016-.045-.017-.046-.017-.045-.018-.044-.019-.044-.019-.042-.02-.043-.02-.042-.022-.041-.035-.068-.037-.067-.039-.064-.04-.062-.042-.062-.044-.058-.045-.056-.047-.055-.048-.054-.05-.05-.052-.05-.053-.047-.055-.046-.056-.042-.058-.042-.06-.04-.034-.02-.033-.022-.034-.02-.035-.019-.035-.019-.035-.018-.036-.016-.036-.017-.036-.017-.037-.014-.037-.015-.038-.014-.038-.014-.038-.012-.039-.012-.039-.011-.039-.01-.04-.01-.081-.018-.083-.015-.084-.012-.085-.01-.087-.007-.089-.003-.09-.002h-2.25zm2.292 1.16l.041.002.04.003.039.005.039.005.039.008.038.008.037.01.036.01.036.013.035.015.035.014.034.017.033.018.033.019.032.02.03.02.029.021.029.022.028.024.027.024.027.026.026.027.026.029.025.029.024.031.024.032.023.033.022.034.022.036.021.037.02.038.027.052.025.054.023.055.021.057.02.06.018.06.016.061.015.064.013.065.011.067.009.068.008.07.006.072.004.074.003.074.001.076-.001.077-.003.075-.004.072-.006.072-.008.07-.009.068-.011.067-.013.066-.015.063-.016.062-.018.06-.02.06-.021.056-.023.056-.025.053-.027.053-.019.037-.02.035-.02.035-.022.033-.022.033-.024.03-.024.031-.024.03-.026.028-.027.028-.027.026-.028.025-.029.025-.03.023-.03.022-.031.022-.032.02-.033.02-.033.017-.034.016-.035.016-.035.013-.036.013-.036.01-.037.01-.038.009-.039.007-.039.006-.039.004-.04.004-.041.002H26.34v-3.32H27.478zm-.604.533v2.253H27.461l.023-.001.023-.003.021-.002.021-.003.019-.003.019-.005.018-.004.017-.006.017-.006.016-.006.016-.007.015-.007.015-.009.015-.007.016-.01.015-.012.016-.01.016-.013.015-.013.014-.013.015-.014.014-.015.013-.015.014-.016.013-.017.013-.017.013-.02.013-.018.012-.022.013-.022.014-.026.02-.04.016-.035.016-.038.015-.04.014-.04.012-.044.012-.045.011-.048.01-.049.009-.051.007-.055.006-.055.005-.058.003-.06.003-.062v-.129l-.003-.062-.003-.06-.005-.058-.006-.056-.007-.053-.009-.053-.01-.049-.011-.047-.012-.045-.012-.044-.014-.041-.015-.04-.016-.037-.016-.036-.019-.037-.014-.025-.014-.025-.014-.023-.014-.021-.014-.02-.014-.02-.014-.016-.013-.017-.014-.014-.013-.015-.014-.013-.013-.012-.013-.01-.014-.012-.013-.009-.016-.01-.019-.012-.015-.009-.015-.008-.015-.008-.016-.006-.016-.007-.017-.006-.017-.005-.018-.005-.019-.004-.019-.003-.021-.004-.021-.002-.023-.002-.023-.001H26.874z" fill="#003bae"/><path d="M31.267 13.227V3.77h4.211v1.159H32.42V7.54h2.377v1.158H32.42v3.371h3.058v1.158h-4.211z" fill="#fff" fill-rule="nonzero"/><path d="M35.522 3.238l.044.005.043.01.042.011.041.017.04.02.038.021.035.026.034.03.031.03.029.034.025.035.023.038.019.04.016.04.013.043.009.044.005.043.002.044v1.159l-.002.043-.005.044-.009.043-.013.042-.016.042-.019.039-.023.038-.025.035-.029.035-.031.031-.034.028-.035.026-.038.022-.04.02-.041.016-.042.012-.043.009-.044.005-.044.003h-2.524v1.546h1.887l.044.006.043.01.042.013.041.015.04.02.038.023.036.025.033.028.031.031.029.034.026.036.022.037.02.04.016.042.012.042.009.043.006.043.001.045v1.158l-.001.044-.006.044-.009.043-.012.043-.016.04-.02.04-.022.038-.026.036-.029.033-.031.031-.033.03-.036.025-.038.022-.04.02-.041.015-.042.013-.043.01-.044.005h-1.887v2.306h2.524l.044.003.044.004.043.01.042.012.041.016.04.02.038.022.035.026.034.028.031.031.029.034.025.036.023.037.019.04.016.042.013.042.009.042.005.045.002.043v1.158l-.002.045-.005.043-.009.044-.013.042-.016.04-.019.04-.023.039-.025.035-.029.034-.031.03-.034.03-.035.026-.038.022-.04.019-.041.017-.042.012-.043.009-.044.005-.044.003h-4.211l-.044-.003-.044-.005-.043-.01-.043-.011-.041-.017-.039-.02-.038-.021-.036-.026-.034-.03-.031-.03-.028-.034-.026-.035-.022-.038-.02-.04-.016-.04-.012-.043-.009-.044-.006-.043-.002-.045V3.77l.002-.044.006-.043.009-.044.012-.042.016-.042.02-.039.022-.038.026-.035.028-.034.031-.03.034-.03.036-.026.038-.022.039-.019.041-.017.043-.012.043-.009.044-.005.044-.003h4.211l.044.003zm-4.255.53v9.46h4.211v-1.159H32.42V8.698h2.377V7.54H32.42V4.928h3.058v-1.16h-4.211z" fill="#003bae"/><path d="M36.885 13.227V3.77h2.089c.484 0 .903.116 1.257.348.323.206.577.493.762.862.23.437.346.974.346 1.608 0 .635-.116 1.171-.346 1.609-.193.378-.446.669-.762.875-.354.232-.773.343-1.257.335h-.935v3.821h-1.154zm1.154-4.98h.935c.223 0 .419-.056.588-.167a1.18 1.18 0 00.404-.463c.146-.275.219-.618.219-1.03 0-.411-.073-.755-.219-1.03a1.18 1.18 0 00-.404-.462 1.043 1.043 0 00-.588-.167h-.935v3.319z" fill="#fff" fill-rule="nonzero"/><path d="M39.08 3.238l.105.004.105.008.103.012.102.015.101.018.097.02.052.014.049.012.048.015.048.014.048.016.048.017.047.018.047.017.046.02.046.02.046.02.045.023.044.022.045.025.043.023.044.026.042.027.041.025.071.047.073.053.072.054.069.058.068.06.065.062.063.063.061.067.058.07.057.07.054.073.052.075.049.077.048.08.045.08.039.075.024.047.025.05.024.052.024.052.022.053.021.052.021.054.02.054.019.054.018.056.017.055.016.056.015.056.015.058.014.057.013.058.012.058.011.059.011.06.01.061.016.12.014.122.011.125.007.126.005.129.001.13-.001.13-.005.129-.007.127-.011.124-.014.124-.016.118-.01.062-.011.06-.011.059-.012.058-.013.058-.014.058-.015.057-.015.055-.016.057-.017.055-.018.056-.019.054-.02.054-.021.053-.021.053-.022.052-.024.053-.024.051-.025.05-.024.048-.042.08-.046.08-.047.08-.05.077-.052.076-.054.072-.056.072-.059.069-.06.067-.062.064-.064.063-.067.06-.068.058-.07.055-.072.052-.072.05-.044.027-.043.027-.043.026-.044.024-.045.024-.045.022-.045.022-.046.02-.046.02-.047.02-.047.018-.048.017-.047.017-.049.015-.048.015-.049.013-.05.012-.049.012-.05.01-.051.01-.05.01-.053.009-.101.013-.103.009-.105.007-.106.003h-.499v3.288l-.001.045-.006.043-.009.044-.012.042-.016.04-.02.04-.022.039-.026.035-.028.034-.032.03-.033.03-.036.026-.038.022-.04.019-.041.017-.042.012-.043.009-.044.005-.044.003h-1.154l-.044-.003-.043-.005-.044-.01-.042-.011-.041-.017-.039-.02-.038-.021-.036-.026-.034-.03-.031-.03-.029-.034-.025-.035-.023-.038-.019-.04-.016-.04-.013-.043-.009-.044-.005-.043-.002-.045V3.77l.002-.044.005-.043.009-.044.013-.042.016-.042.019-.039.023-.038.025-.035.029-.034.031-.03.034-.03.036-.026.038-.022.039-.019.041-.017.042-.012.044-.009.043-.005.044-.003h2.093l.102.003zm-2.195.53v9.46h1.154V9.405H39.064l.088-.002.087-.006.086-.009.084-.011.041-.006.041-.007.041-.008.04-.01.04-.008.039-.01.04-.011.038-.011.039-.013.038-.013.037-.013.037-.015.037-.014.037-.017.036-.016.035-.018.036-.017.034-.018.035-.02.034-.02.034-.02.033-.022.059-.04.057-.041.055-.044.054-.045.053-.048.051-.05.05-.052.048-.053.047-.056.045-.057.044-.06.043-.062.041-.063.04-.066.038-.068.037-.07.021-.042.021-.04.02-.043.019-.044.018-.043.018-.045.018-.045.016-.045.016-.046.015-.046.015-.048.014-.047.013-.049.012-.048.012-.05.011-.049.011-.051.01-.051.009-.052.008-.052.015-.106.012-.11.01-.11.006-.114.004-.115.002-.118-.002-.118-.004-.115-.006-.114-.01-.11-.012-.11-.015-.105-.008-.053-.009-.051-.01-.051-.011-.05-.011-.05-.012-.05-.012-.049-.013-.048-.014-.048-.015-.047-.015-.047-.016-.045-.016-.046-.018-.045-.018-.044-.018-.044-.019-.042-.02-.043-.021-.042-.021-.041-.036-.068-.037-.067-.038-.064-.041-.062-.042-.062-.043-.058-.045-.056-.047-.055-.049-.054-.05-.05-.051-.05-.053-.047-.055-.046-.057-.042-.058-.042-.06-.04-.033-.02-.034-.022-.034-.02-.035-.019-.034-.019-.036-.018-.035-.016-.036-.017-.037-.017-.037-.014-.037-.015-.037-.014-.038-.014-.039-.012-.038-.012-.04-.011-.039-.01-.04-.01-.081-.018-.082-.015-.084-.012-.086-.01-.087-.007-.088-.003-.09-.002h-2.089zm2.13 1.16l.041.002.04.003.04.005.039.005.038.008.038.008.037.01.037.01.035.013.036.015.034.014.034.017.033.018.033.019.032.02.03.02.029.021.029.022.028.024.028.024.026.026.027.027.025.029.025.029.024.031.024.032.023.033.022.034.022.036.021.037.021.038.026.052.025.054.023.055.022.057.019.06.018.06.017.061.014.064.013.065.011.067.01.068.007.07.006.072.005.074.002.074.001.076-.001.077-.002.075-.005.072-.006.072-.007.07-.01.068-.011.067-.013.066-.014.063-.017.062-.018.06-.019.06-.022.056-.023.056-.025.053-.026.053-.019.037-.02.035-.021.035-.022.033-.022.033-.023.03-.024.031-.025.03-.026.028-.026.028-.027.026-.029.025-.028.025-.03.023-.031.022-.031.022-.032.02-.033.02-.033.017-.034.016-.034.016-.036.013-.035.013-.037.01-.037.01-.038.009-.038.007-.039.006-.04.004-.04.004-.041.002H38.039v-3.32H39.015zm-.443.533v2.253H38.998l.024-.001.022-.003.021-.002.021-.003.019-.003.019-.005.018-.004.017-.006.017-.006.016-.006.016-.007.015-.007.016-.009.015-.007.015-.01.016-.012.016-.01.015-.013.015-.013.015-.013.014-.014.014-.015.014-.015.013-.016.014-.017.013-.017.013-.02.012-.018.013-.022.012-.022.014-.026.02-.04.017-.035.015-.038.015-.04.014-.04.013-.044.012-.045.011-.048.009-.049.009-.051.007-.055.006-.055.005-.058.004-.06.002-.062.001-.065-.001-.064-.002-.062-.004-.06-.005-.058-.006-.056-.007-.053-.009-.053-.009-.049-.011-.047-.012-.045-.013-.044-.014-.041-.015-.04-.015-.037-.017-.036-.019-.037-.014-.025-.014-.025-.014-.023-.014-.021-.013-.02-.014-.02-.014-.016-.014-.017-.014-.014-.013-.015-.013-.013-.014-.012-.013-.01-.013-.012-.013-.009-.017-.01-.018-.012-.015-.009-.016-.008-.015-.008-.016-.006-.016-.007-.017-.006-.017-.005-.018-.005-.019-.004-.019-.003-.021-.004-.021-.002-.022-.002-.024-.001H38.572z" fill="#003bae"/><path d="M42.804 13.227V3.77h1.154v8.3h3.15v1.158h-4.304z" fill="#fff" fill-rule="nonzero"/><path d="M44.002 3.238l.044.005.043.01.042.011.041.017.04.02.038.021.035.026.034.03.031.03.029.034.025.035.023.038.019.04.016.04.013.043.009.044.005.043.002.044v7.767h2.617l.044.003.043.004.043.01.043.012.041.016.039.02.038.022.036.026.034.028.031.031.028.034.026.036.023.037.019.04.016.042.013.042.009.042.005.045.002.043v1.158l-.002.045-.005.043-.009.044-.013.042-.016.04-.019.04-.023.039-.026.035-.028.034-.031.03-.034.03-.036.026-.038.022-.039.019-.041.017-.043.012-.043.009-.043.005-.044.003h-4.304l-.044-.003-.044-.005-.043-.01-.042-.011-.041-.017-.04-.02-.038-.021-.036-.026-.033-.03-.031-.03-.029-.034-.025-.035-.023-.038-.019-.04-.016-.04-.013-.043-.009-.044-.005-.043-.002-.045V3.77l.002-.044.005-.043.009-.044.013-.042.016-.042.019-.039.023-.038.025-.035.029-.034.031-.03.033-.03.036-.026.038-.022.04-.019.041-.017.042-.012.043-.009.044-.005.044-.003h1.154l.044.003zm-1.198.53v9.46h4.304v-1.159h-3.15v-8.3h-1.154z" fill="#003bae"/><path d="M47.261 4.335V3.77h1.154v.566c0 .867.204 1.746.611 2.638l.497 1.081.496-1.08c.407-.893.611-1.772.611-2.639V3.77h1.154v.566c0 1.039-.246 2.094-.738 3.166l-.947 2.072v3.654h-1.153V9.573L48 7.501c-.493-1.072-.739-2.127-.739-3.166z" fill="#fff" fill-rule="nonzero"/><path d="M48.459 3.238l.044.005.043.01.042.011.041.017.04.02.038.021.036.026.033.03.031.03.029.034.025.035.023.038.019.04.016.04.013.043.009.044.006.043.001.044v.564l.001.076.002.073.002.074.004.074.005.073.006.074.007.075.008.073.009.075.011.075.011.074.012.075.014.075.015.075.016.076.016.074.018.076.02.076.02.075.021.077.023.075.023.076.025.077.026.076.027.077.028.077.03.077.03.078.032.077.033.078.034.078.035.078.011.024.01-.024.036-.078.034-.078.032-.078.032-.077.031-.078.029-.077.028-.077.027-.077.026-.076.025-.077.023-.076.023-.075.021-.077.021-.075.019-.076.018-.076.017-.074.015-.076.015-.075.014-.075.012-.075.012-.074.01-.075.009-.075.008-.073.007-.075.006-.074.005-.073.004-.074.003-.074.001-.073.001-.076v-.564l.002-.044.005-.043.009-.044.013-.042.016-.042.019-.039.023-.038.025-.035.029-.034.031-.03.034-.03.035-.026.038-.022.04-.019.041-.017.042-.012.043-.009.044-.005.044-.003h1.154l.044.003.044.005.043.01.042.011.041.017.04.02.038.021.036.026.033.03.031.03.029.034.025.035.023.038.019.04.016.04.013.043.009.044.005.043.002.044V4.44l-.003.106-.004.105-.005.106-.007.106-.009.105-.01.106-.012.106-.013.106-.014.104-.017.106-.018.106-.019.106-.021.106-.022.106-.024.106-.026.106-.027.106-.028.106-.03.106-.032.107-.033.106-.034.106-.037.106-.037.106-.039.106-.041.106-.042.106-.043.106-.045.106-.047.107-.047.104-.898 1.967v3.538l-.002.045-.005.043-.01.044-.012.042-.016.04-.019.04-.023.039-.026.035-.028.034-.031.03-.034.03-.036.026-.038.022-.039.019-.041.017-.043.012-.043.009-.043.005-.045.003h-1.153l-.044-.003-.044-.005-.043-.01-.042-.011-.042-.017-.039-.02-.038-.021-.036-.026-.033-.03-.032-.03-.028-.034-.026-.035-.022-.038-.02-.04-.016-.04-.012-.043-.009-.044-.006-.043-.002-.045V9.69l-.898-1.967-.047-.104-.047-.107-.045-.106-.043-.106-.042-.106-.041-.106-.039-.106-.037-.106-.036-.106-.035-.106-.033-.106-.031-.107-.031-.106-.028-.106-.027-.106-.026-.106-.023-.106-.023-.106-.021-.106-.019-.106-.018-.106-.016-.106-.015-.104-.013-.106-.012-.106-.01-.106-.009-.105-.007-.106-.005-.106-.004-.105-.002-.106-.001-.103V3.77l.002-.044.005-.043.009-.044.013-.042.016-.042.019-.039.023-.038.025-.035.029-.034.031-.03.034-.03.036-.026.037-.022.04-.019.041-.017.042-.012.043-.009.044-.005.044-.003h1.154l.044.003zm-1.198.53v.567l.001.097.002.098.004.097.005.099.006.097.008.098.01.098.01.098.013.098.013.098.016.099.016.099.018.098.02.098.021.1.022.099.024.098.025.1.027.098.028.1.029.099.031.1.033.1.034.099.035.1.037.1.038.1.04.1.041.1.042.1.044.1.046.1.946 2.073v3.654h1.153V9.573l.947-2.072.045-.1.044-.101.042-.1.042-.1.039-.1.038-.1.037-.1.036-.1.033-.1.033-.1.031-.099.029-.1.029-.099.026-.099.026-.1.023-.097.023-.1.021-.099.019-.098.018-.098.017-.1.015-.098.014-.098.012-.098.011-.098.009-.098.008-.098.006-.097.005-.099.004-.097.002-.098.001-.097V3.77H50.63V4.417l-.002.081-.003.081-.004.082-.006.081-.006.082-.008.082-.009.082-.01.081-.012.083-.012.081-.014.083-.015.082-.016.082-.017.082-.019.083-.019.082-.021.083-.022.082-.024.083-.024.082-.026.084-.027.083-.028.082-.029.084-.03.082-.032.084-.033.084-.034.083-.035.083-.037.084-.037.083-.496 1.081-.497-1.08-.037-.084-.037-.084-.035-.083-.034-.083-.033-.084-.031-.084-.031-.082-.029-.084-.028-.082-.027-.083-.026-.084-.024-.082-.023-.083-.023-.082-.02-.083-.02-.082-.019-.083-.017-.082-.016-.082-.015-.082-.014-.083-.012-.081-.012-.083-.01-.081-.009-.082-.007-.082-.007-.082-.005-.081-.005-.082-.003-.08-.001-.082-.001-.082V3.77h-1.154z" fill="#003bae"/></g><defs><linearGradient id="_Linear1" x1="0" y1="0" x2="1" y2="0" gradientUnits="userSpaceOnUse" gradientTransform="matrix(58 0 0 15 1 8.5)"><stop offset="0" stop-color="#6b8dc4"/><stop offset=".43" stop-color="#87a3cf"/><stop offset=".89" stop-color="#d5dfee"/><stop offset=".96" stop-color="#c5d3e8"/><stop offset=".98" stop-color="#9bb3d7"/><stop offset="1" stop-color="#6b8dc4"/></linearGradient><linearGradient id="_Linear2" x1="0" y1="0" x2="1" y2="0" gradientUnits="userSpaceOnUse" gradientTransform="matrix(0 -2 2.66667 0 3 5)"><stop offset="0" stop-color="#b3c4e0"/><stop offset="1" stop-color="#a1b7d9"/></linearGradient></defs></svg>