<svg width="60" height="17" xmlns="http://www.w3.org/2000/svg" fill-rule="evenodd" clip-rule="evenodd" stroke-linejoin="round" stroke-miterlimit="2"><path d="M60 1v15l-1 1H1l-1-1V1l1-1h58l1 1zM1 1v15h58V1H1z" fill="#003bae"/><path fill="url(#_Linear1)" d="M1 1h58v15H1z"/><path d="M59 16H1V1h58v15zM2 2v13h56V2H2z" fill="#6e90c5" fill-opacity=".27"/><path d="M2 2h3v1H3v3H2V2z" fill="url(#_Linear2)"/><path d="M2 2h2v1H3v2H2V2z" fill="#fff"/><g><path fill="#fff" d="M10 6h5v8h-5z"/><path fill="#2c68cc" d="M11 7h3v2h-3zM11 12h1v1h-1zM13 10h1v1h-1zM13 12h1v1h-1zM11 10h1v1h-1z"/><path fill="#c9e2ff" d="M10 3h1v1h-1zM11 4h1v1h-1zM13 3h1v2h-1zM15 4h1v1h-1zM16 3h1v1h-1z"/></g><g><path d="M24.348 13.227V3.77h2.088c.485 0 .904.116 1.258.348.323.206.577.493.761.862.231.437.346.974.346 1.608 0 .635-.115 1.171-.346 1.609a2.22 2.22 0 01-.761.875c-.354.232-.773.343-1.258.335h-.934v3.821h-1.154zm1.154-4.98h.934c.223 0 .419-.056.589-.167.169-.112.303-.266.403-.463.147-.275.22-.618.22-1.03 0-.411-.073-.755-.22-1.03a1.179 1.179 0 00-.403-.462 1.048 1.048 0 00-.589-.167h-.934v3.319z" fill="#fff" fill-rule="nonzero"/><path d="M26.543 3.238l.105.004.104.008.103.012.102.015.101.018.097.02.052.014.049.012.049.015.048.014.048.016.048.017.047.018.047.017.046.02.046.02.045.02.045.023.045.022.044.025.044.023.043.026.043.027.041.025.071.047.073.053.071.054.07.058.067.06.065.062.063.063.061.067.059.07.056.07.054.073.052.075.05.077.047.08.045.08.04.075.024.047.025.05.024.052.023.052.022.053.022.052.021.054.019.054.019.054.018.056.017.055.017.056.015.056.015.058.013.057.013.058.012.058.012.059.01.06.01.061.017.12.014.122.01.125.008.126.004.129.002.13-.002.13-.004.129-.008.127-.01.124-.014.124-.017.118-.01.062-.01.06-.012.059-.012.058-.013.058-.013.058-.015.057-.015.055-.017.057-.017.055-.018.056-.019.054-.019.054-.021.053-.022.053-.022.052-.023.053-.024.051-.025.05-.025.048-.041.08-.046.08-.048.08-.05.077-.052.076-.054.072-.056.072-.058.069-.06.067-.062.064-.065.063-.066.06-.068.058-.071.055-.072.052-.072.05-.043.027-.043.027-.044.026-.044.024-.044.024-.045.022-.046.022-.045.02-.047.02-.046.02-.047.018-.048.017-.048.017-.048.015-.049.015-.049.013-.049.012-.05.012-.05.01-.05.01-.051.01-.053.009-.1.013-.104.009-.105.007-.105.003h-.499v3.288l-.002.045-.005.043-.009.044-.013.042-.016.04-.019.04-.023.039-.025.035-.029.034-.031.03-.034.03-.036.026-.037.022-.04.019-.041.017-.042.012-.044.009-.043.005-.044.003h-1.154l-.044-.003-.044-.005-.043-.01-.042-.011-.041-.017-.04-.02-.038-.021-.036-.026-.033-.03-.031-.03-.029-.034-.026-.035-.022-.038-.019-.04-.016-.04-.013-.043-.009-.044-.006-.043-.001-.045V3.77l.001-.044.006-.043.009-.044.013-.042.016-.042.019-.039.022-.038.026-.035.029-.034.031-.03.033-.03.036-.026.038-.022.04-.019.041-.017.042-.012.043-.009.044-.005.044-.003h2.092l.103.003zm-2.195.53v9.46h1.154V9.405h1.024l.089-.002.087-.006.085-.009.084-.011.042-.006.041-.007.04-.008.041-.01.04-.008.039-.01.039-.011.039-.011.038-.013.038-.013.038-.013.037-.015.037-.014.036-.017.036-.016.036-.018.035-.017.035-.018.035-.02.034-.02.033-.02.034-.022.058-.04.057-.041.056-.044.054-.045.052-.048.052-.05.049-.052.049-.053.047-.056.045-.057.044-.06.043-.062.041-.063.039-.066.039-.068.036-.07.022-.042.02-.04.02-.043.019-.044.019-.043.018-.045.017-.045.017-.045.016-.046.015-.046.014-.048.014-.047.013-.049.013-.048.012-.05.011-.049.01-.051.01-.051.009-.052.009-.052.015-.106.012-.11.009-.11.007-.114.004-.115.001-.118-.001-.118-.004-.115-.007-.114-.009-.11-.012-.11-.015-.105-.009-.053-.009-.051-.01-.051-.01-.05-.011-.05-.012-.05-.013-.049-.013-.048-.014-.048-.014-.047-.015-.047-.016-.045-.017-.046-.017-.045-.018-.044-.019-.044-.019-.042-.02-.043-.02-.042-.022-.041-.035-.068-.037-.067-.039-.064-.04-.062-.042-.062-.044-.058-.045-.056-.047-.055-.048-.054-.05-.05-.052-.05-.053-.047-.055-.046-.056-.042-.058-.042-.06-.04-.034-.02-.033-.022-.034-.02-.035-.019-.035-.019-.035-.018-.036-.016-.036-.017-.036-.017-.037-.014-.037-.015-.038-.014-.038-.014-.038-.012-.039-.012-.039-.011-.039-.01-.04-.01-.081-.018-.083-.015-.084-.012-.085-.01-.087-.007-.089-.003-.09-.002h-2.088zm2.13 1.16l.041.002.04.003.039.005.039.005.039.008.038.008.037.01.036.01.036.013.035.015.035.014.034.017.033.018.033.019.032.02.03.02.029.021.029.022.028.024.027.024.027.026.026.027.026.029.025.029.024.031.024.032.023.033.022.034.022.036.021.037.02.038.027.052.025.054.023.055.021.057.02.06.018.06.016.061.015.064.013.065.011.067.009.068.008.07.006.072.004.074.003.074.001.076-.001.077-.003.075-.004.072-.006.072-.008.07-.009.068-.011.067-.013.066-.015.063-.016.062-.018.06-.02.06-.021.056-.023.056-.025.053-.027.053-.019.037-.02.035-.02.035-.022.033-.022.033-.024.03-.024.031-.024.03-.026.028-.027.028-.027.026-.028.025-.029.025-.03.023-.03.022-.031.022-.032.02-.033.02-.033.017-.034.016-.035.016-.035.013-.036.013-.036.01-.037.01-.038.009-.039.007-.039.006-.039.004-.04.004-.041.002H25.502v-3.32H26.478zm-.443.533v2.253H26.461l.023-.001.023-.003.021-.002.021-.003.019-.003.019-.005.018-.004.017-.006.017-.006.016-.006.016-.007.015-.007.015-.009.015-.007.016-.01.015-.012.016-.01.016-.013.015-.013.014-.013.015-.014.014-.015.013-.015.014-.016.013-.017.013-.017.013-.02.013-.018.012-.022.013-.022.014-.026.02-.04.016-.035.016-.038.015-.04.014-.04.012-.044.012-.045.011-.048.01-.049.009-.051.007-.055.006-.055.005-.058.003-.06.003-.062v-.129l-.003-.062-.003-.06-.005-.058-.006-.056-.007-.053-.009-.053-.01-.049-.011-.047-.012-.045-.012-.044-.014-.041-.015-.04-.016-.037-.016-.036-.019-.037-.014-.025-.014-.025-.014-.023-.014-.021-.014-.02-.014-.02-.014-.016-.013-.017-.014-.014-.013-.015-.014-.013-.013-.012-.013-.01-.014-.012-.013-.009-.016-.01-.019-.012-.015-.009-.015-.008-.015-.008-.016-.006-.016-.007-.017-.006-.017-.005-.018-.005-.019-.004-.019-.003-.021-.004-.021-.002-.023-.002-.023-.001H26.035z" fill="#003bae"/><path d="M29.068 12.638c-.128-.25-.189-.546-.184-.892.005-.345.067-.636.184-.874.117-.215.272-.386.464-.518.224-.143.491-.214.8-.214.309 0 .576.071.8.214.192.132.347.303.464.518.128.25.189.547.184.892-.005.346-.067.637-.184.874a1.463 1.463 0 01-.464.518 1.457 1.457 0 01-.8.214c-.309 0-.576-.071-.8-.214a1.463 1.463 0 01-.464-.518z" fill="#fff" fill-rule="nonzero"/><path d="M30.405 9.608l.073.003.072.006.072.007.071.01.07.013.07.014.069.017.068.02.068.022.066.025.066.027.064.03.063.031.062.035.066.04.056.04.048.036.046.036.045.04.044.039.043.04.042.043.04.044.039.044.038.047.036.047.035.048.034.05.032.05.031.052.034.059.034.07.03.066.027.067.025.068.022.069.021.07.018.07.016.072.013.072.012.073.009.074.008.074.006.075.003.076.002.077-.001.076-.002.076-.003.074-.005.074-.007.072-.008.073-.01.071-.012.07-.014.07-.015.068-.018.068-.019.067-.021.065-.023.066-.025.064-.027.063-.034.07-.036.064-.031.052-.032.05-.034.05-.035.048-.036.047-.038.046-.039.045-.04.044-.042.042-.043.041-.044.04-.045.039-.046.036-.048.036-.056.039-.066.041-.062.035-.063.031-.064.03-.066.027-.066.025-.068.022-.068.019-.069.018-.07.014-.07.012-.071.01-.072.008-.072.006-.073.003-.073.001h-.073l-.073-.004-.072-.006-.072-.008-.071-.01-.07-.012-.07-.014-.069-.018-.068-.02-.067-.021-.067-.025-.065-.027-.065-.03-.063-.031-.061-.035-.067-.041-.056-.039-.047-.036-.047-.036-.045-.04-.044-.039-.043-.04-.042-.043-.04-.044-.039-.045-.038-.046-.036-.047-.035-.048-.034-.05-.032-.05-.031-.052-.034-.06-.034-.07-.03-.065-.027-.067-.024-.068-.023-.069-.02-.07-.018-.07-.016-.072-.014-.072-.012-.073-.009-.074-.008-.074-.005-.075-.004-.076-.001-.077v-.077l.002-.075.003-.074.005-.074.007-.072.009-.073.01-.071.012-.07.013-.07.016-.069.017-.067.019-.067.021-.067.023-.064.025-.064.028-.063.033-.072.036-.062.031-.052.032-.05.034-.05.035-.048.036-.047.038-.047.039-.044.04-.044.042-.042.043-.041.044-.04.045-.039.047-.036.047-.036.056-.04.067-.04.061-.035.063-.031.065-.03.065-.027.067-.025.067-.022.068-.02.069-.017.07-.014.07-.012.071-.01.072-.008.072-.006.073-.003.073-.001h.073zm-.13.533l-.057.002-.055.005-.055.005-.053.008-.053.009-.051.011-.051.012-.049.015-.049.015-.047.018-.047.02-.045.02-.045.023-.043.024-.043.026-.035.026-.035.025-.034.027-.033.028-.032.029-.031.03-.03.031-.03.032-.028.033-.028.033-.027.035-.026.036-.025.037-.024.037-.023.04-.023.039-.021.045-.02.047-.019.047-.017.049-.016.05-.015.053-.014.052-.012.054-.011.055-.009.057-.008.057-.007.06-.006.06-.004.062-.003.062-.002.064v.065l.001.062.003.063.005.06.006.06.007.058.009.058.011.056.012.056.014.053.016.054.017.051.018.051.02.05.022.048.023.047.023.04.023.04.024.036.025.037.026.036.027.036.028.033.028.032.03.033.03.03.031.03.032.029.033.028.034.028.035.025.035.025.043.027.043.023.045.023.045.02.047.02.047.017.049.017.049.014.051.013.051.01.053.01.053.007.055.006.055.004.057.003h.115l.056-.003.056-.004.054-.006.054-.007.052-.01.052-.01.05-.013.05-.014.048-.017.048-.016.046-.02.046-.02.044-.024.044-.023.042-.027.036-.025.034-.025.034-.028.033-.028.032-.03.031-.028.031-.031.029-.033.029-.032.027-.033.027-.036.026-.036.025-.037.024-.036.024-.04.022-.04.021-.044.02-.047.019-.048.018-.05.016-.05.014-.05.014-.053.012-.055.011-.054.009-.057.009-.058.007-.06.005-.06.004-.061.003-.062.002-.065V11.7l-.001-.063-.003-.062-.004-.061-.006-.06-.008-.058-.009-.057-.011-.057-.012-.055-.014-.054-.015-.053-.017-.052-.019-.05-.02-.05-.022-.049-.023-.047-.022-.04-.024-.039-.024-.037-.025-.037-.026-.036-.027-.035-.027-.033-.029-.033-.029-.032-.031-.03-.031-.031-.032-.03-.033-.027-.034-.027-.034-.025-.036-.026-.042-.026-.044-.024-.044-.023-.046-.02-.046-.02-.048-.018-.048-.015-.05-.015-.05-.012-.052-.011-.052-.009-.054-.008-.054-.005-.056-.005-.056-.002-.058-.001h-.057z" fill="#003bae"/><path d="M34.955 13.227V3.77h1.096l1.165 4.993 1.166-4.993h1.096v9.458h-1.154v-1.891c0-1.184.065-2.445.196-3.784.062-.6.108-1.179.139-1.737l-1.062 4.581h-.761l-1.062-4.58c.031.557.077 1.136.139 1.736.131 1.339.196 2.6.196 3.784v1.891h-1.154z" fill="#fff" fill-rule="nonzero"/><path d="M36.096 3.238l.044.005.044.01.043.013.041.016.04.02.039.023.036.026.034.03.031.032.028.034.026.037.022.038.019.041.016.042.012.043.645 2.767.646-2.767.012-.043.016-.042.019-.04.022-.039.026-.037.028-.034.031-.033.034-.029.036-.026.039-.023.04-.02.041-.016.043-.014.044-.009.044-.005.045-.003h1.096l.044.003.044.005.043.01.042.011.041.017.04.02.038.021.035.026.034.03.031.03.029.034.025.035.023.038.019.04.016.04.013.043.009.044.005.043.002.044v9.458l-.002.045-.005.043-.009.044-.013.042-.016.04-.019.04-.023.039-.025.035-.029.034-.031.03-.034.03-.035.026-.038.022-.04.019-.041.017-.042.012-.043.009-.044.005-.044.003h-1.154l-.044-.003-.044-.005-.043-.01-.042-.011-.041-.017-.04-.02-.038-.021-.036-.026-.033-.03-.031-.03-.029-.034-.025-.035-.023-.038-.019-.04-.016-.04-.013-.043-.009-.044-.005-.043-.002-.045v-1.891l.001-.227.002-.217-.021.009-.043.012-.044.01-.044.005-.045.002h-.761l-.045-.002-.044-.005-.044-.01-.043-.012-.021-.01.002.218.001.227v1.891l-.002.045-.005.043-.009.044-.013.042-.016.04-.019.04-.023.039-.025.035-.029.034-.031.03-.034.03-.035.026-.038.022-.04.019-.041.017-.042.012-.043.009-.044.005-.044.003h-1.154l-.044-.003-.044-.005-.043-.01-.042-.011-.041-.017-.04-.02-.038-.021-.035-.026-.034-.03-.031-.03-.029-.034-.025-.035-.023-.038-.019-.04-.016-.04-.013-.043-.009-.044-.005-.043-.002-.045V3.77l.002-.044.005-.043.009-.044.013-.042.016-.042.019-.039.023-.038.025-.035.029-.034.031-.03.034-.03.035-.026.038-.022.04-.019.041-.017.042-.012.043-.009.044-.005.044-.003h1.096l.045.003zm-1.141.53v9.46h1.154v-1.892l-.001-.222-.002-.226-.004-.226-.005-.229-.007-.23-.009-.232-.01-.233-.011-.236-.013-.237-.015-.24-.016-.24-.017-.244-.02-.244-.02-.246-.022-.248-.024-.25-.023-.225-.021-.222-.019-.22-.018-.218-.017-.217-.015-.214-.013-.212-.013-.21 1.062 4.581h.761l1.062-4.58-.013.21-.013.211-.015.214-.017.217-.018.218-.02.22-.02.222-.023.224-.024.251-.022.248-.02.246-.02.244-.017.244-.016.24-.015.24-.013.237-.011.236-.01.233-.009.232-.007.23-.005.229-.004.226-.002.226-.001.222v1.891h1.154V3.77h-1.096l-1.166 4.993-1.165-4.993h-1.096z" fill="#003bae"/><path d="M40.666 11.233l1.131-.205v.077c0 .18.042.347.127.502.084.162.2.29.346.386.184.12.411.18.681.18.246 0 .453-.057.623-.168.153-.103.276-.24.369-.412.1-.197.15-.42.15-.67 0-.265-.066-.522-.196-.77-.185-.352-.577-.726-1.177-1.12-.846-.55-1.4-1.077-1.662-1.584a2.913 2.913 0 01-.334-1.364c0-.463.1-.888.3-1.274.177-.343.419-.609.727-.797.353-.232.777-.348 1.269-.348.523 0 .973.12 1.35.36.292.189.523.442.692.76.161.309.242.635.242.978l-1.13.205v-.077c0-.18-.043-.347-.127-.502a1.003 1.003 0 00-.346-.386 1.222 1.222 0 00-.681-.18c-.246 0-.454.056-.623.167-.154.104-.277.241-.369.413-.1.197-.15.42-.15.669 0 .265.065.523.196.772.184.351.577.725 1.177 1.12.846.549 1.399 1.076 1.661 1.583.223.428.335.883.335 1.364 0 .463-.1.888-.3 1.273-.177.344-.42.61-.727.798-.354.232-.777.348-1.269.348-.523 0-.973-.12-1.35-.36a2.02 2.02 0 01-.693-.76 2.087 2.087 0 01-.242-.978z" fill="#fff" fill-rule="nonzero"/><path d="M43.133 3.134l.111.005.111.008.107.011.056.008.054.008.053.009.053.01.053.011.052.011.052.013.052.013.051.015.051.014.051.017.05.016.05.018.049.018.049.02.048.02.048.023.048.022.047.023.046.024.046.025.046.026.045.027.047.029.068.046.067.048.064.049.064.052.061.054.06.054.057.058.056.06.054.06.052.063.05.065.048.067.046.068.044.069.042.071.042.074.037.075.034.072.032.074.029.073.028.075.024.076.023.076.02.077.018.077.016.078.013.078.011.08.008.077.006.08.003.08.001.072-.001.044-.004.043-.009.044-.012.042-.015.041-.019.04-.022.038-.025.037-.028.034-.031.032-.033.03-.036.025-.037.023-.039.02-.041.017-.042.012-.043.01-1.131.207-.044.005-.044.002h-.045l-.044-.005-.044-.009-.042-.012-.042-.016-.04-.019-.038-.022-.037-.026-.034-.029-.032-.031-.028-.034-.027-.035-.022-.038-.02-.04-.016-.042-.013-.042-.009-.043-.006-.045-.002-.045v-.095l-.001-.016-.001-.017-.002-.017-.002-.015-.003-.016-.003-.016-.003-.014-.004-.016-.005-.014-.005-.015-.005-.013-.006-.015-.006-.014-.008-.015-.01-.02-.012-.02-.008-.016-.009-.015-.01-.013-.009-.014-.009-.012-.01-.012-.01-.011-.009-.01-.011-.012-.01-.009-.011-.01-.011-.008-.011-.01-.012-.008-.013-.008-.018-.011-.017-.01-.017-.01-.019-.008-.019-.008-.021-.008-.022-.006-.023-.007-.024-.006-.026-.005-.027-.005-.028-.004-.031-.004-.031-.002h-.127l-.028.002-.025.003-.025.004-.023.003-.022.005-.02.005-.019.006-.018.006-.018.006-.016.007-.015.007-.014.008-.014.007-.013.01-.012.007-.015.011-.014.011-.013.012-.013.01-.013.013-.013.012-.012.014-.012.013-.011.014-.012.016-.011.016-.011.015-.011.017-.01.019-.007.012-.008.017-.01.022-.01.023-.009.023-.008.025-.007.024-.007.026-.006.025-.006.027-.005.028-.004.028-.004.029-.002.03-.002.031-.002.032v.032l.001.033.001.034.003.032.003.034.005.032.005.032.007.033.008.032.008.032.01.033.011.032.012.032.014.034.014.033.016.033.017.034.011.02.012.022.014.022.014.022.016.024.017.024.019.025.019.024.022.026.022.027.024.026.025.028.026.028.028.03.029.028.029.028.066.061.07.062.076.062.081.065.086.065.092.067.097.068.104.069.078.051.081.054.079.054.078.054.076.054.074.054.073.055.071.053.07.055.068.053.067.055.065.055.063.054.062.055.06.055.058.054.057.056.056.055.054.055.052.056.051.056.049.057.047.057.046.057.044.057.043.058.04.058.04.058.037.059.036.059.034.059.032.06.047.094.044.095.042.097.038.097.036.098.032.1.03.1.026.1.023.101.02.102.017.104.014.102.011.104.008.105.004.105.002.105-.001.101-.005.1-.006.1-.01.099-.013.098-.015.098-.018.096-.021.096-.024.095-.027.095-.03.092-.032.093-.035.09-.038.09-.041.089-.044.087-.041.078-.044.076-.046.074-.048.073-.05.07-.053.07-.055.066-.057.065-.059.062-.061.06-.063.059-.065.055-.067.054-.069.051-.071.048-.064.042-.037.024-.043.026-.044.025-.044.025-.044.023-.045.024-.045.02-.046.022-.046.02-.047.02-.047.018-.047.017-.048.017-.048.015-.049.016-.049.013-.049.014-.052.012-.099.021-.101.018-.103.016-.104.01-.106.008-.106.005-.107.002-.113-.002-.112-.005-.11-.007-.107-.013-.056-.006-.054-.008-.054-.009-.053-.01-.053-.011-.052-.011-.052-.013-.052-.013-.051-.015-.051-.014-.051-.017-.05-.016-.049-.018-.05-.02-.049-.018-.048-.021-.048-.022-.047-.022-.048-.023-.046-.024-.046-.025-.046-.026-.045-.027-.047-.03-.068-.045-.066-.048-.065-.049-.063-.052-.062-.054-.059-.055-.058-.057-.056-.06-.054-.06-.052-.063-.05-.065-.048-.067-.046-.068-.044-.069-.042-.071-.041-.075-.037-.074-.035-.072-.031-.074-.03-.073-.027-.075-.025-.076-.023-.076-.02-.077-.018-.077-.015-.078-.014-.078-.01-.08-.009-.078-.005-.08-.004-.079-.001-.072.001-.044.005-.044.008-.043.012-.042.016-.041.018-.04.022-.039.025-.036.028-.034.031-.032.033-.03.036-.025.037-.023.04-.02.041-.017.042-.013.043-.01 1.13-.206.044-.005.045-.004.044.003.044.004.044.009.043.012.041.016.04.019.039.022.036.026.034.028.032.03.029.036.026.035.023.038.019.04.017.042.013.042.009.043.005.045.002.045v.094l.001.017.002.017.001.017.002.015.003.016.003.016.004.014.004.015.004.014.005.015.005.014.006.015.007.014.007.015.01.02.012.02.009.016.009.015.009.013.009.014.01.012.009.012.01.011.01.01.01.01.01.01.011.01.011.01.012.008.012.01.012.007.018.011.017.01.018.01.018.007.02.009.02.007.022.007.023.007.024.006.026.005.027.005.029.004.03.002.032.003.033.002h.065l.029-.001.027-.002.026-.004.024-.003.023-.003.022-.005.021-.005.019-.006.018-.006.017-.006.016-.007.015-.008.015-.007.014-.007.013-.01.012-.007.014-.011.014-.011.014-.012.013-.01.013-.013.012-.013.012-.013.012-.014.012-.014.011-.015.011-.016.011-.015.011-.018.011-.018.007-.012.008-.017.01-.022.009-.024.009-.023.008-.024.008-.024.007-.026.006-.025.005-.027.005-.028.004-.028.004-.029.003-.03.002-.031.001-.032v-.067l-.002-.032-.002-.033-.004-.033-.004-.032-.006-.032-.007-.033-.007-.032-.009-.032-.01-.033-.011-.032-.012-.034-.013-.032-.015-.033-.015-.034-.018-.033-.011-.02-.012-.022-.013-.022-.015-.022-.016-.024-.017-.024-.018-.025-.02-.024-.021-.027-.022-.026-.024-.028-.025-.026-.026-.028-.028-.03-.029-.028-.029-.028-.067-.061-.07-.062-.076-.062-.081-.065-.086-.066-.092-.066-.097-.068-.104-.069-.078-.051-.081-.055-.079-.053-.078-.054-.076-.054-.074-.054-.073-.055-.071-.053-.07-.055-.068-.054-.066-.054-.065-.055-.064-.054-.061-.055-.06-.055-.059-.055-.057-.055-.055-.056-.054-.054-.053-.056-.05-.057-.049-.056-.048-.057-.045-.057-.045-.057-.042-.058-.041-.058-.039-.058-.038-.059-.035-.059-.034-.059-.032-.06-.047-.094-.045-.096-.041-.096-.039-.097-.035-.098-.033-.1-.029-.1-.027-.1-.023-.101-.02-.103-.017-.103-.014-.102-.011-.105-.007-.104-.005-.105-.002-.106.002-.1.004-.1.007-.1.01-.099.012-.098.015-.098.019-.097.021-.096.024-.095.026-.094.03-.092.032-.093.036-.09.038-.09.041-.09.043-.087.041-.077.044-.076.046-.074.048-.073.051-.07.052-.07.055-.066.057-.065.059-.062.061-.06.063-.059.065-.055.067-.054.069-.051.071-.05.064-.04.038-.024.043-.026.043-.025.044-.025.044-.023.045-.024.045-.021.046-.021.046-.02.047-.02.047-.018.048-.018.048-.016.048-.015.048-.016.049-.013.05-.014.052-.012.098-.021.102-.019.103-.015.104-.01.105-.009.106-.005.108-.001h.113zm-.205.533l-.09.005-.088.006-.086.01-.085.013-.084.014-.082.018-.04.01-.04.01-.039.011-.039.012-.039.013-.038.013-.038.013-.037.015-.037.016-.037.015-.036.017-.036.018-.035.018-.035.019-.035.019-.034.02-.034.02-.033.022-.057.036-.056.038-.053.04-.053.042-.051.044-.049.044-.048.047-.046.05-.044.05-.044.053-.041.055-.04.055-.039.058-.037.06-.035.062-.034.063-.036.073-.034.074-.032.074-.029.076-.027.077-.025.077-.022.078-.02.08-.018.08-.015.08-.013.083-.01.082-.009.084-.005.085-.004.085-.001.086.001.09.004.09.007.088.009.088.012.087.014.087.017.086.019.086.023.085.025.084.027.084.03.083.033.082.035.083.038.081.04.08.026.048.027.047.029.048.03.048.032.048.034.048.036.05.037.047.039.05.041.047.043.05.044.048.046.05.048.048.049.05.051.049.053.05.054.049.056.05.058.05.06.05.061.05.063.05.065.051.067.05.068.05.07.052.071.051.074.05.075.052.076.05.079.052.11.074.105.073.1.073.096.072.09.072.086.071.081.072.076.07.036.034.035.035.034.035.032.034.032.035.03.034.029.034.027.034.027.034.025.034.024.034.023.033.021.034.021.033.019.033.018.033.023.047.023.047.02.047.019.048.018.046.016.048.015.048.013.048.011.05.01.047.009.05.007.049.005.049.004.049.002.05.001.049-.001.047-.002.046-.002.044-.005.045-.005.044-.006.043-.008.043-.009.042-.01.042-.011.04-.012.041-.014.04-.014.038-.016.04-.017.037-.018.037-.018.033-.018.03-.019.03-.02.03-.021.028-.021.028-.022.026-.023.027-.023.026-.024.024-.025.024-.026.022-.026.022-.027.022-.028.02-.028.02-.033.021-.033.019-.034.017-.035.016-.035.015-.037.014-.038.013-.038.01-.039.01-.041.009-.041.007-.042.006-.043.005-.044.003-.045.002h-.095l-.049-.002-.048-.003-.047-.006-.046-.006-.045-.007-.044-.01-.044-.01-.042-.013-.041-.013-.04-.015-.039-.016-.038-.017-.037-.02-.036-.02-.035-.021-.027-.018-.026-.02-.026-.02-.025-.02-.024-.022-.024-.021-.022-.023-.022-.024-.022-.024-.02-.026-.02-.026-.019-.026-.018-.028-.018-.03-.017-.028-.016-.03-.016-.03-.014-.03-.013-.029-.013-.03-.011-.03-.011-.031-.009-.031-.008-.031-.008-.032-.006-.03-.006-.033-.004-.033-.004-.033-.002-.032-.002-.034v-.11l-1.131.205.001.065.003.063.005.064.006.062.009.063.01.062.013.062.014.06.016.062.018.06.02.06.021.06.024.06.026.058.027.06.029.057.033.06.034.056.035.056.037.055.038.052.04.051.041.05.042.048.044.046.046.046.047.043.048.043.05.04.051.04.053.037.054.037.035.022.036.021.037.02.036.02.038.02.037.018.039.02.038.016.039.017.039.015.04.016.041.014.04.014.041.013.042.012.042.012.042.01.043.01.043.01.044.009.044.009.045.006.045.007.045.007.092.009.094.007.095.004.098.002.091-.002.09-.004.088-.006.087-.01.085-.013.083-.014.082-.018.04-.01.04-.01.04-.011.039-.012.038-.013.038-.013.038-.013.038-.016.037-.015.036-.016.037-.016.035-.018.036-.018.035-.019.034-.019.035-.02.033-.02.034-.022.057-.036.055-.038.054-.04.052-.042.051-.044.049-.044.048-.048.046-.05.045-.05.043-.052.042-.055.04-.055.038-.058.037-.06.036-.062.034-.064.036-.072.034-.075.031-.073.03-.076.027-.077.024-.077.023-.078.02-.08.017-.08.015-.081.013-.082.011-.082.008-.084.006-.085.003-.085.002-.086-.002-.09-.004-.09-.006-.088-.009-.088-.012-.087-.015-.087-.017-.086-.019-.086-.022-.085-.025-.084-.028-.084-.03-.084-.032-.082-.036-.082-.038-.081-.04-.08-.025-.048-.028-.048-.028-.047-.031-.048-.032-.048-.034-.05-.036-.047-.037-.048-.039-.05-.041-.047-.042-.05-.045-.048-.046-.05-.047-.049-.049-.049-.052-.049-.052-.05-.055-.049-.056-.05-.058-.05-.06-.05-.061-.05-.063-.05-.065-.051-.066-.05-.068-.052-.07-.05-.072-.051-.073-.05-.075-.052-.077-.05-.078-.052-.111-.075-.105-.072-.1-.073-.095-.072-.091-.072-.086-.071-.081-.072-.076-.07-.036-.034-.035-.035-.033-.035-.033-.034-.031-.035-.03-.034-.029-.034-.028-.034-.026-.034-.026-.034-.024-.034-.022-.033-.022-.034-.02-.033-.019-.034-.018-.032-.024-.047-.022-.047-.021-.047-.019-.048-.018-.048-.016-.046-.014-.048-.013-.048-.012-.05-.01-.047-.008-.05-.007-.049-.006-.049-.003-.049-.003-.05v-.096l.002-.046.003-.044.004-.045.005-.044.007-.044.007-.042.009-.043.01-.04.011-.042.012-.04.014-.04.015-.038.015-.04.017-.037.019-.037.017-.033.019-.03.019-.03.02-.03.02-.029.021-.027.022-.028.023-.025.024-.026.024-.024.025-.024.025-.023.026-.021.028-.022.027-.02.029-.02.032-.021.033-.019.034-.018.035-.015.036-.016.036-.013.038-.013.038-.01.04-.01.04-.009.041-.008.042-.005.043-.005.044-.003.045-.002.046-.001h.05l.049.003.048.003.047.006.046.006.045.007.044.01.043.01.042.013.041.013.04.015.039.015.038.018.037.02.036.02.036.021.027.018.026.02.025.02.025.02.024.02.024.023.023.023.022.024.021.024.02.026.02.026.019.026.019.028.017.03.017.028.017.03.015.03.014.03.014.029.012.03.012.03.01.031.009.03.009.031.007.033.007.03.005.033.005.033.003.032.003.033.001.034.001.033v.077l1.13-.205-.001-.065-.003-.063-.004-.064-.007-.062-.008-.063-.011-.062-.012-.062-.014-.06-.016-.062-.018-.06-.02-.06-.022-.06-.024-.06-.025-.06-.028-.057-.029-.058-.033-.06-.033-.056-.036-.056-.037-.055-.038-.052-.039-.051-.042-.05-.042-.048-.044-.047-.045-.045-.047-.043-.049-.043-.049-.041-.052-.04-.052-.036-.054-.037-.036-.022-.036-.021-.036-.021-.037-.02-.037-.02-.038-.018-.038-.018-.039-.017-.039-.017-.039-.015-.04-.016-.04-.014-.041-.014-.041-.013-.041-.013-.042-.01-.043-.012-.043-.01-.043-.01-.044-.008-.044-.009-.044-.006-.045-.007-.046-.007-.092-.01-.093-.006-.096-.005-.097-.001-.092.001z" fill="#003bae"/><path d="M46.4 10.615V6.382c0-.592.112-1.103.335-1.531.184-.36.434-.64.75-.837.354-.232.777-.348 1.269-.348.492 0 .915.116 1.269.348.323.205.577.489.761.849.147.274.243.574.289.901l-1.119.27a1.569 1.569 0 00-.173-.579 1.15 1.15 0 00-.416-.464 1.085 1.085 0 00-.611-.167c-.231 0-.431.056-.6.167a1.207 1.207 0 00-.404.45c-.131.258-.196.572-.196.941v4.233c0 .37.065.683.196.94.1.197.235.347.404.45.169.111.365.167.588.167a.954.954 0 00.531-.142 1.17 1.17 0 00.381-.437c.138-.257.207-.583.207-.978V9.174h-1.107V8.016h2.261v2.599c0 .609-.111 1.129-.334 1.557a2.225 2.225 0 01-.739.837c-.33.215-.73.322-1.2.322-.484 0-.903-.112-1.257-.335a2.135 2.135 0 01-.762-.862c-.215-.42-.323-.927-.323-1.519z" fill="#fff" fill-rule="nonzero"/><path d="M48.861 3.134l.107.005.105.008.104.011.103.015.102.019.098.021.052.012.049.014.049.013.049.016.048.015.048.016.048.018.047.019.046.019.046.02.046.021.046.021.044.024.045.023.044.025.043.025.043.026.041.027.07.047.073.05.071.056.069.055.067.06.065.06.063.064.061.065.058.068.057.07.054.07.052.074.05.076.047.078.045.08.041.075.031.06.031.063.029.063.028.065.027.066.025.066.024.067.022.067.021.068.019.068.018.069.017.069.015.07.014.07.012.072.01.066.005.043.001.044-.002.044-.006.044-.01.042-.013.043-.017.04-.019.04-.023.037-.026.035-.029.034-.032.03-.034.029-.036.025-.038.022-.039.019-.042.015-.042.013-1.119.27-.044.009-.045.004-.045.001-.045-.002-.045-.007-.043-.01-.043-.014-.042-.017-.04-.021-.038-.025-.036-.027-.033-.03-.031-.033-.028-.035-.025-.038-.021-.04-.018-.041-.015-.042-.011-.044-.007-.045-.004-.033-.004-.028-.004-.028-.005-.027-.006-.025-.006-.025-.006-.025-.007-.024-.007-.023-.008-.024-.008-.022-.009-.021-.009-.021-.009-.022-.011-.02-.013-.025-.015-.03-.011-.02-.013-.02-.012-.018-.013-.018-.013-.018-.013-.016-.013-.015-.014-.016-.014-.014-.015-.014-.015-.013-.016-.012-.016-.013-.017-.012-.021-.013-.019-.013-.014-.007-.015-.008-.015-.008-.016-.007-.017-.006-.018-.006-.018-.006-.02-.004-.021-.005-.021-.004-.024-.003-.024-.003-.026-.002H48.702l-.024.002-.023.003-.022.003-.02.003-.02.005-.019.005-.018.005-.017.007-.016.005-.016.007-.016.008-.014.007-.015.01-.015.008-.017.011-.017.013-.016.013-.015.012-.016.014-.014.014-.015.015-.014.015-.013.016-.014.017-.013.016-.013.018-.012.02-.013.02-.012.02-.009.016-.014.028-.014.033-.014.035-.013.036-.012.038-.012.039-.01.04-.01.043-.008.044-.008.046-.006.048-.006.05-.004.05-.003.053-.002.055-.001.06v4.228l.001.059.002.055.003.052.004.051.006.05.006.047.008.047.008.044.01.042.01.041.012.04.012.037.013.036.014.035.014.032.016.033.012.022.012.02.012.02.012.02.012.016.012.017.013.016.012.014.013.014.013.013.013.012.013.012.013.01.014.01.015.01.045.03.015.008.016.008.015.007.016.007.016.007.017.005.017.006.018.004.019.005.019.003.021.003.021.003.022.002h.093l.021-.001.019-.003.018-.003.018-.002.015-.003.015-.004.014-.004.013-.005.012-.004.012-.005.01-.005.011-.005.009-.005.007-.005.009-.005.013-.01.014-.012.013-.01.013-.013.013-.012.012-.014.013-.014.013-.015.013-.016.013-.017.012-.019.013-.019.013-.02.012-.021.012-.024.018-.033.014-.031.015-.035.013-.036.013-.038.012-.039.011-.042.01-.045.009-.045.008-.048.007-.05.006-.054.004-.055.003-.057.002-.059.001-.063v-.906h-.574l-.044-.001-.044-.006-.043-.009-.042-.013-.041-.016-.04-.019-.038-.023-.036-.026-.033-.028-.031-.03-.029-.034-.026-.036-.022-.038-.02-.04-.016-.041-.012-.042-.009-.043-.006-.044-.001-.044V8.016l.001-.045.006-.043.009-.044.012-.04.016-.042.02-.04.022-.038.026-.036.029-.033.031-.032.033-.029.036-.025.038-.023.04-.018.041-.016.042-.013.043-.01.044-.005.044-.001h2.261l.044.001.044.006.043.009.042.013.041.016.04.018.038.023.036.025.033.03.032.03.028.034.026.036.022.038.02.04.016.041.012.041.009.044.006.043.002.045v2.602l-.002.123-.004.124-.008.123-.01.12-.013.12-.017.116-.019.115-.023.113-.013.058-.013.056-.014.056-.015.054-.016.055-.016.053-.018.054-.018.053-.019.053-.02.052-.021.052-.021.05-.023.052-.023.05-.024.05-.026.05-.043.079-.044.076-.046.076-.049.072-.05.071-.053.07-.054.069-.057.066-.058.063-.06.063-.062.06-.064.057-.066.056-.068.053-.069.053-.075.05-.084.053-.083.047-.085.044-.087.04-.088.037-.091.033-.091.03-.094.028-.094.023-.096.02-.097.017-.098.014-.1.01-.1.009-.102.004-.103.001h-.105l-.105-.007-.104-.007-.102-.01-.102-.015-.1-.018-.099-.02-.098-.024-.096-.028-.095-.031-.091-.034-.049-.019-.045-.019-.046-.02-.045-.021-.044-.022-.044-.023-.044-.023-.043-.025-.043-.024-.045-.028-.074-.05-.073-.053-.072-.054-.069-.057-.068-.06-.065-.062-.063-.065-.061-.065-.058-.07-.057-.07-.054-.073-.052-.075-.049-.077-.048-.08-.045-.08-.041-.079-.024-.047-.023-.049-.022-.049-.022-.05-.021-.05-.02-.05-.019-.052-.019-.051-.017-.052-.018-.054-.03-.105-.029-.107-.025-.11-.022-.11-.019-.115-.015-.113-.013-.116-.01-.119-.007-.119-.005-.12-.001-.12v-4.24l.001-.12.005-.12.007-.12.011-.119.013-.117.016-.115.02-.114.023-.112.025-.109.015-.056.015-.055.016-.054.016-.053.018-.054.018-.052.019-.051.02-.053.021-.051.021-.05.023-.05.023-.05.024-.05.025-.049.041-.078.045-.08.047-.076.049-.075.052-.074.054-.07.056-.069.058-.067.06-.066.062-.062.064-.06.067-.058.068-.056.071-.053.072-.05.068-.044.039-.026.043-.026.043-.025.044-.025.044-.023.045-.024.046-.021.045-.021.047-.02.046-.02.047-.018.048-.018.048-.016.048-.015.049-.016.049-.013.049-.014.052-.012.098-.021.102-.019.103-.015.104-.01.105-.009.106-.005.108-.001h.107zm-.199.533l-.089.005-.089.006-.086.01-.085.013-.084.014-.081.018-.041.01-.04.01-.039.011-.039.012-.039.013-.038.013-.038.013-.037.015-.037.016-.037.015-.036.017-.036.018-.035.018-.035.019-.035.019-.034.02-.034.02-.033.022-.059.038-.056.039-.056.042-.053.044-.053.046-.05.046-.05.05-.047.052-.046.053-.045.055-.043.057-.041.06-.04.06-.039.063-.037.065-.035.067-.021.04-.02.041-.019.041-.019.042-.018.042-.017.043-.017.043-.016.044-.015.044-.015.046-.014.044-.013.046-.013.046-.012.047-.022.094-.02.097-.017.099-.014.1-.012.103-.009.104-.007.106-.003.109-.002.11v4.233l.002.11.003.109.007.106.008.103.012.102.014.1.016.098.019.096.021.094.024.091.027.09.014.044.015.045.015.042.017.044.016.041.018.042.018.042.018.04.019.04.02.04.036.068.037.066.038.065.041.062.042.06.043.06.045.056.047.055.049.052.05.052.051.049.053.048.055.044.057.044.058.041.06.04.033.02.034.02.034.02.035.018.034.018.036.018.035.017.036.015.037.016.037.015.074.027.077.025.078.022.079.02.081.017.082.014.084.012.086.009.087.006.088.005.09.001.088-.001.085-.005.084-.005.082-.01.081-.01.079-.015.077-.015.076-.02.074-.022.073-.023.071-.027.069-.029.068-.031.066-.034.064-.036.063-.04.057-.038.056-.042.054-.042.052-.045.052-.047.049-.047.049-.05.047-.052.045-.052.044-.055.043-.057.041-.058.039-.06.039-.062.036-.063.036-.066.02-.04.02-.041.019-.042.019-.042.018-.042.017-.043.017-.044.016-.044.015-.044.015-.046.014-.046.014-.046.012-.047.012-.048.012-.047.011-.048.019-.099.017-.1.015-.103.011-.104.009-.108.007-.109.004-.11.001-.114V8.016h-2.261v1.158h1.107V10.689l-.003.071-.004.07-.005.068-.008.067-.009.065-.01.063-.012.063-.014.06-.016.06-.017.056-.018.056-.021.053-.022.053-.023.05-.025.05-.019.034-.02.034-.02.033-.021.032-.022.031-.022.03-.023.028-.023.028-.024.027-.025.026-.026.025-.026.024-.026.022-.027.022-.028.021-.029.02-.028.017-.028.016-.029.016-.03.013-.031.012-.031.012-.032.01-.033.01-.034.008-.034.008-.035.006-.036.004-.036.005-.037.002-.038.002h-.08l-.041-.002-.04-.003-.04-.005-.039-.006-.038-.007-.038-.008-.037-.01-.036-.011-.036-.013-.036-.014-.034-.015-.034-.016-.033-.017-.033-.019-.032-.021-.031-.02-.031-.02-.03-.023-.028-.023-.029-.025-.027-.024-.026-.027-.026-.028-.025-.029-.024-.029-.023-.031-.022-.032-.022-.033-.021-.034-.02-.036-.019-.036-.024-.049-.022-.05-.021-.052-.019-.053-.017-.053-.016-.056-.015-.057-.013-.058-.011-.06-.01-.06-.009-.062-.007-.063-.005-.065-.004-.066-.002-.067-.001-.069V6.382l.001-.07.002-.066.004-.066.005-.065.007-.063.009-.062.01-.06.011-.06.013-.058.015-.057.016-.056.017-.053.019-.054.021-.051.022-.05.024-.05.019-.034.02-.034.021-.033.022-.032.022-.031.023-.03.024-.03.025-.03.026-.026.026-.027.027-.027.029-.024.028-.025.03-.022.031-.023.031-.022.032-.02.033-.019.033-.018.035-.015.035-.016.035-.013.037-.013.037-.01.038-.01.038-.009.04-.008.04-.005.04-.005.042-.003.042-.002.043-.001h.044l.044.003.042.003.042.005.041.005.041.008.039.008.039.01.037.011.037.013.037.013.035.016.035.015.033.018.033.019.032.02.033.022.032.023.031.023.03.025.029.024.028.027.027.028.027.028.025.03.025.03.024.031.023.033.021.033.021.035.021.035.019.037.017.032.016.033.015.033.014.035.014.034.013.035.012.036.011.035.011.037.009.037.009.037.008.038.007.039.007.039.005.039.005.04 1.119-.27-.009-.061-.011-.06-.011-.06-.013-.059-.014-.059L51 5.408l-.016-.058-.018-.056-.018-.056-.02-.055-.021-.055-.022-.054-.024-.054-.024-.053-.026-.052-.027-.052-.035-.067-.037-.065-.039-.062-.04-.062-.042-.059-.043-.058-.046-.056-.046-.054-.049-.051-.05-.05-.051-.05-.054-.047-.055-.044-.056-.044-.058-.041-.06-.039-.033-.022-.034-.02-.034-.02-.035-.02-.035-.018-.035-.018-.036-.018-.036-.017-.037-.015-.037-.016-.037-.015-.038-.013-.038-.013-.039-.013-.039-.012-.04-.011-.039-.01-.041-.01-.082-.018-.083-.014-.085-.013-.087-.01-.088-.006-.09-.005-.091-.001-.092.001z" fill="#003bae"/></g><defs><linearGradient id="_Linear1" x1="0" y1="0" x2="1" y2="0" gradientUnits="userSpaceOnUse" gradientTransform="matrix(58 0 0 15 1 8.5)"><stop offset="0" stop-color="#6b8dc4"/><stop offset=".43" stop-color="#87a3cf"/><stop offset=".89" stop-color="#d5dfee"/><stop offset=".96" stop-color="#c5d3e8"/><stop offset=".98" stop-color="#9bb3d7"/><stop offset="1" stop-color="#6b8dc4"/></linearGradient><linearGradient id="_Linear2" x1="0" y1="0" x2="1" y2="0" gradientUnits="userSpaceOnUse" gradientTransform="matrix(0 -2 2.66667 0 3 5)"><stop offset="0" stop-color="#b3c4e0"/><stop offset="1" stop-color="#a1b7d9"/></linearGradient></defs></svg>