<svg width="120" height="15" xmlns="http://www.w3.org/2000/svg" fill-rule="evenodd" clip-rule="evenodd" stroke-linejoin="round" stroke-miterlimit="2"><path fill="#fafafa" d="M0 0h120v15H0z"/><path fill="#c5c5c5" d="M8 12H4V3h4z"/><path d="M4 12V3h4v9H4zm3-1V4H5v7h2z" fill="url(#_Linear1)" transform="matrix(-1 0 0 -1 12 15)"/><path d="M.333-.541l.068.207.213.002-.173.124L.508 0 .331-.129l-.175.128.068-.207-.176-.127.217.001.068-.207z" fill="url(#_Radial2)" fill-rule="nonzero" transform="matrix(21.27751 0 0 21.35098 90.23 13.132)"/><path d="M.334-.563l.007.001.005.004.005.004.003.006.063.192.197.002.007.001.006.003.005.005.003.005.001.007v.006l-.001.002-.001.002-.001.002-.001.002-.002.002-.001.001-.002.002-.16.115.062.192.001.006v.005L.529.006v.002L.528.01.526.012.525.013.524.015.522.017.52.018.518.019.516.02.514.021H.503L.501.02.499.019.497.018.495.017.331-.102.169.017.167.018.165.019.163.02H.161L.159.021H.152L.15.02.148.019.146.018.144.017.143.016.141.015.139.013.138.011.137.009.136.007.135.005V.003L.134.001v-.004l.001-.003v-.002l.063-.191-.163-.119-.001-.001-.002-.002-.001-.001-.002-.002-.001-.002v-.002L.027-.33v-.003L.026-.335v-.002l.001-.002v-.002l.001-.002.001-.002.001-.002.001-.002.002-.002.001-.001.002-.002.002-.001.002-.001h.002l.002-.001h.004l.201.001.063-.192.001-.002.001-.002.001-.002.002-.001.001-.002.002-.001.002-.002.001-.001.002-.001h.003L.33-.563h.004zm-.069.229L.048-.335l.176.127-.068.207.175-.128L.508 0 .441-.208l.173-.124-.213-.002-.068-.207-.068.207z" fill="url(#_Linear3)" transform="matrix(21.27751 0 0 21.35098 90.23 13.132)"/><g><path d="M.333-.541l.068.207.213.002-.173.124L.508 0 .331-.129l-.175.128.068-.207-.176-.127.217.001.068-.207z" fill="url(#_Radial4)" fill-rule="nonzero" transform="matrix(21.27751 0 0 21.35098 103.231 13.132)"/><path d="M.334-.563l.007.001.005.004.005.004.003.006.063.192.197.002.007.001.006.003.005.005.003.005.001.007v.006l-.001.002-.001.002-.001.002-.001.002-.002.002-.001.001-.002.002-.16.115.062.192.001.006v.005L.529.006v.002L.528.01.526.012.525.013.524.015.522.017.52.018.518.019.516.02.514.021H.503L.501.02.499.019.497.018.495.017.331-.102.169.017.167.018.165.019.163.02H.161L.159.021H.152L.15.02.148.019.146.018.144.017.143.016.141.015.139.013.138.011.137.009.136.007.135.005V.003L.134.001v-.004l.001-.003v-.002l.063-.191-.163-.119-.001-.001-.002-.002-.001-.001-.002-.002-.001-.002v-.002L.027-.33v-.003L.026-.335v-.002l.001-.002v-.002l.001-.002.001-.002.001-.002.001-.002.002-.002.001-.001.002-.002.002-.001.002-.001h.002l.002-.001h.004l.201.001.063-.192.001-.002.001-.002.001-.002.002-.001.001-.002.002-.001.002-.002.001-.001.002-.001h.003L.33-.563h.004zm-.069.229L.048-.335l.176.127-.068.207.175-.128L.508 0 .441-.208l.173-.124-.213-.002-.068-.207-.068.207z" fill="url(#_Linear5)" transform="matrix(21.27751 0 0 21.35098 103.231 13.132)"/></g><g><path d="M.333-.541l.068.207.213.002-.173.124L.508 0 .331-.129l-.175.128.068-.207-.176-.127.217.001.068-.207z" fill="url(#_Radial6)" fill-rule="nonzero" transform="matrix(21.27751 0 0 21.35098 10.654 13.132)"/><path d="M.334-.563l.007.001.005.004.005.004.003.006.063.192.197.002.007.001.006.003.005.005.003.005.001.007v.006l-.001.002-.001.002-.001.002-.001.002-.002.002-.001.001-.002.002-.16.115.062.192.001.006v.005L.529.006v.002L.528.01.526.012.525.013.524.015.522.017.52.018.518.019.516.02.514.021H.503L.501.02.499.019.497.018.495.017.331-.102.169.017.167.018.165.019.163.02H.161L.159.021H.152L.15.02.148.019.146.018.144.017.143.016.141.015.139.013.138.011.137.009.136.007.135.005V.003L.134.001v-.004l.001-.003v-.002l.063-.191-.163-.119-.001-.001-.002-.002-.001-.001-.002-.002-.001-.002v-.002L.027-.33v-.003L.026-.335v-.002l.001-.002v-.002l.001-.002.001-.002.001-.002.001-.002.002-.002.001-.001.002-.002.002-.001.002-.001h.002l.002-.001h.004l.201.001.063-.192.001-.002.001-.002.001-.002.002-.001.001-.002.002-.001.002-.002.001-.001.002-.001h.003L.33-.563h.004zm-.069.229L.048-.335l.176.127-.068.207.175-.128L.508 0 .441-.208l.173-.124-.213-.002-.068-.207-.068.207z" fill="url(#_Linear7)" transform="matrix(21.27751 0 0 21.35098 10.654 13.132)"/><path d="M.333-.541l.068.207.213.002-.173.124L.508 0 .331-.129l-.175.128.068-.207-.176-.127.217.001.068-.207z" fill="url(#_Radial8)" fill-rule="nonzero" transform="matrix(21.27751 0 0 21.35098 23.916 13.132)"/><path d="M.334-.563l.007.001.005.004.005.004.003.006.063.192.197.002.007.001.006.003.005.005.003.005.001.007v.006l-.001.002-.001.002-.001.002-.001.002-.002.002-.001.001-.002.002-.16.115.062.192.001.006v.005L.529.006v.002L.528.01.526.012.525.013.524.015.522.017.52.018.518.019.516.02.514.021H.503L.501.02.499.019.497.018.495.017.331-.102.169.017.167.018.165.019.163.02H.161L.159.021H.152L.15.02.148.019.146.018.144.017.143.016.141.015.139.013.138.011.137.009.136.007.135.005V.003L.134.001v-.004l.001-.003v-.002l.063-.191-.163-.119-.001-.001-.002-.002-.001-.001-.002-.002-.001-.002v-.002L.027-.33v-.003L.026-.335v-.002l.001-.002v-.002l.001-.002.001-.002.001-.002.001-.002.002-.002.001-.001.002-.002.002-.001.002-.001h.002l.002-.001h.004l.201.001.063-.192.001-.002.001-.002.001-.002.002-.001.001-.002.002-.001.002-.002.001-.001.002-.001h.003L.33-.563h.004zm-.069.229L.048-.335l.176.127-.068.207.175-.128L.508 0 .441-.208l.173-.124-.213-.002-.068-.207-.068.207z" fill="url(#_Linear9)" transform="matrix(21.27751 0 0 21.35098 23.916 13.132)"/><path d="M.333-.541l.068.207.213.002-.173.124L.508 0 .331-.129l-.175.128.068-.207-.176-.127.217.001.068-.207z" fill="url(#_Radial10)" fill-rule="nonzero" transform="matrix(21.27751 0 0 21.35098 37.18 13.132)"/><path d="M.334-.563l.007.001.005.004.005.004.003.006.063.192.197.002.007.001.006.003.005.005.003.005.001.007v.006l-.001.002-.001.002-.001.002-.001.002-.002.002-.001.001-.002.002-.16.115.062.192.001.006v.005L.529.006v.002L.528.01.526.012.525.013.524.015.522.017.52.018.518.019.516.02.514.021H.503L.501.02.499.019.497.018.495.017.331-.102.169.017.167.018.165.019.163.02H.161L.159.021H.152L.15.02.148.019.146.018.144.017.143.016.141.015.139.013.138.011.137.009.136.007.135.005V.003L.134.001v-.004l.001-.003v-.002l.063-.191-.163-.119-.001-.001-.002-.002-.001-.001-.002-.002-.001-.002v-.002L.027-.33v-.003L.026-.335v-.002l.001-.002v-.002l.001-.002.001-.002.001-.002.001-.002.002-.002.001-.001.002-.002.002-.001.002-.001h.002l.002-.001h.004l.201.001.063-.192.001-.002.001-.002.001-.002.002-.001.001-.002.002-.001.002-.002.001-.001.002-.001h.003L.33-.563h.004zm-.069.229L.048-.335l.176.127-.068.207.175-.128L.508 0 .441-.208l.173-.124-.213-.002-.068-.207-.068.207z" fill="url(#_Linear11)" transform="matrix(21.27751 0 0 21.35098 37.18 13.132)"/><g><path d="M.333-.541l.068.207.213.002-.173.124L.508 0 .331-.129l-.175.128.068-.207-.176-.127.217.001.068-.207z" fill="url(#_Radial12)" fill-rule="nonzero" transform="matrix(21.27751 0 0 21.35098 50.442 13.132)"/><path d="M.334-.563l.007.001.005.004.005.004.003.006.063.192.197.002.007.001.006.003.005.005.003.005.001.007v.006l-.001.002-.001.002-.001.002-.001.002-.002.002-.001.001-.002.002-.16.115.062.192.001.006v.005L.529.006v.002L.528.01.526.012.525.013.524.015.522.017.52.018.518.019.516.02.514.021H.503L.501.02.499.019.497.018.495.017.331-.102.169.017.167.018.165.019.163.02H.161L.159.021H.152L.15.02.148.019.146.018.144.017.143.016.141.015.139.013.138.011.137.009.136.007.135.005V.003L.134.001v-.004l.001-.003v-.002l.063-.191-.163-.119-.001-.001-.002-.002-.001-.001-.002-.002-.001-.002v-.002L.027-.33v-.003L.026-.335v-.002l.001-.002v-.002l.001-.002.001-.002.001-.002.001-.002.002-.002.001-.001.002-.002.002-.001.002-.001h.002l.002-.001h.004l.201.001.063-.192.001-.002.001-.002.001-.002.002-.001.001-.002.002-.001.002-.002.001-.001.002-.001h.003L.33-.563h.004zm-.069.229L.048-.335l.176.127-.068.207.175-.128L.508 0 .441-.208l.173-.124-.213-.002-.068-.207-.068.207z" fill="url(#_Linear13)" transform="matrix(21.27751 0 0 21.35098 50.442 13.132)"/></g><g><path d="M.333-.541l.068.207.213.002-.173.124L.508 0 .331-.129l-.175.128.068-.207-.176-.127.217.001.068-.207z" fill="url(#_Radial14)" fill-rule="nonzero" transform="matrix(21.27751 0 0 21.35098 63.705 13.132)"/><path d="M.334-.563l.007.001.005.004.005.004.003.006.063.192.197.002.007.001.006.003.005.005.003.005.001.007v.006l-.001.002-.001.002-.001.002-.001.002-.002.002-.001.001-.002.002-.16.115.062.192.001.006v.005L.529.006v.002L.528.01.526.012.525.013.524.015.522.017.52.018.518.019.516.02.514.021H.503L.501.02.499.019.497.018.495.017.331-.102.169.017.167.018.165.019.163.02H.161L.159.021H.152L.15.02.148.019.146.018.144.017.143.016.141.015.139.013.138.011.137.009.136.007.135.005V.003L.134.001v-.004l.001-.003v-.002l.063-.191-.163-.119-.001-.001-.002-.002-.001-.001-.002-.002-.001-.002v-.002L.027-.33v-.003L.026-.335v-.002l.001-.002v-.002l.001-.002.001-.002.001-.002.001-.002.002-.002.001-.001.002-.002.002-.001.002-.001h.002l.002-.001h.004l.201.001.063-.192.001-.002.001-.002.001-.002.002-.001.001-.002.002-.001.002-.002.001-.001.002-.001h.003L.33-.563h.004zm-.069.229L.048-.335l.176.127-.068.207.175-.128L.508 0 .441-.208l.173-.124-.213-.002-.068-.207-.068.207z" fill="url(#_Linear15)" transform="matrix(21.27751 0 0 21.35098 63.705 13.132)"/></g><g><path d="M.333-.541l.068.207.213.002-.173.124L.508 0 .331-.129l-.175.128.068-.207-.176-.127.217.001.068-.207z" fill="url(#_Radial16)" fill-rule="nonzero" transform="matrix(21.27751 0 0 21.35098 76.968 13.132)"/><path d="M.334-.563l.007.001.005.004.005.004.003.006.063.192.197.002.007.001.006.003.005.005.003.005.001.007v.006l-.001.002-.001.002-.001.002-.001.002-.002.002-.001.001-.002.002-.16.115.062.192.001.006v.005L.529.006v.002L.528.01.526.012.525.013.524.015.522.017.52.018.518.019.516.02.514.021H.503L.501.02.499.019.497.018.495.017.331-.102.169.017.167.018.165.019.163.02H.161L.159.021H.152L.15.02.148.019.146.018.144.017.143.016.141.015.139.013.138.011.137.009.136.007.135.005V.003L.134.001v-.004l.001-.003v-.002l.063-.191-.163-.119-.001-.001-.002-.002-.001-.001-.002-.002-.001-.002v-.002L.027-.33v-.003L.026-.335v-.002l.001-.002v-.002l.001-.002.001-.002.001-.002.001-.002.002-.002.001-.001.002-.002.002-.001.002-.001h.002l.002-.001h.004l.201.001.063-.192.001-.002.001-.002.001-.002.002-.001.001-.002.002-.001.002-.002.001-.001.002-.001h.003L.33-.563h.004zm-.069.229L.048-.335l.176.127-.068.207.175-.128L.508 0 .441-.208l.173-.124-.213-.002-.068-.207-.068.207z" fill="url(#_Linear17)" transform="matrix(21.27751 0 0 21.35098 76.968 13.132)"/></g></g><path d="M120 15H0V0h120v15zM1 14h118V1H1v13z" fill="#d6d6d6"/><defs><linearGradient id="_Linear1" x1="0" y1="0" x2="1" y2="0" gradientUnits="userSpaceOnUse" gradientTransform="matrix(4 0 0 9 4 7.5)"><stop offset="0" stop-color="#ddd"/><stop offset="1" stop-color="#979797"/></linearGradient><linearGradient id="_Linear3" x1="0" y1="0" x2="1" y2="0" gradientUnits="userSpaceOnUse" gradientTransform="matrix(.56592 0 0 .54053 .048 -.27)"><stop offset="0" stop-color="#9d9d9d"/><stop offset="1"/></linearGradient><linearGradient id="_Linear5" x1="0" y1="0" x2="1" y2="0" gradientUnits="userSpaceOnUse" gradientTransform="matrix(.56592 0 0 .54053 .048 -.27)"><stop offset="0" stop-color="#9d9d9d"/><stop offset="1"/></linearGradient><linearGradient id="_Linear7" x1="0" y1="0" x2="1" y2="0" gradientUnits="userSpaceOnUse" gradientTransform="matrix(.56592 0 0 .54053 .048 -.27)"><stop offset="0" stop-color="#cfc48d"/><stop offset="1" stop-color="#95863d"/></linearGradient><linearGradient id="_Linear9" x1="0" y1="0" x2="1" y2="0" gradientUnits="userSpaceOnUse" gradientTransform="matrix(.56592 0 0 .54053 .048 -.27)"><stop offset="0" stop-color="#cfc48d"/><stop offset="1" stop-color="#95863d"/></linearGradient><linearGradient id="_Linear11" x1="0" y1="0" x2="1" y2="0" gradientUnits="userSpaceOnUse" gradientTransform="matrix(.56592 0 0 .54053 .048 -.27)"><stop offset="0" stop-color="#cfc48d"/><stop offset="1" stop-color="#95863d"/></linearGradient><linearGradient id="_Linear13" x1="0" y1="0" x2="1" y2="0" gradientUnits="userSpaceOnUse" gradientTransform="matrix(.56592 0 0 .54053 .048 -.27)"><stop offset="0" stop-color="#cfc48d"/><stop offset="1" stop-color="#95863d"/></linearGradient><linearGradient id="_Linear15" x1="0" y1="0" x2="1" y2="0" gradientUnits="userSpaceOnUse" gradientTransform="matrix(.56592 0 0 .54053 .048 -.27)"><stop offset="0" stop-color="#cfc48d"/><stop offset="1" stop-color="#95863d"/></linearGradient><linearGradient id="_Linear17" x1="0" y1="0" x2="1" y2="0" gradientUnits="userSpaceOnUse" gradientTransform="matrix(.56592 0 0 .54053 .048 -.27)"><stop offset="0" stop-color="#cfc48d"/><stop offset="1" stop-color="#95863d"/></linearGradient><radialGradient id="_Radial2" cx="0" cy="0" r="1" gradientUnits="userSpaceOnUse" gradientTransform="matrix(.56592 0 0 .54053 .048 -.27)"><stop offset="0" stop-color="#fff"/><stop offset=".43" stop-color="#e3e3e3"/><stop offset="1" stop-color="#a3a3a3"/></radialGradient><radialGradient id="_Radial4" cx="0" cy="0" r="1" gradientUnits="userSpaceOnUse" gradientTransform="matrix(.56592 0 0 .54053 .048 -.27)"><stop offset="0" stop-color="#fff"/><stop offset=".43" stop-color="#e3e3e3"/><stop offset="1" stop-color="#a3a3a3"/></radialGradient><radialGradient id="_Radial6" cx="0" cy="0" r="1" gradientUnits="userSpaceOnUse" gradientTransform="matrix(.28199 .46836 -.46998 .28102 .204 -.521)"><stop offset="0" stop-color="#fff6de"/><stop offset=".51" stop-color="#fbeaa9"/><stop offset="1" stop-color="#edc500"/></radialGradient><radialGradient id="_Radial8" cx="0" cy="0" r="1" gradientUnits="userSpaceOnUse" gradientTransform="matrix(.28199 .46836 -.46998 .28102 .204 -.521)"><stop offset="0" stop-color="#fff6de"/><stop offset=".51" stop-color="#fbeaa9"/><stop offset="1" stop-color="#edc500"/></radialGradient><radialGradient id="_Radial10" cx="0" cy="0" r="1" gradientUnits="userSpaceOnUse" gradientTransform="matrix(.28199 .46836 -.46998 .28102 .204 -.521)"><stop offset="0" stop-color="#fff6de"/><stop offset=".51" stop-color="#fbeaa9"/><stop offset="1" stop-color="#edc500"/></radialGradient><radialGradient id="_Radial12" cx="0" cy="0" r="1" gradientUnits="userSpaceOnUse" gradientTransform="matrix(.28199 .46836 -.46998 .28102 .204 -.521)"><stop offset="0" stop-color="#fff6de"/><stop offset=".51" stop-color="#fbeaa9"/><stop offset="1" stop-color="#edc500"/></radialGradient><radialGradient id="_Radial14" cx="0" cy="0" r="1" gradientUnits="userSpaceOnUse" gradientTransform="matrix(.28199 .46836 -.46998 .28102 .204 -.521)"><stop offset="0" stop-color="#fff6de"/><stop offset=".51" stop-color="#fbeaa9"/><stop offset="1" stop-color="#edc500"/></radialGradient><radialGradient id="_Radial16" cx="0" cy="0" r="1" gradientUnits="userSpaceOnUse" gradientTransform="matrix(.28199 .46836 -.46998 .28102 .204 -.521)"><stop offset="0" stop-color="#fff6de"/><stop offset=".51" stop-color="#fbeaa9"/><stop offset="1" stop-color="#edc500"/></radialGradient></defs></svg>