<svg width="15" height="15" xmlns="http://www.w3.org/2000/svg" fill-rule="evenodd" clip-rule="evenodd" stroke-linecap="round" stroke-linejoin="round" stroke-miterlimit="1.5"><g transform="translate(-3 -2)"><circle cx="10.5" cy="9.5" r="7.5" fill="url(#_Radial1)"/><clipPath id="a"><circle cx="10.5" cy="9.5" r="7.5"/></clipPath><g clip-path="url(#a)"><path d="M7.5 12.5c1.882 1.444 3.876 1.55 6 0" fill="none" stroke="#000" stroke-width=".59" transform="matrix(2.16667 0 0 1 -12.25 -5.951)"/><g transform="translate(-6.5 -4.5) scale(1.78571)"><circle cx="8" cy="7" r="1" fill="url(#_Radial3)"/><path d="M8.033 5.702l.034.001.033.002.032.003.033.004.032.004.032.006.032.006.032.007.031.007.031.009.031.009.03.01.03.01.03.012.03.012.028.012.029.014.028.014.028.014.028.016.027.016.026.016.026.017.026.018.025.019.025.019.024.019.024.02.023.021.023.021.022.022.022.022.021.023.021.023.02.024.019.024.019.025.019.025.018.026.017.026.016.026.016.027.016.028.014.028.014.028.014.029.012.028.012.03.012.03.01.03.01.03.009.031.009.031.007.031.007.032.006.032.006.032.004.032.004.033.003.032.002.033.001.034.001.033-.001.033-.001.034-.002.033-.003.032-.004.033-.004.032-.006.032-.006.032-.007.032-.007.031-.009.031-.009.031-.01.03-.01.03-.012.03-.012.03-.012.028-.014.029-.014.028-.014.028-.016.028-.016.027-.016.026-.017.026-.018.026-.019.025-.019.025-.019.024-.02.024-.021.023-.021.023-.022.022-.022.022-.023.021-.023.021-.024.02-.024.019-.025.019-.025.019-.026.018-.026.017-.026.016-.027.016-.028.016-.028.014-.028.014-.029.014-.028.012-.03.012-.03.012-.03.01-.03.01-.031.009-.031.009-.031.007-.032.007-.032.006-.032.006-.032.004-.033.004-.032.003-.033.002-.034.001L8 8.299l-.033-.001-.034-.001-.033-.002-.032-.003-.033-.004-.032-.004-.032-.006-.032-.006-.032-.007-.031-.007-.031-.009-.031-.009-.03-.01-.03-.01-.03-.012-.03-.012-.028-.012-.029-.014-.028-.014-.028-.014-.028-.016-.027-.016-.026-.016-.026-.017-.026-.018-.025-.019-.025-.019-.024-.019-.024-.02-.023-.021-.023-.021-.022-.022-.022-.022-.021-.023-.021-.023-.02-.024-.019-.024-.019-.025-.019-.025-.018-.026-.017-.026-.016-.026-.016-.027-.016-.028-.014-.028-.014-.028-.014-.029-.012-.028-.012-.03-.012-.03-.01-.03-.01-.03-.009-.031-.009-.031-.007-.031-.007-.032-.006-.032-.006-.032-.004-.032-.004-.033-.003-.032-.002-.033-.001-.034L6.701 7l.001-.033.001-.034.002-.033.003-.032.004-.033.004-.032.006-.032.006-.032.007-.032.007-.031.009-.031.009-.031.01-.03.01-.03.012-.03.012-.03.012-.028.014-.029.014-.028.014-.028.016-.028.016-.027.016-.026.017-.026.018-.026.019-.025.019-.025.019-.024.02-.024.021-.023.021-.023.022-.022.022-.022.023-.021.023-.021.024-.02.024-.019.025-.019.025-.019.026-.018.026-.017.026-.016.027-.016.028-.016.028-.014.028-.014.029-.014.028-.012.03-.012.03-.012.03-.01.03-.01.031-.009.031-.009.031-.007.032-.007.032-.006.032-.006.032-.004.033-.004.032-.003.033-.002.034-.001L8 5.701l.033.001zM7.974 6l-.025.001-.026.002-.025.002-.025.003-.025.004-.025.004-.024.004-.025.006-.024.006-.024.006-.023.007-.024.008-.023.008-.023.008-.022.01-.022.009-.022.011-.022.01-.021.012-.022.012-.02.012-.021.013-.02.013-.02.014-.019.014-.019.014-.019.015-.018.016-.018.016-.018.016-.017.017-.017.017-.016.018-.016.018-.016.018-.015.019-.014.019-.014.019-.014.02-.013.02-.013.021-.012.02-.012.022-.012.021-.01.022-.011.022-.009.022-.01.022-.008.023-.008.023-.008.024-.007.023-.006.024-.006.024-.006.025-.004.024-.004.025-.004.025-.003.025-.002.025-.002.026L7 6.974v.052l.001.025.002.026.002.025.003.025.004.025.004.025.004.024.006.025.006.024.006.024.007.023.008.024.008.023.008.023.01.022.009.022.011.022.01.022.012.021.012.022.012.02.013.021.013.02.014.02.014.019.014.019.015.019.016.018.016.018.016.018.017.017.017.017.018.016.018.016.018.016.019.015.019.014.019.014.02.014.02.013.021.013.02.012.022.012.021.012.022.01.022.011.022.009.022.01.023.008.023.008.024.008.023.007.024.006.024.006.025.006.024.004.025.004.025.004.025.003.025.002.026.002.025.001h.052l.025-.001.026-.002.025-.002.025-.003.025-.004.025-.004.024-.004.025-.006.024-.006.024-.006.023-.007.024-.008.023-.008.023-.008.022-.01.022-.009.022-.011.022-.01.021-.012.022-.012.02-.012.021-.013.02-.013.02-.014.019-.014.019-.014.019-.015.018-.016.018-.016.018-.016.017-.017.017-.017.016-.018.016-.018.016-.018.015-.019.014-.019.014-.019.014-.02.013-.02.013-.021.012-.02.012-.022.012-.021.01-.022.011-.022.009-.022.01-.022.008-.023.008-.023.008-.024.007-.023.006-.024.006-.024.006-.025.004-.024.004-.025.004-.025.003-.025.002-.025.002-.026L9 7.026v-.052l-.001-.025-.002-.026-.002-.025-.003-.025-.004-.025-.004-.025-.004-.024-.006-.025-.006-.024-.006-.024-.007-.023-.008-.024-.008-.023-.008-.023-.01-.022-.009-.022-.011-.022-.01-.022-.012-.021-.012-.022-.012-.02-.013-.021-.013-.02-.014-.02-.014-.019-.014-.019-.015-.019-.016-.018-.016-.018-.016-.018-.017-.017-.017-.017-.018-.016-.018-.016-.018-.016-.019-.015-.019-.014-.019-.014-.02-.014-.02-.013-.021-.013-.02-.012-.022-.012-.021-.012-.022-.01-.022-.011-.022-.009-.022-.01-.023-.008-.023-.008-.024-.008-.023-.007-.024-.006-.024-.006-.025-.006-.024-.004-.025-.004-.025-.004-.025-.003-.025-.002-.026-.002L8.026 6h-.052z"/></g><g transform="translate(-10 -4.5) scale(1.78571)"><circle cx="13" cy="7" r="1" fill="url(#_Radial4)"/><path d="M13.033 5.702l.034.001.033.002.032.003.033.004.032.004.032.006.032.006.032.007.031.007.031.009.031.009.03.01.03.01.03.012.03.012.028.012.029.014.028.014.028.014.028.016.027.016.026.016.026.017.026.018.025.019.025.019.024.019.024.02.023.021.023.021.022.022.022.022.021.023.021.023.02.024.019.024.019.025.019.025.018.026.017.026.016.026.016.027.016.028.014.028.014.028.014.029.012.028.012.03.012.03.01.03.01.03.009.031.009.031.007.031.007.032.006.032.006.032.004.032.004.033.003.032.002.033.001.034.001.033-.001.033-.001.034-.002.033-.003.032-.004.033-.004.032-.006.032-.006.032-.007.032-.007.031-.009.031-.009.031-.01.03-.01.03-.012.03-.012.03-.012.028-.014.029-.014.028-.014.028-.016.028-.016.027-.016.026-.017.026-.018.026-.019.025-.019.025-.019.024-.02.024-.021.023-.021.023-.022.022-.022.022-.023.021-.023.021-.024.02-.024.019-.025.019-.025.019-.026.018-.026.017-.026.016-.027.016-.028.016-.028.014-.028.014-.029.014-.028.012-.03.012-.03.012-.03.01-.03.01-.031.009-.031.009-.031.007-.032.007-.032.006-.032.006-.032.004-.033.004-.032.003-.033.002-.034.001-.033.001-.033-.001-.034-.001-.033-.002-.032-.003-.033-.004-.032-.004-.032-.006-.032-.006-.032-.007-.031-.007-.031-.009-.031-.009-.03-.01-.03-.01-.03-.012-.03-.012-.028-.012-.029-.014-.028-.014-.028-.014-.028-.016-.027-.016-.026-.016-.026-.017-.026-.018-.025-.019-.025-.019-.024-.019-.024-.02-.023-.021-.023-.021-.022-.022-.022-.022-.021-.023-.021-.023-.02-.024-.019-.024-.019-.025-.019-.025-.018-.026-.017-.026-.016-.026-.016-.027-.016-.028-.014-.028-.014-.028-.014-.029-.012-.028-.012-.03-.012-.03-.01-.03-.01-.03-.009-.031-.009-.031-.007-.031-.007-.032-.006-.032-.006-.032-.004-.032-.004-.033-.003-.032-.002-.033-.001-.034L11.701 7l.001-.033.001-.034.002-.033.003-.032.004-.033.004-.032.006-.032.006-.032.007-.032.007-.031.009-.031.009-.031.01-.03.01-.03.012-.03.012-.03.012-.028.014-.029.014-.028.014-.028.016-.028.016-.027.016-.026.017-.026.018-.026.019-.025.019-.025.019-.024.02-.024.021-.023.021-.023.022-.022.022-.022.023-.021.023-.021.024-.02.024-.019.025-.019.025-.019.026-.018.026-.017.026-.016.027-.016.028-.016.028-.014.028-.014.029-.014.028-.012.03-.012.03-.012.03-.01.03-.01.031-.009.031-.009.031-.007.032-.007.032-.006.032-.006.032-.004.033-.004.032-.003.033-.002.034-.001.033-.001.033.001zM12.974 6l-.025.001-.026.002-.025.002-.025.003-.025.004-.025.004-.024.004-.025.006-.024.006-.024.006-.023.007-.024.008-.023.008-.023.008-.022.01-.022.009-.022.011-.022.01-.021.012-.022.012-.02.012-.021.013-.02.013-.02.014-.019.014-.019.014-.019.015-.018.016-.018.016-.018.016-.017.017-.017.017-.016.018-.016.018-.016.018-.015.019-.014.019-.014.019-.014.02-.013.02-.013.021-.012.02-.012.022-.012.021-.01.022-.011.022-.009.022-.01.022-.008.023-.008.023-.008.024-.007.023-.006.024-.006.024-.006.025-.004.024-.004.025-.004.025-.003.025-.002.025-.002.026-.001.025v.052l.001.025.002.026.002.025.003.025.004.025.004.025.004.024.006.025.006.024.006.024.007.023.008.024.008.023.008.023.01.022.009.022.011.022.01.022.012.021.012.022.012.02.013.021.013.02.014.02.014.019.014.019.015.019.016.018.016.018.016.018.017.017.017.017.018.016.018.016.018.016.019.015.019.014.019.014.02.014.02.013.021.013.02.012.022.012.021.012.022.01.022.011.022.009.022.01.023.008.023.008.024.008.023.007.024.006.024.006.025.006.024.004.025.004.025.004.025.003.025.002.026.002.025.001h.052l.025-.001.026-.002.025-.002.025-.003.025-.004.025-.004.024-.004.025-.006.024-.006.024-.006.023-.007.024-.008.023-.008.023-.008.022-.01.022-.009.022-.011.022-.01.021-.012.022-.012.02-.012.021-.013.02-.013.02-.014.019-.014.019-.014.019-.015.018-.016.018-.016.018-.016.017-.017.017-.017.016-.018.016-.018.016-.018.015-.019.014-.019.014-.019.014-.02.013-.02.013-.021.012-.02.012-.022.012-.021.01-.022.011-.022.009-.022.01-.022.008-.023.008-.023.008-.024.007-.023.006-.024.006-.024.006-.025.004-.024.004-.025.004-.025.003-.025.002-.025.002-.026.001-.025v-.052l-.001-.025-.002-.026-.002-.025-.003-.025-.004-.025-.004-.025-.004-.024-.006-.025-.006-.024-.006-.024-.007-.023-.008-.024-.008-.023-.008-.023-.01-.022-.009-.022-.011-.022-.01-.022-.012-.021-.012-.022-.012-.02-.013-.021-.013-.02-.014-.02-.014-.019-.014-.019-.015-.019-.016-.018-.016-.018-.016-.018-.017-.017-.017-.017-.018-.016-.018-.016-.018-.016-.019-.015-.019-.014-.019-.014-.02-.014-.02-.013-.021-.013-.02-.012-.022-.012-.021-.012-.022-.01-.022-.011-.022-.009-.022-.01-.023-.008-.023-.008-.024-.008-.023-.007-.024-.006-.024-.006-.025-.006-.024-.004-.025-.004-.025-.004-.025-.003-.025-.002-.026-.002L13.026 6h-.052z"/></g><path d="M7.5 12.377c1.882 1.444 3.876 1.55 6 0" fill="none" stroke="#000"/></g><path d="M10.597 2.001l.096.001.097.004.096.004.095.005.096.007.095.008.094.009.095.01.094.011.093.013.094.013.092.015.093.016.092.017.092.018.091.02.091.02.09.022.09.022.09.024.089.025.089.026.088.026.088.028.087.029.087.03.087.031.086.032.085.034.085.034.084.035.084.036.083.037.083.038.082.039.082.04.081.041.081.042.08.043.079.044.079.044.078.046.078.046.077.048.076.048.076.049.075.051.075.051.073.051.074.053.072.054.072.054.071.056.071.056.07.057.069.057.068.059.068.059.067.06.066.061.065.062.065.062.064.064.064.064.062.065.062.065.061.066.06.067.059.068.059.068.057.069.057.07.056.071.056.071.054.072.054.072.053.074.051.073.051.075.051.075.049.076.048.076.048.077.046.078.046.078.044.079.044.079.043.08.042.081.041.081.04.082.039.082.038.083.037.083.036.084.035.084.034.085.034.085.032.086.031.087.03.087.029.087.028.088.026.088.026.089.025.089.024.09.022.09.022.09.02.091.02.091.018.092.017.092.016.093.015.092.013.094.013.093.011.094.01.095.009.094.008.095.007.096.005.095.004.096.004.097.001.096L18 9.5l-.001.097-.001.096-.004.097-.004.096-.005.095-.007.096-.008.095-.009.094-.01.095-.011.094-.013.093-.013.094-.015.092-.016.093-.017.092-.018.092-.02.091-.02.091-.022.09-.022.09-.024.09-.025.089-.026.089-.026.088-.028.088-.029.087-.03.087-.031.087-.032.086-.034.085-.034.085-.035.084-.036.084-.037.083-.038.083-.039.082-.04.082-.041.081-.042.081-.043.08-.044.079-.044.079-.046.078-.046.078-.048.077-.048.076-.049.076-.051.075-.051.075-.051.073-.053.074-.054.072-.054.072-.056.071-.056.071-.057.07-.057.069-.059.068-.059.068-.06.067-.061.066-.062.065-.062.065-.064.064-.064.064-.065.062-.065.062-.066.061-.067.06-.068.059-.068.059-.069.057-.07.057-.071.056-.071.056-.072.054-.072.054-.074.053-.073.051-.075.051-.075.051-.076.049-.076.048-.077.048-.078.046-.078.046-.079.044-.079.044-.08.043-.081.042-.081.041-.082.04-.082.039-.083.038-.083.037-.084.036-.084.035-.085.034-.085.034-.086.032-.087.031-.087.03-.087.029-.088.028-.088.026-.089.026-.089.025-.09.024-.09.022-.09.022-.091.02-.091.02-.092.018-.092.017-.093.016-.092.015-.094.013-.093.013-.094.011-.095.01-.094.009-.095.008-.096.007-.095.005-.096.004-.097.004-.096.001L10.5 17l-.097-.001-.096-.001-.097-.004-.096-.004-.095-.005-.096-.007-.095-.008-.094-.009-.095-.01-.094-.011-.093-.013-.094-.013-.092-.015-.093-.016-.092-.017-.092-.018-.091-.02-.091-.02-.09-.022-.09-.022-.09-.024-.089-.025-.089-.026-.088-.026-.088-.028-.087-.029-.087-.03-.087-.031-.086-.032-.085-.034-.085-.034-.084-.035-.084-.036-.083-.037-.083-.038-.082-.039-.082-.04-.081-.041-.081-.042-.08-.043-.079-.044-.079-.044-.078-.046-.078-.046-.077-.048-.076-.048-.076-.049-.075-.051-.075-.051-.073-.051-.074-.053-.072-.054-.072-.054-.071-.056-.071-.056-.07-.057-.069-.057-.068-.059-.068-.059-.067-.06-.066-.061-.065-.062-.065-.062-.064-.064-.064-.064-.062-.065-.062-.065-.061-.066-.06-.067-.059-.068-.059-.068-.057-.069-.057-.07-.056-.071-.056-.071-.054-.072-.054-.072-.053-.074-.051-.073-.051-.075-.051-.075-.049-.076-.048-.076-.048-.077-.046-.078-.046-.078-.044-.079-.044-.079-.043-.08-.042-.081-.041-.081-.04-.082-.039-.082-.038-.083-.037-.083-.036-.084-.035-.084-.034-.085-.034-.085-.032-.086-.031-.087-.03-.087-.029-.087-.028-.088-.026-.088-.026-.089-.025-.089-.024-.09-.022-.09-.022-.09-.02-.091-.02-.091-.018-.092-.017-.092-.016-.093-.015-.092-.013-.094-.013-.093-.011-.094-.01-.095-.009-.094-.008-.095-.007-.096-.005-.095-.004-.096-.004-.097-.001-.096L3 9.5l.001-.097.001-.096.004-.097.004-.096.005-.095.007-.096.008-.095.009-.094.01-.095.011-.094.013-.093.013-.094.015-.092.016-.093.017-.092.018-.092.02-.091.02-.091.022-.09.022-.09.024-.09.025-.089.026-.089.026-.088.028-.088.029-.087.03-.087.031-.087.032-.086.034-.085.034-.085.035-.084.036-.084.037-.083.038-.083.039-.082.04-.082.041-.081.042-.081.043-.08.044-.079.044-.079.046-.078.046-.078.048-.077.048-.076.049-.076.051-.075.051-.075.051-.073.053-.074.054-.072.054-.072.056-.071.056-.071.057-.07.057-.069.059-.068.059-.068.06-.067.061-.066.062-.065.062-.065.064-.064.064-.064.065-.062.065-.062.066-.061.067-.06.068-.059.068-.059.069-.057.07-.057.071-.056.071-.056.072-.054.072-.054.074-.053.073-.051.075-.051.075-.051.076-.049.076-.048.077-.048.078-.046.078-.046.079-.044.079-.044.08-.043.081-.042.081-.041.082-.04.082-.039.083-.038.083-.037.084-.036.084-.035.085-.034.085-.034.086-.032.087-.031.087-.03.087-.029.088-.028.088-.026.089-.026.089-.025.09-.024.09-.022.09-.022.091-.02.091-.02.092-.018.092-.017.093-.016.092-.015.094-.013.093-.013.094-.011.095-.01.094-.009.095-.008.096-.007.095-.005.096-.004.097-.004.096-.001L10.5 2l.097.001zm-.181 1l-.084.001-.084.003-.083.004-.083.004-.083.006-.082.007-.082.008-.082.008-.081.01-.082.011-.08.012-.081.013-.08.014-.08.014-.079.016-.079.017-.079.018-.078.018-.078.02-.078.02-.077.022-.077.022-.076.023-.076.024-.076.026-.075.025-.075.027-.074.028-.074.029-.073.029-.073.031-.073.031-.072.032-.072.033-.071.034-.071.034-.07.036-.07.036-.069.037-.069.038-.068.039-.068.04-.067.04-.067.041-.066.042-.066.043-.065.043-.065.044-.064.045-.063.046-.063.047-.062.047-.062.048-.061.048-.061.05-.06.05-.059.051-.059.051-.058.052-.058.053-.056.054-.057.054-.055.055-.055.055-.054.057-.054.056-.053.058-.052.058-.051.059-.051.059-.05.06-.05.061-.048.061-.048.062-.047.062-.047.063-.046.063-.045.064-.044.065-.043.065-.043.066-.042.066-.041.067-.04.067-.04.068-.039.068-.038.069-.037.069-.036.07-.036.07-.034.071-.034.071-.033.072-.032.072-.031.073-.031.073-.029.073-.029.074-.028.074-.027.075-.025.075-.026.076-.024.076-.023.076-.022.077-.022.077-.02.078-.02.078-.018.078-.018.079-.017.079-.016.079-.014.08-.014.08-.013.081-.012.08-.011.082-.01.081-.008.082-.008.082-.007.082-.006.083-.004.083-.004.083-.003.084-.001.084L4 9.5l.001.084.001.084.003.084.004.083.004.083.006.083.007.082.008.082.008.082.01.081.011.082.012.08.013.081.014.08.014.08.016.079.017.079.018.079.018.078.02.078.02.078.022.077.022.077.023.076.024.076.026.076.025.075.027.075.028.074.029.074.029.073.031.073.031.073.032.072.033.072.034.071.034.071.036.07.036.07.037.069.038.069.039.068.04.068.04.067.041.067.042.066.043.066.043.065.044.065.045.064.046.063.047.063.047.062.048.062.048.061.05.061.05.06.051.059.051.059.052.058.053.058.054.056.054.057.055.055.055.055.057.054.056.054.058.053.058.052.059.051.059.051.06.05.061.05.061.048.062.048.062.047.063.047.063.046.064.045.065.044.065.043.066.043.066.042.067.041.067.04.068.04.068.039.069.038.069.037.07.036.07.036.071.034.071.034.072.033.072.032.073.031.073.031.073.029.074.029.074.028.075.027.075.025.076.026.076.024.076.023.077.022.077.022.078.02.078.02.078.018.079.018.079.017.079.016.08.014.08.014.081.013.08.012.082.011.081.01.082.008.082.008.082.007.083.006.083.004.083.004.084.003.084.001.084.001.084-.001.084-.001.084-.003.083-.004.083-.004.083-.006.082-.007.082-.008.082-.008.081-.01.082-.011.08-.012.081-.013.08-.014.08-.014.079-.016.079-.017.079-.018.078-.018.078-.02.078-.02.077-.022.077-.022.076-.023.076-.024.076-.026.075-.025.075-.027.074-.028.074-.029.073-.029.073-.031.073-.031.072-.032.072-.033.071-.034.071-.034.07-.036.07-.036.069-.037.069-.038.068-.039.068-.04.067-.04.067-.041.066-.042.066-.043.065-.043.065-.044.064-.045.063-.046.063-.047.062-.047.062-.048.061-.048.061-.05.06-.05.059-.051.059-.051.058-.052.058-.053.056-.054.057-.054.055-.055.055-.055.054-.057.054-.056.053-.058.052-.058.051-.059.051-.059.05-.06.05-.061.048-.061.048-.062.047-.062.047-.063.046-.063.045-.064.044-.065.043-.065.043-.066.042-.066.041-.067.04-.067.04-.068.039-.068.038-.069.037-.069.036-.07.036-.07.034-.071.034-.071.033-.072.032-.072.031-.073.031-.073.029-.073.029-.074.028-.074.027-.075.025-.075.026-.076.024-.076.023-.076.022-.077.022-.077.02-.078.02-.078.018-.078.018-.079.017-.079.016-.079.014-.08.014-.08.013-.081.012-.08.011-.082.01-.081.008-.082.008-.082.007-.082.006-.083.004-.083.004-.083.003-.084.001-.084L17 9.5l-.001-.084-.001-.084-.003-.084-.004-.083-.004-.083-.006-.083-.007-.082-.008-.082-.008-.082-.01-.081-.011-.082-.012-.08-.013-.081-.014-.08-.014-.08-.016-.079-.017-.079-.018-.079-.018-.078-.02-.078-.02-.078-.022-.077-.022-.077-.023-.076-.024-.076-.026-.076-.025-.075-.027-.075-.028-.074-.029-.074-.029-.073-.031-.073-.031-.073-.032-.072-.033-.072-.034-.071-.034-.071-.036-.07-.036-.07-.037-.069-.038-.069-.039-.068-.04-.068-.04-.067-.041-.067-.042-.066-.043-.066-.043-.065-.044-.065-.045-.064-.046-.063-.047-.063-.047-.062-.048-.062-.048-.061-.05-.061-.05-.06-.051-.059-.051-.059-.052-.058-.053-.058-.054-.056-.054-.057-.055-.055-.055-.055-.057-.054-.056-.054-.058-.053-.058-.052-.059-.051-.059-.051-.06-.05-.061-.05-.061-.048-.062-.048-.062-.047-.063-.047-.063-.046-.064-.045-.065-.044-.065-.043-.066-.043-.066-.042-.067-.041-.067-.04-.068-.04-.068-.039-.069-.038-.069-.037-.07-.036-.07-.036-.071-.034-.071-.034-.072-.033-.072-.032-.073-.031-.073-.031-.073-.029-.074-.029-.074-.028-.075-.027-.075-.025-.076-.026-.076-.024-.076-.023-.077-.022-.077-.022-.078-.02-.078-.02-.078-.018-.079-.018-.079-.017-.079-.016-.08-.014-.08-.014-.081-.013-.08-.012-.082-.011-.081-.01-.082-.008-.082-.008-.082-.007-.083-.006-.083-.004-.083-.004-.084-.003-.084-.001L10.5 3l-.084.001z"/></g><defs><radialGradient id="_Radial1" cx="0" cy="0" r="1" gradientUnits="userSpaceOnUse" gradientTransform="matrix(5.45455 13 -14.9152 7.5293 4.364 3)"><stop offset="0" stop-color="#fff"/><stop offset=".36" stop-color="#fafcff"/><stop offset=".66" stop-color="#eaf2fd"/><stop offset="1" stop-color="#89b7f0"/></radialGradient><radialGradient id="_Radial3" cx="0" cy="0" r="1" gradientUnits="userSpaceOnUse" gradientTransform="translate(8.32 6.52)"><stop offset="0" stop-color="#fff"/><stop offset="1"/></radialGradient><radialGradient id="_Radial4" cx="0" cy="0" r="1" gradientUnits="userSpaceOnUse" gradientTransform="translate(13.32 6.52)"><stop offset="0" stop-color="#fff"/><stop offset="1"/></radialGradient></defs></svg>