<svg width="160" height="66" xmlns="http://www.w3.org/2000/svg" fill-rule="evenodd" clip-rule="evenodd" stroke-linejoin="round" stroke-miterlimit="2"><ellipse cx="128.5" cy="43" rx="128.5" ry="43" fill="#143257" transform="rotate(-7.076 137.447 36.007) scale(.62784)"/><path d="M38.692 21.555h-4.429l-4.511 19.983-5.765.022-2.598-9.244-5.99.004v13.73h23.293V21.556zm-8.651 0H15.4v6.25h9.317l1.996 8.576 3.328-14.826z" fill="#fd3535"/><path d="M142.742 30.376c2.454 0 4.445-1.857 4.445-4.483 0-2.627-1.991-4.503-4.445-4.503s-4.466 1.876-4.466 4.503c0 2.626 2.012 4.483 4.466 4.483zm0-1.008c-1.931 0-3.32-1.382-3.32-3.475 0-2.094 1.389-3.476 3.32-3.476 1.91 0 3.299 1.382 3.299 3.476 0 2.093-1.388 3.475-3.3 3.475zm-1.81-1.283h1.226v-1.422h.724l.725 1.422h1.267l-.966-1.778c.523-.217.825-.69.825-1.224 0-1.007-.825-1.461-1.83-1.461h-1.972v4.463zm1.226-2.252V24.55h.503c.543 0 .765.256.765.632 0 .375-.262.651-.785.651h-.483zM56.996 36.521c0 1.574-.175 2.974-.525 4.198-.324 1.18-.799 2.187-1.373 2.93-.674.962-1.423 1.618-2.247 2.011-.824.394-1.848.613-3.121.613h-7.266v-31.79h6.417c1.323 0 2.347.087 3.021.262.7.175 1.348.568 1.948 1.137.649.612 1.123 1.399 1.448 2.448.324 1.006.474 2.187.474 3.542 0 1.53-.2 2.93-.65 4.154-.449 1.181-1.048 2.1-1.847 2.668v.175c1.124.393 2.023 1.224 2.697 2.492.674 1.312 1.024 3.018 1.024 5.16zm-5.843-13.03c0-.525-.075-1.05-.225-1.619-.15-.524-.4-.918-.699-1.137a1.605 1.605 0 00-1.074-.393c-.399-.044-1.023-.044-1.822-.044h-.325v6.734h.574c.774 0 1.324 0 1.623-.043.325-.044.65-.175.974-.438.375-.306.624-.7.774-1.224.125-.569.2-1.18.2-1.837zm1.148 12.9c0-1.007-.124-1.75-.35-2.319a2.668 2.668 0 00-1.023-1.268c-.274-.175-.649-.262-1.148-.306H47.008v7.959h.25c1.173 0 1.997-.044 2.447-.044.45-.044.924-.219 1.398-.568.424-.35.724-.788.899-1.4.2-.612.3-1.268.3-2.055zM72.077 46.273h-4.27v-2.668c-.748 1.093-1.422 1.924-2.047 2.493-.599.568-1.348.83-2.197.83-1.348 0-2.422-.743-3.17-2.23-.775-1.53-1.15-3.76-1.15-6.777V22.31h4.295v11.894c0 1.224.025 2.23.05 3.017.05.787.125 1.443.275 1.968.125.524.324.874.599 1.137.275.262.65.393 1.124.393.3 0 .674-.131 1.073-.393a4.52 4.52 0 001.149-1.05V22.31h4.27v23.963zM75.326 13.04h4.27v33.233h-4.27zM82.861 13.04h4.27v33.233h-4.27zM97.412 46.929c-2.572 0-4.57-1.094-5.943-3.28-1.373-2.143-2.072-5.247-2.072-9.227 0-3.935.649-7.04 1.947-9.358 1.274-2.36 3.071-3.498 5.369-3.498 2.097 0 3.67.962 4.744 2.93 1.048 2.012 1.573 4.81 1.573 8.527v2.667H93.69c.025 1.137.175 2.056.4 2.799.225.743.524 1.356.899 1.793a3.66 3.66 0 001.273.962c.5.175 1.024.262 1.598.262.5 0 .999-.087 1.473-.262a6.986 6.986 0 001.324-.787c.35-.263.674-.569.948-.875.3-.306.55-.568.724-.83h.475v6.165c-.35.262-.674.481-.974.7a8.835 8.835 0 01-1.173.612c-.475.219-.95.393-1.449.48a6.784 6.784 0 01-1.797.22zm1.423-15.743c-.025-1.574-.25-2.754-.624-3.585-.4-.831-1-1.268-1.823-1.268-.824 0-1.473.437-1.948 1.311-.449.875-.724 2.056-.774 3.542h5.169zM110.464 46.754c-1.723 0-2.997-.656-3.796-1.88-.774-1.269-1.173-3.324-1.173-6.166V27.513h-1.648V22.31h1.648v-6.866h4.27v6.866h4.094v5.203h-4.095v10.67c0 .656.075 1.224.2 1.705.1.481.3.875.6 1.181.3.306.699.437 1.273.437.225 0 .524-.087.874-.262.374-.175.649-.306.774-.437h.374v5.247c-.45.219-.949.394-1.473.525-.524.087-1.148.175-1.922.175zM119.865 46.273h-4.27V22.31h4.27v23.963zm.125-27.374h-4.495v-5.86h4.495v5.86zM135.964 46.273h-4.295V34.379c0-.962-.025-1.924-.05-2.886-.05-.963-.15-1.662-.25-2.143-.15-.525-.374-.918-.649-1.137-.274-.262-.649-.35-1.098-.35-.35 0-.7.088-1.074.306a7.8 7.8 0 00-1.148 1.093v17.01h-4.27V22.31h4.27v2.623c.699-1.05 1.398-1.836 2.047-2.405.674-.612 1.398-.874 2.197-.874 1.398 0 2.472.743 3.221 2.317.724 1.53 1.099 3.76 1.099 6.69v15.612z" fill="#fff" fill-rule="nonzero"/></svg>