<svg width="13" height="13" xmlns="http://www.w3.org/2000/svg" fill-rule="evenodd" clip-rule="evenodd" stroke-linejoin="round" stroke-miterlimit="2"><path d="M6.584.001l.084.001.083.003.083.003.083.005L7 .019l.082.007.082.008.082.008.081.01.082.011.08.012.081.013.08.014.08.014.079.016.079.017.079.018.079.018.078.02.077.02.078.022.077.022.076.023.076.025.076.025.075.026.075.027.074.027.074.029.074.03.073.03.073.031.072.033.072.033.071.033.071.035.07.036.07.036.069.037.069.038.068.039.068.039.067.041.067.041.066.042.066.042.065.044.065.044.064.045.063.046.063.046.062.047.062.048.061.049.061.049.06.05.059.051.058.051.058.052.058.053.057.054.056.054.055.055.055.055.054.056.054.057.053.058.052.058.051.058.051.059.05.06.049.061.049.061.048.062.047.062.046.063.046.063.045.064.044.065.044.065.042.066.042.066.041.067.041.067.039.068.039.068.038.069.037.069.036.07.036.07.035.071.033.071.033.072.033.072.031.073.03.073.03.074.029.074.027.074.027.075.026.075.025.076.025.076.023.076.022.077.022.078.02.077.02.078.018.079.018.079.017.079.016.079.014.08.014.08.013.081.012.08.011.082.01.081.008.082.008.082.007.082.006.083.005.083.003.083.003.083.001.084L13 6.5l-.001.084-.001.084-.003.083-.003.083-.005.083-.006.083-.007.082-.008.082-.008.082-.01.081-.011.082-.012.08-.013.081-.014.08-.014.08-.016.079-.017.079-.018.079-.018.079-.02.078-.02.077-.022.078-.022.077-.023.076-.025.076-.025.076-.026.075-.027.075-.027.074-.029.074-.03.074-.03.073-.031.073-.033.072-.033.072-.033.071-.035.071-.036.07-.036.07-.037.069-.038.069-.039.068-.039.068-.041.067-.041.067-.042.066-.042.066-.044.065-.044.065-.045.064-.046.063-.046.063-.047.062-.048.062-.049.061-.049.061-.05.06-.051.059-.051.058-.052.058-.053.058-.054.057-.054.056-.055.055-.055.055-.056.054-.057.054-.058.053-.058.052-.058.051-.059.051-.06.05-.061.049-.061.049-.062.048-.062.047-.063.046-.063.046-.064.045-.065.044-.065.044-.066.042-.066.042-.067.041-.067.041-.068.039-.068.039-.069.038-.069.037-.07.036-.07.036-.071.035-.071.033-.072.033-.072.033-.073.031-.073.03-.074.03-.074.029-.074.027-.075.027-.075.026-.076.025-.076.025-.076.023-.077.022-.078.022-.077.02-.078.02-.079.018-.079.018-.079.017-.079.016-.08.014-.08.014-.081.013-.08.012-.082.011-.081.01-.082.008-.082.008-.082.007-.083.006-.083.005-.083.003-.083.003-.084.001L6.5 13l-.084-.001-.084-.001-.083-.003-.083-.003-.083-.005L6 12.981l-.082-.007-.082-.008-.082-.008-.081-.01-.082-.011-.08-.012-.081-.013-.08-.014-.08-.014-.079-.016-.079-.017-.079-.018-.079-.018-.078-.02-.077-.02-.078-.022-.077-.022-.076-.023-.076-.025-.076-.025-.075-.026-.075-.027-.074-.027-.074-.029-.074-.03-.073-.03-.073-.031-.072-.033-.072-.033-.071-.033-.071-.035-.07-.036-.07-.036-.069-.037-.069-.038-.068-.039-.068-.039-.067-.041-.067-.041-.066-.042-.066-.042-.065-.044-.065-.044-.064-.045-.063-.046-.063-.046-.062-.047-.062-.048-.061-.049-.061-.049-.06-.05-.059-.051-.058-.051-.058-.052-.058-.053-.057-.054-.056-.054-.055-.055-.055-.055-.054-.056-.054-.057-.053-.058-.052-.058-.051-.058-.051-.059-.05-.06-.049-.061-.049-.061-.048-.062-.047-.062-.046-.063-.046-.063-.045-.064-.044-.065-.044-.065-.042-.066-.042-.066-.041-.067-.041-.067-.039-.068-.039-.068-.038-.069-.037-.069-.036-.07-.036-.07-.035-.071-.033-.071-.033-.072-.033-.072-.031-.073-.03-.073-.03-.074-.029-.074-.027-.074-.027-.075-.026-.075-.025-.076-.025-.076-.023-.076-.022-.077-.022-.078-.02-.077-.02-.078-.018-.079-.018-.079-.017-.079-.016-.079-.014-.08-.014-.08-.013-.081-.012-.08-.011-.082-.01-.081-.008-.082-.008-.082L.019 7l-.006-.083-.005-.083-.003-.083-.003-.083-.001-.084L0 6.5l.001-.084.001-.084.003-.083.003-.083.005-.083L.019 6l.007-.082.008-.082.008-.082.01-.081.011-.082.012-.08.013-.081.014-.08.014-.08.016-.079.017-.079.018-.079.018-.079.02-.078.02-.077.022-.078.022-.077.023-.076.025-.076.025-.076.026-.075.027-.075.027-.074.029-.074.03-.074.03-.073.031-.073.033-.072.033-.072.033-.071.035-.071.036-.07.036-.07.037-.069.038-.069.039-.068.039-.068.041-.067.041-.067.042-.066.042-.066.044-.065.044-.065.045-.064.046-.063.046-.063.047-.062.048-.062.049-.061.049-.061.05-.06.051-.059.051-.058.052-.058.053-.058.054-.057.054-.056.055-.055.055-.055.056-.054.057-.054.058-.053.058-.052.058-.051.059-.051.06-.05.061-.049.061-.049.062-.048.062-.047.063-.046.063-.046.064-.045.065-.044.065-.044.066-.042.066-.042.067-.041.067-.041.068-.039.068-.039.069-.038.069-.037.07-.036.07-.036.071-.035.071-.033.072-.033.072-.033.073-.031.073-.03.074-.03.074-.029.074-.027.075-.027.075-.026.076-.025.076-.025.076-.023.077-.022.078-.022.077-.02.078-.02.079-.018.079-.018.079-.017.079-.016.08-.014.08-.014.081-.013.08-.012.082-.011.081-.01.082-.008.082-.008L6 .019l.083-.006.083-.005.083-.003.083-.003.084-.001L6.5 0l.084.001zM6.429 1l-.071.002-.071.002-.071.003-.07.004-.07.005-.07.006-.069.006-.069.008-.069.008-.069.009-.068.01-.068.011-.068.012-.067.013-.068.013-.066.014-.067.015-.066.016-.066.016-.066.018-.065.018-.065.019-.065.019-.064.021-.064.021-.064.022-.063.023-.063.023-.062.024-.062.025-.062.026-.062.027-.061.027-.06.028-.061.028-.06.029-.059.03-.059.031-.059.032-.058.032-.058.033-.057.033-.057.034-.056.035-.056.035-.056.037-.055.036-.055.038-.054.038-.054.038-.053.04-.053.04-.052.04-.052.041-.051.042-.051.043-.05.043-.05.043-.049.044-.049.045-.048.045-.047.046-.047.047-.047.047-.046.047-.045.048-.045.049-.044.049-.043.05-.043.05-.043.051-.042.051-.041.052-.04.052-.04.053-.04.053-.038.054-.038.054-.038.055-.036.055-.037.056-.035.056-.035.056-.034.057-.033.057-.033.058-.032.058-.032.059-.031.059-.03.059-.029.06-.028.061-.028.06-.027.061-.027.062-.026.062-.025.062-.024.062-.023.063-.023.063-.022.064-.021.064-.021.064-.019.065-.019.065-.018.065-.018.066-.016.066-.016.066-.015.067-.014.066-.013.068-.013.067-.012.068-.011.068-.01.068-.009.069-.008.069-.008.069-.006.069-.006.07-.005.07-.004.07-.003.071-.002.071L1 6.429v.142l.002.071.002.071.003.071.004.07.005.07.006.07.006.069.008.069.008.069.009.069.01.068.011.068.012.068.013.067.013.068.014.066.015.067.016.066.016.066.018.066.018.065.019.065.019.065.021.064.021.064.022.064.023.063.023.063.024.062.025.062.026.062.027.062.027.061.028.06.028.061.029.06.03.059.031.059.032.059.032.058.033.058.033.057.034.057.035.056.035.056.037.056.036.055.038.055.038.054.038.054.04.053.04.053.04.052.041.052.042.051.043.051.043.05.043.05.044.049.045.049.045.048.046.047.047.047.047.047.047.046.048.045.049.045.049.044.05.043.05.043.051.043.051.042.052.041.052.04.053.04.053.04.054.038.054.038.055.038.055.036.056.037.056.035.056.035.057.034.057.033.058.033.058.032.059.032.059.031.059.03.06.029.061.028.06.028.061.027.062.027.062.026.062.025.062.024.063.023.063.023.064.022.064.021.064.021.065.019.065.019.065.018.066.018.066.016.066.016.067.015.066.014.068.013.067.013.068.012.068.011.068.01.069.009.069.008.069.008.069.006.07.006.07.005.07.004.071.003.071.002.071.002h.142l.071-.002.071-.002.071-.003.07-.004.07-.005.07-.006.069-.006.069-.008.069-.008.069-.009.068-.01.068-.011.068-.012.067-.013.068-.013.066-.014.067-.015.066-.016.066-.016.066-.018.065-.018.065-.019.065-.019.064-.021.064-.021.064-.022.063-.023.063-.023.062-.024.062-.025.062-.026.062-.027.061-.027.06-.028.061-.028.06-.029.059-.03.059-.031.059-.032.058-.032.058-.033.057-.033.057-.034.056-.035.056-.035.056-.037.055-.036.055-.038.054-.038.054-.038.053-.04.053-.04.052-.04.052-.041.051-.042.051-.043.05-.043.05-.043.049-.044.049-.045.048-.045.047-.046.047-.047.047-.047.046-.047.045-.048.045-.049.044-.049.043-.05.043-.05.043-.051.042-.051.041-.052.04-.052.04-.053.04-.053.038-.054.038-.054.038-.055.036-.055.037-.056.035-.056.035-.056.034-.057.033-.057.033-.058.032-.058.032-.059.031-.059.03-.059.029-.06.028-.061.028-.06.027-.061.027-.062.026-.062.025-.062.024-.062.023-.063.023-.063.022-.064.021-.064.021-.064.019-.065.019-.065.018-.065.018-.066.016-.066.016-.066.015-.067.014-.066.013-.068.013-.067.012-.068.011-.068.01-.068.009-.069.008-.069.008-.069.006-.069.006-.07.005-.07.004-.07.003-.071.002-.071.002-.071v-.142l-.002-.071-.002-.071-.003-.071-.004-.07-.005-.07-.006-.07-.006-.069-.008-.069-.008-.069-.009-.069-.01-.068-.011-.068-.012-.068-.013-.067-.013-.068-.014-.066-.015-.067-.016-.066-.016-.066-.018-.066-.018-.065-.019-.065-.019-.065-.021-.064-.021-.064-.022-.064-.023-.063-.023-.063-.024-.062-.025-.062-.026-.062-.027-.062-.027-.061-.028-.06-.028-.061-.029-.06-.03-.059-.031-.059-.032-.059-.032-.058-.033-.058-.033-.057-.034-.057-.035-.056-.035-.056-.037-.056-.036-.055-.038-.055-.038-.054-.038-.054-.04-.053-.04-.053-.04-.052-.041-.052-.042-.051-.043-.051-.043-.05-.043-.05-.044-.049-.045-.049-.045-.048-.046-.047-.047-.047-.047-.047-.047-.046-.048-.045-.049-.045-.049-.044-.05-.043-.05-.043-.051-.043-.051-.042-.052-.041-.052-.04-.053-.04-.053-.04-.054-.038-.054-.038-.055-.038-.055-.036-.056-.037-.056-.035-.056-.035-.057-.034-.057-.033-.058-.033-.058-.032-.059-.032-.059-.031-.059-.03-.06-.029-.061-.028-.06-.028-.061-.027-.062-.027-.062-.026-.062-.025-.062-.024-.063-.023-.063-.023-.064-.022-.064-.021-.064-.021-.065-.019-.065-.019-.065-.018-.066-.018-.066-.016-.066-.016-.067-.015-.066-.014-.068-.013-.067-.013-.068-.012-.068-.011-.068-.01-.069-.009-.069-.008-.069-.008-.069-.006-.07-.006-.07-.005-.07-.004-.071-.003-.071-.002L6.571 1h-.142z" fill="#aca899"/></svg>