<svg width="16" height="16" xmlns="http://www.w3.org/2000/svg" fill-rule="evenodd" clip-rule="evenodd" stroke-linecap="round" stroke-linejoin="round" stroke-miterlimit="1.5"><path d="M432.102 485.516H79V0h273.656l79.446 79.449v406.067z" fill="url(#_Radial1)" fill-rule="nonzero" transform="matrix(.02832 0 0 .02884 .763 1)"/><path d="M10.8.502l.049.008.048.012.047.017.044.021.043.026.04.03.036.034 2.25 2.29.032.037.029.039.024.042.02.044.017.045.012.048.007.047.002.049V15l-.003.052-.008.052-.013.05-.02.05-.023.046-.028.044-.033.04-.037.038-.041.033-.044.028-.047.024-.048.019-.051.013-.052.008L13 15.5H3l-.052-.003-.052-.008-.05-.013-.05-.02-.046-.023-.044-.028-.04-.033-.038-.037-.032-.041-.029-.044-.024-.047-.019-.049-.013-.05-.008-.052L2.5 15V1l.003-.052.008-.052.013-.05.02-.05.023-.046.029-.044.032-.04.037-.038.041-.033.044-.028.047-.024.048-.019.051-.013.052-.008L3 .5h7.75l.05.002zM3 1v14h10V3.29L10.75 1H3z"/><path d="M5 5V3m1 2V3m1 2V3m1 0v2m1 0V3m1 0v2m1 0V3M4 3v2m8-2v2m0-.995H4M11 4l-1 4c.667.905 1.333.919 2 0l-1-4v3" fill="none" stroke="#000" stroke-width=".5"/><path d="M7.591 9.385v.546l-1.65 3.865H4.868l1.65-3.623h-2.11v-.788h3.183zM8.054 13.796v-.571l1.452-1.917H8.11v-.788h2.692v.552l-1.458 1.936h1.49v.788h-2.78z" fill-rule="nonzero"/><defs><radialGradient id="_Radial1" cx="0" cy="0" r="1" gradientUnits="userSpaceOnUse" gradientTransform="matrix(0 450.836 -388.412 0 43.69 0)"><stop offset="0" stop-color="#fff"/><stop offset=".59" stop-color="#fffff8"/><stop offset=".81" stop-color="#fffee8"/><stop offset="1" stop-color="#fffdd7"/></radialGradient></defs></svg>