<svg width="16" height="16" xmlns="http://www.w3.org/2000/svg" fill-rule="evenodd" clip-rule="evenodd" stroke-linejoin="round" stroke-miterlimit="2"><g transform="matrix(.02832 0 0 .02884 .763 1)"><path d="M432.102 485.516H79V0h273.656l79.446 79.449v406.067z" fill="url(#_Linear1)" fill-rule="nonzero"/><clipPath id="a"><path d="M432.102 485.516H79V0h273.656l79.446 79.449v406.067z" clip-rule="nonzero"/></clipPath><g clip-path="url(#a)"><path d="M352.656 0v79.449h79.446L352.656 0z" fill="#5b676d" fill-rule="nonzero"/><path d="M353.225-15.596l.707.041.706.071.701.102.696.133.689.163.682.194.671.222.661.253.649.28.635.309.621.337.605.363.588.39.569.415.55.439.53.463.508.486 79.445 79.449.482.504.459.524.434.544.41.562.384.579.357.595.33.61.303.624.274.637.245.648.215.657.186.667.155.674.125.68.094.685.064.688.032.69.001.692-.031.69-.061.688-.092.686-.123.68-.154.674-.184.667-.213.659-.244.648-.272.638-.3.624-.329.611-.356.597-.382.58-.408.563-.433.545-.457.525-.481.505-.502.483-.524.462-.545.438-.563.413-.582.389-.598.364-.614.337-.629.31-.643.282-.654.254-.665.225-.675.196-.683.167-.689.137-.696.107-.699.076-.702.046-.703.015h-79.446l-.713-.016-.711-.047-.709-.078-.704-.11-.699-.14-.691-.171-.683-.202-.673-.231-.662-.261-.649-.289-.635-.318-.621-.346-.603-.373-.586-.398-.568-.425-.547-.448-.526-.473-.505-.495-.481-.517-.457-.538-.432-.557-.406-.576-.379-.593-.352-.609-.324-.624-.295-.637-.265-.65-.236-.661-.205-.671-.174-.679-.143-.686-.112-.692-.079-.696-.048-.699-.016-.7V0l.015-.696.048-.695.079-.692.11-.688.142-.682.172-.676.203-.667.233-.658.262-.647.292-.635.32-.621.348-.607.376-.59.401-.574.428-.556.452-.536.476-.516.499-.495.521-.472.543-.449.561-.424.581-.4.598-.374.615-.347.63-.32.643-.292.657-.264.667-.235.678-.205.686-.175.694-.145.699-.114.704-.084.707-.053.709-.021.709.009zm-.569 95.045h79.446L352.656 0v79.449z"/><path d="M255.56 154.941H131.965v242.75h44.156V290.209c0-35.967 40.192-69.673 90.564-69.673 26.482 0 44.782 13.828 44.782 34.587 0 35.047-36.782 68.043-82.372 70.263-9.41 0-20.096-.326-29.758-2.844V397.7h56.204c68.265 0 123.596-54.351 123.596-121.356.017-67.06-55.316-121.402-123.577-121.402" fill="#fff" fill-rule="nonzero"/></g><path d="M354.407-17.254l1.733.255 1.698.423 1.648.586 1.581.744 1.497.894 1.4 1.035 1.289 1.167 79.445 79.449 1.139 1.256 1.01 1.359.872 1.448.724 1.524.571 1.586.411 1.633.249 1.664.083 1.68v406.067l-.097 1.812-.289 1.793-.478 1.753-.663 1.694-.839 1.618-1.006 1.522-1.163 1.41-1.307 1.284-1.436 1.142-1.55.988-1.646.824-1.726.651-1.785.47-1.825.283-1.845.095H79l-1.845-.095-1.826-.283-1.785-.47-1.725-.651-1.647-.824-1.549-.988-1.437-1.142-1.306-1.284-1.163-1.41-1.007-1.522-.839-1.618-.662-1.694-.478-1.753-.289-1.793-.097-1.812V0l.097-1.813.289-1.792.478-1.753.662-1.695.839-1.617 1.007-1.522 1.163-1.411 1.306-1.283 1.437-1.142 1.549-.989 1.647-.824 1.725-.65 1.785-.47 1.826-.284L79-17.34h273.656l1.751.086zM79 0v485.516h353.102V79.449L352.656 0H79z"/></g><defs><linearGradient id="_Linear1" x1="0" y1="0" x2="1" y2="0" gradientUnits="userSpaceOnUse" gradientTransform="matrix(0 -485.516 692.079 0 255.551 485.516)"><stop offset="0" stop-color="#5b676d"/><stop offset=".16" stop-color="#444c51"/><stop offset=".35" stop-color="#30363a"/><stop offset="1" stop-color="#292e31"/></linearGradient></defs></svg>