<svg width="16" height="16" xmlns="http://www.w3.org/2000/svg" fill-rule="evenodd" clip-rule="evenodd" stroke-linecap="round" stroke-linejoin="round" stroke-miterlimit="1.5"><g transform="matrix(.02832 0 0 .02884 .763 1)"><path d="M432.102 485.516H79V0h273.656l79.446 79.449v406.067z" fill="url(#_Radial1)" fill-rule="nonzero"/><clipPath id="a"><path d="M432.102 485.516H79V0h273.656l79.446 79.449v406.067z" clip-rule="nonzero"/></clipPath><g clip-path="url(#a)"><path fill="url(#_Linear3)" d="M4 4h13v10H4z" transform="matrix(29.3745 0 0 50.9916 -61.325 -205.54)"/><g transform="matrix(14.0116 0 0 12.844 116.345 63.042)"><path fill="none" d="M3 3h14v14H3z"/><clipPath id="b"><path d="M3 3h14v14H3z"/></clipPath><g clip-path="url(#b)"><g transform="matrix(.93333 0 0 1 .2 0)"><circle cx="14" cy="7" r="2" fill="url(#_Linear5)"/><path d="M14.103 5.003l.101.007.1.013.099.018.097.022.094.027.093.031.091.036.089.04.086.045.084.048.081.052.078.056.076.059.072.063.07.066.066.07.063.072.059.076.056.078.052.081.048.084.045.086.04.089.036.091.031.093.027.094.022.097.018.099.013.1.007.101L16 7l-.003.103-.007.101-.013.1-.018.099-.022.097-.027.094-.031.093-.036.091-.04.089-.045.086-.048.084-.052.081-.056.078-.059.076-.063.072-.066.07-.07.066-.072.063-.076.059-.078.056-.081.052-.084.048-.086.045-.089.04-.091.036-.093.031-.094.027-.097.022-.099.018-.1.013-.101.007L14 9l-.103-.003-.101-.007-.1-.013-.099-.018-.097-.022-.094-.027-.093-.031-.091-.036-.089-.04-.086-.045-.084-.048-.081-.052-.078-.056-.076-.059-.072-.063-.07-.066-.066-.07-.063-.072-.059-.076-.056-.078-.052-.081-.048-.084-.045-.086-.04-.089-.036-.091-.031-.093-.027-.094-.022-.097-.018-.099-.013-.1-.007-.101L12 7l.003-.103.007-.101.013-.1.018-.099.022-.097.027-.094.031-.093.036-.091.04-.089.045-.086.048-.084.052-.081.056-.078.059-.076.063-.072.066-.07.07-.066.072-.063.076-.059.078-.056.081-.052.084-.048.086-.045.089-.04.091-.036.093-.031.094-.027.097-.022.099-.018.1-.013.101-.007L14 5l.103.003zm-.185.404l-.081.006-.08.011-.079.014-.077.017-.075.022-.074.025-.072.028-.071.032-.069.035-.066.039-.065.041-.063.045-.06.047-.058.051-.055.053-.053.055-.051.058-.047.06-.045.063-.041.065-.038.066-.036.069-.032.071-.028.072-.025.074-.022.075-.017.077-.014.079-.011.08-.006.081-.002.082.002.082.006.081.011.08.014.079.017.077.022.075.025.074.028.072.032.071.036.069.038.066.041.065.045.063.047.06.051.058.053.055.055.053.058.051.06.047.063.045.065.041.066.039.069.035.071.032.072.028.074.025.075.022.077.017.079.014.08.011.081.006.082.002.082-.002.081-.006.08-.011.079-.014.077-.017.075-.022.074-.025.072-.028.071-.032.069-.035.066-.039.065-.041.063-.045.06-.047.058-.051.055-.053.053-.055.051-.058.047-.06.045-.063.041-.065.038-.066.036-.069.032-.071.028-.072.025-.074.022-.075.017-.077.014-.079.011-.08.006-.081.002-.082-.002-.082-.006-.081-.011-.08-.014-.079-.017-.077-.022-.075-.025-.074-.028-.072-.032-.071-.036-.069-.038-.066-.041-.065-.045-.063-.047-.06-.051-.058-.053-.055-.055-.053-.058-.051-.06-.047-.063-.045-.065-.041-.066-.039-.069-.035-.071-.032-.072-.028-.074-.025-.075-.022-.077-.017-.079-.014-.08-.011-.081-.006L14 5.405l-.082.002z"/></g><path d="M15 16l-5-5H8l-5 5v1h12v-1" fill="silver" stroke="#000" stroke-width=".51" transform="matrix(.93333 0 0 1.12415 3.933 -1.11)"/><path d="M15 16l-5-5H8l-5 5v1h12v-1m-4.187-4.187l-.813.739M13.206 17l-3-2.669M8.253 17l-2-1.779" fill="gray" stroke="#000" stroke-width=".38" transform="matrix(.93333 0 0 1.12415 .2 -2.11)"/></g><path d="M17 17H3V3h14v14zM3.504 3.54v12.92h12.992V3.54H3.504z"/></g><path d="M353.225-15.596l.707.041.706.071.701.102.696.133.689.163.682.194.671.222.661.253.649.28.635.309.621.337.605.363.588.39.569.415.55.439.53.463.508.486 79.445 79.449.482.504.459.524.434.544.41.562.384.579.357.595.33.61.303.624.274.637.245.648.215.657.186.667.155.674.125.68.094.685.064.688.032.69.001.692-.031.69-.061.688-.092.686-.123.68-.154.674-.184.667-.213.659-.244.648-.272.638-.3.624-.329.611-.356.597-.382.58-.408.563-.433.545-.457.525-.481.505-.502.483-.524.462-.545.438-.563.413-.582.389-.598.364-.614.337-.629.31-.643.282-.654.254-.665.225-.675.196-.683.167-.689.137-.696.107-.699.076-.702.046-.703.015h-79.446l-.713-.016-.711-.047-.709-.078-.704-.11-.699-.14-.691-.171-.683-.202-.673-.231-.662-.261-.649-.289-.635-.318-.621-.346-.603-.373-.586-.398-.568-.425-.547-.448-.526-.473-.505-.495-.481-.517-.457-.538-.432-.557-.406-.576-.379-.593-.352-.609-.324-.624-.295-.637-.265-.65-.236-.661-.205-.671-.174-.679-.143-.686-.112-.692-.079-.696-.048-.699-.016-.7V0l.015-.696.048-.695.079-.692.11-.688.142-.682.172-.676.203-.667.233-.658.262-.647.292-.635.32-.621.348-.607.376-.59.401-.574.428-.556.452-.536.476-.516.499-.495.521-.472.543-.449.561-.424.581-.4.598-.374.615-.347.63-.32.643-.292.657-.264.667-.235.678-.205.686-.175.694-.145.699-.114.704-.084.707-.053.709-.021.709.009zm-.569 95.045h79.446L352.656 0v79.449z"/></g><path d="M354.407-17.254l1.733.255 1.698.423 1.648.586 1.581.744 1.497.894 1.4 1.035 1.289 1.167 79.445 79.449 1.139 1.256 1.01 1.359.872 1.448.724 1.524.571 1.586.411 1.633.249 1.664.083 1.68v406.067l-.097 1.812-.289 1.793-.478 1.753-.663 1.694-.839 1.618-1.006 1.522-1.163 1.41-1.307 1.284-1.436 1.142-1.55.988-1.646.824-1.726.651-1.785.47-1.825.283-1.845.095H79l-1.845-.095-1.826-.283-1.785-.47-1.725-.651-1.647-.824-1.549-.988-1.437-1.142-1.306-1.284-1.163-1.41-1.007-1.522-.839-1.618-.662-1.694-.478-1.753-.289-1.793-.097-1.812V0l.097-1.813.289-1.792.478-1.753.662-1.695.839-1.617 1.007-1.522 1.163-1.411 1.306-1.283 1.437-1.142 1.549-.989 1.647-.824 1.725-.65 1.785-.47 1.826-.284L79-17.34h273.656l1.751.086zM79 0v485.516h353.102V79.449L352.656 0H79z"/></g><path d="M4.335 12.556v-1.525c0-.245.05-.45.15-.625a.978.978 0 01.35-.35c.165-.095.36-.14.59-.14.225 0 .42.045.585.14a.954.954 0 01.35.355c.055.1.095.205.12.32l-.675.17a.458.458 0 00-.06-.17.403.403 0 00-.135-.14.381.381 0 00-.19-.045.35.35 0 00-.315.18.612.612 0 00-.07.305v1.525c0 .125.025.225.07.305a.339.339 0 00.305.18c.055 0 .105-.01.15-.035a.361.361 0 00.12-.125.625.625 0 00.075-.325v-.365h-.34v-.63h1.04v.995c0 .25-.05.465-.15.64a.951.951 0 01-.345.345c-.155.085-.335.13-.55.13-.225 0-.415-.045-.575-.14a.978.978 0 01-.35-.35 1.23 1.23 0 01-.15-.625zM7.215 13.631v-.63h.35v-2.415h-.35v-.63h1.4v.63h-.35v2.415h.35v.63h-1.4zM9.48 13.631V9.956h1.975v.63H10.18v.745h.96v.63h-.96v1.67h-.7z" fill-rule="nonzero"/><defs><linearGradient id="_Linear3" x1="0" y1="0" x2="1" y2="0" gradientUnits="userSpaceOnUse" gradientTransform="matrix(0 10 -7.69231 0 10 4)"><stop offset="0" stop-color="#ffffa5"/><stop offset="1" stop-color="#fff"/></linearGradient><linearGradient id="_Linear5" x1="0" y1="0" x2="1" y2="0" gradientUnits="userSpaceOnUse" gradientTransform="matrix(0 4 -2.36686 0 13.846 5)"><stop offset="0" stop-color="#ffffd9"/><stop offset=".48" stop-color="#dede33"/><stop offset="1" stop-color="#d4d400"/></linearGradient><radialGradient id="_Radial1" cx="0" cy="0" r="1" gradientUnits="userSpaceOnUse" gradientTransform="matrix(0 589.555 -459.032 0 43.69 0)"><stop offset="0" stop-color="#fff"/><stop offset=".53" stop-color="#fafbff"/><stop offset="1" stop-color="#e9ecff"/></radialGradient></defs></svg>