<svg width="16" height="16" xmlns="http://www.w3.org/2000/svg" fill-rule="evenodd" clip-rule="evenodd" stroke-linecap="round" stroke-linejoin="round" stroke-miterlimit="1.5"><path d="M432.102 485.516H79V0h273.656l79.446 79.449v406.067z" fill="url(#_Radial1)" fill-rule="nonzero" transform="matrix(.02832 0 0 .02884 .763 1)"/><path d="M10.8.502l.049.008.048.012.047.017.044.021.043.026.04.03.036.034 2.25 2.29.032.037.029.039.024.042.02.044.017.045.012.048.007.047.002.049V15l-.003.052-.008.052-.013.05-.02.05-.023.046-.028.044-.033.04-.037.038-.041.033-.044.028-.047.024-.048.019-.051.013-.052.008L13 15.5H3l-.052-.003-.052-.008-.05-.013-.05-.02-.046-.023-.044-.028-.04-.033-.038-.037-.032-.041-.029-.044-.024-.047-.019-.049-.013-.05-.008-.052L2.5 15V1l.003-.052.008-.052.013-.05.02-.05.023-.046.029-.044.032-.04.037-.038.041-.033.044-.028.047-.024.048-.019.051-.013.052-.008L3 .5h7.75l.05.002zM3 1v14h10V3.29L10.75 1H3z"/><path d="M5 5V3m1 2V3m1 2V3m1 0v2m1 0V3m1 0v2m1 0V3M4 3v2m8-2v2m0-.995H4M11 4l-1 4c.667.905 1.333.919 2 0l-1-4v3" fill="none" stroke="#000" stroke-width=".5"/><path d="M6.675 11.15v1.752c-.097.12-.275.246-.529.384-.248.132-.583.204-.998.204-.507 0-.917-.18-1.225-.54-.308-.36-.464-.87-.464-1.53v-.24c0-.666.156-1.176.464-1.536.308-.36.701-.54 1.176-.54.53 0 .912.132 1.155.408.237.27.378.618.416 1.044h-.885c-.033-.21-.092-.372-.19-.492-.096-.114-.253-.168-.463-.168-.227 0-.405.102-.535.318-.129.21-.2.528-.2.96v.246c0 .852.276 1.278.816 1.278a.805.805 0 00.35-.06.596.596 0 00.184-.12v-.66h-.642v-.708h1.57zM7.057 13.43v-.422l.965-1.417h-.928v-.582h1.79v.408l-.969 1.43h.99v.583H7.057zM9.231 10.38c0-.105.037-.192.108-.261a.374.374 0 01.272-.106c.111 0 .202.037.272.106a.35.35 0 01.103.261c0 .11-.033.197-.103.266a.374.374 0 01-.272.106.374.374 0 01-.272-.106.356.356 0 01-.108-.266zm.722.629v2.42h-.68v-2.42h.68zM11.38 12.893c.128 0 .214-.064.264-.192a1.4 1.4 0 00.07-.463v-.05c0-.189-.025-.34-.074-.464-.05-.12-.137-.179-.264-.179-.157 0-.264.064-.322.193v.954c.062.133.169.201.326.201zm.169.583a.598.598 0 01-.28-.064.763.763 0 01-.215-.18v1.129h-.677v-3.352h.632l.024.224a.593.593 0 01.512-.27c.276 0 .486.11.63.334.145.225.22.523.22.89v.05c0 .354-.075.647-.22.881a.684.684 0 01-.626.358z" fill-rule="nonzero"/><defs><radialGradient id="_Radial1" cx="0" cy="0" r="1" gradientUnits="userSpaceOnUse" gradientTransform="matrix(0 450.836 -388.412 0 43.69 0)"><stop offset="0" stop-color="#fff"/><stop offset=".59" stop-color="#fffff8"/><stop offset=".81" stop-color="#fffee8"/><stop offset="1" stop-color="#fffdd7"/></radialGradient></defs></svg>