<?xml version="1.0" encoding="UTF-8" standalone="no"?>
<!DOCTYPE svg PUBLIC "-//W3C//DTD SVG 1.1//EN" "http://www.w3.org/Graphics/SVG/1.1/DTD/svg11.dtd">
<svg width="100%" height="100%" viewBox="0 0 16 16" version="1.1" xmlns="http://www.w3.org/2000/svg" xmlns:xlink="http://www.w3.org/1999/xlink" xml:space="preserve" xmlns:serif="http://www.serif.com/" style="fill-rule:evenodd;clip-rule:evenodd;stroke-linejoin:round;stroke-miterlimit:2;">
    <g id="Lilypond-Icon" serif:id="Lilypond Icon" transform="matrix(0.0283205,0,0,0.0288353,0.762683,1)">
        <path d="M432.102,485.516L79,485.516L79,0L352.656,0L432.102,79.449L432.102,485.516Z" style="fill:url(#_Linear1);fill-rule:nonzero;"/>
        <clipPath id="_clip2">
            <path d="M432.102,485.516L79,485.516L79,0L352.656,0L432.102,79.449L432.102,485.516Z" clip-rule="nonzero"/>
        </clipPath>
        <g clip-path="url(#_clip2)">
            <g transform="matrix(1.85035,0,0,1.81731,-168.171,-138.724)">
                <path d="M248.082,0.003C111.07,0.003 0,111.063 0,248.085C0,385.086 111.07,496.155 248.082,496.155C385.088,496.155 496.158,385.086 496.158,248.085C496.158,111.062 385.088,0.003 248.082,0.003Z" style="fill:url(#_Linear3);fill-rule:nonzero;"/>
                <clipPath id="_clip4">
                    <path d="M248.082,0.003C111.07,0.003 0,111.063 0,248.085C0,385.086 111.07,496.155 248.082,496.155C385.088,496.155 496.158,385.086 496.158,248.085C496.158,111.062 385.088,0.003 248.082,0.003Z" clip-rule="nonzero"/>
                </clipPath>
                <g clip-path="url(#_clip4)">
                    <path d="M248.082,0.003C145.107,0.003 56.793,62.739 19.266,152.079L476.893,152.079C439.365,62.739 351.052,0.003 248.082,0.003Z" style="fill:url(#_Radial5);fill-rule:nonzero;"/>
                </g>
            </g>
            <g transform="matrix(0.99634,0,0,0.97855,8.37969,34.6768)">
                <path d="M248.079,207.37C142.326,207.37 56.599,255.014 56.599,313.787C56.599,372.558 142.327,420.204 248.079,420.204C276.072,420.204 302.664,416.866 326.633,410.865C357.53,403.131 342.245,351.622 352.493,343.336C362.741,335.049 439.559,336.945 439.559,313.787C439.559,255.014 353.832,207.37 248.079,207.37Z" style="fill:rgb(97,153,77);fill-rule:nonzero;"/>
                <g>
                    <path d="M315.283,267.969C261.242,268.662 214.654,290.739 214.488,298.442C214.324,306.147 255.342,327.096 309.382,326.403C363.419,325.711 407.412,302.932 410.174,295.93C412.934,288.93 369.318,267.275 315.283,267.969Z" style="fill:rgb(232,227,209);fill-rule:nonzero;"/>
                    <path d="M174.509,267.969C120.474,267.276 76.858,288.93 79.618,295.93C82.38,302.932 126.373,325.71 180.41,326.403C234.45,327.096 275.468,306.147 275.304,298.442C275.138,290.738 228.55,268.662 174.509,267.969Z" style="fill:rgb(232,227,209);fill-rule:nonzero;"/>
                    <path d="M250.134,206.123C230.173,155.755 170.529,124.762 157.896,130.364C145.264,135.968 117.98,186.635 137.938,237.002C157.899,287.371 215.143,316.264 230.18,312.761C245.213,309.258 270.098,256.49 250.134,206.123Z" style="fill:rgb(232,227,209);fill-rule:nonzero;"/>
                    <path d="M326.733,127.006C312.421,126.935 259.528,160.715 248.379,212.938C237.23,265.164 271.128,313.251 286.354,316.121C301.579,318.993 353.555,282.413 364.708,230.19C375.858,177.967 341.041,127.076 326.733,127.006Z" style="fill:rgb(232,227,209);fill-rule:nonzero;"/>
                </g>
                <path d="M305.721,190.282C304.334,137.251 258.2,93.056 244.153,95.332C230.106,97.606 186.212,139.392 187.594,192.422C188.98,245.454 233.557,287.053 249.162,287.371C264.768,287.693 307.106,243.312 305.721,190.282Z" style="fill:rgb(224,220,206);fill-rule:nonzero;"/>
                <g>
                    <path d="M249.539,202.308C238.947,170.236 207.293,150.499 200.59,154.068C193.888,157.636 179.41,189.899 190.004,221.972C200.594,254.044 230.973,272.445 238.949,270.213C246.93,267.982 260.134,234.381 249.539,202.308Z" style="fill:rgb(244,224,40);fill-rule:nonzero;"/>
                    <path d="M290.188,151.93C282.593,151.885 254.524,173.395 248.608,206.65C242.691,239.905 260.679,270.527 268.76,272.354C276.84,274.181 304.421,250.889 310.338,217.635C316.256,184.378 297.783,151.975 290.188,151.93Z" style="fill:rgb(244,224,40);fill-rule:nonzero;"/>
                    <path d="M279.038,195.087C278.303,161.317 253.82,133.176 246.365,134.625C238.912,136.074 215.618,162.682 216.352,196.451C217.084,230.219 240.742,256.709 249.023,256.911C257.308,257.116 279.773,228.855 279.038,195.087Z" style="fill:rgb(244,224,40);fill-rule:nonzero;"/>
                </g>
                <g>
                    <path d="M393.935,195.205C389.344,181.821 330.425,167.267 284.776,196.264C239.127,225.261 221.112,286.964 228.625,300.213C236.139,313.462 292.135,328.152 337.783,299.154C383.435,270.158 398.522,208.591 393.935,195.205Z" style="fill:rgb(245,239,216);fill-rule:nonzero;"/>
                    <path d="M211.382,196.264C165.734,167.268 106.814,181.822 102.224,195.205C97.636,208.591 112.725,270.158 158.374,299.154C204.025,328.152 260.02,313.462 267.535,300.213C275.048,286.964 257.035,225.261 211.382,196.264Z" style="fill:rgb(245,239,216);fill-rule:nonzero;"/>
                </g>
            </g>
            <path d="M352.656,0L352.656,79.449L432.102,79.449L352.656,0Z" style="fill:rgb(107,187,193);fill-rule:nonzero;"/>
            <path d="M353.225,-15.596L353.932,-15.555L354.638,-15.484L355.339,-15.382L356.035,-15.249L356.724,-15.086L357.406,-14.892L358.077,-14.67L358.738,-14.417L359.387,-14.137L360.022,-13.828L360.643,-13.491L361.248,-13.128L361.836,-12.738L362.405,-12.323L362.955,-11.884L363.485,-11.421L363.993,-10.935L443.438,68.514L443.92,69.018L444.379,69.542L444.813,70.086L445.223,70.648L445.607,71.227L445.964,71.822L446.294,72.432L446.597,73.056L446.871,73.693L447.116,74.341L447.331,74.998L447.517,75.665L447.672,76.339L447.797,77.019L447.891,77.704L447.955,78.392L447.987,79.082L447.988,79.774L447.957,80.464L447.896,81.152L447.804,81.838L447.681,82.518L447.527,83.192L447.343,83.859L447.13,84.518L446.886,85.166L446.614,85.804L446.314,86.428L445.985,87.039L445.629,87.636L445.247,88.216L444.839,88.779L444.406,89.324L443.949,89.849L443.468,90.354L442.966,90.837L442.442,91.299L441.897,91.737L441.334,92.15L440.752,92.539L440.154,92.903L439.54,93.24L438.911,93.55L438.268,93.832L437.614,94.086L436.949,94.311L436.274,94.507L435.591,94.674L434.902,94.811L434.206,94.918L433.507,94.994L432.805,95.04L432.102,95.055L352.656,95.055L351.943,95.039L351.232,94.992L350.523,94.914L349.819,94.804L349.12,94.664L348.429,94.493L347.746,94.291L347.073,94.06L346.411,93.799L345.762,93.51L345.127,93.192L344.506,92.846L343.903,92.473L343.317,92.075L342.749,91.65L342.202,91.202L341.676,90.729L341.171,90.234L340.69,89.717L340.233,89.179L339.801,88.622L339.395,88.046L339.016,87.453L338.664,86.844L338.34,86.22L338.045,85.583L337.78,84.933L337.544,84.272L337.339,83.601L337.165,82.922L337.022,82.236L336.91,81.544L336.831,80.848L336.783,80.149L336.767,79.449L336.767,0L336.782,-0.696L336.83,-1.391L336.909,-2.083L337.019,-2.771L337.161,-3.453L337.333,-4.129L337.536,-4.796L337.769,-5.454L338.031,-6.101L338.323,-6.736L338.643,-7.357L338.991,-7.964L339.367,-8.554L339.768,-9.128L340.196,-9.684L340.648,-10.22L341.124,-10.736L341.623,-11.231L342.144,-11.703L342.687,-12.152L343.248,-12.576L343.829,-12.976L344.427,-13.35L345.042,-13.697L345.672,-14.017L346.315,-14.309L346.972,-14.573L347.639,-14.808L348.317,-15.013L349.003,-15.188L349.697,-15.333L350.396,-15.447L351.1,-15.531L351.807,-15.584L352.516,-15.605L353.225,-15.596ZM352.656,79.449L432.102,79.449L352.656,0L352.656,79.449Z"/>
        </g>
        <path d="M354.407,-17.254L356.14,-16.999L357.838,-16.576L359.486,-15.99L361.067,-15.246L362.564,-14.352L363.964,-13.317L365.253,-12.15L444.698,67.299L445.837,68.555L446.847,69.914L447.719,71.362L448.443,72.886L449.014,74.472L449.425,76.105L449.674,77.769L449.757,79.449L449.757,485.516L449.66,487.328L449.371,489.121L448.893,490.874L448.23,492.568L447.391,494.186L446.385,495.708L445.222,497.118L443.915,498.402L442.479,499.544L440.929,500.532L439.283,501.356L437.557,502.007L435.772,502.477L433.947,502.76L432.102,502.855L79,502.855L77.155,502.76L75.329,502.477L73.544,502.007L71.819,501.356L70.172,500.532L68.623,499.544L67.186,498.402L65.88,497.118L64.717,495.708L63.71,494.186L62.871,492.568L62.209,490.874L61.731,489.121L61.442,487.328L61.345,485.516L61.345,0L61.442,-1.813L61.731,-3.605L62.209,-5.358L62.871,-7.053L63.71,-8.67L64.717,-10.192L65.88,-11.603L67.186,-12.886L68.623,-14.028L70.172,-15.017L71.819,-15.841L73.544,-16.491L75.329,-16.961L77.155,-17.245L79,-17.34L352.656,-17.34L354.407,-17.254ZM79,0L79,485.516L432.102,485.516L432.102,79.449L352.656,0L79,0Z"/>
    </g>
    <defs>
        <linearGradient id="_Linear1" x1="0" y1="0" x2="1" y2="0" gradientUnits="userSpaceOnUse" gradientTransform="matrix(3.02697e-14,-485.516,692.079,4.1621e-14,255.551,485.516)"><stop offset="0" style="stop-color:rgb(13,102,114);stop-opacity:1"/><stop offset="0.45" style="stop-color:rgb(6,50,56);stop-opacity:1"/><stop offset="1" style="stop-color:rgb(4,36,40);stop-opacity:1"/></linearGradient>
        <linearGradient id="_Linear3" x1="0" y1="0" x2="1" y2="0" gradientUnits="userSpaceOnUse" gradientTransform="matrix(1.05165e-14,-171.747,171.745,1.05163e-14,248.079,343.497)"><stop offset="0" style="stop-color:rgb(173,221,233);stop-opacity:1"/><stop offset="0.19" style="stop-color:rgb(146,207,216);stop-opacity:1"/><stop offset="0.41" style="stop-color:rgb(119,193,200);stop-opacity:1"/><stop offset="1" style="stop-color:rgb(107,187,193);stop-opacity:1"/></linearGradient>
        <radialGradient id="_Radial5" cx="0" cy="0" r="1" gradientUnits="userSpaceOnUse" gradientTransform="matrix(5.84248e-15,-95.415,95.415,5.84248e-15,228.996,190.833)"><stop offset="0" style="stop-color:white;stop-opacity:1"/><stop offset="1" style="stop-color:rgb(173,221,233);stop-opacity:1"/></radialGradient>
    </defs>
</svg>
