<svg width="16" height="16" xmlns="http://www.w3.org/2000/svg" fill-rule="evenodd" clip-rule="evenodd" stroke-linejoin="round" stroke-miterlimit="2"><g transform="matrix(.02832 0 0 .02884 .763 1)"><path d="M432.102 485.516H79V0h273.656l79.446 79.449v406.067z" fill="url(#_Linear1)" fill-rule="nonzero"/><clipPath id="a"><path d="M432.102 485.516H79V0h273.656l79.446 79.449v406.067z" clip-rule="nonzero"/></clipPath><g clip-path="url(#a)"><g transform="matrix(1.85035 0 0 1.81731 -168.171 -138.724)"><path d="M248.082.003C111.07.003 0 111.063 0 248.085c0 137.001 111.07 248.07 248.082 248.07 137.006 0 248.076-111.069 248.076-248.07C496.158 111.062 385.088.003 248.082.003z" fill="url(#_Linear3)" fill-rule="nonzero"/><clipPath id="b"><path d="M248.082.003C111.07.003 0 111.063 0 248.085c0 137.001 111.07 248.07 248.082 248.07 137.006 0 248.076-111.069 248.076-248.07C496.158 111.062 385.088.003 248.082.003z" clip-rule="nonzero"/></clipPath><g clip-path="url(#b)"><path d="M248.082.003C145.107.003 56.793 62.739 19.266 152.079h457.627C439.365 62.739 351.052.003 248.082.003z" fill="url(#_Radial5)" fill-rule="nonzero"/></g></g><g fill-rule="nonzero"><path d="M255.55 237.599c-105.365 0-190.778 46.622-190.778 104.134 0 57.51 85.414 104.134 190.779 104.134 27.89 0 54.385-3.266 78.266-9.138 30.784-7.568 15.555-57.972 25.766-66.08 10.21-8.11 86.747-6.255 86.747-28.916 0-57.512-85.413-104.134-190.78-104.134z" fill="#61994d"/><g fill="#e8e3d1"><path d="M322.509 296.898c-53.843.678-100.26 22.281-100.426 29.82-.164 7.539 40.704 28.039 94.546 27.36 53.84-.677 97.672-22.967 100.423-29.819 2.75-6.85-40.706-28.04-94.543-27.361z"/><path d="M182.25 296.898c-53.837-.678-97.294 20.511-94.544 27.361 2.752 6.852 46.584 29.141 100.423 29.82 53.843.678 94.71-19.822 94.547-27.362-.165-7.539-46.583-29.141-100.426-29.82z"/><path d="M257.598 236.378c-19.888-49.287-79.313-79.615-91.9-74.134-12.586 5.484-39.77 55.064-19.885 104.351 19.888 49.289 76.922 77.562 91.904 74.134 14.978-3.428 39.772-55.064 19.881-104.35z"/><path d="M333.917 158.959c-14.26-.07-66.96 32.985-78.067 84.088-11.109 51.106 22.665 98.162 37.836 100.97 15.169 2.81 66.955-32.985 78.067-84.088 11.109-51.103-23.58-100.902-37.836-100.97z"/></g><path d="M312.982 220.877c-1.382-51.893-47.347-95.14-61.343-92.913-13.995 2.225-57.729 43.115-56.352 95.007 1.381 51.895 45.795 92.602 61.343 92.913 15.549.315 57.732-43.114 56.352-95.007z" fill="#e0dcce"/><g fill="#f4e028"><path d="M257.005 232.645c-10.553-31.384-42.091-50.697-48.77-47.205-6.677 3.492-21.102 35.062-10.547 66.448 10.552 31.384 40.82 49.39 48.766 47.206 7.952-2.183 21.108-35.064 10.551-66.449z"/><path d="M297.506 183.348c-7.568-.044-35.534 21.004-41.428 53.546-5.896 32.542 12.027 62.507 20.078 64.295 8.05 1.788 35.53-21.005 41.426-53.545 5.896-32.544-12.51-64.252-20.076-64.296z"/><path d="M286.396 225.58c-.732-33.046-25.125-60.584-32.553-59.166-7.426 1.418-30.634 27.455-29.903 60.5.73 33.044 24.3 58.965 32.551 59.163 8.255.2 30.638-27.454 29.905-60.498z"/></g><g fill="#f5efd8"><path d="M400.873 225.695c-4.574-13.097-63.278-27.34-108.76 1.036-45.482 28.375-63.43 88.754-55.945 101.72 7.486 12.964 63.277 27.339 108.758-1.037 45.485-28.374 60.517-88.62 55.947-101.72z"/><path d="M218.988 226.73c-45.48-28.373-104.185-14.131-108.758-1.035-4.572 13.099 10.462 73.345 55.944 101.719 45.484 28.376 101.274 14.001 108.762 1.036 7.485-12.965-10.462-73.344-55.948-101.72z"/></g></g><path d="M352.656 0v79.449h79.446L352.656 0z" fill="#6bbbc1" fill-rule="nonzero"/><path d="M353.225-15.596l.707.041.706.071.701.102.696.133.689.163.682.194.671.222.661.253.649.28.635.309.621.337.605.363.588.39.569.415.55.439.53.463.508.486 79.445 79.449.482.504.459.524.434.544.41.562.384.579.357.595.33.61.303.624.274.637.245.648.215.657.186.667.155.674.125.68.094.685.064.688.032.69.001.692-.031.69-.061.688-.092.686-.123.68-.154.674-.184.667-.213.659-.244.648-.272.638-.3.624-.329.611-.356.597-.382.58-.408.563-.433.545-.457.525-.481.505-.502.483-.524.462-.545.438-.563.413-.582.389-.598.364-.614.337-.629.31-.643.282-.654.254-.665.225-.675.196-.683.167-.689.137-.696.107-.699.076-.702.046-.703.015h-79.446l-.713-.016-.711-.047-.709-.078-.704-.11-.699-.14-.691-.171-.683-.202-.673-.231-.662-.261-.649-.289-.635-.318-.621-.346-.603-.373-.586-.398-.568-.425-.547-.448-.526-.473-.505-.495-.481-.517-.457-.538-.432-.557-.406-.576-.379-.593-.352-.609-.324-.624-.295-.637-.265-.65-.236-.661-.205-.671-.174-.679-.143-.686-.112-.692-.079-.696-.048-.699-.016-.7V0l.015-.696.048-.695.079-.692.11-.688.142-.682.172-.676.203-.667.233-.658.262-.647.292-.635.32-.621.348-.607.376-.59.401-.574.428-.556.452-.536.476-.516.499-.495.521-.472.543-.449.561-.424.581-.4.598-.374.615-.347.63-.32.643-.292.657-.264.667-.235.678-.205.686-.175.694-.145.699-.114.704-.084.707-.053.709-.021.709.009zm-.569 95.045h79.446L352.656 0v79.449z"/></g><path d="M354.407-17.254l1.733.255 1.698.423 1.648.586 1.581.744 1.497.894 1.4 1.035 1.289 1.167 79.445 79.449 1.139 1.256 1.01 1.359.872 1.448.724 1.524.571 1.586.411 1.633.249 1.664.083 1.68v406.067l-.097 1.812-.289 1.793-.478 1.753-.663 1.694-.839 1.618-1.006 1.522-1.163 1.41-1.307 1.284-1.436 1.142-1.55.988-1.646.824-1.726.651-1.785.47-1.825.283-1.845.095H79l-1.845-.095-1.826-.283-1.785-.47-1.725-.651-1.647-.824-1.549-.988-1.437-1.142-1.306-1.284-1.163-1.41-1.007-1.522-.839-1.618-.662-1.694-.478-1.753-.289-1.793-.097-1.812V0l.097-1.813.289-1.792.478-1.753.662-1.695.839-1.617 1.007-1.522 1.163-1.411 1.306-1.283 1.437-1.142 1.549-.989 1.647-.824 1.725-.65 1.785-.47 1.826-.284L79-17.34h273.656l1.751.086zM79 0v485.516h353.102V79.449L352.656 0H79z"/></g><defs><linearGradient id="_Linear1" x1="0" y1="0" x2="1" y2="0" gradientUnits="userSpaceOnUse" gradientTransform="matrix(0 -485.516 692.079 0 255.551 485.516)"><stop offset="0" stop-color="#0d6672"/><stop offset=".45" stop-color="#063238"/><stop offset="1" stop-color="#042428"/></linearGradient><linearGradient id="_Linear3" x1="0" y1="0" x2="1" y2="0" gradientUnits="userSpaceOnUse" gradientTransform="matrix(0 -171.747 171.745 0 248.079 343.497)"><stop offset="0" stop-color="#addde9"/><stop offset=".19" stop-color="#92cfd8"/><stop offset=".41" stop-color="#77c1c8"/><stop offset="1" stop-color="#6bbbc1"/></linearGradient><radialGradient id="_Radial5" cx="0" cy="0" r="1" gradientUnits="userSpaceOnUse" gradientTransform="rotate(-90 209.915 -19.082) scale(95.415)"><stop offset="0" stop-color="#fff"/><stop offset="1" stop-color="#addde9"/></radialGradient></defs></svg>