<svg width="16" height="16" xmlns="http://www.w3.org/2000/svg" fill-rule="evenodd" clip-rule="evenodd" stroke-linejoin="round" stroke-miterlimit="2"><g transform="matrix(.02832 0 0 .02884 .763 1)"><path d="M432.102 485.516H79V0h273.656l79.446 79.449v406.067z" fill="url(#_Radial1)" fill-rule="nonzero"/><clipPath id="a"><path d="M432.102 485.516H79V0h273.656l79.446 79.449v406.067z" clip-rule="nonzero"/></clipPath><g clip-path="url(#a)"><path d="M352.656 0v79.449h79.446L352.656 0z" fill="#434c77" fill-rule="nonzero"/><path d="M353.225-15.596l.707.041.706.071.701.102.696.133.689.163.682.194.671.222.661.253.649.28.635.309.621.337.605.363.588.39.569.415.55.439.53.463.508.486 79.445 79.449.482.504.459.524.434.544.41.562.384.579.357.595.33.61.303.624.274.637.245.648.215.657.186.667.155.674.125.68.094.685.064.688.032.69.001.692-.031.69-.061.688-.092.686-.123.68-.154.674-.184.667-.213.659-.244.648-.272.638-.3.624-.329.611-.356.597-.382.58-.408.563-.433.545-.457.525-.481.505-.502.483-.524.462-.545.438-.563.413-.582.389-.598.364-.614.337-.629.31-.643.282-.654.254-.665.225-.675.196-.683.167-.689.137-.696.107-.699.076-.702.046-.703.015h-79.446l-.713-.016-.711-.047-.709-.078-.704-.11-.699-.14-.691-.171-.683-.202-.673-.231-.662-.261-.649-.289-.635-.318-.621-.346-.603-.373-.586-.398-.568-.425-.547-.448-.526-.473-.505-.495-.481-.517-.457-.538-.432-.557-.406-.576-.379-.593-.352-.609-.324-.624-.295-.637-.265-.65-.236-.661-.205-.671-.174-.679-.143-.686-.112-.692-.079-.696-.048-.699-.016-.7V0l.015-.696.048-.695.079-.692.11-.688.142-.682.172-.676.203-.667.233-.658.262-.647.292-.635.32-.621.348-.607.376-.59.401-.574.428-.556.452-.536.476-.516.499-.495.521-.472.543-.449.561-.424.581-.4.598-.374.615-.347.63-.32.643-.292.657-.264.667-.235.678-.205.686-.175.694-.145.699-.114.704-.084.707-.053.709-.021.709.009zm-.569 95.045h79.446L352.656 0v79.449z"/><path d="M221.023 164.714l102.605-25.142v90.757c-4.995-2.044-11.238-3.066-17.69-3.066-3.955 0-11.447 2.248-16.234 4.701-8.95 4.702-14.36 12.265-14.36 20.237 0 4.292 1.873 8.994 4.578 12.264 3.538 3.884 9.158 5.928 16.65 5.928 8.95 0 18.315-3.884 25.808-10.425 6.868-6.336 10.406-14.513 10.406-24.733V106.049l-120.92 28.821v124.28c-4.163-1.84-9.99-2.861-16.442-2.861-3.954 0-8.117.817-12.696 2.657-11.446 4.497-18.523 12.878-18.523 22.076 0 4.293 1.873 8.994 4.58 12.265 3.537 3.883 9.365 5.927 16.857 5.927 12.28 0 27.472-8.789 32.26-19.01 1.664-3.679 3.121-10.833 3.121-15.943v-99.547z" fill="#dadeef" fill-rule="nonzero"/></g><path d="M354.407-17.254l1.733.255 1.698.423 1.648.586 1.581.744 1.497.894 1.4 1.035 1.289 1.167 79.445 79.449 1.139 1.256 1.01 1.359.872 1.448.724 1.524.571 1.586.411 1.633.249 1.664.083 1.68v406.067l-.097 1.812-.289 1.793-.478 1.753-.663 1.694-.839 1.618-1.006 1.522-1.163 1.41-1.307 1.284-1.436 1.142-1.55.988-1.646.824-1.726.651-1.785.47-1.825.283-1.845.095H79l-1.845-.095-1.826-.283-1.785-.47-1.725-.651-1.647-.824-1.549-.988-1.437-1.142-1.306-1.284-1.163-1.41-1.007-1.522-.839-1.618-.662-1.694-.478-1.753-.289-1.793-.097-1.812V0l.097-1.813.289-1.792.478-1.753.662-1.695.839-1.617 1.007-1.522 1.163-1.411 1.306-1.283 1.437-1.142 1.549-.989 1.647-.824 1.725-.65 1.785-.47 1.826-.284L79-17.34h273.656l1.751.086zM79 0v485.516h353.102V79.449L352.656 0H79z"/></g><path d="M4.423 13.67v-2.278h.538l.533 1.18.533-1.18h.539v2.278h-.628v-.456c0-.285.042-.588.126-.91.031-.115.057-.23.078-.339l-.46 1.023h-.376l-.46-1.023c.02.109.047.224.078.338.084.323.126.626.126.911v.456h-.627zM7.094 13.67v-2.278h1.008c.225 0 .424.028.596.087a.893.893 0 01.36.217.55.55 0 01.163.403.557.557 0 01-.162.406.893.893 0 01-.36.217 1.8 1.8 0 01-.597.086h-.381v.862h-.627zm.627-1.196h.381a.684.684 0 00.236-.037.38.38 0 00.162-.1.323.323 0 00.094-.238.316.316 0 00-.094-.236c-.09-.09-.225-.136-.398-.136h-.381v.747zM9.582 13.19l.6-.096c.016.043.037.08.074.114a.48.48 0 00.183.112c.078.028.167.04.272.04.203 0 .355-.05.454-.149a.273.273 0 00.084-.198.253.253 0 00-.084-.189.615.615 0 00-.224-.133 1.731 1.731 0 00-.528-.062v-.335c.22 0 .381-.019.491-.056a.487.487 0 00.193-.111.21.21 0 00.068-.152.22.22 0 00-.062-.152.366.366 0 00-.147-.087.772.772 0 00-.235-.034c-.172 0-.298.04-.376.124a.192.192 0 00-.063.115l-.617-.068a.436.436 0 01.126-.22.878.878 0 01.345-.202c.162-.056.36-.084.59-.084.225 0 .418.028.58.084.142.05.257.118.345.201.1.1.147.205.142.32 0 .099-.042.189-.12.272a.854.854 0 01-.393.217c.032.01.058.016.084.025.162.056.287.13.376.22a.44.44 0 01.136.31.508.508 0 01-.162.366.93.93 0 01-.376.223 1.95 1.95 0 01-.627.09 1.95 1.95 0 01-.628-.09.93.93 0 01-.376-.223.565.565 0 01-.125-.192z" fill="#dadeef" fill-rule="nonzero"/><defs><radialGradient id="_Radial1" cx="0" cy="0" r="1" gradientUnits="userSpaceOnUse" gradientTransform="matrix(0 589.555 -459.032 0 43.69 0)"><stop offset="0"/><stop offset=".53" stop-color="#0b0d16"/><stop offset="1" stop-color="#333a63"/></radialGradient></defs></svg>