<svg width="16" height="16" xmlns="http://www.w3.org/2000/svg" fill-rule="evenodd" clip-rule="evenodd" stroke-linejoin="round" stroke-miterlimit="2"><g transform="matrix(.02832 0 0 .02884 .763 1)"><path d="M432.102 485.516H79V0h273.656l79.446 79.449v406.067z" fill="url(#_Linear1)" fill-rule="nonzero"/><clipPath id="a"><path d="M432.102 485.516H79V0h273.656l79.446 79.449v406.067z" clip-rule="nonzero"/></clipPath><g clip-path="url(#a)"><path d="M352.656 0v79.449h79.446L352.656 0z" fill="#2690e7" fill-rule="nonzero"/><path d="M353.225-15.596l.707.041.706.071.701.102.696.133.689.163.682.194.671.222.661.253.649.28.635.309.621.337.605.363.588.39.569.415.55.439.53.463.508.486 79.445 79.449.482.504.459.524.434.544.41.562.384.579.357.595.33.61.303.624.274.637.245.648.215.657.186.667.155.674.125.68.094.685.064.688.032.69.001.692-.031.69-.061.688-.092.686-.123.68-.154.674-.184.667-.213.659-.244.648-.272.638-.3.624-.329.611-.356.597-.382.58-.408.563-.433.545-.457.525-.481.505-.502.483-.524.462-.545.438-.563.413-.582.389-.598.364-.614.337-.629.31-.643.282-.654.254-.665.225-.675.196-.683.167-.689.137-.696.107-.699.076-.702.046-.703.015h-79.446l-.713-.016-.711-.047-.709-.078-.704-.11-.699-.14-.691-.171-.683-.202-.673-.231-.662-.261-.649-.289-.635-.318-.621-.346-.603-.373-.586-.398-.568-.425-.547-.448-.526-.473-.505-.495-.481-.517-.457-.538-.432-.557-.406-.576-.379-.593-.352-.609-.324-.624-.295-.637-.265-.65-.236-.661-.205-.671-.174-.679-.143-.686-.112-.692-.079-.696-.048-.699-.016-.7V0l.015-.696.048-.695.079-.692.11-.688.142-.682.172-.676.203-.667.233-.658.262-.647.292-.635.32-.621.348-.607.376-.59.401-.574.428-.556.452-.536.476-.516.499-.495.521-.472.543-.449.561-.424.581-.4.598-.374.615-.347.63-.32.643-.292.657-.264.667-.235.678-.205.686-.175.694-.145.699-.114.704-.084.707-.053.709-.021.709.009zm-.569 95.045h79.446L352.656 0v79.449z"/><path d="M127.347 370.959c-2.506-.616-5.011-2.461-6.264-5.128-.627-1.23-.627-1.23-.627-41.426 0-43.478-.208-42.042 1.044-49.22 3.968-23.585 17.54-38.146 38.63-41.837 14.826-2.666 30.487 1.23 42.807 10.254 1.67 1.23 5.43 4.922 6.682 6.563l1.253 1.23s.626-.615 1.253-1.435c1.67-2.051 5.638-5.948 8.352-7.794 7.726-5.742 15.661-9.023 24.64-10.664 2.715-.41 10.65-.41 13.573 0 11.902 1.64 22.134 6.973 29.651 15.381 7.518 8.819 11.903 20.304 12.947 33.839.208 1.64.208 7.383.417 12.92.21 12.51.627 23.585.627 24.405.208.205.208 1.436.417 2.461.418 2.871 1.462 7.383 2.297 10.05 2.088 5.947 4.803 10.048 8.98 14.15 4.802 4.307 10.23 6.973 17.748 8.408 2.715.41 8.98.41 11.694 0 7.517-1.64 13.364-4.511 18.584-9.433 2.506-2.667 4.594-5.538 6.055-8.204 1.671-3.281 3.133-7.998 3.76-11.895.208-1.025.417-2.256.626-2.666 0-.41.208-17.842.208-38.555.21-37.736.21-37.736.627-38.966 1.253-3.692 4.594-5.742 8.979-5.537 3.967.205 6.89 2.256 7.935 5.947.417 1.23.417 1.846.417 37.325 0 37.325 0 38.35-.835 43.888-1.253 8.408-4.385 17.022-8.979 23.585-11.067 16.406-31.74 25.02-51.785 21.738-11.485-1.845-20.882-6.357-28.399-13.74-2.923-2.871-4.176-4.512-6.264-7.178-3.759-5.742-6.473-12.305-8.353-20.303-1.253-5.538-1.67-11.69-1.879-23.38-.418-13.74-.626-23.79-.835-26.045-1.462-16.817-11.067-27.071-27.146-29.327-2.297-.41-8.352-.205-10.44.205-12.738 2.871-22.134 12.715-25.058 25.84-.835 4.307-.835 4.307-.835 46.76 0 33.428 0 40.4-.209 41.426-1.044 3.281-3.758 5.742-7.308 6.358-4.594.82-8.98-2.051-10.232-6.358-.209-1.025-.209-7.998-.209-41.427 0-43.272 0-42.862-1.044-47.374-1.67-6.973-4.594-12.1-9.396-16.817-4.177-4.101-9.397-6.973-15.453-8.408-2.088-.41-8.143-.615-10.649-.205-5.22.615-9.397 2.05-13.155 4.512-5.847 3.896-9.814 10.049-12.111 18.457-.627 2.666-.835 3.486-1.462 7.588-.209 1.846-.209 7.178-.418 42.657 0 40.607 0 40.607-.626 41.632-.626 1.64-1.462 2.871-2.506 3.692-2.088 1.845-4.802 2.666-7.726 2.05zM336.16 219.607c-4.594-.615-8.352-3.896-9.605-8.408-.209-.82-.418-1.846-.418-3.076 0-3.282 1.044-5.743 3.341-8.204 2.506-2.256 5.012-3.281 8.353-3.281 3.55 0 6.055 1.025 8.561 3.486 2.088 2.461 3.132 4.922 3.132 7.999 0 3.076-1.044 5.742-3.34 8.203-2.715 2.461-6.265 3.691-10.024 3.281zm-46.565-2.256c-3.132-.41-5.429-2.666-6.682-5.947-.417-1.025-.417-1.436-.417-5.127 0-14.15 5.637-27.686 15.66-37.53 15.87-15.792 41.136-19.893 61.809-10.05 5.22 2.667 8.979 5.128 13.155 9.024 10.65 10.05 16.705 23.995 16.705 38.761 0 2.871 0 3.486-.418 4.717-.626 1.64-1.253 2.871-2.505 3.896-3.968 3.692-10.232 2.872-13.156-1.435-1.252-1.64-1.461-2.871-1.67-6.563-.418-6.562-1.462-10.87-3.968-15.996-4.802-9.64-12.737-16.407-22.551-18.868-11.485-2.871-22.97-.41-31.74 6.563-5.011 3.896-9.187 9.844-11.484 16.201-1.253 3.897-1.88 6.563-2.088 11.28-.21 1.846-.418 3.896-.627 4.512-.835 3.486-3.55 5.947-7.1 6.562-1.252.205-1.67.205-2.923 0z" fill="#fff" fill-rule="nonzero"/></g><path d="M354.407-17.254l1.733.255 1.698.423 1.648.586 1.581.744 1.497.894 1.4 1.035 1.289 1.167 79.445 79.449 1.139 1.256 1.01 1.359.872 1.448.724 1.524.571 1.586.411 1.633.249 1.664.083 1.68v406.067l-.097 1.812-.289 1.793-.478 1.753-.663 1.694-.839 1.618-1.006 1.522-1.163 1.41-1.307 1.284-1.436 1.142-1.55.988-1.646.824-1.726.651-1.785.47-1.825.283-1.845.095H79l-1.845-.095-1.826-.283-1.785-.47-1.725-.651-1.647-.824-1.549-.988-1.437-1.142-1.306-1.284-1.163-1.41-1.007-1.522-.839-1.618-.662-1.694-.478-1.753-.289-1.793-.097-1.812V0l.097-1.813.289-1.792.478-1.753.662-1.695.839-1.617 1.007-1.522 1.163-1.411 1.306-1.283 1.437-1.142 1.549-.989 1.647-.824 1.725-.65 1.785-.47 1.826-.284L79-17.34h273.656l1.751.086zM79 0v485.516h353.102V79.449L352.656 0H79z"/></g><defs><linearGradient id="_Linear1" x1="0" y1="0" x2="1" y2="0" gradientUnits="userSpaceOnUse" gradientTransform="matrix(0 -485.516 692.079 0 255.551 485.516)"><stop offset="0" stop-color="#268fe7"/><stop offset=".16" stop-color="#1863a0"/><stop offset=".35" stop-color="#0d3e65"/><stop offset="1" stop-color="#093050"/></linearGradient></defs></svg>