<svg width="16" height="16" xmlns="http://www.w3.org/2000/svg" fill-rule="evenodd" clip-rule="evenodd" stroke-linejoin="round" stroke-miterlimit="2"><g transform="matrix(.02832 0 0 .02884 .763 1)"><path d="M432.102 485.516H79V0h273.656l79.446 79.449v406.067z" fill="url(#_Linear1)" fill-rule="nonzero"/><clipPath id="a"><path d="M432.102 485.516H79V0h273.656l79.446 79.449v406.067z" clip-rule="nonzero"/></clipPath><g clip-path="url(#a)"><path d="M352.656 0v79.449h79.446L352.656 0z" fill="#0d6976" fill-rule="nonzero"/><path d="M353.225-15.596l.707.041.706.071.701.102.696.133.689.163.682.194.671.222.661.253.649.28.635.309.621.337.605.363.588.39.569.415.55.439.53.463.508.486 79.445 79.449.482.504.459.524.434.544.41.562.384.579.357.595.33.61.303.624.274.637.245.648.215.657.186.667.155.674.125.68.094.685.064.688.032.69.001.692-.031.69-.061.688-.092.686-.123.68-.154.674-.184.667-.213.659-.244.648-.272.638-.3.624-.329.611-.356.597-.382.58-.408.563-.433.545-.457.525-.481.505-.502.483-.524.462-.545.438-.563.413-.582.389-.598.364-.614.337-.629.31-.643.282-.654.254-.665.225-.675.196-.683.167-.689.137-.696.107-.699.076-.702.046-.703.015h-79.446l-.713-.016-.711-.047-.709-.078-.704-.11-.699-.14-.691-.171-.683-.202-.673-.231-.662-.261-.649-.289-.635-.318-.621-.346-.603-.373-.586-.398-.568-.425-.547-.448-.526-.473-.505-.495-.481-.517-.457-.538-.432-.557-.406-.576-.379-.593-.352-.609-.324-.624-.295-.637-.265-.65-.236-.661-.205-.671-.174-.679-.143-.686-.112-.692-.079-.696-.048-.699-.016-.7V0l.015-.696.048-.695.079-.692.11-.688.142-.682.172-.676.203-.667.233-.658.262-.647.292-.635.32-.621.348-.607.376-.59.401-.574.428-.556.452-.536.476-.516.499-.495.521-.472.543-.449.561-.424.581-.4.598-.374.615-.347.63-.32.643-.292.657-.264.667-.235.678-.205.686-.175.694-.145.699-.114.704-.084.707-.053.709-.021.709.009zm-.569 95.045h79.446L352.656 0v79.449z"/><path d="M114.31 405.737c0-10.498 0-10.498 7.436-14.15 30.673-15.975 54.374-36.059 75.752-64.358 7.9-10.498 20.449-29.212 19.52-30.125 0-.456-12.549-.456-27.885-.456h-27.42v-.457c0-.456.93-1.826 2.324-3.195 6.042-7.76 16.266-22.366 21.843-31.038l2.788-4.564c.465-.457 12.083-.457 26.026-.457 25.096 0 25.096 0 26.025-2.282l5.577-9.585c1.394-2.739 2.324-4.108 5.112-9.13 7.436-13.692 22.307-35.145 29.279-43.361.929-.456 2.788-2.739 4.647-5.02 7.436-8.217 18.125-18.258 27.42-25.105 11.618-8.672 26.025-16.432 39.038-21.453 2.323-.913 4.647-1.37 5.112-1.826.464-.456 8.365-.456 20.448-.456h19.52v37.428h-.93c-.465.457-4.183 1.37-7.9 2.282-10.225 2.739-14.408 3.652-20.45 6.39-26.025 10.042-46.008 27.387-65.063 57.056-5.577 8.216-9.294 14.606-9.294 15.062.464.457 8.365.457 23.236.457 22.308 0 22.308 0 22.773.913.464.456.93 1.369.93 1.825 0 0-5.113 8.216-11.155 18.258-11.618 18.258-11.618 18.258-34.39 18.258l-23.237.456-.465.456c-.465 1.37-10.689 19.171-15.336 27.387-22.308 36.515-46.474 63.445-77.147 85.81-3.253 2.74-6.506 4.565-6.971 4.565h-.465v.913H114.31v-10.498z" fill="#fff" fill-rule="nonzero"/></g><path d="M354.407-17.254l1.733.255 1.698.423 1.648.586 1.581.744 1.497.894 1.4 1.035 1.289 1.167 79.445 79.449 1.139 1.256 1.01 1.359.872 1.448.724 1.524.571 1.586.411 1.633.249 1.664.083 1.68v406.067l-.097 1.812-.289 1.793-.478 1.753-.663 1.694-.839 1.618-1.006 1.522-1.163 1.41-1.307 1.284-1.436 1.142-1.55.988-1.646.824-1.726.651-1.785.47-1.825.283-1.845.095H79l-1.845-.095-1.826-.283-1.785-.47-1.725-.651-1.647-.824-1.549-.988-1.437-1.142-1.306-1.284-1.163-1.41-1.007-1.522-.839-1.618-.662-1.694-.478-1.753-.289-1.793-.097-1.812V0l.097-1.813.289-1.792.478-1.753.662-1.695.839-1.617 1.007-1.522 1.163-1.411 1.306-1.283 1.437-1.142 1.549-.989 1.647-.824 1.725-.65 1.785-.47 1.826-.284L79-17.34h273.656l1.751.086zM79 0v485.516h353.102V79.449L352.656 0H79z"/></g><defs><linearGradient id="_Linear1" x1="0" y1="0" x2="1" y2="0" gradientUnits="userSpaceOnUse" gradientTransform="matrix(0 -485.516 692.079 0 255.551 485.516)"><stop offset="0" stop-color="#0d6672"/><stop offset=".45" stop-color="#063238"/><stop offset="1" stop-color="#042428"/></linearGradient></defs></svg>