<svg width="16" height="16" xmlns="http://www.w3.org/2000/svg" fill-rule="evenodd" clip-rule="evenodd" stroke-linejoin="round" stroke-miterlimit="2"><g transform="matrix(.02832 0 0 .02884 .763 1)"><path d="M432.102 485.516H79V0h273.656l79.446 79.449v406.067z" fill="url(#_Radial1)" fill-rule="nonzero"/><clipPath id="a"><path d="M432.102 485.516H79V0h273.656l79.446 79.449v406.067z" clip-rule="nonzero"/></clipPath><g clip-path="url(#a)"><path d="M353.225-15.596l.707.041.706.071.701.102.696.133.689.163.682.194.671.222.661.253.649.28.635.309.621.337.605.363.588.39.569.415.55.439.53.463.508.486 79.445 79.449.482.504.459.524.434.544.41.562.384.579.357.595.33.61.303.624.274.637.245.648.215.657.186.667.155.674.125.68.094.685.064.688.032.69.001.692-.031.69-.061.688-.092.686-.123.68-.154.674-.184.667-.213.659-.244.648-.272.638-.3.624-.329.611-.356.597-.382.58-.408.563-.433.545-.457.525-.481.505-.502.483-.524.462-.545.438-.563.413-.582.389-.598.364-.614.337-.629.31-.643.282-.654.254-.665.225-.675.196-.683.167-.689.137-.696.107-.699.076-.702.046-.703.015h-79.446l-.713-.016-.711-.047-.709-.078-.704-.11-.699-.14-.691-.171-.683-.202-.673-.231-.662-.261-.649-.289-.635-.318-.621-.346-.603-.373-.586-.398-.568-.425-.547-.448-.526-.473-.505-.495-.481-.517-.457-.538-.432-.557-.406-.576-.379-.593-.352-.609-.324-.624-.295-.637-.265-.65-.236-.661-.205-.671-.174-.679-.143-.686-.112-.692-.079-.696-.048-.699-.016-.7V0l.015-.696.048-.695.079-.692.11-.688.142-.682.172-.676.203-.667.233-.658.262-.647.292-.635.32-.621.348-.607.376-.59.401-.574.428-.556.452-.536.476-.516.499-.495.521-.472.543-.449.561-.424.581-.4.598-.374.615-.347.63-.32.643-.292.657-.264.667-.235.678-.205.686-.175.694-.145.699-.114.704-.084.707-.053.709-.021.709.009zm-.569 95.045h79.446L352.656 0v79.449z"/></g><path d="M354.407-17.254l1.733.255 1.698.423 1.648.586 1.581.744 1.497.894 1.4 1.035 1.289 1.167 79.445 79.449 1.139 1.256 1.01 1.359.872 1.448.724 1.524.571 1.586.411 1.633.249 1.664.083 1.68v406.067l-.097 1.812-.289 1.793-.478 1.753-.663 1.694-.839 1.618-1.006 1.522-1.163 1.41-1.307 1.284-1.436 1.142-1.55.988-1.646.824-1.726.651-1.785.47-1.825.283-1.845.095H79l-1.845-.095-1.826-.283-1.785-.47-1.725-.651-1.647-.824-1.549-.988-1.437-1.142-1.306-1.284-1.163-1.41-1.007-1.522-.839-1.618-.662-1.694-.478-1.753-.289-1.793-.097-1.812V0l.097-1.813.289-1.792.478-1.753.662-1.695.839-1.617 1.007-1.522 1.163-1.411 1.306-1.283 1.437-1.142 1.549-.989 1.647-.824 1.725-.65 1.785-.47 1.826-.284L79-17.34h273.656l1.751.086zM79 0v485.516h353.102V79.449L352.656 0H79z"/></g><path d="M6.08 7.556l-2-.925v-.355l2-.92v.48l-1.524.625 1.525.62v.475zM8.702 5.066c-.255-.395-.465-.805-.545-1.285-.015-.08-.055-.11-.15-.11-.025 0-.045.01-.05.045v3.73a.592.592 0 00-.4-.13c-.615 0-1.11.455-1.11.94 0 .295.24.47.545.47.5 0 1.115-.465 1.115-.94V4.981c.31.19.68.74.835 1.105.075.17.12.455.12.75 0 .225-.035.46-.12.685a.247.247 0 00-.015.075c0 .08.05.125.08.145l.01.005c.07 0 .11-.035.13-.1 0 0 .13-.475.13-.865 0-.625-.26-1.215-.575-1.715zM9.907 7.556v-.465l1.615-.645-1.615-.63v-.465l2.085.92v.36l-2.085.925zM4.405 13.269v-2.65h.623l.565 1.344.566-1.344h.623v2.65h-.8v-.53c0-.336.063-.69.183-1.06a2.82 2.82 0 00.063-.206l-.417 1.002h-.435l-.417-1.002c.018.069.04.137.063.206.12.37.183.724.183 1.06v.53h-.8zM7.261 13.269v-.134c0-.26.126-.523.372-.79l.365-.403-.365-.4c-.246-.27-.372-.534-.372-.79v-.133h.8v.133c0 .184.086.371.263.562l.126.137.125-.137c.177-.19.263-.378.263-.562v-.133h.8v.133c0 .26-.126.523-.372.79l-.365.4.365.404c.246.27.372.533.372.79v.133h-.8v-.134c0-.184-.086-.371-.263-.562l-.125-.137-.126.137c-.177.19-.263.378-.263.562v.134h-.8zM10.237 13.269v-2.65h.8v2.195h.971v.455h-1.77z" fill-rule="nonzero"/><defs><radialGradient id="_Radial1" cx="0" cy="0" r="1" gradientUnits="userSpaceOnUse" gradientTransform="matrix(0 589.555 -459.032 0 43.69 0)"><stop offset="0" stop-color="#fff"/><stop offset=".53" stop-color="#fafbff"/><stop offset="1" stop-color="#e9ecff"/></radialGradient></defs></svg>