<svg width="16" height="16" xmlns="http://www.w3.org/2000/svg" fill-rule="evenodd" clip-rule="evenodd" stroke-linejoin="round" stroke-miterlimit="2"><g transform="matrix(.02832 0 0 .02884 .763 1)"><path d="M432.102 485.516H79V0h273.656l79.446 79.449v406.067z" fill="url(#_Radial1)" fill-rule="nonzero"/><clipPath id="a"><path d="M432.102 485.516H79V0h273.656l79.446 79.449v406.067z" clip-rule="nonzero"/></clipPath><g clip-path="url(#a)"><path d="M352.656 0v79.449h79.446L352.656 0z" fill="#434c77" fill-rule="nonzero"/><path d="M353.225-15.596l.707.041.706.071.701.102.696.133.689.163.682.194.671.222.661.253.649.28.635.309.621.337.605.363.588.39.569.415.55.439.53.463.508.486 79.445 79.449.482.504.459.524.434.544.41.562.384.579.357.595.33.61.303.624.274.637.245.648.215.657.186.667.155.674.125.68.094.685.064.688.032.69.001.692-.031.69-.061.688-.092.686-.123.68-.154.674-.184.667-.213.659-.244.648-.272.638-.3.624-.329.611-.356.597-.382.58-.408.563-.433.545-.457.525-.481.505-.502.483-.524.462-.545.438-.563.413-.582.389-.598.364-.614.337-.629.31-.643.282-.654.254-.665.225-.675.196-.683.167-.689.137-.696.107-.699.076-.702.046-.703.015h-79.446l-.713-.016-.711-.047-.709-.078-.704-.11-.699-.14-.691-.171-.683-.202-.673-.231-.662-.261-.649-.289-.635-.318-.621-.346-.603-.373-.586-.398-.568-.425-.547-.448-.526-.473-.505-.495-.481-.517-.457-.538-.432-.557-.406-.576-.379-.593-.352-.609-.324-.624-.295-.637-.265-.65-.236-.661-.205-.671-.174-.679-.143-.686-.112-.692-.079-.696-.048-.699-.016-.7V0l.015-.696.048-.695.079-.692.11-.688.142-.682.172-.676.203-.667.233-.658.262-.647.292-.635.32-.621.348-.607.376-.59.401-.574.428-.556.452-.536.476-.516.499-.495.521-.472.543-.449.561-.424.581-.4.598-.374.615-.347.63-.32.643-.292.657-.264.667-.235.678-.205.686-.175.694-.145.699-.114.704-.084.707-.053.709-.021.709.009zm-.569 95.045h79.446L352.656 0v79.449z"/><path d="M221.023 164.714l102.605-25.142v90.757c-4.995-2.044-11.238-3.066-17.69-3.066-3.955 0-11.447 2.248-16.234 4.701-8.95 4.702-14.36 12.265-14.36 20.237 0 4.292 1.873 8.994 4.578 12.264 3.538 3.884 9.158 5.928 16.65 5.928 8.95 0 18.315-3.884 25.808-10.425 6.868-6.336 10.406-14.513 10.406-24.733V106.049l-120.92 28.821v124.28c-4.163-1.84-9.99-2.861-16.442-2.861-3.954 0-8.117.817-12.696 2.657-11.446 4.497-18.523 12.878-18.523 22.076 0 4.293 1.873 8.994 4.58 12.265 3.537 3.883 9.365 5.927 16.857 5.927 12.28 0 27.472-8.789 32.26-19.01 1.664-3.679 3.121-10.833 3.121-15.943v-99.547z" fill="#dadeef" fill-rule="nonzero"/></g><path d="M354.407-17.254l1.733.255 1.698.423 1.648.586 1.581.744 1.497.894 1.4 1.035 1.289 1.167 79.445 79.449 1.139 1.256 1.01 1.359.872 1.448.724 1.524.571 1.586.411 1.633.249 1.664.083 1.68v406.067l-.097 1.812-.289 1.793-.478 1.753-.663 1.694-.839 1.618-1.006 1.522-1.163 1.41-1.307 1.284-1.436 1.142-1.55.988-1.646.824-1.726.651-1.785.47-1.825.283-1.845.095H79l-1.845-.095-1.826-.283-1.785-.47-1.725-.651-1.647-.824-1.549-.988-1.437-1.142-1.306-1.284-1.163-1.41-1.007-1.522-.839-1.618-.662-1.694-.478-1.753-.289-1.793-.097-1.812V0l.097-1.813.289-1.792.478-1.753.662-1.695.839-1.617 1.007-1.522 1.163-1.411 1.306-1.283 1.437-1.142 1.549-.989 1.647-.824 1.725-.65 1.785-.47 1.826-.284L79-17.34h273.656l1.751.086zM79 0v485.516h353.102V79.449L352.656 0H79z"/></g><path d="M4.38 13.02v-.977c0-.146.04-.273.113-.378a.676.676 0 01.267-.21c.124-.06.271-.088.445-.088s.321.028.445.087c.113.053.202.121.267.21a.647.647 0 01.113.379v.976a.647.647 0 01-.113.378.676.676 0 01-.267.211 1.026 1.026 0 01-.445.087c-.174 0-.321-.028-.445-.087a.676.676 0 01-.267-.21.647.647 0 01-.112-.379zm.465 0c0 .083.02.151.062.207a.295.295 0 00.124.1c.05.02.108.033.174.033a.406.406 0 00.178-.037.3.3 0 00.12-.096.33.33 0 00.062-.208v-.976a.33.33 0 00-.062-.208.283.283 0 00-.12-.099.456.456 0 00-.178-.034.436.436 0 00-.174.034.351.351 0 00-.124.1.33.33 0 00-.062.207v.976zM6.39 13.67v-2.278h.747c.166 0 .313.028.441.087a.663.663 0 01.267.217c.081.111.12.245.12.403a.672.672 0 01-.12.406.663.663 0 01-.267.217 1.02 1.02 0 01-.441.086h-.283v.862H6.39zm.464-1.196h.283a.39.39 0 00.174-.037.283.283 0 00.12-.1.39.39 0 00.07-.238.38.38 0 00-.07-.236.345.345 0 00-.294-.136h-.283v.747zM8.282 13.02v-1.628h.465v1.627c0 .087.02.158.062.217a.31.31 0 00.116.093.346.346 0 00.155.031c.058 0 .104-.01.147-.03a.31.31 0 00.116-.094.357.357 0 00.062-.217v-1.627h.465v1.627a.63.63 0 01-.376.595c-.116.053-.255.08-.418.08-.163 0-.302-.027-.418-.08a.63.63 0 01-.375-.595zM10.199 13.19l.452-.068v.009c0 .04.012.074.04.108a.312.312 0 00.104.084c.054.025.12.037.2.037.074 0 .14-.012.194-.037a.27.27 0 00.109-.087.233.233 0 00.042-.133.292.292 0 00-.058-.167c-.058-.081-.193-.17-.406-.27-.275-.127-.457-.254-.546-.378a.522.522 0 01-.012-.632.66.66 0 01.252-.202 1.08 1.08 0 01.457-.087c.186 0 .344.031.472.09.1.047.182.112.24.192.05.072.081.146.085.224l-.453.068v-.01a.165.165 0 00-.038-.108.312.312 0 00-.105-.084.479.479 0 00-.201-.037.466.466 0 00-.194.037.27.27 0 00-.108.087.233.233 0 00-.043.133c0 .056.02.112.058.168.058.08.194.17.407.27.275.126.457.253.546.377a.524.524 0 01.012.632.66.66 0 01-.252.202 1.08 1.08 0 01-.457.087c-.186 0-.345-.031-.472-.09a.601.601 0 01-.24-.192.425.425 0 01-.085-.223z" fill="#dadeef" fill-rule="nonzero"/><defs><radialGradient id="_Radial1" cx="0" cy="0" r="1" gradientUnits="userSpaceOnUse" gradientTransform="matrix(0 589.555 -459.032 0 43.69 0)"><stop offset="0"/><stop offset=".53" stop-color="#0b0d16"/><stop offset="1" stop-color="#333a63"/></radialGradient></defs></svg>