<svg width="16" height="16" xmlns="http://www.w3.org/2000/svg" fill-rule="evenodd" clip-rule="evenodd" stroke-linejoin="round" stroke-miterlimit="2"><g transform="matrix(.02832 0 0 .02884 .763 1)"><path d="M432.102 485.516H79V0h273.656l79.446 79.449v406.067z" fill="url(#_Linear1)" fill-rule="nonzero"/><clipPath id="a"><path d="M432.102 485.516H79V0h273.656l79.446 79.449v406.067z" clip-rule="nonzero"/></clipPath><g clip-path="url(#a)"><path d="M352.656 0v79.449h79.446L352.656 0z" fill="#76180d" fill-rule="nonzero"/><path d="M353.225-15.596l.707.041.706.071.701.102.696.133.689.163.682.194.671.222.661.253.649.28.635.309.621.337.605.363.588.39.569.415.55.439.53.463.508.486 79.445 79.449.482.504.459.524.434.544.41.562.384.579.357.595.33.61.303.624.274.637.245.648.215.657.186.667.155.674.125.68.094.685.064.688.032.69.001.692-.031.69-.061.688-.092.686-.123.68-.154.674-.184.667-.213.659-.244.648-.272.638-.3.624-.329.611-.356.597-.382.58-.408.563-.433.545-.457.525-.481.505-.502.483-.524.462-.545.438-.563.413-.582.389-.598.364-.614.337-.629.31-.643.282-.654.254-.665.225-.675.196-.683.167-.689.137-.696.107-.699.076-.702.046-.703.015h-79.446l-.713-.016-.711-.047-.709-.078-.704-.11-.699-.14-.691-.171-.683-.202-.673-.231-.662-.261-.649-.289-.635-.318-.621-.346-.603-.373-.586-.398-.568-.425-.547-.448-.526-.473-.505-.495-.481-.517-.457-.538-.432-.557-.406-.576-.379-.593-.352-.609-.324-.624-.295-.637-.265-.65-.236-.661-.205-.671-.174-.679-.143-.686-.112-.692-.079-.696-.048-.699-.016-.7V0l.015-.696.048-.695.079-.692.11-.688.142-.682.172-.676.203-.667.233-.658.262-.647.292-.635.32-.621.348-.607.376-.59.401-.574.428-.556.452-.536.476-.516.499-.495.521-.472.543-.449.561-.424.581-.4.598-.374.615-.347.63-.32.643-.292.657-.264.667-.235.678-.205.686-.175.694-.145.699-.114.704-.084.707-.053.709-.021.709.009zm-.569 95.045h79.446L352.656 0v79.449z"/><path d="M401.712 317.585c-1.86 1.401-7.176 2.263-10.543 2.263-10.986 0-24.452-6.143-43.5-16.058 7.353-.647 13.998-.97 20.022-.97 10.986 0 14.176 0 24.984 3.34 10.72 3.234 10.809 10.024 9.037 11.425zm-190.568 2.048a1026.506 1026.506 0 0013.024-28.884c10.808-24.897 17.719-44.512 22.769-60.571 10.188 22.525 22.857 41.602 37.652 56.906 1.86 1.94 3.81 3.772 5.936 5.712-30.21 7.33-56.346 16.167-79.38 26.837zm35.26-235.924c6.025 0 9.48 18.387 9.746 35.739.266 17.244-3.012 29.315-7.176 38.368-3.455-13.364-5.05-34.273-5.05-47.96 0 0-.266-26.147 2.48-26.147zM128.22 414.799c3.455-11.316 16.922-33.733 36.856-53.672 1.24-1.186 4.34-4.742 7.176-7.976-20.82 40.525-34.818 56.583-44.032 61.649zm279.252-121.033c-6.025-7.22-19.491-10.993-39.868-11.316-13.82-.216-30.388 1.293-47.93 4.203-7.796-5.497-15.859-11.424-22.237-18.645-17.01-19.4-31.186-46.237-40.045-75.768.531-2.802 1.063-5.173 1.506-7.652 0 0 9.568-66.283 6.999-88.7-.355-3.126-.532-3.988-1.24-6.36l-.798-2.694c-2.57-7.285-7.708-15.045-15.77-14.625l-4.695-.183h-.089c-8.948 0-16.301 5.572-18.162 13.838-5.847 26.19.177 65.206 11.075 115.753l-2.836 8.299c-7.796 23.064-17.541 46.344-26.135 66.822l-1.152 2.694c-9.036 21.555-17.276 39.877-24.718 55.397l-7.708 4.958c-.531.431-13.732 8.838-16.833 11.101-26.224 19.077-43.66 40.74-46.547 57.984-.922 5.389-.23 12.395 4.438 15.736l7.442 4.526c3.216 1.94 6.671 2.91 10.127 2.91 18.693 0 40.399-28.237 70.255-91.718 34.552-13.688 73.889-25.112 108.352-31.363 26.224 17.999 58.473 30.5 78.85 30.5 3.632 0 6.733-.43 9.302-1.293 3.898-1.185 7.176-3.88 9.214-7.652 3.898-7.22 4.784-17.136 3.632-27.375-.265-3.018-2.303-6.79-4.43-9.377z" fill="#fff" fill-rule="nonzero"/></g><path d="M354.407-17.254l1.733.255 1.698.423 1.648.586 1.581.744 1.497.894 1.4 1.035 1.289 1.167 79.445 79.449 1.139 1.256 1.01 1.359.872 1.448.724 1.524.571 1.586.411 1.633.249 1.664.083 1.68v406.067l-.097 1.812-.289 1.793-.478 1.753-.663 1.694-.839 1.618-1.006 1.522-1.163 1.41-1.307 1.284-1.436 1.142-1.55.988-1.646.824-1.726.651-1.785.47-1.825.283-1.845.095H79l-1.845-.095-1.826-.283-1.785-.47-1.725-.651-1.647-.824-1.549-.988-1.437-1.142-1.306-1.284-1.163-1.41-1.007-1.522-.839-1.618-.662-1.694-.478-1.753-.289-1.793-.097-1.812V0l.097-1.813.289-1.792.478-1.753.662-1.695.839-1.617 1.007-1.522 1.163-1.411 1.306-1.283 1.437-1.142 1.549-.989 1.647-.824 1.725-.65 1.785-.47 1.826-.284L79-17.34h273.656l1.751.086zM79 0v485.516h353.102V79.449L352.656 0H79z"/></g><defs><linearGradient id="_Linear1" x1="0" y1="0" x2="1" y2="0" gradientUnits="userSpaceOnUse" gradientTransform="matrix(0 -485.516 692.079 0 255.551 485.516)"><stop offset="0" stop-color="#72170d"/><stop offset=".45" stop-color="#380b06"/><stop offset="1" stop-color="#280804"/></linearGradient></defs></svg>