<?xml version="1.0" encoding="UTF-8" standalone="no"?>
<!DOCTYPE svg PUBLIC "-//W3C//DTD SVG 1.1//EN" "http://www.w3.org/Graphics/SVG/1.1/DTD/svg11.dtd">
<svg width="100%" height="100%" viewBox="0 0 16 16" version="1.1" xmlns="http://www.w3.org/2000/svg" xmlns:xlink="http://www.w3.org/1999/xlink" xml:space="preserve" xmlns:serif="http://www.serif.com/" style="fill-rule:evenodd;clip-rule:evenodd;stroke-linecap:round;stroke-linejoin:round;stroke-miterlimit:1.5;">
    <g transform="matrix(0.0283205,0,0,0.0288353,0.762683,1)">
        <path d="M432.102,485.516L79,485.516L79,0L352.656,0L432.102,79.449L432.102,485.516Z" style="fill:url(#_Radial1);fill-rule:nonzero;"/>
        <path d="M354.407,-17.254L356.14,-16.999L357.838,-16.576L359.486,-15.99L361.067,-15.246L362.564,-14.352L363.964,-13.317L365.253,-12.15L444.698,67.299L445.837,68.555L446.847,69.914L447.719,71.362L448.443,72.886L449.014,74.472L449.425,76.105L449.674,77.769L449.757,79.449L449.757,485.516L449.66,487.328L449.371,489.121L448.893,490.874L448.23,492.568L447.391,494.186L446.385,495.708L445.222,497.118L443.915,498.402L442.479,499.544L440.929,500.532L439.283,501.356L437.557,502.007L435.772,502.477L433.947,502.76L432.102,502.855L79,502.855L77.155,502.76L75.329,502.477L73.544,502.007L71.819,501.356L70.172,500.532L68.623,499.544L67.186,498.402L65.88,497.118L64.717,495.708L63.71,494.186L62.871,492.568L62.209,490.874L61.731,489.121L61.442,487.328L61.345,485.516L61.345,0L61.442,-1.813L61.731,-3.605L62.209,-5.358L62.871,-7.053L63.71,-8.67L64.717,-10.192L65.88,-11.603L67.186,-12.886L68.623,-14.028L70.172,-15.017L71.819,-15.841L73.544,-16.491L75.329,-16.961L77.155,-17.245L79,-17.34L352.656,-17.34L354.407,-17.254ZM79,0L79,485.516L432.102,485.516L432.102,79.449L352.656,0L79,0Z"/>
    </g>
    <g transform="matrix(1,0,0,1,0,-7)">
        <path d="M5,12L5,10M6,12L6,10M7,12L7,10M8,10L8,12M9,12L9,10M10,10L10,12M11,12L11,10M4,10L4,12M12,10L12,12M12,11.005L4,11.005" style="fill:none;stroke:black;stroke-width:0.5px;"/>
    </g>
    <g transform="matrix(1,0,0,1,4,1)">
        <path d="M7,3L6,7C6.667,7.905 7.333,7.919 8,7L7,3L7,6" style="fill:none;stroke:black;stroke-width:0.5px;"/>
    </g>
    <g transform="matrix(0.382164,0,0,0.382164,2.30249,9.30359)">
        <g transform="matrix(15.7001,0,0,15.7001,4.10647,11.7957)">
            <path d="M0.226,-0.579L0.226,-0.383L0.334,-0.383C0.399,-0.383 0.432,-0.416 0.432,-0.48C0.432,-0.546 0.399,-0.579 0.334,-0.579L0.226,-0.579ZM0.443,0L0.318,-0.251L0.226,-0.251L0.226,0L0.054,0L0.054,-0.711L0.334,-0.711C0.416,-0.711 0.481,-0.693 0.53,-0.656C0.579,-0.619 0.603,-0.566 0.603,-0.496C0.603,-0.441 0.592,-0.398 0.569,-0.367C0.546,-0.336 0.516,-0.312 0.479,-0.294L0.627,-0.007L0.627,0L0.443,0Z" style="fill-rule:nonzero;"/>
        </g>
        <g transform="matrix(12,0,0,12,14.3483,11.7957)">
            <path d="M0.241,-0.107C0.261,-0.107 0.278,-0.112 0.292,-0.12C0.305,-0.129 0.315,-0.139 0.321,-0.149L0.321,-0.235L0.269,-0.235C0.238,-0.235 0.217,-0.227 0.205,-0.211C0.193,-0.196 0.187,-0.178 0.187,-0.158C0.187,-0.143 0.192,-0.131 0.202,-0.121C0.213,-0.112 0.225,-0.107 0.241,-0.107ZM0.344,0C0.338,-0.013 0.333,-0.028 0.329,-0.047C0.316,-0.031 0.3,-0.018 0.28,-0.007C0.26,0.004 0.234,0.01 0.202,0.01C0.153,0.01 0.111,-0.005 0.075,-0.034C0.04,-0.064 0.022,-0.102 0.022,-0.149C0.022,-0.203 0.042,-0.246 0.083,-0.277C0.123,-0.307 0.185,-0.323 0.27,-0.323L0.321,-0.323L0.321,-0.351C0.321,-0.373 0.316,-0.39 0.306,-0.404C0.297,-0.417 0.281,-0.423 0.258,-0.423C0.219,-0.423 0.199,-0.404 0.199,-0.366L0.035,-0.366C0.035,-0.415 0.056,-0.456 0.098,-0.489C0.14,-0.522 0.196,-0.538 0.267,-0.538C0.329,-0.538 0.382,-0.522 0.424,-0.491C0.465,-0.46 0.486,-0.412 0.486,-0.35L0.486,-0.133C0.486,-0.099 0.488,-0.073 0.492,-0.055C0.496,-0.037 0.502,-0.022 0.509,-0.008L0.509,0L0.344,0Z" style="fill-rule:nonzero;"/>
        </g>
        <g transform="matrix(12,0,0,12,20.7233,11.7957)">
            <path d="M0.312,-0.383C0.26,-0.383 0.227,-0.367 0.212,-0.335L0.212,0L0.048,0L0.048,-0.528L0.202,-0.528L0.207,-0.461C0.235,-0.512 0.273,-0.538 0.323,-0.538C0.341,-0.538 0.357,-0.536 0.369,-0.532L0.366,-0.379C0.359,-0.38 0.35,-0.381 0.339,-0.382C0.328,-0.383 0.319,-0.383 0.312,-0.383Z" style="fill-rule:nonzero;"/>
        </g>
    </g>
    <defs>
        <radialGradient id="_Radial1" cx="0" cy="0" r="1" gradientUnits="userSpaceOnUse" gradientTransform="matrix(2.81076e-14,450.836,-388.412,2.33587e-14,43.6898,0)"><stop offset="0" style="stop-color:white;stop-opacity:1"/><stop offset="0.59" style="stop-color:rgb(255,255,248);stop-opacity:1"/><stop offset="0.81" style="stop-color:rgb(255,254,232);stop-opacity:1"/><stop offset="1" style="stop-color:rgb(255,253,215);stop-opacity:1"/></radialGradient>
    </defs>
</svg>
