<svg width="16" height="16" xmlns="http://www.w3.org/2000/svg" fill-rule="evenodd" clip-rule="evenodd" stroke-linecap="round" stroke-linejoin="round" stroke-miterlimit="1.5"><path d="M432.102 485.516H79V0h273.656l79.446 79.449v406.067z" fill="url(#_Radial1)" fill-rule="nonzero" transform="matrix(.02832 0 0 .02884 .763 1)"/><path d="M10.8.502l.049.008.048.012.047.017.044.021.043.026.04.03.036.034 2.25 2.29.032.037.029.039.024.042.02.044.017.045.012.048.007.047.002.049V15l-.003.052-.008.052-.013.05-.02.05-.023.046-.028.044-.033.04-.037.038-.041.033-.044.028-.047.024-.048.019-.051.013-.052.008L13 15.5H3l-.052-.003-.052-.008-.05-.013-.05-.02-.046-.023-.044-.028-.04-.033-.038-.037-.032-.041-.029-.044-.024-.047-.019-.049-.013-.05-.008-.052L2.5 15V1l.003-.052.008-.052.013-.05.02-.05.023-.046.029-.044.032-.04.037-.038.041-.033.044-.028.047-.024.048-.019.051-.013.052-.008L3 .5h7.75l.05.002zM3 1v14h10V3.29L10.75 1H3z"/><path d="M5 5V3m1 2V3m1 2V3m1 0v2m1 0V3m1 0v2m1 0V3M4 3v2m8-2v2m0-.995H4M11 4l-1 4c.667.905 1.333.919 2 0l-1-4v3" fill="none" stroke="#000" stroke-width=".5"/><path d="M5.228 10.337v1.176h.648c.39 0 .588-.198.588-.582 0-.396-.198-.594-.588-.594h-.648zm1.302 3.474l-.75-1.506h-.552v1.506H4.196V9.545h1.68c.492 0 .882.108 1.176.33.294.222.438.54.438.96 0 .33-.066.588-.204.774a1.44 1.44 0 01-.54.438l.888 1.722v.042H6.53zM8.891 13.32c.092 0 .17-.022.234-.059a.457.457 0 00.133-.133v-.394H9.02c-.143 0-.239.036-.294.11a.38.38 0 00-.083.243c0 .069.023.124.07.17.05.04.105.064.178.064zm.472.491a.995.995 0 01-.068-.215.744.744 0 01-.225.183.738.738 0 01-.358.078.9.9 0 01-.582-.201.663.663 0 01-.243-.528c0-.247.092-.445.28-.587.183-.137.467-.21.857-.21h.234v-.13c0-.1-.023-.178-.069-.242-.041-.06-.114-.087-.22-.087-.179 0-.27.087-.27.261h-.753c0-.225.097-.413.29-.564.192-.151.449-.225.774-.225.285 0 .528.074.72.216.188.142.285.362.285.646v.996c0 .155.009.275.027.357a.915.915 0 00.078.216v.036h-.757zM11.653 12.055c-.238 0-.39.073-.459.22v1.536h-.752v-2.42h.707l.022.306c.129-.234.303-.353.532-.353.083 0 .156.01.211.028l-.013.701a2.524 2.524 0 00-.124-.013c-.05-.005-.092-.005-.124-.005z" fill-rule="nonzero"/><defs><radialGradient id="_Radial1" cx="0" cy="0" r="1" gradientUnits="userSpaceOnUse" gradientTransform="matrix(0 450.836 -388.412 0 43.69 0)"><stop offset="0" stop-color="#fff"/><stop offset=".59" stop-color="#fffff8"/><stop offset=".81" stop-color="#fffee8"/><stop offset="1" stop-color="#fffdd7"/></radialGradient></defs></svg>