<svg width="16" height="16" xmlns="http://www.w3.org/2000/svg" fill-rule="evenodd" clip-rule="evenodd" stroke-linejoin="round" stroke-miterlimit="2"><g transform="matrix(.02832 0 0 .02884 .763 1)"><path d="M432.102 485.516H79V0h273.656l79.446 79.449v406.067z" fill="url(#_Linear1)" fill-rule="nonzero"/><clipPath id="a"><path d="M432.102 485.516H79V0h273.656l79.446 79.449v406.067z" clip-rule="nonzero"/></clipPath><g clip-path="url(#a)"><path d="M352.656 0v79.449h79.446L352.656 0z" fill="#7826e7" fill-rule="nonzero"/><path d="M353.225-15.596l.707.041.706.071.701.102.696.133.689.163.682.194.671.222.661.253.649.28.635.309.621.337.605.363.588.39.569.415.55.439.53.463.508.486 79.445 79.449.482.504.459.524.434.544.41.562.384.579.357.595.33.61.303.624.274.637.245.648.215.657.186.667.155.674.125.68.094.685.064.688.032.69.001.692-.031.69-.061.688-.092.686-.123.68-.154.674-.184.667-.213.659-.244.648-.272.638-.3.624-.329.611-.356.597-.382.58-.408.563-.433.545-.457.525-.481.505-.502.483-.524.462-.545.438-.563.413-.582.389-.598.364-.614.337-.629.31-.643.282-.654.254-.665.225-.675.196-.683.167-.689.137-.696.107-.699.076-.702.046-.703.015h-79.446l-.713-.016-.711-.047-.709-.078-.704-.11-.699-.14-.691-.171-.683-.202-.673-.231-.662-.261-.649-.289-.635-.318-.621-.346-.603-.373-.586-.398-.568-.425-.547-.448-.526-.473-.505-.495-.481-.517-.457-.538-.432-.557-.406-.576-.379-.593-.352-.609-.324-.624-.295-.637-.265-.65-.236-.661-.205-.671-.174-.679-.143-.686-.112-.692-.079-.696-.048-.699-.016-.7V0l.015-.696.048-.695.079-.692.11-.688.142-.682.172-.676.203-.667.233-.658.262-.647.292-.635.32-.621.348-.607.376-.59.401-.574.428-.556.452-.536.476-.516.499-.495.521-.472.543-.449.561-.424.581-.4.598-.374.615-.347.63-.32.643-.292.657-.264.667-.235.678-.205.686-.175.694-.145.699-.114.704-.084.707-.053.709-.021.709.009zm-.569 95.045h79.446L352.656 0v79.449z"/><path d="M269.27 152.588c5.73 0 10.42 4.793 10.42 14.556 0 19.702-16.5 35.678-30.22 47.926-.521.355-.869.71-1.216.71-.521 0-.868-.71-1.042-2.13-.695-4.615-1.042-10.65-1.042-16.33 0-27.691 12.505-44.732 23.1-44.732zm-6.948 149.104c-.347-1.953-.174-2.485 1.216-2.485h.695c14.068 1.242 25.704 13.312 25.704 28.933 0 11.183-6.6 20.235-16.326 25.205-.868.355-1.39.71-1.736.71-.695 0-.869-.532-1.042-1.775l-8.51-50.588zm-11.984-28.223c.521 3.372.521 3.195-2.605 4.26-15.284 5.325-25.184 19.348-25.184 34.435 0 15.976 8.163 27.336 19.974 31.419 1.389.532 3.473 1.065 4.689 1.065 1.39 0 2.084-.888 2.084-1.953 0-1.242-1.39-1.775-2.605-2.307-7.295-3.195-12.505-10.828-12.505-18.993 0-10.118 6.773-17.75 17.368-20.768.868-.178 1.563-.355 2.084-.355.869 0 1.216.532 1.39 1.775l8.684 52.896c.347 1.953.173 1.953-2.432 2.485-2.779.533-6.252.888-9.726.888-30.394 0-50.02-17.218-50.02-41.891 0-30.176 21.71-48.992 42.725-66.387.695-.533 1.216-.888 1.563-.888.522 0 .695.533.869 1.598l3.647 22.72zm2.605-27.159c-.347-2.13 0-2.307 1.042-3.372 18.758-17.928 33-40.471 33-67.63 0-15.442-4.169-30.707-11.29-41.358-2.605-3.905-7.12-8.875-9.03-8.875-2.432 0-7.816 4.615-11.29 8.52-12.852 14.556-17.02 36.744-17.02 55.204 0 10.295 1.215 21.833 2.43 29.11.348 2.13.522 2.486-1.562 4.26-25.01 21.124-51.584 46.507-51.584 82.363 0 30.886 20.668 60.174 63.22 60.174 3.995 0 8.51-.355 11.984-1.065.695-.178 1.042-.178 1.39-.178.694 0 1.042.355 1.215 1.775 2.085 11.893 4.69 27.336 4.69 35.679 0 26.27-17.368 29.465-27.615 29.465-9.38 0-13.895-2.84-13.895-5.147 0-1.243 1.563-1.775 5.558-3.018 5.384-1.597 11.636-6.39 11.636-16.685 0-9.763-6.078-18.106-16.673-18.106-11.636 0-18.584 9.408-18.584 20.413 0 11.538 6.774 28.933 33 28.933 11.636 0 34.215-5.325 34.215-35.5 0-10.118-3.127-26.981-5.037-37.986-.347-2.13-.174-1.953 2.258-3.018 17.542-7.1 29.178-22.188 29.178-42.246 0-22.72-16.326-42.778-41.857-42.778-4.516 0-4.516 0-5.037-3.195l-4.342-25.739z" fill="#fff" fill-rule="nonzero"/><path d="M255.729 139.076c78.255 0 141.798 62.408 141.798 139.266 0 76.858-63.543 139.266-141.798 139.266-78.256 0-141.798-62.408-141.798-139.266 0-76.858 63.542-139.266 141.798-139.266zm0 15.177c69.731 0 126.365 55.603 126.365 124.09 0 68.485-56.634 124.107-126.365 124.107s-126.346-55.622-126.346-124.108 56.615-124.089 126.346-124.089z" fill="#fff"/></g><path d="M354.407-17.254l1.733.255 1.698.423 1.648.586 1.581.744 1.497.894 1.4 1.035 1.289 1.167 79.445 79.449 1.139 1.256 1.01 1.359.872 1.448.724 1.524.571 1.586.411 1.633.249 1.664.083 1.68v406.067l-.097 1.812-.289 1.793-.478 1.753-.663 1.694-.839 1.618-1.006 1.522-1.163 1.41-1.307 1.284-1.436 1.142-1.55.988-1.646.824-1.726.651-1.785.47-1.825.283-1.845.095H79l-1.845-.095-1.826-.283-1.785-.47-1.725-.651-1.647-.824-1.549-.988-1.437-1.142-1.306-1.284-1.163-1.41-1.007-1.522-.839-1.618-.662-1.694-.478-1.753-.289-1.793-.097-1.812V0l.097-1.813.289-1.792.478-1.753.662-1.695.839-1.617 1.007-1.522 1.163-1.411 1.306-1.283 1.437-1.142 1.549-.989 1.647-.824 1.725-.65 1.785-.47 1.826-.284L79-17.34h273.656l1.751.086zM79 0v485.516h353.102V79.449L352.656 0H79z"/></g><defs><linearGradient id="_Linear1" x1="0" y1="0" x2="1" y2="0" gradientUnits="userSpaceOnUse" gradientTransform="matrix(0 -485.516 692.079 0 255.551 485.516)"><stop offset="0" stop-color="#7826e7"/><stop offset=".16" stop-color="#5218a0"/><stop offset=".35" stop-color="#330d65"/><stop offset="1" stop-color="#270950"/></linearGradient></defs></svg>