<?xml version="1.0" encoding="UTF-8" standalone="no"?>
<!DOCTYPE svg PUBLIC "-//W3C//DTD SVG 1.1//EN" "http://www.w3.org/Graphics/SVG/1.1/DTD/svg11.dtd">
<svg width="100%" height="100%" viewBox="0 0 16 16" version="1.1" xmlns="http://www.w3.org/2000/svg" xmlns:xlink="http://www.w3.org/1999/xlink" xml:space="preserve" xmlns:serif="http://www.serif.com/" style="fill-rule:evenodd;clip-rule:evenodd;stroke-linecap:round;stroke-linejoin:round;stroke-miterlimit:1.5;">
    <g transform="matrix(0.0283205,0,0,0.0288353,0.762683,1)">
        <path d="M432.102,485.516L79,485.516L79,0L352.656,0L432.102,79.449L432.102,485.516Z" style="fill:url(#_Radial1);fill-rule:nonzero;"/>
        <path d="M354.407,-17.254L356.14,-16.999L357.838,-16.576L359.486,-15.99L361.067,-15.246L362.564,-14.352L363.964,-13.317L365.253,-12.15L444.698,67.299L445.837,68.555L446.847,69.914L447.719,71.362L448.443,72.886L449.014,74.472L449.425,76.105L449.674,77.769L449.757,79.449L449.757,485.516L449.66,487.328L449.371,489.121L448.893,490.874L448.23,492.568L447.391,494.186L446.385,495.708L445.222,497.118L443.915,498.402L442.479,499.544L440.929,500.532L439.283,501.356L437.557,502.007L435.772,502.477L433.947,502.76L432.102,502.855L79,502.855L77.155,502.76L75.329,502.477L73.544,502.007L71.819,501.356L70.172,500.532L68.623,499.544L67.186,498.402L65.88,497.118L64.717,495.708L63.71,494.186L62.871,492.568L62.209,490.874L61.731,489.121L61.442,487.328L61.345,485.516L61.345,0L61.442,-1.813L61.731,-3.605L62.209,-5.358L62.871,-7.053L63.71,-8.67L64.717,-10.192L65.88,-11.603L67.186,-12.886L68.623,-14.028L70.172,-15.017L71.819,-15.841L73.544,-16.491L75.329,-16.961L77.155,-17.245L79,-17.34L352.656,-17.34L354.407,-17.254ZM79,0L79,485.516L432.102,485.516L432.102,79.449L352.656,0L79,0Z"/>
    </g>
    <g transform="matrix(1,0,0,1,0,-7)">
        <path d="M5,12L5,10M6,12L6,10M7,12L7,10M8,10L8,12M9,12L9,10M10,10L10,12M11,12L11,10M4,10L4,12M12,10L12,12M12,11.005L4,11.005" style="fill:none;stroke:black;stroke-width:0.5px;"/>
    </g>
    <g transform="matrix(1,0,0,1,4,1)">
        <path d="M7,3L6,7C6.667,7.905 7.333,7.919 8,7L7,3L7,6" style="fill:none;stroke:black;stroke-width:0.5px;"/>
    </g>
    <g transform="matrix(0.35101,0,0,0.382164,2.13221,8.92204)">
        <g transform="matrix(15.7001,0,0,15.7001,6.06698,11.7957)">
            <path d="M0.612,-0.579L0.398,-0.579L0.398,0L0.227,0L0.227,-0.579L0.018,-0.579L0.018,-0.711L0.612,-0.711L0.612,-0.579Z" style="fill-rule:nonzero;"/>
        </g>
        <g transform="matrix(12,0,0,12,14.4407,11.7957)">
            <path d="M0.285,-0.117C0.32,-0.117 0.347,-0.129 0.363,-0.153L0.363,-0.375C0.347,-0.399 0.321,-0.411 0.286,-0.411C0.255,-0.411 0.232,-0.398 0.216,-0.37C0.2,-0.343 0.192,-0.309 0.192,-0.268L0.192,-0.258C0.192,-0.218 0.2,-0.185 0.215,-0.158C0.23,-0.131 0.253,-0.117 0.285,-0.117ZM0.259,0.208C0.224,0.208 0.188,0.201 0.151,0.188C0.114,0.175 0.085,0.155 0.063,0.129L0.132,0.032C0.145,0.048 0.162,0.06 0.182,0.071C0.202,0.081 0.226,0.086 0.253,0.086C0.326,0.086 0.363,0.05 0.363,-0.021L0.363,-0.043C0.348,-0.026 0.331,-0.013 0.311,-0.004C0.291,0.005 0.268,0.01 0.243,0.01C0.176,0.01 0.123,-0.016 0.085,-0.066C0.047,-0.117 0.027,-0.181 0.027,-0.258L0.027,-0.268C0.027,-0.348 0.047,-0.414 0.085,-0.463C0.124,-0.513 0.177,-0.538 0.244,-0.538C0.274,-0.538 0.299,-0.533 0.32,-0.523C0.341,-0.514 0.358,-0.5 0.373,-0.483L0.378,-0.528L0.528,-0.528L0.528,-0.021C0.528,0.053 0.503,0.109 0.454,0.149C0.405,0.188 0.34,0.208 0.259,0.208Z" style="fill-rule:nonzero;"/>
        </g>
        <g transform="matrix(12,0,0,12,21.3489,11.7957)">
            <path d="M0.033,0L0.033,-0.092L0.267,-0.401L0.042,-0.401L0.042,-0.528L0.476,-0.528L0.476,-0.439L0.241,-0.127L0.481,-0.127L0.481,0L0.033,0Z" style="fill-rule:nonzero;"/>
        </g>
    </g>
    <defs>
        <radialGradient id="_Radial1" cx="0" cy="0" r="1" gradientUnits="userSpaceOnUse" gradientTransform="matrix(2.81076e-14,450.836,-388.412,2.33587e-14,43.6898,0)"><stop offset="0" style="stop-color:white;stop-opacity:1"/><stop offset="0.59" style="stop-color:rgb(255,255,248);stop-opacity:1"/><stop offset="0.81" style="stop-color:rgb(255,254,232);stop-opacity:1"/><stop offset="1" style="stop-color:rgb(255,253,215);stop-opacity:1"/></radialGradient>
    </defs>
</svg>
