<?xml version="1.0" encoding="UTF-8" standalone="no"?>
<!DOCTYPE svg PUBLIC "-//W3C//DTD SVG 1.1//EN" "http://www.w3.org/Graphics/SVG/1.1/DTD/svg11.dtd">
<svg width="100%" height="100%" viewBox="0 0 16 16" version="1.1" xmlns="http://www.w3.org/2000/svg" xmlns:xlink="http://www.w3.org/1999/xlink" xml:space="preserve" xmlns:serif="http://www.serif.com/" style="fill-rule:evenodd;clip-rule:evenodd;stroke-linecap:round;stroke-linejoin:round;stroke-miterlimit:1.5;">
    <g transform="matrix(0.0283205,0,0,0.0288353,0.762683,1)">
        <path d="M432.102,485.516L79,485.516L79,0L352.656,0L432.102,79.449L432.102,485.516Z" style="fill:url(#_Radial1);fill-rule:nonzero;"/>
        <path d="M354.407,-17.254L356.14,-16.999L357.838,-16.576L359.486,-15.99L361.067,-15.246L362.564,-14.352L363.964,-13.317L365.253,-12.15L444.698,67.299L445.837,68.555L446.847,69.914L447.719,71.362L448.443,72.886L449.014,74.472L449.425,76.105L449.674,77.769L449.757,79.449L449.757,485.516L449.66,487.328L449.371,489.121L448.893,490.874L448.23,492.568L447.391,494.186L446.385,495.708L445.222,497.118L443.915,498.402L442.479,499.544L440.929,500.532L439.283,501.356L437.557,502.007L435.772,502.477L433.947,502.76L432.102,502.855L79,502.855L77.155,502.76L75.329,502.477L73.544,502.007L71.819,501.356L70.172,500.532L68.623,499.544L67.186,498.402L65.88,497.118L64.717,495.708L63.71,494.186L62.871,492.568L62.209,490.874L61.731,489.121L61.442,487.328L61.345,485.516L61.345,0L61.442,-1.813L61.731,-3.605L62.209,-5.358L62.871,-7.053L63.71,-8.67L64.717,-10.192L65.88,-11.603L67.186,-12.886L68.623,-14.028L70.172,-15.017L71.819,-15.841L73.544,-16.491L75.329,-16.961L77.155,-17.245L79,-17.34L352.656,-17.34L354.407,-17.254ZM79,0L79,485.516L432.102,485.516L432.102,79.449L352.656,0L79,0Z"/>
    </g>
    <g transform="matrix(1,0,0,1,0,-7)">
        <path d="M5,12L5,10M6,12L6,10M7,12L7,10M8,10L8,12M9,12L9,10M10,10L10,12M11,12L11,10M4,10L4,12M12,10L12,12M12,11.005L4,11.005" style="fill:none;stroke:black;stroke-width:0.5px;"/>
    </g>
    <g transform="matrix(1,0,0,1,4,1)">
        <path d="M7,3L6,7C6.667,7.905 7.333,7.919 8,7L7,3L7,6" style="fill:none;stroke:black;stroke-width:0.5px;"/>
    </g>
    <g transform="matrix(0.382164,0,0,0.382164,2.64953,8.92204)">
        <g transform="matrix(15.7001,0,0,15.7001,4.10647,11.7957)">
            <path d="M0.033,0L0.033,-0.09L0.372,-0.579L0.03,-0.579L0.03,-0.711L0.583,-0.711L0.583,-0.623L0.247,-0.132L0.586,-0.132L0.586,0L0.033,0Z" style="fill-rule:nonzero;"/>
        </g>
        <g transform="matrix(12,0,0,12,13.689,11.7957)">
            <path d="M0.045,-0.665C0.045,-0.688 0.054,-0.707 0.071,-0.722C0.088,-0.737 0.11,-0.745 0.137,-0.745C0.164,-0.745 0.186,-0.737 0.203,-0.722C0.22,-0.707 0.228,-0.688 0.228,-0.665C0.228,-0.641 0.22,-0.622 0.203,-0.607C0.186,-0.592 0.164,-0.584 0.137,-0.584C0.11,-0.584 0.088,-0.592 0.071,-0.607C0.054,-0.622 0.045,-0.641 0.045,-0.665ZM0.22,-0.528L0.22,0L0.055,0L0.055,-0.528L0.22,-0.528Z" style="fill-rule:nonzero;"/>
        </g>
        <g transform="matrix(12,0,0,12,16.9879,11.7957)">
            <path d="M0.291,-0.117C0.322,-0.117 0.343,-0.131 0.355,-0.159C0.366,-0.187 0.372,-0.221 0.372,-0.26L0.372,-0.271C0.372,-0.312 0.366,-0.345 0.354,-0.372C0.342,-0.398 0.321,-0.411 0.29,-0.411C0.252,-0.411 0.226,-0.397 0.212,-0.369L0.212,-0.161C0.227,-0.132 0.253,-0.117 0.291,-0.117ZM0.332,0.01C0.306,0.01 0.283,0.005 0.264,-0.004C0.244,-0.014 0.227,-0.027 0.212,-0.043L0.212,0.203L0.048,0.203L0.048,-0.528L0.201,-0.528L0.207,-0.479C0.238,-0.519 0.28,-0.538 0.331,-0.538C0.398,-0.538 0.449,-0.514 0.484,-0.465C0.519,-0.416 0.537,-0.351 0.537,-0.271L0.537,-0.26C0.537,-0.183 0.519,-0.119 0.484,-0.068C0.45,-0.016 0.399,0.01 0.332,0.01Z" style="fill-rule:nonzero;"/>
        </g>
    </g>
    <defs>
        <radialGradient id="_Radial1" cx="0" cy="0" r="1" gradientUnits="userSpaceOnUse" gradientTransform="matrix(2.81076e-14,450.836,-388.412,2.33587e-14,43.6898,0)"><stop offset="0" style="stop-color:white;stop-opacity:1"/><stop offset="0.59" style="stop-color:rgb(255,255,248);stop-opacity:1"/><stop offset="0.81" style="stop-color:rgb(255,254,232);stop-opacity:1"/><stop offset="1" style="stop-color:rgb(255,253,215);stop-opacity:1"/></radialGradient>
    </defs>
</svg>
