<svg width="16" height="16" xmlns="http://www.w3.org/2000/svg" fill-rule="evenodd" clip-rule="evenodd" stroke-linecap="round" stroke-linejoin="round" stroke-miterlimit="1.5"><path d="M432.102 485.516H79V0h273.656l79.446 79.449v406.067z" fill="url(#_Radial1)" fill-rule="nonzero" transform="matrix(.02832 0 0 .02884 .763 1)"/><path d="M10.8.502l.049.008.048.012.047.017.044.021.043.026.04.03.036.034 2.25 2.29.032.037.029.039.024.042.02.044.017.045.012.048.007.047.002.049V15l-.003.052-.008.052-.013.05-.02.05-.023.046-.028.044-.033.04-.037.038-.041.033-.044.028-.047.024-.048.019-.051.013-.052.008L13 15.5H3l-.052-.003-.052-.008-.05-.013-.05-.02-.046-.023-.044-.028-.04-.033-.038-.037-.032-.041-.029-.044-.024-.047-.019-.049-.013-.05-.008-.052L2.5 15V1l.003-.052.008-.052.013-.05.02-.05.023-.046.029-.044.032-.04.037-.038.041-.033.044-.028.047-.024.048-.019.051-.013.052-.008L3 .5h7.75l.05.002zM3 1v14h10V3.29L10.75 1H3z"/><path d="M5 5V3m1 2V3m1 2V3m1 0v2m1 0V3m1 0v2m1 0V3M4 3v2m8-2v2m0-.995H4M11 4l-1 4c.667.905 1.333.919 2 0l-1-4v3" fill="none" stroke="#000" stroke-width=".5"/><path d="M4.417 13.43v-.54L6.45 9.956H4.399v-.792h3.318v.528L5.7 12.638h2.034v.792H4.417zM8.087 10.38c0-.105.042-.192.12-.261a.442.442 0 01.302-.106c.124 0 .225.037.303.106a.331.331 0 01.115.261c0 .11-.037.197-.115.266a.442.442 0 01-.303.106.442.442 0 01-.302-.106.338.338 0 01-.12-.266zm.803.629v2.42h-.757v-2.42h.757zM10.476 12.893a.294.294 0 00.294-.192 1.27 1.27 0 00.078-.463v-.05c0-.189-.028-.34-.083-.464-.055-.12-.151-.179-.293-.179-.175 0-.294.064-.358.193v.954c.069.133.188.201.362.201zm.188.583a.727.727 0 01-.312-.064.835.835 0 01-.238-.18v1.129h-.752v-3.352h.701l.028.224a.683.683 0 01.569-.27c.307 0 .54.11.701.334.16.225.243.523.243.89v.05c0 .354-.082.647-.243.881-.156.239-.39.358-.697.358z" fill-rule="nonzero"/><defs><radialGradient id="_Radial1" cx="0" cy="0" r="1" gradientUnits="userSpaceOnUse" gradientTransform="matrix(0 450.836 -388.412 0 43.69 0)"><stop offset="0" stop-color="#fff"/><stop offset=".59" stop-color="#fffff8"/><stop offset=".81" stop-color="#fffee8"/><stop offset="1" stop-color="#fffdd7"/></radialGradient></defs></svg>