<svg width="15" height="15" xmlns="http://www.w3.org/2000/svg" fill-rule="evenodd" clip-rule="evenodd" stroke-linejoin="round" stroke-miterlimit="2"><circle cx="7.5" cy="7.5" r="7.5" fill="url(#_Radial1)"/><path d="M7.597.001l.096.001.097.004.096.004.095.005.096.007.095.008.094.009.095.01.094.011.093.013.094.013.092.015.093.016.092.017.092.018.091.02.091.02.09.022.09.022.09.024.089.025.089.026.088.026.088.028.087.029.087.03.087.031.086.032.085.034.085.034.084.035.084.036.083.037.083.038.082.039.082.04.081.041.081.042.08.043.079.044.079.044.078.046.078.046.077.048.076.048.076.049.075.051.075.051.073.051.074.053.072.054.072.054.071.056.071.056.07.057.069.057.068.059.068.059.067.06.066.061.065.062.065.062.064.064.064.064.062.065.062.065.061.066.06.067.059.068.059.068.057.069.057.07.056.071.056.071.054.072.054.072.053.074.051.073.051.075.051.075.049.076.048.076.048.077.046.078.046.078.044.079.044.079.043.08.042.081.041.081.04.082.039.082.038.083.037.083.036.084.035.084.034.085.034.085.032.086.031.087.03.087.029.087.028.088.026.088.026.089.025.089.024.09.022.09.022.09.02.091.02.091.018.092.017.092.016.093.015.092.013.094.013.093.011.094.01.095.009.094.008.095.007.096.005.095.004.096.004.097.001.096L15 7.5l-.001.097-.001.096-.004.097-.004.096-.005.095-.007.096-.008.095-.009.094-.01.095-.011.094-.013.093-.013.094-.015.092-.016.093-.017.092-.018.092-.02.091-.02.091-.022.09-.022.09-.024.09-.025.089-.026.089-.026.088-.028.088-.029.087-.03.087-.031.087-.032.086-.034.085-.034.085-.035.084-.036.084-.037.083-.038.083-.039.082-.04.082-.041.081-.042.081-.043.08-.044.079-.044.079-.046.078-.046.078-.048.077-.048.076-.049.076-.051.075-.051.075-.051.073-.053.074-.054.072-.054.072-.056.071-.056.071-.057.07-.057.069-.059.068-.059.068-.06.067-.061.066-.062.065-.062.065-.064.064-.064.064-.065.062-.065.062-.066.061-.067.06-.068.059-.068.059-.069.057-.07.057-.071.056-.071.056-.072.054-.072.054-.074.053-.073.051-.075.051-.075.051-.076.049-.076.048-.077.048-.078.046-.078.046-.079.044-.079.044-.08.043-.081.042-.081.041-.082.04-.082.039-.083.038-.083.037-.084.036-.084.035-.085.034-.085.034-.086.032-.087.031-.087.03-.087.029-.088.028-.088.026-.089.026-.089.025-.09.024-.09.022-.09.022-.091.02-.091.02-.092.018-.092.017-.093.016-.092.015-.094.013-.093.013-.094.011-.095.01-.094.009-.095.008-.096.007-.095.005-.096.004-.097.004-.096.001L7.5 15l-.097-.001-.096-.001-.097-.004-.096-.004-.095-.005-.096-.007-.095-.008-.094-.009-.095-.01-.094-.011-.093-.013-.094-.013-.092-.015-.093-.016-.092-.017-.092-.018-.091-.02-.091-.02-.09-.022-.09-.022-.09-.024-.089-.025-.089-.026-.088-.026-.088-.028-.087-.029-.087-.03-.087-.031-.086-.032-.085-.034-.085-.034-.084-.035-.084-.036-.083-.037-.083-.038-.082-.039-.082-.04-.081-.041-.081-.042-.08-.043-.079-.044-.079-.044-.078-.046-.078-.046-.077-.048-.076-.048-.076-.049-.075-.051-.075-.051-.073-.051-.074-.053-.072-.054-.072-.054-.071-.056-.071-.056-.07-.057-.069-.057-.068-.059-.068-.059-.067-.06-.066-.061-.065-.062-.065-.062-.064-.064-.064-.064-.062-.065-.062-.065-.061-.066-.06-.067-.059-.068-.059-.068-.057-.069-.057-.07-.056-.071-.056-.071-.054-.072-.054-.072-.053-.074-.051-.073-.051-.075-.051-.075-.049-.076-.048-.076-.048-.077-.046-.078-.046-.078-.044-.079-.044-.079-.043-.08-.042-.081-.041-.081-.04-.082-.039-.082-.038-.083-.037-.083-.036-.084-.035-.084-.034-.085-.034-.085-.032-.086-.031-.087-.03-.087-.029-.087-.028-.088-.026-.088-.026-.089-.025-.089-.024-.09-.022-.09-.022-.09-.02-.091-.02-.091-.018-.092-.017-.092-.016-.093-.015-.092-.013-.094-.013-.093-.011-.094-.01-.095-.009-.094-.008-.095-.007-.096-.005-.095-.004-.096-.004-.097-.001-.096L0 7.5l.001-.097.001-.096.004-.097.004-.096.005-.095.007-.096.008-.095.009-.094.01-.095.011-.094.013-.093.013-.094.015-.092.016-.093.017-.092.018-.092.02-.091.02-.091.022-.09.022-.09.024-.09.025-.089.026-.089.026-.088.028-.088.029-.087.03-.087.031-.087.032-.086.034-.085.034-.085.035-.084.036-.084.037-.083.038-.083.039-.082.04-.082.041-.081.042-.081.043-.08.044-.079.044-.079.046-.078.046-.078.048-.077.048-.076.049-.076.051-.075.051-.075.051-.073.053-.074.054-.072.054-.072.056-.071.056-.071.057-.07.057-.069.059-.068.059-.068.06-.067.061-.066.062-.065.062-.065.064-.064.064-.064.065-.062.065-.062.066-.061.067-.06.068-.059.068-.059.069-.057.07-.057.071-.056.071-.056.072-.054.072-.054.074-.053.073-.051.075-.051.075-.051.076-.049.076-.048.077-.048.078-.046.078-.046.079-.044.079-.044.08-.043.081-.042.081-.041.082-.04.082-.039.083-.038.083-.037.084-.036.084-.035.085-.034.085-.034.086-.032.087-.031.087-.03.087-.029.088-.028.088-.026.089-.026.089-.025.09-.024.09-.022.09-.022.091-.02.091-.02.092-.018.092-.017.093-.016.092-.015.094-.013.093-.013.094-.011.095-.01.094-.009.095-.008.096-.007.095-.005.096-.004.097-.004.096-.001L7.5 0l.097.001zm-.181 1l-.084.001-.084.003-.083.004-.083.004-.083.006-.082.007-.082.008-.082.008-.081.01-.082.011-.08.012-.081.013-.08.014-.08.014-.079.016-.079.017-.079.018-.078.018-.078.02-.078.02-.077.022-.077.022-.076.023-.076.024-.076.026-.075.025-.075.027-.074.028-.074.029-.073.029-.073.031-.073.031-.072.032-.072.033-.071.034-.071.034-.07.036-.07.036-.069.037-.069.038-.068.039-.068.04-.067.04-.067.041-.066.042-.066.043-.065.043-.065.044-.064.045-.063.046-.063.047-.062.047-.062.048-.061.048-.061.05-.06.05-.059.051-.059.051-.058.052-.058.053-.056.054-.057.054-.055.055-.055.055-.054.057-.054.056-.053.058-.052.058-.051.059-.051.059-.05.06-.05.061-.048.061-.048.062-.047.062-.047.063-.046.063-.045.064-.044.065-.043.065-.043.066-.042.066-.041.067-.04.067-.04.068-.039.068-.038.069-.037.069-.036.07-.036.07-.034.071-.034.071-.033.072-.032.072-.031.073-.031.073-.029.073-.029.074-.028.074-.027.075-.025.075-.026.076-.024.076-.023.076-.022.077-.022.077-.02.078-.02.078-.018.078-.018.079-.017.079-.016.079-.014.08-.014.08-.013.081-.012.08-.011.082-.01.081-.008.082-.008.082-.007.082-.006.083-.004.083-.004.083-.003.084-.001.084L1 7.5l.001.084.001.084.003.084.004.083.004.083.006.083.007.082.008.082.008.082.01.081.011.082.012.08.013.081.014.08.014.08.016.079.017.079.018.079.018.078.02.078.02.078.022.077.022.077.023.076.024.076.026.076.025.075.027.075.028.074.029.074.029.073.031.073.031.073.032.072.033.072.034.071.034.071.036.07.036.07.037.069.038.069.039.068.04.068.04.067.041.067.042.066.043.066.043.065.044.065.045.064.046.063.047.063.047.062.048.062.048.061.05.061.05.06.051.059.051.059.052.058.053.058.054.056.054.057.055.055.055.055.057.054.056.054.058.053.058.052.059.051.059.051.06.05.061.05.061.048.062.048.062.047.063.047.063.046.064.045.065.044.065.043.066.043.066.042.067.041.067.04.068.04.068.039.069.038.069.037.07.036.07.036.071.034.071.034.072.033.072.032.073.031.073.031.073.029.074.029.074.028.075.027.075.025.076.026.076.024.076.023.077.022.077.022.078.02.078.02.078.018.079.018.079.017.079.016.08.014.08.014.081.013.08.012.082.011.081.01.082.008.082.008.082.007.083.006.083.004.083.004.084.003.084.001L7.5 14l.084-.001.084-.001.084-.003.083-.004.083-.004.083-.006.082-.007.082-.008.082-.008.081-.01.082-.011.08-.012.081-.013.08-.014.08-.014.079-.016.079-.017.079-.018.078-.018.078-.02.078-.02.077-.022.077-.022.076-.023.076-.024.076-.026.075-.025.075-.027.074-.028.074-.029.073-.029.073-.031.073-.031.072-.032.072-.033.071-.034.071-.034.07-.036.07-.036.069-.037.069-.038.068-.039.068-.04.067-.04.067-.041.066-.042.066-.043.065-.043.065-.044.064-.045.063-.046.063-.047.062-.047.062-.048.061-.048.061-.05.06-.05.059-.051.059-.051.058-.052.058-.053.056-.054.057-.054.055-.055.055-.055.054-.057.054-.056.053-.058.052-.058.051-.059.051-.059.05-.06.05-.061.048-.061.048-.062.047-.062.047-.063.046-.063.045-.064.044-.065.043-.065.043-.066.042-.066.041-.067.04-.067.04-.068.039-.068.038-.069.037-.069.036-.07.036-.07.034-.071.034-.071.033-.072.032-.072.031-.073.031-.073.029-.073.029-.074.028-.074.027-.075.025-.075.026-.076.024-.076.023-.076.022-.077.022-.077.02-.078.02-.078.018-.078.018-.079.017-.079.016-.079.014-.08.014-.08.013-.081.012-.08.011-.082.01-.081.008-.082.008-.082.007-.082.006-.083.004-.083.004-.083.003-.084.001-.084L14 7.5l-.001-.084-.001-.084-.003-.084-.004-.083-.004-.083-.006-.083-.007-.082-.008-.082-.008-.082-.01-.081-.011-.082-.012-.08-.013-.081-.014-.08-.014-.08-.016-.079-.017-.079-.018-.079-.018-.078-.02-.078-.02-.078-.022-.077-.022-.077-.023-.076-.024-.076-.026-.076-.025-.075-.027-.075-.028-.074-.029-.074-.029-.073-.031-.073-.031-.073-.032-.072-.033-.072-.034-.071-.034-.071-.036-.07-.036-.07-.037-.069-.038-.069-.039-.068-.04-.068-.04-.067-.041-.067-.042-.066-.043-.066-.043-.065-.044-.065-.045-.064-.046-.063-.047-.063-.047-.062-.048-.062-.048-.061-.05-.061-.05-.06-.051-.059-.051-.059-.052-.058-.053-.058-.054-.056-.054-.057-.055-.055-.055-.055-.057-.054-.056-.054-.058-.053-.058-.052-.059-.051-.059-.051-.06-.05-.061-.05-.061-.048-.062-.048-.062-.047-.063-.047-.063-.046-.064-.045-.065-.044-.065-.043-.066-.043-.066-.042-.067-.041-.067-.04-.068-.04-.068-.039-.069-.038-.069-.037-.07-.036-.07-.036-.071-.034-.071-.034-.072-.033-.072-.032-.073-.031-.073-.031-.073-.029-.074-.029-.074-.028-.075-.027-.075-.025-.076-.026-.076-.024-.076-.023-.077-.022-.077-.022-.078-.02-.078-.02-.078-.018-.079-.018-.079-.017-.079-.016-.08-.014-.08-.014-.081-.013-.08-.012-.082-.011-.081-.01-.082-.008-.082-.008-.082-.007-.083-.006-.083-.004-.083-.004-.084-.003-.084-.001L7.5 1l-.084.001z" fill="#33323e"/><path d="M3.595 5.226c0-.463.16-.926.48-1.404.32-.478.784-.866 1.392-1.18.608-.314 1.312-.463 2.128-.463.752 0 1.424.135 2 .388.576.27 1.024.613 1.344 1.061.304.448.464.941.464 1.464 0 .403-.08.777-.272 1.09a3.56 3.56 0 01-.64.807c-.24.224-.688.598-1.328 1.135-.176.15-.32.284-.432.404-.096.104-.176.209-.224.313a.922.922 0 00-.128.284c-.032.09-.064.254-.128.493-.096.508-.416.762-.928.762a1.02 1.02 0 01-.688-.254c-.176-.164-.272-.403-.272-.732 0-.403.064-.762.192-1.06.144-.3.32-.568.544-.792.224-.224.528-.493.912-.807.336-.269.576-.478.72-.612.144-.135.272-.3.368-.463.112-.18.16-.359.16-.553 0-.388-.16-.717-.464-.986-.304-.269-.704-.403-1.2-.403-.576 0-.992.134-1.264.403s-.496.672-.688 1.195c-.176.553-.512.822-1.008.822-.288 0-.544-.09-.736-.284-.208-.194-.304-.404-.304-.628zm3.808 7.992c-.32 0-.592-.09-.832-.284-.24-.194-.352-.463-.352-.806 0-.314.112-.568.336-.777.24-.21.512-.314.848-.314.336 0 .608.105.832.314.224.209.336.463.336.777 0 .343-.112.612-.352.806-.24.194-.512.284-.816.284z" fill="#fff" fill-rule="nonzero"/><defs><radialGradient id="_Radial1" cx="0" cy="0" r="1" gradientUnits="userSpaceOnUse" gradientTransform="matrix(7 8 -8 7 5 5)"><stop offset="0" stop-color="#282731"/><stop offset=".58" stop-color="#161619"/><stop offset="1" stop-color="#0e0e0e"/></radialGradient></defs></svg>