<svg width="13" height="13" xmlns="http://www.w3.org/2000/svg" fill-rule="evenodd" clip-rule="evenodd" stroke-linejoin="round" stroke-miterlimit="2"><circle cx="6.5" cy="6.5" r="6.5" fill="none"/><clipPath id="a"><circle cx="6.5" cy="6.5" r="6.5"/></clipPath><g clip-path="url(#a)"><path d="M10.406 3.987c0 .377-.158.744-.482 1.111l-.046.05L7.45 8.185c-.593.665-1.25 1.647-1.779 1.697-.472.05-3.168-2.809-3.168-3.424 0-.328.13-.635.39-.923.259-.278.713-.13.99.377.353.675 1.612 1.796 1.714 1.796.046 0 .13-.05.26-.148.12-.11.527-.655.694-.834l2.446-2.64c.24-.258.463-.456.648-.586.195-.129.352-.198.482-.198.102 0 .176.04.213.12.046.078.065.217.065.406v.159z" fill-rule="nonzero"/><path d="M10.174 2.766l.102.01.102.03.046.02.046.02.056.02.046.03.047.039.037.03.037.04.037.039.065.09.046.089.028.079.027.08.019.118.01.08.009.08.009.089v.288l-.01.049v.1l-.009.049-.009.05-.01.05-.009.049-.009.05-.01.049-.018.04-.009.05-.018.049-.019.05-.018.04-.019.049-.018.05-.019.04-.028.049-.018.04-.028.05-.028.039-.028.05-.027.04-.028.039-.028.04-.037.05-.028.039-.028.04-.037.04-.074.089-.037.04-2.427 3.036-.065.07-.055.06-.102.128-.111.139-.12.139-.112.139-.12.139-.12.139-.056.07-.065.069-.065.07-.065.069-.055.06-.065.059-.065.07-.074.059-.065.05-.065.059-.074.05-.037.03-.037.02-.046.019-.037.03-.037.02-.047.02-.046.02-.037.02-.046.01-.047.019-.055.01-.047.01-.046.01-.065.01h-.111l-.046-.01-.046-.01-.047-.01-.037-.01-.065-.02-.065-.03-.064-.04-.056-.03-.065-.029-.055-.04-.056-.04-.056-.039-.064-.05-.056-.05-.065-.049-.065-.05-.064-.05-.065-.059-.065-.06-.13-.118-.139-.13-.139-.128-.139-.14-.148-.148-.139-.149-.148-.149-.139-.149-.139-.158-.13-.15-.13-.158-.129-.149-.12-.149-.065-.07-.056-.079-.055-.07-.047-.069-.055-.07-.047-.069-.046-.07-.046-.069-.046-.069-.038-.06-.037-.069-.037-.06-.037-.069-.027-.06-.028-.06-.028-.069-.028-.07-.018-.069v-.05l-.01-.039-.009-.05v-.129l.01-.05V6.29l.009-.05V6.2l.009-.049.01-.04.008-.04.01-.049.009-.04.018-.04.01-.039.018-.05.01-.04.018-.039.019-.04.018-.04.037-.079.046-.079.047-.07.055-.079.056-.07.056-.069.064-.07.047-.049.055-.05.056-.05.065-.039.065-.03.074-.03.064-.03.075-.019.074-.01.074-.01h.065l.074.01.074.01.065.01.064.02.065.02.065.02.065.03.056.029.055.04.056.04.055.04.056.039.046.05.047.049.046.05.046.05.046.059.038.05.046.059.092.169.065.109.093.119.102.139.12.139.12.139.13.139.14.129.129.129.13.129.194.168.074-.089.102-.119.102-.129.102-.129.046-.06.047-.06.046-.049.046-.04 2.446-2.65.101-.098.093-.09.093-.099.092-.08.084-.079.092-.08.047-.029.046-.04.037-.03.046-.03.047-.029.046-.03.046-.03.047-.03.046-.02.046-.019.047-.03.046-.02.046-.02.046-.01.056-.02.046-.01.056-.01.056-.009.055-.01h.102zm-.065.536h-.028l-.027.01h-.028l-.028.01-.028.01-.028.01-.027.01-.037.01-.028.02-.037.01-.028.02-.037.019-.028.02-.037.03-.037.02-.037.03-.037.02-.037.029-.037.03-.074.07-.084.069-.083.07-.083.088-.084.09-.092.089-2.446 2.64-.037.04-.037.05-.046.049-.047.05-.092.128-.111.13-.102.119-.093.119-.037.04-.037.049-.037.03-.018.03-.047.03-.046.039-.037.02-.028.02-.028.02-.028.01-.018.01h-.038l-.018-.01-.027-.01-.028-.03-.037-.02-.047-.03-.046-.04-.046-.04-.056-.049-.055-.05-.065-.05-.056-.059-.065-.06-.074-.059-.065-.07-.064-.069-.075-.07-.074-.069-.064-.07-.075-.079-.064-.069-.074-.08-.065-.069-.065-.08-.056-.069-.065-.08-.055-.069-.056-.069-.046-.08-.046-.069-.047-.06-.018-.04-.01-.029-.027-.04-.028-.05-.028-.039-.028-.04-.037-.04-.027-.039-.028-.03-.037-.03-.028-.03-.037-.03-.028-.029-.037-.02-.028-.02-.037-.02-.037-.01-.028-.02-.037-.01-.037-.01h-.028l-.037-.009h-.092l-.037.01-.028.01-.028.01-.037.01-.028.02-.027.02-.028.02-.028.02-.019.019-.046.06-.046.05-.037.059-.047.05-.027.059-.037.06-.028.049-.01.03-.018.03-.01.03-.009.03-.009.029-.009.03-.01.03-.009.03-.009.029-.01.03v.03l-.008.03v.029l-.01.03v.119l.01.07.018.069.037.09.047.098.064.11.074.109.084.129.092.129.102.129.112.149.11.139.121.148.13.15.13.148.138.149.14.149.129.139.139.149.139.139.139.129.139.129.13.129.12.109.13.109.11.1.112.079.102.08.092.059.084.05.074.039.092.02h.047l.028-.01h.027l.028-.01.019-.01.027-.01.028-.01.028-.01.028-.01.028-.02.018-.01.028-.02.028-.01.028-.02.055-.039.056-.05.055-.04.056-.049.055-.05.056-.059.056-.06.055-.059.056-.06.055-.06.065-.069.111-.129.111-.139.12-.138.112-.15.111-.128.12-.14.056-.069.056-.06 2.427-3.036.046-.05.065-.07.028-.039.027-.03.019-.03.028-.04.027-.029.019-.04.018-.03.028-.04.019-.029.018-.03.019-.04.018-.03.019-.039.01-.03.018-.04.009-.029.018-.04.01-.03.009-.04.01-.029.008-.04.01-.03.009-.04v-.029l.01-.04v-.03l.009-.04V3.7l-.01-.06-.009-.05v-.05l-.01-.03-.009-.02v-.02l-.009-.02-.009-.01-.01-.019-.009-.01-.009-.02-.01-.01-.008-.01-.01-.01-.009-.01-.01-.01-.018-.01-.009-.01h-.018l-.01-.01h-.018l-.019-.009h-.074z" fill="#fff"/></g><path d="M6.584.001l.084.001.083.003.083.003.083.005L7 .019l.082.007.082.008.082.008.081.01.082.011.08.012.081.013.08.014.08.014.079.016.079.017.079.018.079.018.078.02.077.02.078.022.077.022.076.023.076.025.076.025.075.026.075.027.074.027.074.029.074.03.073.03.073.031.072.033.072.033.071.033.071.035.07.036.07.036.069.037.069.038.068.039.068.039.067.041.067.041.066.042.066.042.065.044.065.044.064.045.063.046.063.046.062.047.062.048.061.049.061.049.06.05.059.051.058.051.058.052.058.053.057.054.056.054.055.055.055.055.054.056.054.057.053.058.052.058.051.058.051.059.05.06.049.061.049.061.048.062.047.062.046.063.046.063.045.064.044.065.044.065.042.066.042.066.041.067.041.067.039.068.039.068.038.069.037.069.036.07.036.07.035.071.033.071.033.072.033.072.031.073.03.073.03.074.029.074.027.074.027.075.026.075.025.076.025.076.023.076.022.077.022.078.02.077.02.078.018.079.018.079.017.079.016.079.014.08.014.08.013.081.012.08.011.082.01.081.008.082.008.082.007.082.006.083.005.083.003.083.003.083.001.084L13 6.5l-.001.084-.001.084-.003.083-.003.083-.005.083-.006.083-.007.082-.008.082-.008.082-.01.081-.011.082-.012.08-.013.081-.014.08-.014.08-.016.079-.017.079-.018.079-.018.079-.02.078-.02.077-.022.078-.022.077-.023.076-.025.076-.025.076-.026.075-.027.075-.027.074-.029.074-.03.074-.03.073-.031.073-.033.072-.033.072-.033.071-.035.071-.036.07-.036.07-.037.069-.038.069-.039.068-.039.068-.041.067-.041.067-.042.066-.042.066-.044.065-.044.065-.045.064-.046.063-.046.063-.047.062-.048.062-.049.061-.049.061-.05.06-.051.059-.051.058-.052.058-.053.058-.054.057-.054.056-.055.055-.055.055-.056.054-.057.054-.058.053-.058.052-.058.051-.059.051-.06.05-.061.049-.061.049-.062.048-.062.047-.063.046-.063.046-.064.045-.065.044-.065.044-.066.042-.066.042-.067.041-.067.041-.068.039-.068.039-.069.038-.069.037-.07.036-.07.036-.071.035-.071.033-.072.033-.072.033-.073.031-.073.03-.074.03-.074.029-.074.027-.075.027-.075.026-.076.025-.076.025-.076.023-.077.022-.078.022-.077.02-.078.02-.079.018-.079.018-.079.017-.079.016-.08.014-.08.014-.081.013-.08.012-.082.011-.081.01-.082.008-.082.008-.082.007-.083.006-.083.005-.083.003-.083.003-.084.001L6.5 13l-.084-.001-.084-.001-.083-.003-.083-.003-.083-.005L6 12.981l-.082-.007-.082-.008-.082-.008-.081-.01-.082-.011-.08-.012-.081-.013-.08-.014-.08-.014-.079-.016-.079-.017-.079-.018-.079-.018-.078-.02-.077-.02-.078-.022-.077-.022-.076-.023-.076-.025-.076-.025-.075-.026-.075-.027-.074-.027-.074-.029-.074-.03-.073-.03-.073-.031-.072-.033-.072-.033-.071-.033-.071-.035-.07-.036-.07-.036-.069-.037-.069-.038-.068-.039-.068-.039-.067-.041-.067-.041-.066-.042-.066-.042-.065-.044-.065-.044-.064-.045-.063-.046-.063-.046-.062-.047-.062-.048-.061-.049-.061-.049-.06-.05-.059-.051-.058-.051-.058-.052-.058-.053-.057-.054-.056-.054-.055-.055-.055-.055-.054-.056-.054-.057-.053-.058-.052-.058-.051-.058-.051-.059-.05-.06-.049-.061-.049-.061-.048-.062-.047-.062-.046-.063-.046-.063-.045-.064-.044-.065-.044-.065-.042-.066-.042-.066-.041-.067-.041-.067-.039-.068-.039-.068-.038-.069-.037-.069-.036-.07-.036-.07-.035-.071-.033-.071-.033-.072-.033-.072-.031-.073-.03-.073-.03-.074-.029-.074-.027-.074-.027-.075-.026-.075-.025-.076-.025-.076-.023-.076-.022-.077-.022-.078-.02-.077-.02-.078-.018-.079-.018-.079-.017-.079-.016-.079-.014-.08-.014-.08-.013-.081-.012-.08-.011-.082-.01-.081-.008-.082-.008-.082L.019 7l-.006-.083-.005-.083-.003-.083-.003-.083-.001-.084L0 6.5l.001-.084.001-.084.003-.083.003-.083.005-.083L.019 6l.007-.082.008-.082.008-.082.01-.081.011-.082.012-.08.013-.081.014-.08.014-.08.016-.079.017-.079.018-.079.018-.079.02-.078.02-.077.022-.078.022-.077.023-.076.025-.076.025-.076.026-.075.027-.075.027-.074.029-.074.03-.074.03-.073.031-.073.033-.072.033-.072.033-.071.035-.071.036-.07.036-.07.037-.069.038-.069.039-.068.039-.068.041-.067.041-.067.042-.066.042-.066.044-.065.044-.065.045-.064.046-.063.046-.063.047-.062.048-.062.049-.061.049-.061.05-.06.051-.059.051-.058.052-.058.053-.058.054-.057.054-.056.055-.055.055-.055.056-.054.057-.054.058-.053.058-.052.058-.051.059-.051.06-.05.061-.049.061-.049.062-.048.062-.047.063-.046.063-.046.064-.045.065-.044.065-.044.066-.042.066-.042.067-.041.067-.041.068-.039.068-.039.069-.038.069-.037.07-.036.07-.036.071-.035.071-.033.072-.033.072-.033.073-.031.073-.03.074-.03.074-.029.074-.027.075-.027.075-.026.076-.025.076-.025.076-.023.077-.022.078-.022.077-.02.078-.02.079-.018.079-.018.079-.017.079-.016.08-.014.08-.014.081-.013.08-.012.082-.011.081-.01.082-.008.082-.008L6 .019l.083-.006.083-.005.083-.003.083-.003.084-.001L6.5 0l.084.001zM6.429 1l-.071.002-.071.002-.071.003-.07.004-.07.005-.07.006-.069.006-.069.008-.069.008-.069.009-.068.01-.068.011-.068.012-.067.013-.068.013-.066.014-.067.015-.066.016-.066.016-.066.018-.065.018-.065.019-.065.019-.064.021-.064.021-.064.022-.063.023-.063.023-.062.024-.062.025-.062.026-.062.027-.061.027-.06.028-.061.028-.06.029-.059.03-.059.031-.059.032-.058.032-.058.033-.057.033-.057.034-.056.035-.056.035-.056.037-.055.036-.055.038-.054.038-.054.038-.053.04-.053.04-.052.04-.052.041-.051.042-.051.043-.05.043-.05.043-.049.044-.049.045-.048.045-.047.046-.047.047-.047.047-.046.047-.045.048-.045.049-.044.049-.043.05-.043.05-.043.051-.042.051-.041.052-.04.052-.04.053-.04.053-.038.054-.038.054-.038.055-.036.055-.037.056-.035.056-.035.056-.034.057-.033.057-.033.058-.032.058-.032.059-.031.059-.03.059-.029.06-.028.061-.028.06-.027.061-.027.062-.026.062-.025.062-.024.062-.023.063-.023.063-.022.064-.021.064-.021.064-.019.065-.019.065-.018.065-.018.066-.016.066-.016.066-.015.067-.014.066-.013.068-.013.067-.012.068-.011.068-.01.068-.009.069-.008.069-.008.069-.006.069-.006.07-.005.07-.004.07-.003.071-.002.071L1 6.429v.142l.002.071.002.071.003.071.004.07.005.07.006.07.006.069.008.069.008.069.009.069.01.068.011.068.012.068.013.067.013.068.014.066.015.067.016.066.016.066.018.066.018.065.019.065.019.065.021.064.021.064.022.064.023.063.023.063.024.062.025.062.026.062.027.062.027.061.028.06.028.061.029.06.03.059.031.059.032.059.032.058.033.058.033.057.034.057.035.056.035.056.037.056.036.055.038.055.038.054.038.054.04.053.04.053.04.052.041.052.042.051.043.051.043.05.043.05.044.049.045.049.045.048.046.047.047.047.047.047.047.046.048.045.049.045.049.044.05.043.05.043.051.043.051.042.052.041.052.04.053.04.053.04.054.038.054.038.055.038.055.036.056.037.056.035.056.035.057.034.057.033.058.033.058.032.059.032.059.031.059.03.06.029.061.028.06.028.061.027.062.027.062.026.062.025.062.024.063.023.063.023.064.022.064.021.064.021.065.019.065.019.065.018.066.018.066.016.066.016.067.015.066.014.068.013.067.013.068.012.068.011.068.01.069.009.069.008.069.008.069.006.07.006.07.005.07.004.071.003.071.002.071.002h.142l.071-.002.071-.002.071-.003.07-.004.07-.005.07-.006.069-.006.069-.008.069-.008.069-.009.068-.01.068-.011.068-.012.067-.013.068-.013.066-.014.067-.015.066-.016.066-.016.066-.018.065-.018.065-.019.065-.019.064-.021.064-.021.064-.022.063-.023.063-.023.062-.024.062-.025.062-.026.062-.027.061-.027.06-.028.061-.028.06-.029.059-.03.059-.031.059-.032.058-.032.058-.033.057-.033.057-.034.056-.035.056-.035.056-.037.055-.036.055-.038.054-.038.054-.038.053-.04.053-.04.052-.04.052-.041.051-.042.051-.043.05-.043.05-.043.049-.044.049-.045.048-.045.047-.046.047-.047.047-.047.046-.047.045-.048.045-.049.044-.049.043-.05.043-.05.043-.051.042-.051.041-.052.04-.052.04-.053.04-.053.038-.054.038-.054.038-.055.036-.055.037-.056.035-.056.035-.056.034-.057.033-.057.033-.058.032-.058.032-.059.031-.059.03-.059.029-.06.028-.061.028-.06.027-.061.027-.062.026-.062.025-.062.024-.062.023-.063.023-.063.022-.064.021-.064.021-.064.019-.065.019-.065.018-.065.018-.066.016-.066.016-.066.015-.067.014-.066.013-.068.013-.067.012-.068.011-.068.01-.068.009-.069.008-.069.008-.069.006-.069.006-.07.005-.07.004-.07.003-.071.002-.071.002-.071v-.142l-.002-.071-.002-.071-.003-.071-.004-.07-.005-.07-.006-.07-.006-.069-.008-.069-.008-.069-.009-.069-.01-.068-.011-.068-.012-.068-.013-.067-.013-.068-.014-.066-.015-.067-.016-.066-.016-.066-.018-.066-.018-.065-.019-.065-.019-.065-.021-.064-.021-.064-.022-.064-.023-.063-.023-.063-.024-.062-.025-.062-.026-.062-.027-.062-.027-.061-.028-.06-.028-.061-.029-.06-.03-.059-.031-.059-.032-.059-.032-.058-.033-.058-.033-.057-.034-.057-.035-.056-.035-.056-.037-.056-.036-.055-.038-.055-.038-.054-.038-.054-.04-.053-.04-.053-.04-.052-.041-.052-.042-.051-.043-.051-.043-.05-.043-.05-.044-.049-.045-.049-.045-.048-.046-.047-.047-.047-.047-.047-.047-.046-.048-.045-.049-.045-.049-.044-.05-.043-.05-.043-.051-.043-.051-.042-.052-.041-.052-.04-.053-.04-.053-.04-.054-.038-.054-.038-.055-.038-.055-.036-.056-.037-.056-.035-.056-.035-.057-.034-.057-.033-.058-.033-.058-.032-.059-.032-.059-.031-.059-.03-.06-.029-.061-.028-.06-.028-.061-.027-.062-.027-.062-.026-.062-.025-.062-.024-.063-.023-.063-.023-.064-.022-.064-.021-.064-.021-.065-.019-.065-.019-.065-.018-.066-.018-.066-.016-.066-.016-.067-.015-.066-.014-.068-.013-.067-.013-.068-.012-.068-.011-.068-.01-.069-.009-.069-.008-.069-.008-.069-.006-.07-.006-.07-.005-.07-.004-.071-.003-.071-.002L6.571 1h-.142z" fill="#aca899"/></svg>