<?xml version="1.0" standalone="no"?>

<!DOCTYPE svg PUBLIC "-//W3C//DTD SVG 20010904//EN"

 "http://www.w3.org/TR/2001/REC-SVG-20010904/DTD/svg10.dtd">

<svg version="1.0" xmlns="http://www.w3.org/2000/svg"

 width="150.000000pt" height="150.000000pt" viewBox="0 0 150.000000 150.000000"

 preserveAspectRatio="xMidYMid meet">

<path fill="#262626" stroke="none" d="
M19 148

C12 146 7 141 4 134

C1 129 1 129 1 75

C1 21 1 21 4 15

C7 9 13 4 20 2

C28 -1 122 -1 130 2

C137 4 143 9 146 15

C150 21 150 21 150 75

C150 129 150 129 146 135

C145 138 142 142 139 144

C131 150 130 150 75 150

C29 150 24 150 19 148

Z

"/>

<path fill="#aad300" stroke="none" d="
M66 126

C60 125 60 122 66 113

C71 106 77 93 79 88

C80 86 81 83 83 82

C85 80 85 80 94 81

C99 81 107 81 113 81

C127 82 128 82 126 90

C124 95 123 97 117 103

C109 112 96 120 87 124

C80 126 69 127 66 126

Z

M38 118

C28 107 24 94 24 76

C24 57 29 41 38 31

C41 28 42 27 45 27

C47 27 50 28 50 29

C52 31 56 38 58 44

C60 50 63 54 69 62

C77 72 77 75 76 82

C73 94 60 115 53 120

C47 125 43 124 38 118

Z

M97 76

C83 71 70 59 64 46

C57 33 57 26 64 24

C73 21 94 30 109 44

C122 57 129 70 125 74

C121 78 106 79 97 76

Z

"/>

<path fill="#41bbda" stroke="none" d="
M66 126

C60 125 60 122 66 113

C71 106 77 93 79 88

C80 86 81 83 83 82

C85 80 85 80 94 81

C99 81 107 81 113 81

C127 82 128 82 126 90

C124 95 123 97 117 103

C109 112 96 120 87 124

C80 126 69 127 66 126

Z

"/>

</svg>

