<?xml version="1.0" encoding="utf-8"?>
<!-- Svg Vector Icons : http://www.onlinewebfonts.com/icon -->
<!DOCTYPE svg PUBLIC "-//W3C//DTD SVG 1.1//EN" "http://www.w3.org/Graphics/SVG/1.1/DTD/svg11.dtd">
<svg version="1.1" xmlns="http://www.w3.org/2000/svg" xmlns:xlink="http://www.w3.org/1999/xlink" x="0px" y="0px" viewBox="0 0 1000 1000" enable-background="new 0 0 1000 1000" xml:space="preserve">
<metadata> Svg Vector Icons : http://www.onlinewebfonts.com/icon </metadata>
<g><path d="M990,157c0-77-70-147-147-147H157C80,10,10,80,10,157v679c0,84,70,154,147,154h679c84,0,154-63,154-140V157z M381,661c-35,0-63-7-105-14l-105,49l28-91C129,556,80,486,80,409c0-140,133-245,294-245c140,0,266,77,294,196c-7,0-28,0-35,0c-147,21-238,112-238,238c0,21,0,42,7,63C402,661,388,661,381,661 M815,759l21,70l-77-42c-28,7-84,7-112,0c-126,0-217-84-217-196c0-119,133-203,266-203s224,91,231,196C927,661,892,717,815,759"/><path d="M241,332c0,23.2,18.8,42,42,42c23.2,0,42-18.8,42-42l0,0c0-23.2-18.8-42-42-42C259.8,290,241,308.8,241,332z"/><path d="M458,332c0,23.2,18.8,42,42,42s42-18.8,42-42c0-23.2-18.8-42-42-42S458,308.8,458,332L458,332z"/><path d="M549,528c0,15.5,12.5,28,28,28c15.5,0,28-12.5,28-28c0-15.5-12.5-28-28-28C561.5,500,549,512.5,549,528z"/><path d="M724,528c0,15.5,12.5,28,28,28c15.5,0,28-12.5,28-28c0-15.5-12.5-28-28-28C736.5,500,724,512.5,724,528z"/></g>
</svg>