<svg width="160" height="66" xmlns="http://www.w3.org/2000/svg" fill-rule="evenodd" clip-rule="evenodd" stroke-linejoin="round" stroke-miterlimit="2"><ellipse cx="128.5" cy="43" rx="128.5" ry="43" fill="#143257" transform="rotate(-7.076 137.447 36.007) scale(.62784)"/><path d="M37.62 22.13h-4.177l-4.257 19.463-5.439.02-2.45-11.321-5.65.002v15.694H37.62V22.13zm-8.161 0H15.646v3.767h8.79L26.32 36.57l3.139-14.44z" fill="#fd3535"/><path d="M53.945 17.536c0-2.937-2.988-3.568-2.988-3.568h-8.941v32.02h9.417s2.512-.412 2.512-2.724v-12.69c0-1.285-1.256-1.94-1.256-1.958 0-.038 1.256-.696 1.256-1.967v-9.113zm-3.767.827v8.162h-4.395v-8.162m0 12.556h4.395v11.302h-4.395M70.269 22.13h-3.765l-.003 20.09h-4.394V22.13H58.34v23.858h9.123s2.806.634 2.806-3.14V22.13zM78.43 18.363c0-4.771-3.767-4.395-3.767-4.395v32.02h3.767V18.363zM86.592 18.363c0-4.771-3.767-4.395-3.767-4.395v32.02h3.767V18.363zM117.357 41.586c0 4.77 3.767 4.395 3.767 4.395V22.123h-3.767v19.463zM107.311 41.586c0 4.77 3.767 4.395 3.767 4.395V25.897h3.767V22.13l-3.767.01v-8.18h-3.767v27.626zM117.357 13.968h3.767v3.767h-3.767zM137.447 26.525c0-3.749-3.767-4.395-3.767-4.395h-8.162v23.858h3.767l.032-19.463h4.363v19.463h7.534V42.22h-3.767V26.525zM102.917 27.083a4.956 4.956 0 00-4.954-4.953h-2.022a4.956 4.956 0 00-4.953 4.953v13.95a4.956 4.956 0 004.953 4.955h2.022a4.956 4.956 0 004.954-4.954v-3.208l-3.767.02v4.375h-4.395v-7.535h8.162v-7.603zm-8.162-.558h4.395v3.767h-4.395" fill="#fff"/></svg>