<svg width="13" height="17" xmlns="http://www.w3.org/2000/svg" fill-rule="evenodd" clip-rule="evenodd" stroke-linejoin="round" stroke-miterlimit="2"><g transform="matrix(.125 0 0 .125 -1.5 .5)"><path d="M113.28 92.98c.01-.19.02-.39.02-.58 0-.19-.02-.39-.02-.58V60.13H14.62v34.5h.16C16.57 111.04 37.9 124 63.97 124c26.07 0 47.41-12.96 49.19-29.37h.11v-1.65h.01z" fill="url(#_Radial1)" fill-rule="nonzero"/><path d="M111.28 62.13v29.75c0 .1.01.19.01.29 0 .08.01.16.01.24 0 .08-.01.16-.01.24-.01.1-.01.19-.01.29v1.04c-.05.14-.08.29-.1.45C109.49 109.88 88.76 122 63.97 122s-45.52-12.12-47.21-27.59c-.02-.2-.07-.39-.15-.57V62.13h94.67m2-2H14.62v34.5h.16C16.57 111.04 37.9 124 63.97 124c26.07 0 47.41-12.96 49.19-29.37h.11v-1.65c.01-.19.02-.39.02-.58 0-.2-.02-.39-.02-.58V60.13h.01z" fill="#434343" fill-opacity=".2" fill-rule="nonzero"/><path d="M115.42 57.03H12.5v22.34s2.91 12.65 11.02 10.95c10.5-2.21 9.25 11.67 21.91 13.48 14.73 2.1 13.43-8.01 28.52-1.43 15.68 6.84 18.97-11.14 28.52-9.12 14.83 3.14 12.96-13.87 12.96-13.87V57.03h-.01z" fill="url(#_Radial2)" fill-rule="nonzero"/><ellipse cx="63.96" cy="58.28" rx="51.46" ry="31.51" fill="url(#_Radial3)"/><path d="M63.96 28.77c13.04 0 25.36 3.03 34.69 8.55 9.02 5.33 14.25 12.37 14.72 19.85.01.11.02.22.05.33v21.89c0 .07 0 .15.01.22.2 1.81.16 7.14-2.4 9.99-1.24 1.38-2.93 2.05-5.17 2.05-.91 0-1.92-.12-3-.34-.63-.13-1.27-.2-1.9-.2-4 0-6.98 2.7-9.86 5.31-3.14 2.84-6.1 5.53-10.47 5.53-1.79 0-3.78-.47-5.9-1.39-3.79-1.65-6.84-2.42-9.61-2.42-3.1 0-5.33.99-7.49 1.94-2.37 1.05-4.61 2.04-8.34 2.04-1.11 0-2.32-.09-3.59-.27-5.4-.77-7.89-4.08-10.3-7.28-2.4-3.17-4.87-6.46-9.76-6.46-.8 0-1.66.09-2.54.28-.36.08-.72.12-1.06.12-4.8 0-7.18-8-7.54-9.36V57.48c.02-.1.04-.21.05-.32.47-7.47 5.7-14.52 14.72-19.85 9.33-5.51 21.65-8.54 34.69-8.54m0-2c-27.74 0-50.34 13.44-51.41 30.26h-.05v22.36s2.55 11.11 9.54 11.11c.47 0 .96-.05 1.47-.16.77-.16 1.48-.24 2.13-.24 8.26 0 8.05 12.04 19.78 13.71 1.43.2 2.72.29 3.88.29 7.75 0 10.06-3.98 15.83-3.98 2.24 0 5 .6 8.81 2.26 2.53 1.1 4.74 1.56 6.7 1.56 9.55 0 13.32-10.84 20.33-10.85.48 0 .97.05 1.49.16 1.25.26 2.38.39 3.41.39 11.12 0 9.55-14.26 9.55-14.26V57.03h-.05C114.3 40.21 91.7 26.77 63.96 26.77z" fill="#434343" fill-opacity=".2" fill-rule="nonzero"/><path d="M85.56 37.93c0 4.23-3.43 5.37-7.65 5.37-4.22 0-7.65-1.14-7.65-5.37a7.65 7.65 0 017.65-7.65c4.22 0 7.65 3.43 7.65 7.65z" fill="url(#_Radial4)" fill-rule="nonzero"/><path d="M57.75 37.93c0 4.23-3.43 5.37-7.65 5.37-4.22 0-7.65-1.14-7.65-5.37a7.65 7.65 0 017.65-7.65c4.22 0 7.65 3.43 7.65 7.65z" fill="url(#_Radial5)" fill-rule="nonzero"/><path fill="#44b3e6" d="M57.67 30.08h12.22V53.4H57.67z"/><ellipse cx="63.78" cy="30.59" rx="6.16" ry="3.77" fill="#84d2f6"/><ellipse cx="63.78" cy="52.81" rx="6.16" ry="3.77" fill="#44b3e6"/><path d="M63.78 27.82c2.85 0 4.83 1.26 5.1 2.48 0 .01.01.03.01.04 0 .02 0 .05.01.07.01.05.02.11.03.18l-.03.18c-.01.04-.01.09-.01.14V52.5c0 .05 0 .09.01.14.01.05.02.11.03.18l-.03.18c-.01.04-.01.07-.01.11-.01.02-.01.03-.01.05-.31 1.2-2.3 2.43-5.09 2.43-2.8 0-4.79-1.24-5.1-2.43 0-.02-.01-.03-.01-.05 0-.04 0-.08-.01-.11-.01-.05-.02-.11-.03-.18l.03-.18c.01-.04.01-.09.01-.14V30.9c0-.05 0-.09-.01-.14-.01-.05-.02-.11-.03-.18l.03-.18c0-.02.01-.05.01-.07 0-.01.01-.03.01-.04.27-1.21 2.25-2.47 5.09-2.47m0-1c-3.12 0-5.66 1.42-6.08 3.26h-.03v.2c-.01.11-.05.21-.05.31 0 .11.04.21.05.31v21.59c-.01.11-.05.21-.05.31 0 .11.04.21.05.31v.28h.05c.46 1.8 2.99 3.18 6.06 3.18 3.07 0 5.6-1.38 6.06-3.18h.05v-.28c.01-.1.05-.21.05-.31 0-.11-.04-.21-.05-.31V30.9c.01-.1.05-.21.05-.31 0-.11-.04-.21-.05-.31v-.2h-.03c-.41-1.84-2.96-3.26-6.08-3.26z" fill="#434343" fill-opacity=".2" fill-rule="nonzero"/><path d="M71.9 20.55c0 7.39-4.53 10.23-7.9 10.23-3.36 0-7.9-2.84-7.9-10.23C56.1 13.16 60.64 4 64 4c3.36 0 7.9 9.15 7.9 16.55z" fill="url(#_Radial6)" fill-rule="nonzero"/><path d="M55.04 70.98c0 4.23-3.43 5.37-7.65 5.37-4.22 0-7.65-1.14-7.65-5.37a7.65 7.65 0 017.65-7.65c4.22 0 7.65 3.43 7.65 7.65z" fill="url(#_Radial7)" fill-rule="nonzero"/><path d="M37.55 55.92c0 4.23-3.43 5.37-7.65 5.37-4.22 0-7.65-1.14-7.65-5.37a7.65 7.65 0 1115.3 0z" fill="url(#_Radial8)" fill-rule="nonzero"/><path d="M107.35 57.04c0 4.23-3.43 5.37-7.65 5.37-4.23 0-7.65-1.14-7.65-5.37a7.65 7.65 0 017.65-7.65c4.23-.01 7.65 3.42 7.65 7.65z" fill="url(#_Radial9)" fill-rule="nonzero"/><g><path fill="#44b3e6" d="M32.62 39h12.22v23.32H32.62z"/><ellipse cx="38.73" cy="39.51" rx="6.16" ry="3.77" fill="#84d2f6"/><ellipse cx="38.73" cy="61.73" rx="6.16" ry="3.77" fill="#44b3e6"/><path d="M38.73 36.74c2.85 0 4.83 1.26 5.1 2.48 0 .01.01.03.01.04 0 .02 0 .05.01.07.01.05.02.11.03.18l-.03.18c-.01.04-.01.09-.01.14v21.59c0 .05 0 .09.01.14.01.05.02.11.03.18l-.03.18c-.01.04-.01.07-.01.11-.01.02-.01.03-.01.05-.31 1.2-2.3 2.43-5.09 2.43-2.8 0-4.79-1.24-5.1-2.43 0-.02-.01-.03-.01-.05 0-.04 0-.08-.01-.11-.01-.05-.02-.11-.03-.18l.03-.18c.01-.04.01-.09.01-.14v-21.6c0-.05 0-.09-.01-.14-.01-.05-.02-.11-.03-.18l.03-.18c0-.02.01-.05.01-.07 0-.01.01-.03.01-.04.26-1.21 2.24-2.47 5.09-2.47m0-1c-3.12 0-5.66 1.42-6.08 3.26h-.03v.2c-.01.11-.05.21-.05.31 0 .11.04.21.05.31v21.59c-.01.11-.05.21-.05.31s.04.21.05.31v.28h.05c.46 1.8 2.99 3.18 6.06 3.18 3.07 0 5.6-1.38 6.06-3.18h.05v-.28c.01-.1.05-.21.05-.31 0-.11-.04-.21-.05-.31V39.82c.01-.1.05-.21.05-.31 0-.11-.04-.21-.05-.31V39h-.04c-.41-1.84-2.96-3.26-6.07-3.26z" fill="#434343" fill-opacity=".2" fill-rule="nonzero"/><path d="M46.84 29.47c0 7.39-4.53 10.23-7.9 10.23s-7.9-2.84-7.9-10.23c0-7.39 4.53-16.55 7.9-16.55s7.9 9.15 7.9 16.55z" fill="url(#_Radial10)" fill-rule="nonzero"/></g><g><path fill="#44b3e6" d="M82.87 39h12.22v23.32H82.87z"/><ellipse cx="88.98" cy="39.51" rx="6.16" ry="3.77" fill="#84d2f6"/><ellipse cx="88.98" cy="61.73" rx="6.16" ry="3.77" fill="#44b3e6"/><path d="M88.98 36.74c2.85 0 4.83 1.26 5.1 2.48 0 .01.01.03.01.04 0 .02 0 .05.01.07.01.05.02.11.03.18l-.03.18c-.01.04-.01.09-.01.14v21.59c0 .05 0 .09.01.14.01.05.02.11.03.18l-.03.18c-.01.04-.01.07-.01.11-.01.02-.01.03-.01.05-.31 1.2-2.3 2.43-5.09 2.43-2.8 0-4.79-1.24-5.1-2.43 0-.02-.01-.03-.01-.05 0-.04 0-.08-.01-.11-.01-.05-.02-.11-.03-.18l.03-.18c.01-.04.01-.09.01-.14v-21.6c0-.05 0-.09-.01-.14-.01-.05-.02-.11-.03-.18l.03-.18c0-.02.01-.05.01-.07 0-.01.01-.03.01-.04.26-1.21 2.24-2.47 5.09-2.47m0-1c-3.12 0-5.66 1.42-6.08 3.26h-.03v.2c-.01.11-.05.21-.05.31 0 .11.04.21.05.31v21.59c-.01.11-.05.21-.05.31s.04.21.05.31v.28h.05c.46 1.8 2.99 3.18 6.06 3.18 3.07 0 5.6-1.38 6.06-3.18h.05v-.28c.01-.1.05-.21.05-.31 0-.11-.04-.21-.05-.31V39.82c.01-.1.05-.21.05-.31 0-.11-.04-.21-.05-.31V39h-.03c-.42-1.84-2.97-3.26-6.08-3.26z" fill="#434343" fill-opacity=".2" fill-rule="nonzero"/><path d="M97.09 29.47c0 7.39-4.53 10.23-7.9 10.23-3.36 0-7.9-2.84-7.9-10.23 0-7.39 4.53-16.55 7.9-16.55s7.9 9.15 7.9 16.55z" fill="url(#_Radial11)" fill-rule="nonzero"/></g><path d="M89.31 70.54c0 4.23-3.43 5.37-7.65 5.37-4.23 0-7.65-1.14-7.65-5.37a7.65 7.65 0 017.65-7.65c4.23-.01 7.65 3.42 7.65 7.65z" fill="url(#_Radial12)" fill-rule="nonzero"/></g><defs><radialGradient id="_Radial1" cx="0" cy="0" r="1" gradientUnits="userSpaceOnUse" gradientTransform="matrix(64.3748 0 0 41.5732 63.203 90.158)"><stop offset="0" stop-color="#f8981d"/><stop offset=".08" stop-color="#f8981d"/><stop offset=".23" stop-color="#f89a20"/><stop offset=".37" stop-color="#f9a02a"/><stop offset=".51" stop-color="#fbac3d"/><stop offset=".61" stop-color="#fcb64e"/><stop offset="1" stop-color="#fcb64e"/></radialGradient><radialGradient id="_Radial2" cx="0" cy="0" r="1" gradientUnits="userSpaceOnUse" gradientTransform="matrix(59.6632 0 0 33.2742 64.38 69.547)"><stop offset="0" stop-color="#ffe0b2"/><stop offset=".05" stop-color="#ffe0b2"/><stop offset=".32" stop-color="#ffdfaf"/><stop offset=".52" stop-color="#ffdca7"/><stop offset=".71" stop-color="#ffd69a"/><stop offset=".88" stop-color="#ffcf87"/><stop offset=".93" stop-color="#fecc81"/><stop offset="1" stop-color="#fecc81"/></radialGradient><radialGradient id="_Radial3" cx="0" cy="0" r="1" gradientUnits="userSpaceOnUse" gradientTransform="matrix(55.0408 0 0 31.676 64.532 56.852)"><stop offset="0" stop-color="#fff3e1"/><stop offset=".34" stop-color="#fff3e1"/><stop offset=".55" stop-color="#fff2de"/><stop offset=".71" stop-color="#ffefd6"/><stop offset=".85" stop-color="#ffe9c8"/><stop offset=".99" stop-color="#ffe1b4"/><stop offset="1" stop-color="#ffe0b2"/></radialGradient><radialGradient id="_Radial4" cx="0" cy="0" r="1" gradientUnits="userSpaceOnUse" gradientTransform="translate(75.894 35.313) scale(7.1211)"><stop offset="0" stop-color="#ef5451"/><stop offset=".78" stop-color="#e53a35"/><stop offset="1" stop-color="#c62828"/></radialGradient><radialGradient id="_Radial5" cx="0" cy="0" r="1" gradientUnits="userSpaceOnUse" gradientTransform="translate(48.086 35.313) scale(7.1211)"><stop offset="0" stop-color="#ef5451"/><stop offset=".78" stop-color="#e53a35"/><stop offset="1" stop-color="#c62828"/></radialGradient><radialGradient id="_Radial6" cx="0" cy="0" r="1" gradientUnits="userSpaceOnUse" gradientTransform="matrix(12.2023 0 0 20.8814 64.454 26.47)"><stop offset="0" stop-color="#f78f1e"/><stop offset=".24" stop-color="#f78f1e"/><stop offset=".49" stop-color="#fcb316"/><stop offset=".76" stop-color="#ffd740"/><stop offset="1" stop-color="#ffd740"/></radialGradient><radialGradient id="_Radial7" cx="0" cy="0" r="1" gradientUnits="userSpaceOnUse" gradientTransform="translate(45.375 68.364) scale(7.1211)"><stop offset="0" stop-color="#ef5451"/><stop offset=".78" stop-color="#e53a35"/><stop offset="1" stop-color="#c62828"/></radialGradient><radialGradient id="_Radial8" cx="0" cy="0" r="1" gradientUnits="userSpaceOnUse" gradientTransform="translate(27.89 53.295) scale(7.1211)"><stop offset="0" stop-color="#ef5451"/><stop offset=".78" stop-color="#e53a35"/><stop offset="1" stop-color="#c62828"/></radialGradient><radialGradient id="_Radial9" cx="0" cy="0" r="1" gradientUnits="userSpaceOnUse" gradientTransform="translate(97.692 54.415) scale(7.1211)"><stop offset="0" stop-color="#ef5451"/><stop offset=".78" stop-color="#e53a35"/><stop offset="1" stop-color="#c62828"/></radialGradient><radialGradient id="_Radial10" cx="0" cy="0" r="1" gradientUnits="userSpaceOnUse" gradientTransform="matrix(12.2023 0 0 20.8814 38.885 35.306)"><stop offset="0" stop-color="#f78f1e"/><stop offset=".24" stop-color="#f78f1e"/><stop offset=".49" stop-color="#fcb316"/><stop offset=".76" stop-color="#ffd740"/><stop offset="1" stop-color="#ffd740"/></radialGradient><radialGradient id="_Radial11" cx="0" cy="0" r="1" gradientUnits="userSpaceOnUse" gradientTransform="matrix(12.2023 0 0 20.8814 89.65 35.392)"><stop offset="0" stop-color="#f78f1e"/><stop offset=".24" stop-color="#f78f1e"/><stop offset=".49" stop-color="#fcb316"/><stop offset=".76" stop-color="#ffd740"/><stop offset="1" stop-color="#ffd740"/></radialGradient><radialGradient id="_Radial12" cx="0" cy="0" r="1" gradientUnits="userSpaceOnUse" gradientTransform="translate(79.651 67.915) scale(7.1211)"><stop offset="0" stop-color="#ef5451"/><stop offset=".78" stop-color="#e53a35"/><stop offset="1" stop-color="#c62828"/></radialGradient></defs></svg>