<svg width="18" height="15" xmlns="http://www.w3.org/2000/svg" fill-rule="evenodd" clip-rule="evenodd" stroke-linejoin="round" stroke-miterlimit="2"><path fill="#fff" d="M1 1h16v13H1z"/><path d="M1.5 7H4V4.5h1V7h2V4.5h1V7h2V4.5h1V7h2V4.5h1V7h2.5v1H14v2h2.5v1H14v2.5h-1V11h-2v2.5h-1V11H8v2.5H7V11H5v2.5H4V11H1.5v-1H4V8H1.5V7zM5 8h2v2H5V8zm3 0v2h2V8H8zm3 0h2v2h-2V8z" fill="url(#_Radial1)"/><path fill="url(#_Radial2)" d="M2 8h14v2H2z" transform="matrix(1.14286 0 0 2 -1.286 -15)"/><path d="M17 5H1V1h16v4zM2 2v2h14V2H2z" fill="#398c9b"/><path d="M17 14H1V1h16v13zM2 2v11h14V2H2z"/><defs><radialGradient id="_Radial1" cx="0" cy="0" r="1" gradientUnits="userSpaceOnUse" gradientTransform="matrix(12 8 -8 12 2 5)"><stop offset="0" stop-color="#b4b4b4"/><stop offset="1" stop-color="gray"/></radialGradient><radialGradient id="_Radial2" cx="0" cy="0" r="1" gradientUnits="userSpaceOnUse" gradientTransform="matrix(14 2 -2 14 2 8)"><stop offset="0" stop-color="#99d5e0"/><stop offset="1" stop-color="#42a8bb"/></radialGradient></defs></svg>