<svg width="30" height="30" xmlns="http://www.w3.org/2000/svg" fill-rule="evenodd" clip-rule="evenodd" stroke-linecap="round" stroke-linejoin="round" stroke-miterlimit="1.5"><path d="M30 5.317C30 3.486 28.53 2 26.72 2H3.28C1.47 2 0 3.486 0 5.317v19.366C0 26.514 1.47 28 3.28 28h23.44c1.81 0 3.28-1.486 3.28-3.317V5.317zm-30 2.1h22.5m4.286 0H30M7.5-.167v4.334m5.357-4.334v4.334m5.357-4.334v4.334m5.357-4.334v4.334M4.286 12.833h2.143m4.285 0h2.143m4.286 0h2.143m4.285 0h2.143m-19.285 3.25H4.286m6.428 0h2.143m4.286 0h2.143m4.285 0h2.143m-21.428 3.25h2.143m4.285 0h2.143m6.429 0h-2.143m8.571 0h-2.143m-19.285 3.25h2.143m4.285 0h2.143m4.286 0h2.143m4.285 0h2.143" fill="url(#_Radial1)" stroke="#000" stroke-width="1.72" transform="matrix(.93333 0 0 .92308 1 1.154)"/><g transform="translate(1.571 2.071) scale(.92857)"><circle cx="15" cy="22" r="7" fill="url(#_Radial2)"/><clipPath id="a"><circle cx="15" cy="22" r="7"/></clipPath><g clip-path="url(#a)"><path d="M11.932 21.916l2.098 2.088 4.032-4.111" fill="none" stroke="#000" stroke-width="1.72"/></g><circle cx="15" cy="22" r="7" fill="none" stroke="#000" stroke-width="1.72"/></g><defs><radialGradient id="_Radial1" cx="0" cy="0" r="1" gradientUnits="userSpaceOnUse" gradientTransform="matrix(26.7857 30.3333 -30 27.0833 2.143 -1.25)"><stop offset="0" stop-color="#ebebeb"/><stop offset=".45" stop-color="#cfe2dc"/><stop offset="1" stop-color="#89ccb9"/></radialGradient><radialGradient id="_Radial2" cx="0" cy="0" r="1" gradientUnits="userSpaceOnUse" gradientTransform="scale(7.7658) rotate(56.31 -1.521 3.052)"><stop offset="0" stop-color="#ebebeb"/><stop offset=".54" stop-color="#e4e2d5"/><stop offset="1" stop-color="#ccc488"/></radialGradient></defs></svg>