<svg width="16" height="16" xmlns="http://www.w3.org/2000/svg" fill-rule="evenodd" clip-rule="evenodd" stroke-linejoin="round" stroke-miterlimit="2"><path d="M2 2h2.714L8 5.286 11.286 2H14v2.714L10.714 8 14 11.286V14h-2.714L8 10.714 4.714 14H2v-2.714L5.286 8 2 4.714V2z" fill="red"/><path d="M8 5.286L11.286 2H14v2.714L10.714 8 14 11.286V14h-2.714L8 10.714 4.714 14H2v-2.714L5.286 8 2 4.714V2h2.714L8 5.286zM2.8 2.801v1.582L6.419 8 2.8 11.617V13.2h1.582L8 9.582l3.617 3.617H13.2v-1.582L9.582 8 13.2 4.383V2.8h-1.582L8 6.418 4.383 2.8H2.8z"/></svg>