<svg width="13" height="13" xmlns="http://www.w3.org/2000/svg" fill-rule="evenodd" clip-rule="evenodd" stroke-linejoin="round" stroke-miterlimit="2"><circle cx="6.5" cy="6.5" r="6.5" fill="url(#_Radial1)"/><path d="M6.237 6.987l1.539.838a.559.559 0 00.754-.223.557.557 0 00-.224-.753l-1.25-.68V3.497a.556.556 0 00-1.112 0V6.5a.55.55 0 00.293.487z" fill-rule="nonzero"/><path d="M6.5 0a.658.658 0 000 1.314A5.191 5.191 0 0111.685 6.5 5.191 5.191 0 016.5 11.685 5.191 5.191 0 011.315 6.5c0-1.159.392-2.288 1.11-3.201l.312.45a.365.365 0 00.327.156l.017-.002a.366.366 0 00.286-.207l1.206-2.558a.366.366 0 00-.36-.52l-2.82.235a.366.366 0 00-.27.572l.524.754A6.484 6.484 0 000 6.5C0 10.084 2.916 13 6.5 13S13 10.084 13 6.5 10.084 0 6.5 0z" fill-rule="nonzero"/><defs><radialGradient id="_Radial1" cx="0" cy="0" r="1" gradientUnits="userSpaceOnUse" gradientTransform="matrix(6 12 -12 6 3 1)"><stop offset="0" stop-color="#fff"/><stop offset=".43" stop-color="#dcebfc"/><stop offset="1" stop-color="#8ebef4"/></radialGradient></defs></svg>