<svg width="17" height="17" viewBox="0 0 18 18" xmlns="http://www.w3.org/2000/svg" fill-rule="evenodd" clip-rule="evenodd" stroke-linejoin="round" stroke-miterlimit="2"><path d="M8.732 6.303c-1.134.239-1.73 1.804-1.956 2.942-.186.935-.082 1.673-.06 2.293-1.703 2.288-3.597 2.514-4.256 2.813.414.846.897 1.796 1.304 2.649 2.97-.693 5.203-3.673 5.484-3.772.256-.09 1.646 1.172 2.394 1.93.412.467.852 1.023 1.193 1.544.763-.584 1.572-1.066 2.212-1.592-1.616-2.184-2.968-3.49-4.807-4.622-.02-.273.105-.404.339-.338.384.11.737.112 1.201.043.749-.11 1.786-.427 2.678-.868-.213-.71-.45-1.478-.659-2.203-1.026.262-2.432.775-2.979.605-.711-.32-1.348-1.58-2.088-1.424z" fill="#ffd736" fill-rule="nonzero"/><path d="M8.95 5.626l.069.007.067.01.065.013.064.016.061.018.06.02.057.023.055.024.054.026.052.027.05.028.049.029.047.03.046.03.044.032.044.032.044.034.08.064.078.067.075.068.073.069.07.069.069.068.066.067.128.13.123.124.057.057.057.053.054.05.051.045.052.043.021.017.023.017.021.016.02.014.02.013.018.011.01.006h.015l.017.001h.038l.054-.003.057-.004.064-.008.07-.01.075-.011.08-.015.083-.016.088-.02.09-.02.094-.022.096-.025.099-.025.1-.027.206-.057.21-.06.213-.06.213-.062.213-.061.209-.058.104-.028.1-.025.056-.012.057-.008.057-.002.057.003.056.007.056.013.054.017.053.021.051.026.049.03.045.035.043.038.039.042.035.045.032.047.027.05.022.053.019.054.079.272.08.274.167.555.167.553.163.543.014.053.01.055.004.055v.055l-.005.055-.008.054-.014.054-.018.052-.022.05-.026.05-.03.046-.034.043-.038.041-.04.037-.044.034-.046.03-.049.027-.087.043-.091.043-.092.042-.092.042-.092.04-.093.04-.094.039-.093.038-.094.036-.094.036-.093.035-.094.034-.093.033-.094.033-.093.03-.093.03-.092.03-.092.028-.092.027-.09.026-.09.025-.09.023-.089.023-.088.022-.087.02-.086.02-.085.018-.084.017-.084.016-.081.015-.081.013-.022.003.01.008.161.125.16.128.156.13.156.132.155.135.153.138.152.14.151.144.15.147.15.15.15.153.148.156.148.16.148.164.148.167.148.171.148.175.149.18.149.183.15.187.15.192.152.197.152.201.152.205.032.046.028.05.023.051.02.053.014.055.01.056.005.056v.057l-.005.056-.01.056-.013.055-.019.053-.023.052-.027.05-.032.046-.035.045-.04.04-.042.038-.063.051-.067.054-.133.104-.137.102-.138.1-.14.1-.14.1-.284.195-.286.197-.142.098-.142.099-.14.1-.14.1-.139.102-.14.105-.047.033-.05.028-.052.024-.054.02-.055.014-.056.01-.058.005h-.057l-.057-.004-.056-.01-.056-.015-.054-.019-.052-.024-.05-.028-.047-.032-.044-.036-.041-.04-.038-.043-.033-.047-.063-.095-.063-.092-.065-.093-.066-.094-.069-.094-.07-.094-.072-.095-.072-.094-.074-.094-.074-.093-.075-.092-.075-.092-.075-.09-.075-.088-.075-.087-.061-.07-.13-.13-.154-.151-.165-.159-.172-.162-.177-.162-.179-.162-.087-.078-.088-.077-.087-.075-.085-.072-.084-.07-.08-.066-.08-.063-.074-.06-.071-.054-.067-.049-.006-.004-.2.207-.118.12-.127.13-.138.139-.148.145-.157.152-.166.155-.088.081-.089.081-.09.082-.094.082-.096.083-.097.083-.1.084-.102.084-.104.084-.106.084-.108.083-.11.084-.113.083-.114.082-.116.082-.118.081-.12.08-.123.08-.124.077-.125.077-.128.075-.13.074-.131.072-.134.07-.135.069-.137.066-.139.064-.14.062-.143.06-.144.056-.144.053-.076.027-.074.025-.074.024-.075.024-.075.023-.076.022-.076.02-.077.021-.077.02-.073.017-.056.011-.056.006-.056.001-.057-.003-.056-.008-.055-.013-.054-.018-.052-.022-.05-.026-.047-.03-.045-.035-.042-.038-.038-.042-.035-.045-.03-.047-.027-.05-.155-.322-.16-.328-.165-.334-.166-.336-.334-.671-.163-.33-.159-.323-.023-.052-.018-.053-.014-.055-.009-.056-.004-.057v-.056l.006-.057.01-.055.015-.055.02-.053.023-.051.028-.05.032-.046.036-.044.04-.04.043-.037.046-.033.048-.03.051-.025.038-.016.048-.02.088-.034.092-.033.094-.032.193-.062.208-.069.107-.036.112-.039.114-.041.117-.046.122-.049.06-.025.062-.027.062-.028.064-.029.064-.03.064-.031.066-.033.065-.034.067-.035.067-.037.067-.038.068-.04.068-.041.07-.043.069-.045.07-.046.07-.048.07-.05.072-.052.071-.054.072-.056.072-.057.072-.06.073-.062.073-.064.073-.066.073-.07.074-.07.073-.073.074-.076.074-.079.074-.08.074-.084.074-.087.074-.089.074-.092.005-.005-.015-.239-.007-.133-.007-.14-.005-.145L6 10.52v-.237l.002-.082.002-.084.004-.084.005-.086.006-.087.007-.089.009-.09.01-.09.012-.093.013-.094.015-.095.017-.096.019-.098.024-.118.027-.12.03-.122.03-.123.035-.126.037-.126.04-.128.041-.128.045-.128.048-.129.051-.128.054-.128.057-.126.03-.065.03-.063.032-.062.033-.063.033-.062.035-.062.035-.06.036-.062.038-.06.038-.06.04-.059.04-.058.041-.058.043-.057.044-.056.045-.056.046-.055.048-.053.05-.053.05-.052.051-.05.054-.05.054-.048.057-.047.057-.046.06-.044.06-.042.063-.04.064-.04.066-.037.067-.035.07-.033.07-.03.072-.029.073-.026.075-.023.076-.02.08-.02.07-.012.071-.009.071-.004.071-.001.07.003zm-.115.664l-.034.002-.034.005-.035.006-.053.012-.052.014-.05.016-.051.018-.05.02-.049.02-.048.024-.047.024-.047.027-.046.027-.045.03-.044.03-.044.033-.042.034-.043.035-.041.036-.04.038-.04.04-.04.04-.038.04-.038.044-.037.043-.037.045-.035.046-.035.047-.035.047-.033.049-.033.05-.032.05-.032.05-.031.052-.03.053-.03.053-.029.054-.028.054-.028.055-.027.055-.026.056-.05.113-.049.114-.046.116-.043.116-.04.116-.039.116-.036.117-.033.115-.032.115-.029.113-.026.112-.025.11-.022.108-.017.087-.015.086-.013.085-.012.084-.01.082-.01.082-.008.08-.006.08-.006.078-.004.077-.004.077-.002.075-.001.074-.001.074v.144l.004.14.005.136.007.134.007.13.015.25.007.12.005.118-.08.106-.08.103-.081.1-.08.097-.081.094-.081.091-.081.089-.081.086-.081.083-.081.08-.081.08-.081.075-.081.073-.08.071-.081.069-.08.066-.08.064-.08.062-.08.06-.079.057-.078.056-.079.053-.078.052-.077.05-.077.048-.076.046-.076.044-.075.043-.075.04-.074.04-.073.038-.072.036-.072.035-.071.034-.07.032-.07.03-.068.03-.067.029-.132.053-.127.049-.124.045-.119.041-.113.039-.212.07-.19.061-.085.029-.08.028-.071.028-.034.014-.032.014.158.322.163.329.334.67.167.338.165.335.161.331.156.324.07-.017.07-.017.068-.018.069-.02.068-.02.068-.02.068-.021.067-.023.068-.022.067-.024.132-.049.132-.052.13-.054.13-.057.127-.059.127-.06.124-.064.124-.065.122-.067.12-.069.12-.07.117-.072.117-.072.114-.075.113-.075.111-.076.11-.077.108-.078.106-.079.104-.079.103-.08.1-.08.1-.079.097-.08.095-.08.093-.08.092-.079.09-.079.087-.078.085-.078.083-.076.16-.151.153-.147.143-.14.134-.135.125-.127.116-.118.201-.208.086-.088.076-.076.065-.062.028-.026.026-.023.023-.018.02-.015.018-.011.014-.007.013-.003.015-.001h.016l.017.003.02.004.02.006.022.008.023.01.025.01.025.013.028.014.028.016.06.036.065.041.069.047.072.051.076.056.079.06.081.064.084.068.086.07.088.074.09.076.09.078.091.08.092.081.184.166.181.168.177.166.17.163.16.157.147.147.077.09.078.09.079.092.078.094.078.095.079.096.077.098.077.098.076.098.075.1.074.1.073.099.07.1.07.098.067.1.065.097.143-.108.145-.106.145-.104.144-.103.145-.1.144-.1.286-.197.28-.193.137-.096.135-.096.131-.097.13-.096.125-.098.061-.049.06-.049-.15-.202-.15-.197-.147-.193-.147-.187-.146-.183-.145-.179-.145-.174-.143-.17-.144-.165-.143-.162-.143-.158-.142-.154-.143-.15-.143-.147-.144-.144-.144-.14-.145-.138-.145-.134L12.29 12l-.147-.129-.149-.126-.15-.124-.151-.122-.153-.12-.155-.117-.157-.115-.159-.114-.16-.112-.164-.11-.166-.11-.168-.107-.171-.107-.002-.025v-.07l.003-.022.002-.021.004-.02.004-.02.005-.017.006-.017.007-.017.007-.015.009-.015.009-.013.01-.013.01-.011.011-.01.012-.01.013-.009.013-.007.015-.007.014-.005.016-.004.016-.003.017-.003H10.497l.019.003.02.003.021.004.022.006.071.02.072.016.07.014.071.012.071.01.071.008.072.005.073.003.073.001h.074l.076-.003.078-.005.079-.007.081-.008.084-.01.085-.013.071-.01.073-.012.074-.014.076-.014.077-.016.078-.017.08-.017.08-.02.082-.02.082-.02.084-.023.084-.023.085-.024.086-.026.087-.026.086-.027.088-.029.087-.029.088-.03.088-.031.088-.032.088-.033.089-.034.088-.035.087-.035.088-.036.087-.038.087-.038.085-.038.086-.04.085-.04.084-.041-.163-.542-.168-.554-.166-.557-.082-.276-.08-.274-.097.025-.1.027-.203.056-.209.06-.212.06-.214.062-.214.061-.212.059-.105.027-.103.027-.102.026-.1.024-.099.023-.096.02-.094.02-.092.016-.089.014-.086.012-.082.01-.08.006-.075.003h-.106l-.033-.002-.032-.003-.031-.004-.03-.004-.029-.006-.027-.006-.027-.008-.033-.016-.033-.017-.033-.018-.033-.02-.033-.02-.033-.022-.033-.023-.032-.023-.033-.025-.032-.026-.065-.053-.065-.057-.064-.06-.064-.06-.064-.063-.128-.129-.128-.13-.063-.065-.064-.063-.064-.062-.064-.06-.064-.059-.065-.055-.064-.052-.033-.025-.032-.024-.033-.023-.032-.022-.033-.02-.033-.02-.033-.018-.032-.018-.033-.015-.034-.015-.033-.013-.033-.011-.034-.01-.033-.009L8.97 6.3l-.033-.006-.034-.003-.034-.001h-.035z"/><g><path d="M13.419 3.343a2.691 2.691 0 11-5.383 0 2.691 2.691 0 015.383 0z" fill="#ffd736" fill-rule="nonzero"/><path d="M10.797.652l.069.003.068.004.068.006.068.008.067.01.067.01.066.013.065.014.065.016.064.017.064.02.062.02.063.021.061.024.06.025.06.026.06.028.059.029.057.03.057.032.056.033.055.034.054.036.053.037.053.038.05.04.051.04.05.041.048.043.047.044.046.045.045.047.044.047.043.048.042.05.04.05.04.051.038.053.037.053.036.054.034.055.033.056.032.057.03.057.03.059.027.059.026.06.025.06.023.062.022.062.02.063.02.064.017.064.016.065.014.065.013.066.01.067.01.067.008.067.006.069.004.068.003.07v.138l-.003.07-.004.068-.006.068-.008.067-.01.068-.01.066-.013.066-.014.065-.016.065-.017.064-.02.064-.02.063-.022.062-.023.061-.025.061-.026.06-.028.06-.029.058-.03.057-.032.057-.033.056-.034.055-.036.054-.037.054-.038.052-.04.051-.04.05-.042.05-.043.048-.044.048-.045.046-.046.045-.047.044-.048.043-.05.041-.05.041-.051.04-.053.038-.053.036-.054.036-.055.034-.056.033-.057.032-.057.03-.059.03-.06.027-.06.026-.06.025-.061.024-.063.022-.062.02-.064.019-.064.017-.065.016-.065.014-.066.013-.067.011-.067.01-.068.007-.068.006-.068.005-.07.002-.069.001h-.07l-.068-.003-.069-.005-.068-.006-.067-.008-.068-.009-.066-.011-.066-.013-.066-.014-.064-.016-.065-.017-.063-.019-.063-.02-.062-.022-.062-.024-.06-.025-.06-.026-.06-.027-.058-.03-.058-.03-.056-.032-.056-.033-.055-.034-.055-.036-.053-.036-.052-.039-.051-.039-.05-.04-.05-.042-.048-.043-.048-.044-.046-.045L8.78 5.2l-.044-.048-.043-.048-.042-.05-.04-.05-.04-.051-.038-.052-.037-.054-.035-.054-.035-.055-.033-.056-.031-.057-.03-.057-.03-.059-.027-.059-.027-.06-.024-.06-.024-.062-.022-.062-.02-.063-.02-.064-.016-.064-.016-.065-.015-.065-.012-.066-.011-.066-.01-.068-.007-.067-.006-.068-.005-.069-.002-.069-.001-.07v-.069l.003-.069.005-.068.006-.069L8.057 3l.01-.067.01-.067.013-.066.015-.065.016-.065.017-.064.019-.064.02-.063.022-.062.024-.061.024-.061.027-.06.027-.06.03-.058.03-.057.031-.057.033-.056.035-.055.035-.054.037-.053.038-.053.04-.051.04-.05.042-.05.043-.048.044-.047.045-.047.046-.045.048-.044.048-.043.05-.041.05-.04.051-.04.052-.038.053-.037.055-.036.055-.034.056-.033.056-.032.058-.03.058-.03.06-.027.06-.026.06-.025.062-.024.062-.021.063-.02.063-.02.065-.017.064-.016.066-.014.066-.013.066-.01.068-.01.067-.008.068-.006.069-.004.069-.003h.139zm-.122.667l-.053.001-.051.004-.052.004-.05.006-.05.007-.05.009-.05.009-.05.01-.048.013-.048.013-.048.014-.047.015-.047.017-.046.017-.046.019-.045.02-.044.02-.044.022-.043.023-.043.024-.042.025-.042.025-.04.027-.04.028-.04.029-.038.03-.038.03-.038.031-.036.033-.036.033-.034.034-.034.035-.034.035-.032.037-.031.037-.03.038-.03.039-.03.039-.027.04-.027.04-.026.042-.025.042-.023.043-.023.043-.022.044-.02.045-.02.045-.02.045-.017.046-.016.047-.016.047-.014.048-.013.048-.012.049-.01.049-.01.05-.008.05-.007.05-.006.05-.005.052-.003.052-.002.052v.105l.002.052.003.052.005.051.006.051.007.05.008.05.01.05.01.05.012.048.013.048.014.048.016.047.016.047.018.046.018.046.02.045.02.044.023.044.023.043.023.043.025.042.026.041.027.041.028.04.028.04.03.038.03.038.032.037.032.037.034.035.034.035.034.034.036.033.036.033.038.031.038.03.038.03.04.03.04.027.04.027.042.026.042.024.043.024.043.023.044.022.044.02.045.02.046.02.046.017.047.016.047.015.048.015.048.013.048.011.05.011.05.01.05.008.05.007.05.006.052.004.051.004.053.002h.105l.052-.002.052-.004.051-.004.051-.006.05-.007.05-.008.05-.01.05-.01.048-.012.048-.013.048-.015.047-.015.046-.016.047-.018.045-.019.045-.02.045-.02.044-.022.043-.023.043-.024.042-.024.041-.026.04-.027.04-.028.04-.029.039-.03.038-.03.037-.031.036-.033.036-.033.035-.034.034-.035.033-.035.032-.037.032-.037.03-.038.03-.038.029-.04.028-.04.026-.04.026-.042.025-.042.024-.043.023-.043.022-.044.02-.044.02-.045.019-.046.017-.046.017-.047.015-.047.014-.048.013-.048.012-.049.01-.049.01-.05.009-.05.007-.05.006-.05.004-.052.003-.052.002-.052.001-.052V3.29l-.003-.052-.003-.052-.004-.051-.006-.051-.007-.05-.009-.05-.01-.05-.01-.05-.012-.048-.013-.048-.014-.048-.015-.047-.017-.047-.017-.046-.019-.045-.02-.045-.02-.045-.022-.044-.023-.043-.024-.043-.025-.042-.026-.041-.026-.041-.028-.04-.029-.04-.03-.038-.03-.038-.032-.037-.032-.037-.033-.035-.034-.035-.035-.034-.036-.033-.036-.033-.037-.031-.038-.03-.039-.03-.04-.029-.04-.028-.04-.027-.041-.025-.042-.025-.043-.024-.043-.023-.044-.022-.045-.02-.045-.02-.045-.019-.047-.017-.046-.017-.047-.015-.048-.014-.048-.013-.049-.012-.049-.011-.05-.01-.05-.008-.05-.007-.05-.006-.052-.004-.052-.004-.052-.001-.053-.001h-.052z"/></g></svg>