<svg width="17" height="17" viewBox="0 0 18 18" xmlns="http://www.w3.org/2000/svg" fill-rule="evenodd" clip-rule="evenodd" stroke-linejoin="round" stroke-miterlimit="2"><path d="M6.577.585C6.024.46 5.573.51 5.096.761c-.527.326-.828.828-.954 1.53-.125.728 0 1.431.377 2.134l.175.25-.602-.2c-.753-.176-1.455-.075-2.158.301-.728.377-1.18.903-1.48 1.631-.277.703-.251 1.38.1 2.008.15.276.376.502.577.652.301.301.677.477 1.13.552l.175.05-.377.327c-.351.301-.552.677-.677 1.053-.126.452-.075.904.176 1.33.125.202.25.377.451.503.201.175.452.3.753.326.552.125 1.13.125 1.757-.076l-.452.753-.125.327c-.251.802-.176 1.505.2 2.233.176.276.377.527.577.753.302.276.678.451 1.13.577.753.2 1.505.175 2.233-.2.703-.377 1.154-.98 1.38-1.732l.025-.15c.477.526.929.877 1.43 1.003.503.15 1.005.125 1.456-.176.427-.25.728-.677.879-1.204.125-.553.125-1.104 0-1.732.25.176.501.301.802.377.803.25 1.506.225 2.209-.151.677-.376 1.129-.979 1.355-1.757.2-.753.15-1.48-.226-2.183l-.126-.2c-.2-.302-.4-.603-.702-.803-.251-.176-.552-.302-.828-.427.778-.377 1.33-.903 1.58-1.581.176-.552.126-1.004-.125-1.455v-.05c-.3-.503-.702-.829-1.33-1.005-.376-.075-.803-.075-1.179-.05l-.828.176.276-.627c.25-.804.175-1.581-.251-2.309l-.076-.125C13.427.786 12.875.41 12.123.209c-.779-.2-1.506-.126-2.21.251-.702.376-1.203.954-1.43 1.706v.05l-.024.176-.1-.176-.252-.451C7.706 1.137 7.204.76 6.577.585zm6.398 1.506c.126.25.201.552.201.878l-.075.552c-.1.276-.226.527-.377.753l-2.258 2.76c-.226-.175-.477-.3-.728-.426l-.25-2.836-.026-1.003.025-.251c.126-.502.477-.879.929-1.13a1.689 1.689 0 011.43-.125c.527.125.904.401 1.13.828zm-7.779.502c.025-.452.2-.753.502-.929.15-.125.377-.125.577-.025.452.126.828.452 1.13 1.08.125.25.25.501.3.802l.503 2.961-.377.126-2.233-2.434-.126-.251c-.2-.452-.326-.879-.276-1.33zM3.841 5.529l.678.276L6.727 7.41c-.2.25-.326.502-.401.753l-3.614.452-.251-.05c-.452-.076-.753-.277-.954-.653-.2-.376-.2-.753-.05-1.13.176-.476.502-.853.979-1.053.452-.251.903-.326 1.405-.201zm2.384 4.09l.176.502.075.176c-.376.326-.652.627-.954.903l-.752.628-.201.125c-.477.226-.878.301-1.305.251-.376-.025-.677-.15-.803-.376l-.075-.277.05-.225c.125-.377.452-.753 1.029-1.029.3-.126.552-.251.752-.301l2.008-.377zm7.83-4.065c.451-.2.878-.25 1.33-.2.426.05.727.25.878.551l.1.327-.05.25c-.176.452-.552.804-1.18 1.08-.25.125-.526.175-.828.225l-3.086.377-.05-.176-.05-.075.1-.126 2.534-2.108.301-.125zm-6.4 2.384c.302-.276.703-.452 1.18-.452.452 0 .878.176 1.154.452.352.351.502.728.502 1.18 0 .451-.15.878-.502 1.179-.326.326-.702.502-1.154.502-.477 0-.878-.176-1.18-.502a1.593 1.593 0 01-.501-1.18c0-.451.175-.828.502-1.18zm.578 3.639c.05.853.125 1.756.25 2.735v1.004l-.024.25c-.176.452-.477.829-.93 1.03a1.796 1.796 0 01-1.38.175c-.501-.125-.878-.427-1.078-.828a1.959 1.959 0 01-.226-.853l.125-.577c.05-.251.176-.502.377-.703l2.108-2.51c.25.126.502.251.778.277zm1.932-.327l1.054 1.08.652.802.126.251c.226.427.351.829.301 1.305-.05.452-.2.778-.502.903-.176.126-.376.126-.577.101-.477-.125-.853-.502-1.13-1.104l-.3-.828-.377-2.183.427-.151.326-.176zm1.129-1.556l2.836-.25 1.004-.025.25.025c.377.125.728.351.929.727.25.276.376.653.376 1.08l-.075.501c-.125.502-.426.879-.853 1.08-.452.25-.904.3-1.405.125a1.23 1.23 0 01-.678-.402l-2.635-2.183.176-.376.075-.302z" fill="#222121"/><path d="M12.975 2.091c.126.25.201.552.201.878l-.075.552c-.1.276-.226.527-.377.753l-2.258 2.76c-.226-.175-.477-.3-.728-.426l-.25-2.836-.026-1.003.025-.251c.126-.502.477-.879.929-1.13a1.689 1.689 0 011.43-.125c.527.125.904.401 1.13.828zm-7.779.502c.025-.452.2-.753.502-.929.15-.125.377-.125.577-.025.452.126.828.452 1.13 1.08.125.25.25.501.3.802l.503 2.961-.377.126-2.233-2.434-.126-.251c-.2-.452-.326-.879-.276-1.33zM3.841 5.529l.678.276L6.727 7.41c-.2.25-.326.502-.401.753l-3.614.452-.251-.05c-.452-.076-.753-.277-.954-.653-.2-.376-.2-.753-.05-1.13.176-.476.502-.853.979-1.053.452-.251.903-.326 1.405-.201zm10.213.025c.452-.2.879-.25 1.33-.2.427.05.728.25.879.551l.1.327-.05.25c-.176.452-.552.804-1.18 1.08-.25.125-.526.175-.828.225l-3.086.377-.05-.176-.05-.075.1-.126 2.534-2.108.301-.125zm-5.821 6.023c.05.853.125 1.756.25 2.735v1.004l-.024.25c-.176.452-.477.829-.93 1.03a1.796 1.796 0 01-1.38.175c-.501-.125-.878-.427-1.078-.828a1.959 1.959 0 01-.226-.853l.125-.577c.05-.251.176-.502.377-.703l2.108-2.51c.25.126.502.251.778.277zm1.932-.327l1.054 1.08.652.802.126.251c.226.427.351.829.301 1.305-.05.452-.2.778-.502.903-.176.126-.376.126-.577.101-.477-.125-.853-.502-1.13-1.104l-.3-.828-.377-2.183.427-.151.326-.176zm1.129-1.556l2.836-.25 1.004-.025.25.025c.377.125.728.351.929.727.25.276.376.653.376 1.08l-.075.501c-.125.502-.426.879-.853 1.08-.452.25-.904.3-1.405.125a1.23 1.23 0 01-.678-.402l-2.635-2.183.176-.376.075-.302z" fill="#4a0"/><path d="M6.225 9.62l.176.501.075.176c-.376.326-.652.627-.954.903l-.752.628-.201.125c-.477.226-.878.301-1.305.251-.376-.025-.677-.15-.803-.376l-.075-.277.05-.225c.125-.377.452-.753 1.029-1.029.3-.126.552-.251.752-.301l2.008-.377z" fill="red"/><path d="M7.656 7.938c.3-.276.702-.452 1.179-.452.452 0 .878.176 1.154.452.352.351.502.728.502 1.18 0 .451-.15.878-.502 1.179-.326.326-.702.502-1.154.502-.477 0-.878-.176-1.18-.502a1.593 1.593 0 01-.501-1.18c0-.451.175-.828.502-1.18z" fill="#ff0"/></svg>