<svg width="17" height="17" viewBox="0 0 18 18" xmlns="http://www.w3.org/2000/svg" fill-rule="evenodd" clip-rule="evenodd" stroke-linejoin="round" stroke-miterlimit="2"><path d="M.697 4.172c-.312.18-.237.77.108 1.54 1.206 2.694 2.876 4.897 5.005 6.556 1.744-1.1.548-1.73.776-2.504C6.949 9 7.066 8.254 8.028 8l-.118-.736C6.252 5.75 4.351 4.595 2.208 4.024c-.462-.123-1.007-.145-1.51.148z" fill="#00a3e1"/><path d="M9.059 7.626c.765 1.296 1.285 2.503 1.58 3.69l.039.216.069.226c.961.402 1.953.589 2.983.47 1.07-.146 1.845-.588 2.316-1.354l.56-1.295c-.707-1.286-1.885-2.1-3.533-2.395a7.535 7.535 0 00-4.014.442z" fill="#f4a85e"/><path d="M10.639 11.316c-.295-1.187-.815-2.394-1.58-3.69l-.079-.108-.402-.628c-.187-.255-.314-.312-.481-.238-.175.077-.255.209-.187.503v.108l.118.736.03.255 1.325 3.651.147.294c.441.697.922 1.286 1.403 1.728l-.186-2.061-.07-.334-.038-.216z" fill="#2264a9"/><path d="M9.059 7.626a7.536 7.536 0 014.014-.442c1.648.295 2.826 1.11 3.533 2.395 1.06-2.836 1.219-5.23.255-7.105a2.526 2.526 0 00-.736-.844c-.585-.438-1.28-.363-2.022 0-2.949 1.443-4.772 3.286-5.4 5.455l.277.433.079.108z" fill="#ec613f"/><path d="M8.058 8.254L8.028 8c-.962.255-1.629.775-1.992 1.54-.373.776-.442 1.66-.226 2.73l.776.52c.776.236 1.545.364 2.286.107l.658-.697-.147-.294-1.325-3.65z" fill="#00ab58"/><path d="M5.81 12.268c.776 1.992 1.905 3.518 3.543 4.309.242.116.549.12.805.039.166-.053.26-.245.333-.403.256-.542.364-1.295.442-2.286-.48-.442-.962-1.03-1.403-1.728-1.423.918-2.218 1.077-3.72.069z" fill="#75c05b"/><path d="M13.809 15.801c.292.032.532-.127.736-.294.827-.678 1.45-1.505 1.835-2.542a5.812 5.812 0 00.225-3.386l-.559 1.295c-.47.766-1.246 1.208-2.316 1.355-1.03.118-2.022-.069-2.983-.471v.108l.186 2.06a7.656 7.656 0 002.395 1.728c.152.069.314.13.48.147z" fill="#ffcc35"/></svg>