<svg width="17" height="17" xmlns="http://www.w3.org/2000/svg" fill-rule="evenodd" clip-rule="evenodd" stroke-linejoin="round" stroke-miterlimit="2"><path d="M7.75 16.372c1.626-1.714-2.415-3.857-4.447-2.286-.18.102-.405.24-.552.366-.22.188-.32.48-.12.52 0 0-.934.931.68 1.6 1.64.68 3.44.48 4.321-.12l.117-.08z" fill="#faab07" fill-rule="nonzero"/><path d="M5.084 13.54h.06l.06.003.06.003.06.004.06.004.059.006.06.007.06.008.059.008.059.01.059.01.059.011.058.012.059.013.058.013.058.015.057.015.057.016.057.017.056.017.056.019.056.019.055.02.055.02.054.02.053.022.053.023.053.023.052.024.051.024.051.025.05.026.05.026.048.027.048.027.047.028.047.029.046.029.044.03.045.03.043.03.042.031.042.032.04.032.04.033.039.033.037.033.037.034.036.034.034.035.034.035.032.035.032.036.03.036.029.037.028.037.027.037.025.037.024.038.023.038.022.038.02.039.02.038.017.04.017.039.015.04.013.039.012.04.011.04.01.04.007.04.006.04.005.041.003.04.001.042v.04l-.002.042-.003.04-.006.042-.007.04-.008.042-.01.041-.013.041-.013.042-.016.04-.018.042-.02.041-.02.041-.024.041-.025.041-.027.041-.029.04-.03.041-.034.04-.035.041-.037.04-.117.081-.042.028-.043.028-.045.026-.045.026-.047.026-.049.024-.05.024-.05.024-.052.023-.053.022-.054.021-.055.02-.056.02-.057.02-.058.018-.06.018-.06.017-.06.016-.063.016-.063.014-.063.014-.065.013-.065.012-.066.012-.067.01-.068.01-.068.008-.07.008-.069.007-.07.006-.071.005-.071.005-.072.003-.073.002-.073.002H5.39l-.074-.002-.075-.003-.075-.003-.076-.005-.076-.006-.076-.006-.076-.008-.077-.009-.077-.01-.077-.01-.078-.013-.077-.013-.078-.014-.078-.016-.078-.017-.078-.017-.078-.02-.078-.02-.078-.02-.078-.023-.078-.024-.077-.025-.078-.026-.078-.028-.077-.028-.077-.03-.077-.032-.074-.031-.07-.032-.067-.032-.063-.033-.06-.033-.056-.033-.053-.033-.05-.033-.047-.034-.043-.034-.041-.034-.038-.034-.035-.034-.033-.034-.03-.034-.027-.034-.025-.034-.023-.034-.02-.034-.018-.033-.016-.034-.014-.033-.012-.033-.01-.033-.008-.033-.006-.032-.005-.032-.003-.031-.002-.032v-.03l.001-.03.003-.03.003-.03.005-.03.005-.027.007-.028.007-.027.009-.027.009-.026.01-.025.02-.048.022-.046.023-.042.024-.038.023-.035.022-.03.02-.027.019-.023.026-.03.01-.011-.017-.005-.017-.005-.014-.008-.013-.008-.01-.01-.01-.01-.009-.013-.006-.013-.005-.014-.003-.015-.003-.015v-.034l.002-.018.004-.018.004-.019.006-.019.007-.02.008-.02.01-.02.01-.02.011-.02.013-.02.013-.021.015-.02.015-.02.016-.02.017-.02.018-.02.019-.019.02-.018.02-.018.028-.024.03-.024.065-.048.068-.048.072-.048.074-.047.073-.044.072-.043.07-.04.048-.036.048-.035.05-.033.05-.032.05-.031.052-.03.052-.028.052-.027.053-.026.054-.024.054-.023.055-.022.055-.02.056-.02.056-.019.056-.017.057-.016.057-.015.057-.014.058-.012.058-.012.059-.01.058-.01.06-.007.058-.007.06-.006.059-.005.06-.004.06-.003.059-.002h.12zm-.113.333l-.054.002-.054.003-.053.003-.054.005-.053.005-.053.006-.053.008-.052.008-.053.01-.051.01-.052.01-.05.013-.051.013-.05.014-.05.015-.05.016-.048.017-.048.018-.048.02-.047.02-.047.021-.046.022-.045.024-.045.024-.045.026-.044.026-.043.028-.042.029-.042.03-.045.034-.017.012-.018.01-.067.04-.068.04-.07.042-.067.043-.066.043-.06.043-.057.042-.023.018-.022.018-.012.011-.012.011-.01.011-.011.012-.01.011-.01.012-.003.004.005.007.014.022.013.024.01.025.009.025.006.026.004.026.003.027v.027l-.002.026-.005.027-.006.026-.008.025-.01.025-.013.023-.014.023-.016.021-.018.02-.005.006-.019.021-.01.014-.015.019-.016.021-.016.025-.016.027-.016.029-.015.03-.015.034-.005.014-.006.016-.005.016-.004.017-.004.016-.003.016-.003.016-.002.016-.001.016v.048l.002.016.002.016.004.017.004.016.005.017.006.018.008.018.009.019.01.019.012.02.014.021.016.022.018.023.02.023.024.024.026.025.028.026.032.026.035.027.037.027.042.027.044.028.048.029.052.028.055.029.06.028.062.029.068.029.072.029.072.028.073.027.073.026.073.024.073.024.073.022.074.021.073.02.073.02.074.017.073.017.074.016.073.014.073.014.073.012.073.011.073.01.072.01.073.009.072.007.071.006.072.005.071.005.07.003.071.003.07.001h.139l.069-.001.068-.002.067-.003.067-.004.067-.005.065-.006.065-.006.065-.008.063-.008.063-.009.063-.01.061-.01.06-.011.06-.012.06-.013.057-.013.057-.015.056-.014.055-.016.054-.016.053-.017.052-.017.05-.018.05-.02.049-.018.047-.02.046-.02.045-.02.043-.022.042-.022.041-.021.04-.023.038-.023.036-.023.036-.024.084-.058.009-.009.028-.033.027-.032.024-.032.023-.032.02-.031.02-.031.016-.03.016-.03.014-.03.013-.03.01-.029.01-.029.009-.028.007-.029.006-.028.004-.028.004-.027.002-.028.002-.028v-.027l-.001-.028-.002-.028-.004-.028-.004-.028-.005-.028-.007-.028-.007-.029-.009-.029-.01-.029-.011-.029-.012-.03-.014-.029-.014-.03-.016-.03-.017-.03-.018-.03-.02-.03-.02-.03-.022-.03-.023-.03-.024-.03-.025-.03-.027-.031-.027-.03-.029-.03-.03-.03-.03-.03-.032-.029-.033-.029-.034-.029-.035-.028-.036-.029-.037-.028-.037-.027-.039-.028-.04-.027-.04-.026-.04-.026-.043-.026-.043-.025-.043-.025-.044-.025-.045-.024-.046-.023-.046-.023-.047-.022-.048-.022-.048-.021-.048-.02-.05-.02-.05-.02-.05-.019-.05-.018-.051-.017-.052-.017-.052-.016-.052-.016-.052-.014-.053-.014-.054-.014-.053-.012-.054-.012-.054-.01-.054-.011-.054-.01-.054-.008-.055-.008-.054-.007-.055-.006-.055-.006-.054-.004-.055-.004-.055-.002-.054-.002-.055-.001h-.109z"/><path d="M13.78 14.086c-2.296-1.463-6.198.777-4.447 2.286.036.025.074.052.117.08.88.6 2.68.8 4.321.12 1.614-.669.68-1.6.68-1.6.2-.04.1-.332-.12-.52a3.809 3.809 0 00-.552-.366z" fill="#faab07" fill-rule="nonzero"/><path d="M12.118 13.611l.063.002.062.003.062.004.062.004.062.006.061.007.062.008.061.01.062.01.06.011.062.013.06.013.06.015.061.016.06.017.06.019.059.02.058.02.059.022.058.023.057.025.058.025.056.028.057.028.055.03.056.03.054.033.054.033.07.04.072.043.073.044.074.047.071.047.07.049.064.048.03.024.028.024.02.018.02.018.019.019.018.02.017.02.016.02.015.02.015.02.013.02.012.02.012.021.01.02.01.02.008.02.007.02.005.02.005.018.003.018.002.018.001.017v.017l-.003.015-.003.015-.005.014-.007.013-.008.012-.01.011-.01.01-.013.008-.015.008-.016.005-.018.005.01.01.027.031.018.023.02.026.023.031.023.035.023.038.024.042.022.046.02.048.01.025.01.026.007.027.008.027.006.028.006.028.005.029.003.03.003.03v.06l-.001.032-.003.031-.005.032-.006.032-.009.033-.01.033-.011.033-.014.033-.016.034-.018.033-.02.034-.023.034-.025.034-.027.034-.03.034-.033.034-.035.034-.038.034-.04.034-.045.034-.046.034-.05.033-.053.033-.057.033-.06.033-.062.033-.067.032-.07.032-.074.031-.077.032-.077.03-.078.028-.077.028-.078.026-.078.025-.078.024-.078.022-.078.022-.078.02-.078.019-.078.017-.077.017-.078.016-.078.014-.077.013-.078.012-.077.011-.077.01-.077.009-.076.008-.077.006-.076.006-.075.005-.075.003-.075.003-.075.001-.074.001h-.073l-.073-.002-.073-.002-.072-.003-.071-.005-.071-.005-.07-.006-.07-.007-.069-.008-.068-.008-.068-.01-.067-.01-.066-.012-.065-.012-.065-.013-.063-.014-.063-.014-.062-.016-.061-.016-.06-.017-.06-.018-.058-.018-.057-.02-.056-.02-.055-.02-.054-.021-.053-.022-.052-.023-.05-.024-.05-.024-.049-.024-.047-.026-.046-.026-.044-.026-.043-.028-.042-.028-.117-.08-.04-.036-.038-.036-.036-.036-.034-.036-.032-.036-.03-.037-.028-.037-.026-.037-.024-.037-.023-.037-.02-.038-.019-.037-.016-.038-.015-.038-.014-.038-.011-.038-.01-.038-.008-.038-.006-.038-.005-.038-.003-.039v-.076l.001-.038.004-.038.005-.038.006-.038.008-.038.01-.038.01-.038.013-.037.014-.038.015-.037.017-.037.018-.038.02-.036.02-.037.022-.037.024-.036.024-.036.026-.036.027-.035.028-.036.03-.035.03-.034.032-.035.032-.034.034-.034.035-.033.036-.033.037-.033.038-.032.04-.032.04-.032.04-.03.042-.031.043-.03.043-.03.045-.03.045-.028.047-.029.047-.028.047-.027.049-.027.05-.026.05-.026.05-.025.051-.024.052-.024.053-.024.053-.022.054-.022.055-.022.055-.02.055-.02.056-.02.057-.019.057-.018.057-.017.058-.017.059-.015.058-.015.06-.015.059-.013.06-.013.06-.012.06-.01.06-.011.061-.01.061-.008.062-.008.061-.006.062-.006.061-.005.062-.004.062-.003.062-.002.062-.002h.062l.062.001zm-.12.333h-.057l-.057.003-.057.003-.057.003-.056.005-.057.005-.057.006-.056.007-.056.008-.056.009-.056.01-.056.01-.056.01-.055.012-.055.013-.054.013-.054.014-.054.014-.054.016-.053.016-.053.016-.052.018-.052.018-.05.018-.051.02-.05.019-.05.02-.05.021-.048.022-.047.022-.047.022-.047.023-.045.023-.045.024-.044.025-.044.024-.042.026-.042.025-.041.026-.04.027-.04.026-.037.027-.037.028-.037.027-.035.028-.034.028-.034.028-.032.029-.03.028-.03.029-.03.029-.028.029-.026.029-.026.029-.024.029-.023.029-.022.029-.02.028-.02.029-.019.029-.017.028-.016.028-.014.028-.014.028-.012.027-.011.027-.01.027-.009.026-.007.026-.007.026-.005.026-.005.025-.003.025-.002.024-.001.025v.048l.002.024.003.024.004.024.005.024.006.024.008.024.008.025.01.025.011.025.013.025.014.026.016.027.017.026.019.027.02.028.023.027.025.028.026.029.029.028.03.029.022.019.098.067.036.024.036.023.038.023.04.023.04.021.042.022.044.021.045.02.046.021.047.02.048.019.05.019.05.018.053.017.053.017.054.016.055.016.056.014.057.015.058.013.058.013.06.012.06.011.062.01.062.01.063.01.064.007.064.008.066.006.065.006.067.005.067.004.067.003.068.002.069.001h.139l.07-.001.07-.003.07-.003.072-.004.071-.006.072-.006.072-.007.073-.009.072-.01.073-.01.073-.01.073-.013.073-.014.073-.014.074-.016.073-.017.073-.018.074-.019.073-.02.074-.02.073-.023.073-.024.073-.024.073-.026.073-.027.072-.028.072-.03.067-.028.063-.029.06-.028.055-.029.052-.028.048-.029.044-.028.041-.027.038-.027.035-.027.032-.026.028-.026.026-.025.023-.024.02-.023.019-.023.016-.022.014-.02.012-.021.01-.02.01-.018.007-.018.006-.018.005-.017.004-.016.003-.017.003-.016.001-.016.001-.016v-.032l-.001-.016-.002-.016-.003-.016-.003-.016-.004-.016-.005-.017-.005-.016-.005-.016-.006-.014-.014-.034-.015-.03-.016-.03-.016-.026-.017-.025-.015-.021-.014-.02-.012-.013-.018-.02-.005-.007-.019-.02-.016-.023-.015-.024-.012-.024-.01-.026-.009-.027-.006-.027-.004-.027-.001-.028v-.028l.004-.027.006-.028.007-.026.01-.026.012-.025.015-.024.01-.015-.003-.004-.01-.012-.01-.011-.01-.012-.011-.01-.012-.012-.012-.01-.022-.019-.023-.018-.056-.042-.061-.043-.066-.043-.068-.043-.069-.042-.068-.04-.073-.042-.056-.035-.048-.029-.048-.027-.05-.026-.05-.025-.05-.024-.05-.023-.051-.022-.052-.02-.052-.02-.052-.018-.053-.018-.053-.016-.054-.015-.054-.015-.054-.013-.054-.012-.055-.012-.055-.01-.056-.01-.055-.007-.056-.008-.056-.006-.056-.005-.057-.005-.056-.003-.057-.003-.057-.002h-.113z"/><path d="M6.304 6.075c.728-.312 2.057-.383 2.399-.397l.002-.003.04.002.04-.002.002.003c.342.014 1.67.085 2.399.397.84.36 1.32.56 1.32.76 0 .2-.16.4-.6.6-.44.201-.64.161-.64.161s.24-.28.32-.56c0 0-1.2.993-2.647 1.078l-.034.002h-.01c-.027.002-.053.002-.08.002l-.07.002-.071-.002c-.026 0-.053 0-.079-.002h-.01l-.034-.002c-1.448-.085-2.647-1.078-2.647-1.078.08.28.32.56.32.56s-.2.04-.64-.16-.6-.4-.6-.6c0-.2.48-.4 1.32-.76z" fill="#faab07" fill-rule="nonzero"/><path d="M10.045 2.354c.586 0 1.06.708 1.06 1.58 0 .874-.474 1.581-1.06 1.581-.585 0-1.06-.707-1.06-1.58 0-.873.475-1.58 1.06-1.58zm-2.96 0c.585 0 1.06.708 1.06 1.58 0 .874-.475 1.581-1.06 1.581-.586 0-1.061-.707-1.061-1.58 0-.873.475-1.58 1.06-1.58zM12.537 14.078c-1.142 1.512-3.356 1.783-4.037 1.83-.681-.047-2.895-.318-4.037-1.83-1.36-1.8-1.12-3.721-.96-4.281.037-.129.085-.26.138-.385.182.13.387.252.615.363.603.293 1.354.564 2.178.763.823.199 1.72.325 2.61.325.463 0 .925-.034 1.375-.11 1.098-.187 2.15-.69 2.961-1.259l.01-.007c.04.102.078.207.107.31.16.56.4 2.48-.96 4.281z" fill="#fff" fill-rule="nonzero"/><path d="M2.678 6.793a.582.582 0 01.036-.047l.009-.01h.001l.042-.042.011-.06.08-.4a.433.433 0 01.07-.168.384.384 0 01.057-.063c.028.074.063.162.11.26.106.222.265.496.504.784.357.432.892.892 1.676 1.241.784.35 1.815.589 3.163.589.063 0 .126 0 .19-.002 1.242-.02 2.218-.227 2.983-.531A5.144 5.144 0 0013 7.538a4.029 4.029 0 001.042-1.283c.052-.102.093-.195.126-.278.098.128.18.262.244.402.106.235.164.488.164.77 0 .164-.02.338-.062.523a1.056 1.056 0 01-.132.301 3.32 3.32 0 01-.585.68 7.042 7.042 0 01-1.513 1.042 6.715 6.715 0 01-1.931.666 7.832 7.832 0 01-1.307.105c-.854 0-1.721-.122-2.518-.314a10.553 10.553 0 01-2.097-.734c-.707-.344-1.149-.798-1.427-1.212a3.09 3.09 0 01-.304-.574 2.333 2.333 0 01-.122-.395.533.533 0 01.015-.266.658.658 0 01.086-.178z" fill="#eb1923" fill-rule="nonzero"/><g><path d="M4.266 9.73c0 .001-.05.402-.1.865a32.593 32.593 0 00-.093 1.003 4.13 4.13 0 00-.009.24c0 .13.011.259.042.384a1.037 1.037 0 00.426.614c.14.095.31.172.515.232.283.083.615.147.93.147.123 0 .243-.01.357-.033.086-.017.17-.043.249-.08a.708.708 0 00.4-.435.845.845 0 00.04-.218c.02-.364.037-.836.049-1.22.012-.382.018-.674.018-.674L4.266 9.73z" fill="#eb1923" fill-rule="nonzero"/></g><g><path d="M4.266 9.73c0 .001-.05.402-.1.865a32.593 32.593 0 00-.093 1.003 4.13 4.13 0 00-.008.24c0 .13.01.259.04.384a1.037 1.037 0 00.426.614c.14.095.31.172.516.232.283.083.615.147.931.147.122 0 .242-.01.356-.033.086-.017.17-.043.249-.08a.708.708 0 00.4-.435.845.845 0 00.04-.218c.02-.364.037-.836.049-1.22.012-.382.018-.674.018-.674l-.397-.01-.001.051a74.065 74.065 0 01-.066 1.83.381.381 0 01-.051.183.31.31 0 01-.08.086.57.57 0 01-.21.091 1.33 1.33 0 01-.307.032c-.262 0-.565-.056-.818-.13a1.478 1.478 0 01-.37-.158.736.736 0 01-.162-.135.6.6 0 01-.128-.237 1.156 1.156 0 01-.038-.32c0-.054.003-.128.008-.216.019-.306.066-.77.11-1.153a65.39 65.39 0 01.074-.636l.006-.053-.394-.05zM7.444 3.308c-.232 0-.42.28-.42.627 0 .346.188.626.42.626.232 0 .42-.28.42-.626s-.188-.627-.42-.627zm.12.783c-.1 0-.18-.12-.18-.268 0-.148.08-.268.18-.268.1 0 .18.12.18.268 0 .148-.08.268-.18.268zM9.67 3.819a.246.246 0 01.061-.078.076.076 0 01.048-.018c.014 0 .028.004.047.018a.32.32 0 01.09.142.796.796 0 01.043.27h.324c0-.21-.045-.404-.128-.557a.612.612 0 00-.157-.192.358.358 0 00-.22-.08c-.08 0-.156.03-.22.08a.7.7 0 00-.211.314 1.268 1.268 0 00-.073.434h.324c0-.137.031-.259.073-.333z" fill-rule="nonzero"/><path d="M15.098 8.756a5.507 5.507 0 00-.41-.526l.033-.051c.085-.142.148-.28.18-.419.048-.211.071-.415.071-.611 0-.337-.07-.65-.2-.935a2.64 2.64 0 00-.547-.772l-.22-.219c-.024-.24-.07-.543-.148-.948-.196-1.029-1.098-2.604-2.2-3.361C10.587.179 9.225.024 8.5.013c-.596-.009-1.966.086-3.156.9-1.104.756-2.081 2.321-2.201 3.362-.068.591-.089.968-.082 1.246H3.06c-.016.004-.13.03-.261.122a.803.803 0 00-.331.514l-.07.348a1.049 1.049 0 00-.186.349.944.944 0 00-.024.46c.022.113.065.274.142.466.036.09.079.186.13.287-.186.198-.38.43-.558.69-.6.88-1.255 2.482-1.16 3.4.12 1.161.28 1.201.68.96.448-.268.96-1.08.96-1.08s.547 1.49 1.441 2.281c1.04.92 2 1.48 3.161 1.72.757.158 1.259.178 1.516.173.257.005.759-.015 1.516-.172 1.16-.24 2.12-.8 3.161-1.72.894-.792 1.44-2.281 1.44-2.281s.513.812.96 1.08c.4.24.561.2.681-.96.095-.92-.56-2.521-1.16-3.402zm-5.053-6.402c.586 0 1.06.708 1.06 1.58 0 .874-.474 1.581-1.06 1.581-.585 0-1.06-.707-1.06-1.58 0-.873.475-1.58 1.06-1.58zm-2.96 0c.585 0 1.06.708 1.06 1.58 0 .874-.475 1.581-1.06 1.581-.586 0-1.061-.707-1.061-1.58 0-.873.475-1.58 1.06-1.58zm-.781 3.721c.728-.312 2.057-.383 2.399-.397l.002-.003.04.002.04-.002.002.003c.342.014 1.67.085 2.399.397.84.36 1.32.56 1.32.76 0 .2-.16.4-.6.6-.44.201-.64.16-.64.16s.24-.28.32-.56c0 0-1.2.994-2.647 1.079l-.034.002h-.01c-.027.002-.053.002-.08.002l-.07.002-.071-.002c-.026 0-.053 0-.079-.002h-.01l-.034-.002c-1.448-.085-2.647-1.078-2.647-1.078.08.28.32.56.32.56s-.2.04-.64-.16-.6-.4-.6-.6c0-.2.48-.4 1.32-.76zm-3.626.718a.582.582 0 01.036-.047l.009-.01h.001l.042-.042.011-.06.08-.4a.433.433 0 01.07-.168.384.384 0 01.057-.063c.028.074.064.162.11.26.106.222.266.496.504.784.357.432.892.892 1.676 1.241.784.35 1.815.589 3.163.589.063 0 .126 0 .191-.002 1.24-.02 2.217-.227 2.982-.531A5.144 5.144 0 0013 7.538a4.029 4.029 0 001.042-1.283c.052-.102.093-.195.126-.278.098.128.18.262.244.402.106.235.164.488.164.77 0 .164-.02.338-.062.523a1.056 1.056 0 01-.132.301 3.32 3.32 0 01-.585.68 7.042 7.042 0 01-1.513 1.042 6.715 6.715 0 01-1.931.666 7.832 7.832 0 01-1.307.105c-.854 0-1.721-.122-2.518-.314a10.553 10.553 0 01-2.097-.734c-.707-.344-1.149-.798-1.427-1.212a3.09 3.09 0 01-.304-.574 2.333 2.333 0 01-.122-.395.533.533 0 01.015-.266.658.658 0 01.086-.178zm9.859 7.285c-1.142 1.512-3.356 1.783-4.037 1.83-.681-.047-2.895-.318-4.037-1.83-1.36-1.8-1.12-3.721-.96-4.281.037-.129.085-.26.138-.385.182.13.387.252.615.363.603.293 1.354.564 2.178.763.823.199 1.72.325 2.61.325.463 0 .925-.034 1.375-.11 1.098-.187 2.15-.69 2.962-1.259l.01-.007c.04.102.077.206.106.31.16.56.4 2.48-.96 4.281z" fill-rule="nonzero"/></g></svg>