<svg width="17" height="17" xmlns="http://www.w3.org/2000/svg" fill-rule="evenodd" clip-rule="evenodd" stroke-linejoin="round" stroke-miterlimit="2"><g transform="translate(7.086 7.086) scale(1.01595)"><circle cx="4.879" cy="4.879" r="4.879" fill="#28a8ea"/><clipPath id="a"><circle cx="4.879" cy="4.879" r="4.879"/></clipPath><g clip-path="url(#a)"><circle r="7" fill="#2497d2" transform="matrix(1.24448 0 0 1.24448 1.392 1.392)"/><circle r="7" fill="#2088bd" transform="matrix(1.19492 0 0 1.19492 1.392 1.392)"/></g></g><g transform="scale(1.01595)"><circle cx="4.879" cy="4.879" r="4.879" fill="#28a8ea"/><clipPath id="b"><circle cx="4.879" cy="4.879" r="4.879"/></clipPath><g clip-path="url(#b)"><circle r="7" fill="#2497d2" transform="matrix(1.24448 0 0 1.24448 8.367 8.367)"/><circle r="7" fill="#2088bd" transform="matrix(1.19492 0 0 1.19492 8.367 8.367)"/></g></g><circle r="7" fill="#28a8ea" transform="translate(8.5 8.5) scale(1.16482)"/><path d="M12.286 11.852c-.313.445-.77.794-1.374 1.045-.603.254-1.316.379-2.142.379-.991 0-1.808-.172-2.452-.517a3.173 3.173 0 01-1.113-.992c-.285-.413-.428-.816-.428-1.207 0-.227.086-.421.257-.582a.908.908 0 01.653-.243c.215 0 .397.062.545.189.148.126.275.312.38.56.127.295.265.54.414.738.148.197.357.36.626.489.27.127.624.191 1.062.191.602 0 1.092-.128 1.469-.387.376-.258.565-.581.565-.967 0-.306-.102-.556-.305-.746a1.998 1.998 0 00-.788-.438 14.033 14.033 0 00-1.29-.322c-.722-.154-1.326-.337-1.811-.544-.486-.209-.873-.492-1.157-.85-.286-.36-.429-.807-.429-1.34 0-.508.15-.96.452-1.354.302-.395.737-.698 1.308-.91.57-.213 1.242-.319 2.013-.319.616 0 1.15.07 1.6.21.449.142.821.329 1.118.562.297.233.514.477.65.734.137.255.206.507.206.749a.849.849 0 01-.256.602.85.85 0 01-.64.268c-.233 0-.41-.054-.531-.16-.121-.108-.253-.283-.393-.527-.184-.348-.402-.62-.658-.815-.256-.196-.666-.293-1.232-.293-.525 0-.948.105-1.27.318-.322.211-.484.467-.484.765a.74.74 0 00.165.479c.109.135.26.25.453.345.19.097.385.173.58.228.197.055.521.134.974.24.565.121 1.077.256 1.536.403.459.147.85.326 1.172.534.321.21.573.477.753.8.18.32.27.714.27 1.18a2.56 2.56 0 01-.468 1.505z" fill="#fff" fill-rule="nonzero"/></svg>