<svg width="17" height="17" xmlns="http://www.w3.org/2000/svg" fill-rule="evenodd" clip-rule="evenodd" stroke-linejoin="round" stroke-miterlimit="2"><g transform="matrix(.3452 0 0 .3452 -1.285 -1.78)"><path d="M28.348 5.157c-13.6 0-24.625 11.027-24.625 24.625 0 13.6 11.025 24.623 24.625 24.623s24.623-11.023 24.623-24.623c0-13.598-11.024-24.625-24.623-24.625z" fill="#50abf1" fill-rule="nonzero"/><clipPath id="a"><path d="M28.348 5.157c-13.6 0-24.625 11.027-24.625 24.625 0 13.6 11.025 24.623 24.625 24.623s24.623-11.023 24.623-24.623c0-13.598-11.024-24.625-24.623-24.625z" clip-rule="nonzero"/></clipPath><g clip-path="url(#a)"><path d="M40.752 24.817c.013.266.018.533.018.803 0 8.201-6.242 17.656-17.656 17.656a17.572 17.572 0 01-9.513-2.787c.486.057.979.086 1.48.086a12.45 12.45 0 007.707-2.656 6.214 6.214 0 01-5.796-4.311 6.06 6.06 0 001.167.111c.566 0 1.114-.074 1.635-.217a6.21 6.21 0 01-4.979-6.084l.001-.08a6.184 6.184 0 002.811.777 6.204 6.204 0 01-2.761-5.166c0-1.137.306-2.204.84-3.12a17.618 17.618 0 0012.792 6.483 6.206 6.206 0 016.045-7.619 6.2 6.2 0 014.529 1.959 12.395 12.395 0 003.941-1.506 6.223 6.223 0 01-2.73 3.433 12.407 12.407 0 003.565-.977 12.537 12.537 0 01-3.096 3.215z" fill="#fff" fill-rule="nonzero"/></g><path d="M28.666 5.159l.318.006.316.01.315.014.314.018.314.022.312.026.311.029.309.034.309.037.308.041.306.045.305.048.304.053.302.056.301.059.3.064.299.067.297.07.296.074.294.078.293.081.291.085.29.088.289.092.286.095.286.099.283.101.282.106.281.108.278.112.277.115.276.119.273.122.272.125.27.128.268.131.267.134.264.138.263.141.261.143.258.147.257.15.255.153.253.155.251.159.248.162.247.164.245.167.242.171.24.173.238.176.236.178.234.182.231.184.23.187.226.189.225.193.222.194.22.198.217.2.215.202.213.206.21.207.208.21.205.213.202.215.2.218.198.219.195.223.192.224.189.227.187.229.184.232.182.233.178.236.176.238.173.241.17.242.168.245.164.246.162.249.159.251.155.253.153.255.15.257.146.258.144.261.141.263.137.264.135.267.131.268.128.27.125.272.122.273.118.276.115.277.112.278.109.281.105.282.102.284.098.285.095.287.092.288.088.29.085.291.081.293.078.295.074.295.07.297.067.299.064.3.059.301.056.302.053.304.048.305.045.307.041.307.037.309.034.31.029.311.026.312.022.313.018.314.014.315.01.317.006.317.002.318-.002.318-.006.318-.01.316-.014.315-.018.314-.022.314-.026.312-.029.311-.034.31-.037.308-.041.308-.045.306-.048.305-.053.304-.056.302-.059.302-.064.3-.066.298-.071.297-.074.296-.078.294-.081.293-.085.292-.088.29-.092.288-.095.287-.098.285-.102.284-.105.282-.109.28-.112.279-.115.277-.118.275-.122.274-.125.272-.128.27-.131.268-.135.266-.137.265-.141.262-.143.261-.147.259-.15.257-.153.254-.155.253-.159.251-.161.249-.165.246-.167.245-.171.242-.173.241-.175.238-.179.236-.181.233-.185.232-.186.229-.19.227-.192.224-.195.223-.197.219-.2.218-.203.215-.205.212-.207.211-.211.207-.212.205-.215.203-.218.2-.219.197-.223.195-.224.192-.227.19-.229.186-.232.185-.233.181-.236.179-.238.175-.241.173-.242.171-.245.167-.246.165-.249.161-.251.159-.253.155-.254.153-.257.15-.259.147-.261.143-.262.141-.265.137-.266.135-.268.131-.27.128-.272.125-.274.122-.275.118-.277.115-.279.112-.28.109-.282.105-.284.102-.285.098-.287.095-.288.092-.29.088-.292.085-.293.081-.294.078-.296.074-.297.071-.298.066-.3.064-.302.059-.302.056-.304.053-.305.048-.306.045-.308.041-.308.037-.31.034-.311.029-.312.026-.314.022-.314.018-.315.014-.316.01-.318.006-.318.002-.318-.002-.318-.006-.316-.01-.315-.014-.314-.018-.314-.022-.312-.026-.311-.029-.31-.034-.308-.037-.308-.041-.306-.045-.305-.048-.304-.053-.303-.056-.301-.059-.3-.064-.298-.066-.297-.071-.296-.074-.295-.078-.292-.081-.292-.085-.29-.088-.288-.092-.287-.095-.285-.098-.284-.102-.282-.105-.28-.109-.279-.112-.277-.115-.275-.118-.274-.122-.272-.125-.27-.128-.268-.131-.267-.135-.264-.137-.263-.141-.26-.143-.259-.147-.257-.15-.255-.153-.253-.155-.251-.159-.248-.161-.247-.165-.245-.167-.242-.171-.24-.173-.239-.175-.235-.179-.234-.181-.232-.185-.229-.186-.227-.19-.224-.192-.222-.195-.22-.197-.218-.2-.215-.203-.212-.205-.211-.207-.207-.211-.205-.212-.203-.215-.2-.218-.197-.219-.195-.223-.192-.224-.19-.227-.187-.229-.184-.232-.181-.233-.179-.236-.176-.238-.173-.241-.17-.242-.167-.245-.165-.246-.162-.249-.158-.251-.156-.253-.153-.254-.149-.257-.147-.259-.144-.261-.141-.262-.137-.265-.134-.266-.132-.268-.128-.27-.125-.272-.121-.274-.119-.275-.115-.277-.112-.279-.109-.28-.105-.282-.102-.284-.098-.285-.095-.287-.092-.288-.088-.29-.085-.292-.081-.293-.078-.294-.074-.296-.07-.297-.067-.298-.064-.3-.059-.302-.056-.302-.053-.304-.048-.305-.045-.306-.041-.308-.037-.308-.034-.31-.029-.311-.026-.312-.022-.314-.018-.314-.014-.315-.01-.316-.006-.318-.002-.318.002-.318.006-.317.01-.317.014-.315.018-.314.022-.313.026-.312.029-.311.034-.31.037-.309.041-.307.045-.307.048-.305.053-.304.056-.302.059-.301.064-.3.067-.299.07-.297.074-.295.078-.295.081-.293.085-.291.088-.29.092-.288.095-.287.098-.285.102-.284.105-.282.109-.281.112-.278.115-.277.119-.276.121-.273.125-.272.128-.27.132-.268.134-.267.137-.264.141-.263.144-.261.147-.258.149-.257.153-.255.156-.253.158-.251.162-.249.165-.246.167-.245.17-.242.173-.241.176-.238.179-.236.181-.233.184-.232.187-.229.19-.227.192-.224.195-.223.197-.219.2-.218.203-.215.205-.213.207-.21.211-.207.212-.206.215-.202.218-.2.22-.198.222-.194.224-.193.227-.189.229-.187.232-.184.234-.182.235-.178.239-.176.24-.173.242-.171.245-.167.247-.164.248-.162.251-.159.253-.155.255-.153.257-.15.259-.147.26-.143.263-.141.264-.138.267-.134.268-.131.27-.128.272-.125.274-.122.275-.119.277-.115.279-.112.28-.108.282-.106.284-.101.285-.099.287-.095.288-.092.29-.088.292-.085.292-.081.295-.078.296-.074.297-.07.298-.067.3-.064.301-.059.303-.056.304-.053.305-.048.306-.045.308-.041.308-.037.31-.034.311-.029.312-.026.314-.022.314-.018.315-.014.316-.01.318-.006.318-.002.318.002zm-.631.386l-.313.006-.311.01-.311.014-.309.017-.308.022-.308.025-.306.029-.305.033-.304.037-.302.04-.302.045-.3.047-.299.052-.298.055-.296.059-.296.062-.293.066-.293.069-.291.073-.29.077-.288.08-.287.083-.285.087-.284.09-.282.094-.281.097-.279.1-.278.104-.276.107-.274.11-.273.113-.271.117-.269.12-.267.123-.266.126-.264.129-.262.132-.261.135-.258.139-.257.141-.255.145-.253.147-.25.151-.249.153-.247.156-.245.159-.243.162-.241.165-.238.168-.237.17-.234.173-.232.176-.23.178-.228.182-.226.184-.223.186-.221.189-.219.192-.216.195-.215.197-.211.199-.21.202-.206.204-.205.207-.202.21-.199.211-.197.214-.194.217-.192.218-.189.222-.187.223-.184.226-.181.227-.179.23-.176.233-.173.234-.17.237-.168.238-.164.241-.162.243-.159.245-.157.247-.153.249-.15.25-.148.253-.144.255-.141.257-.139.258-.135.26-.133.263-.129.264-.126.265-.123.268-.12.269-.116.271-.113.273-.111.274-.106.276-.104.278-.1.279-.097.281-.094.282-.09.284-.087.285-.083.287-.08.288-.077.29-.073.291-.069.292-.066.294-.062.295-.059.297-.055.297-.052.299-.047.301-.045.301-.04.303-.037.304-.033.305-.029.306-.025.307-.022.308-.017.31-.014.31-.01.311-.006.313-.002.313.002.313.006.313.01.311.014.311.017.309.022.308.025.308.029.306.033.305.037.304.04.302.045.302.047.3.052.299.055.298.059.296.062.295.066.294.069.293.073.291.077.289.08.289.083.286.087.286.09.284.094.282.097.281.1.279.104.277.106.276.111.275.113.272.116.271.12.27.123.267.126.266.129.264.133.262.135.26.139.259.141.256.144.255.148.253.15.251.153.249.157.247.159.244.162.243.164.241.168.239.17.236.173.234.176.233.179.23.181.228.184.225.187.223.189.221.192.219.194.217.197.214.199.211.202.21.205.206.206.205.21.202.211.199.214.197.217.194.219.192.221.189.223.187.226.184.228.181.23.178.232.176.234.173.237.171.238.167.241.165.243.162.245.159.247.156.249.153.25.151.253.147.255.145.257.141.258.138.261.136.262.132.264.129.265.126.268.123.269.12.271.116.273.114.274.11.276.107.278.103.279.101.281.096.282.094.284.09.285.087.287.083.288.08.29.077.291.073.293.069.293.066.296.062.296.059.298.055.299.052.3.047.302.045.302.04.304.037.305.033.306.029.308.025.308.022.309.017.311.014.311.01.313.006.313.002.313-.002.313-.006.311-.01.311-.014.309-.017.308-.022.308-.025.306-.029.305-.033.304-.037.302-.04.302-.045.3-.047.299-.052.298-.055.296-.059.295-.062.294-.066.293-.069.291-.073.289-.077.289-.08.287-.083.285-.087.284-.09.282-.094.281-.096.279-.101.277-.103.276-.107.275-.11.272-.114.271-.116.27-.12.267-.123.266-.126.264-.129.262-.132.26-.136.259-.138.257-.141.254-.145.253-.147.251-.151.249-.153.247-.156.244-.159.243-.162.241-.165.239-.167.236-.171.234-.173.233-.176.23-.178.228-.181.225-.184.223-.187.221-.189.219-.192.217-.194.214-.197.211-.199.21-.202.206-.205.205-.206.202-.21.199-.211.197-.214.194-.217.192-.219.189-.221.187-.223.184-.225.181-.228.178-.23.176-.233.173-.234.171-.236.167-.239.165-.241.162-.243.159-.244.156-.247.153-.249.151-.251.147-.253.145-.254.141-.257.138-.259.136-.26.132-.262.129-.264.126-.266.123-.267.12-.27.116-.271.114-.272.11-.275.107-.276.103-.277.101-.279.096-.281.094-.282.09-.284.087-.285.083-.287.08-.289.077-.289.073-.291.069-.293.066-.294.062-.295.059-.296.055-.298.052-.299.047-.3.045-.302.04-.302.037-.304.033-.305.029-.306.025-.308.022-.308.017-.309.014-.311.01-.311.006-.313.002-.313-.002-.313-.006-.313-.01-.311-.014-.31-.017-.31-.022-.308-.025-.307-.029-.306-.033-.305-.037-.304-.04-.303-.045-.301-.047-.301-.052-.299-.055-.297-.059-.297-.062-.295-.066-.294-.069-.292-.073-.291-.077-.29-.08-.288-.083-.287-.087-.285-.09-.284-.094-.282-.097-.281-.1-.279-.103-.278-.107-.276-.11-.274-.114-.273-.116-.271-.12-.269-.123-.268-.126-.265-.129-.264-.133-.263-.135-.26-.138-.258-.142-.257-.144-.255-.148-.253-.15-.251-.153-.248-.156-.247-.159-.245-.162-.243-.165-.241-.168-.238-.17-.237-.173-.234-.176-.233-.178-.23-.182-.227-.184-.226-.186-.223-.189-.222-.192-.218-.194-.217-.197-.214-.2-.211-.202-.21-.204-.207-.207-.204-.209-.202-.212-.199-.214-.197-.216-.195-.219-.192-.221-.189-.223-.186-.226-.184-.228-.182-.23-.178-.232-.176-.234-.173-.237-.17-.239-.168-.24-.165-.243-.162-.245-.159-.247-.156-.249-.153-.25-.151-.253-.147-.255-.145-.257-.141-.258-.139-.26-.135-.263-.132-.264-.129-.265-.126-.268-.123-.269-.12-.271-.117-.273-.113-.274-.11-.276-.107-.278-.104-.279-.1-.28-.097-.283-.094-.284-.09-.285-.087-.287-.083-.288-.08-.29-.077-.291-.073-.292-.069-.294-.066-.295-.062-.296-.059-.298-.055-.299-.052-.3-.047-.302-.045-.303-.04-.303-.037-.305-.033-.307-.029-.307-.025-.308-.022-.309-.017-.311-.014-.311-.01-.313-.006-.313-.002-.313.002z" fill="#bfe1fa"/></g></svg>