<svg width="17" height="17" xmlns="http://www.w3.org/2000/svg" fill-rule="evenodd" clip-rule="evenodd" stroke-linejoin="round" stroke-miterlimit="2"><path d="M13.544 6.284c.25-.79-.441-1.54-1.231-1.373-.724.158-.948-.925-.234-1.08 1.65-.359 3.038 1.222 2.518 2.792-.224.698-1.277.355-1.053-.34z" fill="#e99315" fill-rule="nonzero"/><path d="M7.07 15.508c-3.498 0-7.07-1.692-7.07-4.486 0-1.459.922-3.14 2.512-4.73C5.793 3.008 9.2 2.97 8.226 6.103c-.132.43.405.187.405.197 2.617-1.106 4.625-.553 3.753 1.692-.122.31.036.359.273.431 4.467 1.393 1.145 7.084-5.586 7.084z" fill="#d52a2c" fill-rule="nonzero"/><path d="M11.801 10.536c-.168-1.733-2.443-2.925-5.085-2.667-2.639.268-4.63 1.877-4.463 3.61.169 1.734 2.444 2.926 5.086 2.667 2.639-.267 4.63-1.876 4.462-3.61z" fill="#fff" fill-rule="nonzero"/><path d="M11.598 1.593c-.852.184-.553 1.438.274 1.26 2.38-.5 4.437 1.739 3.677 4.082-.244.797.957 1.218 1.23.395 1.05-3.285-1.813-6.448-5.18-5.737z" fill="#e99315" fill-rule="nonzero"/><path d="M8.883 11.685c-.518 1.177-2.026 1.82-3.309 1.405-1.237-.398-1.76-1.62-1.222-2.721C4.889 9.295 6.266 8.689 7.488 9c1.274.327 1.914 1.522 1.395 2.684z" fill-rule="nonzero"/><path d="M6.388 10.554c-.34-.143-.792.008-1.003.34-.219.34-.113.739.227.897.346.158.813.008 1.032-.34.21-.346.097-.747-.256-.897zM7.126 10.483a.485.485 0 00.549-.207c.111-.196.054-.407-.142-.495a.471.471 0 00-.56.207c-.108.2-.043.419.153.495z" fill="#fff" fill-rule="nonzero"/></svg>