<svg width="17" height="17" xmlns="http://www.w3.org/2000/svg" fill-rule="evenodd" clip-rule="evenodd" stroke-linejoin="round" stroke-miterlimit="2"><g transform="matrix(.01735 0 0 .01735 -.173 -.173)"><path d="M990 157c0-77-70-147-147-147H157C80 10 10 80 10 157v679c0 84 70 154 147 154h679c84 0 154-63 154-140V157z" fill="#fff" fill-rule="nonzero"/><clipPath id="a"><path d="M990 157c0-77-70-147-147-147H157C80 10 10 80 10 157v679c0 84 70 154 147 154h679c84 0 154-63 154-140V157z" clip-rule="nonzero"/></clipPath><g clip-path="url(#a)" fill="#22ab39" fill-rule="nonzero"><path d="M990 157c0-77-70-147-147-147H157C80 10 10 80 10 157v679c0 84 70 154 147 154h679c84 0 154-63 154-140V157zM381 661c-35 0-63-7-105-14l-105 49 28-91C129 556 80 486 80 409c0-140 133-245 294-245 140 0 266 77 294 196h-35c-147 21-238 112-238 238 0 21 0 42 7 63h-21m434 98l21 70-77-42c-28 7-84 7-112 0-126 0-217-84-217-196 0-119 133-203 266-203s224 91 231 196c0 77-35 133-112 175"/><path d="M241 332c0 23.2 18.8 42 42 42s42-18.8 42-42-18.8-42-42-42-42 18.8-42 42zM458 332c0 23.2 18.8 42 42 42s42-18.8 42-42-18.8-42-42-42-42 18.8-42 42zM549 528c0 15.5 12.5 28 28 28s28-12.5 28-28-12.5-28-28-28-28 12.5-28 28zM724 528c0 15.5 12.5 28 28 28s28-12.5 28-28-12.5-28-28-28-28 12.5-28 28z"/></g></g></svg>