<svg width="17" height="17" viewBox="0 0 18 18" xmlns="http://www.w3.org/2000/svg" fill-rule="evenodd" clip-rule="evenodd" stroke-linejoin="round" stroke-miterlimit="2"><path d="M18 4.5C18 2.016 15.984 0 13.5 0h-9A4.502 4.502 0 000 4.5v9C0 15.984 2.016 18 4.5 18h9c2.484 0 4.5-2.016 4.5-4.5v-9z" fill="#5f01d1"/><clipPath id="a"><path d="M18 4.5C18 2.016 15.984 0 13.5 0h-9A4.502 4.502 0 000 4.5v9C0 15.984 2.016 18 4.5 18h9c2.484 0 4.5-2.016 4.5-4.5v-9z"/></clipPath><g clip-path="url(#a)"><path d="M11.123 9.6a1.74 1.74 0 11-.001 3.48 1.74 1.74 0 01.001-3.48zm-.82-.624h3.119l2.725-6.596h-3.1l-2.743 6.596zM1.852 5.608h2.843l1.676 4.24 1.657-4.262h2.775l-4.16 10.01-2.782.017 1.126-2.657L1.85 5.608z" fill="#fff"/></g></svg>