<svg width="12" height="12" xmlns="http://www.w3.org/2000/svg" fill-rule="evenodd" clip-rule="evenodd" stroke-linejoin="round" stroke-miterlimit="2"><g fill-rule="nonzero"><path d="M8.555 4.567a.432.432 0 00-.432-.432c-.2 0-.423.14-.423.34V5.9c0 .067-.055.145-.127.145a.126.126 0 01-.125-.126V3.487a.432.432 0 00-.431-.432c-.207 0-.428.146-.428.362V5.87a.128.128 0 01-.255 0V2.605a.428.428 0 00-.127-.306.429.429 0 00-.306-.126.434.434 0 00-.431.425v3.255a.129.129 0 01-.13.129.13.13 0 01-.128-.13l.001-1.768v-.611c0-.226-.222-.367-.427-.367a.432.432 0 00-.432.432v3.568c0 .058-.05.12-.131.12-.061 0-.127-.035-.196-.104l-.421-.42a.505.505 0 00-.357-.155c-.12 0-.23.046-.318.134-.183.183-.189.467-.014.722l.003.005c.013.021.328.534.893 1.038.529.47 1.391 1.033 2.5 1.033 1.952 0 2.243-1.263 2.243-2.016l-.001-2.896z"/><path d="M10.243 1.757A5.961 5.961 0 006 0C4.397 0 2.89.624 1.757 1.757A5.96 5.96 0 000 6c0 1.603.624 3.11 1.757 4.243A5.961 5.961 0 006 12c1.603 0 3.11-.624 4.243-1.757A5.962 5.962 0 0012 6c0-1.603-.624-3.11-1.757-4.243zM6 11.283A5.289 5.289 0 01.717 6 5.289 5.289 0 016 .717 5.289 5.289 0 0111.283 6 5.289 5.289 0 016 11.283z"/></g></svg>