<svg width="12" height="12" xmlns="http://www.w3.org/2000/svg" fill-rule="evenodd" clip-rule="evenodd" stroke-linejoin="round" stroke-miterlimit="2"><g fill-rule="nonzero"><path d="M10.813 4.625a2.054 2.054 0 00-1.457-.603h-.21v-.876c0-.867-.353-1.658-.922-2.225A3.139 3.139 0 006 0a3.14 3.14 0 00-2.225.921 3.14 3.14 0 00-.921 2.225v.876h-.21a2.057 2.057 0 00-2.06 2.06V9.94A2.057 2.057 0 002.644 12h6.712c.567 0 1.086-.231 1.457-.604.371-.37.604-.89.603-1.456V6.082c0-.567-.232-1.086-.603-1.457zm-6.597-1.48c0-.494.199-.935.523-1.26A1.774 1.774 0 016 1.362c.495 0 .936.199 1.261.523.324.325.522.766.523 1.26v.877H4.216v-.876zm5.634 7.288a.691.691 0 01-.494.205H2.644a.69.69 0 01-.494-.205.692.692 0 01-.204-.493V6.082c0-.195.077-.365.204-.494a.69.69 0 01.494-.204h6.712a.693.693 0 01.698.698V9.94a.694.694 0 01-.204.493z"/><path d="M6 6.562a.981.981 0 00-.4 1.875l-.216 1.409h1.232l-.217-1.409a.98.98 0 00-.4-1.875z"/></g></svg>