<svg width="12" height="12" xmlns="http://www.w3.org/2000/svg" fill-rule="evenodd" clip-rule="evenodd" stroke-linejoin="round" stroke-miterlimit="2"><path d="M3.536 7.642c-.196.193.61.796.708.7l5.288-5.228a.49.49 0 000-.7.505.505 0 00-.708 0L3.536 7.642z" fill-rule="nonzero"/><path d="M11.913 2.168c-.132-.393-.427-.823-.85-1.242C10.634.504 9.983 0 9.31 0a1.204 1.204 0 00-.84.333l-1.306 1.29H.345A.342.342 0 000 1.965v9.696c0 .188.154.34.344.34h9.808c.19 0 .344-.152.344-.34V4.71a.337.337 0 00-.006-.062l1.143-1.13.007-.007.022-.022.03-.033c.312-.347.39-.792.221-1.288zM4.614 9.211l-2.428.693.552-2.548 1.876 1.855zm.63-.34L3.025 6.678l5.176-5.117 2.219 2.193-5.176 5.117zm4.564 2.449H.688V2.304h5.788L2.287 6.446a.34.34 0 00-.093.169l-.8 3.702a.338.338 0 00.101.32c.065.06.149.092.235.092h6.64c.19 0 .343-.153.343-.34a.342.342 0 00-.344-.34H4.163l1.129-.323a.345.345 0 00.148-.086l4.368-4.318v5.998zm1.359-8.305a.335.335 0 00-.011.012l-.003.003-.003.003-.243.24L8.688 1.08l.249-.246A.505.505 0 019.31.68c.336 0 .797.265 1.265.727.255.253 1.055 1.117.59 1.608z" fill-rule="nonzero"/></svg>