<svg width="16" height="16" xmlns="http://www.w3.org/2000/svg" fill-rule="evenodd" clip-rule="evenodd" stroke-linejoin="round" stroke-miterlimit="2"><path d="M5.46.546C2.447.546 0 2.9 0 5.803c0 2.903 2.446 5.257 5.46 5.257a5.57 5.57 0 003.43-1.165l.627.611-.05.05a.57.57 0 000 .826l4.61 4.447a.625.625 0 00.86 0l.537-.52a.569.569 0 000-.827l-4.619-4.447a.614.614 0 00-.85 0l-.058.058-.611-.587c.976-.95 1.586-2.261 1.586-3.703C10.922 2.9 8.476.546 5.46.546zm0 .562c2.38 0 4.313 1.86 4.313 4.15S7.84 9.415 5.461 9.415 1.148 7.547 1.148 5.258c0-2.29 1.935-4.15 4.313-4.15z" fill="#8c8c8c" fill-rule="nonzero"/><path d="M8.526 8.175a4.36 4.36 0 01-.455.388l2.247 2.166.43-.413-2.222-2.14z" fill-rule="nonzero"/><path d="M9.464 10.009a.569.569 0 000 .826l4.616 4.445a.624.624 0 00.858 0l.537-.517a.57.57 0 000-.827l-4.616-4.444a.624.624 0 00-.859 0l-.536.517z" fill="#930" fill-rule="nonzero"/><path d="M10.678 9.677a.312.312 0 00-.429-.005l-.543.511a.285.285 0 00-.005.413l4.56 4.497c.116.116.31.118.429.006l.543-.51a.285.285 0 00.005-.414l-4.56-4.498z" fill="none"/><path d="M254.193 376.003c-6.717 0-12.187 5.265-12.187 11.73 0 6.465 5.47 11.729 12.187 11.729 6.718 0 12.188-5.264 12.188-11.729 0-6.465-5.47-11.73-12.188-11.73z" fill="url(#_Linear1)" fill-rule="nonzero" transform="matrix(.37893 0 0 .37912 -90.86 -141.74)"/><path d="M5.46 0C2.447 0 0 2.355 0 5.258c0 2.902 2.446 5.256 5.46 5.256 3.016 0 5.462-2.354 5.462-5.256C10.922 2.355 8.476 0 5.46 0zm0 1.108c2.38 0 4.313 1.86 4.313 4.15S7.84 9.415 5.461 9.415 1.148 7.547 1.148 5.258c0-2.29 1.935-4.15 4.313-4.15z" fill="#333" fill-rule="nonzero"/><path d="M5.46.372C2.665.372.389 2.565.389 5.258c0 2.692 2.276 4.885 5.073 4.885 2.796 0 5.072-2.193 5.072-4.885 0-2.693-2.276-4.886-5.072-4.886zm0 .736c2.38 0 4.313 1.86 4.313 4.15S7.84 9.415 5.461 9.415 1.148 7.547 1.148 5.258c0-2.29 1.935-4.15 4.313-4.15z" fill="#ccc" fill-rule="nonzero"/><path d="M5.46.372C2.665.372.389 2.565.389 5.258c0 1.947 1.191 3.63 2.908 4.413-1.634-.811-2.76-2.45-2.76-4.34C.537 2.64 2.814.448 5.61.448c.773 0 1.507.171 2.164.47A5.187 5.187 0 005.461.373z" fill="#fff" fill-rule="nonzero"/><path d="M5.46.81C2.916.81.844 2.807.844 5.258c0 2.45 2.072 4.446 4.618 4.446 2.545 0 4.618-1.995 4.618-4.446C10.079 2.807 8.006.81 5.461.81zm0 .298c2.38 0 4.313 1.86 4.313 4.15S7.84 9.415 5.461 9.415 1.148 7.547 1.148 5.258c0-2.29 1.935-4.15 4.313-4.15z" fill="#036" fill-rule="nonzero"/><path d="M1.147 5.259c0 2.29 1.935 4.153 4.313 4.153 2.378 0 4.312-1.863 4.312-4.153 0-2.29-1.934-4.152-4.312-4.152S1.147 2.969 1.147 5.259z" fill="none"/><path d="M1.336 5.259c0 .583.132 1.137.368 1.636.156-.052.301-.127.431-.235 2.09-1.362 3.823-3.416 5.947-4.463a4.204 4.204 0 00-2.623-.909c-2.273 0-4.123 1.782-4.123 3.971z" fill="#fff" fill-rule="nonzero"/><defs><linearGradient id="_Linear1" x1="0" y1="0" x2="1" y2="0" gradientUnits="userSpaceOnUse" gradientTransform="matrix(23.9598 0 0 23.0597 242.421 387.733)"><stop offset="0" stop-color="#fff"/><stop offset="1" stop-color="#c1daf4"/></linearGradient></defs></svg>