<svg width="13" height="13" xmlns="http://www.w3.org/2000/svg" fill-rule="evenodd" clip-rule="evenodd" stroke-linejoin="round" stroke-miterlimit="2"><g transform="matrix(.59095 0 0 .59095 0 0)"><circle cx="11" cy="11" r="11" fill="url(#_Radial1)"/><clipPath id="a"><circle cx="11" cy="11" r="11"/></clipPath><g clip-path="url(#a)"><path d="M11.507 11.976L8.45 13.654a1.104 1.104 0 01-1.498-.447 1.119 1.119 0 01.444-1.509l2.486-1.36V4.986a1.11 1.11 0 011.104-1.112 1.11 1.11 0 011.104 1.112V11c0 .414-.23.791-.582.976z" fill-rule="nonzero"/><path d="M11 22c1.21 0 1.21-2 0-2-4.839 0-9-4.16-9-9 0-4.838 4.161-9 9-9 3.189 0 6.23 1.755 7.767 4.307.543.948 2.193-.041 1.552-1.146C18.37 2.063 14.922 0 11 0 4.935 0 0 4.935 0 11c0 6.066 4.935 11 11 11z" fill-rule="nonzero"/></g><path d="M18.62 16.04v-.727c.304-.143.507-.35.507-.635a.548.548 0 00-.08-.282.547.547 0 00.08-.281c0-.163-.066-.3-.178-.413a3.549 3.549 0 001.699-3.024 3.554 3.554 0 00-3.55-3.548 3.553 3.553 0 00-3.548 3.549c0 1.279.682 2.398 1.699 3.023a.573.573 0 00-.178.413c0 .105.03.198.079.282a.548.548 0 00-.08.282c0 .286.203.492.508.635v.726c-2.85.404-3.38 1.92-3.38 2.265v1.014c0 .374.303.676.676.676h8.45A.676.676 0 0022 19.32v-1.014c0-.345-.538-1.86-3.38-2.265zm-1.522-7.558a2.2 2.2 0 012.197 2.197 2.2 2.2 0 01-2.197 2.197 2.2 2.2 0 01-2.196-2.197 2.2 2.2 0 012.196-2.197zM20.901 20.65h-7.605a.676.676 0 100 1.352h7.605a.676.676 0 000-1.352z" fill-rule="nonzero"/></g><defs><radialGradient id="_Radial1" cx="0" cy="0" r="1" gradientUnits="userSpaceOnUse" gradientTransform="matrix(31 -1 1 31 6 -1)"><stop offset="0" stop-color="#fff"/><stop offset="1" stop-color="#c6a11b"/></radialGradient></defs></svg>