<svg width="10" height="12" xmlns="http://www.w3.org/2000/svg" fill-rule="evenodd" clip-rule="evenodd" stroke-linecap="round" stroke-linejoin="round" stroke-miterlimit="1.5"><g transform="matrix(.47059 0 0 .45454 -1.412 1.545)"><path d="M20 7.5L13.5 1H3v22h17V7.5zm0 0L13.5 1 20 7.5z" fill="url(#_Radial1)"/><clipPath id="a"><path d="M20 7.5L13.5 1H3v22h17V7.5zm0 0L13.5 1 20 7.5z"/></clipPath><g clip-path="url(#a)"><path d="M21 7.75h-7.75V0L21 7.75zm-6.334-1.466h2.828l-2.828-2.828v2.828z"/></g><path d="M20 7.5V23H3V1h10.5L20 7.5zM4.417 2.467v19.066h14.166V8.122l-5.655-5.655H4.417z"/></g><g transform="matrix(.47059 0 0 .45454 .588 -.455)"><path d="M20 7.5L13.5 1H3v22h17V7.5zm0 0L13.5 1 20 7.5z" fill="url(#_Radial3)"/><clipPath id="b"><path d="M20 7.5L13.5 1H3v22h17V7.5zm0 0L13.5 1 20 7.5z"/></clipPath><g clip-path="url(#b)"><path d="M13.25 7.75V0L21 7.75h-7.75zm0-7.75v7.75V0z"/><path d="M21 7.75h-7.75V0L21 7.75zm-6.334-1.466h2.828l-2.828-2.828v2.828z"/></g><path d="M20 7.5V23H3V1h10.5L20 7.5zM4.417 2.467v19.066h14.166V8.122l-1.677-1.677-3.978-3.978H4.417z"/></g><path d="M5 5h2M5 7h2" fill="none" stroke="#000"/><defs><radialGradient id="_Radial1" cx="0" cy="0" r="1" gradientUnits="userSpaceOnUse" gradientTransform="matrix(12.75 17.6 -21.25 16.5 7.25 5.4)"><stop offset="0" stop-color="#fff"/><stop offset="1" stop-color="#caf0fe"/></radialGradient><radialGradient id="_Radial3" cx="0" cy="0" r="1" gradientUnits="userSpaceOnUse" gradientTransform="matrix(12.75 17.6 -21.25 16.5 7.25 5.4)"><stop offset="0" stop-color="#fff"/><stop offset="1" stop-color="#caf0fe"/></radialGradient></defs></svg>