<svg width="15" height="15" xmlns="http://www.w3.org/2000/svg" fill-rule="evenodd" clip-rule="evenodd" stroke-linejoin="round" stroke-miterlimit="2"><path d="M15 3.75h-3.9L8.26 1H4.045L2 2.833 2.929 12H15V3.75z" fill-opacity=".64"/><path d="M14 3H8.801L6.843 1H3.175L1 3v6l3.123 2H14V3z" fill="none"/><clipPath id="a"><path d="M14 3H8.801L6.843 1H3.175L1 3v6l3.123 2H14V3z"/></clipPath><g clip-path="url(#a)"><path d="M14 3H8.801l-2.06-2H3.203L1 3v8h13V3z" fill="url(#_Linear2)"/><path d="M8.801 3H14v8H1V3l2.203-2h3.538l2.06 2zM3.589 2L2 3.443V10h11V4H8.396l-2.06-2H3.589z" fill="#b0cbff"/><path d="M14 3H1v8h13V3z" fill="url(#_Linear3)"/><path d="M14 11H1V3h13v8zM2 4v6h11V4H2z" fill="#b0cbff"/></g><path d="M8.801 3H14v8H4.123L1 9V3l2.175-2h3.668l1.958 2zM3.565 2L2 3.439v5.014L4.416 10H13V4H8.381L6.423 2H3.565z" fill="#718ec2"/><path d="M2 8h11l1 6H3L2 8z" fill-opacity=".6"/><path d="M0 6h11l2 7H2L0 6z" fill="url(#_Linear4)"/><path d="M13 13H2L0 6h11l2 7zM1.326 7l1.428 5h8.92l-1.428-5h-8.92z" fill="#718ec2"/><defs><linearGradient id="_Linear2" x1="0" y1="0" x2="1" y2="0" gradientUnits="userSpaceOnUse" gradientTransform="matrix(11 9 -5.53846 6.76923 3 2)"><stop offset="0" stop-color="#fdfdff"/><stop offset="1" stop-color="#b0cbff"/></linearGradient><linearGradient id="_Linear3" x1="0" y1="0" x2="1" y2="0" gradientUnits="userSpaceOnUse" gradientTransform="matrix(11 9 -5.53846 6.76923 3 2)"><stop offset="0" stop-color="#fdfdff"/><stop offset="1" stop-color="#b0cbff"/></linearGradient><linearGradient id="_Linear4" x1="0" y1="0" x2="1" y2="0" gradientUnits="userSpaceOnUse" gradientTransform="matrix(9 9 -4.84615 4.84615 4 4)"><stop offset="0" stop-color="#fdfdff"/><stop offset="1" stop-color="#b0cbff"/></linearGradient></defs></svg>