<svg width="30" height="15" xmlns="http://www.w3.org/2000/svg" fill-rule="evenodd" clip-rule="evenodd" stroke-linejoin="round" stroke-miterlimit="2"><path d="M24 0h-1v1h1zM24 2h-1v1h1zM24 4h-1v1h1zM24 6h-1v1h1zM24 8h-1v1h1zM22 8h-1v1h1zM20 8h-1v1h1zM18 8h-1v1h1zM16 8h-1v1h1z"/><g><path d="M15 3.75h-3.9L8.26 1H4.045L2 2.833 2.929 12H15V3.75z" fill-opacity=".63"/><path d="M14 3H8.801L6.843 1H3.175L1 3v6l3.123 2H14V3z" fill="none"/><clipPath id="a"><path d="M14 3H8.801L6.843 1H3.175L1 3v6l3.123 2H14V3z"/></clipPath><g clip-path="url(#a)"><path d="M14 3H8.801l-2.06-2H3.203L1 3v8h13V3z" fill="url(#_Linear2)"/><path d="M8.801 3H14v8H1V3l2.203-2h3.538l2.06 2zM3.589 2L2 3.443V10h11V4H8.396l-2.06-2H3.589z" fill="#b0cbff"/><path d="M14 3H1v8h13V3z" fill="url(#_Linear3)"/><path d="M14 11H1V3h13v8zM2 4v6h11V4H2z" fill="#b0cbff"/></g><path d="M8.801 3H14v8H4.123L1 9V3l2.175-2h3.668l1.958 2zM3.565 2L2 3.439v5.014L4.416 10H13V4H8.381L6.423 2H3.565z" fill="#718ec2"/><path fill="#fff" d="M1.733 6.14L7.597.276l6.864 6.864-5.864 5.864z"/><path fill="#fff" d="M4.733 7.14l2.864-2.864 2.864 2.864-2.864 2.864z"/><path d="M10.46 7.14l-2.863 2.864L4.733 7.14l2.864-2.864 2.864 2.864zm-4.219 0l1.356 1.356L8.953 7.14 7.597 5.785 6.241 7.14z" fill="#09265a"/><path d="M14.46 7.14l-5.863 5.864L1.733 6.14 7.597.276l6.864 6.864zm-11.218-1l5.355 5.355 4.355-4.355-5.355-5.355L3.242 6.14z" fill-opacity=".79"/><g><path d="M2 8h11l1 6H3L2 8z" fill-opacity=".6"/></g><g><path d="M0 6h11l2 7H2L0 6z" fill="url(#_Linear4)"/><path d="M13 13H2L0 6h11l2 7zM1.326 7l1.428 5h8.92l-1.428-5h-8.92z" fill="#718ec2"/></g></g><defs><linearGradient id="_Linear2" x1="0" y1="0" x2="1" y2="0" gradientUnits="userSpaceOnUse" gradientTransform="matrix(11 9 -5.53846 6.76923 3 2)"><stop offset="0" stop-color="#fdfdff"/><stop offset="1" stop-color="#b0cbff"/></linearGradient><linearGradient id="_Linear3" x1="0" y1="0" x2="1" y2="0" gradientUnits="userSpaceOnUse" gradientTransform="matrix(11 9 -5.53846 6.76923 3 2)"><stop offset="0" stop-color="#fdfdff"/><stop offset="1" stop-color="#b0cbff"/></linearGradient><linearGradient id="_Linear4" x1="0" y1="0" x2="1" y2="0" gradientUnits="userSpaceOnUse" gradientTransform="matrix(9 9 -4.84615 4.84615 4 4)"><stop offset="0" stop-color="#fdfdff"/><stop offset="1" stop-color="#b0cbff"/></linearGradient></defs></svg>