<svg width="20" height="16" xmlns="http://www.w3.org/2000/svg" fill-rule="evenodd" clip-rule="evenodd" stroke-linejoin="round" stroke-miterlimit="2"><path d="M11.249 1.072c-2.784 0-4.032 2.032-4.032 3.568 0 1.28.672 2.384 1.968 2.384 1.008 0 1.696-.704 1.696-1.696 0-1.024-.752-1.664-1.536-1.664-.432 0-.592.112-.8.112-.208 0-.256-.128-.256-.288 0-.64.96-1.808 2.592-1.808 1.696 0 2.432 1.664 2.432 4.176 0 4.464-2.208 6.96-5.936 9.088-.144.08-.24.16-.24.288 0 .096.064.192.208.192a.65.65 0 00.272-.08c3.936-1.92 8.096-4.768 8.096-9.632 0-2.784-1.696-4.64-4.464-4.64zM17.297 6.4a.841.841 0 00-.864.864c0 .496.368.864.864.864a.841.841 0 00.864-.864.841.841 0 00-.864-.864zm-.016-4.016a.868.868 0 00-.88.88c0 .496.384.88.88.88s.88-.384.88-.88a.868.868 0 00-.88-.88z" fill-rule="nonzero"/></svg>