<svg width="24" height="24" xmlns="http://www.w3.org/2000/svg" fill-rule="evenodd" clip-rule="evenodd" stroke-linejoin="round" stroke-miterlimit="2"><g transform="translate(.043 .043) scale(.95652)"><circle cx="12.5" cy="12.5" r="11.5" fill="#02aeed"/><clipPath id="a"><circle cx="12.5" cy="12.5" r="11.5"/></clipPath><g clip-path="url(#a)"><g transform="translate(-.045 -.045) scale(1.04545)"><path d="M12 6c3.311 0 6 2.464 6 5.5 0 2.353-1.616 4.364-3.885 5.148-.107.037-.115.85-.115 2.352-.018.178-2.356-2.007-2.532-2.021C8.405 16.732 6 14.371 6 11.5 6 8.464 8.689 6 12 6z" fill="#fff"/><clipPath id="b"><path d="M12 6c3.311 0 6 2.464 6 5.5 0 2.353-1.616 4.364-3.885 5.148-.107.037-.115.85-.115 2.352-.018.178-2.356-2.007-2.532-2.021C8.405 16.732 6 14.371 6 11.5 6 8.464 8.689 6 12 6z"/></clipPath><g clip-path="url(#b)"><path fill="#02aeed" d="M9 9h6v1H9zM9 11h6v1H9zM9 13h6v1H9z"/></g></g></g><path d="M12.649 1.001l.148.003.147.004.147.007.147.008.146.011.146.012.145.013.145.016.144.017.143.02.143.021.143.022.142.025.141.026.14.028.14.029.14.032.139.033.138.034.137.037.137.038.136.039.135.041.135.043.134.045.133.046.132.047.132.049.131.051.13.053.13.053.128.056.128.057.127.058.126.06.125.061.125.063.123.064.123.066.121.067.121.069.12.07.119.071.118.073.118.074.116.075.115.077.114.078.113.08.113.081.111.082.11.083.109.085.108.086.107.087.106.089.105.09.104.091.103.092.101.093.101.095.099.096.098.097.097.098.096.099.095.101.093.101.092.103.091.104.09.105.089.106.087.107.086.108.085.109.083.11.082.111.081.113.08.113.078.114.077.115.075.116.074.118.073.118.071.119.07.12.069.121.067.121.066.123.064.123.063.125.061.125.06.126.058.127.057.128.056.128.053.13.053.13.051.131.049.132.047.132.046.133.045.134.043.135.041.135.039.136.038.137.037.137.034.138.033.139.032.14.029.14.028.14.026.141.025.142.022.143.021.143.02.143.017.144.016.145.013.145.012.146.011.146.008.147.007.147.004.147.003.148.001.149-.001.149-.003.148-.004.147-.007.147-.008.147-.011.146-.012.146-.013.145-.016.145-.017.144-.02.143-.021.143-.022.143-.025.142-.026.141-.028.14-.029.14-.032.14-.033.139-.034.138-.037.137-.038.137-.039.136-.041.135-.043.135-.045.134-.046.133-.047.132-.049.132-.051.131-.053.13-.053.13-.056.128-.057.128-.058.127-.06.126-.061.125-.063.125-.064.123-.066.123-.067.121-.069.121-.07.12-.071.119-.073.118-.074.118-.075.116-.077.115-.078.114-.08.113-.081.113-.082.111-.083.11-.085.109-.086.108-.087.107-.089.106-.09.105-.091.104-.092.103-.093.101-.095.101-.096.099-.097.098-.098.097-.099.096-.101.095-.101.093-.103.092-.104.091-.105.09-.106.089-.107.087-.108.086-.109.085-.11.083-.111.082-.113.081-.113.08-.114.078-.115.077-.116.075-.118.074-.118.073-.119.071-.12.07-.121.069-.121.067-.123.066-.123.064-.125.063-.125.061-.126.06-.127.058-.128.057-.128.056-.13.053-.13.053-.131.051-.132.049-.132.047-.133.046-.134.045-.135.043-.135.041-.136.039-.137.038-.137.037-.138.034-.139.033-.14.032-.14.029-.14.028-.141.026-.142.025-.143.022-.143.021-.143.02-.144.017-.145.016-.145.013-.146.012-.146.011-.147.008-.147.007-.147.004-.148.003L12.5 24l-.149-.001-.148-.003-.147-.004-.147-.007-.147-.008-.146-.011-.146-.012-.145-.013-.145-.016-.144-.017-.143-.02-.143-.021-.143-.022-.142-.025-.141-.026-.14-.028-.14-.029-.14-.032-.139-.033-.138-.034-.137-.037-.137-.038-.136-.039-.135-.041-.135-.043-.134-.045-.133-.046-.132-.047-.132-.049-.131-.051-.13-.053-.13-.053-.128-.056-.128-.057-.127-.058-.126-.06-.125-.061-.125-.063-.123-.064-.123-.066-.121-.067-.121-.069-.12-.07-.119-.071-.118-.073-.118-.074-.116-.075-.115-.077-.114-.078-.113-.08-.113-.081-.111-.082-.11-.083-.109-.085-.108-.086-.107-.087-.106-.089-.105-.09-.104-.091-.103-.092-.101-.093-.101-.095-.099-.096-.098-.097-.097-.098-.096-.099-.095-.101-.093-.101-.092-.103-.091-.104-.09-.105-.089-.106-.087-.107-.086-.108-.085-.109-.083-.11-.082-.111-.081-.113-.08-.113-.078-.114-.077-.115-.075-.116-.074-.118-.073-.118-.071-.119-.07-.12-.069-.121-.067-.121-.066-.123-.064-.123-.063-.125-.061-.125-.06-.126-.058-.127-.057-.128-.056-.128-.053-.13-.053-.13-.051-.131-.049-.132-.047-.132-.046-.133-.045-.134-.043-.135-.041-.135-.039-.136-.038-.137-.037-.137-.034-.138-.033-.139-.032-.14-.029-.14-.028-.14-.026-.141-.025-.142-.022-.143-.021-.143-.02-.143-.017-.144-.016-.145-.013-.145-.012-.146-.011-.146-.008-.147-.007-.147-.004-.147-.003-.148L1 12.5l.001-.149.003-.148.004-.147.007-.147.008-.147.011-.146.012-.146.013-.145.016-.145.017-.144.02-.143.021-.143.022-.143.025-.142.026-.141.028-.14.029-.14.032-.14.033-.139.034-.138.037-.137.038-.137.039-.136.041-.135.043-.135.045-.134.046-.133.047-.132.049-.132.051-.131.053-.13.053-.13.056-.128.057-.128.058-.127.06-.126.061-.125.063-.125.064-.123.066-.123.067-.121.069-.121.07-.12.071-.119.073-.118.074-.118.075-.116.077-.115.078-.114.08-.113.081-.113.082-.111.083-.11.085-.109.086-.108.087-.107.089-.106.09-.105.091-.104.092-.103.093-.101.095-.101.096-.099.097-.098.098-.097.099-.096.101-.095.101-.093.103-.092.104-.091.105-.09.106-.089.107-.087.108-.086.109-.085.11-.083.111-.082.113-.081.113-.08.114-.078.115-.077.116-.075.118-.074.118-.073.119-.071.12-.07.121-.069.121-.067.123-.066.123-.064.125-.063.125-.061.126-.06.127-.058.128-.057.128-.056.13-.053.13-.053.131-.051.132-.049.132-.047.133-.046.134-.045.135-.043.135-.041.136-.039.137-.038.137-.037.138-.034.139-.033.14-.032.14-.029.14-.028.141-.026.142-.025.143-.022.143-.021.143-.02.144-.017.145-.016.145-.013.146-.012.146-.011.147-.008.147-.007.147-.004.148-.003L12.5 1l.149.001zm-.284 1.045l-.135.003-.134.004-.134.006-.134.008-.133.009-.132.011-.132.013-.132.014-.131.016-.13.017-.13.019-.13.021-.129.022-.128.024-.128.025-.127.027-.126.028-.126.03-.126.032-.125.033-.124.034-.123.036-.123.038-.123.039-.121.04-.121.042-.121.043-.119.045-.119.046-.118.047-.118.049-.117.05-.116.052-.115.053-.115.054-.114.056-.113.057-.112.059-.111.059-.111.061-.11.063-.109.063-.108.065-.108.066-.106.068-.106.068-.104.07-.104.071-.103.073-.102.073-.102.075-.1.076-.099.077-.098.078-.098.08-.096.08-.096.082-.094.083-.093.084-.093.085-.091.086-.091.087-.089.088-.088.089-.087.091-.086.091-.085.093-.084.093-.083.094-.082.096-.08.096-.08.098-.078.098-.077.099-.076.1-.075.102-.073.102-.073.103-.071.104-.07.104-.068.106-.068.106-.066.108-.065.108-.063.109-.063.11-.061.111-.059.111-.059.112-.057.113-.056.114-.054.115-.053.115-.052.116-.05.117-.049.118-.047.118-.046.119-.045.119-.043.121-.042.121-.04.121-.039.123-.038.123-.036.123-.034.124-.033.125-.032.126-.03.126-.028.126-.027.127-.025.128-.024.128-.022.129-.021.13-.019.13-.017.13-.016.131-.014.132-.013.132-.011.132-.009.133-.008.134-.006.134-.004.134-.003.135-.001.135.001.135.003.135.004.134.006.134.008.134.009.133.011.132.013.132.014.132.016.131.017.13.019.13.021.13.022.129.024.128.025.128.027.127.028.126.03.126.032.126.033.125.034.124.036.123.038.123.039.123.04.121.042.121.043.121.045.119.046.119.047.118.049.118.05.117.052.116.053.115.054.115.056.114.057.113.059.112.059.111.061.111.063.11.063.109.065.108.066.108.068.106.068.106.07.104.071.104.073.103.073.102.075.102.076.1.077.099.078.098.08.098.08.096.082.096.083.094.084.093.085.093.086.091.087.091.088.089.089.088.091.087.091.086.093.085.093.084.094.083.096.082.096.08.098.08.098.078.099.077.1.076.102.075.102.073.103.073.104.071.104.07.106.068.106.068.108.066.108.065.109.063.11.063.111.061.111.059.112.059.113.057.114.056.115.054.115.053.116.052.117.05.118.049.118.047.119.046.119.045.121.043.121.042.121.04.123.039.123.038.123.036.124.034.125.033.126.032.126.03.126.028.127.027.128.025.128.024.129.022.13.021.13.019.13.017.131.016.132.014.132.013.132.011.133.009.134.008.134.006.134.004.135.003.135.001.135-.001.135-.003.134-.004.134-.006.134-.008.133-.009.132-.011.132-.013.132-.014.131-.016.13-.017.13-.019.13-.021.129-.022.128-.024.128-.025.127-.027.126-.028.126-.03.126-.032.125-.033.124-.034.123-.036.123-.038.123-.039.121-.04.121-.042.121-.043.119-.045.119-.046.118-.047.118-.049.117-.05.116-.052.115-.053.115-.054.114-.056.113-.057.112-.059.111-.059.111-.061.11-.063.109-.063.108-.065.108-.066.106-.068.106-.068.104-.07.104-.071.103-.073.102-.073.102-.075.1-.076.099-.077.098-.078.098-.08.096-.08.096-.082.094-.083.093-.084.093-.085.091-.086.091-.087.089-.088.088-.089.087-.091.086-.091.085-.093.084-.093.083-.094.082-.096.08-.096.08-.098.078-.098.077-.099.076-.1.075-.102.073-.102.073-.103.071-.104.07-.104.068-.106.068-.106.066-.108.065-.108.063-.109.063-.11.061-.111.059-.111.059-.112.057-.113.056-.114.054-.115.053-.115.052-.116.05-.117.049-.118.047-.118.046-.119.045-.119.043-.121.042-.121.04-.121.039-.123.038-.123.036-.123.034-.124.033-.125.032-.126.03-.126.028-.126.027-.127.025-.128.024-.128.022-.129.021-.13.019-.13.017-.13.016-.131.014-.132.013-.132.011-.132.009-.133.008-.134.006-.134.004-.134.003-.135.001-.135-.001-.135-.003-.135-.004-.134-.006-.134-.008-.134-.009-.133-.011-.132-.013-.132-.014-.132-.016-.131-.017-.13-.019-.13-.021-.13-.022-.129-.024-.128-.025-.128-.027-.127-.028-.126-.03-.126-.032-.126-.033-.125-.034-.124-.036-.123-.038-.123-.039-.123-.04-.121-.042-.121-.043-.121-.045-.119-.046-.119-.047-.118-.049-.118-.05-.117-.052-.116-.053-.115-.054-.115-.056-.114-.057-.113-.059-.112-.059-.111-.061-.111-.063-.11-.063-.109-.065-.108-.066-.108-.068-.106-.068-.106-.07-.104-.071-.104-.073-.103-.073-.102-.075-.102-.076-.1-.077-.099-.078-.098-.08-.098-.08-.096-.082-.096-.083-.094-.084-.093-.085-.093-.086-.091-.087-.091-.088-.089-.089-.088-.091-.087-.091-.086-.093-.085-.093-.084-.094-.083-.096-.082-.096-.08-.098-.08-.098-.078-.099-.077-.1-.076-.102-.075-.102-.073-.103-.073-.104-.071-.104-.07-.106-.068-.106-.068-.108-.066-.108-.065-.109-.063-.11-.063-.111-.061-.111-.059-.112-.059-.113-.057-.114-.056-.115-.054-.115-.053-.116-.052-.117-.05-.118-.049-.118-.047-.119-.046-.119-.045-.121-.043-.121-.042-.121-.04-.123-.039-.123-.038-.123-.036-.124-.034-.125-.033-.126-.032-.126-.03-.126-.028-.127-.027-.128-.025-.128-.024-.129-.022-.13-.021-.13-.019-.13-.017-.131-.016-.132-.014-.132-.013-.132-.011-.133-.009-.134-.008-.134-.006-.134-.004-.135-.003-.135-.001-.135.001z" fill="#fff"/></g></svg>