<svg width="24" height="24" xmlns="http://www.w3.org/2000/svg" fill-rule="evenodd" clip-rule="evenodd" stroke-linejoin="round" stroke-miterlimit="2"><path d="M12 2c5.52 0 10 4.48 10 10a9.97 9.97 0 01-.48 3.064c4.334 4.333-2.164 10.778-6.478 6.464A9.965 9.965 0 0112 22C6.48 22 2 17.52 2 12c0-1.043.16-2.05.457-2.997C-1.957 4.59 4.7-1.824 8.987 2.463A9.975 9.975 0 0112 2z" fill="#283c55"/><path d="M5.864 1.049l.11.003.11.007.11.01.11.012.11.016.056.008.054.01.056.01.055.01.055.013.055.013.055.013.056.015.054.014.055.016.055.018.056.017.054.018.055.02.055.02.055.02.055.021.054.023.054.023.055.024.055.026.054.025.054.027.054.028.054.028.054.03.053.03.054.03L8 1.68l.053.033.054.033.053.035.053.036.052.036.053.037.053.039.053.04.052.04.052.04.051.042.052.044.052.043.051.045.051.047.052.047.05.047.05.049.05.05.09-.028.09-.027.09-.026.09-.025.091-.025.092-.023.091-.024.091-.022.092-.02.093-.021.093-.02.093-.018.093-.018.094-.016.094-.016.094-.016.094-.014.095-.013.095-.013.096-.011.094-.01.097-.01.095-.009.097-.008.097-.007.097-.006.096-.005.098-.004.098-.004.097-.002.099-.001L12 2h.13l.128.003.128.004.128.006.128.007.127.01.127.01.126.011.126.014.125.015.124.017.125.019.124.019.124.022.122.022.122.024.122.026.121.028.121.028.12.03.12.032.119.033.118.034.117.036.118.037.116.04.116.04.115.04.114.043.114.044.113.046.113.046.112.049.11.05.111.05.11.052.109.053.108.055.107.055.107.058.105.058.106.06.104.061.103.062.103.063.103.065.1.065.1.067.1.068.098.07.098.07.097.07.095.073.095.074.094.075.093.075.092.078.092.078.09.08.09.08.087.08.088.083.086.083.086.084.084.086.083.086.083.088.08.087.08.09.08.09.078.092.078.092.075.093.075.094.074.095.072.095.071.097.07.098.07.098.068.1.067.1.065.1.065.103.063.103.062.103.06.104.06.106.06.105.057.107.055.107.055.108.053.11.052.109.05.11.05.111.049.112.046.113.046.113.044.114.043.114.04.115.04.116.04.116.037.118.036.117.034.118.033.12.032.119.03.12.028.12.028.122.026.122.024.122.022.122.022.124.02.124.018.125.017.124.015.125.014.126.011.126.01.127.01.127.007.128.006.128.004.128.002.128L22 12v.1l-.002.1-.002.1-.004.1-.004.098-.005.099-.006.099-.008.098-.008.098-.01.098-.01.098-.01.096-.013.098-.013.096-.013.097-.015.096-.015.096-.017.096-.017.094-.018.095-.02.095-.02.094-.021.094-.022.094-.023.093-.023.093-.024.092-.027.092-.026.092-.027.092-.027.09-.03.091.051.052.049.05.049.052.047.052.047.05.045.053.044.051.044.053.042.052.042.053.04.052.04.053.04.052.037.053.037.053.036.053.034.054.034.053.034.054.032.054.032.053.03.054.03.054.028.055.028.054.027.054.026.054.025.054.026.055.023.054.023.055.021.054.021.055.02.054.02.055.019.055.017.055.017.054.016.055.015.055.015.055.014.055.012.055.012.055.011.055.01.054.01.055.01.055.008.055.007.055.013.108.01.11.005.109.005.108v.108l-.002.109-.005.107-.007.108-.01.106-.015.107-.015.105-.019.106-.02.104-.024.105-.026.102-.029.103-.031.102-.033.101-.036.1-.038.1-.04.099-.043.098-.045.096-.047.096-.05.095-.05.094-.054.092-.055.091-.058.09-.059.09-.06.087-.064.087-.065.085-.067.084-.068.082-.07.081-.073.08-.073.078-.076.076-.076.075-.078.073-.08.071-.082.07-.083.069-.084.066-.085.064-.087.063-.088.061-.09.059-.09.057-.092.055-.093.053-.094.051-.095.049-.096.046-.097.044-.098.043-.1.04-.1.038-.1.035-.101.033-.103.031-.102.028-.104.026-.104.024-.105.02-.106.018-.106.016-.107.013-.107.01-.107.007-.107.005-.11.002-.108-.001-.108-.003-.11-.007-.109-.01-.108-.012-.11-.016-.055-.01-.055-.009-.055-.01-.055-.012-.055-.012-.055-.013-.054-.013-.055-.015-.055-.014-.055-.017-.054-.017-.055-.018-.055-.018-.055-.02-.055-.02-.053-.02-.055-.022-.055-.022-.054-.024-.055-.024-.054-.025-.054-.027-.054-.026-.054-.028-.054-.029-.054-.03-.054-.03-.054-.031-.053-.032-.054-.034-.053-.034-.053-.035-.053-.036-.053-.036-.053-.039-.052-.038-.053-.039-.052-.04-.053-.043-.052-.041-.052-.044-.051-.044-.052-.045-.052-.046-.051-.047-.05-.05-.052-.048-.05-.05-.09.029-.091.027-.09.026-.092.027-.091.025-.092.023-.093.024-.093.022-.092.022-.094.02-.093.02-.094.02-.094.017-.094.017-.095.016-.095.016-.096.015-.095.013-.097.013-.095.011-.097.012-.097.01-.097.008-.097.009-.098.007-.098.006-.098.005-.098.004-.099.004-.099.002L12.1 22 12 22h-.13l-.128-.003-.128-.004-.128-.006-.128-.007-.127-.01-.127-.01-.126-.011-.126-.014-.125-.015-.124-.017-.125-.019-.124-.019-.124-.022-.122-.022-.122-.024-.122-.026-.121-.028-.121-.028-.12-.03-.12-.032-.119-.033-.118-.034-.117-.036-.118-.037-.116-.04-.116-.04-.115-.04-.114-.043-.114-.044-.113-.046-.113-.046-.112-.049-.11-.05-.111-.05-.11-.052-.109-.053-.108-.055-.107-.055-.107-.058-.105-.058-.106-.06-.104-.061-.103-.062-.103-.063-.103-.065-.1-.065-.1-.067-.1-.068-.098-.07-.098-.07-.097-.07-.095-.073-.095-.074-.094-.075-.093-.075-.092-.078-.092-.078-.09-.08-.09-.08-.087-.08-.088-.083-.086-.083-.086-.084-.084-.086-.083-.086-.083-.088-.08-.087-.08-.09-.08-.09-.078-.092-.078-.092-.075-.093-.075-.094-.074-.095-.072-.095-.071-.097-.07-.098-.07-.098-.068-.1-.067-.1-.065-.1-.065-.103-.063-.103-.062-.103-.06-.104-.06-.106-.06-.105-.057-.107-.055-.107-.055-.108-.053-.11-.052-.109-.05-.11-.05-.111-.049-.112-.046-.113-.046-.113-.044-.114-.043-.114-.04-.115-.04-.116-.04-.116-.037-.118-.036-.117-.034-.118-.033-.12-.032-.119-.03-.12-.028-.12-.028-.122-.026-.122-.024-.122-.022-.122-.022-.124-.02-.124-.018-.125-.017-.124-.015-.125-.014-.126-.011-.126-.01-.127-.01-.127-.007-.128-.006-.128-.004-.128-.002-.128L2 12v-.097l.002-.099.002-.096.004-.098.003-.096.006-.097.006-.096.007-.097.007-.095.01-.096.009-.096.01-.094.011-.095.013-.095.013-.094.014-.094.015-.094.016-.093.016-.093.018-.093L2.2 10l.019-.092.02-.092.02-.092.023-.091.022-.091.023-.09.024-.091.025-.09.026-.09.027-.089.027-.089-.05-.05-.051-.053-.049-.052-.049-.052-.047-.053-.046-.053-.045-.053-.044-.053-.044-.053-.042-.053-.041-.054-.041-.053-.04-.054-.038-.054-.037-.053-.036-.054-.036-.054-.035-.055-.034-.054-.033-.055-.032-.055-.031-.053-.03-.055-.03-.055-.027-.055-.028-.055-.027-.055-.025-.055-.026-.055-.023-.055-.023-.055-.022-.056-.022-.055-.02-.055-.02-.056-.018-.055-.018-.055-.018-.056-.016-.056-.015-.054-.015-.056-.014-.056-.013-.055-.012-.055-.011-.056-.01-.055-.01-.055-.01-.056-.008-.055-.008-.055-.006-.055-.006-.056-.005-.055-.004-.054-.007-.11-.004-.11v-.11l.002-.108.005-.108.008-.11.011-.106.013-.107.017-.107.019-.106.022-.105.023-.105.027-.104.03-.104.031-.102.034-.102.036-.1.04-.1.04-.1.044-.098.046-.098.048-.095.05-.096.052-.094.054-.093.057-.092.058-.09.061-.09.063-.088.064-.087.066-.085.068-.084.07-.083.07-.08.074-.08.075-.079.076-.077.078-.075.08-.073.081-.072.083-.07.083-.069.086-.067.087-.064.088-.063.09-.061.09-.06.092-.056.093-.056.094-.053.095-.051.097-.049.097-.047.098-.044.1-.043.1-.04.101-.038.102-.036.103-.033.103-.03.104-.029.105-.026.105-.023L5 1.12l.107-.018.107-.016.107-.014.109-.01.107-.007.11-.006.109-.001h.108zm-.185 1l-.083.005-.084.006-.082.008-.083.01-.083.012-.082.014-.082.016-.083.018-.081.021-.081.022-.081.024-.081.026-.08.028-.08.03-.08.032-.078.034-.078.035-.078.038-.076.039-.077.04-.075.043-.074.044-.074.046-.073.048-.073.049-.07.05-.07.053-.07.054-.067.055-.067.056-.065.058-.065.06-.063.06-.062.062-.06.064-.059.064-.058.065-.056.067-.055.068-.053.069-.052.07-.05.07-.048.072-.046.072L2.516 4l-.044.074-.042.075-.039.075-.038.076-.036.078-.034.077-.033.077-.03.079-.029.079-.026.079-.024.079-.023.08-.02.08-.02.08-.016.082-.014.081-.012.081-.01.082-.01.082-.006.082-.003.082-.002.083v.082l.003.083.005.086.004.038.003.042.004.042.006.04.006.042.006.042.006.042.008.042.007.041.01.043.009.042.01.041.01.042.011.043.011.042.013.042.013.042.013.042.015.042.015.043.016.042.016.043.018.043.017.042.018.043.02.042.02.043.02.043.022.043.022.043.023.042.024.044.024.042.025.044.026.043.027.043.028.044.029.043.03.043.029.044.031.043.032.044.033.043.034.044.034.043.036.044.036.043.038.044.038.043.04.044.04.044.04.044.043.043.047.048.06.066.054.072.047.077.04.08.033.084.026.086.017.088.01.09.001.089-.007.09-.014.09-.023.086-.026.084-.024.08-.023.081-.023.081-.021.081-.022.082-.02.082-.02.081-.018.083-.019.083-.017.082-.017.084-.015.083-.015.084-.014.083-.014.084-.012.086-.012.084-.01.085-.011.085-.01.086-.008.086-.008.086-.007.086-.006.087-.006.087-.005.087-.003.087-.004.088-.001.087-.002.088v.205l.003.115.004.117.005.114.006.115.008.115.01.114.011.114.012.113.013.113.016.112.015.111.019.113.019.11.02.11.022.11.023.11.024.11.027.108.026.108.03.107.029.107.03.107.032.105.034.105.035.105.036.105.037.103.038.103.04.102.041.102.042.1.043.102.045.1.046.099.047.098.048.098.048.098.05.096.052.097.053.095.053.094.055.094.056.093.057.093.058.092.06.09.06.09.06.09.063.089.063.088.065.087.065.086.066.085.068.085.068.084.07.083.07.082.071.082.072.08.073.08.074.078.076.078.075.077.077.075.078.076.078.074.08.073.08.072.082.071.082.07.083.07.084.068.085.068.085.066.086.065.087.065.088.063.089.063.09.06.09.06.09.06.092.058.093.057.093.056.094.055.094.053.095.053.097.051.096.05.098.05.098.047.098.047.1.046.1.045.1.043.101.042.102.04.102.04.103.039.103.037.105.036.105.035.105.034.105.032.107.03.107.03.107.029.108.026.109.027.109.024.11.023.11.022.11.02.11.02.113.018.11.015.113.016.113.013.113.012.114.011.114.01.115.008.115.006.114.005.117.004.115.002.118.001h.089l.09-.002.088-.002.089-.003.088-.003.089-.006.088-.005.088-.007.087-.007.088-.008.087-.01.087-.009.086-.01.087-.011.086-.013.085-.013.087-.014.085-.014.085-.016.084-.016.085-.017.084-.018.084-.019.083-.019.083-.02.083-.02.083-.022.082-.023.082-.023.082-.024.082-.025.085-.027.088-.023.088-.015.09-.007h.09l.09.01.09.018.085.025.085.033.08.04.077.048.072.054.067.06.047.046.042.04.043.04.042.04.043.038.042.037.042.036.043.036.042.034.042.033.043.033.042.033.043.03.043.03.041.03.043.029.043.028.041.027.043.026.043.025.041.025.043.024.042.023.042.022.042.021.043.021.041.021.042.02.043.018.041.019.042.017.042.017.042.015.042.016.042.015.042.014.041.014.042.013.042.012.042.011.04.011.042.01.042.01.042.01.04.008.042.008.042.007.038.007.086.012.083.01.083.006.081.005.083.003h.164l.082-.004.082-.006.082-.007.081-.01.082-.012.08-.014.082-.017.08-.017.08-.02.08-.023.08-.023.079-.026.079-.028.078-.03.078-.03.077-.034.077-.035.076-.037.076-.04.075-.04.073-.042.074-.043.072-.046.071-.047.071-.049.07-.05.069-.052.067-.054.066-.054.066-.056.064-.058.064-.059.061-.06.061-.062.06-.063.058-.063.056-.065.055-.067.054-.067.052-.068.05-.07.049-.07.048-.072.045-.07.044-.074.043-.074.04-.074.04-.074.037-.077.035-.076.033-.077.032-.077.03-.078.028-.078.026-.08.024-.078.022-.08.02-.08.018-.08.017-.08.014-.081.012-.081.01-.081.008-.08.005-.083.005-.081v-.164l-.002-.082-.005-.082-.007-.082-.01-.086-.006-.038-.006-.041-.006-.042-.008-.04-.008-.042-.008-.041-.01-.042-.009-.042-.01-.04-.011-.042-.012-.042-.012-.042-.013-.042-.013-.041-.014-.042-.015-.042-.015-.042-.017-.041-.016-.042-.018-.043-.018-.041-.02-.042-.018-.043-.02-.041-.022-.043-.022-.042-.021-.042-.024-.042-.024-.043-.025-.042-.026-.042-.026-.043-.027-.042-.028-.043-.028-.043-.03-.042-.03-.043-.032-.042-.032-.042-.033-.043-.034-.042-.034-.044-.035-.042-.037-.043-.037-.043-.038-.042-.04-.043-.04-.042-.041-.043-.046-.046-.061-.067-.054-.073-.048-.077-.04-.08-.033-.085-.025-.087-.018-.089-.008-.09-.001-.09.007-.09.015-.09.024-.087.027-.086.025-.082.024-.083.024-.082.022-.083.023-.084.02-.083.02-.083.02-.085.02-.084.018-.085.017-.085.016-.086.016-.085.016-.086.014-.086.013-.086.012-.087.012-.087.01-.088.01-.087.01-.088.007-.089.008-.087.006-.09.006-.088.005-.09.004-.088.003-.09.002-.09.001-.09L21 12v-.117l-.003-.115-.004-.117-.005-.114-.006-.115-.008-.115-.01-.114-.011-.114-.012-.113-.013-.113-.016-.112-.015-.111-.019-.113-.019-.11-.02-.11-.022-.11-.023-.11-.024-.11-.027-.108-.026-.108-.03-.107-.029-.107-.03-.107-.032-.105-.034-.105-.035-.105-.036-.105-.037-.103-.038-.103-.04-.102-.041-.102-.042-.1-.043-.102-.045-.1-.046-.099-.047-.098-.048-.098-.048-.098-.05-.096-.052-.097-.053-.095-.053-.094-.055-.094-.056-.093-.057-.093-.058-.092-.06-.09-.06-.09-.06-.09-.063-.089-.063-.088-.065-.087-.065-.086-.066-.085-.068-.085-.068-.084-.07-.083-.07-.082-.071-.082-.072-.08-.073-.08-.074-.078-.076-.078-.075-.077-.077-.075-.078-.076-.078-.074-.08-.073-.08-.072-.082-.071-.082-.07-.083-.07-.084-.068-.085-.068-.085-.066-.086-.065-.087-.065-.088-.063-.089-.063-.09-.06-.09-.06-.09-.06-.092-.058-.093-.057-.093-.056-.094-.055-.094-.053-.095-.053-.097-.051-.096-.05-.098-.05-.098-.047-.098-.047-.1-.046-.1-.045-.1-.043-.101-.042-.102-.04-.102-.04-.103-.039-.103-.037-.105-.036-.105-.035-.105-.034-.105-.032-.107-.03-.107-.03-.107-.029-.108-.026-.109-.027-.109-.024-.11-.023-.11-.022-.11-.02-.11-.02-.113-.018-.11-.015-.113-.016-.113-.013-.113-.012-.114-.011-.114-.01-.115-.008-.115-.006-.114-.005-.117-.004L12.117 3 11.999 3h-.088l-.088.002-.088.001-.088.004-.088.003-.088.006-.087.005-.087.006-.087.007-.087.008-.086.01-.086.009-.085.01-.086.01-.085.013-.085.013-.085.013-.084.015-.084.015-.085.016-.083.017-.084.017-.082.018-.083.02-.083.019-.082.02-.082.021-.082.023-.08.022-.081.024-.081.024-.085.026-.087.023-.09.016-.089.006-.09-.001-.09-.01-.088-.017-.086-.025-.084-.033-.08-.04-.077-.047-.072-.055-.067-.06-.046-.045-.041-.041-.043-.04-.042-.038-.042-.038-.041-.036-.043-.036-.042-.036-.042-.034-.042-.033-.043-.033-.041-.031-.043-.03-.042-.03-.042-.03-.042-.028-.043-.027-.041-.027-.043-.026-.042-.025-.042-.025-.042-.023-.042-.024-.042-.021-.042-.022-.043-.021-.042-.02-.041-.02-.043-.017-.042-.019-.042-.017-.042-.017-.042-.015-.041-.016-.043-.015-.042-.014-.042-.013-.041-.013-.043-.012-.042-.011-.041-.012-.042-.01-.042-.009-.042-.01-.041-.008-.043-.008-.042-.007-.038-.006-.087-.012-.083-.01-.084-.006-.083-.006-.084-.002H5.68z" fill="#fff"/><g><path d="M19.182 12.25A3.24 3.24 0 0015.932 9a3.24 3.24 0 00-3.25 3.25c0 .798.266 1.507.738 2.068h-2.659c.473-.561.739-1.27.739-2.068A3.24 3.24 0 008.25 9 3.24 3.24 0 005 12.25a3.24 3.24 0 003.25 3.25h7.977v-.03a3.243 3.243 0 002.955-3.22zm-13 0c0-1.152.916-2.068 2.068-2.068 1.152 0 2.068.916 2.068 2.068a2.055 2.055 0 01-2.068 2.068 2.055 2.055 0 01-2.068-2.068zm9.75 2.068a2.055 2.055 0 01-2.068-2.068c0-1.152.916-2.068 2.068-2.068 1.152 0 2.068.916 2.068 2.068a2.055 2.055 0 01-2.068 2.068z" fill="#fff" fill-rule="nonzero"/></g></svg>