<svg width="24" height="24" xmlns="http://www.w3.org/2000/svg" fill-rule="evenodd" clip-rule="evenodd" stroke-linejoin="round" stroke-miterlimit="2"><path d="M21 7.5L14.5 1H4v23h17V7.5zm0 0L14.5 1 21 7.5z" fill="#dcdce5"/><path d="M20 7.5L13.5 1H3v22h17V7.5zm0 0L13.5 1 20 7.5z" fill="#ebebeb"/><clipPath id="a"><path d="M20 7.5L13.5 1H3v22h17V7.5zm0 0L13.5 1 20 7.5z"/></clipPath><g clip-path="url(#a)"><path d="M21 7.75h-7.75V0L21 7.75zm-7.084-.666h5.474L13.916 1.61v5.474z" fill="#b0b5b5"/><path d="M13 11h3.5l-5-4.5-5 4.506L10 11v12h3V11z" fill="url(#_Linear2)"/></g><path d="M20 7.5V23H3V1h10.5L20 7.5zM3.667 1.667v20.666h15.666V7.776l-.35-.351-5.759-5.758H3.667z" fill="#b0b5b5"/><defs><linearGradient id="_Linear2" x1="0" y1="0" x2="1" y2="0" gradientUnits="userSpaceOnUse" gradientTransform="matrix(0 -15 23.25 0 11 22)"><stop offset="0" stop-color="#98d4ea"/><stop offset="1" stop-color="#0c94c7"/></linearGradient></defs></svg>