<svg width="16" height="16" xmlns="http://www.w3.org/2000/svg" fill-rule="evenodd" clip-rule="evenodd" stroke-linejoin="round" stroke-miterlimit="2"><g fill-rule="nonzero"><path d="M1.735 2.178a.237.237 0 00-.23.237v.019c0 3.277.536 7.856 3.178 11.066 1.598 1.943 3.173 2.455 3.24 2.476l.074.024.072-.024c.067-.021 1.651-.533 3.25-2.476 2.64-3.208 3.175-7.789 3.175-11.065v-.018a.237.237 0 00-.23-.238c-.038 0-3.855-.139-6.097-2.025L8.166.153a.247.247 0 00-.322.001C5.6 2.04 1.774 2.177 1.735 2.178z" fill="#ffb74d"/><path d="M8.005.536c2.086 1.68 5.347 1.983 6.092 2.032-.015 3.211-.57 7.623-3.087 10.68-1.38 1.677-2.752 2.238-3.015 2.333-.263-.097-1.625-.656-3.006-2.332-2.516-3.058-3.071-7.47-3.086-10.681.747-.05 4.012-.351 6.102-2.032m0-.443a.25.25 0 00-.161.06C5.6 2.039 1.774 2.177 1.736 2.178a.237.237 0 00-.23.237v.019c0 3.277.535 7.856 3.177 11.066 1.598 1.943 3.173 2.455 3.24 2.476l.074.024.072-.024c.067-.021 1.651-.533 3.25-2.476 2.64-3.208 3.175-7.789 3.175-11.065v-.018a.237.237 0 00-.23-.238c-.038 0-3.855-.139-6.097-2.025L8.166.153a.246.246 0 00-.16-.06z" fill="#424242" fill-opacity=".2"/><path d="M3.1 3.416c-.1 0-.136.127-.136.228v.015c0 2.561.397 6.144 2.462 8.653 1.25 1.518 2.47 1.919 2.524 1.936l.053.018.053-.018c.053-.016 1.268-.416 2.52-1.936 2.064-2.51 2.46-6.092 2.46-8.653v-.015c0-.1-.058-.182-.157-.186h.01c-.03 0-3.01-.108-4.763-1.583l.001-.002a.191.191 0 00-.25.002v-.022C6.123 3.327 3.132 3.416 3.1 3.416z" fill="#ffe0a9"/><path d="M12.879 3.458c-.031 0-3.005-.108-4.758-1.583l.004-.002A.177.177 0 008 1.828v12.437l.053-.017c.053-.016 1.27-.416 2.52-1.936 2.066-2.51 2.463-6.092 2.463-8.653v-.015c0-.1-.058-.183-.157-.186z" fill="#e58a1f"/></g></svg>