<svg width="11" height="11" xmlns="http://www.w3.org/2000/svg" fill-rule="evenodd" clip-rule="evenodd" stroke-linejoin="round" stroke-miterlimit="2"><path d="M4.5 2L5 9H4l.5-7z" fill="url(#_Radial1)" transform="rotate(-135 6.358 7.877) scale(1.91752 .54786)"/><path d="M3.346 9.033l-3.39 2.033 2.035-3.39 1.355 1.357z"/><g transform="translate(-3.88 -.835) scale(1.42857)"><circle cx="6.5" cy="4.5" r="3.5" fill="url(#_Radial2)"/><path d="M6.545 1l.045.001.045.002.045.002.045.002.044.003.044.004.045.004.044.005.044.005.043.006.044.006.043.007.043.008.043.008.043.008.043.009.042.01.042.01.042.01.042.011.042.012.041.012.041.012.041.014.041.013.041.014.04.015.04.014.04.016.079.032.078.034.077.036.076.038.075.04.074.041.072.043.072.045.07.046.07.048.068.05.066.051.066.053.064.054.063.056.061.057.06.059.059.06.057.061.056.063.054.064.053.066.051.066.05.068.048.07.046.07.045.072.043.072.041.074.04.075.038.076.036.077.034.078.032.079.016.04.014.04.015.04.014.041.013.041.014.041.012.041.012.041.012.042.011.042.01.042.01.042.01.042.009.043.008.043.008.043.008.043.007.043.006.044.006.043.005.044.005.044.004.045.004.044.003.044.002.045.002.045.002.045.001.045v.09l-.001.045-.002.045-.002.045-.002.045-.003.044-.004.044-.004.045-.005.044-.005.044-.006.043-.006.044-.007.043-.008.043-.008.043-.008.043-.009.043-.01.042-.01.042-.01.042-.011.042-.012.042-.012.041-.012.041-.014.041-.013.041-.014.041-.015.04-.014.04-.016.04-.032.079-.034.078-.036.077-.038.076-.04.075-.041.074-.043.072-.045.072-.046.07-.048.07-.05.068-.051.066-.053.066-.054.064-.056.063-.057.061-.059.06-.06.059-.061.057-.063.056-.064.054-.066.053-.066.051-.068.05-.07.048-.07.046-.072.045-.072.043-.074.041-.075.04-.076.038-.077.036-.078.034-.079.032-.04.016-.04.014-.04.015-.041.014-.041.013-.041.014-.041.012-.041.012-.042.012-.042.011-.042.01-.042.01-.042.01-.043.009-.043.008-.043.008-.043.008-.043.007-.044.006-.043.006-.044.005-.044.005-.045.004-.044.004-.044.003-.045.002-.045.002-.045.002L6.545 8h-.09l-.045-.001-.045-.002-.045-.002-.045-.002-.044-.003-.044-.004-.045-.004-.044-.005-.044-.005-.043-.006-.044-.006-.043-.007-.043-.008-.043-.008-.043-.008-.043-.009-.042-.01-.042-.01-.042-.01-.042-.011-.042-.012-.041-.012-.041-.012-.041-.014-.041-.013-.041-.014-.04-.015-.04-.014-.04-.016-.079-.032-.078-.034-.077-.036-.076-.038-.075-.04-.074-.041-.072-.043-.072-.045-.07-.046-.07-.048-.068-.05-.066-.051-.066-.053-.064-.054-.063-.056-.061-.057-.06-.059-.059-.06-.057-.061-.056-.063-.054-.064-.053-.066-.051-.066-.05-.068-.048-.07-.046-.07-.045-.072-.043-.072-.041-.074-.04-.075-.038-.076-.036-.077-.034-.078-.032-.079-.016-.04-.014-.04-.015-.04-.014-.041-.013-.041-.014-.041-.012-.041-.012-.041-.012-.042-.011-.042-.01-.042-.01-.042-.01-.042-.009-.043-.008-.043-.008-.043-.008-.043-.007-.043-.006-.044-.006-.043-.005-.044-.005-.044-.004-.045-.004-.044-.003-.044-.002-.045-.002-.045-.002-.045L3 4.545v-.09l.001-.045.002-.045.002-.045.002-.045.003-.044.004-.044.004-.045.005-.044.005-.044.006-.043.006-.044.007-.043.008-.043.008-.043.008-.043.009-.043.01-.042.01-.042.01-.042.011-.042.012-.042.012-.041.012-.041.014-.041.013-.041.014-.041.015-.04.014-.04.016-.04.032-.079.034-.078.036-.077.038-.076.04-.075.041-.074.043-.072.045-.072.046-.07.048-.07.05-.068.051-.066.053-.066.054-.064.056-.063.057-.061.059-.06.06-.059.061-.057.063-.056.064-.054.066-.053.066-.051.068-.05.07-.048.07-.046.072-.045.072-.043.074-.041.075-.04.076-.038.077-.036.078-.034.079-.032.04-.016.04-.014.04-.015.041-.014.041-.013.041-.014.041-.012.041-.012.042-.012.042-.011.042-.01.042-.01.042-.01.043-.009.043-.008.043-.008.043-.008.043-.007.044-.006.043-.006.044-.005.044-.005.045-.004.044-.004.044-.003.045-.002.045-.002.045-.002L6.455 1h.09zm-.081.7l-.037.001-.036.001-.036.002-.035.002-.036.002-.035.003-.036.004-.035.003-.035.005-.035.004-.035.005-.035.006-.034.006-.034.006-.035.007-.034.007-.033.008-.034.008-.034.008-.033.009-.033.009-.033.01-.033.01-.033.01-.032.011-.033.011-.032.012-.032.012-.03.011-.065.027-.062.027-.062.029-.061.03-.059.032-.059.033-.059.034-.057.036-.056.037-.056.039-.054.039-.054.041-.052.043-.052.043-.05.045-.049.046-.048.047-.047.048-.046.049-.045.05-.043.052-.043.052-.041.054-.039.054-.039.056-.037.056-.036.057-.034.059-.033.059-.032.059-.03.061-.029.062-.027.062-.027.065-.011.03-.012.032-.012.032-.011.033-.011.032-.01.033-.01.033-.01.033-.009.033-.009.033-.008.034-.008.034-.008.033-.007.034-.007.035-.006.034-.006.034-.006.035-.005.035-.004.035-.005.035-.003.035-.004.036-.003.035-.002.036-.002.035-.002.036-.001.036-.001.037v.072l.001.037.001.036.002.036.002.035.002.036.003.035.004.036.003.035.005.035.004.035.005.035.006.035.006.034.006.034.007.035.007.034.008.033.008.034.008.034.009.033.009.033.01.033.01.033.01.033.011.032.011.033.012.032.012.032.011.03.027.065.027.062.029.062.03.061.032.059.033.059.034.059.036.057.037.056.039.056.039.054.041.054.043.052.043.052.045.05.046.049.047.048.048.047.049.046.05.045.052.043.052.043.054.041.054.039.056.039.056.037.057.036.059.034.059.033.059.032.061.03.062.029.062.027.065.027.03.011.032.012.032.012.032.011.033.011.033.01.033.01.033.01.033.009.033.009.034.008.034.008.033.008.034.007.035.007.034.006.034.006.035.006.035.005.035.004.035.005.035.003.036.004.035.003.036.002.035.002.036.002.036.001.037.001h.072l.037-.001.036-.001.036-.002.035-.002.036-.002.035-.003.036-.004.035-.003.035-.005.035-.004.035-.005.035-.006.034-.006.034-.006.035-.007.034-.007.033-.008.034-.008.034-.008.033-.009.033-.009.033-.01.033-.01.033-.01.033-.011.032-.011.032-.012.032-.012.03-.011.065-.027.062-.027.062-.029.061-.03.059-.032.059-.033.059-.034.057-.036.056-.037.056-.039.054-.039.054-.041.052-.043.052-.043.05-.045.049-.046.048-.047.047-.048.046-.049.045-.05.043-.052.043-.052.041-.054.039-.054.039-.056.037-.056.036-.057.034-.059.033-.059.032-.059.03-.061.029-.062.027-.062.027-.065.011-.03.012-.032.012-.032.011-.033.011-.032.01-.033.01-.033.01-.033.009-.033.009-.033.008-.034.008-.034.008-.033.007-.034.007-.035.006-.034.006-.034.006-.035.005-.035.004-.035.005-.035.003-.035.004-.036.003-.035.002-.036.002-.035.002-.036.001-.036.001-.037v-.072l-.001-.037-.001-.036-.002-.036-.002-.035-.002-.036-.003-.035-.004-.036-.003-.035-.005-.035-.004-.035-.005-.035-.006-.035-.006-.034-.006-.034-.007-.035-.007-.034-.008-.033-.008-.034-.008-.034-.009-.033-.009-.033-.01-.033-.01-.033-.01-.033-.011-.032-.011-.033-.012-.032-.012-.032-.011-.03-.027-.065-.027-.062-.029-.062-.03-.061-.032-.059-.033-.059-.034-.059-.036-.057-.037-.056-.039-.056-.039-.054-.041-.054-.043-.052-.043-.052-.045-.05-.046-.049-.047-.048-.048-.047-.049-.046-.05-.045-.052-.043-.052-.043-.054-.041-.054-.039-.056-.039-.056-.037-.057-.036-.059-.034-.059-.033-.059-.032-.061-.03-.062-.029-.062-.027-.065-.027-.03-.011-.032-.012-.032-.012-.033-.011-.032-.011-.033-.01-.033-.01-.033-.01-.033-.009-.033-.009-.034-.008-.034-.008-.033-.008-.034-.007-.035-.007-.034-.006-.034-.006-.035-.006-.035-.005-.035-.004-.035-.005-.035-.003-.036-.004-.035-.003-.036-.002-.035-.002-.036-.002-.036-.001-.037-.001h-.072z"/></g><g transform="translate(-.429 -1.143) scale(1.14286)"><circle cx="6.5" cy="4.5" r="3.5" fill="url(#_Radial3)"/><path d="M6.59 1.001l.09.004.089.005.089.008.088.01.087.012.086.015.086.016.085.019.084.02.084.023.082.024.082.027.081.029.08.03.079.032.078.034.077.036.076.038.075.04.074.041.072.043.072.045.07.046.07.048.068.05.066.051.066.053.064.054.063.056.061.057.06.059.059.06.057.061.056.063.054.064.053.066.051.066.05.068.048.07.046.07.045.072.043.072.041.074.04.075.038.076.036.077.034.078.032.079.03.08.029.081.027.082.024.082.023.084.02.084.019.085.016.086.015.086.012.087.01.088.008.089.005.089.004.09.001.09-.001.09-.004.09-.005.089-.008.089-.01.088-.012.087-.015.086-.016.086-.019.085-.02.084-.023.084-.024.082-.027.082-.029.081-.03.08-.032.079-.034.078-.036.077-.038.076-.04.075-.041.074-.043.072-.045.072-.046.07-.048.07-.05.068-.051.066-.053.066-.054.064-.056.063-.057.061-.059.06-.06.059-.061.057-.063.056-.064.054-.066.053-.066.051-.068.05-.07.048-.07.046-.072.045-.072.043-.074.041-.075.04-.076.038-.077.036-.078.034-.079.032-.08.03-.081.029-.082.027-.082.024-.084.023-.084.02-.085.019-.086.016-.086.015-.087.012-.088.01-.089.008-.089.005-.09.004L6.5 8l-.09-.001-.09-.004-.089-.005-.089-.008-.088-.01-.087-.012-.086-.015-.086-.016-.085-.019-.084-.02-.084-.023-.082-.024-.082-.027-.081-.029-.08-.03-.079-.032-.078-.034-.077-.036-.076-.038-.075-.04-.074-.041-.072-.043-.072-.045-.07-.046-.07-.048-.068-.05-.066-.051-.066-.053-.064-.054-.063-.056-.061-.057-.06-.059-.059-.06-.057-.061-.056-.063-.054-.064-.053-.066-.051-.066-.05-.068-.048-.07-.046-.07-.045-.072-.043-.072-.041-.074-.04-.075-.038-.076-.036-.077-.034-.078-.032-.079-.03-.08-.029-.081-.027-.082-.024-.082-.023-.084-.02-.084-.019-.085-.016-.086-.015-.086-.012-.087-.01-.088-.008-.089-.005-.089-.004-.09L3 4.5l.001-.09.004-.09.005-.089.008-.089.01-.088.012-.087.015-.086.016-.086.019-.085.02-.084.023-.084.024-.082.027-.082.029-.081.03-.08.032-.079.034-.078.036-.077.038-.076.04-.075.041-.074.043-.072.045-.072.046-.07.048-.07.05-.068.051-.066.053-.066.054-.064.056-.063.057-.061.059-.06.06-.059.061-.057.063-.056.064-.054.066-.053.066-.051.068-.05.07-.048.07-.046.072-.045.072-.043.074-.041.075-.04.076-.038.077-.036.078-.034.079-.032.08-.03.081-.029.082-.027.082-.024.084-.023.084-.02.085-.019.086-.016.086-.015.087-.012.088-.01.089-.008.089-.005.09-.004L6.5 1l.09.001zm-.158.875l-.068.003-.067.004-.066.006-.066.007-.065.009-.065.011-.064.012-.064.014-.063.016-.062.017-.062.018-.061.02-.061.021-.06.023-.059.024-.058.026-.058.027-.057.028-.056.03-.055.03-.055.033-.053.033-.053.035-.052.036-.051.037-.051.039-.049.04-.048.04-.047.042-.046.043-.046.044-.044.046-.043.046-.042.047-.04.048-.04.049-.039.051-.037.051-.036.052-.035.053-.033.053-.033.055-.03.055-.03.056-.028.057-.027.058-.026.058-.024.059-.023.06-.021.061-.02.061-.018.062-.017.062-.016.063-.014.064-.012.064-.011.065-.009.065-.007.066-.006.066-.004.067-.003.068-.001.068.001.068.003.068.004.067.006.066.007.066.009.065.011.065.012.064.014.064.016.063.017.062.018.062.02.061.021.061.023.06.024.059.026.058.027.058.028.057.03.056.03.055.033.055.033.053.035.053.036.052.037.051.039.051.04.049.04.048.042.047.043.046.044.046.046.044.046.043.047.042.048.04.049.04.051.039.051.037.052.036.053.035.053.033.055.033.055.03.056.03.057.028.058.027.058.026.059.024.06.023.061.021.061.02.062.018.062.017.063.016.064.014.064.012.065.011.065.009.066.007.066.006.067.004.068.003.068.001.068-.001.068-.003.067-.004.066-.006.066-.007.065-.009.065-.011.064-.012.064-.014.063-.016.062-.017.062-.018.061-.02.061-.021.06-.023.059-.024.058-.026.058-.027.057-.028.056-.03.055-.03.055-.033.053-.033.053-.035.052-.036.051-.037.051-.039.049-.04.048-.04.047-.042.046-.043.046-.044.044-.046.043-.046.042-.047.04-.048.04-.049.039-.051.037-.051.036-.052.035-.053.033-.053.033-.055.03-.055.03-.056.028-.057.027-.058.026-.058.024-.059.023-.06.021-.061.02-.061.018-.062.017-.062.016-.063.014-.064.012-.064.011-.065.009-.065.007-.066.006-.066.004-.067.003-.068.001-.068-.001-.068-.003-.068-.004-.067-.006-.066-.007-.066-.009-.065-.011-.065-.012-.064-.014-.064-.016-.063-.017-.062-.018-.062-.02-.061-.021-.061-.023-.06-.024-.059-.026-.058-.027-.058-.028-.057-.03-.056-.03-.055-.033-.055-.033-.053-.035-.053-.036-.052-.037-.051-.039-.051-.04-.049-.04-.048-.042-.047L8.4 2.69l-.044-.046L8.31 2.6l-.046-.043-.047-.042-.048-.04-.049-.04-.051-.039-.051-.037-.052-.036-.053-.035-.053-.033-.055-.033-.055-.03-.056-.03-.057-.028-.058-.027-.058-.026-.059-.024-.06-.023-.061-.021-.061-.02-.062-.018-.062-.017-.063-.016-.064-.014-.064-.012-.065-.011-.065-.009-.066-.007-.066-.006-.067-.004-.068-.003-.068-.001-.068.001z"/></g><defs><radialGradient id="_Radial1" cx="0" cy="0" r="1" gradientUnits="userSpaceOnUse" gradientTransform="matrix(.18491 4.05371 -.5791 1.29441 4.3 4.8)"><stop offset="0" stop-color="#fff"/><stop offset=".55" stop-color="#a6c4f7"/><stop offset="1" stop-color="#6684b7"/></radialGradient><radialGradient id="_Radial2" cx="0" cy="0" r="1" gradientUnits="userSpaceOnUse" gradientTransform="matrix(2.20453 2.76762 -2.92611 2.33078 6.3 4.27)"><stop offset="0" stop-color="#fff"/><stop offset=".5" stop-color="#a6c4f7"/><stop offset="1" stop-color="#6684b7"/></radialGradient><radialGradient id="_Radial3" cx="0" cy="0" r="1" gradientUnits="userSpaceOnUse" gradientTransform="scale(4.25536) rotate(72.291 .137 1.45)"><stop offset="0" stop-color="#fff"/><stop offset=".55" stop-color="#a6c4f7"/><stop offset="1" stop-color="#6684b7"/></radialGradient></defs></svg>