<svg width="17" height="16" xmlns="http://www.w3.org/2000/svg" fill-rule="evenodd" clip-rule="evenodd" stroke-linejoin="round" stroke-miterlimit="2"><path d="M8.5 14.5C5.46 14.5 3 12.04 3 9c0-3.031 2.45-5.5 5.5-5.5C11.544 3.5 14 5.963 14 9c0 3.04-2.46 5.5-5.5 5.5z" fill="#fff799" fill-rule="nonzero"/><path d="M12.5 1.5c1.103 0 2 .897 2 2 0 .472-.166.906-.438 1.247a7.02 7.02 0 00-3.228-2.35A1.99 1.99 0 0112.5 1.5zm-10 2a2.002 2.002 0 013.669-1.103 6.989 6.989 0 00-3.228 2.35A1.98 1.98 0 012.5 3.5z" fill="#c1bfbf" fill-rule="nonzero"/><path d="M14.866 6.081A3.496 3.496 0 0016 3.5C16 1.566 14.434 0 12.5 0a3.494 3.494 0 00-3.184 2.047 7.12 7.12 0 00-1.632 0A3.494 3.494 0 004.5 0 3.498 3.498 0 001 3.5c0 1.022.438 1.94 1.134 2.581A7.003 7.003 0 001.5 9c0 1.662.581 3.19 1.547 4.39L1.719 14.72a.747.747 0 000 1.06.747.747 0 001.06 0l1.327-1.329a7 7 0 008.782 0l1.33 1.331a.747.747 0 001.06 0 .747.747 0 000-1.06l-1.328-1.327a6.965 6.965 0 001.547-4.39 6.956 6.956 0 00-.631-2.923zM12.5 1.5c1.103 0 2 .897 2 2 0 .472-.166.906-.438 1.247a7.02 7.02 0 00-3.228-2.35A1.99 1.99 0 0112.5 1.5zm-10 2a2.002 2.002 0 013.669-1.103 6.989 6.989 0 00-3.228 2.35A1.98 1.98 0 012.5 3.5zm6 11C5.46 14.5 3 12.04 3 9c0-3.031 2.45-5.5 5.5-5.5C11.544 3.5 14 5.963 14 9c0 3.04-2.46 5.5-5.5 5.5zm1.444-2.99l-2.157-1.485a.369.369 0 01-.162-.31v-4.09c0-.206.169-.375.375-.375h1c.206 0 .375.169.375.375v3.366l1.563 1.075c.171.118.212.35.096.521l-.565.825a.383.383 0 01-.525.097z" fill-rule="nonzero"/></svg>