<svg width="15" height="12" xmlns="http://www.w3.org/2000/svg" fill-rule="evenodd" clip-rule="evenodd" stroke-linejoin="round" stroke-miterlimit="2"><path fill="url(#_Radial1)" d="M1 1h13v10H1z"/><path d="M14 11H1V1h13v10zM2 10h11V2H2v8z"/><path d="M6 4h1V3h1v1H7v1h2v1H7v1H6v2H5V7H4v1H3V7h1V6H2V5h2V4H3V3h1v1h1V2h1v2zm2 3v1H7V7h1zM5 5v1h1V5H5z" fill="navy"/><path d="M10 3h2v2h-2z"/><defs><radialGradient id="_Radial1" cx="0" cy="0" r="1" gradientUnits="userSpaceOnUse" gradientTransform="matrix(17 0 0 13.0769 1 1)"><stop offset="0" stop-color="#fffcd9"/><stop offset=".61" stop-color="#f8f6d9"/><stop offset=".82" stop-color="#e8e7d8"/><stop offset="1" stop-color="#d7d7d7"/></radialGradient></defs></svg>