<svg width="11" height="13" xmlns="http://www.w3.org/2000/svg" fill-rule="evenodd" clip-rule="evenodd" stroke-linejoin="round" stroke-miterlimit="2"><g fill="#262933"><path d="M3.246 1.55c-.823.21-1.405.505-1.738.88-.294.33-.375.58-.375 1.155 0 .55.08.824.322 1.098l.12.137.199 2.053c.109 1.13.243 2.52.296 3.094.098 1.036.101 1.042.196 1.253.283.616 1.045 1.015 2.296 1.208.392.06 1.599.05 2.002-.018 1.173-.193 1.91-.595 2.18-1.184.102-.214.068.071.552-4.978l.135-1.399.114-.149c.272-.348.322-.52.322-1.115 0-.566-.047-.744-.277-1.066-.274-.38-1.064-.797-1.867-.982l-.255-.056C7.435.25 3.5.18 3.532 1.484a3.602 3.602 0 00-.286.065z" fill-rule="nonzero"/><path d="M5.577.2l.099.005.098.005.098.008.098.01.097.012.096.013.095.016.094.018.092.02.091.022.09.024.088.026.086.03.084.03.082.033.08.036.076.038.04.021.037.021.037.022.035.022.036.024.034.024.034.025.033.026.032.027.032.028.03.03.03.03.028.03.027.033.026.033.025.035.024.035.022.037.02.038.019.04.017.04.013.035.046.01.08.02.08.02.081.022.08.024.079.024.078.026.078.027.077.028.076.028.075.03.075.031.073.032.072.033.07.033.07.035.068.035.067.036.065.036.064.038.062.038.06.038.059.04.056.04.055.04.053.042.05.042.05.043.046.044.045.045.042.046.04.048.036.047.047.068.043.065.04.066.035.065.018.035.017.035.015.035.015.036.013.036.013.037.011.037.01.038.01.038.008.04.008.038.007.042.01.08.009.084.005.088.004.094.002.099v.216l-.002.105-.004.097-.007.093-.009.086-.006.045-.006.043-.008.041-.009.042-.01.04-.01.04-.013.04-.013.04-.014.038-.016.038-.017.038-.018.037-.019.036-.02.035-.02.035-.023.037-.045.066-.05.069-.051.067-.057.074-.125 1.303-.159 1.655-.117 1.223-.046.471-.039.39-.032.316-.027.252-.023.197-.019.15-.009.062-.009.054-.008.048-.01.044-.01.04-.01.038-.013.036-.014.035-.02.043-.019.039-.03.062-.038.067-.04.066-.044.064-.046.062-.05.06-.052.06-.056.056-.058.055-.06.053-.064.051-.066.05-.068.048-.071.046-.074.044-.075.042-.079.042-.08.039-.083.038-.085.036-.088.035-.09.033-.092.032-.095.03-.097.03-.1.028-.1.026-.105.025-.106.024-.11.022-.11.02-.114.02-.047.008-.051.006-.054.007-.058.005-.121.01-.133.008-.14.007-.148.005-.151.004-.153.002h-.304l-.147-.003-.14-.005-.131-.006-.121-.007-.108-.01-.052-.006-.046-.006-.122-.02-.118-.02-.115-.023-.113-.023-.11-.025-.107-.026-.105-.028-.102-.029-.1-.03-.097-.032-.094-.034-.092-.034-.09-.037-.086-.038-.085-.04-.081-.041-.08-.043-.076-.045-.074-.047-.072-.049-.068-.05-.066-.053-.064-.054-.06-.056-.058-.059-.054-.06-.05-.061-.026-.033-.024-.033-.023-.033-.022-.033-.022-.034-.02-.034-.02-.035-.019-.035-.018-.036-.017-.036-.036-.082-.018-.045-.017-.048-.015-.051-.014-.055-.012-.059-.01-.064-.011-.071-.01-.08-.011-.093-.012-.106-.026-.263L1.74 10l-.054-.567-.074-.771-.17-1.756-.188-1.946-.051-.059-.05-.058-.026-.034-.024-.033-.024-.033-.022-.034-.022-.035-.021-.035-.02-.036-.019-.037-.017-.037L.94 4.49.924 4.45l-.015-.04-.013-.039-.013-.04-.011-.042-.01-.041-.01-.042-.009-.043-.007-.044-.007-.046-.011-.089-.009-.094-.005-.097L.8 3.692v-.218l.004-.105.006-.1.004-.05.005-.048.005-.047.007-.046.008-.046.008-.045.01-.044.01-.044.013-.043.013-.043.014-.042.016-.042.017-.04.018-.041.02-.04.02-.039.021-.038.023-.038.024-.037.024-.036.026-.036.027-.036.027-.035.03-.036.059-.068.038-.042.04-.042.042-.04.043-.04.044-.038.046-.038.047-.038.048-.036.05-.035.051-.035.053-.034.053-.034.056-.032.056-.032.058-.031.059-.03.06-.03.061-.03.063-.029.065-.028.065-.027.067-.027.068-.026.07-.025.07-.025.072-.024.073-.024.075-.023.076-.023.077-.022.079-.022.08-.02.07-.018.01-.03.015-.042.017-.041.018-.04.02-.04.023-.037.023-.036.025-.035.026-.034.027-.033.029-.032.03-.03.03-.03.032-.028.032-.027.034-.026.034-.026.035-.024.035-.023.036-.023.037-.021L3.84.53l.038-.02.039-.02.04-.018.04-.018.08-.033.084-.03.086-.028.087-.026.09-.023.09-.022.092-.018L4.7.257l.094-.014L4.89.23l.097-.01.097-.008.098-.007.098-.004L5.38.2h.099l.099.002zm-.194.332l-.092.003-.092.003-.09.006-.09.008-.09.01-.088.01-.087.014L4.67.6l-.084.017-.082.02-.08.02-.077.023-.075.025-.073.026-.07.029-.033.015L4.06.79 4.03.807l-.031.017-.031.017-.03.017-.029.018-.028.018-.027.02-.026.019-.026.02-.024.02-.023.02-.022.022-.022.022-.02.022-.019.023-.018.023-.017.024-.015.024-.015.025-.013.026-.012.025-.01.027-.01.026-.008.028-.007.027-.006.029-.004.029-.003.029-.001.03v.03h-.007l-.017.003-.062.014-.09.021-.11.027-.076.02-.075.021-.074.021-.072.022-.07.022-.07.022-.068.023-.067.023-.065.024-.064.025-.062.025-.06.025-.06.026-.058.026-.057.027-.055.027-.053.028-.053.029-.05.028-.05.03-.048.03-.046.03-.045.03-.044.031-.042.032-.04.032-.04.032-.038.033-.036.034-.035.034-.033.034-.032.035-.053.061-.024.03-.024.03-.022.03-.021.03-.02.029-.019.03-.018.029-.017.03-.015.03-.015.03-.014.031-.013.031-.012.032-.011.033-.01.033-.01.034-.008.035-.008.036-.007.037-.007.038-.005.04-.005.04-.004.041-.004.043-.005.09-.003.098-.001.104v.1l.004.094.005.088.007.083.01.078.006.038.006.036.007.035.008.035.008.033.01.033.01.031.01.031.01.03.013.03.013.03.013.028.015.028.015.027.016.027.016.027.018.026.019.026.019.026.02.026.044.052.12.137.199 2.053.169 1.756.074.772.053.566.033.343.026.26.011.104.01.09.01.075.01.064.009.054.01.047.01.04.01.037.012.034.014.033.031.072.014.029.014.028.015.028.016.028.016.028.017.027.018.026.019.027.019.026.02.026.042.05.045.05.047.049.05.047.054.045.056.045.059.043.062.042.064.04.068.04.07.039.073.037.076.036.079.034.081.033.085.033.087.03.09.03.093.029.096.027.099.026.101.025.105.023.107.022.11.022.113.02.116.018.04.006.043.005.1.008.113.008.125.005.136.004.142.003h.298l.15-.002.148-.003.143-.005.136-.007.127-.007.115-.01.053-.005.048-.005.045-.006.04-.007.108-.018.107-.02.103-.021.101-.023.099-.023.095-.025.094-.026.09-.027.088-.029.086-.03.083-.03.08-.032.077-.033.075-.034.073-.036.07-.036.066-.038.065-.039.061-.04.06-.041.056-.043.054-.043.05-.045.05-.046.045-.046.043-.048.04-.05.038-.05.035-.051.032-.053.03-.053.027-.055.017-.036.015-.032.008-.018.007-.02.006-.024.007-.028.007-.034.008-.04.008-.049.008-.057.018-.145.023-.193.026-.25.032-.314.039-.39.046-.47.118-1.223.158-1.655.135-1.399.114-.149.049-.063.043-.06.039-.058.018-.028.016-.028.016-.028.014-.028.014-.028.013-.028.011-.028.011-.029.01-.029.01-.03.008-.03.007-.032.007-.032.006-.034.006-.034.004-.036.008-.076.006-.082.004-.09.002-.098v-.208l-.002-.093-.003-.086-.006-.08-.007-.072-.009-.068-.005-.032-.006-.032-.007-.03-.007-.03-.008-.028-.009-.029-.01-.027-.01-.027-.01-.027-.012-.027-.012-.027-.014-.026-.029-.053-.033-.055-.037-.056-.04-.059-.028-.035-.03-.036-.033-.036-.036-.037-.038-.036-.041-.036-.044-.036-.045-.036-.048-.036-.05-.035-.053-.035-.054-.035-.057-.035-.058-.034-.06-.033-.061-.033-.063-.033-.065-.032-.065-.03-.067-.031-.069-.03-.07-.029-.07-.028-.07-.027-.073-.026-.073-.025-.073-.024-.074-.023-.075-.022-.075-.02-.075-.02-.075-.018-.255-.056-.001-.029-.003-.028-.005-.028-.005-.027-.007-.027-.008-.027-.01-.026-.01-.025-.013-.025-.013-.025-.015-.025-.016-.024-.017-.023-.018-.023-.019-.023-.02-.022-.021-.022-.023-.02-.023-.022-.024-.02L7.17.97 7.145.95 7.118.931 7.09.912 7.06.894 7.03.876 7 .86 6.968.842 6.903.81 6.834.779l-.071-.03-.074-.026-.076-.026-.08-.023-.08-.022-.083-.02-.085-.018L6.2.597 6.112.583 6.023.57l-.09-.01-.09-.01L5.75.543 5.66.538 5.567.534 5.475.532h-.092z"/></g><path d="M4230.9 4975.2c-271.7-74.3-476.8-241-607.6-497.3-69.2-138.4-71.8-153.8-79.5-625.5-7.7-464-7.7-484.5 46.1-540.9 151.2-161.5 556.3-125.6 638.3 56.4 15.4 35.9 28.2 220.5 28.2 430.7 0 335.8 5.1 376.8 51.3 423 28.2 28.2 76.9 56.4 110.2 64.1 30.8 7.7 320.4 12.8 643.5 7.7l584.5-7.7 61.5-71.8c59-69.2 61.5-87.2 61.5-464 0-423 0-423 153.8-502.5 89.7-48.7 330.7-43.6 428.1 7.7 133.3 69.2 141 107.7 130.7 592.2-7.7 428.1-10.3 440.9-87.1 605-100 212.8-258.9 371.7-471.7 471.7l-166.6 79.5-692.1 5.1c-553.6 5.1-720.3-2.6-833.1-33.4z" fill="url(#_Linear1)" fill-rule="nonzero" transform="matrix(.0011 0 0 -.00116 .018 6.908)"/><path d="M2936.4 4616.3c-753.7-182-1286.9-435.8-1591.9-758.8-269.2-284.5-343.5-499.9-343.5-994.6 0-474.3 74.3-710.1 294.8-945.9l110.2-117.9L1588 30.3c100-974.1 223-2171.3 271.7-2666.1 89.7-892.1 92.3-897.2 179.4-1079.2 258.9-530.7 956.2-874.2 2102.1-1040.8 358.9-51.3 1463.8-43.6 1832.9 15.4 1074.1 166.6 1748.3 512.7 1997 1020.3 92.3 184.6 61.5-61.5 505 4288.8l123.1 1204.8 105.1 128.2c248.7 299.9 294.8 448.6 294.8 961.3 0 487.1-43.6 640.9-253.8 917.7-251.2 328.1-974.1 687-1709.8 846l-233.3 48.7 48.7-130.7c28.2-71.8 58.9-220.5 66.6-333.3l17.9-202.5 256.3-71.8c825.4-230.7 1274.1-594.7 1168.9-951.1-43.6-146.1-269.2-364-502.4-487.1-1322.8-687-4258-705-5639.7-30.8-512.7 248.7-689.6 543.5-512.7 846 148.7 253.8 584.5 479.4 1335.6 689.6 15.4 5.1 35.9 87.2 43.6 184.6 7.7 97.4 38.4 246.1 66.7 330.7 28.2 82 48.7 151.2 46.2 153.8-2.6 2.5-120.5-23.2-261.5-56.5zm-194.9-3471c100-28.2 243.5-156.4 299.9-264 25.6-48.7 92.3-605 205.1-1691.9 89.7-892.1 182-1779.1 202.5-1971.4 20.5-192.3 38.5-415.3 38.5-492.2 0-123-7.7-146.1-79.5-205.1-174.3-148.7-474.3-17.9-558.8 246.1-28.2 89.8-440.9 3981.2-440.9 4173.4-2.6 92.3 10.3 125.6 66.7 171.8 74.3 64.1 133.2 71.8 266.5 33.3zm4806.6-28.2c56.4-43.6 66.6-71.8 66.6-179.4 0-192.3-405-4047.8-438.3-4163.1-56.4-202.5-289.7-356.3-471.7-310.2-76.9 20.5-158.9 102.5-171.8 176.9-20.5 112.8 407.6 4160.6 448.6 4237.5 125.7 238.3 412.8 361.4 566.6 238.3zm-2361-333.3c30.8-15.4 76.9-53.8 100-84.6 41-48.7 46.2-205.1 46.2-2199.5v-2143.1l-64.1-79.5c-169.2-197.4-507.6-143.5-576.8 94.9-20.5 64.1-25.6 751.1-20.5 2186.7 7.7 2053.4 7.7 2094.4 59 2150.8 28.2 30.8 74.3 66.7 102.5 79.5 76.9 30.7 289.6 28.2 353.7-5.2z" fill="url(#_Linear2)" fill-rule="nonzero" transform="matrix(.0011 0 0 -.00116 .032 6.908)"/><defs><linearGradient id="_Linear1" x1="0" y1="0" x2="1" y2="0" gradientUnits="userSpaceOnUse" gradientTransform="matrix(2840.89 -1142.04 -1212.15 -2676.59 3643.8 5251.36)"><stop offset="0" stop-color="#e4ebf1"/><stop offset=".62" stop-color="#d5e1eb"/><stop offset=".82" stop-color="#b1c9dd"/><stop offset="1" stop-color="#8aaece"/></linearGradient><linearGradient id="_Linear2" x1="0" y1="0" x2="1" y2="0" gradientUnits="userSpaceOnUse" gradientTransform="matrix(8104.92 -3245.46 -3444.69 -7636.18 894.182 3188.21)"><stop offset="0" stop-color="#e4ebf1"/><stop offset=".62" stop-color="#d5e1eb"/><stop offset=".82" stop-color="#b1c9dd"/><stop offset="1" stop-color="#8aaece"/></linearGradient></defs></svg>