<svg width="17" height="21" xmlns="http://www.w3.org/2000/svg" fill-rule="evenodd" clip-rule="evenodd" stroke-linejoin="round" stroke-miterlimit="2"><g fill="#262933"><path d="M4.736 2.231c-1.375.353-2.348.845-2.904 1.471-.491.552-.627.97-.627 1.929 0 .92.136 1.376.538 1.834l.201.228.332 3.43c.182 1.888.407 4.21.496 5.168.163 1.73.168 1.74.327 2.093.472 1.029 1.744 1.695 3.834 2.018.655.1 2.67.084 3.344-.03 1.959-.323 3.189-.994 3.643-1.978.168-.358.112.119.92-8.315l.225-2.336.192-.249c.454-.581.538-.87.538-1.863 0-.945-.08-1.243-.463-1.78-.458-.636-1.777-1.332-3.12-1.64l-.425-.094c-.056-2.056-6.63-2.171-6.574.005a6.017 6.017 0 00-.477.11z" fill-rule="nonzero"/><path d="M8.461.2h.08l.081.002.08.003.08.003.08.005.08.005.08.006.08.006.08.008.078.008.079.01.078.01.078.01.078.012L9.65.3l.076.013.077.014.075.015.075.015.074.017.074.017.073.018.072.02.072.02.07.02.07.021.07.023.068.023.067.024.067.025.065.026.065.027.063.027.062.03.062.029.06.03.059.032.058.033.057.034.055.034.054.036.053.037.051.039.05.039.049.04.047.043.045.043.044.044.042.046.04.048.038.049.036.05.034.052.032.053.03.055.026.056.025.057.021.059.02.06.012.048.203.045.13.032.132.033.13.036.13.038.128.04.128.041.126.044.126.045.124.048.122.048.121.05.119.052.117.053.115.055.113.055.11.057.108.058.105.06.103.06.1.06.096.063.094.063.09.063.087.065.084.066.08.066.075.066.037.035.036.034.035.035.033.034.033.035.032.036.03.035.03.036.028.037.027.037.073.104.035.053.033.05.032.052.03.05.03.052.027.051.026.052.025.053.023.053.022.054.02.054.019.055.017.057.016.057.014.058.013.059.011.06.01.062.01.062.008.065.007.065.006.068.005.07.004.071.003.075.003.077.003.16.001.175-.001.182-.004.169-.002.08-.004.078-.005.075-.005.073-.007.07-.008.07-.009.066-.01.066-.012.064-.013.063-.015.062-.017.06-.018.06-.02.06-.022.057-.023.057-.026.056-.027.056-.028.055-.03.054-.033.054-.033.053-.036.054-.036.054-.039.054-.04.054-.042.056-.042.055-.133.172-.216 2.24-.264 2.765-.197 2.043-.077.787-.064.65-.054.527-.045.42-.02.173-.017.152-.017.133-.015.115-.015.1-.014.087-.013.075-.014.066-.015.06-.015.054-.017.05-.018.043-.017.039-.016.031-.028.059-.023.047-.027.053-.027.052-.03.051-.03.051-.032.05-.033.05-.034.049-.035.048-.037.048-.037.047-.04.046-.04.046-.04.045-.043.044-.044.044-.044.043-.046.043-.047.042-.048.04-.05.041-.05.04-.051.04-.052.038-.054.038-.055.037-.055.037-.057.036-.058.036-.058.035-.06.034-.061.034-.062.033-.063.032-.064.032-.065.031-.066.031-.067.03-.068.03-.07.029-.07.028-.07.028-.073.027-.073.027-.074.026-.076.026-.076.025-.077.024-.079.024-.08.023-.08.023-.08.023-.083.021-.085.022-.169.04-.174.039-.178.036-.183.035-.186.032-.074.011-.08.011-.087.01-.093.009-.097.008-.102.008-.107.007-.11.007-.115.005-.118.006-.243.008-.25.006-.254.003-.254.001-.25-.002-.241-.004-.118-.003-.113-.004-.11-.004-.105-.005-.101-.006-.097-.007-.09-.007-.085-.008-.08-.01-.073-.01-.2-.032-.193-.034-.19-.036-.183-.039-.091-.02-.09-.02-.088-.022-.087-.021-.086-.022-.085-.023-.084-.024-.082-.023-.082-.025-.08-.025-.08-.026-.078-.026-.077-.026-.076-.028-.074-.028-.074-.028-.073-.03-.071-.03-.07-.03-.07-.03-.068-.032-.067-.032-.066-.033-.065-.033-.063-.035-.063-.034-.061-.036-.06-.036-.06-.036-.058-.038-.057-.038-.056-.039-.055-.039-.053-.04-.052-.04-.052-.042-.05-.042-.049-.043-.047-.044-.047-.044-.045-.045-.045-.046-.042-.046-.042-.048-.04-.047-.04-.049-.038-.05-.036-.05-.036-.05-.034-.051-.033-.052-.031-.053-.03-.053-.03-.054-.027-.055-.026-.055-.03-.068-.028-.064-.026-.066-.025-.068-.012-.04-.011-.038-.01-.04-.01-.044-.019-.088-.017-.1-.017-.115-.017-.131-.017-.152-.02-.176-.02-.203-.023-.234-.054-.573-.09-.947-.123-1.289-.283-2.932-.321-3.323-.131-.149-.04-.046-.041-.05-.039-.049-.037-.05-.036-.05-.035-.052-.033-.053L1.2 7.28l-.03-.055-.029-.055-.027-.057-.025-.057-.024-.059-.022-.06-.02-.06-.02-.062-.017-.063-.016-.064-.015-.065-.013-.067-.012-.068-.01-.069-.01-.07L.9 6.275l-.007-.074-.006-.076-.005-.077-.004-.08-.003-.08-.002-.084-.002-.086v-.18l.002-.089.002-.086.003-.084.004-.082.006-.08.006-.077.008-.076.009-.074.01-.072.012-.072.013-.07.015-.068.017-.067.018-.066.02-.065.022-.064.024-.063.025-.062.028-.061.029-.06.031-.06.033-.058.035-.057.036-.057.038-.056.04-.056.041-.056.044-.055.045-.055.046-.055.05-.056.059-.065.062-.064.065-.063.067-.062.07-.061.072-.06.074-.058.077-.058.08-.056.08-.056.084-.054.086-.053.088-.053.09-.05.093-.05.095-.05.097-.048.1-.047.102-.047.104-.045.106-.044.108-.044.111-.042.113-.042.116-.04.117-.04.12-.039.122-.038.124-.037.127-.036.129-.035.131-.035.187-.046.062-.015.008-.042.016-.062.018-.062.021-.06.024-.058.027-.057.03-.056.03-.054.035-.053.036-.051.038-.05.04-.048.042-.047.044-.045.046-.043.047-.043.049-.04.05-.04.052-.038.053-.037.054-.036.056-.034.057-.033.058-.033.06-.03.06-.03.061-.03.063-.027L6.14.58l.064-.026.066-.024.067-.024.067-.023.068-.022.07-.02.07-.02.07-.02.072-.018.073-.017L6.9.35l.074-.015.074-.015.075-.014L7.2.293l.076-.012.077-.011.077-.01.077-.01.078-.009.079-.008.078-.007.08-.006L7.9.214 7.98.21l.08-.004.08-.003L8.22.2 8.3.199h.16zm-.156.333l-.077.001-.077.002-.077.003-.076.004-.076.004-.076.005-.075.006-.076.007-.074.007-.075.009-.074.009L7.4.6l-.073.01-.072.012-.071.012-.071.013-.07.014-.07.015-.069.015-.068.017-.067.017-.066.017-.065.02-.065.018L6.51.8l-.062.022-.061.022-.06.022-.06.024-.057.024-.057.025-.055.026-.054.027-.052.027-.052.028-.05.03-.048.03-.047.03-.045.032-.044.032-.042.033-.04.034-.04.035-.037.036-.035.036-.034.038-.032.038-.03.039-.028.04-.026.04-.024.041-.022.043-.02.043-.018.044-.016.044-.014.046-.011.046-.01.047-.006.049-.005.048-.002.05v.05h-.004l-.008.001-.029.006-.103.022-.151.036-.182.045-.128.034-.125.034-.123.035-.121.036-.118.037-.116.037-.114.039-.11.039-.11.04-.106.04-.104.042-.102.043-.099.043-.097.044-.094.045-.092.045-.09.047-.087.047-.085.048-.082.049-.08.05-.078.05-.075.051-.073.052-.07.053-.068.053-.066.055-.063.055L2 3.53l-.059.057-.056.057-.053.058-.045.052-.043.05-.041.05-.039.05-.037.05-.035.049-.034.05-.031.049-.03.049-.028.05-.026.05-.025.051-.023.052-.022.052-.02.053-.019.055-.017.055-.015.057-.015.059-.013.06-.012.061-.01.064-.01.065-.008.067-.007.07-.006.072-.005.074-.004.077-.003.08-.002.082-.001.085v.256l.003.08.003.077.004.075.004.072.006.07.007.069.007.066.009.064.01.063.01.06.012.06.013.057.014.056.015.054.017.053.017.052.02.05.02.05.02.048.023.048.024.047.025.045.027.046.028.044.03.045.03.043.033.044.034.043.035.043.037.043.201.228.332 3.43.283 2.932.123 1.29.09.946.054.572.023.234.02.201.019.174.017.149.016.126.016.107.016.09.016.079.008.035.009.033.008.03.01.03.02.057.022.056.025.057.028.063.023.048.024.047.025.047.026.046.027.046.029.046.03.044.03.045.033.043.033.044.034.042.036.042.037.042.038.041.039.04.04.04.042.04.043.04.043.038.045.038.047.037.047.037.049.036.05.036.05.036.053.034.053.035.054.034.056.033.057.033.058.032.06.031.06.032.061.03.063.03.064.03.065.03.067.028.067.028.07.028.069.027.071.026.072.026.074.026.075.025.075.024.078.024.078.024.08.023.08.022.082.022.083.022.084.02.085.021.087.02.088.02.179.037.184.035.189.033.193.032.066.009.072.008.08.008.086.007.093.006.097.006.103.005.107.004.112.004.114.003.238.004.247.002.25-.001.25-.003.248-.006.239-.009.115-.005.112-.005.109-.007.103-.006.1-.008.093-.008.087-.009.081-.009.075-.01.067-.01.181-.031.178-.034.173-.035.168-.038.165-.039.08-.02.08-.021.078-.022.077-.022.077-.022.075-.023.074-.024.073-.023.072-.025.07-.025.07-.025.069-.026.067-.027.067-.027.065-.027.064-.028.063-.028.063-.029.06-.03.06-.03.06-.03.057-.03.056-.032.056-.031.054-.033.053-.032.052-.034.051-.033.05-.034.05-.035.047-.035.046-.036.046-.036.044-.036.043-.038.043-.037.04-.038.04-.038.04-.04.037-.039.036-.04.036-.04.034-.04.033-.042.032-.042.031-.042.03-.043.028-.043.028-.043.026-.044.026-.045.024-.045.023-.045.022-.046.029-.06.013-.027.012-.027.012-.03.012-.034.011-.04.012-.046.012-.057.012-.068.013-.08.014-.096.015-.112.016-.13.017-.15.02-.172.044-.417.054-.526.064-.65.077-.786.197-2.043.265-2.764.224-2.336.192-.249.041-.053.04-.053.037-.05.035-.05.034-.049.031-.047.03-.048.027-.046.026-.047.025-.046.022-.047.021-.047.02-.047.018-.048.017-.049.015-.05.014-.051.013-.052.01-.054.011-.056.01-.058.007-.06.007-.062.006-.065.006-.067.004-.07.003-.073.003-.077.004-.163V5.46l-.003-.156-.003-.073-.003-.07-.004-.068-.005-.064-.005-.063-.006-.06-.008-.057-.008-.056-.009-.054-.01-.052-.01-.05-.013-.05-.013-.048-.015-.047-.015-.046-.017-.046-.018-.045-.02-.044-.02-.045-.023-.044-.024-.044-.025-.045-.027-.045-.028-.046-.03-.046-.032-.048-.068-.098-.022-.03-.024-.03-.024-.03-.026-.03-.027-.03-.028-.03-.03-.03-.03-.03-.031-.03-.033-.03-.068-.06-.073-.061-.076-.06-.08-.06-.084-.059-.088-.059-.09-.058-.095-.058-.097-.056-.1-.057-.102-.055-.106-.054-.107-.053-.11-.052-.112-.051-.114-.05-.116-.048-.118-.047-.12-.045-.12-.044-.121-.042-.123-.04-.124-.038-.124-.036-.125-.035-.125-.032-.126-.03-.426-.094-.002-.048-.005-.047-.007-.047-.01-.045-.011-.045-.014-.045-.016-.043-.018-.043-.02-.042-.023-.041-.024-.041-.026-.04-.029-.04-.03-.038-.032-.037-.033-.038-.036-.036-.037-.035-.04-.035-.04-.034-.042-.034-.044-.033-.046-.031-.047-.032-.048-.03-.05-.03-.052-.029-.052-.028-.054-.028-.056-.026-.056-.026-.058-.026-.06-.024-.06-.024-.06-.023-.063-.022-.063-.022-.065-.02-.065-.02-.066-.02-.068-.019-.067-.018-.07-.017L9.954.7l-.07-.016L9.812.67 9.74.655 9.668.64 9.595.63 9.522.617 9.448.606l-.074-.01-.075-.01-.075-.009L9.148.57 9.072.562 8.996.556 8.92.55 8.843.545 8.766.541 8.69.538 8.613.535 8.536.533H8.305z"/></g><path d="M4230.9 4975.2c-271.7-74.3-476.8-241-607.6-497.3-69.2-138.4-71.8-153.8-79.5-625.5-7.7-464-7.7-484.5 46.1-540.9 151.2-161.5 556.3-125.6 638.3 56.4 15.4 35.9 28.2 220.5 28.2 430.7 0 335.8 5.1 376.8 51.3 423 28.2 28.2 76.9 56.4 110.2 64.1 30.8 7.7 320.4 12.8 643.5 7.7l584.5-7.7 61.5-71.8c59-69.2 61.5-87.2 61.5-464 0-423 0-423 153.8-502.5 89.7-48.7 330.7-43.6 428.1 7.7 133.3 69.2 141 107.7 130.7 592.2-7.7 428.1-10.3 440.9-87.1 605-100 212.8-258.9 371.7-471.7 471.7l-166.6 79.5-692.1 5.1c-553.6 5.1-720.3-2.6-833.1-33.4z" fill="url(#_Linear1)" fill-rule="nonzero" transform="matrix(.00183 0 0 -.00194 -.656 11.181)"/><path d="M2936.4 4616.3c-753.7-182-1286.9-435.8-1591.9-758.8-269.2-284.5-343.5-499.9-343.5-994.6 0-474.3 74.3-710.1 294.8-945.9l110.2-117.9L1588 30.3c100-974.1 223-2171.3 271.7-2666.1 89.7-892.1 92.3-897.2 179.4-1079.2 258.9-530.7 956.2-874.2 2102.1-1040.8 358.9-51.3 1463.8-43.6 1832.9 15.4 1074.1 166.6 1748.3 512.7 1997 1020.3 92.3 184.6 61.5-61.5 505 4288.8l123.1 1204.8 105.1 128.2c248.7 299.9 294.8 448.6 294.8 961.3 0 487.1-43.6 640.9-253.8 917.7-251.2 328.1-974.1 687-1709.8 846l-233.3 48.7 48.7-130.7c28.2-71.8 58.9-220.5 66.6-333.3l17.9-202.5 256.3-71.8c825.4-230.7 1274.1-594.7 1168.9-951.1-43.6-146.1-269.2-364-502.4-487.1-1322.8-687-4258-705-5639.7-30.8-512.7 248.7-689.6 543.5-512.7 846 148.7 253.8 584.5 479.4 1335.6 689.6 15.4 5.1 35.9 87.2 43.6 184.6 7.7 97.4 38.4 246.1 66.7 330.7 28.2 82 48.7 151.2 46.2 153.8-2.6 2.5-120.5-23.2-261.5-56.5zm-194.9-3471c100-28.2 243.5-156.4 299.9-264 25.6-48.7 92.3-605 205.1-1691.9 89.7-892.1 182-1779.1 202.5-1971.4 20.5-192.3 38.5-415.3 38.5-492.2 0-123-7.7-146.1-79.5-205.1-174.3-148.7-474.3-17.9-558.8 246.1-28.2 89.8-440.9 3981.2-440.9 4173.4-2.6 92.3 10.3 125.6 66.7 171.8 74.3 64.1 133.2 71.8 266.5 33.3zm4806.6-28.2c56.4-43.6 66.6-71.8 66.6-179.4 0-192.3-405-4047.8-438.3-4163.1-56.4-202.5-289.7-356.3-471.7-310.2-76.9 20.5-158.9 102.5-171.8 176.9-20.5 112.8 407.6 4160.6 448.6 4237.5 125.7 238.3 412.8 361.4 566.6 238.3zm-2361-333.3c30.8-15.4 76.9-53.8 100-84.6 41-48.7 46.2-205.1 46.2-2199.5v-2143.1l-64.1-79.5c-169.2-197.4-507.6-143.5-576.8 94.9-20.5 64.1-25.6 751.1-20.5 2186.7 7.7 2053.4 7.7 2094.4 59 2150.8 28.2 30.8 74.3 66.7 102.5 79.5 76.9 30.7 289.6 28.2 353.7-5.2z" fill="url(#_Linear2)" fill-rule="nonzero" transform="matrix(.00183 0 0 -.00194 -.633 11.181)"/><defs><linearGradient id="_Linear1" x1="0" y1="0" x2="1" y2="0" gradientUnits="userSpaceOnUse" gradientTransform="matrix(2840.89 -1142.04 -1212.15 -2676.59 3643.8 5251.36)"><stop offset="0" stop-color="#e4ebf1"/><stop offset=".62" stop-color="#d5e1eb"/><stop offset=".82" stop-color="#b1c9dd"/><stop offset="1" stop-color="#8aaece"/></linearGradient><linearGradient id="_Linear2" x1="0" y1="0" x2="1" y2="0" gradientUnits="userSpaceOnUse" gradientTransform="matrix(8104.92 -3245.46 -3444.69 -7636.18 894.182 3188.21)"><stop offset="0" stop-color="#e4ebf1"/><stop offset=".62" stop-color="#d5e1eb"/><stop offset=".82" stop-color="#b1c9dd"/><stop offset="1" stop-color="#8aaece"/></linearGradient></defs></svg>