<svg width="90" height="90" xmlns="http://www.w3.org/2000/svg" fill-rule="evenodd" clip-rule="evenodd" stroke-linejoin="round" stroke-miterlimit="2"><g transform="translate(45 45) scale(1.02241)"><circle r="44" fill="#323232"/><clipPath id="a"><circle r="44"/></clipPath><g clip-path="url(#a)"><g transform="matrix(.22 0 0 .22275 -44 -44)"><path d="M0 200V0h400v400H0V200z" fill="#323232" fill-rule="nonzero"/><clipPath id="b"><path d="M0 200V0h400v400H0V200z" clip-rule="nonzero"/></clipPath><g clip-path="url(#b)"><path d="M0 202.47V0h410v404.94H0V202.47zm379.25 157.927c0-17.21 0-17.21-9.225-24.297-5.125-4.05-11.275-9.11-13.325-11.136-5.125-4.049-20.5-15.185-21.525-15.185-2.05 0-39.975-19.235-47.15-23.284-2.05-2.025-6.15-4.05-8.2-4.05-3.075-1.012-6.15-3.036-8.2-4.049-2.05-2.024-5.125-3.037-7.175-4.05-2.05-1.011-4.1-2.024-5.125-3.036-2.05-4.05-1.025-37.457 2.05-54.667 1.025-8.099 3.075-10.124 9.225-10.124 2.05-1.012 5.125-2.024 6.15-3.037 2.05-1.012 6.15-13.16 10.25-30.37 2.05-10.124 1.025-17.21-3.075-20.247-1.025-1.012-3.075-3.037-4.1-3.037-1.025-1.013-1.025-3.037 0-10.124 0-5.061 1.025-10.123 1.025-12.148 2.05-8.099 1.025-30.37-3.075-42.519-1.025-5.061-9.225-16.197-15.375-22.271-6.15-7.087-15.375-12.148-21.525-14.173-3.075-1.013-10.25-4.05-15.375-7.087-9.225-4.049-9.225-4.049-24.6-5.061-12.3 0-15.375 0-21.525 2.024-23.575 7.087-36.9 14.173-50.225 27.334-8.2 9.11-12.3 16.197-13.325 24.296-1.025 5.062 0 39.482 2.05 53.655 0 8.099 0 8.099-3.075 10.123-4.1 2.025-4.1 2.025-4.1 9.111 0 4.05 1.025 10.124 2.05 12.149 0 3.037 2.05 8.098 3.075 11.135 1.025 8.1 5.125 18.223 7.175 20.247 1.025 1.013 3.075 2.025 5.125 3.037 4.1 1.013 4.1 2.025 6.15 10.124 2.05 5.062 4.1 11.136 5.125 15.185 1.025 4.05 1.025 9.111 1.025 21.26 1.025 16.197 1.025 16.197-3.075 19.234-3.075 2.025-6.15 4.05-7.175 4.05-4.1 1.012-12.3 5.061-17.425 8.098-2.05 2.025-8.2 5.062-15.375 7.087C91.225 297.63 82 301.68 77.9 304.717c-5.125 3.037-17.425 9.112-27.675 14.173-19.475 10.124-19.475 10.124-19.475 33.408 0 13.16 0 24.296 1.025 24.296 0 1.013 77.9 28.346 173.225 28.346l174.25-27.333v-17.21z" fill="#fefefe" fill-rule="nonzero"/></g></g></g><path d="M.284-43.999l.284.003.284.004.283.006.283.008.282.01.282.012.281.013.281.015.28.017.28.019.279.02.279.023.279.023.278.026.277.027.277.029.276.031.276.033.276.034.275.036.274.037.274.039.273.041.273.043.272.044.271.046.271.048.271.049.27.051.269.052.269.055.268.055.268.058.266.059.267.061.265.062.266.064.264.065.264.067.263.069.263.07.262.072.261.073.26.075.26.077.26.078.258.08.258.081.257.082.257.085.256.085.255.088.254.089.254.09.253.092.252.093.252.095.251.096.25.098.249.099.249.101.248.102.247.104.246.105.246.107.245.108.244.109.243.111.242.113.242.113.241.116.24.116.239.118.238.12.238.121.237.122.236.123.235.125.234.127.233.128.233.129.231.13.231.132.23.133.229.135.228.136.227.137.227.138.225.14.225.141.223.143.223.144.222.145.221.146.22.148.219.149.218.15.217.152.216.152.215.154.214.156.214.156.212.158.211.159.211.16.209.162.208.163.207.164.207.165.205.166.204.168.204.169.202.169.201.172.2.172.199.174.198.174.197.176.196.177.195.178.194.18.192.18.192.182.191.182.189.184.188.185.188.186.186.188.185.188.184.189.182.191.182.192.18.192.18.194.178.195.177.196.176.197.174.198.174.199.172.2.172.201.169.202.169.204.168.204.166.205.165.207.164.207.163.208.162.209.16.211.159.211.158.212.156.214.156.214.154.215.152.216.152.217.15.218.149.219.148.22.146.221.145.222.144.223.143.223.141.225.14.225.138.227.137.227.136.228.135.229.133.23.132.231.13.231.129.233.128.233.127.234.125.235.123.236.122.237.121.238.12.238.118.239.116.24.116.241.113.242.113.242.111.243.109.244.108.245.107.246.105.246.104.247.102.248.101.249.099.249.098.25.096.251.095.252.093.252.092.253.09.254.089.254.088.255.085.256.085.257.082.257.081.258.08.258.078.26.077.26.075.26.073.261.072.262.07.263.069.263.067.264.065.264.064.266.062.265.061.267.059.266.058.268.055.268.055.269.052.269.051.27.049.271.048.271.046.271.044.272.043.273.041.273.039.274.037.274.036.275.034.276.033.276.031.276.029.277.027.277.026.278.023.279.023.279.02.279.019.28.017.28.015.281.013.281.012.282.01.282.008.283.006.283.004.284.003.284L44 0l-.001.284-.003.284-.004.284-.006.283-.008.283-.01.282-.012.282-.013.281-.015.281-.017.28-.019.28-.02.279-.023.279-.023.279-.026.278-.027.277-.029.277-.031.276-.033.276-.034.276-.036.275-.037.274-.039.274-.041.273-.043.273-.044.272-.046.271-.048.271-.049.271-.051.27-.052.269-.055.269-.055.268-.058.268-.059.266-.061.267-.062.265-.064.266-.065.264-.067.264-.069.263-.07.263-.072.262-.073.261-.075.26-.077.26-.078.26-.08.258-.081.258-.082.257-.085.257-.085.256-.088.255-.089.254-.09.254-.092.253-.093.252-.095.252-.096.251-.098.25-.099.249-.101.249-.102.248-.104.247-.105.246-.107.246-.108.245-.109.244-.111.243-.113.242-.113.242-.116.241-.116.24-.118.239-.12.238-.121.238-.122.237-.123.236-.125.235-.127.234-.128.233-.129.233-.13.231-.132.231-.133.23-.135.229-.136.228-.137.227-.138.227-.14.225-.141.225-.143.223-.144.223-.145.222-.146.221-.148.22-.149.219-.15.218-.152.217-.152.216-.154.215-.156.214-.156.214-.158.212-.159.211-.16.211-.162.209-.163.208-.164.207-.165.207-.166.205-.168.204-.169.204-.169.202-.172.201-.172.2-.174.199-.174.198-.176.197-.177.196-.178.195-.18.194-.18.192-.182.192-.182.191-.184.189-.185.188-.186.188-.188.186-.188.185-.189.184-.191.182-.192.182-.192.18-.194.18-.195.178-.196.177-.197.176-.198.174-.199.174-.2.172-.201.172-.202.169-.204.169-.204.168-.205.166-.207.165-.207.164-.208.163-.209.162-.211.16-.211.159-.212.158-.214.156-.214.156-.215.154-.216.152-.217.152-.218.15-.219.149-.22.148-.221.146-.222.145-.223.144-.223.143-.225.141-.225.14-.227.138-.227.137-.228.136-.229.135-.23.133-.231.132-.231.13-.233.129-.233.128-.234.127-.235.125-.236.123-.237.122-.238.121-.238.12-.239.118-.24.116-.241.116-.242.113-.242.113-.243.111-.244.109-.245.108-.246.107-.246.105-.247.104-.248.102-.249.101-.249.099-.25.098-.251.096-.252.095-.252.093-.253.092-.254.09-.254.089-.255.088-.256.085-.257.085-.257.082-.258.081-.258.08-.26.078-.26.077-.26.075-.261.073-.262.072-.263.07-.263.069-.264.067-.264.065-.266.064-.265.062-.267.061-.266.059-.268.058-.268.055-.269.055-.269.052-.27.051-.271.049-.271.048-.271.046-.272.044-.273.043-.273.041-.274.039-.274.037-.275.036-.276.034-.276.033-.276.031-.277.029-.277.027-.278.026-.279.023-.279.023-.279.02-.28.019-.28.017-.281.015-.281.013-.282.012-.282.01-.283.008-.283.006-.284.004-.284.003L0 44l-.284-.001-.284-.003-.284-.004-.283-.006-.283-.008-.282-.01-.282-.012-.281-.013-.281-.015-.28-.017-.28-.019-.279-.02-.279-.023-.279-.023-.278-.026-.277-.027-.277-.029-.276-.031-.276-.033-.276-.034-.275-.036-.274-.037-.274-.039-.273-.041-.273-.043-.272-.044-.271-.046-.271-.048-.271-.049-.27-.051-.269-.052-.269-.055-.268-.055-.268-.058-.266-.059-.267-.061-.265-.062-.266-.064-.264-.065-.264-.067-.263-.069-.263-.07-.262-.072-.261-.073-.26-.075-.26-.077-.26-.078-.258-.08-.258-.081-.257-.082-.257-.085-.256-.085-.255-.088-.254-.089-.254-.09-.253-.092-.252-.093-.252-.095-.251-.096-.25-.098-.249-.099-.249-.101-.248-.102-.247-.104-.246-.105-.246-.107-.245-.108-.244-.109-.243-.111-.242-.113-.242-.113-.241-.116-.24-.116-.239-.118-.238-.12-.238-.121-.237-.122-.236-.123-.235-.125-.234-.127-.233-.128-.233-.129-.231-.13-.231-.132-.23-.133-.229-.135-.228-.136-.227-.137-.227-.138-.225-.14-.225-.141-.223-.143-.223-.144-.222-.145-.221-.146-.22-.148-.219-.149-.218-.15-.217-.152-.216-.152-.215-.154-.214-.156-.214-.156-.212-.158-.211-.159-.211-.16-.209-.162-.208-.163-.207-.164-.207-.165-.205-.166-.204-.168-.204-.169-.202-.169-.201-.172-.2-.172-.199-.174-.198-.174-.197-.176-.196-.177-.195-.178-.194-.18-.192-.18-.192-.182-.191-.182-.189-.184-.188-.185-.188-.186-.186-.188-.185-.188-.184-.189-.182-.191-.182-.192-.18-.192-.18-.194-.178-.195-.177-.196-.176-.197-.174-.198-.174-.199-.172-.2-.172-.201-.169-.202-.169-.204-.168-.204-.166-.205-.165-.207-.164-.207-.163-.208-.162-.209-.16-.211-.159-.211-.158-.212-.156-.214-.156-.214-.154-.215-.152-.216-.152-.217-.15-.218-.149-.219-.148-.22-.146-.221-.145-.222-.144-.223-.143-.223-.141-.225-.14-.225-.138-.227-.137-.227-.136-.228-.135-.229-.133-.23-.132-.231-.13-.231-.129-.233-.128-.233-.127-.234-.125-.235-.123-.236-.122-.237-.121-.238-.12-.238-.118-.239-.116-.24-.116-.241-.113-.242-.113-.242-.111-.243-.109-.244-.108-.245-.107-.246-.105-.246-.104-.247-.102-.248-.101-.249-.099-.249-.098-.25-.096-.251-.095-.252-.093-.252-.092-.253-.09-.254-.089-.254-.088-.255-.085-.256-.085-.257-.082-.257-.081-.258-.08-.258-.078-.26-.077-.26-.075-.26-.073-.261-.072-.262-.07-.263-.069-.263-.067-.264-.065-.264-.064-.266-.062-.265-.061-.267-.059-.266-.058-.268-.055-.268-.055-.269-.052-.269-.051-.27-.049-.271-.048-.271-.046-.271-.044-.272-.043-.273-.041-.273-.039-.274-.037-.274-.036-.275-.034-.276-.033-.276-.031-.276-.029-.277-.027-.277-.026-.278-.023-.279-.023-.279-.02-.279-.019-.28-.017-.28-.015-.281-.013-.281-.012-.282-.01-.282-.008-.283-.006-.283-.004-.284-.003-.284L-44 0l.001-.284.003-.284.004-.284.006-.283.008-.283.01-.282.012-.282.013-.281.015-.281.017-.28.019-.28.02-.279.023-.279.023-.279.026-.278.027-.277.029-.277.031-.276.033-.276.034-.276.036-.275.037-.274.039-.274.041-.273.043-.273.044-.272.046-.271.048-.271.049-.271.051-.27.052-.269.055-.269.055-.268.058-.268.059-.266.061-.267.062-.265.064-.266.065-.264.067-.264.069-.263.07-.263.072-.262.073-.261.075-.26.077-.26.078-.26.08-.258.081-.258.082-.257.085-.257.085-.256.088-.255.089-.254.09-.254.092-.253.093-.252.095-.252.096-.251.098-.25.099-.249.101-.249.102-.248.104-.247.105-.246.107-.246.108-.245.109-.244.111-.243.113-.242.113-.242.116-.241.116-.24.118-.239.12-.238.121-.238.122-.237.123-.236.125-.235.127-.234.128-.233.129-.233.13-.231.132-.231.133-.23.135-.229.136-.228.137-.227.138-.227.14-.225.141-.225.143-.223.144-.223.145-.222.146-.221.148-.22.149-.219.15-.218.152-.217.152-.216.154-.215.156-.214.156-.214.158-.212.159-.211.16-.211.162-.209.163-.208.164-.207.165-.207.166-.205.168-.204.169-.204.169-.202.172-.201.172-.2.174-.199.174-.198.176-.197.177-.196.178-.195.18-.194.18-.192.182-.192.182-.191.184-.189.185-.188.186-.188.188-.186.188-.185.189-.184.191-.182.192-.182.192-.18.194-.18.195-.178.196-.177.197-.176.198-.174.199-.174.2-.172.201-.172.202-.169.204-.169.204-.168.205-.166.207-.165.207-.164.208-.163.209-.162.211-.16.211-.159.212-.158.214-.156.214-.156.215-.154.216-.152.217-.152.218-.15.219-.149.22-.148.221-.146.222-.145.223-.144.223-.143.225-.141.225-.14.227-.138.227-.137.228-.136.229-.135.23-.133.231-.132.231-.13.233-.129.233-.128.234-.127.235-.125.236-.123.237-.122.238-.121.238-.12.239-.118.24-.116.241-.116.242-.113.242-.113.243-.111.244-.109.245-.108.246-.107.246-.105.247-.104.248-.102.249-.101.249-.099.25-.098.251-.096.252-.095.252-.093.253-.092.254-.09.254-.089.255-.088.256-.085.257-.085.257-.082.258-.081.258-.08.26-.078.26-.077.26-.075.261-.073.262-.072.263-.07.263-.069.264-.067.264-.065.266-.064.265-.062.267-.061.266-.059.268-.058.268-.055.269-.055.269-.052.27-.051.271-.049.271-.048.271-.046.272-.044.273-.043.273-.041.274-.039.274-.037.275-.036.276-.034.276-.033.276-.031.277-.029.277-.027.278-.026.279-.023.279-.023.279-.02.28-.019.28-.017.281-.015.281-.013.282-.012.282-.01.283-.008.283-.006.284-.004.284-.003L0-44l.284.001zm-.556 1.956l-.272.003-.271.004-.27.006-.271.008-.269.009-.27.011-.269.013-.268.014-.268.017-.268.017-.267.02-.266.021-.266.023-.266.024-.265.026-.265.028-.264.03-.264.031-.263.032-.262.035-.263.035-.261.038-.261.039-.261.041-.26.042-.259.044-.259.045-.259.047-.257.049-.258.05-.256.052-.256.053-.256.055-.255.057-.254.057-.254.06-.253.061-.253.063-.252.064-.251.065-.251.067-.25.069-.25.07-.249.072-.248.073-.248.074-.247.076-.246.078-.246.079-.245.08-.244.082-.244.084-.243.084-.242.087-.242.087-.241.09-.24.09-.24.092-.239.094-.238.094-.238.097-.236.097-.236.099-.236.101-.234.102-.234.103-.233.105-.233.106-.231.107-.231.109-.23.11-.229.111-.229.113-.228.114-.227.115-.226.117-.225.118-.225.12-.224.121-.223.122-.222.123-.221.125-.221.126-.219.127-.219.128-.218.13-.217.131-.217.133-.215.133-.215.135-.213.136-.213.138-.212.139-.211.139-.21.142-.21.142-.208.143-.207.145-.207.146-.206.148-.204.148-.204.15-.203.15-.202.152-.201.154-.2.154-.199.156-.198.156-.198.158-.196.159-.195.16-.194.162-.194.162-.192.164-.191.164-.191.166-.189.167-.188.168-.187.17-.187.17-.185.171-.184.173-.183.173-.182.175-.181.176-.18.177-.179.178-.178.179-.177.18-.176.181-.175.182-.173.183-.173.184-.171.185-.17.187-.17.187-.168.188-.167.189-.166.191-.164.191-.164.192-.162.194-.162.194-.16.195-.159.196-.158.198-.156.198-.156.199-.154.2-.154.201-.152.202-.15.203-.15.204-.148.204-.148.206-.146.207-.145.207-.143.208-.142.21-.142.21-.139.211-.139.212-.138.213-.136.213-.135.215-.133.215-.133.217-.131.217-.13.218-.128.219-.127.219-.126.221-.125.221-.123.222-.122.223-.121.224-.12.225-.118.225-.117.226-.115.227-.114.228-.113.229-.111.229-.11.23-.109.231-.107.231-.106.233-.105.233-.103.234-.102.234-.101.236-.099.236-.097.236-.097.238-.094.238-.094.239-.092.24-.09.24-.09.241-.087.242-.087.242-.084.243-.084.244-.082.244-.08.245-.079.246-.078.246-.076.247-.074.248-.073.248-.072.249-.07.25-.069.25-.067.251-.065.251-.064.252-.063.253-.061.253-.06.254-.057.254-.057.255-.055.256-.053.256-.052.256-.05.258-.049.257-.047.259-.045.259-.044.259-.042.26-.041.261-.039.261-.038.261-.035.263-.035.262-.032.263-.031.264-.03.264-.028.265-.026.265-.024.266-.023.266-.021.266-.02.267-.017.268-.017.268-.014.268-.013.269-.011.27-.009.269-.008.271-.006.27-.004.271-.003.272-.001.272.001.272.003.272.004.271.006.27.008.271.009.269.011.27.013.269.014.268.017.268.017.268.02.267.021.266.023.266.024.266.026.265.028.265.03.264.031.264.032.263.035.262.035.263.038.261.039.261.041.261.042.26.044.259.045.259.047.259.049.257.05.258.052.256.053.256.055.256.057.255.057.254.06.254.061.253.063.253.064.252.065.251.067.251.069.25.07.25.072.249.073.248.074.248.076.247.078.246.079.246.08.245.082.244.084.244.084.243.087.242.087.242.09.241.09.24.092.24.094.239.094.238.097.238.097.236.099.236.101.236.102.234.103.234.105.233.106.233.107.231.109.231.11.23.111.229.113.229.114.228.115.227.117.226.118.225.12.225.121.224.122.223.123.222.125.221.126.221.127.219.128.219.13.218.131.217.133.217.133.215.135.215.136.213.138.213.139.212.139.211.142.21.142.21.143.208.145.207.146.207.148.206.148.204.15.204.15.203.152.202.154.201.154.2.156.199.156.198.158.198.159.196.16.195.162.194.162.194.164.192.164.191.166.191.167.189.168.188.17.187.17.187.171.185.173.184.173.183.175.182.176.181.177.18.178.179.179.178.18.177.181.176.182.175.183.173.184.173.185.171.187.17.187.17.188.168.189.167.191.166.191.164.192.164.194.162.194.162.195.16.196.159.198.158.198.156.199.156.2.154.201.154.202.152.203.15.204.15.204.148.206.148.206.146.208.145.208.143.21.142.21.142.211.139.212.139.213.138.213.136.215.135.215.133.217.133.217.131.218.13.219.128.219.127.221.126.221.125.222.123.223.122.224.121.225.12.225.118.226.117.227.115.228.114.229.113.229.111.23.11.231.109.231.107.233.106.233.105.234.103.234.102.236.101.236.099.236.097.238.097.238.094.239.094.24.092.24.09.241.09.242.087.242.087.243.084.244.084.244.082.245.08.246.079.246.078.247.076.248.074.248.073.249.072.25.07.25.069.251.067.251.065.252.064.253.063.253.061.254.06.254.057.255.057.256.055.256.053.256.052.258.05.257.049.259.047.259.045.259.044.26.042.261.041.261.039.261.038.263.035.262.035.263.032.264.031.264.03.265.028.265.026.266.024.266.023.266.021.267.02.268.017.268.017.268.014.269.013.27.011.269.009.271.008.27.006.272.004.271.003.272.001.272-.001.271-.003.272-.004.27-.006.271-.008.269-.009.27-.011.269-.013.268-.014.268-.017.268-.017.267-.02.266-.021.266-.023.266-.024.265-.026.265-.028.264-.03.264-.031.263-.032.262-.035.263-.035.261-.038.261-.039.261-.041.26-.042.259-.044.259-.045.259-.047.257-.049.258-.05.256-.052.256-.053.256-.055.255-.057.254-.057.254-.06.253-.061.253-.063.252-.064.251-.065.251-.067.25-.069.25-.07.249-.072.248-.073.248-.074.247-.076.246-.078.246-.079.245-.08.244-.082.244-.084.243-.084.242-.087.242-.087.241-.09.24-.09.24-.092.239-.094.238-.094.238-.097.236-.097.236-.099.236-.101.234-.102.234-.103.233-.105.233-.106.231-.107.231-.109.23-.11.229-.111.229-.113.228-.114.227-.115.226-.117.225-.118.225-.12.224-.121.223-.122.222-.123.221-.125.221-.126.219-.127.219-.128.218-.13.217-.131.217-.133.215-.133.215-.135.213-.136.213-.138.212-.139.211-.139.21-.142.21-.142.208-.143.208-.145.206-.146.206-.148.204-.148.204-.15.203-.15.202-.152.201-.154.2-.154.199-.156.198-.156.198-.158.196-.159.195-.16.194-.162.194-.162.192-.164.191-.164.191-.166.189-.167.188-.168.187-.17.187-.17.185-.171.184-.173.183-.173.182-.175.181-.176.18-.177.179-.178.178-.179.177-.18.176-.181.175-.182.173-.183.173-.184.171-.185.17-.187.17-.187.168-.188.167-.189.166-.191.164-.191.164-.192.162-.194.162-.194.16-.195.159-.196.158-.198.156-.198.156-.199.154-.2.154-.201.152-.202.15-.203.15-.204.148-.204.148-.206.146-.206.145-.208.143-.208.142-.21.142-.21.139-.211.139-.212.138-.213.136-.213.135-.215.133-.215.133-.217.131-.217.13-.218.128-.219.127-.219.126-.221.125-.221.123-.222.122-.223.121-.224.12-.225.118-.225.117-.226.115-.227.114-.228.113-.229.111-.229.11-.23.109-.231.107-.231.106-.233.105-.233.103-.234.102-.234.101-.236.099-.236.097-.236.097-.238.094-.238.094-.239.092-.24.09-.24.09-.241.087-.242.087-.242.084-.243.084-.244.082-.244.08-.245.079-.246.078-.246.076-.247.074-.248.073-.248.072-.249.07-.25.069-.25.067-.251.065-.251.064-.252.063-.253.061-.253.06-.254.057-.254.057-.255.055-.256.053-.256.052-.256.05-.258.049-.257.047-.259.045-.259.044-.259.042-.26.041-.261.039-.261.038-.261.035-.263.035-.262.032-.263.031-.264.03-.264.028-.265.026-.265.024-.266.023-.266.021-.266.02-.267.017-.268.017-.268.014-.268.013-.269.011-.27.009-.269.008-.271.006-.27.004-.272.003-.271.001-.272-.001-.272-.003-.271-.004-.272-.006-.27-.008-.271-.009-.269-.011-.27-.013-.269-.014-.268-.017-.268-.017-.268-.02-.267-.021-.266-.023-.266-.024-.266-.026-.265-.028-.265-.03-.264-.031-.264-.032-.263-.035-.262-.035-.263-.038-.261-.039-.261-.041-.261-.042-.26-.044-.259-.045-.259-.047-.259-.049-.257-.05-.258-.052-.256-.053-.256-.055-.256-.057-.255-.057-.254-.06-.254-.061-.253-.063-.253-.064-.252-.065-.251-.067-.251-.069-.25-.07-.25-.072-.249-.073-.248-.074-.248-.076-.247-.078-.246-.079-.246-.08-.245-.082-.244-.084-.244-.084-.243-.087-.242-.087-.242-.09-.241-.09-.24-.092-.24-.094-.239-.094-.238-.097-.238-.097-.236-.099-.236-.101-.236-.102-.234-.103-.234-.105-.233-.106-.233-.107-.231-.109-.231-.11-.23-.111-.229-.113-.229-.114-.228-.115-.227-.117-.226-.118-.225-.12-.225-.121-.224-.122-.223-.123-.222-.125-.221-.126-.221-.127-.219-.128-.219-.13-.218-.131-.217-.133-.217-.133-.215-.135-.215-.136-.213-.138-.213-.139-.212-.139-.211-.142-.21-.142-.21-.143-.208-.145-.208-.146-.206-.148-.206-.148-.204-.15-.204-.15-.203-.152-.202-.154-.201-.154-.2-.156-.199-.156-.198-.158-.198-.159-.196-.16-.195-.162-.194-.162-.194-.164-.192-.164-.191-.166-.191-.167-.189-.168-.188-.17-.187-.17-.187-.171-.185-.173-.184-.173-.183-.175-.182-.176-.181-.177-.18-.178-.179-.179-.178-.18-.177-.181-.176-.182-.175-.183-.173-.184-.173-.185-.171-.187-.17-.187-.17-.188-.168-.189-.167-.191-.166-.191-.164-.192-.164-.194-.162-.194-.162-.195-.16-.196-.159-.198-.158-.198-.156-.199-.156-.2-.154-.201-.154-.202-.152-.203-.15-.204-.15-.204-.148-.206-.148-.207-.146-.207-.145-.208-.143-.21-.142-.21-.142-.211-.139-.212-.139-.213-.138-.213-.136-.215-.135-.215-.133-.217-.133-.217-.131-.218-.13-.219-.128-.219-.127-.221-.126-.221-.125-.222-.123-.223-.122-.224-.121-.225-.12-.225-.118-.226-.117-.227-.115-.228-.114-.229-.113-.229-.111-.23-.11-.231-.109-.231-.107-.233-.106-.233-.105-.234-.103-.234-.102-.236-.101-.236-.099-.236-.097-.238-.097-.238-.094-.239-.094-.24-.092-.24-.09-.241-.09-.242-.087-.242-.087-.243-.084-.244-.084-.244-.082-.245-.08-.246-.079-.246-.078-.247-.076-.248-.074-.248-.073-.249-.072-.25-.07-.25-.069-.251-.067-.251-.065-.252-.064-.253-.063-.253-.061-.254-.06-.254-.057-.255-.057-.256-.055-.256-.053-.256-.052-.258-.05-.257-.049-.259-.047-.259-.045-.259-.044-.26-.042-.261-.041-.261-.039-.261-.038-.263-.035-.262-.035-.263-.032-.264-.031-.264-.03-.265-.028-.265-.026-.266-.024-.266-.023-.266-.021-.267-.02-.268-.017-.268-.017-.268-.014-.269-.013-.27-.011-.269-.009-.271-.008-.27-.006-.271-.004-.272-.003L0-42.044l-.272.001z" fill="#323232"/></g></svg>