<svg width="80" height="80" xmlns="http://www.w3.org/2000/svg" fill-rule="evenodd" clip-rule="evenodd" stroke-linejoin="round" stroke-miterlimit="2"><g transform="matrix(.9091 0 0 .9091 40 40)"><circle r="44" fill="#323232"/><clipPath id="a"><circle r="44"/></clipPath><g clip-path="url(#a)"><g transform="matrix(.22 0 0 .22275 -44 -44)"><path d="M0 200V0h400v400H0V200z" fill="#323232" fill-rule="nonzero"/><clipPath id="b"><path d="M0 200V0h400v400H0V200z" clip-rule="nonzero"/></clipPath><g clip-path="url(#b)"><path d="M0 202.47V0h410v404.94H0V202.47zm379.25 157.927c0-17.21 0-17.21-9.225-24.297-5.125-4.05-11.275-9.11-13.325-11.136-5.125-4.049-20.5-15.185-21.525-15.185-2.05 0-39.975-19.235-47.15-23.284-2.05-2.025-6.15-4.05-8.2-4.05-3.075-1.012-6.15-3.036-8.2-4.049-2.05-2.024-5.125-3.037-7.175-4.05-2.05-1.011-4.1-2.024-5.125-3.036-2.05-4.05-1.025-37.457 2.05-54.667 1.025-8.099 3.075-10.124 9.225-10.124 2.05-1.012 5.125-2.024 6.15-3.037 2.05-1.012 6.15-13.16 10.25-30.37 2.05-10.124 1.025-17.21-3.075-20.247-1.025-1.012-3.075-3.037-4.1-3.037-1.025-1.013-1.025-3.037 0-10.124 0-5.061 1.025-10.123 1.025-12.148 2.05-8.099 1.025-30.37-3.075-42.519-1.025-5.061-9.225-16.197-15.375-22.271-6.15-7.087-15.375-12.148-21.525-14.173-3.075-1.013-10.25-4.05-15.375-7.087-9.225-4.049-9.225-4.049-24.6-5.061-12.3 0-15.375 0-21.525 2.024-23.575 7.087-36.9 14.173-50.225 27.334-8.2 9.11-12.3 16.197-13.325 24.296-1.025 5.062 0 39.482 2.05 53.655 0 8.099 0 8.099-3.075 10.123-4.1 2.025-4.1 2.025-4.1 9.111 0 4.05 1.025 10.124 2.05 12.149 0 3.037 2.05 8.098 3.075 11.135 1.025 8.1 5.125 18.223 7.175 20.247 1.025 1.013 3.075 2.025 5.125 3.037 4.1 1.013 4.1 2.025 6.15 10.124 2.05 5.062 4.1 11.136 5.125 15.185 1.025 4.05 1.025 9.111 1.025 21.26 1.025 16.197 1.025 16.197-3.075 19.234-3.075 2.025-6.15 4.05-7.175 4.05-4.1 1.012-12.3 5.061-17.425 8.098-2.05 2.025-8.2 5.062-15.375 7.087C91.225 297.63 82 301.68 77.9 304.717c-5.125 3.037-17.425 9.112-27.675 14.173-19.475 10.124-19.475 10.124-19.475 33.408 0 13.16 0 24.296 1.025 24.296 0 1.013 77.9 28.346 173.225 28.346l174.25-27.333v-17.21z" fill="#fefefe" fill-rule="nonzero"/></g></g></g><path d="M.284-43.999l.284.003.284.004.283.006.283.008.282.01.282.012.281.013.281.015.28.017.28.019.279.02.279.023.279.023.278.026.277.027.277.029.276.031.276.033.276.034.275.036.274.037.274.039.273.041.273.043.272.044.271.046.271.048.271.049.27.051.269.052.269.055.268.055.268.058.266.059.267.061.265.062.266.064.264.065.264.067.263.069.263.07.262.072.261.073.26.075.26.077.26.078.258.08.258.081.257.082.257.085.256.085.255.088.254.089.254.09.253.092.252.093.252.095.251.096.25.098.249.099.249.101.248.102.247.104.246.105.246.107.245.108.244.109.243.111.242.113.242.113.241.116.24.116.239.118.238.12.238.121.237.122.236.123.235.125.234.127.233.128.233.129.231.13.231.132.23.133.229.135.228.136.227.137.227.138.225.14.225.141.223.143.223.144.222.145.221.146.22.148.219.149.218.15.217.152.216.152.215.154.214.156.214.156.212.158.211.159.211.16.209.162.208.163.207.164.207.165.205.166.204.168.204.169.202.169.201.172.2.172.199.174.198.174.197.176.196.177.195.178.194.18.192.18.192.182.191.182.189.184.188.185.188.186.186.188.185.188.184.189.182.191.182.192.18.192.18.194.178.195.177.196.176.197.174.198.174.199.172.2.172.201.169.202.169.204.168.204.166.205.165.207.164.207.163.208.162.209.16.211.159.211.158.212.156.214.156.214.154.215.152.216.152.217.15.218.149.219.148.22.146.221.145.222.144.223.143.223.141.225.14.225.138.227.137.227.136.228.135.229.133.23.132.231.13.231.129.233.128.233.127.234.125.235.123.236.122.237.121.238.12.238.118.239.116.24.116.241.113.242.113.242.111.243.109.244.108.245.107.246.105.246.104.247.102.248.101.249.099.249.098.25.096.251.095.252.093.252.092.253.09.254.089.254.088.255.085.256.085.257.082.257.081.258.08.258.078.26.077.26.075.26.073.261.072.262.07.263.069.263.067.264.065.264.064.266.062.265.061.267.059.266.058.268.055.268.055.269.052.269.051.27.049.271.048.271.046.271.044.272.043.273.041.273.039.274.037.274.036.275.034.276.033.276.031.276.029.277.027.277.026.278.023.279.023.279.02.279.019.28.017.28.015.281.013.281.012.282.01.282.008.283.006.283.004.284.003.284L44 0l-.001.284-.003.284-.004.284-.006.283-.008.283-.01.282-.012.282-.013.281-.015.281-.017.28-.019.28-.02.279-.023.279-.023.279-.026.278-.027.277-.029.277-.031.276-.033.276-.034.276-.036.275-.037.274-.039.274-.041.273-.043.273-.044.272-.046.271-.048.271-.049.271-.051.27-.052.269-.055.269-.055.268-.058.268-.059.266-.061.267-.062.265-.064.266-.065.264-.067.264-.069.263-.07.263-.072.262-.073.261-.075.26-.077.26-.078.26-.08.258-.081.258-.082.257-.085.257-.085.256-.088.255-.089.254-.09.254-.092.253-.093.252-.095.252-.096.251-.098.25-.099.249-.101.249-.102.248-.104.247-.105.246-.107.246-.108.245-.109.244-.111.243-.113.242-.113.242-.116.241-.116.24-.118.239-.12.238-.121.238-.122.237-.123.236-.125.235-.127.234-.128.233-.129.233-.13.231-.132.231-.133.23-.135.229-.136.228-.137.227-.138.227-.14.225-.141.225-.143.223-.144.223-.145.222-.146.221-.148.22-.149.219-.15.218-.152.217-.152.216-.154.215-.156.214-.156.214-.158.212-.159.211-.16.211-.162.209-.163.208-.164.207-.165.207-.166.205-.168.204-.169.204-.169.202-.172.201-.172.2-.174.199-.174.198-.176.197-.177.196-.178.195-.18.194-.18.192-.182.192-.182.191-.184.189-.185.188-.186.188-.188.186-.188.185-.189.184-.191.182-.192.182-.192.18-.194.18-.195.178-.196.177-.197.176-.198.174-.199.174-.2.172-.201.172-.202.169-.204.169-.204.168-.205.166-.207.165-.207.164-.208.163-.209.162-.211.16-.211.159-.212.158-.214.156-.214.156-.215.154-.216.152-.217.152-.218.15-.219.149-.22.148-.221.146-.222.145-.223.144-.223.143-.225.141-.225.14-.227.138-.227.137-.228.136-.229.135-.23.133-.231.132-.231.13-.233.129-.233.128-.234.127-.235.125-.236.123-.237.122-.238.121-.238.12-.239.118-.24.116-.241.116-.242.113-.242.113-.243.111-.244.109-.245.108-.246.107-.246.105-.247.104-.248.102-.249.101-.249.099-.25.098-.251.096-.252.095-.252.093-.253.092-.254.09-.254.089-.255.088-.256.085-.257.085-.257.082-.258.081-.258.08-.26.078-.26.077-.26.075-.261.073-.262.072-.263.07-.263.069-.264.067-.264.065-.266.064-.265.062-.267.061-.266.059-.268.058-.268.055-.269.055-.269.052-.27.051-.271.049-.271.048-.271.046-.272.044-.273.043-.273.041-.274.039-.274.037-.275.036-.276.034-.276.033-.276.031-.277.029-.277.027-.278.026-.279.023-.279.023-.279.02-.28.019-.28.017-.281.015-.281.013-.282.012-.282.01-.283.008-.283.006-.284.004-.284.003L0 44l-.284-.001-.284-.003-.284-.004-.283-.006-.283-.008-.282-.01-.282-.012-.281-.013-.281-.015-.28-.017-.28-.019-.279-.02-.279-.023-.279-.023-.278-.026-.277-.027-.277-.029-.276-.031-.276-.033-.276-.034-.275-.036-.274-.037-.274-.039-.273-.041-.273-.043-.272-.044-.271-.046-.271-.048-.271-.049-.27-.051-.269-.052-.269-.055-.268-.055-.268-.058-.266-.059-.267-.061-.265-.062-.266-.064-.264-.065-.264-.067-.263-.069-.263-.07-.262-.072-.261-.073-.26-.075-.26-.077-.26-.078-.258-.08-.258-.081-.257-.082-.257-.085-.256-.085-.255-.088-.254-.089-.254-.09-.253-.092-.252-.093-.252-.095-.251-.096-.25-.098-.249-.099-.249-.101-.248-.102-.247-.104-.246-.105-.246-.107-.245-.108-.244-.109-.243-.111-.242-.113-.242-.113-.241-.116-.24-.116-.239-.118-.238-.12-.238-.121-.237-.122-.236-.123-.235-.125-.234-.127-.233-.128-.233-.129-.231-.13-.231-.132-.23-.133-.229-.135-.228-.136-.227-.137-.227-.138-.225-.14-.225-.141-.223-.143-.223-.144-.222-.145-.221-.146-.22-.148-.219-.149-.218-.15-.217-.152-.216-.152-.215-.154-.214-.156-.214-.156-.212-.158-.211-.159-.211-.16-.209-.162-.208-.163-.207-.164-.207-.165-.205-.166-.204-.168-.204-.169-.202-.169-.201-.172-.2-.172-.199-.174-.198-.174-.197-.176-.196-.177-.195-.178-.194-.18-.192-.18-.192-.182-.191-.182-.189-.184-.188-.185-.188-.186-.186-.188-.185-.188-.184-.189-.182-.191-.182-.192-.18-.192-.18-.194-.178-.195-.177-.196-.176-.197-.174-.198-.174-.199-.172-.2-.172-.201-.169-.202-.169-.204-.168-.204-.166-.205-.165-.207-.164-.207-.163-.208-.162-.209-.16-.211-.159-.211-.158-.212-.156-.214-.156-.214-.154-.215-.152-.216-.152-.217-.15-.218-.149-.219-.148-.22-.146-.221-.145-.222-.144-.223-.143-.223-.141-.225-.14-.225-.138-.227-.137-.227-.136-.228-.135-.229-.133-.23-.132-.231-.13-.231-.129-.233-.128-.233-.127-.234-.125-.235-.123-.236-.122-.237-.121-.238-.12-.238-.118-.239-.116-.24-.116-.241-.113-.242-.113-.242-.111-.243-.109-.244-.108-.245-.107-.246-.105-.246-.104-.247-.102-.248-.101-.249-.099-.249-.098-.25-.096-.251-.095-.252-.093-.252-.092-.253-.09-.254-.089-.254-.088-.255-.085-.256-.085-.257-.082-.257-.081-.258-.08-.258-.078-.26-.077-.26-.075-.26-.073-.261-.072-.262-.07-.263-.069-.263-.067-.264-.065-.264-.064-.266-.062-.265-.061-.267-.059-.266-.058-.268-.055-.268-.055-.269-.052-.269-.051-.27-.049-.271-.048-.271-.046-.271-.044-.272-.043-.273-.041-.273-.039-.274-.037-.274-.036-.275-.034-.276-.033-.276-.031-.276-.029-.277-.027-.277-.026-.278-.023-.279-.023-.279-.02-.279-.019-.28-.017-.28-.015-.281-.013-.281-.012-.282-.01-.282-.008-.283-.006-.283-.004-.284-.003-.284L-44 0l.001-.284.003-.284.004-.284.006-.283.008-.283.01-.282.012-.282.013-.281.015-.281.017-.28.019-.28.02-.279.023-.279.023-.279.026-.278.027-.277.029-.277.031-.276.033-.276.034-.276.036-.275.037-.274.039-.274.041-.273.043-.273.044-.272.046-.271.048-.271.049-.271.051-.27.052-.269.055-.269.055-.268.058-.268.059-.266.061-.267.062-.265.064-.266.065-.264.067-.264.069-.263.07-.263.072-.262.073-.261.075-.26.077-.26.078-.26.08-.258.081-.258.082-.257.085-.257.085-.256.088-.255.089-.254.09-.254.092-.253.093-.252.095-.252.096-.251.098-.25.099-.249.101-.249.102-.248.104-.247.105-.246.107-.246.108-.245.109-.244.111-.243.113-.242.113-.242.116-.241.116-.24.118-.239.12-.238.121-.238.122-.237.123-.236.125-.235.127-.234.128-.233.129-.233.13-.231.132-.231.133-.23.135-.229.136-.228.137-.227.138-.227.14-.225.141-.225.143-.223.144-.223.145-.222.146-.221.148-.22.149-.219.15-.218.152-.217.152-.216.154-.215.156-.214.156-.214.158-.212.159-.211.16-.211.162-.209.163-.208.164-.207.165-.207.166-.205.168-.204.169-.204.169-.202.172-.201.172-.2.174-.199.174-.198.176-.197.177-.196.178-.195.18-.194.18-.192.182-.192.182-.191.184-.189.185-.188.186-.188.188-.186.188-.185.189-.184.191-.182.192-.182.192-.18.194-.18.195-.178.196-.177.197-.176.198-.174.199-.174.2-.172.201-.172.202-.169.204-.169.204-.168.205-.166.207-.165.207-.164.208-.163.209-.162.211-.16.211-.159.212-.158.214-.156.214-.156.215-.154.216-.152.217-.152.218-.15.219-.149.22-.148.221-.146.222-.145.223-.144.223-.143.225-.141.225-.14.227-.138.227-.137.228-.136.229-.135.23-.133.231-.132.231-.13.233-.129.233-.128.234-.127.235-.125.236-.123.237-.122.238-.121.238-.12.239-.118.24-.116.241-.116.242-.113.242-.113.243-.111.244-.109.245-.108.246-.107.246-.105.247-.104.248-.102.249-.101.249-.099.25-.098.251-.096.252-.095.252-.093.253-.092.254-.09.254-.089.255-.088.256-.085.257-.085.257-.082.258-.081.258-.08.26-.078.26-.077.26-.075.261-.073.262-.072.263-.07.263-.069.264-.067.264-.065.266-.064.265-.062.267-.061.266-.059.268-.058.268-.055.269-.055.269-.052.27-.051.271-.049.271-.048.271-.046.272-.044.273-.043.273-.041.274-.039.274-.037.275-.036.276-.034.276-.033.276-.031.277-.029.277-.027.278-.026.279-.023.279-.023.279-.02.28-.019.28-.017.281-.015.281-.013.282-.012.282-.01.283-.008.283-.006.284-.004.284-.003L0-44l.284.001zm-.554 2.2l-.27.002-.27.005-.269.006-.269.007-.268.01-.268.011-.267.012-.267.015-.267.016-.266.018-.265.019-.265.021-.265.023-.264.024-.264.026-.263.028-.262.029-.262.031-.262.032-.261.034-.261.036-.26.037-.259.039-.259.041-.259.042-.258.043-.257.045-.257.047-.256.049-.256.049-.255.052-.255.053-.254.054-.254.056-.252.058-.253.059-.251.061-.252.062-.25.064-.25.065-.249.067-.249.068-.248.07-.248.071-.247.072-.246.075-.245.075-.245.077-.244.079-.244.08-.243.081-.242.083-.242.084-.241.086-.24.087-.24.089-.239.09-.238.092-.237.092-.237.095-.236.095-.236.098-.234.098-.234.1-.234.101-.232.103-.232.104-.231.105-.23.107-.23.108-.228.109-.228.111-.227.112-.227.114-.226.114-.224.117-.224.117-.224.119-.222.12-.222.121-.221.123-.22.124-.219.125-.218.127-.218.127-.217.129-.216.131-.215.131-.214.133-.213.134-.213.136-.211.136-.211.138-.21.139-.209.141-.208.141-.207.143-.206.144-.206.145-.204.146-.204.148-.202.149-.202.15-.201.151-.2.152-.199.154-.198.154-.197.156-.196.157-.195.158-.194.159-.193.161-.192.161-.191.163-.191.164-.189.165-.188.166-.187.167-.186.168-.186.169-.184.171-.183.171-.182.173-.181.174-.18.174-.179.176-.178.177-.177.178-.176.179-.174.18-.174.181-.173.182-.171.183-.171.184-.169.186-.168.186-.167.187-.166.188-.165.189-.164.191-.163.191-.161.192-.161.193-.159.194-.158.195-.157.196-.156.197-.154.198-.154.199-.152.2-.151.201-.15.202-.149.202-.148.204-.146.204-.145.206-.144.206-.143.207-.141.208-.141.209-.139.21-.138.211-.136.211-.136.213-.134.213-.133.214-.131.215-.131.216-.129.217-.127.218-.127.218-.125.219-.124.22-.123.221-.121.222-.12.222-.119.224-.117.224-.117.224-.114.226-.114.227-.112.227-.111.228-.109.228-.108.23-.107.23-.105.231-.104.232-.103.232-.101.234-.1.234-.098.234-.098.236-.095.236-.095.237-.092.237-.092.238-.09.239-.089.24-.087.24-.086.241-.084.242-.083.242-.081.243-.08.244-.079.244-.077.245-.075.245-.075.246-.072.247-.071.248-.07.248-.068.249-.067.249-.065.25-.064.25-.062.252-.061.251-.059.253-.058.252-.056.254-.054.254-.053.255-.052.255-.049.256-.049.256-.047.257-.045.257-.043.258-.042.259-.041.259-.039.259-.037.26-.036.261-.034.261-.032.262-.031.262-.029.262-.028.263-.026.264-.024.264-.023.265-.021.265-.019.265-.018.266-.016.267-.015.267-.012.267-.011.268-.01.268-.007.269-.006.269-.005.27-.002.27-.001.27.001.27.002.27.005.27.006.269.007.269.01.268.011.268.012.267.015.267.016.267.018.266.019.265.021.265.023.265.024.264.026.264.028.263.029.262.031.262.032.262.034.261.036.261.037.26.039.259.041.259.042.259.043.258.045.257.047.257.049.256.049.256.052.255.053.255.054.254.056.254.058.252.059.253.061.251.062.252.064.25.065.25.067.249.068.249.07.248.071.248.072.247.075.246.075.245.077.245.079.244.08.244.081.243.083.242.084.242.086.241.087.24.089.24.09.239.092.238.092.237.095.237.095.236.098.236.098.234.1.234.101.234.103.232.104.232.105.231.107.23.108.23.109.228.111.228.112.227.114.227.114.226.117.224.117.224.119.224.12.222.121.222.123.221.124.22.125.219.127.218.127.218.129.217.131.216.131.215.133.214.134.213.136.213.136.211.138.211.139.21.141.209.141.208.143.207.144.206.145.206.146.204.148.204.149.202.15.202.151.201.152.2.154.199.154.198.156.197.157.196.158.195.159.194.161.193.161.192.163.191.164.191.165.189.166.188.167.187.168.186.169.186.171.184.171.183.173.182.174.181.174.18.176.179.177.178.178.177.179.176.18.174.181.174.182.173.183.171.184.171.186.169.186.168.187.167.188.166.189.165.191.164.191.163.192.161.193.161.194.159.195.158.196.157.197.156.198.154.199.154.2.152.201.151.202.15.202.149.204.148.204.146.206.145.206.144.207.143.208.141.209.141.21.139.211.138.211.136.213.136.213.134.214.133.215.131.216.131.217.129.218.127.218.127.219.125.22.124.221.123.222.121.222.12.224.119.224.117.224.117.226.114.227.114.227.112.228.111.228.109.23.108.23.107.231.105.232.104.232.103.234.101.234.1.234.098.236.098.236.095.237.095.237.092.238.092.239.09.24.089.24.087.241.086.242.084.242.083.243.081.244.08.244.079.245.077.245.075.246.075.247.072.248.071.248.07.249.068.249.067.25.065.25.064.251.062.252.061.253.059.252.058.254.056.254.054.255.053.255.052.256.049.256.049.257.047.257.045.258.043.259.042.259.041.259.039.26.037.261.036.261.034.262.032.262.031.262.029.264.028.263.026.264.024.265.023.265.021.265.019.266.018.267.016.267.015.267.012.268.011.268.01.269.007.269.006.27.005.27.002.27.001.27-.001.27-.002.27-.005.269-.006.269-.007.268-.01.268-.011.267-.012.267-.015.267-.016.266-.018.265-.019.265-.021.265-.023.264-.024.263-.026.264-.028.262-.029.262-.031.262-.032.261-.034.261-.036.26-.037.259-.039.259-.041.259-.042.258-.043.257-.045.257-.047.256-.049.256-.049.255-.052.255-.053.254-.054.254-.056.252-.058.253-.059.252-.061.251-.062.25-.064.25-.065.249-.067.249-.068.248-.07.248-.071.247-.072.246-.075.245-.075.245-.077.244-.079.244-.08.243-.081.242-.083.242-.084.241-.086.24-.087.24-.089.239-.09.238-.092.237-.092.237-.095.236-.095.236-.098.234-.098.234-.1.234-.101.232-.103.232-.104.231-.105.23-.107.23-.108.228-.109.228-.111.227-.112.227-.114.226-.114.224-.117.224-.117.224-.119.222-.12.222-.121.221-.123.22-.124.219-.125.218-.127.218-.127.217-.129.216-.131.215-.131.214-.133.213-.134.213-.136.211-.136.211-.138.21-.139.209-.141.208-.141.207-.143.206-.144.206-.145.204-.146.204-.148.202-.149.202-.15.201-.151.2-.152.199-.154.198-.154.197-.156.196-.157.195-.158.194-.159.193-.161.192-.161.191-.163.191-.164.189-.165.188-.166.187-.167.186-.168.186-.169.184-.171.183-.171.182-.173.181-.174.18-.174.179-.176.178-.177.177-.178.176-.179.174-.18.174-.181.173-.182.171-.183.171-.184.169-.186.168-.186.167-.187.166-.188.165-.189.164-.191.163-.191.161-.192.161-.193.159-.194.158-.195.157-.196.156-.197.154-.198.154-.199.152-.2.151-.201.15-.202.149-.202.148-.204.146-.204.145-.206.144-.206.143-.207.141-.208.141-.209.139-.21.138-.211.136-.211.136-.213.134-.213.133-.214.131-.215.131-.216.129-.217.127-.218.127-.218.125-.219.124-.22.123-.221.121-.222.12-.222.119-.224.117-.224.117-.224.114-.226.114-.227.112-.227.111-.228.109-.228.108-.23.107-.23.105-.231.104-.232.103-.232.101-.234.1-.234.098-.234.098-.236.095-.236.095-.237.092-.237.092-.238.09-.239.089-.24.087-.24.086-.241.084-.242.083-.242.081-.243.08-.244.079-.244.077-.245.075-.245.075-.246.072-.247.071-.248.07-.248.068-.249.067-.249.065-.25.064-.25.062-.251.061-.252.059-.253.058-.252.056-.254.054-.254.053-.255.052-.255.049-.256.049-.256.047-.257.045-.257.043-.258.042-.259.041-.259.039-.259.037-.26.036-.261.034-.261.032-.262.031-.262.029-.262.028-.264.026-.263.024-.264.023-.265.021-.265.019-.265.018-.266.016-.267.015-.267.012-.267.011-.268.01-.268.007-.269.006-.269.005-.27.002-.27L41.8 0l-.001-.27-.002-.27-.005-.27-.006-.269-.007-.269-.01-.268-.011-.268-.012-.267-.015-.267-.016-.267-.018-.266-.019-.265-.021-.265-.023-.265-.024-.264-.026-.263-.028-.264-.029-.262-.031-.262-.032-.262-.034-.261-.036-.261-.037-.26-.039-.259-.041-.259-.042-.259-.043-.258-.045-.257-.047-.257-.049-.256-.049-.256-.052-.255-.053-.255-.054-.254-.056-.254-.058-.252-.059-.253-.061-.252-.062-.251-.064-.25-.065-.25-.067-.249-.068-.249-.07-.248-.071-.248-.072-.247-.075-.246-.075-.245-.077-.245-.079-.244-.08-.244-.081-.243-.083-.242-.084-.242-.086-.241-.087-.24-.089-.24-.09-.239-.092-.238-.092-.237-.095-.237-.095-.236-.098-.236-.098-.234-.1-.234-.101-.234-.103-.232-.104-.232-.105-.231-.107-.23-.108-.23-.109-.228-.111-.228-.112-.227-.114-.227-.114-.226-.117-.224-.117-.224-.119-.224-.12-.222-.121-.222-.123-.221-.124-.22-.125-.219-.127-.218-.127-.218-.129-.217-.131-.216-.131-.215-.133-.214-.134-.213-.136-.213-.136-.211-.138-.211-.139-.21-.141-.209-.141-.208-.143-.207-.144-.206-.145-.206-.146-.204-.148-.204-.149-.202-.15-.202-.151-.201-.152-.2-.154-.199-.154-.198-.156-.197-.157-.196-.158-.195-.159-.194-.161-.193-.161-.192-.163-.191-.164-.191-.165-.189-.166-.188-.167-.187-.168-.186-.169-.186-.171-.184-.171-.183-.173-.182-.174-.181-.174-.18-.176-.179-.177-.178-.178-.177-.179-.176-.18-.174-.181-.174-.182-.173-.183-.171-.184-.171-.186-.169-.186-.168-.187-.167-.188-.166-.189-.165-.191-.164-.191-.163-.192-.161-.193-.161-.194-.159-.195-.158-.196-.157-.197-.156-.198-.154-.199-.154-.2-.152-.201-.151-.202-.15-.202-.149-.204-.148-.204-.146-.206-.145-.206-.144-.207-.143-.208-.141-.209-.141-.21-.139-.211-.138-.211-.136-.213-.136-.213-.134-.214-.133-.215-.131-.216-.131-.217-.129-.218-.127-.218-.127-.219-.125-.22-.124-.221-.123-.222-.121-.222-.12-.224-.119-.224-.117-.224-.117-.226-.114-.227-.114-.227-.112-.228-.111-.228-.109-.23-.108-.23-.107-.231-.105-.232-.104-.232-.103-.234-.101-.234-.1-.234-.098-.236-.098-.236-.095-.237-.095-.237-.092-.238-.092-.239-.09-.24-.089-.24-.087-.241-.086-.242-.084-.242-.083-.243-.081-.244-.08-.244-.079-.245-.077-.245-.075-.246-.075-.247-.072-.248-.071-.248-.07-.249-.068-.249-.067-.25-.065-.25-.064-.252-.062-.251-.061-.253-.059-.252-.058-.254-.056-.254-.054-.255-.053-.255-.052-.256-.049-.256-.049-.257-.047-.257-.045-.258-.043-.259-.042-.259-.041-.259-.039-.26-.037-.261-.036-.261-.034-.262-.032-.262-.031-.262-.029-.263-.028-.264-.026-.264-.024-.265-.023-.265-.021-.265-.019-.266-.018-.267-.016-.267-.015-.267-.012-.268-.011-.268-.01-.269-.007-.269-.006-.27-.005-.27-.002L0-41.8l-.27.001z" fill="#323232"/></g></svg>