<svg width="60" height="60" xmlns="http://www.w3.org/2000/svg" fill-rule="evenodd" clip-rule="evenodd" stroke-linejoin="round" stroke-miterlimit="2"><g transform="matrix(.68182 0 0 .68182 30 30)"><circle r="44" fill="#323232"/><clipPath id="a"><circle r="44"/></clipPath><g clip-path="url(#a)"><g transform="matrix(.22 0 0 .22275 -44 -44)"><path d="M0 200V0h400v400H0V200z" fill="#323232" fill-rule="nonzero"/><clipPath id="b"><path d="M0 200V0h400v400H0V200z" clip-rule="nonzero"/></clipPath><g clip-path="url(#b)"><path d="M0 202.47V0h410v404.94H0V202.47zm379.25 157.927c0-17.21 0-17.21-9.225-24.297-5.125-4.05-11.275-9.11-13.325-11.136-5.125-4.049-20.5-15.185-21.525-15.185-2.05 0-39.975-19.235-47.15-23.284-2.05-2.025-6.15-4.05-8.2-4.05-3.075-1.012-6.15-3.036-8.2-4.049-2.05-2.024-5.125-3.037-7.175-4.05-2.05-1.011-4.1-2.024-5.125-3.036-2.05-4.05-1.025-37.457 2.05-54.667 1.025-8.099 3.075-10.124 9.225-10.124 2.05-1.012 5.125-2.024 6.15-3.037 2.05-1.012 6.15-13.16 10.25-30.37 2.05-10.124 1.025-17.21-3.075-20.247-1.025-1.012-3.075-3.037-4.1-3.037-1.025-1.013-1.025-3.037 0-10.124 0-5.061 1.025-10.123 1.025-12.148 2.05-8.099 1.025-30.37-3.075-42.519-1.025-5.061-9.225-16.197-15.375-22.271-6.15-7.087-15.375-12.148-21.525-14.173-3.075-1.013-10.25-4.05-15.375-7.087-9.225-4.049-9.225-4.049-24.6-5.061-12.3 0-15.375 0-21.525 2.024-23.575 7.087-36.9 14.173-50.225 27.334-8.2 9.11-12.3 16.197-13.325 24.296-1.025 5.062 0 39.482 2.05 53.655 0 8.099 0 8.099-3.075 10.123-4.1 2.025-4.1 2.025-4.1 9.111 0 4.05 1.025 10.124 2.05 12.149 0 3.037 2.05 8.098 3.075 11.135 1.025 8.1 5.125 18.223 7.175 20.247 1.025 1.013 3.075 2.025 5.125 3.037 4.1 1.013 4.1 2.025 6.15 10.124 2.05 5.062 4.1 11.136 5.125 15.185 1.025 4.05 1.025 9.111 1.025 21.26 1.025 16.197 1.025 16.197-3.075 19.234-3.075 2.025-6.15 4.05-7.175 4.05-4.1 1.012-12.3 5.061-17.425 8.098-2.05 2.025-8.2 5.062-15.375 7.087C91.225 297.63 82 301.68 77.9 304.717c-5.125 3.037-17.425 9.112-27.675 14.173-19.475 10.124-19.475 10.124-19.475 33.408 0 13.16 0 24.296 1.025 24.296 0 1.013 77.9 28.346 173.225 28.346l174.25-27.333v-17.21z" fill="#fefefe" fill-rule="nonzero"/></g></g></g><path d="M.284-43.999l.284.003.284.004.283.006.283.008.282.01.282.012.281.013.281.015.28.017.28.019.279.02.279.023.279.023.278.026.277.027.277.029.276.031.276.033.276.034.275.036.274.037.274.039.273.041.273.043.272.044.271.046.271.048.271.049.27.051.269.052.269.055.268.055.268.058.266.059.267.061.265.062.266.064.264.065.264.067.263.069.263.07.262.072.261.073.26.075.26.077.26.078.258.08.258.081.257.082.257.085.256.085.255.088.254.089.254.09.253.092.252.093.252.095.251.096.25.098.249.099.249.101.248.102.247.104.246.105.246.107.245.108.244.109.243.111.242.113.242.113.241.116.24.116.239.118.238.12.238.121.237.122.236.123.235.125.234.127.233.128.233.129.231.13.231.132.23.133.229.135.228.136.227.137.227.138.225.14.225.141.223.143.223.144.222.145.221.146.22.148.219.149.218.15.217.152.216.152.215.154.214.156.214.156.212.158.211.159.211.16.209.162.208.163.207.164.207.165.205.166.204.168.204.169.202.169.201.172.2.172.199.174.198.174.197.176.196.177.195.178.194.18.192.18.192.182.191.182.189.184.188.185.188.186.186.188.185.188.184.189.182.191.182.192.18.192.18.194.178.195.177.196.176.197.174.198.174.199.172.2.172.201.169.202.169.204.168.204.166.205.165.207.164.207.163.208.162.209.16.211.159.211.158.212.156.214.156.214.154.215.152.216.152.217.15.218.149.219.148.22.146.221.145.222.144.223.143.223.141.225.14.225.138.227.137.227.136.228.135.229.133.23.132.231.13.231.129.233.128.233.127.234.125.235.123.236.122.237.121.238.12.238.118.239.116.24.116.241.113.242.113.242.111.243.109.244.108.245.107.246.105.246.104.247.102.248.101.249.099.249.098.25.096.251.095.252.093.252.092.253.09.254.089.254.088.255.085.256.085.257.082.257.081.258.08.258.078.26.077.26.075.26.073.261.072.262.07.263.069.263.067.264.065.264.064.266.062.265.061.267.059.266.058.268.055.268.055.269.052.269.051.27.049.271.048.271.046.271.044.272.043.273.041.273.039.274.037.274.036.275.034.276.033.276.031.276.029.277.027.277.026.278.023.279.023.279.02.279.019.28.017.28.015.281.013.281.012.282.01.282.008.283.006.283.004.284.003.284L44 0l-.001.284-.003.284-.004.284-.006.283-.008.283-.01.282-.012.282-.013.281-.015.281-.017.28-.019.28-.02.279-.023.279-.023.279-.026.278-.027.277-.029.277-.031.276-.033.276-.034.276-.036.275-.037.274-.039.274-.041.273-.043.273-.044.272-.046.271-.048.271-.049.271-.051.27-.052.269-.055.269-.055.268-.058.268-.059.266-.061.267-.062.265-.064.266-.065.264-.067.264-.069.263-.07.263-.072.262-.073.261-.075.26-.077.26-.078.26-.08.258-.081.258-.082.257-.085.257-.085.256-.088.255-.089.254-.09.254-.092.253-.093.252-.095.252-.096.251-.098.25-.099.249-.101.249-.102.248-.104.247-.105.246-.107.246-.108.245-.109.244-.111.243-.113.242-.113.242-.116.241-.116.24-.118.239-.12.238-.121.238-.122.237-.123.236-.125.235-.127.234-.128.233-.129.233-.13.231-.132.231-.133.23-.135.229-.136.228-.137.227-.138.227-.14.225-.141.225-.143.223-.144.223-.145.222-.146.221-.148.22-.149.219-.15.218-.152.217-.152.216-.154.215-.156.214-.156.214-.158.212-.159.211-.16.211-.162.209-.163.208-.164.207-.165.207-.166.205-.168.204-.169.204-.169.202-.172.201-.172.2-.174.199-.174.198-.176.197-.177.196-.178.195-.18.194-.18.192-.182.192-.182.191-.184.189-.185.188-.186.188-.188.186-.188.185-.189.184-.191.182-.192.182-.192.18-.194.18-.195.178-.196.177-.197.176-.198.174-.199.174-.2.172-.201.172-.202.169-.204.169-.204.168-.205.166-.207.165-.207.164-.208.163-.209.162-.211.16-.211.159-.212.158-.214.156-.214.156-.215.154-.216.152-.217.152-.218.15-.219.149-.22.148-.221.146-.222.145-.223.144-.223.143-.225.141-.225.14-.227.138-.227.137-.228.136-.229.135-.23.133-.231.132-.231.13-.233.129-.233.128-.234.127-.235.125-.236.123-.237.122-.238.121-.238.12-.239.118-.24.116-.241.116-.242.113-.242.113-.243.111-.244.109-.245.108-.246.107-.246.105-.247.104-.248.102-.249.101-.249.099-.25.098-.251.096-.252.095-.252.093-.253.092-.254.09-.254.089-.255.088-.256.085-.257.085-.257.082-.258.081-.258.08-.26.078-.26.077-.26.075-.261.073-.262.072-.263.07-.263.069-.264.067-.264.065-.266.064-.265.062-.267.061-.266.059-.268.058-.268.055-.269.055-.269.052-.27.051-.271.049-.271.048-.271.046-.272.044-.273.043-.273.041-.274.039-.274.037-.275.036-.276.034-.276.033-.276.031-.277.029-.277.027-.278.026-.279.023-.279.023-.279.02-.28.019-.28.017-.281.015-.281.013-.282.012-.282.01-.283.008-.283.006-.284.004-.284.003L0 44l-.284-.001-.284-.003-.284-.004-.283-.006-.283-.008-.282-.01-.282-.012-.281-.013-.281-.015-.28-.017-.28-.019-.279-.02-.279-.023-.279-.023-.278-.026-.277-.027-.277-.029-.276-.031-.276-.033-.276-.034-.275-.036-.274-.037-.274-.039-.273-.041-.273-.043-.272-.044-.271-.046-.271-.048-.271-.049-.27-.051-.269-.052-.269-.055-.268-.055-.268-.058-.266-.059-.267-.061-.265-.062-.266-.064-.264-.065-.264-.067-.263-.069-.263-.07-.262-.072-.261-.073-.26-.075-.26-.077-.26-.078-.258-.08-.258-.081-.257-.082-.257-.085-.256-.085-.255-.088-.254-.089-.254-.09-.253-.092-.252-.093-.252-.095-.251-.096-.25-.098-.249-.099-.249-.101-.248-.102-.247-.104-.246-.105-.246-.107-.245-.108-.244-.109-.243-.111-.242-.113-.242-.113-.241-.116-.24-.116-.239-.118-.238-.12-.238-.121-.237-.122-.236-.123-.235-.125-.234-.127-.233-.128-.233-.129-.231-.13-.231-.132-.23-.133-.229-.135-.228-.136-.227-.137-.227-.138-.225-.14-.225-.141-.223-.143-.223-.144-.222-.145-.221-.146-.22-.148-.219-.149-.218-.15-.217-.152-.216-.152-.215-.154-.214-.156-.214-.156-.212-.158-.211-.159-.211-.16-.209-.162-.208-.163-.207-.164-.207-.165-.205-.166-.204-.168-.204-.169-.202-.169-.201-.172-.2-.172-.199-.174-.198-.174-.197-.176-.196-.177-.195-.178-.194-.18-.192-.18-.192-.182-.191-.182-.189-.184-.188-.185-.188-.186-.186-.188-.185-.188-.184-.189-.182-.191-.182-.192-.18-.192-.18-.194-.178-.195-.177-.196-.176-.197-.174-.198-.174-.199-.172-.2-.172-.201-.169-.202-.169-.204-.168-.204-.166-.205-.165-.207-.164-.207-.163-.208-.162-.209-.16-.211-.159-.211-.158-.212-.156-.214-.156-.214-.154-.215-.152-.216-.152-.217-.15-.218-.149-.219-.148-.22-.146-.221-.145-.222-.144-.223-.143-.223-.141-.225-.14-.225-.138-.227-.137-.227-.136-.228-.135-.229-.133-.23-.132-.231-.13-.231-.129-.233-.128-.233-.127-.234-.125-.235-.123-.236-.122-.237-.121-.238-.12-.238-.118-.239-.116-.24-.116-.241-.113-.242-.113-.242-.111-.243-.109-.244-.108-.245-.107-.246-.105-.246-.104-.247-.102-.248-.101-.249-.099-.249-.098-.25-.096-.251-.095-.252-.093-.252-.092-.253-.09-.254-.089-.254-.088-.255-.085-.256-.085-.257-.082-.257-.081-.258-.08-.258-.078-.26-.077-.26-.075-.26-.073-.261-.072-.262-.07-.263-.069-.263-.067-.264-.065-.264-.064-.266-.062-.265-.061-.267-.059-.266-.058-.268-.055-.268-.055-.269-.052-.269-.051-.27-.049-.271-.048-.271-.046-.271-.044-.272-.043-.273-.041-.273-.039-.274-.037-.274-.036-.275-.034-.276-.033-.276-.031-.276-.029-.277-.027-.277-.026-.278-.023-.279-.023-.279-.02-.279-.019-.28-.017-.28-.015-.281-.013-.281-.012-.282-.01-.282-.008-.283-.006-.283-.004-.284-.003-.284L-44 0l.001-.284.003-.284.004-.284.006-.283.008-.283.01-.282.012-.282.013-.281.015-.281.017-.28.019-.28.02-.279.023-.279.023-.279.026-.278.027-.277.029-.277.031-.276.033-.276.034-.276.036-.275.037-.274.039-.274.041-.273.043-.273.044-.272.046-.271.048-.271.049-.271.051-.27.052-.269.055-.269.055-.268.058-.268.059-.266.061-.267.062-.265.064-.266.065-.264.067-.264.069-.263.07-.263.072-.262.073-.261.075-.26.077-.26.078-.26.08-.258.081-.258.082-.257.085-.257.085-.256.088-.255.089-.254.09-.254.092-.253.093-.252.095-.252.096-.251.098-.25.099-.249.101-.249.102-.248.104-.247.105-.246.107-.246.108-.245.109-.244.111-.243.113-.242.113-.242.116-.241.116-.24.118-.239.12-.238.121-.238.122-.237.123-.236.125-.235.127-.234.128-.233.129-.233.13-.231.132-.231.133-.23.135-.229.136-.228.137-.227.138-.227.14-.225.141-.225.143-.223.144-.223.145-.222.146-.221.148-.22.149-.219.15-.218.152-.217.152-.216.154-.215.156-.214.156-.214.158-.212.159-.211.16-.211.162-.209.163-.208.164-.207.165-.207.166-.205.168-.204.169-.204.169-.202.172-.201.172-.2.174-.199.174-.198.176-.197.177-.196.178-.195.18-.194.18-.192.182-.192.182-.191.184-.189.185-.188.186-.188.188-.186.188-.185.189-.184.191-.182.192-.182.192-.18.194-.18.195-.178.196-.177.197-.176.198-.174.199-.174.2-.172.201-.172.202-.169.204-.169.204-.168.205-.166.207-.165.207-.164.208-.163.209-.162.211-.16.211-.159.212-.158.214-.156.214-.156.215-.154.216-.152.217-.152.218-.15.219-.149.22-.148.221-.146.222-.145.223-.144.223-.143.225-.141.225-.14.227-.138.227-.137.228-.136.229-.135.23-.133.231-.132.231-.13.233-.129.233-.128.234-.127.235-.125.236-.123.237-.122.238-.121.238-.12.239-.118.24-.116.241-.116.242-.113.242-.113.243-.111.244-.109.245-.108.246-.107.246-.105.247-.104.248-.102.249-.101.249-.099.25-.098.251-.096.252-.095.252-.093.253-.092.254-.09.254-.089.255-.088.256-.085.257-.085.257-.082.258-.081.258-.08.26-.078.26-.077.26-.075.261-.073.262-.072.263-.07.263-.069.264-.067.264-.065.266-.064.265-.062.267-.061.266-.059.268-.058.268-.055.269-.055.269-.052.27-.051.271-.049.271-.048.271-.046.272-.044.273-.043.273-.041.274-.039.274-.037.275-.036.276-.034.276-.033.276-.031.277-.029.277-.027.278-.026.279-.023.279-.023.279-.02.28-.019.28-.017.281-.015.281-.013.282-.012.282-.01.283-.008.283-.006.284-.004.284-.003L0-44l.284.001zm-.55 2.933l-.265.003-.265.004-.265.006-.264.007-.263.01-.263.01-.263.013-.262.014-.262.016-.262.017-.26.019-.261.021-.26.022-.259.024-.259.026-.259.027-.258.028-.257.031-.257.032-.257.033-.256.035-.255.037-.255.038-.255.04-.254.041-.253.043-.253.044-.252.046-.252.048-.251.049-.251.05-.25.052-.25.054-.249.055-.248.057-.248.058-.247.059-.247.061-.246.063-.246.064-.245.065-.244.067-.244.069-.243.07-.242.071-.242.073-.241.074-.241.076-.24.077-.239.079-.239.08-.238.081-.237.083-.237.084-.236.086-.235.087-.235.089-.234.089-.233.092-.233.092-.232.094-.231.096-.231.096-.229.098-.229.1-.229.101-.227.102-.227.103-.227.105-.225.106-.225.108-.224.109-.223.11-.222.111-.222.113-.221.114-.22.116-.219.116-.219.118-.218.119-.217.121-.216.122-.215.123-.215.124-.214.126-.213.126-.212.128-.211.13-.21.13-.21.132-.209.133-.208.134-.207.136-.206.136-.205.138-.205.139-.203.14-.203.142-.202.143-.201.143-.2.145-.199.147-.198.147-.197.148-.196.15-.196.151-.194.152-.194.153-.193.154-.191.155-.191.157-.19.158-.189.158-.187.16-.187.161-.186.162-.185.163-.184.164-.183.166-.182.166-.181.168-.18.168-.179.17-.178.17-.177.172-.176.173-.174.174-.174.174-.173.176-.172.177-.17.178-.17.179-.168.18-.168.181-.166.182-.166.183-.164.184-.163.185-.162.186-.161.187-.16.187-.158.189-.158.19-.157.191-.155.191-.154.193-.153.194-.152.194-.151.196-.15.196-.148.197-.147.198-.147.199-.145.2-.143.201-.143.202-.142.203-.14.203-.139.205-.138.205-.136.206-.136.207-.134.208-.133.209-.132.21-.13.21-.13.211-.128.212-.126.213-.126.214-.124.215-.123.215-.122.216-.121.217-.119.218-.118.219-.116.219-.116.22-.114.221-.113.222-.111.222-.11.223-.109.224-.108.225-.106.225-.105.227-.103.227-.102.227-.101.229-.1.229-.098.229-.096.231-.096.231-.094.232-.092.233-.092.233-.089.234-.089.235-.087.235-.086.236-.084.237-.083.237-.081.238-.08.239-.079.239-.077.24-.076.241-.074.241-.073.242-.071.242-.07.243-.069.244-.067.244-.065.245-.064.246-.063.246-.061.247-.059.247-.058.248-.057.248-.055.249-.054.25-.052.25-.05.251-.049.251-.048.252-.046.252-.044.253-.043.253-.041.254-.04.255-.038.255-.037.255-.035.256-.033.257-.032.257-.031.257-.028.258-.027.259-.026.259-.024.259-.022.26-.021.261-.019.26-.017.262-.016.262-.014.262-.013.263-.01.263-.01.263-.007.264-.006.265-.004.265-.003.265-.001.266.001.266.003.265.004.265.006.265.007.264.01.263.01.263.013.263.014.262.016.262.017.262.019.26.021.261.022.26.024.259.026.259.027.259.028.258.031.257.032.257.033.257.035.256.037.255.038.255.04.255.041.254.043.253.044.253.046.252.048.252.049.251.05.251.052.25.054.25.055.249.057.248.058.248.059.247.061.247.063.246.064.246.065.245.067.244.069.244.07.243.071.242.073.242.074.241.076.241.077.24.079.239.08.239.081.238.083.237.084.237.086.236.087.235.089.235.089.234.092.233.092.233.094.232.096.231.096.231.098.229.1.229.101.229.102.227.103.227.105.227.106.225.108.225.109.224.11.223.111.222.113.222.114.221.116.22.116.219.118.219.119.218.121.217.122.216.123.215.124.215.126.214.126.213.128.212.13.211.13.21.132.21.133.209.134.208.136.207.136.206.138.205.139.205.14.203.142.203.143.202.143.201.145.2.147.199.147.198.148.197.15.196.151.196.152.194.153.194.154.193.155.191.157.191.158.19.158.189.16.188.161.186.162.186.163.185.164.184.166.183.166.182.168.181.168.18.17.179.17.178.172.177.173.176.174.174.174.174.176.173.177.172.178.17.179.17.18.168.181.168.182.166.183.166.184.164.185.163.186.162.187.161.187.16.189.158.19.158.191.157.191.155.193.154.194.153.194.152.196.151.196.15.197.148.198.147.199.147.2.145.201.143.202.143.203.141.203.141.205.139.205.138.206.136.207.136.208.134.209.133.21.132.21.13.211.13.212.128.213.127.214.125.215.124.215.123.216.122.217.121.218.119.219.118.219.116.22.116.221.114.222.113.222.111.223.11.224.109.225.108.225.106.227.105.226.103.228.102.229.101.229.1.229.098.231.096.231.096.232.094.233.092.233.092.234.089.235.089.235.087.236.086.237.084.237.083.238.081.239.08.239.079.24.077.241.076.241.074.242.073.242.071.243.07.244.069.244.067.245.065.246.064.246.063.247.061.247.059.248.058.248.057.249.055.25.054.25.052.251.05.251.049.252.048.252.046.253.044.253.043.254.041.255.04.255.038.255.037.256.035.257.033.257.032.257.031.258.028.259.027.259.026.259.024.26.022.261.021.26.019.262.017.262.016.262.014.263.013.263.01.263.01.264.007.265.006.265.004.265.003.266.001.266-.001.265-.003.265-.004.265-.006.264-.007.263-.01.263-.01.263-.013.262-.014.262-.016.262-.017.26-.019.261-.021.26-.022.259-.024.259-.026.259-.027.258-.028.257-.031.257-.032.257-.033.256-.035.255-.037.255-.038.255-.04.254-.041.253-.043.253-.044.252-.046.252-.048.251-.049.251-.05.25-.052.25-.054.249-.055.248-.057.248-.058.247-.059.247-.061.246-.063.246-.064.245-.065.244-.067.244-.069.243-.07.242-.071.242-.073.241-.074.241-.076.24-.077.239-.079.239-.08.238-.081.237-.083.237-.084.236-.086.235-.087.235-.089.234-.089.233-.092.233-.092.232-.094.231-.096.231-.096.229-.098.229-.1.229-.101.228-.102.226-.103.227-.105.225-.106.225-.108.224-.109.223-.11.222-.111.222-.113.221-.114.22-.116.219-.116.219-.118.218-.119.217-.121.216-.122.215-.123.215-.124.214-.125.213-.127.212-.128.211-.13.21-.13.21-.132.209-.133.208-.134.207-.136.206-.136.205-.138.205-.139.203-.141.203-.141.202-.143.201-.143.2-.145.199-.147.198-.147.197-.148.196-.15.196-.151.194-.152.194-.153.193-.154.191-.155.191-.157.19-.158.189-.158.188-.16.186-.161.186-.162.185-.163.184-.164.183-.166.182-.166.181-.168.18-.168.179-.17.178-.17.177-.172.176-.173.174-.174.174-.174.173-.176.172-.177.17-.178.17-.179.168-.18.168-.181.166-.182.166-.183.164-.184.163-.185.162-.186.161-.186.16-.188.158-.189.158-.19.157-.191.155-.191.154-.193.153-.194.152-.194.151-.196.15-.196.148-.197.147-.198.147-.199.145-.2.143-.201.143-.202.141-.203.141-.203.139-.205.138-.205.136-.206.136-.207.134-.208.133-.209.132-.21.13-.21.13-.211.128-.212.127-.213.125-.214.124-.215.123-.215.122-.216.121-.217.119-.218.118-.219.116-.219.116-.22.114-.221.113-.222.111-.222.11-.223.109-.224.108-.225.106-.225.105-.227.103-.226.102-.228.101-.229.1-.229.098-.229.096-.231.096-.231.094-.232.092-.233.092-.233.089-.234.089-.235.087-.235.086-.236.084-.237.083-.237.081-.238.08-.239.079-.239.077-.24.076-.241.074-.241.073-.242.071-.242.07-.243.069-.244.067-.244.065-.245.064-.246.063-.246.061-.247.059-.247.058-.248.057-.248.055-.249.054-.25.052-.25.05-.251.049-.251.048-.252.046-.252.044-.253.043-.253.041-.254.04-.255.038-.255.037-.255.035-.256.033-.257.032-.257.031-.257.028-.258.027-.259.026-.259.024-.259.022-.26.021-.261.019-.26.017-.262.016-.262.014-.262.013-.263.01-.263.01-.263.007-.264.006-.265.004-.265.003-.265.001-.266-.001-.266-.003-.265-.004-.265-.006-.265-.007-.264-.01-.263-.01-.263-.013-.263-.014-.262-.016-.262-.017-.262-.019-.26-.021-.261-.022-.26-.024-.259-.026-.259-.027-.259-.028-.258-.031-.257-.032-.257-.033-.257-.035-.256-.037-.255-.038-.255-.04-.255-.041-.254-.043-.253-.044-.253-.046-.252-.048-.252-.049-.251-.05-.251-.052-.25-.054-.25-.055-.249-.057-.248-.058-.248-.059-.247-.061-.247-.063-.246-.064-.246-.065-.245-.067-.244-.069-.244-.07-.243-.071-.242-.073-.242-.074-.241-.076-.241-.077-.24-.079-.239-.08-.239-.081-.238-.083-.237-.084-.237-.086-.236-.087-.235-.089-.235-.089-.234-.092-.233-.092-.233-.094-.232-.096-.231-.096-.231-.098-.229-.1-.229-.101-.229-.102-.228-.103-.226-.105-.227-.106-.225-.108-.225-.109-.224-.11-.223-.111-.222-.113-.222-.114-.221-.116-.22-.116-.219-.118-.219-.119-.218-.121-.217-.122-.216-.123-.215-.124-.215-.125-.214-.127-.213-.128-.212-.13-.211-.13-.21-.132-.21-.133-.209-.134-.208-.136-.207-.136-.206-.138-.205-.139-.205-.141-.203-.141-.203-.143-.202-.143-.201-.145-.2-.147-.199-.147-.198-.148-.197-.15-.196-.151-.196-.152-.194-.153-.194-.154-.193-.155-.191-.157-.191-.158-.19-.158-.189-.16-.187-.161-.187-.162-.186-.163-.185-.164-.184-.166-.183-.166-.182-.168-.181-.168-.18-.17-.179-.17-.178-.172-.177-.173-.176-.174-.174-.174-.174-.176-.173-.177-.172-.178-.17-.179-.17-.18-.168-.181-.168-.182-.166-.183-.166-.184-.164-.185-.163-.186-.162-.186-.161-.188-.16-.189-.158-.19-.158-.191-.157-.191-.155-.193-.154-.194-.153-.194-.152-.196-.151-.196-.15-.197-.148-.198-.147-.199-.147-.2-.145-.201-.143-.202-.143-.203-.142-.203-.14-.205-.139-.205-.138-.206-.136-.207-.136-.208-.134-.209-.133-.21-.132-.21-.13-.211-.13-.212-.128-.213-.126-.214-.126-.215-.124-.215-.123-.216-.122-.217-.121-.218-.119-.219-.118-.219-.116-.22-.116-.221-.114-.222-.113-.222-.111-.223-.11-.224-.109-.225-.108-.225-.106-.227-.105-.227-.103-.227-.102-.229-.101-.229-.1-.229-.098-.231-.096-.231-.096-.232-.094-.233-.092-.233-.092-.234-.089-.235-.089-.235-.087-.236-.086-.237-.084-.237-.083-.238-.081-.239-.08-.239-.079-.24-.077-.241-.076-.241-.074-.242-.073-.242-.071-.243-.07-.244-.069-.244-.067-.245-.065-.246-.064-.246-.063-.247-.061-.247-.059-.248-.058-.248-.057-.249-.055-.25-.054-.25-.052-.251-.05-.251-.049-.252-.048-.252-.046-.253-.044-.253-.043-.254-.041-.255-.04-.255-.038-.255-.037-.256-.035-.257-.033-.257-.032-.257-.031-.258-.028-.259-.027-.259-.026-.259-.024-.26-.022-.261-.021-.26-.019-.262-.017-.262-.016-.262-.014-.263-.013-.263-.01-.263-.01-.264-.007-.265-.006-.265-.004-.265-.003L0-41.067l-.266.001z" fill="#323232"/></g></svg>