<svg width="11" height="11" xmlns="http://www.w3.org/2000/svg" fill-rule="evenodd" clip-rule="evenodd" stroke-linejoin="round" stroke-miterlimit="2"><path d="M12 3.736L10.75 3h-8.5L1 3.736v1.528L2.25 6h8.5L12 5.264V3.736z" fill="url(#_Linear1)" transform="rotate(-45 2.552 9.445) scale(1.14404 1.9428)"/><path d="M8.909-.004l2.099 2.099v2.022L4.13 10.993H2.11L.01 8.894V6.872L6.886-.004H8.91zM1.01 7.286V8.48l1.514 1.514 1.193-.001 6.29-6.29.001-1.194L8.494.995 7.301.996l-6.29 6.29z" fill="#bf9027"/><g><path d="M.008 8.148v2.847h2.846L.008 8.148z" fill="#121212"/></g><defs><linearGradient id="_Linear1" x1="0" y1="0" x2="1" y2="0" gradientUnits="userSpaceOnUse" gradientTransform="matrix(11 0 0 3 1 4.5)"><stop offset="0" stop-color="#f8edc3"/><stop offset=".46" stop-color="#f5dc60"/><stop offset="1" stop-color="#f4d644"/></linearGradient></defs></svg>