<svg width="16" height="16" xmlns="http://www.w3.org/2000/svg" fill-rule="evenodd" clip-rule="evenodd" stroke-linejoin="round" stroke-miterlimit="2"><g transform="matrix(.5926 0 0 .5926 -.593 -.593)"><path d="M28 7.75A6.754 6.754 0 0021.25 1H7.75A6.754 6.754 0 001 7.75v13.5A6.754 6.754 0 007.75 28h13.5A6.754 6.754 0 0028 21.25V7.75z" fill="none"/><clipPath id="a"><path d="M28 7.75A6.754 6.754 0 0021.25 1H7.75A6.754 6.754 0 001 7.75v13.5A6.754 6.754 0 007.75 28h13.5A6.754 6.754 0 0028 21.25V7.75z"/></clipPath><g clip-path="url(#a)"><path d="M28 1h-4.92L18 24l-6.687.068-3.397-10.98-6.916.04V28h27V1z" fill="#fd3535"/><path d="M18 1H1v7h10.726l2.353 8H15l3-15z" fill="#359ef0"/></g></g></svg>