<svg width="180" height="70" xmlns="http://www.w3.org/2000/svg" fill-rule="evenodd" clip-rule="evenodd" stroke-linejoin="round" stroke-miterlimit="2"><path d="M35.988 35.319h-5.69l-5.795 25.67-7.406.027-3.336-11.874-7.694.004v17.639h29.92V35.319zm-11.114 0H6.067v8.027h11.968L20.6 54.364l4.274-19.045z" fill="#fd3535"/><path d="M169.65 46.649c3.152 0 5.71-2.385 5.71-5.759 0-3.374-2.558-5.784-5.71-5.784-3.153 0-5.737 2.41-5.737 5.784 0 3.374 2.584 5.759 5.736 5.759zm0-1.294c-2.481 0-4.264-1.776-4.264-4.465s1.783-4.465 4.263-4.465c2.455 0 4.238 1.776 4.238 4.465 0 2.69-1.783 4.465-4.238 4.465zm-2.326-1.649h1.576V41.88h.93l.93 1.826h1.628l-1.24-2.283a1.676 1.676 0 001.06-1.573c0-1.294-1.06-1.877-2.352-1.877h-2.532v5.733zm1.576-2.892v-1.649h.646c.698 0 .982.33.982.812 0 .482-.336.837-1.008.837h-.62zM59.5 54.544c0 2.022-.224 3.82-.673 5.392-.417 1.517-1.027 2.809-1.764 3.764-.866 1.236-1.829 2.078-2.887 2.584-1.058.505-2.373.786-4.01.786h-9.333V26.233h8.243c1.7 0 3.015.112 3.881.337.898.224 1.732.73 2.502 1.46.834.787 1.443 1.798 1.86 3.146.417 1.292.61 2.809.61 4.55 0 1.966-.257 3.763-.834 5.336-.578 1.517-1.347 2.697-2.374 3.427v.225c1.444.505 2.598 1.572 3.464 3.201.866 1.686 1.315 3.876 1.315 6.629zm-7.505-16.74c0-.674-.096-1.348-.289-2.078-.192-.674-.513-1.18-.898-1.46a2.062 2.062 0 00-1.379-.506c-.513-.056-1.315-.056-2.341-.056h-.417v8.65h.737c.995 0 1.7 0 2.085-.056.417-.056.834-.225 1.251-.562.481-.393.802-.898.994-1.572.16-.73.257-1.517.257-2.36zm1.475 16.571c0-1.292-.16-2.247-.449-2.977a3.428 3.428 0 00-1.315-1.629c-.353-.225-.834-.337-1.475-.393H46.67v10.223h.32c1.508 0 2.566-.056 3.144-.056.577-.056 1.186-.28 1.796-.73.545-.45.93-1.011 1.154-1.798.257-.786.385-1.629.385-2.64zM78.874 67.07H73.39v-3.426c-.963 1.404-1.829 2.471-2.63 3.202-.77.73-1.733 1.067-2.823 1.067-1.732 0-3.111-.955-4.073-2.865-.995-1.966-1.476-4.83-1.476-8.707V36.288h5.517v15.279c0 1.572.032 2.864.064 3.876.064 1.01.16 1.853.353 2.527.16.674.417 1.124.77 1.46.352.338.834.506 1.443.506.385 0 .866-.168 1.38-.505.544-.337 1.026-.787 1.475-1.348V36.288h5.484V67.07zM83.048 24.379h5.485V67.07h-5.485zM92.727 24.379h5.485V67.07h-5.485zM111.418 67.913c-3.303 0-5.87-1.404-7.633-4.213-1.764-2.753-2.662-6.74-2.662-11.853 0-5.055.834-9.043 2.501-12.02 1.636-3.034 3.946-4.494 6.896-4.494 2.695 0 4.715 1.235 6.094 3.763 1.348 2.584 2.021 6.18 2.021 10.954v3.426H106.64c.033 1.461.225 2.64.514 3.596.288.954.673 1.74 1.154 2.303a4.702 4.702 0 001.636 1.235 6.12 6.12 0 002.053.337c.641 0 1.283-.112 1.892-.337a8.974 8.974 0 001.7-1.01c.45-.338.866-.73 1.219-1.124.385-.393.706-.73.93-1.067h.61v7.92c-.45.337-.866.618-1.251.899a11.35 11.35 0 01-1.508.786c-.61.281-1.219.506-1.86.618-.61.169-1.38.28-2.31.28zm1.829-20.222c-.032-2.023-.321-3.54-.802-4.606-.513-1.068-1.283-1.63-2.342-1.63-1.058 0-1.892.562-2.501 1.686-.578 1.123-.93 2.64-.995 4.55h6.64zM128.185 67.688c-2.213 0-3.849-.842-4.875-2.415-.995-1.63-1.508-4.27-1.508-7.92v-14.38h-2.117v-6.685h2.117v-8.82h5.485v8.82h5.26v6.684h-5.26v13.706c0 .843.096 1.573.256 2.191.129.618.385 1.124.77 1.517.385.393.898.561 1.636.561.289 0 .674-.112 1.123-.337.48-.224.834-.393.994-.561h.481v6.74a9.761 9.761 0 01-1.892.674c-.674.113-1.476.225-2.47.225zM140.262 67.07h-5.485V36.288h5.485V67.07zm.16-35.164h-5.773V24.38h5.773v7.527zM160.942 67.07h-5.517V51.791c0-1.236-.032-2.471-.064-3.707-.064-1.236-.192-2.135-.32-2.753-.193-.674-.482-1.18-.834-1.46-.353-.337-.834-.45-1.412-.45-.449 0-.898.113-1.379.394-.449.337-.93.786-1.475 1.404V67.07h-5.485V36.288h5.485v3.37c.898-1.348 1.796-2.36 2.63-3.09.866-.786 1.796-1.123 2.822-1.123 1.797 0 3.176.955 4.138 2.977.93 1.966 1.411 4.831 1.411 8.595V67.07z" fill="#359ef0" fill-rule="nonzero"/></svg>