<svg width="170" height="42" xmlns="http://www.w3.org/2000/svg" fill-rule="evenodd" clip-rule="evenodd" stroke-linejoin="round" stroke-miterlimit="2"><path d="M29.081 11.524h-5.319l-5.417 23.999-6.924.025-3.12-11.1-7.193.004v16.49h27.973V11.524zm-10.39 0H1.108v7.505h11.19l2.397 10.3 3.996-17.805z" fill="#fd3535"/><path d="M154.038 22.117c2.948 0 5.34-2.23 5.34-5.384 0-3.154-2.392-5.407-5.34-5.407-2.947 0-5.363 2.253-5.363 5.407 0 3.155 2.416 5.384 5.363 5.384zm0-1.21c-2.319 0-3.986-1.66-3.986-4.174 0-2.514 1.667-4.174 3.986-4.174 2.295 0 3.962 1.66 3.962 4.174 0 2.514-1.667 4.175-3.962 4.175zm-2.174-1.541h1.474v-1.708h.87l.87 1.708h1.521l-1.16-2.135c.629-.26.991-.83.991-1.47 0-1.21-.99-1.755-2.198-1.755h-2.368v5.36zm1.474-2.704v-1.541h.604c.652 0 .918.308.918.759 0 .45-.314.782-.942.782h-.58zM51.063 29.498c0 1.89-.21 3.57-.63 5.041-.39 1.418-.96 2.626-1.65 3.519-.809 1.155-1.709 1.943-2.698 2.415-.99.473-2.219.736-3.748.736H33.61V3.03h7.706c1.59 0 2.819.105 3.628.315.84.21 1.62.683 2.34 1.366.779.735 1.349 1.68 1.739 2.94.39 1.208.57 2.626.57 4.254 0 1.838-.24 3.519-.78 4.99-.54 1.417-1.26 2.52-2.22 3.203v.21c1.35.472 2.43 1.47 3.24 2.993.809 1.575 1.229 3.623 1.229 6.197zm-7.017-15.65c0-.63-.09-1.26-.27-1.943-.18-.63-.48-1.103-.84-1.365a1.928 1.928 0 00-1.289-.473c-.48-.052-1.23-.052-2.189-.052h-.39v8.087h.69c.93 0 1.59 0 1.949-.053.39-.052.78-.21 1.17-.525.45-.367.75-.84.929-1.47.15-.683.24-1.418.24-2.206zm1.38 15.492c0-1.208-.15-2.1-.42-2.783a3.204 3.204 0 00-1.23-1.523c-.33-.21-.78-.315-1.38-.368h-3.328v9.558h.3c1.41 0 2.399-.052 2.939-.052.54-.053 1.11-.263 1.679-.683.51-.42.87-.945 1.08-1.68.24-.736.36-1.524.36-2.469zM69.175 41.209h-5.128v-3.204c-.9 1.313-1.709 2.31-2.459 2.993-.72.683-1.619.998-2.638.998-1.62 0-2.909-.892-3.808-2.678-.93-1.838-1.38-4.516-1.38-8.14V12.43h5.158v14.284c0 1.47.03 2.679.06 3.624.06.945.15 1.733.33 2.363.15.63.39 1.05.72 1.366.33.315.779.472 1.349.472.36 0 .81-.157 1.289-.472.51-.316.96-.736 1.38-1.26V12.43h5.127V41.21zM73.077 1.297h5.127V41.21h-5.127zM82.126 1.297h5.127V41.21h-5.127zM99.6 41.996c-3.089 0-5.487-1.313-7.137-3.938-1.649-2.574-2.489-6.302-2.489-11.081 0-4.726.78-8.455 2.34-11.238 1.529-2.836 3.688-4.201 6.446-4.201 2.519 0 4.408 1.155 5.698 3.518 1.259 2.416 1.889 5.777 1.889 10.24V28.5H95.132c.03 1.365.21 2.468.48 3.36.27.894.63 1.629 1.08 2.154.449.525.959.893 1.529 1.155.6.21 1.229.315 1.919.315.6 0 1.199-.105 1.769-.315a8.39 8.39 0 001.589-.945c.42-.315.81-.683 1.14-1.05.36-.368.66-.683.869-.998h.57v7.405c-.42.315-.81.577-1.17.84-.33.21-.81.472-1.409.735-.57.263-1.14.473-1.74.578-.569.157-1.289.262-2.158.262zm1.709-18.905c-.03-1.89-.3-3.309-.75-4.306-.48-.998-1.199-1.523-2.189-1.523s-1.769.525-2.338 1.575c-.54 1.05-.87 2.468-.93 4.254h6.207zM115.274 41.786c-2.069 0-3.598-.788-4.557-2.258-.93-1.523-1.41-3.991-1.41-7.405V18.68h-1.979v-6.25h1.98V4.186h5.127v8.244h4.917v6.25h-4.917v12.813c0 .788.09 1.47.24 2.048.12.578.36 1.05.72 1.418.36.368.839.525 1.529.525.27 0 .63-.105 1.05-.315.449-.21.779-.367.929-.525h.45v6.302c-.54.263-1.14.473-1.77.63-.63.105-1.379.21-2.309.21zM126.565 41.209h-5.128V12.43h5.128V41.21zm.15-32.875h-5.398V1.297h5.398v7.037zM145.899 41.209h-5.158V26.924c0-1.155-.03-2.31-.06-3.465-.06-1.156-.18-1.996-.3-2.574-.18-.63-.45-1.103-.78-1.365-.33-.315-.779-.42-1.319-.42-.42 0-.84.105-1.289.367-.42.315-.87.736-1.38 1.313V41.21h-5.127V12.43h5.128v3.151c.84-1.26 1.679-2.205 2.458-2.888.81-.735 1.68-1.05 2.64-1.05 1.678 0 2.968.892 3.867 2.783.87 1.838 1.32 4.516 1.32 8.035v18.748z" fill="#359ef0" fill-rule="nonzero"/></svg>