<svg width="16" height="16" xmlns="http://www.w3.org/2000/svg" fill-rule="evenodd" clip-rule="evenodd" stroke-linejoin="round" stroke-miterlimit="2"><path fill="url(#_Radial1)" d="M1 2h5v4H1z" transform="matrix(2 0 0 2.5 -1 -4)"/><path d="M6 6H1V2h5v4zM1.5 2.4v3.2h4V2.4h-4z" fill="url(#_Linear2)" transform="matrix(2 0 0 2.5 -1 -4)"/><path fill="url(#_Radial3)" d="M1 2h5v4H1z" transform="matrix(2 0 0 2.5 1 -2)"/><path d="M6 6H1V2h5v4zM1.5 2.4v3.2h4V2.4h-4z" fill="url(#_Linear4)" transform="matrix(2 0 0 2.5 1 -2)"/><path fill="url(#_Radial5)" d="M1 2h5v4H1z" transform="matrix(2 0 0 2.5 3 0)"/><path d="M6 6H1V2h5v4zM1.5 2.4v3.2h4V2.4h-4z" fill="url(#_Linear6)" transform="matrix(2 0 0 2.5 3 0)"/><path fill="url(#_Linear7)" d="M7 7h6v6H7z"/><path d="M12 8a1 1 0 00-1-1H9a1 1 0 00-1 1v2a1 1 0 001 1h2a1 1 0 001-1V8z" fill="url(#_Radial8)"/><path fill="url(#_Linear9)" d="M7 12h6v1H7z"/><path fill="url(#_Linear10)" d="M9 11h2v1H9z"/><defs><linearGradient id="_Linear2" x1="0" y1="0" x2="1" y2="0" gradientUnits="userSpaceOnUse" gradientTransform="matrix(5 0 0 4 1 4)"><stop offset="0" stop-color="#bcccdd"/><stop offset="1" stop-color="#b9c9dc"/></linearGradient><linearGradient id="_Linear4" x1="0" y1="0" x2="1" y2="0" gradientUnits="userSpaceOnUse" gradientTransform="matrix(5 0 0 4 1 4)"><stop offset="0" stop-color="#8ca7c5"/><stop offset="1" stop-color="#a4b9d1"/></linearGradient><linearGradient id="_Linear6" x1="0" y1="0" x2="1" y2="0" gradientUnits="userSpaceOnUse" gradientTransform="matrix(5 0 0 4 1 4)"><stop offset="0" stop-color="#6f90b6"/><stop offset="1" stop-color="#94adc9"/></linearGradient><linearGradient id="_Linear7" x1="0" y1="0" x2="1" y2="0" gradientUnits="userSpaceOnUse" gradientTransform="matrix(4 4 -4 4 8 8)"><stop offset="0" stop-color="#ccdbe9"/><stop offset="1" stop-color="#8db2d6"/></linearGradient><linearGradient id="_Linear9" x1="0" y1="0" x2="1" y2="0" gradientUnits="userSpaceOnUse" gradientTransform="matrix(6 0 0 1 7 12.5)"><stop offset="0" stop-color="#70a247"/><stop offset="1" stop-color="#55862c"/></linearGradient><linearGradient id="_Linear10" x1="0" y1="0" x2="1" y2="0" gradientUnits="userSpaceOnUse" gradientTransform="matrix(2 0 0 1 9 11.5)"><stop offset="0" stop-color="#cc9e4f"/><stop offset="1" stop-color="#a17831"/></linearGradient><radialGradient id="_Radial1" cx="0" cy="0" r="1" gradientUnits="userSpaceOnUse" gradientTransform="matrix(5 4 -5 4 1 2)"><stop offset="0" stop-color="#f4f5f7"/><stop offset="1" stop-color="#eaeef2"/></radialGradient><radialGradient id="_Radial3" cx="0" cy="0" r="1" gradientUnits="userSpaceOnUse" gradientTransform="matrix(5 4 -5 4 1 2)"><stop offset="0" stop-color="#f4f5f7"/><stop offset="1" stop-color="#eaeef2"/></radialGradient><radialGradient id="_Radial5" cx="0" cy="0" r="1" gradientUnits="userSpaceOnUse" gradientTransform="matrix(5 4 -5 4 1 2)"><stop offset="0" stop-color="#f4f5f7"/><stop offset="1" stop-color="#eaeef2"/></radialGradient><radialGradient id="_Radial8" cx="0" cy="0" r="1" gradientUnits="userSpaceOnUse" gradientTransform="rotate(46.437 -5.076 15.42) scale(3.49092)"><stop offset="0" stop-color="#a8cf5a"/><stop offset=".97" stop-color="#61a930"/><stop offset="1" stop-color="#5ea82f"/></radialGradient></defs></svg>