<svg width="21" height="17" xmlns="http://www.w3.org/2000/svg" fill-rule="evenodd" clip-rule="evenodd" stroke-linejoin="round" stroke-miterlimit="2"><g transform="translate(1 2)"><path d="M2 1L1 2v11h16l1-1V1H2z" fill="url(#_Linear1)"/><clipPath id="a"><path d="M2 1L1 2v11h16l1-1V1H2z"/></clipPath><g clip-path="url(#a)"><path d="M2 15h1V4h15v11h1V3H2v12z" fill="url(#_Linear3)" transform="translate(-1 -2)"/></g><path d="M18.078.003l.078.009.077.016.076.021.074.027.071.033.068.038.066.044.061.049.058.053.053.058.049.061.044.066.038.068.033.071.027.074.021.076.016.077.009.078L19 1v11l-.003.078-.009.078-.016.077-.021.076-.027.074-.033.071-.038.068-.044.066-.049.061-.053.058-1 1-.058.053-.061.049-.066.044-.068.038-.071.033-.074.027-.076.021-.077.016-.078.009L17 14H1l-.078-.003-.078-.009-.077-.016-.076-.021-.074-.027-.071-.033-.068-.038-.066-.044-.061-.049-.058-.053-.053-.058-.049-.061-.044-.066-.038-.068-.033-.071-.027-.074-.021-.076-.016-.077-.009-.078L0 13V2l.003-.078.009-.078.016-.077.021-.076.027-.074.033-.071.038-.068.044-.066.049-.061.053-.058 1-1L1.351.24l.061-.049.066-.044.068-.038.071-.033.074-.027.076-.021.077-.016.078-.009L2 0h16l.078.003zM2 1L1 2v11h16l1-1V1H2z"/></g><g transform="translate(4) scale(.86667)"><circle cx="7.5" cy="7.5" r="7.5" fill="url(#_Radial4)"/><clipPath id="b"><circle cx="7.5" cy="7.5" r="7.5"/></clipPath><g clip-path="url(#b)"><path d="M4.484 11.495c-.692-1.601 1.138-4.486 5.379-7.74l1.322.93c-2.838 1.915-5.734 3.837-6.7 6.81z"/><path d="M10.516 11.495c.692-1.601-1.138-4.486-5.379-7.74l-1.322.93c2.838 1.915 5.734 3.837 6.7 6.81z"/></g><path d="M7.597.001l.096.001.097.004.096.004.095.005.096.007.095.008.094.009.095.01.094.011.093.013.094.013.092.015.093.016.092.017.092.018.091.02.091.02.09.022.09.022.09.024.089.025.089.026.088.026.088.028.087.029.087.03.087.031.086.032.085.034.085.034.084.035.084.036.083.037.083.038.082.039.082.04.081.041.081.042.08.043.079.044.079.044.078.046.078.046.077.048.076.048.076.049.075.051.075.051.073.051.074.053.072.054.072.054.071.056.071.056.07.057.069.057.068.059.068.059.067.06.066.061.065.062.065.062.064.064.064.064.062.065.062.065.061.066.06.067.059.068.059.068.057.069.057.07.056.071.056.071.054.072.054.072.053.074.051.073.051.075.051.075.049.076.048.076.048.077.046.078.046.078.044.079.044.079.043.08.042.081.041.081.04.082.039.082.038.083.037.083.036.084.035.084.034.085.034.085.032.086.031.087.03.087.029.087.028.088.026.088.026.089.025.089.024.09.022.09.022.09.02.091.02.091.018.092.017.092.016.093.015.092.013.094.013.093.011.094.01.095.009.094.008.095.007.096.005.095.004.096.004.097.001.096L15 7.5l-.001.097-.001.096-.004.097-.004.096-.005.095-.007.096-.008.095-.009.094-.01.095-.011.094-.013.093-.013.094-.015.092-.016.093-.017.092-.018.092-.02.091-.02.091-.022.09-.022.09-.024.09-.025.089-.026.089-.026.088-.028.088-.029.087-.03.087-.031.087-.032.086-.034.085-.034.085-.035.084-.036.084-.037.083-.038.083-.039.082-.04.082-.041.081-.042.081-.043.08-.044.079-.044.079-.046.078-.046.078-.048.077-.048.076-.049.076-.051.075-.051.075-.051.073-.053.074-.054.072-.054.072-.056.071-.056.071-.057.07-.057.069-.059.068-.059.068-.06.067-.061.066-.062.065-.062.065-.064.064-.064.064-.065.062-.065.062-.066.061-.067.06-.068.059-.068.059-.069.057-.07.057-.071.056-.071.056-.072.054-.072.054-.074.053-.073.051-.075.051-.075.051-.076.049-.076.048-.077.048-.078.046-.078.046-.079.044-.079.044-.08.043-.081.042-.081.041-.082.04-.082.039-.083.038-.083.037-.084.036-.084.035-.085.034-.085.034-.086.032-.087.031-.087.03-.087.029-.088.028-.088.026-.089.026-.089.025-.09.024-.09.022-.09.022-.091.02-.091.02-.092.018-.092.017-.093.016-.092.015-.094.013-.093.013-.094.011-.095.01-.094.009-.095.008-.096.007-.095.005-.096.004-.097.004-.096.001L7.5 15l-.097-.001-.096-.001-.097-.004-.096-.004-.095-.005-.096-.007-.095-.008-.094-.009-.095-.01-.094-.011-.093-.013-.094-.013-.092-.015-.093-.016-.092-.017-.092-.018-.091-.02-.091-.02-.09-.022-.09-.022-.09-.024-.089-.025-.089-.026-.088-.026-.088-.028-.087-.029-.087-.03-.087-.031-.086-.032-.085-.034-.085-.034-.084-.035-.084-.036-.083-.037-.083-.038-.082-.039-.082-.04-.081-.041-.081-.042-.08-.043-.079-.044-.079-.044-.078-.046-.078-.046-.077-.048-.076-.048-.076-.049-.075-.051-.075-.051-.073-.051-.074-.053-.072-.054-.072-.054-.071-.056-.071-.056-.07-.057-.069-.057-.068-.059-.068-.059-.067-.06-.066-.061-.065-.062-.065-.062-.064-.064-.064-.064-.062-.065-.062-.065-.061-.066-.06-.067-.059-.068-.059-.068-.057-.069-.057-.07-.056-.071-.056-.071-.054-.072-.054-.072-.053-.074-.051-.073-.051-.075-.051-.075-.049-.076-.048-.076-.048-.077-.046-.078-.046-.078-.044-.079-.044-.079-.043-.08-.042-.081-.041-.081-.04-.082-.039-.082-.038-.083-.037-.083-.036-.084-.035-.084-.034-.085-.034-.085-.032-.086-.031-.087-.03-.087-.029-.087-.028-.088-.026-.088-.026-.089-.025-.089-.024-.09-.022-.09-.022-.09-.02-.091-.02-.091-.018-.092-.017-.092-.016-.093-.015-.092-.013-.094-.013-.093-.011-.094-.01-.095-.009-.094-.008-.095-.007-.096-.005-.095-.004-.096-.004-.097-.001-.096L0 7.5l.001-.097.001-.096.004-.097.004-.096.005-.095.007-.096.008-.095.009-.094.01-.095.011-.094.013-.093.013-.094.015-.092.016-.093.017-.092.018-.092.02-.091.02-.091.022-.09.022-.09.024-.09.025-.089.026-.089.026-.088.028-.088.029-.087.03-.087.031-.087.032-.086.034-.085.034-.085.035-.084.036-.084.037-.083.038-.083.039-.082.04-.082.041-.081.042-.081.043-.08.044-.079.044-.079.046-.078.046-.078.048-.077.048-.076.049-.076.051-.075.051-.075.051-.073.053-.074.054-.072.054-.072.056-.071.056-.071.057-.07.057-.069.059-.068.059-.068.06-.067.061-.066.062-.065.062-.065.064-.064.064-.064.065-.062.065-.062.066-.061.067-.06.068-.059.068-.059.069-.057.07-.057.071-.056.071-.056.072-.054.072-.054.074-.053.073-.051.075-.051.075-.051.076-.049.076-.048.077-.048.078-.046.078-.046.079-.044.079-.044.08-.043.081-.042.081-.041.082-.04.082-.039.083-.038.083-.037.084-.036.084-.035.085-.034.085-.034.086-.032.087-.031.087-.03.087-.029.088-.028.088-.026.089-.026.089-.025.09-.024.09-.022.09-.022.091-.02.091-.02.092-.018.092-.017.093-.016.092-.015.094-.013.093-.013.094-.011.095-.01.094-.009.095-.008.096-.007.095-.005.096-.004.097-.004.096-.001L7.5 0l.097.001zm-.179 1.153l-.082.002-.082.003-.081.003-.081.005-.081.005-.081.007-.08.008-.079.008-.08.01-.079.011-.079.011-.079.013-.078.013-.078.015-.077.015-.077.016-.077.017-.077.019-.076.019-.075.02-.076.021-.075.021-.074.023-.074.024-.074.024-.074.026-.073.026-.072.027-.072.028-.072.029-.071.029-.071.031-.071.031-.07.032-.069.033-.069.034-.069.035-.068.035-.068.037-.067.037-.067.037-.066.039-.065.039-.066.041-.064.041-.064.041-.064.043-.063.043-.063.044-.062.044-.061.046-.061.046-.06.047-.06.047-.059.048-.059.049-.058.05-.057.05-.057.051-.056.052-.055.052-.055.053-.054.054-.054.054-.053.055-.052.055-.052.056-.051.057-.05.057-.05.058-.049.059-.048.059-.047.06-.047.06-.046.061-.046.061-.044.062-.044.063-.043.063-.043.064-.041.064-.041.064-.041.066-.039.065-.039.066-.037.067-.037.067-.037.068-.035.068-.035.069-.034.069-.033.069-.032.07-.031.071-.031.071-.029.071-.029.072-.028.072-.027.072-.026.073-.026.074-.024.074-.024.074-.023.074-.021.075-.021.076-.02.075-.019.076-.019.077-.017.077-.016.077-.015.077-.015.078-.013.078-.013.079-.011.079-.011.079-.01.08-.008.079-.008.08-.007.081-.005.081-.005.081-.003.081-.003.082-.002.082v.164l.002.082.003.082.003.081.005.081.005.081.007.081.008.08.008.079.01.08.011.079.011.079.013.079.013.078.015.078.015.077.016.077.017.077.019.077.019.076.02.075.021.076.021.075.023.074.024.074.024.074.026.074.026.073.027.072.028.072.029.072.029.071.031.071.031.071.032.07.033.069.034.069.035.069.035.068.037.068.037.067.037.067.039.066.039.065.041.066.041.064.041.064.043.064.043.063.044.063.044.062.046.061.046.061.047.06.047.06.048.059.049.059.05.058.05.057.051.057.052.056.052.055.053.055.054.054.054.054.055.053.055.052.056.052.057.051.057.05.058.05.059.049.059.048.06.047.06.047.061.046.061.046.062.044.063.044.063.043.064.043.064.041.064.041.066.041.065.039.066.039.067.037.067.037.068.037.068.035.069.035.069.034.069.033.07.032.071.031.071.031.071.029.072.029.072.028.072.027.073.026.074.026.074.024.074.024.074.023.075.021.076.021.075.02.076.019.077.019.077.017.077.016.077.015.078.015.078.013.079.013.079.011.079.011.08.01.079.008.081.008.08.007.081.005.081.005.081.003.082.003.082.002h.164l.082-.002.082-.003.081-.003.081-.005.081-.005.08-.007.081-.008.079-.008.08-.01.079-.011.079-.011.079-.013.078-.013.078-.015.077-.015.077-.016.077-.017.077-.019.076-.019.075-.02.076-.021.075-.021.074-.023.074-.024.074-.024.074-.026.073-.026.072-.027.072-.028.072-.029.071-.029.071-.031.071-.031.07-.032.069-.033.069-.034.069-.035.068-.035.068-.037.067-.037.067-.037.066-.039.065-.039.066-.041.064-.041.064-.041.064-.043.063-.043.063-.044.062-.044.061-.046.061-.046.06-.047.06-.047.059-.048.059-.049.058-.05.057-.05.057-.051.056-.052.055-.052.055-.053.054-.054.054-.054.053-.055.052-.055.052-.056.051-.057.05-.057.05-.058.049-.059.048-.059.047-.06.047-.06.046-.061.046-.061.044-.062.044-.063.043-.063.043-.064.041-.064.041-.064.041-.066.039-.065.039-.066.037-.067.037-.067.037-.068.035-.068.035-.069.034-.069.033-.069.032-.07.031-.071.031-.071.029-.071.029-.072.028-.072.027-.072.026-.073.026-.074.024-.074.024-.074.023-.074.021-.075.021-.076.02-.075.019-.076.019-.077.017-.077.016-.077.015-.077.015-.078.013-.078.013-.079.011-.079.011-.079.01-.08.008-.079.008-.081.007-.08.005-.081.005-.081.003-.081.003-.082.002-.082v-.164l-.002-.082-.003-.082-.003-.081-.005-.081-.005-.081-.007-.08-.008-.081-.008-.079-.01-.08-.011-.079-.011-.079-.013-.079-.013-.078-.015-.078-.015-.077-.016-.077-.017-.077-.019-.077-.019-.076-.02-.075-.021-.076-.021-.075-.023-.074-.024-.074-.024-.074-.026-.074-.026-.073-.027-.072-.028-.072-.029-.072-.029-.071-.031-.071-.031-.071-.032-.07-.033-.069-.034-.069-.035-.069-.035-.068-.037-.068-.037-.067-.037-.067-.039-.066-.039-.065-.041-.066-.041-.064-.041-.064-.043-.064-.043-.063-.044-.063-.044-.062-.046-.061-.046-.061-.047-.06-.047-.06-.048-.059-.049-.059-.05-.058-.05-.057-.051-.057-.052-.056-.052-.055-.053-.055-.054-.054-.054-.054-.055-.053-.055-.052-.056-.052-.057-.051-.057-.05-.058-.05-.059-.049-.059-.048-.06-.047-.06-.047-.061-.046-.061-.046-.062-.044-.063-.044-.063-.043-.064-.043-.064-.041-.064-.041-.066-.041-.065-.039-.066-.039-.067-.037-.067-.037-.068-.037-.068-.035-.069-.035-.069-.034-.069-.033-.07-.032-.071-.031-.071-.031-.071-.029-.072-.029-.072-.028-.072-.027-.073-.026-.074-.026-.074-.024-.074-.024-.074-.023-.075-.021-.076-.021-.075-.02-.076-.019-.077-.019-.077-.017-.077-.016-.077-.015-.078-.015-.078-.013-.079-.013-.079-.011-.079-.011-.08-.01-.079-.008-.08-.008-.081-.007-.081-.005-.081-.005-.081-.003-.082-.003-.082-.002h-.164z"/></g><defs><linearGradient id="_Linear1" x1="0" y1="0" x2="1" y2="0" gradientUnits="userSpaceOnUse" gradientTransform="matrix(0 -10.9091 8.31111 0 8.933 13)"><stop offset="0" stop-color="#3a588b"/><stop offset="1" stop-color="#97b5e8"/></linearGradient><linearGradient id="_Linear3" x1="0" y1="0" x2="1" y2="0" gradientUnits="userSpaceOnUse" gradientTransform="matrix(0 12 -8.47059 0 11 3)"><stop offset="0" stop-color="#aec6ed"/><stop offset=".57" stop-color="#97b1da"/><stop offset=".79" stop-color="#6884b2"/><stop offset="1" stop-color="#3c5a8d"/></linearGradient><radialGradient id="_Radial4" cx="0" cy="0" r="1" gradientUnits="userSpaceOnUse" gradientTransform="matrix(5.45455 13 -14.9152 7.5293 1.364 1)"><stop offset="0" stop-color="#fff"/><stop offset=".36" stop-color="#fafcff"/><stop offset=".66" stop-color="#eaf2fd"/><stop offset="1" stop-color="#89b7f0"/></radialGradient></defs></svg>