<svg width="15" height="15" xmlns="http://www.w3.org/2000/svg" fill-rule="evenodd" clip-rule="evenodd" stroke-linejoin="round" stroke-miterlimit="2"><path d="M4 7.5L10 5h1v5h-1L4 7.5z"/><path d="M11.013 4.935l.013.004.011.005.01.009.009.01.005.012.005.011.001.015v4.998l-.001.015-.005.011-.005.012-.009.01-.01.009-.011.005-.013.004-.013.001h-1l-.013-.001-.013-.004-6-2.5-.011-.006-.01-.007-.009-.01-.005-.012-.005-.013-.001-.013.001-.013.005-.013.005-.011.009-.01.01-.008.011-.007 6-2.5.013-.003.013-.001h1l.013.001zM10 5.001L4 7.5l6 2.5h1V5h-1z" fill="#1d2f56"/></svg>