<svg width="15" height="15" xmlns="http://www.w3.org/2000/svg" fill-rule="evenodd" clip-rule="evenodd" stroke-linejoin="round" stroke-miterlimit="2"><path d="M3 6l1-1h7l1 1-4.5 4L3 6z"/><path d="M11.013 4.934l.012.005.012.005.01.009 1 1 .008.01.007.013.004.013V6l-.002.015-.004.013-.006.011-.01.01-4.5 4-.01.009-.013.004-.015.003h-.012l-.015-.003-.012-.004-.01-.009-4.5-4-.011-.01-.006-.011-.004-.013L2.933 6l.001-.012.004-.013.007-.013.007-.01 1-1 .011-.009.012-.005.012-.005L4 4.933h7l.013.001zM4 5L3 6l4.5 4L12 6l-1-1H4z" fill="#1d2f56"/></svg>