<svg width="11" height="11" xmlns="http://www.w3.org/2000/svg" fill-rule="evenodd" clip-rule="evenodd" stroke-linejoin="round" stroke-miterlimit="2"><g transform="translate(-1.222 -1.222) scale(1.22222)"><path d="M10 1.818L9.182 1H1.818L1 1.818v7.364l.818.818h7.364L10 9.182V1.818z" fill="url(#_Linear1)"/><clipPath id="a"><path d="M10 1.818L9.182 1H1.818L1 1.818v7.364l.818.818h7.364L10 9.182V1.818z"/></clipPath><g clip-path="url(#a)"><path d="M1.182 0v1.182H0v10.636h1.182V13h10.636v-1.182H13V1.182h-1.182V0M1.182 1.182v10.636h10.636V1.182H1.182z" fill="url(#_Linear3)" transform="matrix(.6923 0 0 .6923 1 1)"/><path fill="#313742" d="M3.455 5.09h4.09v.82h-4.09z"/></g></g><defs><linearGradient id="_Linear1" x1="0" y1="0" x2="1" y2="0" gradientUnits="userSpaceOnUse" gradientTransform="rotate(43.486 -4.065 9.286) scale(5.5539)"><stop offset="0" stop-color="#e9ebf3"/><stop offset="1" stop-color="#99a2bb"/></linearGradient><linearGradient id="_Linear3" x1="0" y1="0" x2="1" y2="0" gradientUnits="userSpaceOnUse" gradientTransform="matrix(13 13 -13 13 0 0)"><stop offset="0" stop-color="#666e7f"/><stop offset=".49" stop-color="#798291"/><stop offset=".51" stop-color="#39484a"/><stop offset="1" stop-color="#2c383a"/></linearGradient></defs></svg>