<svg width="60" height="17" xmlns="http://www.w3.org/2000/svg" fill-rule="evenodd" clip-rule="evenodd" stroke-linecap="round" stroke-linejoin="round" stroke-miterlimit="1.5"><path d="M60 1v15l-1 1H1l-1-1V1l1-1h58l1 1zM1 1v15h58V1H1z" fill="#003bae"/><path fill="url(#_Linear1)" d="M1 1h58v15H1z"/><path d="M59 16H1V1h58v15zM2 2v13h56V2H2z" fill="#6e90c5" fill-opacity=".27"/><path d="M2 2h3v1H3v3H2V2z" fill="url(#_Linear2)"/><path d="M2 2h2v1H3v2H2V2zM7 8.5l4.536-4.536 6.364 6.364-4.536 4.536z" fill="#fff"/><path fill="#2c68cc" d="M8.303 8.732l3.536-3.535.707.707L9.01 9.439zm2.122 2.122l3.535-3.536.707.707-3.535 3.536zm2.121 2.121l3.535-3.536.708.707-3.536 3.536z"/><path d="M15 9V7l3.5-3.5 2 2L17 9h-2z" fill="#fff" stroke="#2c68cc"/><path d="M29.076 11.826c-.953.47-2.053.845-3.314 1.113l.161 1.234c1.18-.295 2.227-.684 3.153-1.167v-1.18zm-1.503-9.39a25.627 25.627 0 01-1.516 3.916c-.147.242-.322.39-.523.47l.322 1.14a69.167 69.167 0 001.878-.295c-.577 1.033-1.06 1.757-1.449 2.187a1.508 1.508 0 01-.576.362l.348 1.127c1.1-.135 2.267-.416 3.502-.832V9.384a18.15 18.15 0 01-2.053.59c.698-.912 1.556-2.374 2.603-4.386l-1.114-.403c-.228.483-.443.926-.657 1.342-.456.08-.899.16-1.355.214.604-.992 1.194-2.28 1.77-3.85l-1.18-.456zm8.948 12.368c.67 0 1.02-.35 1.02-1.02v-5.46h-6.158l.04-.925h6.064v-3.65h-3.019a14.83 14.83 0 00-.456-1.367l-1.314.214c.187.349.362.738.523 1.154h-2.965v3.38c-.013 2.818-.536 5.125-1.556 6.909l.912.805c.859-1.53 1.409-3.287 1.65-5.245v5.272h1.033V11.96h.818v2.629h.9v-2.63h.75v2.63h.9v-2.63h.818v1.584c0 .214-.094.335-.282.335l-.523-.04.268.966h.577zm-4.226-3.89V9.396h.818v1.516h-.818zm1.717-1.517h.751v1.516h-.75V9.397zm1.65 0h.819v1.516h-.819V9.397zm.658-4.52v1.449h-4.897v-1.45h4.897z" fill="#fff" fill-rule="nonzero"/><path d="M34.066 1.845l.094.027.094.04.08.04.08.067.054.08.04.095.068.147.053.175.067.16.054.189.054.174.067.174h2.616l.094.014.093.027.094.04.08.067.068.067.054.08.026.094.027.094v3.756l-.013.04-.014.054-.013.04-.013.054-.027.04-.027.04-.04.04-.027.028-.04.04-.027.013.08.054.067.067.067.08.04.095.027.093.014.094v5.54l-.014.081v.08l-.013.068-.013.08-.014.08-.013.068-.027.08-.027.067-.027.067-.04.08-.04.068-.04.054-.04.067-.054.067-.054.053-.054.054-.067.054-.067.04-.053.04-.068.04-.08.04-.067.027-.067.027-.08.027-.068.014-.08.013-.08.013-.068.014h-.08l-.08.013h-.712l-.04-.013-.054-.014-.04-.013-.054-.013-.04-.027-.04-.027-.04-.04-.027-.027-.04-.04h-.805l-.04-.014-.054-.013-.04-.014-.054-.013-.04-.027-.04-.027-.04-.04-.014-.013-.014.013-.04.04-.04.027-.04.027-.054.013-.04.014-.054.013-.04.014H33.06l-.04-.014-.054-.013-.04-.014-.054-.013-.04-.027-.027-.027-.014.04-.013.054-.027.04-.027.04-.04.04-.027.028-.04.04-.04.027-.04.027-.054.013-.04.013-.054.014-.04.013h-1.14l-.04-.013-.054-.014-.04-.013-.054-.013-.04-.027-.04-.027-.041-.04-.027-.027-.04-.04-.027-.04-.027-.04-.013-.055-.014-.04-.013-.053-.013-.04V13.77l-.04.094-.068.16-.067.162-.08.147-.067.161-.08.161-.081.148-.08.147-.081.148-.027.04-.027.04-.04.04-.04.04-.04.028-.04.026-.041.027-.054.014-.04.013h-.054l-.053.013h-.054l-.04-.013-.054-.013-.04-.014-.054-.013-.04-.027-.04-.027-.04-.027-.913-.805-.04-.04-.027-.027-.027-.04-.027-.04-.026-.054-.014-.04-.013-.054v-.04l-.014-.054v-.04l-.08.027-.094.04-.107.04-.108.04-.094.041-.107.04-.107.027-.094.04-.107.04-.108.027-.107.04-.107.027-.215.067-.228.068-.215.053-.228.067h-.053l-.04.014h-.054l-.054-.014h-.054l-.04-.013-.053-.014-.04-.026-.041-.027-.04-.027-.04-.04-.04-.04-.028-.04-.026-.041-.014-.04-.027-.054-.013-.04v-.054l-.161-1.234-.013-.054v-.04l.013-.054v-.053l.013-.04.027-.054.027-.04.027-.04.027-.04.027-.041.04-.027.04-.027.04-.027.054-.026.04-.014.054-.013.107-.027.12-.027.108-.027.108-.027.12-.026.108-.027.107-.027.107-.027.108-.027.107-.026.094-.04.107-.028.107-.026.094-.04.108-.027.094-.04.107-.028.094-.04.094-.027.107-.04.094-.04.094-.027.094-.04.094-.04.08-.04.094-.04.094-.028.094-.04.08-.04.094-.04.08-.054.095-.04.04-.014.053-.013.04-.014.054-.013h.054l.107.013.027.014.014-.054.026-.094-.241.067-.228.08-.228.054-.228.068-.228.053-.228.067-.228.04-.215.054-.228.04-.107.027-.108.027-.12.013-.108.014-.107.027-.107.013-.108.014-.107.013-.107.013-.108.014-.053.013h-.04l-.054-.013h-.054l-.04-.027-.054-.013-.04-.027-.04-.027-.04-.027-.04-.027-.028-.04-.026-.04-.027-.04-.027-.054-.013-.04-.35-1.127-.013-.054-.013-.054v-.093l.013-.054.014-.054.013-.04.014-.054.026-.04.027-.04.04-.04.027-.04.04-.027.04-.027.054-.027.04-.014.041-.013.027-.013.027-.014.026-.013.027-.014.027-.013.014-.013.026-.014.027-.013.014-.014.026-.013.027-.027.014-.013.027-.014.013-.027h.013l.054-.067.067-.08.08-.094.068-.094.08-.107.08-.108.081-.12.094-.134.08-.135.094-.134.027-.04-.281.04-.483.067-.054.014h-.054l-.053-.014h-.04l-.054-.013-.054-.027-.04-.027-.04-.027-.04-.026-.04-.04-.028-.04-.04-.041-.013-.04-.027-.054-.014-.04-.322-1.14-.013-.054-.013-.054v-.094l.013-.053.013-.054.014-.04.027-.054.026-.04.027-.04.04-.04.04-.041.041-.027.04-.027.04-.026h.027l.027-.014.014-.013h.013l.013-.014.014-.013.013-.014.027-.013.013-.013.014-.014.013-.013.027-.027.014-.027.013-.027.027-.027.094-.2.107-.215.094-.228.107-.228.094-.229.094-.228.107-.241.094-.228.08-.242.095-.241.094-.255.08-.241.094-.255.08-.255.08-.268.081-.269.014-.04.027-.054.026-.04.027-.04.04-.04.04-.04.041-.027.04-.027.04-.027.054-.013.054-.014h.04l.054-.013.107.013.094.027 1.18.456.094.04.08.067.068.067.04.08.04.095.027.094v.093l-.013.054-.014.04-.013.054-.107.295-.108.282-.107.282-.12.281-.108.269-.107.268-.121.255-.054.12-.053.121-.054.121-.067.12-.054.122-.053.12-.054.121-.067.107-.04.08h.013l.027-.066.08-.161.08-.175.081-.16.094-.175.161-.349.027-.04.027-.04.027-.04.04-.04.027-.028.04-.026.054-.027.04-.027.04-.013.054-.014.04-.013h.054l.094.013.107.027.537.188v-1.18l.013-.04.013-.054.014-.04.013-.054.027-.04.027-.04.04-.04.027-.027.04-.04.04-.027.04-.027.054-.013.04-.014.054-.013.04-.014h2.214l-.054-.107-.067-.134-.067-.12-.027-.055-.013-.04-.014-.053-.013-.054v-.094l.013-.054.014-.053.013-.04.014-.054.026-.04.027-.04.04-.04.027-.041.04-.027.054-.027.04-.027.04-.013.054-.014.054-.013 1.315-.215.04-.013h.094zm-1.368.751l.067.134.067.135.067.134.067.147.067.148.067.147.12.309h-2.964v3.769l-.013.135v.254l-.014.135v.12l-.013.121v.134l-.014.121-.013.12v.121l-.013.121-.014.12-.013.122-.014.12-.013.121-.013.12-.014.122-.013.107-.014.12-.027.121-.013.108-.027.12-.013.108-.014.107-.026.12-.027.108-.014.107-.027.108-.026.107-.027.107-.027.108-.027.107-.027.107-.026.108-.027.107-.027.094-.027.107-.027.107-.04.094-.027.108-.04.094-.027.093-.04.108-.027.094-.04.094-.04.094-.027.093-.04.094-.04.094-.041.094-.04.094-.04.094-.04.08-.041.094-.054.094-.04.08-.04.095-.054.08-.04.08-.04.094-.054.081.912.805.08-.148.081-.147.067-.148.08-.147.068-.148.08-.148.067-.147.067-.161.068-.148.053-.16.067-.162.054-.147.067-.161.054-.161.053-.161.054-.161.054-.174.04-.161.054-.175.04-.16.04-.175.04-.175.04-.16.04-.175.041-.174.027-.175.04-.187.027-.175.027-.174.027-.188.026-.174.027-.188v5.272h1.033V11.96h.818v2.629h.9v-2.63h.75v2.63h.9v-2.63h.818v1.665l-.014.027v.04l-.013.027-.014.027v.013l-.013.014-.014.013v.014H36.4l-.013.013v.013h-.014l-.013.014h-.014l-.013.013h-.013l-.014.014h-.027l-.013.013h-.067l-.523-.04.268.966h.697l.054-.014h.067l.054-.013.054-.014.04-.013.053-.013.04-.014.054-.027.04-.013.04-.027.041-.027.04-.027.027-.026.04-.027.027-.04.027-.027.027-.04.027-.04.027-.041.013-.04.027-.054.013-.04.014-.054.013-.04.013-.054.014-.053v-.068l.013-.053V8.324h-6.157l.04-.925h6.064v-3.65h-3.019l-.053-.187-.054-.188-.054-.174-.067-.174-.053-.175-.054-.16-.067-.162-.054-.147-1.314.214zm-3.716 9.27l-.08.04-.095.054-.094.04-.093.04-.094.04-.094.04-.094.04-.108.041-.093.04-.094.04-.108.027-.094.04-.107.041-.094.04-.107.027-.107.04-.094.027-.108.04-.107.027-.107.04-.108.027-.12.027-.108.04-.107.027-.107.027-.121.027-.107.027-.121.026-.12.027-.108.027-.12.027.16 1.234.215-.054.228-.067.201-.053.215-.067.107-.027.107-.04.094-.027.108-.04.093-.027.108-.04.094-.04.107-.028.094-.04.094-.04.094-.04.107-.027.094-.04.094-.04.094-.04.094-.041.08-.04.094-.04.094-.054.094-.04.08-.04.094-.041.094-.054.08-.04v-1.18l-.093.04zm-1.49-9.162l-.08.268-.094.255-.08.255-.094.254-.08.255-.094.255-.094.242-.108.241-.094.242-.094.241-.107.228-.094.242-.107.228-.107.214-.108.228-.027.04-.026.04-.027.041-.04.04-.027.04-.027.027-.04.04-.027.027-.027.027-.04.027-.04.027-.027.027-.04.013-.027.027-.04.013-.04.014.321 1.14.483-.067.47-.08.228-.027.228-.04.241-.04.228-.041-.107.188-.107.188-.094.174-.108.161-.094.161-.094.16-.093.148-.094.135-.094.134-.08.134-.095.12-.08.108-.08.107-.081.094-.067.094-.08.08-.027.027-.04.027-.028.027-.026.027-.04.027-.027.027-.04.026-.04.027-.028.014-.04.026-.04.014-.04.027-.04.013-.041.027-.04.013-.04.014.348 1.127.108-.014.094-.013.107-.014.107-.013.107-.013.108-.027.107-.014.094-.027.107-.013.108-.027.214-.04.215-.04.228-.054.215-.054.228-.053.214-.067.228-.067.228-.067.228-.068.228-.067.229-.08V9.384l-.135.04-.12.054-.134.04-.135.04-.12.04-.135.041-.134.04-.12.04-.135.027-.12.04-.134.04-.121.028-.134.026-.121.04-.134.028-.12.026.066-.08.067-.094.067-.094.067-.094.067-.107.081-.108.067-.107.067-.107.08-.107.068-.121.08-.12.08-.122.068-.12.08-.135.08-.134.081-.134.161-.282.175-.295.174-.295.174-.322.188-.335.175-.349.2-.349.189-.375-1.114-.403-.174.35-.08.173-.081.175-.08.16-.081.162-.08.16-.081.162-.336.053-.174.04-.174.027-.161.027-.175.027-.16.014-.175.026.054-.094.053-.093.067-.094.054-.108.054-.094.053-.107.054-.107.067-.107.054-.108.053-.107.054-.107.054-.108.053-.12.054-.121.067-.108.054-.12.053-.121.054-.134.107-.242.108-.254.12-.269.108-.268.107-.282.107-.282.108-.295-1.18-.456-.081.269zm5.621 8.21h-.818V9.396h.818v1.516zm1.65 0h-.75V9.396h.75v1.516zm1.718 0h-.819V9.396h.819v1.516zm-6.829-3.34l-.174.308-.174.295-.175.281-.08.148-.08.134-.081.134-.08.121-.054.094.12-.04.135-.04.12-.04.121-.041.134-.054.054-.013h.04l.054-.014.107.014.013-.12.014-.122V8.5l.013-.121.014-.12v-.121l.013-.121V7.76l.014-.12v-.202l-.068.134zm6.668-1.248h-4.897v-1.45h4.897v1.45zm-4.36-.913v.376h3.823v-.376H31.96z" fill="#003bae"/><path d="M43.771 6.232v1.85h-1.046c.295-.777.577-1.65.845-2.628h2.992V4.246h-2.697c.108-.51.228-1.046.336-1.596l-1.208-.174a46.123 46.123 0 01-.349 1.77h-1.3v1.208h1.005c-.281 1.073-.59 1.958-.912 2.67l.282 1.113h2.052v1.77c-.791.134-1.636.242-2.535.349l.174 1.22c.819-.107 1.61-.214 2.361-.348v2.643h1.234v-2.884c.537-.121 1.06-.242 1.557-.363v-1.18c-.483.107-1.007.228-1.557.335V9.237h1.382V8.083h-1.382V6.232h-1.234zm3.542-3.314v3.005h5.5V2.918h-5.5zm4.292 2.053h-3.071V3.924h3.071v1.047zm-4.239 2.696v5.098c-.389.026-.791.053-1.193.093l.16 1.14c1.812-.16 3.488-.361 5.044-.576v1.462h1.221v-1.65l1.06-.188V11.96c-.335.053-.684.12-1.06.174V7.667h.926V6.554h-7.016v1.113h.858zm4.011 0v.912h-2.803v-.912h2.803zm-2.803 4.977v-1.087h2.803v.765c-.885.107-1.824.215-2.803.322zm0-2.12v-.912h2.803v.912h-2.803z" fill="#fff" fill-rule="nonzero"/><path d="M43.074 1.952l1.207.175.094.013.094.054.08.053.067.081.054.08.04.094.027.094v.108l-.013.053-.04.201-.04.215-.041.201-.054.202-.026.134h2.039l.093.013.094.027.027.013v-.898l.014-.04.013-.054.013-.04.014-.054.027-.04.027-.04.04-.041.027-.027.04-.04.04-.027.04-.027.054-.013.04-.014.054-.013.04-.013h5.554l.094.013.094.027.094.04.08.067.067.067.054.08.027.095.026.094v3.112l-.013.04h.188l.094.013.094.027.094.04.08.068.067.067.054.08.027.094.026.094v1.22l-.013.04-.013.054-.014.04-.013.053-.027.04-.027.041-.04.04-.027.027-.04.04-.04.027-.04.027-.054.013-.04.014-.054.013-.04.014h-.444v3.3l.175-.027.134-.027.134-.013.04-.014h.054l.108.014.094.04.093.04.081.067.054.08.053.094.027.094.014.108V13.1l-.014.04-.013.054-.014.04-.013.054-.027.04-.027.04-.04.04-.027.04-.04.028-.04.026-.054.027-.04.014-.04.013-.054.013-.617.108v1.261l-.014.04-.013.054-.013.04-.014.054-.027.04-.027.04-.04.04-.027.027-.04.04-.04.027-.04.027-.054.013-.04.014-.054.013-.04.014h-1.328l-.04-.014-.054-.013-.04-.014-.054-.013-.04-.027-.04-.027-.04-.04-.028-.027-.04-.04-.027-.04-.026-.04-.014-.054-.013-.04-.014-.054-.013-.04v-.899l-.282.027-.308.04-.296.04-.321.04-.309.04-.309.028-.321.04-.322.04-.322.027-.336.04-.322.04-.335.027-.335.027-.336.04h-.107l-.054-.013-.04-.014-.054-.013-.04-.027-.054-.027-.04-.026-.04-.027-.027-.04-.027-.04-.027-.041-.026-.054-.027-.04-.014-.054v-.04l-.16-1.14-.014-.054v-.053l.013-.054v-.04l.014-.054.027-.054.026-.04.027-.04.027-.04.04-.04.027-.027.054-.027.04-.027.04-.027.054-.013.04-.014.054-.013.16-.014.148-.013.161-.013.148-.014h.094v-.188l-.054.027-.04.027-.054.014-.375.08-.39.094-.375.094v2.508l-.013.04-.014.054-.013.04-.014.054-.026.04-.027.04-.04.04-.027.028-.04.04-.04.027-.041.027-.054.013-.04.013-.054.014-.04.013h-1.341l-.04-.013-.054-.014-.04-.013-.054-.013-.04-.027-.04-.027-.04-.04-.028-.027-.04-.04-.027-.04-.027-.04-.013-.055-.013-.04-.014-.053-.013-.04v-2.068l-.242.04-.295.041-.308.04-.296.04-.308.04-.309.041-.04.013h-.053l-.054-.013h-.04l-.054-.013-.04-.027-.04-.014-.054-.027-.027-.026-.04-.04-.04-.04-.027-.041-.027-.04-.014-.04-.026-.04-.014-.054v-.04l-.174-1.221-.014-.054v-.054l.014-.053v-.04l.013-.054.027-.04.013-.054.027-.04.04-.04.027-.028.04-.04.04-.027.041-.026.04-.027.054-.014.054-.013h.04l.335-.04.336-.04.322-.054.308-.04.309-.04.308-.041.148-.027v-.778h-1.57l-.04-.013-.054-.014-.053-.013-.04-.027-.04-.013-.041-.04-.04-.027-.04-.04-.027-.04-.027-.041-.027-.04-.013-.054-.027-.04-.282-1.114v-.053l-.013-.054v-.054l.013-.04v-.054l.013-.053.027-.04.054-.135.054-.134.067-.134.053-.148.054-.147.054-.148.053-.147.067-.161.054-.161.054-.175.053-.174.054-.174.027-.08h-.362l-.04-.014-.054-.014-.04-.013-.054-.013-.04-.027-.04-.027-.04-.04-.028-.027-.04-.04-.027-.04-.027-.041-.013-.054-.013-.04-.014-.054-.013-.04V4.193l.013-.04.014-.054.013-.04.013-.054.027-.04.027-.04.04-.04.027-.028.04-.04.04-.027.04-.027.054-.013.04-.014.054-.013.04-.013h.926l.04-.215.04-.215.054-.228.04-.214.04-.228.041-.228.014-.054.013-.04.013-.054.027-.04.04-.04.027-.04.04-.04.04-.028.041-.027.04-.026.054-.027.054-.014h.04l.053-.013h.054l.054.013zm3.434 4.602v1.113h.858v5.098l-.295.026-.295.014-.147.013-.161.014-.148.013-.147.013.16 1.14.336-.026.335-.04.336-.027.322-.04.335-.027.322-.04.322-.027.308-.04.309-.04.322-.041.308-.027.296-.04.308-.04.295-.04.59-.081v1.462h1.221v-1.65l1.06-.188V11.96l-.12.027-.135.013-.255.054-.134.013-.134.027-.148.013-.134.027V7.667h.926V6.554h-7.016zm-3.555-3.85l-.04.228-.04.228-.054.228-.04.214-.04.215-.095.43h-1.3v1.207h1.005l-.053.2-.054.189-.054.2-.053.175-.054.188-.054.174-.067.175-.053.174-.054.161-.054.161-.067.148-.053.16-.067.148-.054.148-.067.134-.054.134.282 1.114h2.052v1.77l-.147.027-.148.027-.308.04-.309.054-.308.04-.322.04-.322.04-.336.04-.335.041.174 1.22.309-.04.295-.04.309-.04.295-.04.295-.04.281-.054.296-.04.134-.027.147-.027v2.643h1.234v-2.884l.403-.094.389-.08.389-.095.376-.094v-1.18l-.376.08-.376.094-.2.04-.202.04-.201.041-.202.04V9.237h1.382V8.083h-1.382V6.232h-1.234v1.85h-1.046l.054-.147.053-.147.054-.148.054-.16.053-.148.054-.161.054-.161.053-.161.054-.175.054-.16.053-.175.054-.174.054-.175.04-.174.053-.175.054-.187h2.992V4.246h-2.697l.08-.389.081-.389.054-.201.04-.201.04-.215.04-.201-1.207-.174-.04.228zm8.424 9.618l-.67.08-.698.08-.71.081-.725.08v-1.086h2.803v.765zm0-1.798h-2.803v-.912h2.803v.912zm-4.56-.966l-.04.04-.028.028-.04.04-.04.027-.04.026-.054.014-.04.013-.054.014-.04.013h-.899v.349l.148-.027.389-.094.362-.08h.054l.053-.014.094.014.094.027.094.04v-.456l-.014.026zm4.56-.979h-2.803v-.912h2.803v.912zM46.75 5.95l-.04.014-.054.014-.04.013h-1.14l.04.094.027.094v1.368h.43V6.5l.013-.04.013-.054.014-.04.013-.054.027-.04.027-.04.04-.04.027-.027.04-.04.04-.028.04-.026.054-.014.04-.013.054-.014.04-.013h.335l-.014-.04v-.04l-.027.013zm.564-3.03v3.004h5.5V2.918h-5.5zm4.292 2.052h-3.071V3.924h3.071v1.047z" fill="#003bae"/><defs><linearGradient id="_Linear1" x1="0" y1="0" x2="1" y2="0" gradientUnits="userSpaceOnUse" gradientTransform="matrix(58 0 0 15 1 8.5)"><stop offset="0" stop-color="#6b8dc4"/><stop offset=".43" stop-color="#87a3cf"/><stop offset=".89" stop-color="#d5dfee"/><stop offset=".96" stop-color="#c5d3e8"/><stop offset=".98" stop-color="#9bb3d7"/><stop offset="1" stop-color="#6b8dc4"/></linearGradient><linearGradient id="_Linear2" x1="0" y1="0" x2="1" y2="0" gradientUnits="userSpaceOnUse" gradientTransform="matrix(0 -2 2.66667 0 3 5)"><stop offset="0" stop-color="#b3c4e0"/><stop offset="1" stop-color="#a1b7d9"/></linearGradient></defs></svg>