<svg width="60" height="17" xmlns="http://www.w3.org/2000/svg" fill-rule="evenodd" clip-rule="evenodd" stroke-linejoin="round" stroke-miterlimit="2"><path d="M60 1v15l-1 1H1l-1-1V1l1-1h58l1 1zM1 1v15h58V1H1z" fill="#003bae"/><path fill="url(#_Linear1)" d="M1 1h58v15H1z"/><path d="M59 16H1V1h58v15zM2 2v13h56V2H2z" fill="#6e90c5" fill-opacity=".27"/><path d="M2 2h3v1H3v3H2V2z" fill="url(#_Linear2)"/><path d="M2 2h2v1H3v2H2V2zM19 5.74L17.26 4H8.74L7 5.74v5.52L8.74 13h8.52L19 11.26V5.74z" fill="#fff"/><clipPath id="a"><path d="M19 5.74L17.26 4H8.74L7 5.74v5.52L8.74 13h8.52L19 11.26V5.74z"/></clipPath><g clip-path="url(#a)"><path fill="#2c68cc" d="M14 5h3v3h-3zM9 8h3v1H9zM9 10h8v1H9z"/></g><g><path d="M27.935 8.284h2.978v1.677h-2.978V8.284zm2.978 2.87v1.544c0 1.3.604 1.958 1.825 1.958h3.434c.657 0 1.113-.12 1.368-.349.242-.255.403-.952.483-2.106l-1.22-.416c-.04.832-.121 1.328-.229 1.463-.134.134-.348.214-.617.214h-2.924c-.563 0-.845-.322-.845-.952v-1.355h4.333V4.233h-4.333v-1.73h-1.275v1.73h-4.252v7.982h1.274v-1.06h2.978zm1.275-1.193V8.284h3.072v1.677h-3.072zm3.072-2.844h-3.072V5.44h3.072v1.677zM30.913 5.44v1.677h-2.978V5.44h2.978z" fill="#fff" fill-rule="nonzero"/><path d="M32.241 1.966l.094.027.094.026.08.054.068.067.067.08.04.095.027.093.013.094v1.194h3.797l.094.014.094.026.093.04.081.068.067.067.054.08.027.094.026.094v7.029l-.013.04-.013.054 1.167.39.094.04.08.067.067.067.054.08.04.094.027.108v.093l-.027.215-.013.201-.014.201-.013.094-.014.094-.013.094-.014.094-.013.08-.013.081-.014.08-.013.081-.027.08-.013.081-.014.067-.013.067-.027.067-.013.067-.027.067-.014.067-.027.068-.026.053-.027.054-.027.067-.027.054-.04.053-.027.054-.04.054-.04.053-.027.027-.027.027-.027.027-.027.027-.053.04-.04.027-.04.026-.041.027-.054.027-.04.027-.054.027-.04.027-.054.013-.053.027-.04.013-.054.014-.054.026-.053.014-.054.013-.054.014-.053.013-.054.014h-.054l-.067.013-.054.013h-.053l-.067.014h-.054l-.067.013h-.121l-.134.014H32.604l-.067-.014h-.121l-.067-.013h-.054l-.067-.014-.067-.013-.054-.013-.067-.014-.053-.013-.054-.014-.067-.013-.054-.014-.053-.026-.054-.014-.054-.027-.053-.026-.054-.027-.054-.027-.053-.027-.054-.027-.054-.027-.04-.04-.054-.027-.04-.04-.054-.04-.04-.027-.04-.04-.04-.04-.04-.054-.04-.04-.041-.04-.04-.054-.027-.04-.04-.054-.027-.04-.04-.054-.027-.054-.027-.053-.027-.054-.027-.054-.013-.053-.027-.054-.027-.054-.013-.053-.027-.067-.013-.054-.014-.054-.013-.067-.014-.053-.013-.068-.014-.053-.013-.067v-.067l-.013-.054V13.1l-.014-.067v-.134l-.013-.067V11.69h-1.905V12.268l-.013.04-.014.054-.013.04-.014.054-.027.04-.026.04-.04.04-.027.028-.04.04-.04.027-.041.027-.054.013-.04.013-.054.014-.04.013H26.607l-.04-.013-.054-.014-.04-.013-.053-.013-.04-.027-.041-.027-.04-.04-.027-.027-.04-.04-.027-.04-.027-.041-.013-.054-.014-.04-.013-.054-.014-.04V4.18l.014-.04.013-.054.014-.04.013-.054.027-.04.027-.04.04-.04.027-.027.04-.04.04-.027.04-.027.054-.014.04-.013.054-.013.04-.014h3.77V2.45l.013-.04.014-.054.013-.04.013-.054.027-.04.027-.04.04-.04.027-.028.04-.04.04-.027.041-.027.054-.013.04-.013.054-.014.04-.013H32.24zm-1.328.536v1.73h-4.252v7.983h1.274v-1.06h2.978v1.543l.014.241.013.215.04.2.04.202.068.174.08.161.094.148.108.12.12.121.134.094.148.094.16.067.189.054.188.04.2.014.229.013H36.413l.054-.013h.107l.054-.014h.054l.053-.013h.04l.054-.014h.04l.054-.013.04-.013.04-.014h.04l.041-.013.04-.014.04-.013.04-.014.041-.013.027-.027.04-.013.027-.014.04-.013.027-.027.027-.013.027-.014.027-.026.026-.014.027-.027.027-.027.014-.026.026-.027.014-.04.027-.027.013-.04.027-.04.013-.041.027-.054.014-.053.013-.04.027-.054.013-.067.014-.054.013-.067.027-.054.013-.067.014-.08.013-.067.013-.08.014-.068.013-.08.014-.08v-.095l.013-.08.014-.094.013-.188.027-.201.013-.215-1.22-.416-.014.148v.147l-.013.135-.014.134-.013.12-.014.108-.013.107-.013.094-.014.094-.013.067-.014.08-.013.054-.014.04-.013.027v.014l-.013.026-.014.014-.013.027v.013l-.014.014-.026.026-.027.027-.027.014-.04.026-.027.014-.04.013-.027.027-.04.013-.04.014-.04.013h-.041l-.054.014h-.04l-.054.013H32.926l-.04-.013h-.054l-.04-.014-.04-.013h-.054l-.04-.014-.027-.026-.04-.014-.041-.013-.027-.027-.04-.027-.027-.027-.027-.026-.027-.027-.026-.027-.027-.04-.027-.027-.013-.04-.027-.04-.014-.041-.013-.04-.014-.04-.013-.04-.013-.054v-.054l-.014-.04v-.054l-.013-.054v-1.475h4.333V4.233h-4.333v-1.73h-1.275zm1.811 9.19v.978l.04.135.068.094.107.027H36.065l.026-.014h.027l.014-.013h.013v-.014l.014-.053.013-.067.013-.067.014-.094.013-.094.014-.094.013-.12v-.122l.013-.134.014-.134v-.148l.013-.053v-.014h-3.555zm-1.81-1.731h-2.979V8.284h2.978v1.677zm4.346 0h-3.072V8.284h3.072v1.677zm-6.788-1.14v.603h1.905v-.603h-1.905zm4.252 0v.603h2v-.603h-2zm2.536-1.704h-3.072V5.44h3.072v1.677zm-4.347 0h-2.978V5.44h2.978v1.677zm1.811-1.14v.603h2v-.603h-2zm-4.252 0v.603h1.905v-.603h-1.905z" fill="#003bae"/><g><path d="M47.702 4.287H45.3V2.422h-1.248v1.865h-2.401v10.007h1.194v-.792h3.662v.792h1.194V4.287zm-4.856 8.075V9.357h1.207v3.005h-1.207zm2.455 0V9.357h1.207v3.005H45.3zM42.846 8.23V5.44h1.207v2.79h-1.207zM45.3 5.44h1.207v2.79H45.3V5.44zm3.367-2.347V14.87h1.207V4.233h1.985c-.402 1.395-.818 2.602-1.247 3.608.992 1.355 1.489 2.442 1.502 3.274-.013.348-.053.563-.12.67-.094.108-.282.175-.564.202-.322 0-.697-.04-1.154-.094l.363 1.287c1.073 0 1.797-.16 2.146-.47.335-.294.51-.83.51-1.595-.014-.846-.483-1.932-1.422-3.274.47-1.167.899-2.441 1.301-3.823v-.925h-4.507z" fill="#fff" fill-rule="nonzero"/><path d="M45.354 1.885l.094.027.094.027.08.054.068.067.067.08.04.094.027.094.013.094V3.75h1.865l.094.013.094.027.094.04.08.067.067.081V3.039l.014-.04.013-.054.013-.04.014-.054.027-.04.026-.04.04-.04.027-.027.04-.04.041-.028.04-.026.054-.014.04-.013.054-.014.04-.013h4.561l.094.013.094.027.094.04.08.068.067.067.054.08.027.094.027.094V4.072l-.014.054-.013.04-.08.268-.068.255-.08.255-.08.255-.081.241-.08.255-.081.242-.08.241-.081.241-.08.242-.095.241-.08.228-.08.228-.094.229-.068.187.175.269.16.241.135.242.134.241.12.228.122.228.093.228.094.215.08.214.068.215.054.215.053.2.027.202.027.201.013.188v.174l-.013.068v.16l-.013.068v.067l-.014.08-.013.067-.014.067-.013.067-.014.068-.013.067-.013.067-.014.067-.027.067-.013.053-.027.068-.027.067-.027.053-.026.054-.027.067-.027.054-.04.053-.027.054-.04.054-.04.053-.04.04-.041.054-.04.04-.04.054-.054.04-.054.04-.054.04-.053.041-.054.04-.067.04-.054.027-.067.027-.067.04-.067.027-.067.027-.067.014-.067.026-.067.027-.08.014-.081.026-.067.014-.08.013-.081.014-.08.013-.081.014-.094.013-.08.013-.094.014h-.08l-.095.013h-.094l-.094.014h-.201l-.107.013h-.255l-.04-.013-.054-.014-.04-.013-.04-.014v1.261l-.014.04-.013.054-.014.04-.013.054-.027.04-.027.04-.04.04-.027.028-.04.04-.04.027-.04.027-.054.013-.04.013-.054.014-.04.013H48.614l-.04-.013-.054-.014-.04-.013-.054-.013-.04-.027-.04-.027-.04-.04-.027-.027-.04-.04-.027-.04-.027-.04-.014-.055-.013-.04-.013-.053-.014-.04v-.323.014l-.04.04-.027.027-.04.04-.04.027-.04.027-.054.013-.04.014-.054.013-.04.013h-1.302l-.04-.013-.054-.013-.04-.014-.054-.013-.04-.027-.04-.027-.04-.04-.027-.027-.04-.04-.027-.04-.027-.04-.013-.054-.014-.04-.013-.054-.014-.04v-.309h-2.589v.309l-.013.04-.014.053-.013.04-.013.054-.027.04-.027.04-.04.041-.027.027-.04.04-.04.027-.04.027-.054.013-.04.014-.054.013-.04.013h-1.302l-.04-.013-.054-.013-.04-.014-.054-.013-.04-.027-.04-.027-.04-.04-.027-.027-.04-.04-.027-.04-.027-.04-.014-.054-.013-.04-.013-.054-.014-.04V4.233l.014-.04.013-.054.013-.04.014-.054.027-.04.027-.04.04-.04.027-.028.04-.04.04-.027.04-.026.054-.014.04-.013.054-.014.04-.013H43.516V2.368l.014-.04.013-.054.014-.04.013-.054.027-.04.027-.04.04-.04.027-.027.04-.04.04-.027.04-.027.054-.013.04-.014.054-.013.04-.014h1.355zm3.314 1.208V14.87h1.207V4.233h1.985l-.08.255-.067.255-.08.254-.081.242-.067.241-.08.242-.081.228-.08.228-.081.228-.067.215-.08.214-.081.215-.08.201-.081.201-.08.202-.081.187.174.255.175.242.16.241.148.228.134.228.121.215.107.215.094.214.094.201.08.188.054.188.054.188.054.174.026.175.014.16.013.162v.12l-.013.067v.054l-.014.054v.094l-.013.04-.013.04v.04l-.014.027-.013.027v.04l-.014.027-.013.013-.013.027-.014.014-.027.027-.027.013-.026.013-.027.027-.027.014-.027.013-.04.013-.027.014h-.04l-.04.013-.054.014-.04.013h-.04l-.054.014h-.242l-.067-.014h-.134l-.134-.013-.148-.014-.16-.013-.162-.027-.16-.013.362 1.287H50.935l.094-.013h.174l.094-.013h.08l.08-.014h.081l.08-.013.081-.014.067-.013.081-.013.067-.014.067-.013.067-.014.067-.013.067-.014.054-.026.054-.014.053-.027.054-.013.054-.027.053-.013.04-.027.054-.027.04-.027.04-.027.04-.026.028-.027.04-.027.027-.027.04-.027.027-.04.027-.027.027-.04.026-.027.027-.04.014-.04.026-.04.027-.04.014-.041.027-.04.013-.054.027-.04.013-.054.014-.04.026-.054.014-.053.013-.054.014-.054v-.053l.013-.068.014-.053.013-.054v-.067l.013-.067v-.121l.014-.067V11.035l-.014-.081v-.08l-.013-.081-.013-.094-.014-.08-.027-.095-.013-.094-.027-.08-.027-.094-.027-.094-.04-.107-.027-.094-.04-.094-.04-.107-.04-.094-.054-.108-.04-.107-.054-.094-.054-.107-.053-.12-.067-.108-.054-.107-.067-.121-.067-.107-.067-.121-.08-.12-.068-.108-.08-.121-.08-.12-.095-.135-.08-.12.094-.215.08-.228.08-.228.095-.228.08-.228.08-.228.081-.242.08-.228.081-.241.08-.242.081-.255.08-.241.081-.255.08-.255.068-.255.08-.255v-.925h-4.507zm-4.615-.671v1.865h-2.401v10.007h1.194v-.792h3.662v.792h1.194V4.287H45.3V2.422h-1.248zm2.455 9.94H45.3V9.357h1.207v3.005zm-2.455 0h-1.207V9.357h1.207v3.005zm-.67-2.468v1.932h.133V9.894h-.134zm2.454 0v1.932h.134V9.894h-.134zm4.575 1.475l.402.04.268.028.242.013h.134l.027-.013h.067v-.027l.013-.027v-.08l.014-.054v-.242l-.014-.067v-.067l-.013-.067-.014-.08-.026-.068-.014-.08-.027-.08-.013-.081-.027-.08-.04-.081-.027-.094-.04-.08-.04-.094-.04-.094-.04-.094-.055-.094-.04-.094-.054-.107-.053-.108-.067-.093-.067-.108-.054-.107-.067-.107-.08-.121-.068-.107-.08-.121-.08-.12-.027-.041v2.897zM44.053 8.23h-1.207V5.44h1.207v2.79zm2.455 0H45.3V5.44h1.207v2.79zm-3.126-2.253v1.717h.134V5.977h-.134zm2.455 0v1.717h.134V5.977h-.134zm4.575-1.208v2.16l.026-.067.067-.215.081-.2.08-.215.081-.228.067-.215.08-.228.081-.242.067-.241.08-.241.027-.068h-.737z" fill="#003bae"/></g></g><defs><linearGradient id="_Linear1" x1="0" y1="0" x2="1" y2="0" gradientUnits="userSpaceOnUse" gradientTransform="matrix(58 0 0 15 1 8.5)"><stop offset="0" stop-color="#6b8dc4"/><stop offset=".43" stop-color="#87a3cf"/><stop offset=".89" stop-color="#d5dfee"/><stop offset=".96" stop-color="#c5d3e8"/><stop offset=".98" stop-color="#9bb3d7"/><stop offset="1" stop-color="#6b8dc4"/></linearGradient><linearGradient id="_Linear2" x1="0" y1="0" x2="1" y2="0" gradientUnits="userSpaceOnUse" gradientTransform="matrix(0 -2 2.66667 0 3 5)"><stop offset="0" stop-color="#b3c4e0"/><stop offset="1" stop-color="#a1b7d9"/></linearGradient></defs></svg>