<svg width="60" height="17" xmlns="http://www.w3.org/2000/svg" fill-rule="evenodd" clip-rule="evenodd" stroke-linecap="round" stroke-linejoin="round" stroke-miterlimit="1.5"><path d="M60 1v15l-1 1H1l-1-1V1l1-1h58l1 1zM1 1v15h58V1H1z" fill="#003bae"/><path fill="url(#_Linear1)" d="M1 1h58v15H1z"/><path d="M59 16H1V1h58v15zM2 2v13h56V2H2z" fill="#6e90c5" fill-opacity=".27"/><path d="M2 2h3v1H3v3H2V2z" fill="url(#_Linear2)"/><path d="M2 2h2v1H3v2H2V2z" fill="#fff"/><path d="M25.372 5.047v1.238h1.564c-.408 1.604-1.047 3.044-1.917 4.296l.557 1.427a17.793 17.793 0 001.387-3.1v6.065h1.264V8.174c.259.436.558.98.897 1.632l.735-1.102a21.957 21.957 0 00-1.632-1.835v-.584h1.292V5.047h-1.292V2.504h-1.264v2.543h-1.591zm6.064 1.713v.762h4.215V6.8c.422.407.897.802 1.427 1.182l.708-1.087c-1.74-1.25-2.978-2.72-3.685-4.378h-1.197c-.843 1.809-2.052 3.277-3.617 4.392l.694 1.088c.504-.354.993-.775 1.455-1.238zm3.753-.435H31.83a12.411 12.411 0 001.672-2.529 10.12 10.12 0 001.686 2.53zM29.6 13.408v1.252h7.872v-1.252h-1.945c.517-1.44.966-3.072 1.32-4.894l-1.224-.312c-.395 2.052-.843 3.793-1.36 5.206H29.6zm1.74-4.84l-1.115.381a40.24 40.24 0 01.938 3.875l1.129-.299a34.18 34.18 0 00-.952-3.956zm2.04-.475l-1.102.353a34.58 34.58 0 01.843 3.753l1.17-.313c-.273-1.428-.572-2.692-.911-3.793z" fill="#fff" fill-rule="nonzero"/><path d="M28.276 1.973l.049.007.048.012.047.015.045.02.043.024.04.027.039.032.035.036.031.037.028.041.023.043.02.045.016.047.011.048.007.048.002.05v2.008h.759l.049.002.049.007.048.012.047.015.045.02.042.025.041.027.038.032.035.035.031.037.029.041.023.043.02.045.016.047.011.048.007.049.002.049v.55l.101-.096.12-.118.119-.12.116-.122.115-.123.113-.126.11-.128.109-.13.106-.13.105-.134.103-.136.1-.138.099-.138.097-.142.093-.144.093-.145.09-.148.09-.149.086-.15.085-.154.083-.155.08-.157.08-.16.078-.165.024-.045.027-.041.032-.04.034-.035.038-.032.041-.029.044-.024.046-.02.047-.017.049-.012.05-.008.05-.002H34.1l.052.003.05.008.05.012.05.017.046.022.045.026.041.03.039.035.036.038.03.04.028.045.022.047.033.075.032.072.033.073.034.071.034.073.035.071.036.071.036.072.038.07.038.07.039.07.04.071.04.07.04.07.043.07.043.069.042.068.044.07.045.068.045.067.047.068.047.068.048.067.048.067.049.067.05.067.05.066.052.066.052.067.053.065.054.065.054.065.055.066.056.064.056.064.057.064.058.065.06.063.06.063.059.062.123.127.126.124.129.123.131.123.135.121.138.12.141.119.144.118.146.116.15.117.153.114.159.116.039.032.036.035.033.038.029.042.025.044.02.047.017.048.011.049.007.05.002.05-.003.05-.008.05-.012.05-.017.047-.02.046-.026.044-.707 1.087-.03.042-.033.038-.038.034-.04.032-.012.008.005.038.003.05-.003.05-.007.05-.034.172-.034.171-.035.17-.036.17-.036.168-.037.167-.037.166-.038.165-.037.164-.04.162-.039.161-.04.161-.04.16-.041.157-.041.158-.042.156-.043.155-.043.154-.042.151-.044.152-.045.15-.044.15-.046.148-.046.147-.046.147-.045.145-.044.132h1.197l.049.002.049.007.048.011.047.016.044.02.043.025.041.027.038.032.034.034.032.038.029.041.023.043.02.045.016.047.011.048.007.048.002.05v1.25l-.002.05-.007.049-.011.047-.016.047-.02.045-.023.043-.029.04-.032.039-.034.034-.038.032-.04.028-.044.024-.044.02-.047.016-.048.01-.05.008-.048.002H29.6l-.05-.002-.048-.007-.048-.011-.047-.016-.045-.02-.043-.024-.04-.028-.038-.032-.036-.034-.03-.038-.03-.04-.023-.044-.02-.045-.015-.047-.012-.047-.007-.05-.002-.048v-1.252l.002-.049.007-.048.012-.048.015-.047.02-.045.024-.043.028-.04.03-.039.037-.034.037-.032.041-.027.043-.025.045-.02.047-.016.048-.01.049-.008.049-.002h1.03l-.04-.199-.05-.248-.05-.245-.052-.245-.053-.244-.055-.242-.056-.241-.058-.24-.058-.238-.06-.237-.061-.235-.062-.235-.063-.234-.041-.145-.304.454-.03.041-.033.037-.037.035-.04.03-.042.027-.044.022-.047.018-.05.014-.048.009-.05.004h-.05l-.05-.005-.05-.01-.048-.014-.046-.019-.045-.022-.043-.028-.038-.03-.017-.016v4.779l-.002.049-.007.049-.011.048-.015.045-.02.046-.024.043-.028.04-.031.039-.035.034-.039.032-.04.027-.043.025-.045.02-.047.016-.048.01-.05.007-.048.003h-1.264l-.05-.003-.048-.006-.048-.011-.047-.017-.045-.02-.043-.024-.04-.027-.038-.032-.035-.034-.032-.038-.027-.04-.025-.044-.02-.046-.015-.045-.012-.048-.007-.05-.002-.048v-3.424l-.083.163-.1.188-.102.188-.103.181-.027.043-.03.04-.034.037-.038.033-.04.03-.043.025-.045.023-.047.017-.05.012-.048.009-.05.004-.051-.001-.049-.006-.049-.01-.048-.016-.047-.02-.044-.024-.041-.027-.04-.032-.035-.035-.033-.038-.028-.041-.025-.044-.02-.046-.558-1.428-.016-.048-.011-.051-.007-.051-.001-.052.003-.052.008-.051.013-.05.018-.05.024-.046.026-.044.08-.115.075-.114.076-.115.073-.115.072-.117.071-.118.07-.119.068-.12.067-.12.065-.123.064-.123.064-.125.062-.125.061-.127.06-.127.057-.129.057-.129.056-.13.054-.132.053-.133.052-.133.05-.135.05-.135.046-.137.047-.138.046-.138.044-.14.014-.05h-.86l-.05-.002-.048-.006-.048-.011-.047-.017-.045-.02-.043-.024-.04-.027-.038-.032-.035-.034-.031-.038-.028-.041-.025-.043-.019-.046-.016-.046-.011-.048-.008-.048-.002-.05V5.048l.002-.05.008-.048.01-.048.017-.047.02-.045.024-.043.028-.04.031-.038.035-.035.038-.032.04-.027.043-.025.045-.02.047-.015.048-.012.049-.007.049-.002h1.057v-2.01l.002-.049.007-.048.012-.048.016-.047.02-.045.024-.043.027-.04.032-.038.035-.036.037-.032.041-.027.043-.024.045-.02.047-.015.048-.012.049-.007.049-.002h1.264l.049.002zm-1.313.531v2.543h-1.591v1.238h1.564l-.04.15-.04.148-.041.148-.043.147-.045.146-.045.145-.047.144-.049.143-.05.142-.05.142-.053.14-.054.14-.055.137-.057.136-.057.137-.06.135-.06.134-.063.133-.063.131-.064.132-.066.13-.068.128-.068.127-.07.127-.072.125-.072.125-.075.123-.075.122-.076.122-.079.12-.08.118-.08.119.557 1.427.1-.18.1-.18.097-.184.095-.185.094-.187.09-.19.09-.19.088-.192.086-.195.084-.197.082-.199.08-.2.078-.203.076-.204.074-.206.073-.208v6.065h1.264V8.174l.099.168.103.179.106.189.11.198.114.21.119.219.12.23.126.239.735-1.102-.102-.126-.102-.125-.102-.124-.102-.122-.102-.12-.102-.119-.102-.117-.102-.115-.102-.115-.102-.112-.102-.11-.102-.11-.102-.107-.102-.106-.102-.104-.102-.103v-.584h1.292V5.047h-1.292V2.504h-1.264zm8.586 6.078l-.076.374-.077.367-.079.36-.08.351-.04.173-.041.17-.04.171-.043.167-.041.166-.042.164-.043.162-.043.16-.043.158-.044.156-.043.154-.045.153-.045.15-.045.149-.046.147-.046.145-.046.143-.047.14-.046.14-.048.137-.047.136-.05.133h-4.662v1.252h7.872v-1.252h-1.945l.05-.135.046-.137.048-.138.047-.14.047-.139.046-.14.046-.143.044-.144.045-.145.045-.145.044-.147.044-.149.043-.148.043-.15.041-.151.042-.153.041-.153.04-.155.042-.156.04-.157.038-.157.039-.16.038-.16.037-.162.038-.162.037-.163.035-.165.036-.166.036-.166.033-.169.035-.169.034-.17-1.224-.312-.075.38zm-2.29 4.132l-.048.01-.049.006-.048.001-.05-.003-.048-.007-.048-.012-.046-.016-.045-.02-.043-.025-.02-.015-.01.041-.016.047-.02.046-.025.043-.028.04-.022.025h1.194l.016-.045.046-.136.046-.138.013-.043-.749.201zm-3.033-3.765l.068.233.067.233.066.236.064.236.063.238.062.239.06.24.06.242.058.243.057.243.055.246.054.247.053.248.052.248.05.251.049.252 1.129-.299-.052-.278-.053-.274-.054-.27-.056-.267-.056-.262-.057-.257-.059-.254-.059-.249-.06-.245-.061-.24-.063-.239-.063-.232-.063-.228-.065-.225-.066-.22-.065-.216-1.115.38zm2.053-.503l.063.225.062.226.06.228.06.229.057.23.056.23.055.233.054.235.052.234.051.237.05.238.047.24.046.239.045.242.043.242.042.245 1.17-.313-.052-.266-.052-.262-.053-.258-.053-.254-.054-.251-.055-.247-.056-.242-.056-.24-.057-.235-.058-.231-.058-.228-.06-.223-.06-.22-.062-.216-.062-.212-.063-.208-1.102.353zm1.647-.391l.029.094.063.216.063.22.061.224.062.228.059.231.059.236.058.238.057.243.056.246.056.25.016.072.032-.132.041-.168.04-.169.04-.17.08-.348.077-.355.076-.363.075-.37.074-.38.011-.043h-1.185zm-2.952-.149l-.096.08-.098.078-.096.076-.098.076-.1.074-.016.012.699-.238.048-.014.049-.01.035-.004-.01-.002-.048-.015-.045-.02-.042-.024-.041-.028-.038-.032-.036-.035-.015-.018-.052.044zm.509.149l.032.009.046.018.044.024.043.026.04.03.037.036.032.037.022.029.008-.025.022-.045.027-.044.03-.041.034-.039.017-.015h-.434zm1.421-5.537l-.08.168-.082.167-.084.164-.087.164-.089.16-.09.158-.093.157-.095.154-.098.153-.099.15-.102.148-.103.147-.106.145-.108.142-.11.14-.111.14-.114.135-.117.134-.119.133-.12.13-.123.128-.124.126-.128.124-.128.122-.13.12-.134.118-.135.116-.137.114-.14.111-.14.11-.145.108-.146.106.694 1.088.095-.068.094-.069.092-.07.094-.072.092-.072.093-.074.092-.077.091-.076.091-.079.09-.08.09-.08.09-.083.088-.082.089-.085.087-.085.087-.086v.762h4.215V6.8l.08.076.08.077.082.075.084.075.085.075.086.075.087.075.089.073.09.075.091.073.092.072.094.074.095.072.096.073.097.071.1.071.707-1.087-.162-.118-.16-.12-.154-.12-.153-.12-.15-.124-.147-.125-.144-.125-.142-.127-.137-.128-.135-.128-.131-.131-.13-.132-.063-.066-.062-.066-.062-.067-.062-.068-.06-.067-.06-.067-.058-.069-.058-.068-.057-.068-.057-.07-.055-.069-.056-.07-.055-.07-.053-.07-.053-.07-.052-.07-.05-.072-.052-.072-.049-.07-.049-.072-.047-.073-.048-.072-.047-.074-.046-.072-.045-.073-.044-.074-.044-.074-.043-.075-.041-.074-.042-.075-.041-.075-.039-.075-.04-.076-.037-.075-.038-.077-.037-.076-.035-.077-.035-.077-.035-.078-.033-.077h-1.197zm.64 1.364l.042.087.042.084.043.086.044.085.045.083.046.084.046.084.047.082.048.082.049.081.049.082.05.08.05.081.051.08.052.08.054.078.054.078.054.078.055.077.056.077.057.076.057.077.06.075.058.074.06.075.06.074.062.074.062.072.063.074.064.071.065.072H31.83l.058-.068.058-.068.057-.07.057-.07.057-.071.057-.072.055-.071.057-.074.11-.147.108-.151.107-.154.106-.156.103-.16.102-.163.1-.165.1-.168.098-.171.094-.174.095-.176.093-.18.04.086zm-.062 1.057l-.105.172-.106.17-.109.165-.11.164-.112.16-.014.022h1.14l-.034-.046-.058-.081-.057-.083-.057-.082-.055-.083-.055-.084-.054-.083-.054-.085-.052-.085-.052-.085-.045-.076-.011.02z" fill="#003bae"/><path d="M42.086 3.456v1.17h4.473v.938h-5.14v2.638h1.251V6.678h3.495a15.325 15.325 0 01-2.176 1.537c-.204.109-.408.19-.598.231l.245.952c1.006-.028 1.903-.054 2.719-.082-1.006.558-1.971.966-2.896 1.224a15.3 15.3 0 01-1.102-.04l.26 1.154c1.25-.026 2.596-.081 4.038-.148v2.012c0 .258-.15.394-.423.394a7.33 7.33 0 01-1.073-.081l.258 1.196h1.238c.842 0 1.277-.408 1.277-1.21v-2.38c.925-.054 1.877-.109 2.883-.163.245.299.462.612.666.91l.979-.693c-.53-.72-1.278-1.563-2.23-2.514l-.938.584c.272.272.53.558.789.843-1.455.082-2.937.163-4.446.217a19.232 19.232 0 004.65-2.528l-1.034-.694c-.475.354-.938.68-1.4.992-.68.041-1.55.082-2.61.11a18.83 18.83 0 002.297-1.523l-.598-.3h4.813v1.537h1.25V5.564h-5.14v-.939h4.474v-1.17h-4.473v-.964h-1.305v.965h-4.473zm7.206 8.512l-.639.95a18.086 18.086 0 013.834 1.918l.653-1.033a19.72 19.72 0 00-3.848-1.835zm-4.446-.028c-.952.708-2.162 1.279-3.657 1.713l.53 1.142c1.536-.53 2.828-1.196 3.888-1.998l-.761-.857z" fill="#fff" fill-rule="nonzero"/><path d="M47.914 1.96l.048.006.048.011.047.017.045.019.043.024.04.028.039.032.035.034.031.038.028.04.023.044.02.045.016.046.011.048.007.05.002.05v.43h3.94l.05.003.048.007.048.01.047.016.045.02.043.025.04.028.038.031.035.035.032.038.028.04.024.043.02.045.015.047.012.048.007.049.002.049v1.17l-.002.048-.007.05-.012.047-.015.047-.02.045-.024.043-.028.04-.032.038-.035.035-.012.011h.32l.05.002.047.007.048.012.047.015.045.02.044.024.04.027.038.032.035.036.032.037.027.041.024.043.02.045.015.047.011.048.008.049.002.049v2.65l-.002.05-.008.049-.01.048-.016.047-.02.045-.024.042-.027.041-.032.038-.035.035-.038.031-.04.029-.044.023-.045.02-.047.016-.048.011-.048.007-.05.002h-1.25l-.05-.002-.048-.007-.049-.011-.046-.015-.045-.02-.043-.024-.041-.029-.038-.031-.034-.035-.032-.038-.028-.04-.024-.043-.02-.045-.015-.047-.012-.048-.006-.05-.002-.048V7.212h-1.291l.652.438.041.03.038.034.035.038.03.04.028.045.021.046.019.047.013.05.008.05.004.051-.002.051-.006.051-.011.05-.016.048-.02.047-.025.045-.029.042-.033.04-.036.035-.04.033-.044.032.014.01.038.035.177.179.175.177.168.175.164.172.16.17.155.166.15.166.145.162.14.16.136.157.13.155.126.152.122.15.116.147.111.145.104.14.028.041.024.044.02.046.016.048.01.049.006.049.002.05-.003.05-.008.05-.012.047-.018.048-.02.045-.026.043-.03.04-.032.038-.036.035-.04.03-.831.59.093.047.12.062.12.062.117.064.119.064.117.064.116.065.115.067.116.066.114.067.113.069.113.068.11.068.041.029.038.031.036.035.031.038.028.042.023.042.02.046.016.047.011.048.007.05.002.05-.003.048-.007.049-.011.049-.016.047-.02.045-.025.043-.653 1.033-.028.04-.033.038-.035.036-.039.03-.041.028-.043.023-.046.02-.047.015-.049.011-.049.006-.05.001-.049-.003-.049-.007-.049-.012-.046-.017-.045-.02-.043-.026-.115-.075-.115-.073-.115-.072-.114-.07-.115-.07-.115-.07-.115-.067-.115-.067-.115-.065-.115-.066-.117-.063-.115-.063-.116-.061-.116-.062-.116-.059-.116-.059-.116-.058-.117-.056-.117-.056-.116-.054-.117-.054-.117-.052-.118-.052-.117-.05-.117-.05-.118-.048-.117-.048-.118-.046-.117-.046-.119-.045-.118-.042-.12-.043-.007-.003v.402l-.002.088-.005.092-.008.09-.012.09-.015.087-.019.084-.012.046-.012.041-.013.043-.015.041-.015.042-.016.04-.018.041-.019.04-.02.039-.02.039-.022.037-.024.038-.024.037-.026.036-.026.035-.028.035-.028.034-.03.032-.03.032-.032.03-.032.03-.033.028-.035.028-.035.027-.035.025-.037.024-.037.024-.037.022-.04.022-.038.02-.04.019-.04.018-.04.017-.041.016-.042.015-.045.014-.081.025-.087.021-.088.017-.088.014-.09.01-.092.008-.094.005-.09.001h-1.241l-.048-.002-.048-.007-.047-.01-.046-.016-.044-.019-.043-.022-.04-.028-.037-.03-.035-.033-.032-.037-.028-.04-.025-.041-.02-.043-.016-.046-.013-.047-.233-1.081-.084.048-.121.068-.122.067-.124.066-.125.065-.128.064-.127.065-.13.062-.131.062-.132.061-.133.06-.136.06-.136.058-.138.057-.139.057-.14.056-.142.054-.143.054-.145.054-.146.052-.146.051-.046.014-.048.01-.05.005h-.048l-.05-.004-.047-.008-.048-.012-.046-.017-.044-.022-.043-.024-.04-.03-.036-.032-.034-.036-.03-.038-.027-.042-.022-.043-.53-1.143-.02-.046-.014-.05-.01-.05-.006-.05v-.05l.006-.051.009-.05.014-.05.018-.046.024-.046.027-.043.03-.04.037-.036.037-.034.042-.03.044-.025.046-.021.048-.017.137-.04.134-.041.132-.042.13-.042.128-.043.126-.044.124-.043.123-.045.121-.046.12-.046.118-.048.116-.048.115-.048.112-.05.112-.05.11-.05.108-.052.106-.052.104-.052.103-.054.077-.04-.39.01-.474.012-.05-.001-.047-.005-.048-.01-.047-.015-.045-.018-.044-.023-.04-.026-.04-.03-.035-.034-.033-.037-.028-.039-.026-.042-.02-.044-.017-.045-.014-.048-.258-1.156-.009-.049-.003-.049v-.05l.005-.048.01-.05.015-.046.018-.046.022-.044.027-.042.03-.04.035-.035.037-.033.04-.03.043-.025.044-.02.047-.018.047-.013.05-.007.05-.004h.048l.14.01.136.008.136.007.134.005.131.004.132.004.13.002h.054l.012-.003.082-.025.084-.024.073-.024H43.6l-.05-.006-.05-.011-.05-.016-.046-.02-.046-.024-.042-.029-.04-.034-.036-.035-.032-.04-.029-.043-.024-.045-.02-.048-.015-.049-.218-.848-.038.016-.047.017-.048.01-.049.007-.049.003h-1.25l-.05-.003-.049-.006-.048-.011-.047-.017-.044-.02-.043-.024-.041-.027-.038-.032-.034-.034-.032-.038-.028-.04-.024-.044-.02-.046-.016-.046-.01-.047-.008-.05-.002-.048V5.564l.002-.05.007-.048.011-.048.017-.047.019-.045.024-.043.028-.04.032-.038.034-.036.038-.032.04-.027.044-.024.044-.02.047-.015.048-.012.05-.007.048-.002h.32l-.013-.01-.035-.036-.031-.037-.028-.041-.024-.043-.02-.045-.015-.047-.012-.048-.006-.049-.002-.049v-1.17l.002-.048.006-.049.012-.048.015-.047.02-.045.024-.043.028-.04.031-.038.035-.035.038-.031.04-.028.044-.024.045-.02.046-.016.05-.011.047-.007.05-.002h3.94V2.49l.001-.05.008-.049.01-.048.017-.046.02-.045.024-.043.027-.041.032-.038.035-.034.037-.032.041-.028.043-.024.045-.02.047-.016.048-.011.049-.006.049-.002h1.305l.05.002zm-1.355.531v.965h-4.473v1.17h4.473v.938h-5.14v2.638h1.251V6.678h3.495l-.128.107-.129.105-.13.103-.131.103-.133.101-.132.1-.134.098-.135.098-.137.095-.138.094-.137.092-.141.092-.14.089-.142.089-.144.086-.145.085-.077.04-.076.036-.075.034-.076.03-.074.028-.075.025-.037.01-.036.011-.036.01-.036.007.245.952.734-.02.697-.021.66-.02.628-.02-.188.102-.188.1-.186.095-.185.092-.184.088-.184.086-.182.082-.182.078-.18.075-.18.071-.178.067-.178.065-.088.031-.09.03-.087.028-.088.029-.087.027-.087.027-.088.025-.086.025-.133-.001-.134-.002-.136-.003-.138-.004-.137-.006-.14-.008-.14-.008-.144-.009.26 1.155.473-.01.482-.015.491-.015.501-.019.509-.02.518-.021.527-.024.537-.024v2.012l-.002.023v.023l-.003.023-.003.021-.004.022-.005.02-.005.02-.006.018-.008.018-.008.018-.008.016-.01.016-.01.014-.012.015-.012.014-.014.012-.014.012-.014.012-.015.01-.017.01-.016.01-.018.007-.019.008-.02.007-.019.006-.02.005-.022.004-.022.003-.023.003-.024.002-.024.001-.026.001-.132-.002-.133-.003-.132-.007-.134-.008-.135-.012-.134-.014-.137-.017-.136-.018.258 1.196h1.238l.077-.001.075-.004.074-.006.07-.009.069-.01.065-.013.063-.015.061-.019.03-.01.03-.01.027-.011.028-.012.027-.012.027-.012.026-.014.024-.014.026-.014.023-.015.024-.016.023-.017.022-.016.022-.017.02-.019.021-.018.02-.02.019-.02.02-.02.016-.02.018-.023.016-.022.016-.023.016-.023.015-.024.014-.024.014-.026.013-.025.012-.027.011-.026.011-.028.01-.028.01-.029.01-.029.008-.03.008-.03.015-.062.01-.065.01-.068.006-.069.004-.071.001-.075v-2.379l.699-.04.712-.041.727-.041.745-.04.09.111.088.115.086.114.084.115.082.114.08.114.156.227.979-.694-.102-.136-.107-.139-.112-.143-.118-.145-.122-.147-.126-.151-.133-.153-.137-.156-.142-.16-.147-.16-.152-.165-.156-.167-.162-.17-.167-.172-.17-.174-.177-.176-.938.584.102.102.1.104.098.105.1.105.097.106.097.107.195.214-1.096.06-.553.03-.554.029-.558.027-.558.026-.563.024-.564.021.157-.06.157-.062.156-.063.155-.064.155-.066.154-.066.152-.067.153-.07.15-.069.152-.071.148-.073.15-.074.148-.075.147-.075.147-.077.146-.079.145-.08.143-.08.144-.083.142-.083.142-.084.141-.086.14-.086.14-.089.137-.089.14-.09.136-.092.135-.093.136-.094.135-.095.133-.096.134-.097-1.034-.694-.178.132-.176.128-.177.127-.174.125-.174.122-.175.12-.173.121-.173.117-.264.016-.282.015-.3.014-.317.016-.335.013-.353.013-.371.011-.389.011.148-.082.147-.085.146-.085.145-.09.146-.089.144-.09.145-.094.144-.095.142-.096.143-.098.142-.1.143-.1.14-.103.142-.104.14-.105.14-.106-.597-.3h4.813v1.537h1.25V5.564h-5.14v-.939h4.474v-1.17h-4.473v-.964h-1.305zm2.094 10.428l.123.044.12.045.123.046.122.046.122.048.121.05.122.05.121.051.12.052.122.053.12.054.12.055.12.058.121.057.12.058.12.059.12.06.12.062.119.063.119.063.12.065.119.065.118.067.12.068.117.068.119.07.118.07.117.072.119.074.117.073.118.076.117.075.653-1.033-.11-.067-.108-.067-.11-.066-.112-.065-.11-.065-.114-.064-.113-.064-.113-.062-.114-.062-.116-.061-.116-.062-.117-.06-.117-.06-.119-.058-.119-.06-.12-.056-.12-.057-.121-.056-.122-.057-.123-.055-.123-.055-.125-.053-.125-.054-.126-.052-.127-.052-.127-.05-.128-.052-.13-.05-.129-.05-.13-.048-.132-.049-.132-.046-.639.95zm-3.897-.913l-.092.066-.093.064-.095.063-.095.062-.098.062-.1.062-.1.06-.102.06-.104.058-.105.058-.107.057-.108.056-.11.056-.113.055-.113.054-.115.053-.116.053-.119.05-.119.052-.121.05-.124.048-.124.05-.126.046-.128.047-.13.046-.13.045-.133.045-.134.044-.137.043-.138.041-.138.041.53 1.142.143-.05.142-.05.14-.053.139-.052.138-.053.136-.054.135-.055.133-.056.132-.056.13-.057.13-.058.127-.06.127-.06.124-.06.125-.06.121-.063.121-.062.12-.065.117-.064.117-.065.116-.066.113-.067.112-.068.111-.068.11-.07.108-.069.107-.071.105-.072.104-.072.103-.074.102-.073.1-.075-.761-.857-.09.066zm1.363.94l-.016.047-.02.045-.024.042-.029.04-.031.039-.035.034-.038.03-.103.077-.08.06.122.008.123.006.122.003h.011v-.438l-.002.007zm-.433-.863l.32.36.03.037.028.041.024.043.019.046.014.044v-.59l-.435.019zm2.976-.154l-.196.011v.3l.21-.312h-.014zm1.764-.1l.105.044.109.045-.07-.094-.003-.002-.14.008zm-1.666-2.1l-.147.085-.147.082-.125.069.063-.003.507-.028-.032-.035-.03-.041-.027-.043-.02-.046-.018-.047-.002-.005-.022.012zm-5.556-2.517v.735l.021-.007.048-.015.03-.006.025-.006.026-.007.023-.007.057-.019.057-.021.06-.024.06-.028.064-.03.057-.03.13-.076.137-.083.137-.085.135-.085.136-.088.134-.09.04-.028h-1.377zm4.813 0l-.02.037-.03.044-.032.04-.035.037-.04.032-.142.108-.144.107-.143.106-.146.105-.091.066.084-.004.279-.016.115-.007.051-.033.172-.119.17-.119.172-.12.173-.124.174-.124.021-.016h-.588z" fill="#003bae"/><g transform="translate(1.796)" fill="none" stroke="#003ac4"><circle cx="10" cy="7" r="4"/><path d="M12.636 10.007L16.629 14"/></g><g transform="translate(2)" fill="none" stroke="#fff"><circle cx="10" cy="7" r="4"/><path d="M12.636 10.007L16.629 14"/></g><defs><linearGradient id="_Linear1" x1="0" y1="0" x2="1" y2="0" gradientUnits="userSpaceOnUse" gradientTransform="matrix(58 0 0 15 1 8.5)"><stop offset="0" stop-color="#6b8dc4"/><stop offset=".43" stop-color="#87a3cf"/><stop offset=".89" stop-color="#d5dfee"/><stop offset=".96" stop-color="#c5d3e8"/><stop offset=".98" stop-color="#9bb3d7"/><stop offset="1" stop-color="#6b8dc4"/></linearGradient><linearGradient id="_Linear2" x1="0" y1="0" x2="1" y2="0" gradientUnits="userSpaceOnUse" gradientTransform="matrix(0 -2 2.66667 0 3 5)"><stop offset="0" stop-color="#b3c4e0"/><stop offset="1" stop-color="#a1b7d9"/></linearGradient></defs></svg>