<svg width="14" height="14" xmlns="http://www.w3.org/2000/svg" fill-rule="evenodd" clip-rule="evenodd" stroke-linecap="round" stroke-linejoin="round" stroke-miterlimit="1"><path d="M2 1L1 2v11h11l1-1V1H2z" fill="url(#_Radial1)"/><path d="M13.068.002l.068.007.067.012.067.016.065.021.063.025.062.029.06.034.057.037.054.041.052.045.048.048.045.052.041.054.037.057.034.06.029.062.025.063.021.065.016.067.012.067.007.068L14 1v11l-.002.065-.007.066-.01.064-.015.064-.019.062-.023.062-.027.059-.031.058-.035.056-.038.053-.041.05-.045.048-1 1-.048.045-.05.041-.053.038-.056.035-.058.031-.059.027-.062.023-.062.019-.064.015-.064.01-.066.007L12 14H1l-.068-.002-.068-.007-.067-.012-.067-.016-.065-.021-.063-.025-.062-.029-.06-.034-.057-.037-.054-.041-.052-.045-.048-.048-.045-.052-.041-.054-.037-.057-.034-.06-.029-.062-.025-.063-.021-.065-.016-.067-.012-.067-.007-.068L0 13V2l.002-.065.007-.066.01-.064.015-.064.019-.062.023-.062.027-.059.031-.058.035-.056.038-.053.041-.05.045-.048 1-1 .048-.045.05-.041.053-.038L1.5.134l.058-.031.059-.027.062-.023.062-.019.064-.015.064-.01.066-.007L2 0h11l.068.002zM2 1L1 2v11h11l1-1V1H2z"/><path d="M3 7v.5l3.5 3h1l3.5-3V7H9V3H5v4H3z" fill="none"/><clipPath id="a"><path d="M3 7v.5l3.5 3h1l3.5-3V7H9V3H5v4H3z"/></clipPath><g clip-path="url(#a)"><path d="M3 7v.5l3.5 3h1l3.5-3V7H9V3H5v4H3z" fill="#f4f4f4" stroke="#999" stroke-width=".33"/></g><path d="M9.052 2.135l.052.005.052.008.051.011.051.014.049.017.049.02.047.023.045.025.044.029.042.031.041.033.038.036.036.038.033.041.031.042.029.044.025.045.023.047.02.049.017.049.014.051.011.051.008.052.005.052.002.052v3.133H11l.052.002.052.005.052.008.051.011.051.014.049.017.049.02.047.023.045.025.044.029.042.031.041.033.038.036.036.038.033.041.031.042.029.044.025.045.023.047.02.049.017.049.014.051.011.051.008.052.005.052.002.052v.5l-.002.05-.004.049-.007.05-.01.049-.013.048-.015.047-.019.046-.02.046-.024.044-.026.042-.028.041-.03.039-.033.038-.035.036-.037.033-3.5 3-.04.032-.041.03-.044.027-.045.025-.046.022-.047.019-.049.016-.049.014-.05.01-.051.008-.051.004-.051.002h-1l-.051-.002-.051-.004-.051-.008-.05-.01-.049-.014-.049-.016-.047-.019-.046-.022-.045-.025-.044-.027-.041-.03-.04-.032-3.5-3-.037-.033-.035-.036-.033-.038-.03-.039-.028-.041-.026-.042-.024-.044-.02-.046-.019-.046-.015-.047-.013-.048-.01-.049-.007-.05-.004-.049-.002-.05V7l.002-.052.005-.052.008-.052.011-.051.014-.051.017-.049.02-.049.023-.047.025-.045.029-.044.031-.042.033-.041.036-.038.038-.036.041-.033.042-.031.044-.029.045-.025.047-.023.049-.02.049-.017.051-.014.051-.011.052-.008.052-.005L3 6.133h1.133V3l.002-.052.005-.052.008-.052.011-.051.014-.051.017-.049.02-.049.023-.047.025-.045.029-.044.031-.042.033-.041.036-.038.038-.036.041-.033.042-.031.044-.029.045-.025.047-.023.049-.02.049-.017.051-.014.051-.011.052-.008.052-.005L5 2.133h4l.052.002zM5 3v4H3v.5l3.5 3h1l3.5-3V7H9V3H5z"/><defs><radialGradient id="_Radial1" cx="0" cy="0" r="1" gradientUnits="userSpaceOnUse" gradientTransform="matrix(13 0 0 14 6 0)"><stop offset="0" stop-color="#98bcff"/><stop offset=".61" stop-color="#89abea"/><stop offset=".82" stop-color="#6683b8"/><stop offset="1" stop-color="#415984"/></radialGradient></defs></svg>