<svg width="60" height="17" xmlns="http://www.w3.org/2000/svg" fill-rule="evenodd" clip-rule="evenodd" stroke-linejoin="round" stroke-miterlimit="2"><path d="M60 1v15l-1 1H1l-1-1V1l1-1h58l1 1zM1 1v15h58V1H1z" fill="#003bae"/><path fill="url(#_Linear1)" d="M1 1h58v15H1z"/><path d="M59 16H1V1h58v15zM2 2v13h56V2H2z" fill="#6e90c5" fill-opacity=".27"/><path d="M2 2h3v1H3v3H2V2z" fill="url(#_Linear2)"/><path d="M2 2h2v1H3v2H2V2z" fill="#fff"/><path d="M28.163 6.205v1.891h-1.126c.335-.805.643-1.717.939-2.736h2.736V4.126h-2.414c.107-.47.214-.966.322-1.476l-1.208-.174a39.126 39.126 0 01-.349 1.65h-1.502V5.36h1.18c-.308 1.113-.643 2.025-.992 2.75l.268 1.127h2.146v1.757c-.818.134-1.69.255-2.602.362l.16 1.248a55.384 55.384 0 002.442-.376v2.616h1.221v-2.857c.59-.135 1.167-.269 1.717-.403v-1.207a37.27 37.27 0 01-1.717.389v-1.53h1.395v-1.14h-1.395V6.205h-1.22zm3.086-2.08V5.36h1.784c-.094.402-.188.818-.282 1.247H30.86v1.221h1.583a53.258 53.258 0 01-.752 2.562h4.454c-.416.644-.98 1.275-1.677 1.892a16.94 16.94 0 00-1.85-.913l-.685 1.007c1.449.617 2.857 1.462 4.239 2.535l.711-1.1a20.768 20.768 0 00-1.382-.94c.886-.858 1.53-1.703 1.959-2.561V9.263h-4.186c.135-.442.282-.925.43-1.435h4.292v-1.22h-3.984c.094-.403.188-.82.282-1.248h3.367V4.126h-3.112c.08-.497.174-1.007.268-1.543l-1.247-.12a61.175 61.175 0 01-.296 1.663H31.25z" fill="#fff" fill-rule="nonzero"/><path d="M33.623 1.926l1.248.12.094.027.094.027.08.054.067.067.067.08.04.08.027.095.014.107v.04l-.014.054-.067.402-.067.39-.027.12h2.482l.094.013.094.027.094.04.08.067.067.068.054.08.027.094.027.094v1.341l-.014.04-.013.054-.014.04-.013.054-.027.04-.027.04-.04.04-.027.028-.04.04-.04.027-.04.027-.054.013-.04.013-.054.014-.04.013h-2.992l-.04.175h3.313l.094.013.094.027.094.04.08.067.068.067.053.08.027.095.027.094v1.328l-.013.04-.014.054-.013.04-.014.053-.027.04-.026.04-.04.041-.027.027-.04.04-.04.027-.041.027-.054.013-.04.014-.054.013-.04.014h-3.944L34 8.727h3.46l.095.013.094.027.094.04.08.067.067.067.054.08.027.095.026.094v1.153l-.013.04-.013.054-.014.054-.027.04-.04.08-.04.095-.054.08-.04.094-.054.08-.053.08-.04.095-.054.08-.054.08-.067.095-.054.08-.053.08-.067.095-.054.08-.067.08-.067.094-.067.08-.054.081-.08.08-.068.095-.067.08-.067.08-.08.081-.067.094-.08.08-.081.081-.014.027.161.107.175.134.349.242.16.12.081.068.067.08.04.08.027.108.014.094v.054l-.014.053-.013.04-.014.054-.027.04-.026.054-.711 1.1-.027.04-.027.027-.04.04-.04.027-.04.027-.041.027-.04.013-.054.014-.04.013-.054.014h-.093l-.054-.014-.04-.013-.054-.014-.04-.027-.04-.013-.041-.04-.134-.094-.12-.094-.135-.094-.12-.094-.135-.094-.12-.094-.135-.08-.12-.094-.135-.094-.12-.08-.135-.08-.12-.081-.134-.08-.121-.081-.134-.08-.134-.081-.121-.08-.134-.068-.121-.08-.134-.067-.134-.08-.121-.068-.134-.067-.134-.067-.121-.067-.134-.067-.134-.054-.135-.067-.12-.054-.134-.067-.135-.053-.134-.054-.04-.027-.04-.027-.04-.027-.04-.04-.027-.027-.04-.04-.028-.04-.013-.054-.027-.04-.013-.054v-.04l-.014-.054v-.053l.014-.04v-.054l.013-.04.027-.054.013-.04.027-.04.684-1.007.027-.04.04-.04.027-.027.04-.04h.014-.684v.711l-.014.053-.013.04-.013.054-.027.04-.027.054-.027.04-.027.027-.04.04-.04.027-.04.027-.054.027-.04.027-.054.013-.416.094-.43.107-.428.094-.027.014v2.482l-.014.04-.013.053-.014.04-.013.054-.027.04-.027.04-.04.041-.027.027-.04.04-.04.027-.04.027-.054.013-.04.014-.054.013-.04.013H28.11l-.04-.013-.054-.013-.04-.014-.054-.013-.04-.027-.04-.027-.04-.04-.028-.027-.04-.04-.027-.04-.027-.04-.013-.054-.013-.04-.014-.054-.013-.04v-2.04l-.268.04-.309.054-.309.054-.321.04-.309.04-.322.04-.04.014h-.054l-.054-.013h-.04l-.053-.014-.04-.026-.054-.014-.04-.027-.04-.04-.028-.027-.04-.04-.027-.04-.027-.04-.026-.04-.014-.054-.013-.04v-.054l-.161-1.248-.014-.054v-.04l.014-.053v-.054l.013-.04.027-.054.027-.04.027-.04.027-.04.026-.041.04-.027.04-.027.041-.026.054-.027.04-.014.054-.013h.04l.349-.054.322-.04.335-.04.322-.04.322-.054.322-.04.16-.027v-.765h-1.663l-.053-.013-.04-.014-.054-.013-.04-.027-.054-.027-.04-.027-.04-.026-.027-.04-.027-.04-.027-.041-.027-.054-.027-.04-.013-.054-.268-1.127v-.053l-.014-.04v-.054l.014-.054v-.053l.026-.04.014-.054.067-.135.054-.134.067-.147.067-.134.053-.161.067-.148.054-.16.067-.162.054-.174.067-.175.054-.174.053-.188.04-.094h-.523l-.04-.013-.054-.014-.04-.013-.053-.013-.04-.027-.041-.027-.04-.04-.027-.027-.04-.04-.027-.04-.027-.04-.013-.055-.014-.04-.013-.053-.014-.04V4.071l.014-.04.013-.054.014-.04.013-.054.027-.04.027-.04.04-.04.027-.028.04-.04.04-.027.04-.026.054-.014.04-.013.054-.014.04-.013h1.127l.04-.174.04-.202.054-.214.04-.202.04-.214.041-.201.013-.054.014-.054.027-.04.027-.04.026-.054.027-.027.04-.04.04-.027.04-.027.041-.026.054-.027.053-.014h.04l.054-.013.108.013 1.207.175.094.013.094.054.08.053.067.081.067.08.027.094.027.108v.093l-.013.054-.08.39-.081.375-.014.067h1.744l.094.013.094.027.08.04.027-.026.054-.014.04-.013.054-.014.04-.013h1.637l.04-.174.027-.202.08-.416.067-.429.014-.04.013-.054.014-.04.026-.04.027-.054.027-.027.04-.04.04-.04.04-.027.041-.027.054-.013.04-.014.054-.013.04-.013h.107zm-.12.952l-.081.416-.027.214-.04.202-.04.214-.04.202h-2.026V5.36h1.784l-.067.308-.08.309-.068.308-.067.322H30.86v1.221h1.583l-.094.335-.094.322-.08.322-.094.322-.094.322-.094.322-.054.148-.054.16-.04.162-.054.147h4.454l-.04.054-.04.067-.04.054-.04.067-.095.12-.08.121-.094.12-.094.122-.107.107-.108.12-.107.121-.107.121-.108.12-.12.108-.121.12-.12.122-.122.107-.134.12-.107-.066-.12-.054-.108-.067-.107-.054-.121-.067-.107-.054-.121-.067-.107-.053-.121-.054-.12-.054-.122-.053-.107-.054-.12-.054-.121-.053-.121-.054-.12-.054-.685 1.007.268.12.269.121.268.134.268.134.268.134.269.148.268.148.268.16.269.162.254.16.269.175.255.174.268.188.255.188.268.188.255.2.711-1.1-.161-.12-.174-.12-.175-.121-.16-.121-.175-.12-.175-.108-.093-.054-.094-.067-.08-.053-.095-.054.08-.08.081-.081.08-.08.081-.081.08-.08.068-.081.08-.08.067-.081.067-.08.08-.081.068-.08.067-.081.067-.08.054-.08.067-.081.067-.067.054-.081.067-.08.053-.081.054-.08.054-.08.053-.081.054-.08.054-.081.053-.08.04-.081.054-.08.04-.081.054-.08.04-.081.04-.08.04-.081V9.263h-4.185l.215-.697.107-.362.108-.376h4.292v-1.22h-3.984l.067-.31.067-.308.08-.308.068-.322h3.367V4.126h-3.112l.027-.188.04-.188.067-.376.067-.389.067-.402-1.247-.12-.068.415zm-6.131-.188l-.04.215-.04.214-.054.202-.04.2-.04.202-.054.201-.04.202H25.56V5.36h1.18l-.053.2-.067.202-.054.201-.067.188-.054.188-.067.188-.053.174-.067.175-.068.174-.053.16-.067.162-.067.16-.054.148-.067.148-.067.148-.067.134.268 1.127h2.146v1.757l-.308.054-.309.04-.322.053-.322.04-.335.054-.335.04-.336.04-.335.041.16 1.248.323-.04.308-.04.309-.055.309-.04.308-.053.295-.054.295-.04.295-.054v2.616h1.221v-2.857l.443-.108.43-.094.428-.094.416-.107v-1.207l-.201.053-.215.04-.2.054-.215.054-.215.054-.228.04-.215.054-.228.04v-1.53h1.395v-1.14h-1.395V6.205h-1.22v1.891h-1.127l.067-.147.053-.161.067-.161.054-.161.067-.161.054-.161.067-.161.054-.175.053-.174.067-.174.054-.175.054-.174.067-.188.053-.188.054-.188.054-.187h2.736V4.126h-2.414l.08-.363.08-.362.081-.375.08-.376-1.207-.174-.04.214zm5.554 8.237l.268.107.241.12.242.108.241.12.242.122.228.12.094-.08.107-.107.107-.108.108-.12.107-.108.107-.107.054-.067h-2.146zm-1.61-2.562v.925l-.014.04-.013.054-.013.04-.014.054-.027.04-.026.04-.04.04-.028.028-.04.04-.04.027-.04.026-.054.014-.04.013-.054.014-.04.013h-.912v.335h.013l.215-.053.214-.054.202-.04.2-.054.202-.053h.054l.053-.014h.054l.094.014.067.026.04-.107.054-.16.094-.31.094-.321.08-.322.094-.295h-.43zm-.362-2.522l-.054.013-.04.013-.054.014-.04.013h-.953l.054.067.027.094.027.094V7.56h.402V6.554l.014-.04.013-.054.013-.04.014-.054.027-.04.026-.04.04-.041.028-.027.04-.04.04-.027.04-.027.054-.013.04-.014.054-.013.04-.013h1.516l.04-.175h-1.167l-.04-.013-.054-.014-.04-.013-.054-.013-.026-.027-.027.027z" fill="#003bae"/><path d="M52.974 3.428H48.05a8.916 8.916 0 00-.443-1.073l-1.342.214c.161.269.322.55.483.859h-4.91v2.683h1.195V4.555h8.746V6.11h1.194V3.428zM43.449 5.44v1.087h2.965a2.771 2.771 0 01-.376.295c-.59.349-1.703.644-3.326.872l.603.966h-1.878v1.153h8.599v3.528c0 .269-.174.403-.51.403a7.57 7.57 0 01-1.06-.08V10.47h-5.084v3.22h4.964l.255 1.166h1.354c.886 0 1.329-.416 1.329-1.22V9.813h2.106V8.66h-2.402l.63-.94c-1.18-.402-2.48-.737-3.89-1.032l.095-.161h3.541V5.44h-3.22c0-.027.014-.053.014-.08v-.564h-1.18v.564c0 .013-.014.04-.014.08h-3.515zm3.528 2.053a27.31 27.31 0 013.824 1.167h-7.23c1.528-.269 2.655-.644 3.353-1.127 0-.014.027-.027.053-.04zm.322 5.124h-2.75v-1.06h2.75v1.06z" fill="#fff" fill-rule="nonzero"/><path d="M47.675 1.832l.094.013.08.04.08.054.081.067.054.067.08.174.068.135.067.134.053.147.094.228h4.548l.094.014.094.027.094.04.08.067.067.067.054.08.027.094.026.094v2.791l-.013.04-.013.053-.014.04-.013.054-.027.04-.027.04-.04.041-.027.027-.04.04-.04.027-.04.027-.054.013-.04.014-.054.013-.04.013h-1.141l-.013.027-.014.04-.013.054-.027.04-.027.04-.04.041-.027.027-.04.04-.04.027-.04.027-.054.013-.04.014-.054.013-.04.013h-.094l.241.08.228.068.094.04.08.067.068.067.053.094.04.094.028.107v.094l-.014.054-.013.054-.014.04-.027.054-.026.04-.067.107h1.395l.094.014.093.026.094.04.08.068.068.067.054.08.026.094.027.094v1.261l-.013.04-.014.054-.013.04-.013.054-.027.04-.027.04-.04.04-.027.027-.04.04-.04.027-.04.027-.055.014-.04.013-.053.014-.04.013H51.82v3.38l-.013.094v.094l-.014.08-.013.095-.014.04-.013.04-.013.054-.014.04-.013.04-.014.04-.013.04-.013.041-.027.04-.014.04-.027.04-.013.041-.027.04-.027.04-.013.04-.027.028-.027.04-.04.04-.027.027-.027.04-.026.027-.04.027-.027.027-.04.04-.028.027-.04.026-.04.027-.04.014-.027.027-.04.026-.04.014-.04.027-.041.013-.04.027-.04.013-.054.014-.04.013-.04.014-.04.013-.055.013-.08.027-.094.014-.094.013-.08.013h-.108l-.094.014h-1.502l-.04-.014-.054-.013-.04-.013-.04-.014-.054-.027-.04-.026-.027-.027-.04-.04-.027-.027-.027-.04-.027-.04-.027-.055-.013-.04-.014-.053-.16-.738h-4.588l-.04-.014-.054-.013-.04-.013-.054-.014-.04-.027-.04-.027-.04-.04-.028-.027-.04-.04-.027-.04-.027-.04-.013-.054-.013-.04-.014-.054-.013-.04v-3.327l.013-.04v-.027h-1.475l-.04-.013-.054-.014-.04-.013-.054-.014-.04-.027-.04-.026-.041-.04-.027-.027-.04-.04-.027-.04-.027-.041-.013-.054-.014-.04-.013-.054-.013-.04V8.606l.013-.04.013-.054.014-.04.013-.054.027-.04.027-.04.04-.04.027-.027.04-.04.04-.027.04-.027.054-.014.04-.013.054-.013.04-.014h.967l-.094-.147-.026-.04-.014-.054-.013-.04-.014-.054-.013-.054V7.64l.013-.053.014-.04.013-.054.027-.04.027-.054.027-.04.027-.04.04-.028.04-.026.04-.027.054-.027.04-.027.054-.013h.04l.148-.027.147-.027.148-.013.134-.027.134-.027h.027-.014l-.053-.013-.04-.014-.054-.013-.04-.027-.04-.027-.04-.04-.028-.027-.04-.04-.027-.04-.027-.04-.013-.054-.013-.04-.014-.028h-1.141l-.04-.013-.054-.013-.04-.014-.054-.013-.04-.027-.04-.027-.04-.04-.027-.027-.04-.04-.027-.04-.027-.04-.014-.054-.013-.04-.014-.054-.013-.04V3.374l.013-.04.014-.054.013-.04.014-.054.027-.04.026-.04.04-.04.027-.027.04-.04.04-.027.041-.027.054-.013.04-.014.054-.013.04-.014h4.051l-.027-.053-.026-.04-.014-.04-.013-.054-.014-.054-.013-.04v-.054l.013-.054v-.04l.014-.054.013-.04.027-.053.027-.04.027-.04.026-.028.04-.04.04-.027.041-.027.04-.027.054-.013.04-.027h.054l1.341-.214.04-.014h.054l.054.014zm-.698 2.964v.577l-.013.014v.053h-3.515v1.087h2.965l-.04.04-.04.04-.054.04-.04.027-.054.04-.054.04-.094.068-.053.027-.067.04-.054.027-.067.04-.067.027-.08.027-.068.027-.08.04-.08.027-.095.026-.08.027-.094.04-.094.027-.094.027-.094.027-.107.027-.107.027-.108.026-.107.027-.12.027-.121.027-.121.027-.12.013-.122.027-.134.027-.134.027-.134.027-.134.013-.148.027-.147.027-.148.013-.147.027.603.966h-1.878v1.153h8.599v3.595l-.013.027v.041l-.014.026v.014l-.013.027-.014.013-.013.013v.014l-.014.013-.013.027-.013.014h-.027l-.014.013-.013.013-.027.014-.013.013h-.027l-.013.014-.027.013h-.027l-.014.013h-.053l-.027.014h-.376l-.134-.014-.12-.013h-.135l-.134-.013-.147-.027-.135-.014v-3.192h-5.084v3.22h4.964l.255 1.166h1.515l.081-.013h.067l.08-.014.068-.013.067-.013.026-.014.027-.013.04-.014h.027l.027-.013.027-.013.027-.014.027-.013.027-.014.026-.013.027-.014.027-.013.027-.013.027-.027.013-.014.027-.013.027-.027.013-.013.027-.014.013-.027.027-.013.014-.027.013-.027.027-.013.013-.027.014-.027.013-.026.014-.014.013-.027.013-.027.014-.026.013-.027.014-.027.013-.027.013-.04v-.027l.014-.027.013-.027v-.04l.014-.027v-.067l.013-.067.014-.067V9.813h2.106V8.66h-2.402l.63-.94-.227-.08-.215-.067-.228-.067-.241-.08-.228-.068-.242-.067-.241-.067-.242-.067-.241-.053-.242-.067-.255-.054-.254-.067-.255-.054-.255-.067-.255-.054-.268-.053.094-.161h3.541V5.44h-3.22V5.4l.014-.013v-.591h-1.18zm2.013 5.554l.013.067v2.777h.174l.228.013h.094V10.35h-.51zm-1.69 2.267h-2.75v-1.06h2.75v1.06zm-.081-5.07l.241.066.242.054.241.067.242.067.241.067.242.067.241.067.242.08.241.068.228.08.242.08.228.081.241.094.242.08.228.095h-7.23l.147-.027.134-.027.134-.027.134-.027.134-.026.134-.027.121-.027.134-.027.121-.04.12-.027.121-.027.108-.04.12-.027.108-.04.107-.027.107-.04.108-.04.107-.027.094-.04.094-.04.094-.041.094-.04.094-.04.08-.04.08-.041.081-.04.08-.04.081-.04.08-.041.068-.04.067-.054.067-.04v-.014h.013l.027-.013.013-.013.242.053zm-.148.522l-.08.054h.349l-.242-.054h-.027zm.269-.2v-.014.013zm-1.074-5.3l.175.309.134.215.107.214.067.121h-4.91v2.683h1.195V4.555h8.746V6.11h1.194V3.428H48.05l-.054-.148-.054-.134L47.89 3l-.054-.134-.054-.135-.053-.12-.067-.134-.054-.121-1.342.214z" fill="#003bae"/><g><path d="M10 3v11h8V5l-2-2h-6z" fill="#fff"/><path d="M8.95 8.735l.048 4.383 4.373.29-1.474-1.558c3.004-1.791 3.701-4.775 2.818-8.575-.328 3.55-1.444 6.235-4.291 7.018L8.95 8.735z" fill="#2c68cc"/><path d="M14.73 3.076l.029.004.027.009.026.011.023.015.021.02.019.02.015.024.012.026.008.026.04.179.04.178.035.178.034.176.032.175.028.174.027.173.023.17.021.171.02.17.016.167.014.167.011.166.01.164.006.163.003.162v.319l-.005.158-.007.157-.01.155-.012.154-.015.153-.018.151-.022.15-.023.15-.027.146-.015.074-.014.073-.016.073-.017.072-.016.072-.019.071-.018.071-.02.07-.02.07-.02.07-.022.071-.022.069-.024.069-.024.068-.024.069-.025.068-.026.068-.027.067-.028.066-.029.066-.029.066-.03.066-.03.065-.031.066-.033.064-.032.063-.035.064-.034.063-.035.063-.036.062-.037.063-.038.06-.038.063-.04.06-.04.06-.04.06-.042.06-.042.06-.043.058-.045.059-.044.058-.046.057-.046.057-.047.057-.048.056-.049.055-.05.056-.05.055-.051.055-.051.054-.054.053-.053.054-.055.053-.054.052-.057.052-.057.05-.057.052-.059.051-.059.05-.06.05-.061.049-.062.047-.063.05-.062.047-.065.048-.065.047-.066.046-.067.045-.067.046-.068.046-.07.045v-.001l1.305 1.379.018.022.014.024.012.026.007.028.003.027v.028l-.005.029-.008.025-.012.026-.015.024-.02.02-.02.02-.025.014-.025.013-.027.007-.027.004h-.029l-4.373-.29-.027-.003-.027-.008-.025-.01-.022-.014-.022-.017-.019-.02-.015-.022-.013-.024-.009-.025-.006-.027-.003-.027-.047-4.383.001-.028.006-.028.01-.026.013-.025.016-.023.02-.02.022-.018.024-.013.027-.011.026-.007.028-.003h.029l.027.006.027.009.025.012.024.016.02.02 1.391 1.469.012-.004.063-.02.062-.019.062-.021.06-.021.06-.022.06-.023.06-.023.058-.024.057-.024.058-.026.057-.025.056-.026.055-.028.056-.027.053-.029.054-.028.053-.03.053-.03.052-.03.05-.031.052-.033.05-.032.05-.033.05-.034.048-.034.048-.034.048-.036.047-.036.047-.037.046-.037.045-.038.045-.038.046-.039.043-.04.044-.04.042-.04.043-.041.042-.042.041-.042.041-.043.04-.044.04-.044.04-.044.04-.045.076-.092.075-.094.073-.096.072-.1.069-.1.067-.103.066-.105.065-.107.062-.11.06-.11.059-.114.057-.115.056-.117.054-.12.051-.12.052-.124.048-.125.048-.127.046-.13.044-.13.042-.133.041-.134.04-.136.038-.139.037-.14.035-.14.033-.144.033-.145.031-.146.03-.149.028-.15.028-.15.025-.153.025-.155.023-.156.021-.156.02-.16.02-.16.02-.16.015-.164.017-.165.004-.027.008-.027.013-.026.015-.023.02-.021.02-.018.025-.016.026-.011.026-.008.029-.003h.028zm-.03.365l-.018.165-.018.162-.02.163-.02.16-.023.159-.023.157-.025.157-.026.154-.027.154-.029.152-.03.15-.031.148-.033.148-.035.145-.035.144-.038.142-.039.142-.04.138-.042.137-.043.136-.046.133-.047.132-.048.13-.05.128-.051.127-.054.125-.056.121-.057.12-.059.12-.06.117-.063.114-.064.113-.066.111-.068.109-.07.106-.073.104-.073.102-.076.1-.077.098-.081.096-.04.047-.041.046-.041.046-.044.045-.042.045-.043.044-.043.044-.046.043-.045.042-.045.041-.045.042-.047.04-.047.04-.047.04-.05.039-.048.038-.049.038-.05.037-.05.037-.05.035-.052.035-.052.035-.053.033-.053.034-.053.032-.055.032-.055.031-.055.032-.056.03-.057.03-.057.028-.058.029-.058.026-.06.027-.059.027-.06.025-.06.024-.062.025-.063.023-.062.023-.063.022-.065.022-.064.02-.065.02-.066.02-.066.019L8.95 8.735l.048 4.383 4.373.29-1.474-1.558.07-.042.07-.043.067-.043.068-.043.067-.044.066-.045.065-.045.064-.045.064-.045.061-.046.062-.047.062-.047.059-.047.06-.048.058-.048.057-.05.057-.048.056-.049.055-.05.054-.05.054-.051.052-.051.053-.052.05-.052.05-.052.05-.053.05-.053.048-.053.046-.055.047-.054.046-.055.045-.055.043-.055.044-.057.042-.056.042-.057.041-.057.04-.057.04-.06.039-.057.037-.059.037-.059.037-.06.035-.06.035-.06.034-.06.034-.062.032-.061.032-.062.031-.062.03-.063.03-.063.03-.063.027-.065.028-.063.026-.065.027-.065.025-.065.024-.066.024-.066.023-.066.022-.068.022-.066.02-.068.021-.068.02-.069.019-.068.018-.069.017-.07.017-.068.016-.072.015-.07.015-.07.014-.072.026-.143.022-.145.02-.146.018-.147.015-.15.012-.15.01-.152.007-.153.004-.155.002-.155v-.157l-.005-.159-.005-.16-.01-.161-.01-.162-.014-.165-.016-.164-.019-.167-.021-.167-.024-.17-.026-.17-.028-.171-.031-.173-.033-.174-.036-.175-.037-.176-.04-.178-.016.166z" fill="#fff"/></g><defs><linearGradient id="_Linear1" x1="0" y1="0" x2="1" y2="0" gradientUnits="userSpaceOnUse" gradientTransform="matrix(58 0 0 15 1 8.5)"><stop offset="0" stop-color="#6b8dc4"/><stop offset=".43" stop-color="#87a3cf"/><stop offset=".89" stop-color="#d5dfee"/><stop offset=".96" stop-color="#c5d3e8"/><stop offset=".98" stop-color="#9bb3d7"/><stop offset="1" stop-color="#6b8dc4"/></linearGradient><linearGradient id="_Linear2" x1="0" y1="0" x2="1" y2="0" gradientUnits="userSpaceOnUse" gradientTransform="matrix(0 -2 2.66667 0 3 5)"><stop offset="0" stop-color="#b3c4e0"/><stop offset="1" stop-color="#a1b7d9"/></linearGradient></defs></svg>