<svg width="60" height="17" xmlns="http://www.w3.org/2000/svg" fill-rule="evenodd" clip-rule="evenodd" stroke-linejoin="round" stroke-miterlimit="2"><path d="M60 1v15l-1 1H1l-1-1V1l1-1h58l1 1zM1 1v15h58V1H1z" fill="#003bae"/><path fill="url(#_Linear1)" d="M1 1h58v15H1z"/><path d="M59 16H1V1h58v15zM2 2v13h56V2H2z" fill="#6e90c5" fill-opacity=".27"/><path d="M2 2h3v1H3v3H2V2z" fill="url(#_Linear2)"/><path d="M2 2h2v1H3v2H2V2zm7 7v4h7V9h2l-5.5-6L7 9h2z" fill="#fff"/><clipPath id="a"><path d="M9 9v4h7V9h2l-5.5-6L7 9h2z"/></clipPath><g clip-path="url(#a)"><path fill="#2c68cc" d="M11 9h3v3h-3z"/></g><path d="M30.743 5.958v2.828H26.46v1.21h4.283v3.317H25.33v1.265h12.142v-1.265h-5.425V9.996h4.296v-1.21h-4.296V5.958h4.949V4.693h-5.03l.04-.013a19.59 19.59 0 00-.789-2.244l-1.25.34c.299.612.557 1.251.775 1.917h-4.936v1.265h4.936z" fill="#fff" fill-rule="nonzero"/><path d="M31.273 1.906l.095.014.082.04.081.041.082.068.054.082.04.081.137.313.109.3.108.298.11.286.094.285.095.286.055.163h4.677l.095.027.095.055.068.054.068.068.055.095.04.082.014.095v1.414l-.014.054-.013.041-.027.041-.027.054-.028.041-.027.027-.04.041-.028.027-.04.028-.055.027-.04.027-.042.014-.054.013h-4.514v1.768h3.861l.096.027.095.054.068.055.068.068.054.095.04.081.014.096v1.359l-.013.055-.014.04-.027.041-.027.054-.027.041-.028.027-.04.041-.027.027-.041.028-.055.027-.04.027-.041.014-.055.013h-3.861v2.257h4.99l.095.027.095.055.068.054.068.068.055.095.04.082.014.095v1.414l-.014.055-.013.04-.027.041-.028.054-.027.041-.027.027-.04.041-.028.027-.04.028-.055.027-.04.027-.042.014-.054.013H25.236l-.054-.013-.041-.014-.041-.027-.054-.027-.041-.028-.027-.027-.041-.04-.027-.028-.028-.04-.027-.055-.027-.04-.014-.041-.013-.055V13.22l.013-.055.014-.04.027-.042.027-.054.028-.04.027-.028.04-.04.028-.028.04-.027.055-.027.04-.028.042-.013.054-.014h4.976v-2.257h-3.847l-.055-.013-.04-.014-.041-.027-.055-.027-.04-.028-.028-.027-.04-.04-.028-.028-.027-.04-.027-.055-.027-.04-.014-.041-.014-.055v-1.4l.014-.055.014-.04.027-.041.027-.055.027-.04.027-.028.041-.04.027-.028.041-.027.055-.027.04-.027.041-.014.054-.013h3.848V6.488h-4.5l-.055-.013-.04-.014-.041-.027-.055-.027-.04-.028-.027-.027-.041-.04-.027-.028-.028-.04-.027-.055-.027-.04-.014-.042-.013-.054V4.599l.013-.055.014-.041.027-.04.027-.055.028-.04.027-.028.04-.04.028-.028.04-.027.055-.027.04-.028.041-.013.055-.014h4.269V4.15l-.04-.123-.055-.109-.04-.122-.055-.109-.041-.122-.054-.109-.055-.109-.04-.108-.055-.123-.054-.109-.028-.04-.013-.055-.014-.04v-.15l.014-.054v-.041l.027-.055.014-.04.027-.041.027-.041.027-.04.041-.028.04-.04.042-.028.04-.014.041-.027.055-.013 1.25-.34.041-.014h.15zm-1.305.87l.108.231.109.232.095.23.109.245.095.245.082.245.095.245.082.244h-4.936v1.265h4.936v2.828H26.46v1.21h4.283v3.317H25.33v1.265h12.142v-1.265h-5.425V9.996h4.296v-1.21h-4.296V5.958h4.949V4.693h-5.03l.04-.013-.04-.123-.028-.136-.04-.136-.042-.122-.054-.136-.04-.136-.042-.136-.054-.15-.054-.135-.041-.15-.055-.136-.054-.15-.068-.149-.054-.15-.055-.149-.068-.15-1.25.34z" fill="#003bae"/><path d="M51.562 5.373H47.62c.11-.38.19-.788.272-1.196h5.344V2.953H41.188v1.224h5.303c-.054.408-.136.802-.218 1.196h-3.467v6.608h1.306V6.638h6.145v5.33h1.305V5.372zm-3.358 6.445l-.707 1.074c1.59.53 3.14 1.264 4.664 2.189l.802-1.224c-1.428-.802-3.019-1.482-4.759-2.04zM46.56 7.29v2.162c-.068 1.142-.449 2.067-1.156 2.774-.707.666-2.053 1.21-4.038 1.645l.734 1.156c1.985-.463 3.427-1.102 4.297-1.945.897-.91 1.387-2.12 1.468-3.63V7.29H46.56z" fill="#fff" fill-rule="nonzero"/><path d="M53.29 2.423l.094.013.082.041.095.055.068.068.054.068.055.095.027.095V4.27l-.014.055-.013.041-.027.04-.028.055-.027.041-.027.027-.04.041-.028.027-.04.027-.055.028-.04.027-.042.013-.054.014h-5.004v.04l-.027.096h3.359l.095.027.095.055.068.054.068.068.054.095.041.082.014.095v6.743l-.014.055-.014.04-.027.042-.027.054-.027.04-.027.028-.041.04-.027.028-.041.027-.054.027-.041.028-.041.013-.054.014h-.191l.34.163.286.136.285.15.286.149.285.15.272.15.082.053.068.068.054.082.04.082.028.095v.149l-.014.041-.013.054-.014.041-.013.041-.028.054-.802 1.224-.027.027-.04.041-.028.027-.04.041-.041.027-.041.014-.041.027-.054.014-.041.013h-.19l-.055-.013-.04-.014-.042-.027-.04-.014-.15-.095-.136-.081-.136-.082-.15-.082-.135-.081-.136-.068-.15-.082-.136-.081-.136-.068-.15-.082-.135-.068-.15-.081-.136-.068-.136-.068-.15-.068-.135-.068-.15-.068-.136-.068-.15-.055-.135-.068-.15-.054-.136-.068-.15-.054-.135-.068-.15-.055-.15-.054-.135-.055-.15-.054-.136-.054-.15-.041-.15-.055-.149-.054-.04-.014-.041-.027-.041-.027-.04-.027-.042-.027-.027-.041-.027-.04-.027-.028-.082.095-.081.095-.096.109-.054.04-.054.055-.041.041-.054.04-.041.042-.055.04-.054.041-.054.055-.11.068-.108.081-.109.082-.122.081-.109.068-.122.082-.136.068-.123.068-.136.068-.136.068-.135.068-.136.068-.15.054-.15.068-.15.054-.149.068-.15.055-.162.054-.164.055-.163.054-.163.054-.177.055-.176.054-.177.04-.177.055-.177.055-.19.04-.19.041-.055.014h-.149l-.041-.014-.054-.013-.041-.014-.055-.027-.04-.027-.041-.027-.041-.041-.027-.041-.027-.04-.735-1.157-.027-.04-.013-.041-.028-.055v-.04l-.013-.055v-.135l.013-.055.014-.04.014-.055.027-.041.027-.04.027-.042.041-.027.027-.04.041-.028.04-.027.055-.014.041-.013.04-.014.191-.04.177-.041.177-.041.163-.04.163-.055.163-.041.15-.04.163-.042.15-.04.135-.055.15-.04.136-.055.122-.04.136-.042.123-.054.122-.04.122-.055.109-.055.068-.027h-1.25l-.055-.013-.041-.014-.04-.027-.055-.027-.041-.027-.027-.028-.041-.04-.027-.028-.027-.04-.028-.055-.027-.04-.013-.041-.014-.055V5.278l.014-.054.013-.041.027-.04.028-.055.027-.041.027-.027.04-.041.028-.027.04-.027.055-.028.041-.027.04-.013.055-.014h3.127v-.014l.028-.122h-4.772l-.055-.014-.041-.013-.04-.027-.055-.028-.041-.027-.027-.027-.04-.04-.028-.028-.027-.04-.028-.055-.027-.04-.013-.042-.014-.054V2.858l.014-.055.013-.04.027-.041.028-.054.027-.041.027-.027.04-.041.028-.027.04-.028.055-.027.041-.027.04-.014.055-.013H53.29zm-5.793 10.469l.3.095.298.109.3.122.285.11.3.121.285.123.299.136.285.136.3.136.285.136.285.15.3.162.285.15.286.163.285.163.286.177.802-1.224-.136-.081-.136-.068-.136-.068-.136-.082-.136-.068-.136-.068-.15-.068-.135-.081-.136-.068-.15-.068-.136-.068-.15-.068-.15-.055-.149-.068-.136-.068-.15-.068-.149-.054-.15-.068-.162-.068-.15-.054-.15-.068-.15-.055-.162-.054-.15-.068-.163-.054-.15-.055-.163-.054-.163-.055-.15-.054-.163-.054-.163-.055-.163-.054-.707 1.074zM46.56 7.29v2.162l-.014.109v.109l-.013.095-.014.109-.013.095-.014.109-.027.095-.014.095-.027.095-.014.095-.027.095-.027.096-.04.081-.028.095-.027.096-.041.081-.04.082-.028.095-.04.081-.055.082-.04.082-.042.081-.054.068-.04.082-.055.081-.055.068-.054.068-.068.082-.054.068-.068.068-.055.068-.068.068-.027.027-.04.04-.069.055-.081.068-.082.055-.081.054-.082.068-.095.054-.095.055-.096.054-.108.054-.096.055-.108.054-.123.055-.108.054-.123.054-.122.055-.136.054-.122.04-.136.055-.15.055-.136.04-.15.055-.15.04-.149.041-.163.055-.163.04-.163.041-.163.055-.177.04-.177.041-.177.041-.19.04.734 1.157.19-.041.177-.055.177-.04.177-.041.177-.055.163-.054.163-.04.163-.055.163-.054.15-.055.15-.054.149-.055.15-.054.136-.054.15-.068.135-.055.136-.054.122-.068.123-.068.122-.054.122-.068.123-.068.109-.068.108-.068.11-.068.108-.082.095-.068.095-.068.041-.04.054-.042.041-.04.055-.041.04-.027.041-.041.041-.04.04-.042.082-.081.082-.095.081-.082.068-.095.082-.095.068-.096.068-.095.068-.095.068-.109.054-.095.055-.109.068-.108.054-.11.04-.108.055-.109.041-.108.054-.11.041-.122.041-.122.04-.109.028-.122.04-.122.028-.136.027-.123.027-.122.014-.136.027-.136.014-.122.027-.136.014-.136v-.15l.013-.136V7.29H46.56zm-1.917-.122v4.908l-.014.055-.013.027.027-.014.081-.054.068-.055.068-.04.068-.055.055-.054.027-.027.027-.014.04-.054.055-.055.055-.068.054-.054.054-.068.041-.054.055-.068.04-.068.041-.068.041-.068.04-.068.042-.068.04-.068.028-.068.04-.082.028-.068.027-.081.027-.068.027-.082.027-.082.028-.081.027-.082.013-.081.027-.082.014-.095.014-.082.013-.095.014-.081L46 9.71l.014-.095V9.52l.014-.081V7.196l.013-.028h-1.4zm-3.454-4.215v1.224h5.303l-.027.15-.014.149-.027.15-.027.149-.027.15-.041.15-.055.298h-3.467v6.608h1.306V6.638h6.145v5.33h1.305V5.372H47.62l.014-.068.027-.081.041-.136.027-.15.041-.15.027-.149.027-.163.068-.3h5.344V2.954H41.188zm7.193 4.215l.013.068v2.23l-.013.163v.15l-.014.149-.027.15-.014.136-.027.15-.027.135-.027.136-.027.136-.028.136-.04.136-.041.136-.04.122.054-.013h.094l.11.013.04.014.327.109.326.108.326.11.38.135v-4.61h-1.345z" fill="#003bae"/><defs><linearGradient id="_Linear1" x1="0" y1="0" x2="1" y2="0" gradientUnits="userSpaceOnUse" gradientTransform="matrix(58 0 0 15 1 8.5)"><stop offset="0" stop-color="#6b8dc4"/><stop offset=".43" stop-color="#87a3cf"/><stop offset=".89" stop-color="#d5dfee"/><stop offset=".96" stop-color="#c5d3e8"/><stop offset=".98" stop-color="#9bb3d7"/><stop offset="1" stop-color="#6b8dc4"/></linearGradient><linearGradient id="_Linear2" x1="0" y1="0" x2="1" y2="0" gradientUnits="userSpaceOnUse" gradientTransform="matrix(0 -2 2.66667 0 3 5)"><stop offset="0" stop-color="#b3c4e0"/><stop offset="1" stop-color="#a1b7d9"/></linearGradient></defs></svg>