<svg width="21" height="17" xmlns="http://www.w3.org/2000/svg" fill-rule="evenodd" clip-rule="evenodd" stroke-linejoin="round" stroke-miterlimit="2"><g transform="translate(1 2)"><path d="M2 1L1 2v11h16l1-1V1H2z" fill="url(#_Linear1)"/><clipPath id="a"><path d="M2 1L1 2v11h16l1-1V1H2z"/></clipPath><g clip-path="url(#a)"><path d="M2 15h1V4h15v11h1V3H2v12z" fill="url(#_Linear3)" transform="translate(-1 -2)"/></g><path d="M18.078.003l.078.009.077.016.076.021.074.027.071.033.068.038.066.044.061.049.058.053.053.058.049.061.044.066.038.068.033.071.027.074.021.076.016.077.009.078L19 1v11l-.003.078-.009.078-.016.077-.021.076-.027.074-.033.071-.038.068-.044.066-.049.061-.053.058-1 1-.058.053-.061.049-.066.044-.068.038-.071.033-.074.027-.076.021-.077.016-.078.009L17 14H1l-.078-.003-.078-.009-.077-.016-.076-.021-.074-.027-.071-.033-.068-.038-.066-.044-.061-.049-.058-.053-.053-.058-.049-.061-.044-.066-.038-.068-.033-.071-.027-.074-.021-.076-.016-.077-.009-.078L0 13V2l.003-.078.009-.078.016-.077.021-.076.027-.074.033-.071.038-.068.044-.066.049-.061.053-.058 1-1L1.351.24l.061-.049.066-.044.068-.038.071-.033.074-.027.076-.021.077-.016.078-.009L2 0h16l.078.003zM2 1L1 2v11h16l1-1V1H2z"/></g><path d="M13 10H8v2.001H6V13h9v-.999h-2V10z"/><path d="M17 2.05C17 1.471 16.529 1 15.95 1H5.05C4.471 1 4 1.471 4 2.05v6.9C4 9.529 4.471 10 5.05 10h10.9c.579 0 1.05-.471 1.05-1.05v-6.9z" fill="url(#_Radial4)"/><path d="M16.017.735l.067.005.066.008.065.012.063.015.063.018.061.02.06.024.059.026.056.029.056.032.053.034.052.037.049.039.048.042.046.043.043.046.042.048.039.049.037.052.034.053.032.056.029.056.026.059.024.06.02.061.018.063.015.063.012.065.008.066.005.067.002.064v6.906l-.002.064-.005.067-.008.066-.012.065-.015.063-.018.063-.02.061-.024.06-.026.059-.029.056-.032.056-.034.053-.037.052-.039.049-.042.048-.043.046-.046.043-.048.042-.049.039-.052.037-.053.034-.056.032-.056.029-.059.026-.06.024-.061.02-.063.018-.063.015-.065.012-.066.008-.067.005-.064.002H5.047l-.064-.002-.067-.005-.066-.008-.065-.012-.063-.015-.063-.018-.061-.02-.06-.024-.059-.026-.056-.029-.056-.032-.053-.034-.052-.037-.049-.039-.048-.042-.046-.043-.043-.046-.042-.048-.039-.049-.037-.052-.034-.053-.032-.056-.029-.056-.026-.059-.024-.06-.02-.061-.018-.063-.015-.063-.012-.065-.008-.066-.005-.067-.002-.064V2.047l.002-.064.005-.067.008-.066.012-.065.015-.063.018-.063.02-.061.024-.06.026-.059.029-.056.032-.056.034-.053.037-.052.039-.049.042-.048.043-.046.046-.043.048-.042.049-.039.052-.037.053-.034.056-.032.056-.029.059-.026.06-.024.061-.02.063-.018.063-.015.065-.012.066-.008.067-.005.064-.002h10.906l.064.002zM5.05 1l-.054.001-.053.004-.052.007-.052.009-.051.012-.05.014-.049.017-.047.019-.047.021-.045.023-.044.025-.043.028-.041.029-.04.031-.038.033-.036.035-.035.036-.033.038-.031.04-.029.041-.028.043-.025.044-.023.045-.021.047-.019.047-.017.049-.014.05-.012.051-.009.052-.007.052-.004.053L4 2.05v6.9l.001.054.004.053.007.052.009.052.012.051.014.05.017.049.019.047.021.047.023.045.025.044.028.043.029.041.031.04.033.038.035.036.036.035.038.033.04.031.041.029.043.028.044.025.045.023.047.021.047.019.049.017.05.014.051.012.052.009.052.007.053.004.054.001h10.9l.054-.001.053-.004.052-.007.052-.009.051-.012.05-.014.049-.017.047-.019.047-.021.045-.023.044-.025.043-.028.041-.029.04-.031.038-.033.036-.035.035-.036.033-.038.031-.04.029-.041.028-.043.025-.044.023-.045.021-.047.019-.047.017-.049.014-.05.012-.051.009-.052.007-.052.004-.053L17 8.95v-6.9l-.001-.054-.004-.053-.007-.052-.009-.052-.012-.051-.014-.05-.017-.049-.019-.047-.021-.047-.023-.045-.025-.044-.028-.043-.029-.041-.031-.04-.033-.038-.035-.036-.036-.035-.038-.033-.04-.031-.041-.029-.043-.028-.044-.025-.045-.023-.047-.021-.047-.019-.049-.017-.05-.014-.051-.012-.052-.009-.052-.007-.053-.004L15.95 1H5.05z"/><path d="M5 2h11v7H5z"/><path d="M16 9H5V2h11v7zM5.267 8.733h10.466V2.267H5.267v6.466z" fill="#303030"/><path d="M6.37 4.238V3.106a1.18 1.18 0 01-.134.109c-.044.029-.104.06-.18.09v-.158c.12-.058.226-.135.314-.228h.155v1.32h.31v.146h-.78v-.147h.315zM7.39 4.238V3.106a1.18 1.18 0 01-.134.109c-.044.029-.104.06-.18.09v-.158c.12-.058.226-.135.314-.228h.155v1.32h.31v.146h-.78v-.147h.315zM8.526 4.385v-.41h-.547v-.147l.547-.91h.156v.91h.238v.147h-.238v.41h-.156zm0-.557v-.642l-.383.642h.383zM9.47 4.43a.123.123 0 01-.096-.045.162.162 0 01-.04-.11c0-.043.013-.08.04-.108a.126.126 0 01.095-.045c.036 0 .068.016.096.045.027.029.039.065.039.108a.16.16 0 01-.04.11.126.126 0 01-.095.045zM10.136 3.623v-.704h.72v.17h-.565v.358h.025c.185 0 .328.044.428.131.1.09.152.207.152.358 0 .093-.02.178-.061.254a.459.459 0 01-.406.24.984.984 0 01-.319-.07V4.17a.72.72 0 00.157.071c.06.02.112.027.161.027a.288.288 0 00.255-.158.357.357 0 00.04-.16.3.3 0 00-.108-.231c-.071-.064-.197-.095-.379-.095h-.1zM11.47 4.238V3.106a1.18 1.18 0 01-.134.109c-.044.029-.104.06-.18.09v-.158c.12-.058.226-.135.314-.228h.155v1.32h.31v.146h-.779v-.147h.314zM12.606 4.385v-.41h-.547v-.147l.547-.91h.156v.91H13v.147h-.238v.41h-.156zm0-.557v-.642l-.382.642h.382zM14 3.873l-.9.512v-.162l.615-.35-.616-.353v-.16l.901.513z" fill="#fff" fill-rule="nonzero"/><defs><linearGradient id="_Linear1" x1="0" y1="0" x2="1" y2="0" gradientUnits="userSpaceOnUse" gradientTransform="matrix(0 -10.9091 8.31111 0 8.933 13)"><stop offset="0" stop-color="#3a588b"/><stop offset="1" stop-color="#97b5e8"/></linearGradient><linearGradient id="_Linear3" x1="0" y1="0" x2="1" y2="0" gradientUnits="userSpaceOnUse" gradientTransform="matrix(0 12 -8.47059 0 11 3)"><stop offset="0" stop-color="#aec6ed"/><stop offset=".57" stop-color="#97b1da"/><stop offset=".79" stop-color="#6884b2"/><stop offset="1" stop-color="#3c5a8d"/></linearGradient><radialGradient id="_Radial4" cx="0" cy="0" r="1" gradientUnits="userSpaceOnUse" gradientTransform="matrix(4.72727 7.8 -12.9265 4.51758 5.182 1.6)"><stop offset="0" stop-color="#fff"/><stop offset=".36" stop-color="#fafcff"/><stop offset=".66" stop-color="#eaf2fd"/><stop offset="1" stop-color="#89b7f0"/></radialGradient></defs></svg>