<svg width="11" height="11" xmlns="http://www.w3.org/2000/svg" fill-rule="evenodd" clip-rule="evenodd" stroke-linejoin="round" stroke-miterlimit="2"><path d="M12 1.375L10.731 0H1.269L0 1.375v10.25L1.269 13h9.462L12 11.625V1.375z" fill="url(#_Linear1)" transform="matrix(.75 0 0 .6923 1 1)"/><path d="M9.108-.065l.06.005.059.008.058.012.059.015.057.018.055.022.055.024.053.028.052.03.05.033.047.036.046.039.044.041.951.951.041.044.039.046.036.047.033.05.03.052.028.053.024.054.021.057.02.056.014.058.012.06.008.058.005.06.002.06v7.096l-.002.06-.005.06-.009.059-.01.059-.016.058-.019.056-.02.057-.025.054-.027.053-.031.052-.033.05-.036.047-.039.046-.04.044-.952.95-.044.042-.046.04-.048.035-.049.033-.052.03-.053.028-.055.024-.055.022-.057.018-.059.015-.058.012-.06.008-.059.005-.06.002H1.952l-.06-.002-.06-.005-.059-.008-.058-.012-.059-.015-.057-.018-.055-.022-.055-.024-.053-.028-.052-.03-.05-.033-.048-.036-.045-.039-.044-.041-.952-.951-.04-.044-.039-.046-.036-.047-.033-.05-.03-.052-.028-.053-.025-.054-.02-.057-.02-.056-.014-.058-.012-.06-.008-.058-.005-.06-.002-.06V1.952l.002-.06.005-.06.008-.059.012-.059.015-.058.018-.056.021-.057.025-.054.027-.053.031-.052.033-.05.036-.047.039-.046.04-.044.952-.95.044-.042.045-.04.048-.035.05-.033.052-.03.053-.028.055-.024.055-.022.057-.018.059-.015.058-.012.06-.008.059-.005.06-.002h7.096l.06.002zM1.952 1L1 1.952v7.096l.952.952h7.096L10 9.048V1.952L9.048 1H1.952z" fill="#92bace"/><path d="M2 3h1v1H2zM2 5h1v1H2zM2 7h1v1H2z"/><path fill="#004263" d="M4 3h5v1H4zM4 5h5v1H4zM4 7h4v1H4z"/><defs><linearGradient id="_Linear1" x1="0" y1="0" x2="1" y2="0" gradientUnits="userSpaceOnUse" gradientTransform="matrix(12 0 0 13 0 6.5)"><stop offset="0" stop-color="#fff"/><stop offset="1" stop-color="#e5e5e5"/></linearGradient></defs></svg>