<svg width="12" height="13" xmlns="http://www.w3.org/2000/svg" fill-rule="evenodd" clip-rule="evenodd" stroke-linejoin="round" stroke-miterlimit="2"><path d="M12 1.25L10.731 0H1.269L0 1.25v10.5L1.269 13h9.462L12 11.75V1.25z" fill="url(#_Linear1)" transform="matrix(.83333 0 0 .84615 1 1)"/><path d="M10.007-.064l.064.005.064.01.062.013.063.017.06.021.06.025.058.029.056.031.054.036.052.038.05.04.047.045 1.057 1.057.044.047.042.05.037.052.035.054.032.056.028.057.025.06.021.061.018.062.013.064.01.063.006.064.002.065v8.884l-.002.065-.006.064-.01.063-.013.064-.018.062-.02.06-.026.06-.028.058-.032.056-.035.054-.037.053-.042.049-.044.047-1.057 1.057-.047.045-.05.04-.052.038-.054.036-.056.031-.058.03-.06.024-.06.02-.063.018-.062.013-.064.01-.064.005-.065.003H2.057l-.064-.003-.064-.005-.064-.01-.063-.013-.062-.017-.06-.021-.06-.025-.058-.029-.056-.031-.054-.036-.052-.038-.05-.04-.047-.045-1.057-1.057-.044-.047-.042-.05-.037-.052-.035-.054-.032-.056-.028-.057-.025-.06-.021-.061-.018-.062-.013-.064-.01-.063-.006-.064-.002-.065V2.058l.002-.065.006-.064.01-.063.013-.064.018-.062.02-.06.026-.06.028-.058.032-.056.035-.054.037-.053.042-.049.044-.047L1.303.246 1.35.201l.05-.04.052-.038.054-.036.056-.031.058-.03.06-.024.06-.02.062-.018.063-.013.064-.01.064-.005.064-.003h7.885l.065.003zM2.057 1L1 2.058v8.884L2.057 12h7.885L11 10.942V2.058L9.942 1H2.057z" fill="#92bace"/><path d="M3 3h1v1H3zm0 2h1v1H3zm0 2h1v1H3zm0 2h1v1H3z"/><path fill="#004263" d="M5 3h5v1H5zm0 2h5v1H5zm0 2h4v1H5zm0 2h4v1H5z"/><defs><linearGradient id="_Linear1" x1="0" y1="0" x2="1" y2="0" gradientUnits="userSpaceOnUse" gradientTransform="matrix(12 0 0 13 0 6.5)"><stop offset="0" stop-color="#fff"/><stop offset="1" stop-color="#e5e5e5"/></linearGradient></defs></svg>