<svg width="16" height="16" xmlns="http://www.w3.org/2000/svg" fill-rule="evenodd" clip-rule="evenodd" stroke-linejoin="round" stroke-miterlimit="2"><path d="M16 .97L15.03 0H.97L0 .97v14.06l.97.97h14.06l.97-.97V.97z" fill="#fff"/><clipPath id="a"><path d="M16 .97L15.03 0H.97L0 .97v14.06l.97.97h14.06l.97-.97V.97z"/></clipPath><g clip-path="url(#a)"><path d="M13 1.994H2V5l1.005 1H14V2.986l-1-.992z" fill="#909090"/><path d="M14 3l-1-1H3L2 3v2l1 1h10l1-1V3z" fill="silver"/><path d="M14 3v2l-1 1H3L2 5V3l1-1h10l1 1zM3.414 3L3 3.414v1.172L3.414 5h9.172L13 4.586V3.414L12.586 3H3.414zM7 11h7v1H7zM5 7h9v1H5zM6 13h8v1H6zM6 9h8v1H6zM3 13h2v1H3zM3 9h2v1H3zM2 7h2v1H2zM4 11h2v1H4z"/></g><path d="M16 .97v14.06l-.97.97H.97L0 15.03V.97L.97 0h14.06l.97.97zM1.384 1L1 1.384v13.232l.384.384h13.232l.384-.384V1.384L14.616 1H1.384z"/></svg>