<svg width="16" height="16" xmlns="http://www.w3.org/2000/svg" fill-rule="evenodd" clip-rule="evenodd" stroke-linejoin="round" stroke-miterlimit="2"><path d="M16 .97L15.03 0H.97L0 .97v14.06l.97.97h14.06l.97-.97V.97z" fill="#fff"/><clipPath id="a"><path d="M16 .97L15.03 0H.97L0 .97v14.06l.97.97h14.06l.97-.97V.97z"/></clipPath><g clip-path="url(#a)"><path d="M13 2.006H2V11L3.005 12H14V2.987l-1-.981z" fill="#909090"/><path d="M14 9l-1-1H3L2 9v2l1 1h10l1-1V9z" fill="silver"/><path d="M14 9v2l-1 1H3l-1-1V9l1-1h10l1 1zM3.414 9L3 9.414v1.172l.414.414h9.172l.414-.414V9.414L12.586 9H3.414z"/><path d="M14 6l-1-1H3L2 6v2l1 1h10l1-1V6z" fill="silver"/><path d="M14 6v2l-1 1H3L2 8V6l1-1h10l1 1zM3.414 6L3 6.414v1.172L3.414 8h9.172L13 7.586V6.414L12.586 6H3.414z"/><path d="M14 3l-1-1H3L2 3v2l1 1h10l1-1V3z" fill="silver"/><path d="M14 3v2l-1 1H3L2 5V3l1-1h10l1 1zM3.414 3L3 3.414v1.172L3.414 5h9.172L13 4.586V3.414L12.586 3H3.414z"/><g><path d="M2 13h12v1H2z"/></g></g><path d="M16 .97v14.06l-.97.97H.97L0 15.03V.97L.97 0h14.06l.97.97zM1.384 1L1 1.384v13.232l.384.384h13.232l.384-.384V1.384L14.616 1H1.384z"/></svg>