<svg width="15" height="17" xmlns="http://www.w3.org/2000/svg" fill-rule="evenodd" clip-rule="evenodd" stroke-linejoin="round" stroke-miterlimit="2"><g transform="translate(1.984)"><path d="M12 4L9 1H1v14h11V4z" fill="url(#_Radial1)"/><clipPath id="a"><path d="M12 4L9 1H1v14h11V4z"/></clipPath><g clip-path="url(#a)"><path d="M3 9h7v1H3zm0 2h7v1H3zm0 2h7v1H3zM9.034.001l.034.001.034.003.034.004.034.006.033.006.034.007.033.009.033.01.032.011.032.012.031.013.031.014.031.015.03.016.03.018.028.018.029.019.027.02.027.021.026.022.026.023.024.024 3 3 .024.024.023.026.022.026.021.027.02.027.019.029.018.028.018.03.016.03.015.031.014.031.013.031.012.032.011.032.01.033.009.033.007.034.006.033.006.034.004.034.003.034.001.034L13 4l-.001.034-.001.034-.003.034-.004.034-.006.034-.006.033-.007.034-.009.033-.01.033-.011.032-.012.032-.013.031-.014.031-.015.031-.016.03-.018.03-.018.028-.019.029-.02.027-.021.027-.022.026-.023.026-.024.024-.024.024-.026.023-.026.022-.027.021-.027.02-.029.019-.028.018-.03.018-.03.016-.031.015-.031.014-.031.013-.032.012-.032.011-.033.01-.033.009-.034.007-.033.006-.034.006-.034.004-.034.003-.034.001L12 5H9l-.034-.001-.034-.001-.034-.003-.034-.004-.034-.006-.033-.006-.034-.007-.033-.009-.033-.01-.032-.011-.032-.012-.031-.013-.031-.014-.031-.015-.03-.016-.03-.018-.028-.018-.029-.019-.027-.02-.027-.021-.026-.022-.026-.023-.024-.024-.024-.024-.023-.026-.022-.026-.021-.027-.02-.027-.019-.029-.018-.028-.018-.03-.016-.03-.015-.031-.014-.031-.013-.031-.012-.032-.011-.032-.01-.033-.009-.033-.007-.034-.006-.033-.006-.034-.004-.034-.003-.034-.001-.034L8 4V1l.001-.034.001-.034.003-.034.004-.034.006-.034.006-.033.007-.034.009-.033.01-.033.011-.032.012-.032.013-.031.014-.031.015-.031.016-.03.018-.03.018-.028.019-.029.02-.027.021-.027.022-.026.023-.026.024-.024.024-.024.026-.023.026-.022.027-.021.027-.02.029-.019.028-.018.03-.018.03-.016.031-.015.031-.014.031-.013.032-.012.032-.011.033-.01.033-.009.034-.007.033-.006.034-.006.034-.004.034-.003.034-.001L9 0l.034.001zM9 4h3L9 1v3z"/><path d="M6.808 5.13v2.416H4.583V5.652c0-1.042.118-1.776.355-2.25.331-.615.852-1.089 1.563-1.397l.497.805c-.403.19-.734.45-.924.805-.213.38-.331.876-.355 1.516h1.09zm-2.58 0v2.416H2.002V5.652c0-1.042.118-1.776.355-2.25.332-.615.853-1.089 1.54-1.397l.52.805c-.426.19-.734.45-.923.805-.213.38-.332.876-.356 1.516h1.09z" fill-rule="nonzero"/></g><path d="M9.071.003l.071.007.071.013.069.018.067.022.066.027.064.032.062.037.058.04.056.045.052.049 3 3 .049.052.045.056.04.058.037.062.032.064.027.066.022.067.018.069.013.071.007.071L13 4v11l-.003.075-.008.074-.014.074-.019.072-.025.07-.03.069-.035.066-.04.063-.044.06-.049.057-.053.053-.057.049-.06.044-.063.04-.066.035-.069.03-.07.025-.072.019-.074.014-.074.008L12 16H1l-.075-.003-.074-.008-.074-.014-.072-.019-.07-.025-.069-.03-.066-.035-.063-.04-.06-.044-.057-.049-.053-.053-.049-.057-.044-.06-.04-.063-.035-.066-.03-.069-.025-.07-.019-.072-.014-.074-.008-.074L0 15V1L.003.925.011.851.025.777.044.705l.025-.07.03-.069L.134.5l.04-.063.044-.06L.267.32.32.267.377.218l.06-.044L.5.134.566.099l.069-.03.07-.025.072-.019.074-.014.074-.008L1 0h8l.071.003zM1 1v14h11V4L9 1H1z"/></g><g transform="translate(-2.861 2.758) scale(.77778)"><circle cx="9.5" cy="12.5" r="4.5" fill="url(#_Radial3)"/><path d="M9.649 6.716l.148.006.147.009.146.013.145.017.144.02.143.024.142.027.141.031.14.034.138.037.137.041.135.044.134.047.132.05.131.054.129.056.128.06.125.062.124.066.122.068.121.071.118.074.116.077.115.079.112.082.11.084.108.087.106.09.104.092.101.095.1.096.096.1.095.101.092.104.09.106.087.108.084.11.082.112.079.115.077.116.074.118.071.121.068.122.066.124.062.125.06.128.056.129.054.131.05.132.047.134.044.135.041.137.037.138.034.14.031.141.027.142.024.143.02.144.017.145.013.146.009.147.006.148.002.149-.002.149-.006.148-.009.147-.013.146-.017.145-.02.144-.024.143-.027.142-.031.141-.034.14-.037.138-.041.137-.044.135-.047.134-.05.132-.054.131-.056.129-.06.128-.062.125-.066.124-.068.122-.071.121-.074.118-.077.116-.079.115-.082.112-.084.11-.087.108-.09.106-.092.104-.095.101-.096.1-.1.096-.101.095-.104.092-.106.09-.108.087-.11.084-.112.082-.115.079-.116.077-.118.074-.121.071-.122.068-.124.066-.125.062-.128.06-.129.056-.131.054-.132.05-.134.047-.135.044-.137.041-.138.037-.14.034-.141.031-.142.027-.143.024-.144.02-.145.017-.146.013-.147.009-.148.006-.149.002-.149-.002-.148-.006-.147-.009-.146-.013-.145-.017-.144-.02-.143-.024-.142-.027-.141-.031-.14-.034-.138-.037-.137-.041-.135-.044-.134-.047-.132-.05-.131-.054-.129-.056-.128-.06-.125-.062-.124-.066-.122-.068-.121-.071-.118-.074-.116-.077-.115-.079-.112-.082-.11-.084-.108-.087-.106-.09-.104-.092-.101-.095-.1-.096-.096-.1-.095-.101-.092-.104-.09-.106-.087-.108-.084-.11-.082-.112-.079-.115-.077-.116-.074-.118-.071-.121-.068-.122-.066-.124-.062-.125-.06-.128-.056-.129-.054-.131-.05-.132-.047-.134-.044-.135-.041-.137-.037-.138-.034-.14-.031-.141-.027-.142-.024-.143-.02-.144-.017-.145-.013-.146-.009-.147-.006-.148-.002-.149.002-.149.006-.148.009-.147.013-.146.017-.145.02-.144.024-.143.027-.142.031-.141.034-.14.037-.138.041-.137.044-.135.047-.134.05-.132.054-.131.056-.129.06-.128.062-.125.066-.124.068-.122.071-.121.074-.118.077-.116.079-.115.082-.112.084-.11.087-.108.09-.106.092-.104.095-.101.096-.1.1-.096.101-.095.104-.092.106-.09.108-.087.11-.084.112-.082.115-.079.116-.077.118-.074.121-.071.122-.068.124-.066.125-.062.128-.06.129-.056.131-.054.132-.05.134-.047.135-.044.137-.041.138-.037.14-.034.141-.031.142-.027.143-.024.144-.02.145-.017.146-.013.147-.009.148-.006.149-.002.149.002zm-.265 1.285l-.115.005-.115.007-.114.01-.113.013-.112.016-.111.018-.11.021-.11.024-.108.027-.107.029-.107.031-.105.035-.104.036-.102.039-.102.042-.1.044-.099.046-.098.049-.096.05-.095.054-.094.055-.092.057-.09.06-.089.062-.088.063-.086.066-.084.068-.082.07-.081.072-.079.073-.077.076-.076.077-.073.079-.072.081-.07.082-.068.084-.066.086-.063.088-.062.089-.06.09-.057.092-.055.094-.054.095-.05.096-.049.098-.046.099-.044.1-.042.102-.039.102-.036.104-.035.105-.031.107-.029.107-.027.108-.024.11-.021.11-.018.111-.016.112-.013.113-.01.114-.007.115-.005.115L5 12.5l.001.116.005.115.007.115.01.114.013.113.016.112.018.111.021.11.024.11.027.108.029.107.031.107.035.105.036.104.039.102.042.102.044.1.046.099.049.098.05.096.054.095.055.094.057.092.06.09.062.089.063.088.066.086.068.084.07.082.072.081.073.079.076.077.077.076.079.073.081.072.082.07.084.068.086.066.088.063.089.062.09.06.092.057.094.055.095.054.096.05.098.049.099.046.1.044.102.042.102.039.104.036.105.035.107.031.107.029.108.027.11.024.11.021.111.018.112.016.113.013.114.01.115.007.115.005L9.5 17l.116-.001.115-.005.115-.007.114-.01.113-.013.112-.016.111-.018.11-.021.11-.024.108-.027.107-.029.107-.031.105-.035.104-.036.102-.039.102-.042.1-.044.099-.046.098-.049.096-.05.095-.054.094-.055.092-.057.09-.06.089-.062.088-.063.086-.066.084-.068.082-.07.081-.072.079-.073.077-.076.076-.077.073-.079.072-.081.07-.082.068-.084.066-.086.063-.088.062-.089.06-.09.057-.092.055-.094.054-.095.05-.096.049-.098.046-.099.044-.1.042-.102.039-.102.036-.104.035-.105.031-.107.029-.107.027-.108.024-.11.021-.11.018-.111.016-.112.013-.113.01-.114.007-.115.005-.115L14 12.5l-.001-.116-.005-.115-.007-.115-.01-.114-.013-.113-.016-.112-.018-.111-.021-.11-.024-.11-.027-.108-.029-.107-.031-.107-.035-.105-.036-.104-.039-.102-.042-.102-.044-.1-.046-.099-.049-.098-.05-.096-.054-.095-.055-.094-.057-.092-.06-.09-.062-.089-.063-.088-.066-.086-.068-.084-.07-.082-.072-.081-.073-.079-.076-.077-.077-.076-.079-.073-.081-.072-.082-.07-.084-.068-.086-.066-.088-.063-.089-.062-.09-.06-.092-.057-.094-.055-.095-.054-.096-.05-.098-.049-.099-.046-.1-.044-.102-.042-.102-.039-.104-.036-.105-.035-.107-.031-.107-.029-.108-.027-.11-.024-.11-.021-.111-.018-.112-.016-.113-.013-.114-.01-.115-.007-.115-.005L9.5 8l-.116.001z"/></g><path d="M5.113 13.046h1.878v-1.165H5.113v-1.85H3.942v1.85H2.064v1.165h1.878v1.884h1.171v-1.884z" fill-rule="nonzero"/><defs><radialGradient id="_Radial1" cx="0" cy="0" r="1" gradientUnits="userSpaceOnUse" gradientTransform="matrix(4 12.1333 -10.9378 7.02734 2 1.933)"><stop offset="0" stop-color="#fff"/><stop offset=".36" stop-color="#fafcff"/><stop offset=".66" stop-color="#eaf2fd"/><stop offset="1" stop-color="#89b7f0"/></radialGradient><radialGradient id="_Radial3" cx="0" cy="0" r="1" gradientUnits="userSpaceOnUse" gradientTransform="matrix(3.27273 7.8 -8.94909 4.51758 5.818 8.6)"><stop offset="0" stop-color="#fff"/><stop offset=".41" stop-color="#fafcff"/><stop offset=".75" stop-color="#eaf2fd"/><stop offset="1" stop-color="#cce0f8"/></radialGradient></defs></svg>