<svg width="21" height="17" xmlns="http://www.w3.org/2000/svg" fill-rule="evenodd" clip-rule="evenodd" stroke-linejoin="round" stroke-miterlimit="2"><g transform="translate(1 2)"><path d="M2 1L1 2v11h16l1-1V1H2z" fill="url(#_Linear1)"/><clipPath id="a"><path d="M2 1L1 2v11h16l1-1V1H2z"/></clipPath><g clip-path="url(#a)"><path d="M2 15h1V4h15v11h1V3H2v12z" fill="url(#_Linear3)" transform="translate(-1 -2)"/></g><path d="M18.078.003l.078.009.077.016.076.021.074.027.071.033.068.038.066.044.061.049.058.053.053.058.049.061.044.066.038.068.033.071.027.074.021.076.016.077.009.078L19 1v11l-.003.078-.009.078-.016.077-.021.076-.027.074-.033.071-.038.068-.044.066-.049.061-.053.058-1 1-.058.053-.061.049-.066.044-.068.038-.071.033-.074.027-.076.021-.077.016-.078.009L17 14H1l-.078-.003-.078-.009-.077-.016-.076-.021-.074-.027-.071-.033-.068-.038-.066-.044-.061-.049-.058-.053-.053-.058-.049-.061-.044-.066-.038-.068-.033-.071-.027-.074-.021-.076-.016-.077-.009-.078L0 13V2l.003-.078.009-.078.016-.077.021-.076.027-.074.033-.071.038-.068.044-.066.049-.061.053-.058 1-1L1.351.24l.061-.049.066-.044.068-.038.071-.033.074-.027.076-.021.077-.016.078-.009L2 0h16l.078.003zM2 1L1 2v11h16l1-1V1H2z"/></g><g transform="translate(2)"><path d="M12 3l-2-2H5v6c11.909-.145 4.288-.017 7 0V3z" fill="#fff"/><clipPath id="b"><path d="M12 3l-2-2H5v6c11.909-.145 4.288-.017 7 0V3z"/></clipPath><g clip-path="url(#b)"><path d="M6 4h3v1H6zm0-2h2v1H6zm4.024-2l.028.001.028.002.028.003.028.003.028.005.028.005.028.005.027.007.027.007.027.008.027.009.027.01.026.01.026.011.025.012.026.013.024.013.025.014.024.015.024.015.023.016.023.017.022.017.022.018.021.018.021.019.02.02 2 2 .02.02.019.021.018.021.018.022.017.022.017.022.015.023.016.024.014.024.014.024.013.025.013.025.012.026.011.025.01.026.01.027.009.026.008.027.007.027.007.027.006.028.005.027.004.028.004.028.002.028.002.028.002.028v.056l-.002.028-.002.028-.002.028-.004.028-.004.028-.005.027-.006.028-.007.027-.007.027-.008.027-.009.026-.01.027-.01.026-.011.025-.012.026-.013.025-.013.025-.014.024-.014.024-.016.024-.015.023-.017.022-.017.022-.018.022-.018.021-.019.021-.02.02-.02.02-.021.019-.021.018-.022.018-.022.017-.022.017-.023.015-.024.016-.024.014-.024.014-.025.013-.025.013-.026.012-.025.011-.026.01-.027.01-.026.009-.027.008-.027.007-.027.007-.028.006-.027.005-.028.004-.028.004-.028.002-.028.002-.028.002h-1.056l-.027-.002-.028-.001-.027-.003-.028-.004-.027-.004-.028-.005-.027-.005-.027-.007-.026-.007-.027-.008-.026-.009-.026-.009-.026-.01-.025-.011-.026-.011-.024-.013-.025-.013-.024-.013-.024-.014-.023-.015-.023-.016-.022-.016-.022-.017-.022-.017-.021-.018-.021-.018-.02-.02-.019-.019-.019-.02-.019-.021-.017-.021-.018-.022-.016-.022-.016-.023-.016-.023-.014-.023-.014-.024-.014-.024-.012-.025-1-2-.013-.025-.011-.026-.011-.026-.01-.026-.009-.027-.009-.027-.008-.027-.007-.027-.006-.028-.006-.027-.004-.028-.004-.028-.003-.028-.003-.028-.001-.028L9 1.012V.984l.001-.028.002-.028L9.005.9l.003-.028.004-.028.005-.028.006-.028.006-.027.007-.027.008-.027.009-.027.009-.027.01-.026.011-.026.012-.026.012-.025.013-.025L9.134.5l.014-.024.015-.024.016-.023.017-.023.017-.022.017-.022.019-.022.019-.021.019-.02.02-.02.021-.019.021-.019.021-.018.023-.017.022-.017.023-.016.024-.016.024-.015.024-.014.025-.013.025-.013.026-.012.026-.011.026-.011.026-.01.027-.009.027-.008.027-.008.027-.007L9.8.02l.028-.005.027-.004.028-.004.028-.003.028-.002.029-.001L9.996 0h.028zM11 3h1l-2-2 1 2z"/></g><path d="M10.052.001l.053.004.051.007.052.01.051.012.05.015.049.017.049.02.047.023.046.025.045.027.043.03.041.032.04.034.038.036 2 2 .036.038.034.04.032.041.03.043.027.045.025.046.023.047.02.049.017.049.015.05.012.051.01.052.007.051.004.053L13 3v4l-.001.053-.005.052-.006.052-.01.052-.012.051-.015.051-.018.049-.02.049-.023.047-.025.046-.028.045-.03.044-.032.041-.034.04-.037.038-.038.036-.04.034-.042.032-.044.03-.045.027-.046.025-.048.022-.049.02-.049.017-.051.015-.051.012-.052.009-.052.006-.053.004-.052.001-.228-.002-.178-.003-.136-.003-.103-.005-.069-.005-.042-.006-.048-.008-.047-.01-.047-.012-.037-.012-.313.002-.898.009-1.226.013-1.597.018L5.012 8l-.053-.001-.052-.003-.053-.007-.052-.009-.051-.012-.051-.014-.05-.017-.049-.02-.047-.022-.047-.025-.045-.027-.044-.03-.042-.032-.04-.034-.039-.036-.036-.038-.035-.04-.032-.041-.03-.044-.028-.045-.025-.046-.023-.047-.021-.049-.017-.05-.015-.05-.013-.052-.01-.051-.006-.053-.005-.052L4 7V1l.001-.052.004-.053.007-.051.01-.052.012-.051.015-.05.017-.049.02-.049.023-.047L4.134.5l.027-.045.03-.043.032-.041.034-.04.036-.038.038-.036.04-.034.041-.032.043-.03L4.5.134l.046-.025.047-.023.049-.02.049-.017.05-.015.051-.012.052-.01.051-.007.053-.004L5 0h5l.052.001zM5 1v6l2.011-.024 1.598-.018 1.227-.013.9-.009.618-.004h.379l.114.001.07.001.02.001.012.001.004.002-.004.001-.027.003-.049.004-.14.008-.16.009-.074.005-.062.004-.046.005-.015.002-.008.002-.002.001v.001l.006.002.014.002.023.002.076.004.12.003.17.002L12 7V3l-2-2H5z"/></g><path fill="url(#_Radial5)" d="M5 7h11v5H5z"/><path d="M14 8h1v3h-1zm-2 0h1v3h-1zm-2 2h1v1h-1z"/><path d="M17 7v5l-1 1H5l-1-1V7l1-1h11l1 1zM5 7v5h11V7H5z"/><defs><linearGradient id="_Linear1" x1="0" y1="0" x2="1" y2="0" gradientUnits="userSpaceOnUse" gradientTransform="matrix(0 -10.9091 8.31111 0 8.933 13)"><stop offset="0" stop-color="#3a588b"/><stop offset="1" stop-color="#97b5e8"/></linearGradient><linearGradient id="_Linear3" x1="0" y1="0" x2="1" y2="0" gradientUnits="userSpaceOnUse" gradientTransform="matrix(0 12 -8.47059 0 11 3)"><stop offset="0" stop-color="#aec6ed"/><stop offset=".57" stop-color="#97b1da"/><stop offset=".79" stop-color="#6884b2"/><stop offset="1" stop-color="#3c5a8d"/></linearGradient><radialGradient id="_Radial5" cx="0" cy="0" r="1" gradientUnits="userSpaceOnUse" gradientTransform="matrix(11 5 -5 11 5 7)"><stop offset="0" stop-color="#fff"/><stop offset="1" stop-color="#eff4ff"/></radialGradient></defs></svg>