<svg width="15" height="17" xmlns="http://www.w3.org/2000/svg" fill-rule="evenodd" clip-rule="evenodd" stroke-linecap="round" stroke-linejoin="round" stroke-miterlimit="1.5"><path d="M12 4L9 1H1v14h11V4z" fill="url(#_Radial1)"/><clipPath id="a"><path d="M12 4L9 1H1v14h11V4z"/></clipPath><g clip-path="url(#a)"><path d="M3 3h4v1H3zM3 5h4v1H3zM3 7h7v1H3zM3 9h7v1H3zM3 11h7v1H3zM3 13h7v1H3zM9.034.001l.034.001.034.003.034.004.034.006.033.006.034.007.033.009.033.01.032.011.032.012.031.013.031.014.031.015.03.016.03.018.028.018.029.019.027.02.027.021.026.022.026.023.024.024 3 3 .024.024.023.026.022.026.021.027.02.027.019.029.018.028.018.03.016.03.015.031.014.031.013.031.012.032.011.032.01.033.009.033.007.034.006.033.006.034.004.034.003.034.001.034L13 4l-.001.034-.001.034-.003.034-.004.034-.006.034-.006.033-.007.034-.009.033-.01.033-.011.032-.012.032-.013.031-.014.031-.015.031-.016.03-.018.03-.018.028-.019.029-.02.027-.021.027-.022.026-.023.026-.024.024-.024.024-.026.023-.026.022-.027.021-.027.02-.029.019-.028.018-.03.018-.03.016-.031.015-.031.014-.031.013-.032.012-.032.011-.033.01-.033.009-.034.007-.033.006-.034.006-.034.004-.034.003-.034.001L12 5H9l-.034-.001-.034-.001-.034-.003-.034-.004-.034-.006-.033-.006-.034-.007-.033-.009-.033-.01-.032-.011-.032-.012-.031-.013-.031-.014-.031-.015-.03-.016-.03-.018-.028-.018-.029-.019-.027-.02-.027-.021-.026-.022-.026-.023-.024-.024-.024-.024-.023-.026-.022-.026-.021-.027-.02-.027-.019-.029-.018-.028-.018-.03-.016-.03-.015-.031-.014-.031-.013-.031-.012-.032-.011-.032-.01-.033-.009-.033-.007-.034-.006-.033-.006-.034-.004-.034-.003-.034-.001-.034L8 4V1l.001-.034.001-.034.003-.034.004-.034.006-.034.006-.033.007-.034.009-.033.01-.033.011-.032.012-.032.013-.031.014-.031.015-.031.016-.03.018-.03.018-.028.019-.029.02-.027.021-.027.022-.026.023-.026.024-.024.024-.024.026-.023.026-.022.027-.021.027-.02.029-.019.028-.018.03-.018.03-.016.031-.015.031-.014.031-.013.032-.012.032-.011.033-.01.033-.009.034-.007.033-.006.034-.006.034-.004.034-.003.034-.001L9 0l.034.001zM9 4h3L9 1v3z"/></g><path d="M9.071.003l.071.007.071.013.069.018.067.022.066.027.064.032.062.037.058.04.056.045.052.049 3 3 .049.052.045.056.04.058.037.062.032.064.027.066.022.067.018.069.013.071.007.071L13 4v11l-.003.075-.008.074-.014.074-.019.072-.025.07-.03.069-.035.066-.04.063-.044.06-.049.057-.053.053-.057.049-.06.044-.063.04-.066.035-.069.03-.07.025-.072.019-.074.014-.074.008L12 16H1l-.075-.003-.074-.008-.074-.014-.072-.019-.07-.025-.069-.03-.066-.035-.063-.04-.06-.044-.057-.049-.053-.053-.049-.057-.044-.06-.04-.063-.035-.066-.03-.069-.025-.07-.019-.072-.014-.074-.008-.074L0 15V1L.003.925.011.851.025.777.044.705l.025-.07.03-.069L.134.5l.04-.063.044-.06L.267.32.32.267.377.218l.06-.044L.5.134.566.099l.069-.03.07-.025.072-.019.074-.014.074-.008L1 0h8l.071.003zM1 1v14h11V4L9 1H1z"/><path d="M8.119 15.936l4.011.025-.083-.979-.696-.7c7.08-4.676 1.51-10.274-3.254-7.902-.535-.237-.94 2.508.867 2.048 3.749-.954 4.27 1.637.764 4.22l-.658-.662H8.052l.067 3.95" fill="#fff" stroke="#000" stroke-width=".91" transform="matrix(1.09105 0 0 1.10238 -1.59 -.912)"/><defs><radialGradient id="_Radial1" cx="0" cy="0" r="1" gradientUnits="userSpaceOnUse" gradientTransform="matrix(4 12.1333 -10.9378 7.02734 2 1.933)"><stop offset="0" stop-color="#fff"/><stop offset=".36" stop-color="#fafcff"/><stop offset=".66" stop-color="#eaf2fd"/><stop offset="1" stop-color="#89b7f0"/></radialGradient></defs></svg>