<svg width="60" height="17" xmlns="http://www.w3.org/2000/svg" fill-rule="evenodd" clip-rule="evenodd" stroke-linejoin="round" stroke-miterlimit="2"><path d="M60 1v15l-1 1H1l-1-1V1l1-1h58l1 1zM1 1v15h58V1H1z" fill="#003bae"/><path fill="url(#_Linear1)" d="M1 1h58v15H1z"/><path d="M59 16H1V1h58v15zM2 2v13h56V2H2z" fill="#6e90c5" fill-opacity=".27"/><path d="M2 2h3v1H3v3H2V2z" fill="url(#_Linear2)"/><path d="M2 2h2v1H3v2H2V2z" fill="#fff"/><path d="M35.273 2.476V14.87h1.275V2.476h-1.275zm-7.606 4.6h4.628V2.933h-6.077v1.153h4.816V5.91h-4.413l-.725 4.266h5.259c0 1.422-.067 2.347-.201 2.776-.161.43-.725.658-1.69.658-.43 0-.873-.027-1.302-.067l.322 1.18c.43.027.845.054 1.275.054 1.529-.067 2.387-.483 2.575-1.248.188-.751.295-2.253.295-4.52h-5.178l.416-1.932z" fill="#fff" fill-rule="nonzero"/><path d="M36.601 1.939l.094.027.094.027.08.053.068.067.067.08.04.095.027.094.013.094v12.448l-.013.04-.014.054-.013.04-.013.054-.027.04-.027.04-.04.04-.027.028-.04.04-.04.027-.04.027-.055.013-.04.013-.054.014-.04.013H35.22l-.04-.013-.054-.014-.04-.013-.054-.013-.04-.027-.04-.027-.041-.04-.027-.027-.04-.04-.027-.04-.027-.04-.013-.055-.014-.04-.013-.053-.013-.04V2.421l.013-.04.013-.054.014-.04.013-.054.027-.04.027-.04.04-.04.027-.028.04-.04.04-.027.04-.026.054-.014.04-.013.054-.014.04-.013h1.382zm-4.252.456l.094.027.094.027.08.053.067.067.067.08.04.095.027.094.014.094V7.13l-.014.04-.013.054-.014.04-.013.054-.027.04-.027.04-.04.041-.027.027-.04.04-.04.027-.04.027-.054.013-.04.014-.054.013-.04.013h-4.253l-.187.859h4.52l.094.013.094.027.094.04.08.067.068.068.053.08.027.094.027.094v.469l-.014.403v.389l-.013.362-.013.349v.174l-.014.161v.161l-.013.148v.16l-.014.148-.013.134-.013.135v.134l-.014.134-.013.12-.014.121-.013.121-.014.12-.013.108-.013.107-.027.094-.014.094-.013.094-.027.094-.013.08-.014.094-.013.04-.013.054-.027.054-.014.04-.013.054-.027.053-.027.04-.013.054-.027.04-.027.04-.027.055-.027.04-.04.04-.027.04-.04.04-.027.04-.04.041-.027.04-.04.04-.04.027-.04.04-.04.027-.041.04-.04.027-.054.04-.04.028-.04.026-.054.027-.04.027-.054.027-.04.027-.054.027-.053.026-.054.014-.054.027-.04.013-.054.027-.053.013-.067.027-.054.013-.054.027-.053.014-.067.013-.054.014-.12.026-.122.027-.12.027-.135.027-.134.013-.134.014-.147.013-.135.014-.147.013-.161.013h-.188l-.16-.013h-.162l-.16-.013h-.162l-.174-.014-.309-.013-.053-.014-.054-.013-.054-.014-.04-.013-.04-.027-.054-.027-.04-.026-.027-.04-.04-.04-.027-.041-.027-.04-.013-.054-.014-.054-.322-1.18-.013-.04-.013-.054v-.054l.013-.053v-.04l.013-.054.027-.054.014-.04.027-.04.04-.054.027-.027.04-.04.04-.027.04-.027.054-.027.04-.013.054-.014.054-.013h.107l.308.027.322.027.309.013h.617l.067-.013h.067l.067-.014h.067l.054-.013.054-.014.053-.013.054-.013.04-.014h.04l.04-.013.04-.027.028-.013.04-.014.027-.013.027-.014.013-.013.027-.014h.013l.014-.013.013-.013v-.014l.013-.013.014-.014v-.013l.013-.013v-.027l.014-.04.013-.04v-.041l.014-.054.013-.053v-.054l.013-.054v-.067l.027-.134.014-.147.013-.161v-.161l.013-.188.014-.201v-.215l.013-.215v-.2h-4.775l-.04-.014-.054-.014-.04-.013-.054-.014-.04-.026-.04-.027-.04-.027-.028-.04-.04-.04-.027-.04-.013-.041-.027-.04-.013-.054-.014-.04-.013-.054v-.094l.013-.053.725-4.266.013-.04.013-.054.014-.04.027-.054.026-.04.027-.027.04-.04.04-.04.041-.027.04-.014.04-.027.054-.013.054-.013.04-.014h3.931v-.751h-4.333l-.04-.014-.054-.013-.04-.013-.054-.014-.04-.027-.04-.026-.04-.04-.028-.028-.04-.04-.027-.04-.027-.04-.013-.054-.013-.04-.014-.054-.013-.04V2.878l.013-.04.014-.054.013-.04.013-.054.027-.04.027-.04.04-.04.027-.027.04-.04.04-.027.04-.027.054-.014.04-.013.054-.014.04-.013h6.186zm2.924.08v12.396h1.275V2.476h-1.275zm-9.055.457v1.153h4.816V5.91h-4.413l-.725 4.266h5.259v.509l-.014.242v.442l-.013.202-.013.187-.014.175-.013.174-.014.148-.013.147-.013.067v.068l-.014.067-.013.053-.014.054v.054l-.013.053-.013.054-.014.04-.013.04-.014.04-.027.04-.013.041-.027.027-.027.04-.026.027-.027.04-.04.027-.027.027-.04.04-.04.027-.041.027-.04.013-.054.027-.054.027-.04.027-.067.013-.054.014-.053.026-.067.014-.054.013-.067.014-.067.013-.08.013-.068.014h-.08l-.067.013h-.08l-.095.014h-.577l-.16-.014h-.175l-.16-.013-.162-.014-.16-.013-.162-.013.322 1.18.483.027.309.013.322.014h.16l.148-.014h.134l.134-.013.121-.013.134-.014.121-.027.12-.013.108-.027.107-.013.108-.027.053-.014.054-.013.054-.013.04-.027.054-.014.04-.013.053-.014.04-.013.041-.027.04-.013.04-.027.04-.013.04-.014.041-.027.04-.026.04-.014.04-.027.028-.013.04-.027.027-.027.04-.027.027-.013.027-.027.027-.027.026-.027.027-.026.027-.027.027-.027.027-.027.027-.027.013-.027.027-.04.013-.027.027-.026.013-.027.014-.04.027-.027.013-.04.014-.027.013-.04.013-.027.014-.04v-.028l.013-.04.014-.067.026-.08.014-.08.013-.095.014-.08.013-.094.013-.107.014-.108.013-.107.014-.107.013-.121.014-.12.013-.122.013-.134.014-.134v-.134l.013-.148.014-.147v-.148l.013-.16v-.162l.013-.16.014-.35v-.362l.013-.375v-.819h-5.178l.416-1.931h4.628V2.932h-6.077z" fill="#003bae"/><path d="M43.731 7.345h3.085v2.052h-3.085V7.345zm-.067 3.233h3.152v3.823h1.288v-3.823h3.327v1.999c0 .523-.228.791-.657.791-.456 0-.94-.027-1.462-.067l.335 1.248h1.543c1.02 0 1.542-.51 1.542-1.516V2.932H42.443v6.573c-.027 1.77-.442 3.233-1.247 4.386l.979.872c.832-1.1 1.328-2.495 1.489-4.185zm7.767-1.18h-3.327V7.344h3.327v2.052zm0-3.22h-3.327V4.166h3.327v2.012zm-4.615-2.012v2.012h-3.085V4.166h3.085z" fill="#fff" fill-rule="nonzero"/><path d="M52.786 2.395l.094.027.094.027.08.053.067.067.067.08.04.095.028.094.013.094V13.14l-.013.054v.161l-.014.053v.054l-.013.054-.014.053-.013.054v.04l-.014.054-.013.054-.013.053-.027.04-.014.054-.013.04-.027.054-.013.04-.027.054-.027.04-.027.04-.013.054-.027.04-.04.04-.027.04-.027.041-.027.04-.04.04-.04.027-.027.04-.04.041-.04.027-.04.04-.041.027-.04.027-.04.027-.04.026-.041.027-.04.027-.054.027-.04.027-.04.013-.054.027-.04.013-.054.014-.054.027-.04.013-.054.013-.053.014-.04.013-.054.014h-.054l-.053.013-.054.013h-.054l-.053.014h-.161l-.054.013h-1.704l-.04-.013-.054-.014-.053-.013-.04-.027-.04-.013-.041-.027-.04-.04-.04-.027-.027-.04-.027-.04-.027-.054-.013-.04-.014-.054-.335-1.248-.014-.04-.013-.054v-.093l.013-.054.014-.04.013-.04.014-.054.026-.04.027-.04.04-.041.027-.027.04-.04.04-.027.041-.013.04-.027.054-.014.04-.013.054-.013h.094l.375.026.363.027.348.014h.416v-.014l.014-.013v-.014l.013-.013v-.054l.014-.026v-1.583H48.64v3.34l-.014.04-.013.054-.013.04-.014.054-.027.04-.026.04-.04.04-.028.027-.04.04-.04.027-.04.027-.054.014-.04.013-.054.013-.04.014h-1.395l-.04-.014-.054-.013-.04-.013-.054-.014-.04-.027-.04-.027-.04-.04-.028-.027-.04-.04-.027-.04-.026-.04-.014-.054-.013-.04-.014-.054-.013-.04v-3.34h-2.146l-.014.16-.027.162-.027.16-.026.148-.04.161-.027.148-.04.147-.04.148-.041.147-.04.148-.04.147-.054.135-.04.147-.054.134-.054.134-.054.135-.053.134-.067.134-.054.134-.067.134-.067.12-.067.122-.067.134-.08.12-.068.121-.08.108-.08.12-.081.121-.08.107-.028.04-.04.027-.04.027-.04.04-.04.014-.04.027-.054.013-.04.014-.054.013h-.094l-.054-.013-.04-.014-.054-.013-.04-.014-.054-.027-.04-.026-.027-.027-.98-.872-.04-.04-.026-.04-.027-.027-.027-.054-.027-.04-.013-.04-.013-.054v-.04l-.014-.054v-.04l.014-.054v-.04l.013-.054.027-.04.013-.04.027-.04.067-.108.067-.107.067-.094.067-.108.054-.107.054-.107.067-.108.053-.12.04-.108.054-.12.054-.108.04-.12.04-.121.04-.12.04-.135.041-.12.04-.135.027-.12.027-.135.04-.134.027-.134.014-.148.026-.134.027-.147.014-.134.013-.148.013-.148.014-.147.013-.161.014-.148V2.878l.013-.04.014-.054.013-.04.013-.054.027-.04.027-.04.04-.04.027-.027.04-.04.04-.027.04-.027.054-.014.04-.013.054-.014.04-.013h10.397zm-10.343.537v6.733l-.013.162V10l-.014.148-.013.16-.013.162-.014.147-.027.161-.026.148-.014.147-.027.148-.027.147-.04.135-.027.147-.04.134-.04.148-.04.134-.04.134-.04.134-.054.134-.04.121-.054.134-.054.121-.054.12-.067.122-.053.12-.068.121-.067.12-.067.108-.067.12-.067.108-.08.107.979.872.08-.107.068-.107.08-.108.067-.107.067-.107.067-.108.067-.12.067-.121.054-.107.067-.121.054-.12.053-.135.054-.12.054-.121.053-.135.04-.12.054-.134.04-.135.04-.134.041-.147.04-.134.027-.135.04-.147.027-.148.04-.134.027-.147.027-.161.014-.148.026-.147.014-.161.027-.148.013-.161h3.152V14.4h1.288v-3.823h3.327v2.132l-.013.055v.04l-.014.04v.04l-.013.04-.014.027-.013.04-.013.027-.014.04-.013.028-.027.026-.013.027-.027.027-.014.027-.027.027-.026.013-.014.027-.027.013-.026.014-.04.013-.028.014-.026.013-.04.013-.027.014h-.067l-.04.013h-.43l-.174-.013h-.188l-.175-.014-.187-.013-.202-.013-.187-.014.335 1.248h1.73l.04-.014h.095l.04-.013h.04l.04-.014h.04l.04-.013.041-.013h.04l.027-.014.04-.013.04-.014.027-.013.04-.013.028-.014.04-.013.027-.014.04-.026.027-.014.027-.013.026-.027.027-.014.027-.026.027-.014.027-.027.026-.026.027-.014.027-.027.014-.027.026-.026.027-.027.014-.027.026-.027.014-.027.027-.027.013-.04.014-.027.013-.026.027-.04.013-.027.014-.04.013-.028.013-.04.014-.027v-.04l.013-.04.014-.04.013-.04v-.04l.014-.041v-.04l.013-.04v-.081l.013-.04V2.932H42.443zm4.373 6.465h-3.085V7.345h3.085v2.052zm4.615 0h-3.327V7.345h3.327v2.052zm-7.163-1.515v.979h2.012v-.98h-2.012zm4.373 0v.979h2.254v-.98H48.64zm2.79-1.704h-3.327V4.166h3.327v2.012zm-4.615 0h-3.085V4.166h3.085v2.012zm1.825-1.476v.94h2.254v-.94H48.64zm-4.373 0v.94h2.012v-.94h-2.012z" fill="#003bae"/><g><path d="M10 3v11h8V5l-2-2h-6z" fill="#fff"/><clipPath id="a"><path d="M10 3v11h8V5l-2-2h-6z"/></clipPath><g clip-path="url(#a)"><path d="M15 4h-1v3h3V6h-2V4z" fill="#2c68cc"/></g><path d="M7 7h6l1 1v7H7V7" fill="#fff"/><clipPath id="b"><path d="M7 7h6l1 1v7H7V7"/></clipPath><g clip-path="url(#b)"><path d="M8 8v6h5V9l-1-1H8zm2 1h1l1 1v1h-2" fill="#2c68cc"/></g></g><defs><linearGradient id="_Linear1" x1="0" y1="0" x2="1" y2="0" gradientUnits="userSpaceOnUse" gradientTransform="matrix(58 0 0 15 1 8.5)"><stop offset="0" stop-color="#6b8dc4"/><stop offset=".43" stop-color="#87a3cf"/><stop offset=".89" stop-color="#d5dfee"/><stop offset=".96" stop-color="#c5d3e8"/><stop offset=".98" stop-color="#9bb3d7"/><stop offset="1" stop-color="#6b8dc4"/></linearGradient><linearGradient id="_Linear2" x1="0" y1="0" x2="1" y2="0" gradientUnits="userSpaceOnUse" gradientTransform="matrix(0 -2 2.66667 0 3 5)"><stop offset="0" stop-color="#b3c4e0"/><stop offset="1" stop-color="#a1b7d9"/></linearGradient></defs></svg>