<svg width="60" height="17" xmlns="http://www.w3.org/2000/svg" fill-rule="evenodd" clip-rule="evenodd" stroke-linejoin="round" stroke-miterlimit="2"><path d="M60 1v15l-1 1H1l-1-1V1l1-1h58l1 1zM1 1v15h58V1H1z" fill="#003bae"/><path fill="url(#_Linear1)" d="M1 1h58v15H1z"/><path d="M59 16H1V1h58v15zM2 2v13h56V2H2z" fill="#6e90c5" fill-opacity=".27"/><path d="M2 2h3v1H3v3H2V2z" fill="url(#_Linear2)"/><path d="M2 2h2v1H3v2H2V2z" fill="#fff"/><g><path d="M29.102 6.165v4.963h5.366V6.165h-5.366zm4.159 3.903h-2.978v-2.83h2.978v2.83zm4.011-6.841h-11v11.375h1.234v-.47h8.532v.47h1.234V3.227zm-9.766 9.779V4.354h8.532v8.652h-8.532z" fill="#fff" fill-rule="nonzero"/><path d="M37.312 2.69l.094.027.094.027.08.04.068.067.067.067.04.08.027.095.027.093V14.642l-.014.054-.013.04-.014.054-.013.04-.027.04-.013.04-.04.041-.027.027-.027.027-.04.04-.04.013-.041.027-.04.014-.054.013-.04.014-.054.013h-1.314l-.054-.013-.04-.014-.054-.013-.04-.014-.04-.027-.04-.013-.04-.04-.028-.027-.027-.027-.04-.04-.013-.04-.027-.04-.014-.04-.013-.054-.013-.04v-.028h-7.486v.027l-.013.04-.014.054-.013.04-.027.04-.013.04-.04.041-.027.027-.027.027-.04.04-.04.013-.04.027-.041.014-.054.013-.04.014-.054.013h-1.314l-.054-.013-.04-.014-.054-.013-.04-.014-.04-.027-.04-.013-.04-.04-.028-.027-.026-.027-.04-.04-.014-.04-.027-.04-.013-.04-.014-.054-.013-.04-.014-.054V3.187l.014-.054.013-.04.014-.054.013-.04.027-.04.013-.04.04-.041.027-.027.027-.027.04-.04.04-.013.04-.027.041-.014.054-.013.04-.013.054-.014H37.312zm-11.04.537v11.375h1.234v-.47h8.532v.47h1.234V3.227h-11zm9.766 9.779h-8.532V4.354h8.532v8.652zM28.043 4.89v7.58H35.5V4.89h-7.458zm6.466.738l.093.027.094.027.08.04.068.067.067.067.04.08.027.094.027.094V11.168l-.014.054-.013.04-.013.054-.014.04-.027.04-.013.04-.04.04-.027.028-.027.026-.04.04-.04.014-.04.027-.04.013-.055.014-.04.013-.053.014h-5.447l-.053-.014-.04-.013-.054-.014-.04-.013-.04-.027-.041-.013-.04-.04-.027-.027-.027-.027-.04-.04-.014-.04-.026-.041-.014-.04-.013-.054-.014-.04-.013-.054V6.125l.013-.054.014-.04.013-.054.014-.04.026-.04.014-.041.04-.04.027-.027.027-.027.04-.04.04-.014.04-.026.04-.014.054-.013.04-.014.054-.013h5.446zm-5.407.537v4.963h5.366V6.165h-5.366zm4.159 3.903h-2.978v-2.83h2.978v2.83zM30.82 7.774v1.758h1.904V7.774H30.82z" fill="#003bae"/><g><path d="M47.796 11.195a4.749 4.749 0 01-.98.657 4.39 4.39 0 01-.321-.362l-.792.228c.094.161.215.322.349.497-.309.12-.658.241-1.033.362l.496.818c.416-.16.805-.322 1.18-.496.296.268.631.51 1.02.724a21.65 21.65 0 01-2.897.282l.429.952c1.502-.08 2.804-.295 3.904-.617 1.1.349 2.441.537 3.997.564l.403-.926a18.505 18.505 0 01-2.871-.241 5.69 5.69 0 001.717-1.302v-.67h-3.85c.148-.148.282-.309.402-.47h3.367V8.297h-5.768l.403-.482h5.956V7.01H47.46c.08-.161.148-.322.228-.483h4.763V4.219h-2.978v-.536h3.675V2.73h-11.47v.953h3.663v.536h-2.965v2.308h4.159c-.349.71-.912 1.328-1.69 1.851l.63.832c.201-.134.402-.295.59-.456v2.441h1.73zm1.408 2.066a6.968 6.968 0 01-1.677-.818l.027-.014h3.354c-.456.322-1.033.604-1.704.832zm-.899-9.042h-1.797v-.536h1.797v.536zm2.965 1.543h-1.797v-.738h1.797v.738zm-2.965 0h-1.797v-.738h1.797v.738zm-2.964 0h-1.784v-.738h1.784v.738zm5.849 4.736h-4.025v-.47h4.025v.47zm-4.025-1.06v-.456h4.025v.456h-4.025zM44.107 6.54c-.537.765-1.382 1.436-2.522 2.012l.335 1.074c1.476-.792 2.522-1.677 3.14-2.643l-.953-.443zm.094 2.334c-.59.94-1.503 1.771-2.737 2.482l.335 1.1c.43-.241.819-.496 1.18-.765v3.207h1.155v-4.186c.429-.43.778-.885 1.073-1.368l-1.006-.47z" fill="#fff" fill-rule="nonzero"/><path d="M53.202 2.194l.094.027.094.026.08.054.067.067.067.08.04.095.027.093.014.094v1.006l-.014.04-.013.054-.013.04-.014.054-.027.04-.027.04-.04.041-.027.027-.04.04-.04.027-.04.027-.054.013-.04.014-.054.013-.04.013h-.214v2.268l.066.013.094.027.08.053.068.067.067.081.04.094.027.094.013.094V7.868l-.013.04-.014.054-.013.04-.013.054-.027.04-.027.04-.04.04-.027.028-.04.04-.04.027-.04.026-.054.014-.04.013-.054.014-.04.013h-.108V11.25l-.013.04-.014.054.054.08.027.094.027.094V12.389l-.014.04-.013.054-.014.04-.013.054-.027.04-.027.04-.04.04-.08.094-.108.108-.04.053-.054.04-.053.054-.054.054-.054.04-.053.054-.054.04-.054.054.255.013.376.027.362.013h.389l.094.014.094.027.094.053.08.054.054.08.054.081.04.094.013.107v.04l-.013.054V14l-.014.04-.026.054-.403.925-.013.04-.027.04-.027.041-.04.04-.027.027-.04.027-.04.027-.04.027-.054.013-.04.027h-.054l-.04.013H52.986l-.147-.013h-.148l-.147-.014h-.135l-.147-.013h-.134l-.148-.013-.134-.014-.148-.013-.134-.014-.134-.013-.134-.014-.134-.013-.134-.013-.121-.027-.134-.014-.12-.026-.135-.014-.12-.027-.135-.013-.12-.027-.121-.027-.121-.027-.12-.026-.108-.027-.12-.027-.122-.027-.107-.04-.12-.027-.054-.027-.067.027-.108.027-.12.027-.108.027-.107.026-.12.027-.122.027-.107.027-.12.027-.121.026-.121.027-.12.014-.122.027-.134.013-.12.027-.121.013-.134.027-.121.013-.134.027-.134.014-.135.013-.134.014-.134.013-.134.013-.134.014-.134.013-.148.014-.134.013h-.148l-.134.013-.147.014h-.04l-.054-.014h-.054l-.04-.013-.054-.013-.04-.027-.04-.027-.04-.027-.04-.04-.028-.027-.04-.04-.027-.04-.013-.054-.094-.201v.08l-.013.04-.014.054-.013.04-.014.054-.026.04-.027.04-.04.04-.027.028-.04.04-.04.027-.041.026-.054.014-.04.013-.054.014-.04.013h-1.261l-.04-.013-.054-.014-.04-.013-.054-.014-.04-.026-.04-.027-.04-.04-.027-.027-.04-.04-.027-.04-.027-.041-.013-.054-.014-.04-.013-.054-.014-.04v-2.253l-.053.026-.161.108-.161.08-.054.027-.04.027-.054.013h-.04l-.054.014h-.053l-.054-.014h-.04l-.054-.013-.04-.027-.054-.013-.04-.027-.04-.04-.04-.027-.027-.04-.027-.04-.027-.041-.027-.054-.013-.04-.336-1.1-.013-.054v-.04l-.014-.054v-.04l.014-.053v-.04l.013-.054.027-.04.013-.04.027-.041.027-.04.04-.04.027-.027.04-.027.04-.027.108-.067.107-.067.108-.067.107-.067.094-.067.107-.067.094-.068.094-.067.094-.067.094-.067.094-.067.08-.067.094-.08.08-.067.081-.068.08-.08.054-.04-.04.027-.134.08-.134.067-.148.08-.134.081-.04.027-.054.013-.04.014h-.054l-.053.013h-.04l-.054-.013h-.054l-.04-.027-.054-.014-.04-.026-.04-.027-.04-.027-.04-.027-.028-.04-.027-.04-.026-.04-.027-.054-.014-.04-.335-1.074-.013-.053v-.04l-.014-.054v-.054l.014-.04.013-.054.013-.053.014-.04.027-.04.026-.041.027-.04.04-.04.04-.027.041-.04.04-.014.108-.054.093-.053.094-.054.094-.054.094-.053.094-.054.094-.054.08-.053.094-.054.08-.054.081-.067.08-.053.081-.054.08-.054.081-.067.067-.054.067-.053.081-.067.027-.014H42.323l-.04-.013-.054-.013-.04-.014-.054-.013-.04-.027-.04-.027-.041-.04-.027-.027-.04-.04-.027-.04-.027-.04-.013-.054-.014-.04-.013-.054-.013-.04V4.218h-.215l-.04-.013-.054-.013-.04-.014-.054-.013-.04-.027-.04-.027-.04-.04-.027-.027-.04-.04-.027-.04-.027-.04-.014-.054-.013-.04-.014-.054-.013-.04V2.676l.013-.04.014-.054.013-.04.014-.054.027-.04.026-.04.04-.04.027-.028.04-.04.04-.027.041-.027.054-.013.04-.013.054-.014.04-.013H53.202zm-9.055 6.774l-.067.08-.054.081-.067.094-.054.08-.067.094-.067.081-.067.08-.08.081-.067.08-.08.08-.081.081-.08.08-.081.081-.08.08-.081.081-.08.08-.095.068-.094.08-.093.08-.094.068-.094.08-.094.068-.107.08-.094.067-.108.067-.107.08-.107.068-.108.067-.107.067-.107.067-.121.067.335 1.1.161-.094.148-.094.16-.094.148-.094.148-.093.134-.094.148-.108.134-.094v3.207h1.154v-4.186l.08-.08.08-.08.068-.081.08-.08.067-.095.08-.08.068-.08.067-.081.067-.094.053-.08.068-.094.067-.081.053-.094.067-.094.054-.08.054-.094-1.006-.47-.054.094zM41.679 2.73v.953h3.662v.536h-2.965v2.308h4.159l-.027.067-.04.067-.04.067-.027.067-.04.054-.04.067-.041.067-.054.054-.04.067-.04.067-.04.053-.054.067-.054.054-.04.067-.054.054-.053.053-.054.068-.054.053-.053.054-.067.053-.054.054-.054.054-.067.053-.067.054-.054.054-.067.053-.067.054-.067.054-.067.053-.067.054-.08.04-.068.054.631.832.08-.054.068-.054.08-.053.067-.054.08-.067.068-.054.08-.067.067-.053v2.441h1.73l-.04.04-.053.04-.054.04-.053.041-.054.04-.054.04-.053.04-.068.054-.053.04-.067.04-.067.041-.067.04-.067.04-.081.04-.067.041-.08.04-.04-.04-.041-.04-.04-.04-.04-.054-.04-.04-.041-.054-.04-.04-.04-.054-.792.228.08.121.121.188.148.188-.12.04-.122.053-.12.04-.135.041-.12.054-.134.04-.148.054-.134.04.496.818.161-.067.148-.054.147-.067.148-.053.147-.067.148-.054.134-.067.148-.067.174.147.175.148.187.134.202.134.214.12.067.041-.16.027-.162.027-.16.027-.175.026-.174.014-.175.027-.174.013-.175.014-.187.026-.188.014-.188.013-.188.014-.188.013-.2.013h-.202l-.201.014.429.952.134-.013h.148l.134-.014.134-.013.134-.013h.134l.134-.014.135-.013.134-.014.134-.013.12-.027.135-.013.12-.014.121-.013.134-.027.121-.013.12-.027.122-.014.12-.026.108-.014.12-.027.121-.027.107-.026.121-.027.107-.014.108-.026.107-.027.12-.027.108-.027.094-.04.107-.027.108-.027.214.067.215.054.215.054.228.053.228.054.241.04.242.04.241.04.255.027.255.04.268.028.268.013.269.027.281.013h.282l.295.014.403-.926h-.202l-.187-.013h-.188l-.188-.014h-.188l-.188-.013-.187-.014-.175-.013-.188-.013-.174-.027-.174-.014-.175-.027-.16-.013-.175-.027-.161-.027-.161-.026.067-.027.067-.04.054-.027.067-.04.067-.04.053-.028.068-.04.053-.04.067-.04.054-.027.054-.04.053-.04.067-.041.054-.04.054-.04.053-.04.054-.041.054-.04.04-.04.054-.04.053-.054.054-.04.04-.04.054-.041.053-.054.04-.04.04-.054.055-.04.093-.094.081-.094v-.67h-3.85l.054-.054.053-.054.054-.067.054-.053.04-.068.053-.053.054-.067.04-.054h3.367V8.297h-5.768l.403-.482h5.956V7.01H47.46l.027-.054.027-.067.12-.242.028-.067.026-.053h4.763V4.219h-2.978v-.536h3.675V2.73h-11.47zm2.991 10.665l.027-.013h.054l.04-.014h.08l-.2-.349v.376zm6.157-.912l-.093.067-.094.054-.094.053-.094.067-.107.054-.108.054-.094.053-.12.04-.108.054-.107.054-.12.054-.122.04-.12.04-.121.054-.12.04-.121-.04-.121-.04-.108-.054-.12-.04-.108-.04-.107-.054-.107-.054-.108-.04-.107-.054-.094-.054-.107-.053-.094-.067-.094-.054-.094-.054-.094-.067-.094-.053.027-.014h3.354l-.08.054zm-5.352-2.576l-.067.094-.054.094-.067.094-.08.094-.067.094-.067.094-.08.094-.068.08-.08.094-.081.094-.08.08-.014.014v1.247l.014-.013.04-.027.04-.027.04-.013.054-.027.134-.04.134-.04.094-.04-.013-.041-.014-.04-.013-.054-.014-.054v-.093l.014-.054.013-.04.014-.054.013-.04.027-.04.027-.04.04-.041.027-.027.04-.04.04-.027.04-.027.054-.013.014-.014V9.827l-.054.08zm5.715.59h-4.025v-.469h4.025v.47zm-7.137-3.89l-.054.08-.053.068-.054.067-.054.067-.067.067-.067.067-.053.067-.067.067-.068.067-.067.067-.08.067-.067.068-.08.067-.068.067-.08.053-.08.067-.081.067-.08.054-.095.067-.08.054-.094.067-.094.054-.08.053-.094.067-.108.054-.094.054-.093.067-.108.053-.094.054-.107.054-.107.053.335 1.074.134-.08.134-.068.135-.08.134-.068.12-.08.121-.08.134-.081.108-.08.12-.068.121-.08.107-.08.108-.081.107-.08.107-.081.108-.08.094-.094.093-.08.094-.081.094-.08.094-.095.08-.08.081-.08.094-.095.067-.08.08-.094.081-.08.067-.094.067-.08.067-.095.067-.094.067-.08.054-.094-.952-.443-.054.067zm7.137 2.83h-4.025v-.455h4.025v.456zm.08-3.675h-1.797v-.738h1.797v.738zm-2.965 0h-1.797v-.738h1.797v.738zm-2.964 0h-1.784v-.738h1.784v.738zm2.964-1.543h-1.797v-.536h1.797v.536z" fill="#003bae"/></g></g><g><path d="M10 3v11h8V5l-2-2h-6z" fill="#fff"/><path d="M12.042 6.377l4.062-1.223 1.223 4.063-1.762-.947c-1 3.367-3.607 4.89-7.312 5.153 3.21-1.338 5.448-3.173 5.55-6.1l-1.761-.946z" fill="#2c68cc"/></g><defs><linearGradient id="_Linear1" x1="0" y1="0" x2="1" y2="0" gradientUnits="userSpaceOnUse" gradientTransform="matrix(58 0 0 15 1 8.5)"><stop offset="0" stop-color="#6b8dc4"/><stop offset=".43" stop-color="#87a3cf"/><stop offset=".89" stop-color="#d5dfee"/><stop offset=".96" stop-color="#c5d3e8"/><stop offset=".98" stop-color="#9bb3d7"/><stop offset="1" stop-color="#6b8dc4"/></linearGradient><linearGradient id="_Linear2" x1="0" y1="0" x2="1" y2="0" gradientUnits="userSpaceOnUse" gradientTransform="matrix(0 -2 2.66667 0 3 5)"><stop offset="0" stop-color="#b3c4e0"/><stop offset="1" stop-color="#a1b7d9"/></linearGradient></defs></svg>