<svg width="21" height="17" xmlns="http://www.w3.org/2000/svg" fill-rule="evenodd" clip-rule="evenodd" stroke-linejoin="round" stroke-miterlimit="2"><g transform="translate(1 2)"><path d="M2 1L1 2v11h16l1-1V1H2z" fill="url(#_Linear1)"/><clipPath id="a"><path d="M2 1L1 2v11h16l1-1V1H2z"/></clipPath><g clip-path="url(#a)"><path d="M2 15h1V4h15v11h1V3H2v12z" fill="url(#_Linear3)" transform="translate(-1 -2)"/></g><path d="M18.078.003l.078.009.077.016.076.021.074.027.071.033.068.038.066.044.061.049.058.053.053.058.049.061.044.066.038.068.033.071.027.074.021.076.016.077.009.078L19 1v11l-.003.078-.009.078-.016.077-.021.076-.027.074-.033.071-.038.068-.044.066-.049.061-.053.058-1 1-.058.053-.061.049-.066.044-.068.038-.071.033-.074.027-.076.021-.077.016-.078.009L17 14H1l-.078-.003-.078-.009-.077-.016-.076-.021-.074-.027-.071-.033-.068-.038-.066-.044-.061-.049-.058-.053-.053-.058-.049-.061-.044-.066-.038-.068-.033-.071-.027-.074-.021-.076-.016-.077-.009-.078L0 13V2l.003-.078.009-.078.016-.077.021-.076.027-.074.033-.071.038-.068.044-.066.049-.061.053-.058 1-1L1.351.24l.061-.049.066-.044.068-.038.071-.033.074-.027.076-.021.077-.016.078-.009L2 0h16l.078.003zM2 1L1 2v11h16l1-1V1H2z"/></g><path d="M9.707 9.16L9 5.175V1h2.865v4.176l-.668 3.983h-1.49zm-.604 3.676v-2.634h2.66v2.634h-2.66z" fill="#fff" fill-rule="nonzero" stroke="#000"/><defs><linearGradient id="_Linear1" x1="0" y1="0" x2="1" y2="0" gradientUnits="userSpaceOnUse" gradientTransform="matrix(0 -10.9091 8.31111 0 8.933 13)"><stop offset="0" stop-color="#3a588b"/><stop offset="1" stop-color="#97b5e8"/></linearGradient><linearGradient id="_Linear3" x1="0" y1="0" x2="1" y2="0" gradientUnits="userSpaceOnUse" gradientTransform="matrix(0 12 -8.47059 0 11 3)"><stop offset="0" stop-color="#aec6ed"/><stop offset=".57" stop-color="#97b1da"/><stop offset=".79" stop-color="#6884b2"/><stop offset="1" stop-color="#3c5a8d"/></linearGradient></defs></svg>