<svg width="21" height="17" xmlns="http://www.w3.org/2000/svg" fill-rule="evenodd" clip-rule="evenodd" stroke-linejoin="round" stroke-miterlimit="2"><g transform="translate(1 2)"><path d="M2 1L1 2v11h16l1-1V1H2z" fill="url(#_Linear1)"/><clipPath id="a"><path d="M2 1L1 2v11h16l1-1V1H2z"/></clipPath><g clip-path="url(#a)"><path d="M2 15h1V4h15v11h1V3H2v12z" fill="url(#_Linear3)" transform="translate(-1 -2)"/></g><path d="M18.078.003l.078.009.077.016.076.021.074.027.071.033.068.038.066.044.061.049.058.053.053.058.049.061.044.066.038.068.033.071.027.074.021.076.016.077.009.078L19 1v11l-.003.078-.009.078-.016.077-.021.076-.027.074-.033.071-.038.068-.044.066-.049.061-.053.058-1 1-.058.053-.061.049-.066.044-.068.038-.071.033-.074.027-.076.021-.077.016-.078.009L17 14H1l-.078-.003-.078-.009-.077-.016-.076-.021-.074-.027-.071-.033-.068-.038-.066-.044-.061-.049-.058-.053-.053-.058-.049-.061-.044-.066-.038-.068-.033-.071-.027-.074-.021-.076-.016-.077-.009-.078L0 13V2l.003-.078.009-.078.016-.077.021-.076.027-.074.033-.071.038-.068.044-.066.049-.061.053-.058 1-1L1.351.24l.061-.049.066-.044.068-.038.071-.033.074-.027.076-.021.077-.016.078-.009L2 0h16l.078.003zM2 1L1 2v11h16l1-1V1H2z"/></g><path d="M10 7.832L10.832 7l2.64 2.668L16.138 7l.861.832-2.668 2.668L17 13.14l-.86.86-2.669-2.668L10.832 14 10 13.14l2.668-2.64L10 7.832z" fill="#fff" fill-rule="nonzero"/><path d="M10.887 6.001l.053.005.052.007.051.01.051.012.05.015.05.018.049.02.047.023.046.025.044.028.044.03.041.032.04.034.038.037 1.932 1.953 1.957-1.957.038-.036.04-.033.04-.032.043-.03.044-.027.045-.024.047-.023.048-.02.049-.017.05-.016.05-.012.05-.01.051-.007.052-.004.052-.002h.052l.051.005.052.006.05.009.051.011.05.014.05.017.047.02.047.02.046.025.045.026.043.03.041.03.04.033.038.035.861.832.036.036.034.039.032.04.03.041.028.043.025.045.023.046.02.046.02.048.015.049.014.05.01.05.009.05.005.05.003.052v.051l-.001.051-.005.051-.008.05-.01.051-.012.05-.015.049-.018.048-.02.047-.022.046-.025.045-.027.043-.029.043-.031.04-.034.039-.035.037-1.957 1.957 1.953 1.932.037.038.034.04.032.042.03.043.028.044.025.046.023.048.02.048.018.05.015.05.012.051.01.052.007.052.005.052.001.053-.001.052-.004.052-.007.053-.01.051-.012.051-.014.05-.018.05-.02.049-.022.047-.025.047-.028.044-.03.044-.032.041-.034.04-.036.039-.86.86-.038.036-.04.034-.042.032-.043.03-.045.027-.046.025-.047.023-.048.02-.05.017-.05.015-.05.012-.052.01-.052.007-.052.004-.053.001-.052-.001-.052-.004-.052-.007-.051-.01-.051-.012-.05-.015-.05-.017-.048-.02-.048-.023-.046-.025-.044-.027-.043-.03-.042-.032-.04-.034-.038-.036-1.957-1.957-1.932 1.953-.037.036-.039.033-.04.032-.043.03-.043.027-.045.025-.046.023-.047.02-.049.018-.049.015-.05.013-.05.01-.05.008-.052.005-.051.002H10.8l-.052-.003-.05-.006-.052-.008-.05-.011-.05-.013-.048-.016-.048-.018-.047-.021-.046-.024-.045-.025-.043-.028-.042-.03-.04-.032-.038-.034-.037-.036-.832-.86-.035-.039-.033-.04-.031-.042-.029-.043-.026-.045-.025-.046-.021-.047-.02-.048-.016-.05-.014-.05-.012-.05-.009-.051-.006-.052L9 13.18v-.104l.006-.052.007-.051.01-.051.012-.05.016-.05.017-.049.02-.048.024-.047.025-.045.027-.044.03-.043.032-.04.034-.04.036-.038 1.953-1.932L9.293 8.54l-.036-.038-.034-.04-.032-.041-.03-.043-.027-.045-.025-.046-.023-.047-.02-.049-.017-.05-.015-.05-.012-.05-.01-.052-.006-.051L9 7.884V7.78l.005-.053.006-.052.01-.05.012-.052.015-.05.017-.05.02-.048.023-.047.025-.046.027-.045.03-.043.032-.041.034-.04.036-.038.832-.832.038-.036.04-.034.042-.032.043-.03.045-.028.046-.024.047-.023.049-.02.05-.018.05-.014.051-.013.052-.009.052-.007.052-.004h.105zm2.584 3.667L10.832 7 10 7.832l2.668 2.668L10 13.14l.832.86 2.64-2.668L16.138 14l.861-.86-2.668-2.64L17 7.832 16.14 7l-2.67 2.668z"/><path d="M6.656 9A27.818 27.818 0 005.63 7.698l-.38-.437-.288-.322A10.62 10.62 0 003 5.163c.388-.235.75-.353 1.085-.353.411 0 .778.11 1.099.332.32.222.725.643 1.214 1.265A18.934 18.934 0 018.517 2.64c.474-.646.896-1.081 1.267-1.304.371-.223.863-.335 1.476-.335.326 0 .728.037 1.207.11-1.23.728-2.215 1.592-2.952 2.594-.737 1-1.69 2.766-2.859 5.296z" fill="#ebf1ff" fill-rule="nonzero"/><path d="M11.336 0l.077.002.078.003.079.003.08.005.083.005.164.014.172.017.178.021.183.024.183.027.06.011.06.015.059.018.057.022.056.025.054.028.053.032.05.035.049.038.045.041.044.044.04.046.037.049.035.05.031.053.028.055.025.056.02.058.018.059.014.06.01.06.007.061.002.062-.001.06-.005.062-.009.06-.012.061-.016.06-.02.057-.023.057-.026.056-.03.053-.034.052-.036.05-.04.047-.041.044-.045.042-.047.04-.05.036-.051.033-.11.066-.104.063-.103.065-.1.065-.1.065-.098.067-.097.066-.095.068-.094.068-.092.069-.09.069-.09.07-.087.07-.087.072-.085.071-.083.073-.082.073-.08.073-.08.074-.078.075-.076.076-.075.076-.074.076-.072.077-.07.078-.07.079-.068.079-.067.08-.065.08-.065.08-.062.082-.062.083-.062.085-.063.09-.066.096-.068.1-.069.105-.07.11L9.848 5l-.074.12-.076.125-.077.13-.079.135-.08.14-.082.144-.083.149-.085.153-.086.159-.087.163-.09.168-.09.172-.091.177-.093.182-.095.186-.095.191-.097.196-.099.2-.1.205-.1.21-.103.213-.104.219-.105.223-.215.463-.027.054-.03.052-.034.05-.037.049-.04.046-.041.043-.045.041-.047.038-.049.036-.051.032-.053.029-.055.026-.056.022-.058.019-.058.015-.06.012-.06.008-.06.005h-.06l-.06-.002-.061-.006-.06-.01-.059-.014-.058-.017-.057-.02-.055-.024-.054-.028-.052-.03-.05-.034-.049-.037-.046-.039-.043-.042-.04-.045-.039-.047-.16-.212-.15-.196-.14-.18-.129-.165-.118-.149-.108-.133-.097-.117-.086-.102-.373-.428-.284-.318-.115-.129-.109-.12-.11-.116-.11-.114-.11-.111-.11-.108-.11-.105-.111-.102-.111-.099-.111-.096-.112-.093-.112-.09-.112-.088-.112-.085-.113-.081-.12-.085-.048-.036-.046-.039-.044-.042-.041-.044-.039-.047-.035-.049-.033-.05-.029-.054-.026-.054-.023-.056-.02-.058-.015-.058-.012-.06-.009-.06L2 5.216v-.061l.002-.06.006-.06.01-.06.013-.06.017-.058.02-.057.024-.055.027-.055.03-.052.034-.05.036-.049.04-.046.041-.044.044-.04.047-.04.05-.034.05-.033.084-.049.094-.052.095-.05.096-.047.097-.044.097-.04.099-.038.1-.035.1-.03.102-.028.103-.023.104-.02.105-.015.105-.012.106-.007.104-.002.113.002.11.006.111.01.11.013.109.017.108.022.108.026.107.03.105.034.104.038.102.042.1.046.1.05.096.054.094.058.092.06.09.065.089.068.087.072.086.074.025.023.007-.013.066-.126.066-.126.068-.125.068-.124.07-.125.07-.123.07-.124.073-.122.073-.123.073-.122.075-.122.076-.12.077-.121.077-.12.079-.12.079-.12.08-.119.082-.118.082-.118.083-.118.087-.122.098-.131.095-.125.096-.121.095-.117.095-.112.094-.108.095-.104.095-.1.095-.096.096-.092.097-.088.095-.08.053-.044.05-.04.05-.038.051-.037.052-.036.052-.035.053-.035.053-.033.055-.031.055-.031.056-.03.057-.028.057-.027.058-.026.058-.025.059-.023.06-.022.059-.022.06-.02.06-.019.062-.017.061-.017.062-.016.063-.015.062-.013.063-.013L10.4.07l.067-.011.125-.018.13-.015.133-.012.133-.008.135-.004.135-.002h.078zm-.19 1.001l-.11.004-.108.007-.105.009-.102.012-.1.014-.048.008-.048.01-.047.009-.046.01-.046.01-.045.012-.044.012-.044.013-.043.013-.042.014-.042.015-.04.015-.04.016-.04.017-.039.017-.038.018-.037.019-.037.02-.036.02-.035.02-.035.021-.035.023-.035.024-.036.025-.036.027-.037.027-.037.03-.037.03-.075.064-.076.069-.077.074-.079.079-.08.084-.08.089-.083.094-.084.099-.084.104-.086.109-.087.113-.088.119-.08.112-.08.111-.078.113-.077.113-.076.113-.076.113-.074.114-.074.114-.073.115-.072.115-.071.116-.07.116-.07.116-.068.117-.067.117-.067.118-.066.118-.065.118-.064.119-.063.119-.062.12-.062.12-.06.12-.06.12-.058.122-.058.121-.057.122-.056.123-.055.122-.055.124-.053.123-.052.124-.091-.114-.089-.11-.086-.105-.085-.1-.083-.095-.08-.091-.08-.086-.076-.082-.075-.076-.073-.072-.071-.068-.069-.062-.067-.058-.065-.053-.063-.049-.061-.044-.061-.04-.062-.038-.063-.035-.064-.032-.064-.03-.067-.027-.067-.025-.068-.022-.069-.02-.07-.016-.072-.014-.072-.012-.074-.009-.074-.007-.076-.003-.076-.002-.064.002-.063.004-.065.007-.065.01-.065.012-.067.015-.066.018-.068.02-.068.024-.069.026-.07.03-.069.03-.07.035-.072.038-.072.04L3 5.163l.127.09.127.091.126.095.125.098.125.101.124.104.123.106.123.11.123.112.121.116.121.118.12.121.12.124.12.127.118.13.118.133.287.322.381.437.095.112.104.126.114.14.123.156.134.17.142.185.153.199.162.214.217-.465.106-.226.105-.222.104-.217.103-.212.101-.208.1-.204.099-.199.097-.195.097-.19.095-.185.093-.182.093-.176.091-.173.09-.167.089-.164.087-.158.086-.155.085-.15.084-.145.082-.14.082-.137.08-.132L9 4.47l.077-.123.077-.118.074-.114.074-.11.072-.105.071-.1.07-.096.07-.094.071-.093.073-.091.074-.091.076-.09.077-.09.078-.089.08-.088.082-.087.083-.086.084-.085.086-.085.087-.084.089-.083.09-.082.091-.082.093-.08.095-.08.095-.08.098-.077.098-.078.1-.076.102-.076.103-.075.105-.074.106-.074.107-.072.11-.072.11-.071.111-.07.114-.07.114-.068-.176-.026-.169-.023-.161-.019-.155-.015-.147-.012-.07-.005-.07-.004-.067-.003-.066-.002L11.322 1h-.062l-.113.001z"/><defs><linearGradient id="_Linear1" x1="0" y1="0" x2="1" y2="0" gradientUnits="userSpaceOnUse" gradientTransform="matrix(0 -10.9091 8.31111 0 8.933 13)"><stop offset="0" stop-color="#3a588b"/><stop offset="1" stop-color="#97b5e8"/></linearGradient><linearGradient id="_Linear3" x1="0" y1="0" x2="1" y2="0" gradientUnits="userSpaceOnUse" gradientTransform="matrix(0 12 -8.47059 0 11 3)"><stop offset="0" stop-color="#aec6ed"/><stop offset=".57" stop-color="#97b1da"/><stop offset=".79" stop-color="#6884b2"/><stop offset="1" stop-color="#3c5a8d"/></linearGradient></defs></svg>