<svg width="60" height="17" xmlns="http://www.w3.org/2000/svg" fill-rule="evenodd" clip-rule="evenodd" stroke-linejoin="round" stroke-miterlimit="2"><path d="M60 1v15l-1 1H1l-1-1V1l1-1h58l1 1zM1 1v15h58V1H1z" fill="#003bae"/><path fill="url(#_Linear1)" d="M1 1h58v15H1z"/><path d="M59 16H1V1h58v15zM2 2v13h56V2H2z" fill="#6e90c5" fill-opacity=".27"/><path d="M2 2h3v1H3v3H2V2z" fill="url(#_Linear2)"/><path d="M2 2h2v1H3v2H2V2z" fill="#fff"/><g><path fill="#fff" d="M10 6h5v8h-5z"/><path fill="#2c68cc" d="M11 7h3v2h-3zM11 12h1v1h-1zM13 10h1v1h-1zM13 12h1v1h-1zM11 10h1v1h-1z"/><path fill="#c9e2ff" d="M10 3h1v1h-1zM11 4h1v1h-1zM13 3h1v2h-1zM15 4h1v1h-1zM16 3h1v1h-1z"/></g><g><path d="M21.22 5.327a16.942 16.942 0 01-.43 3.36l.937.306c.226-1.146.362-2.333.395-3.586l-.903-.08zm3.07-.454l-.745.28V2.5h-1.118v12.32h1.118V5.3c.248.92.462 1.88.643 2.867l.88-.267a24.599 24.599 0 00-.778-3.027zm3.205-2.36V5.98h-2.122v3.76c-.022 1.747-.372 3.187-1.06 4.32l.812.88c.858-1.36 1.287-3.12 1.31-5.28v-.387c.304.027.597.08.891.147.52.093 1.016.213 1.49.347l.361-1.027c-.542-.133-.982-.24-1.343-.293a28.23 28.23 0 00-1.4-.214V7.18h3.172v3.053a21.818 21.818 0 01-3.104.574l.26 1.266a39.327 39.327 0 002.844-.653v1.627c0 .346-.135.533-.395.533-.316 0-.666-.027-1.038-.067l.282 1.267h1.095c.767 0 1.151-.427 1.151-1.28V5.98h-2.088V2.513h-1.118zm-1.76.374l-.926.546a18.57 18.57 0 011.14 2.174l.88-.52c-.36-.8-.722-1.534-1.095-2.2zm4.537-.094c-.27.774-.62 1.547-1.072 2.347l.858.533c.474-.76.846-1.546 1.14-2.346l-.926-.534z" fill="#fff" fill-rule="nonzero"/><path d="M23.59 1.967l.101.026.09.027.08.053.079.067.056.08.045.093.023.094.011.093v1.88h.023l.056-.027h.045l.045-.013h.057l.101.013.09.027.091.053.08.067.067.067.045.093.023.053.112.334.057.173.09.333.034-.026.045-.027.045-.013.045-.014.046-.013h.022l-.034-.067-.067-.133-.068-.147-.068-.133-.068-.133-.067-.134-.068-.133-.068-.133-.067-.12-.08-.134-.067-.12-.068-.12-.079-.12-.068-.12-.022-.04-.023-.053-.022-.04-.012-.053V3.38l.012-.053.01-.04.012-.054.023-.04.022-.053.034-.04.034-.027.034-.04.034-.026.045-.027.926-.547.045-.026.045-.027.045-.013.056-.014h.091l.101.014.102.026.079.054.079.066.068.067.022.053.147.254.135.266.147.267.136.28.135.28.068.12V2.46l.011-.04.011-.053.012-.04.022-.054.023-.04.022-.04.034-.04.034-.04.045-.026.034-.027.045-.027.045-.013.046-.013.045-.014.056-.013h1.163l.101.013.09.027.09.04.08.053.068.08.045.08.034.094.022.093V4.1l.045-.08.068-.147.068-.133.056-.147.068-.133.056-.147.057-.133.056-.147.045-.133.057-.147.045-.133.023-.053.022-.04.034-.04.023-.04.034-.04.033-.027.046-.027.045-.026.045-.027.045-.013.045-.014.045-.013h.147l.102.027.09.04.926.533.079.067.067.066.057.08.034.094.022.106v.147l-.011.04-.023.053-.056.147-.057.16-.067.16-.057.147-.067.16-.068.146-.08.16-.067.16-.079.147-.068.147-.079.16-.09.146-.056.107.09.027.09.04.08.053.067.08.045.08.034.093.022.094v7.76l-.01.093-.012.093-.011.08-.012.094-.022.08-.023.093-.022.08-.034.08-.023.04-.011.04-.023.04-.022.04-.023.027-.022.04-.023.04-.023.04-.022.026-.023.04-.034.027-.022.04-.034.027-.034.026-.022.04-.034.027-.034.027-.034.026-.034.027-.045.027-.034.026-.034.014-.034.026-.045.014-.034.026-.045.014-.034.013-.045.027-.045.013-.034.013-.045.014h-.045l-.08.026-.09.014-.078.013-.09.013h-1.333l-.045-.013-.045-.013-.056-.014-.046-.026-.045-.027-.045-.027-.034-.026-.034-.04-.033-.04-.023-.054-.023-.04-.022-.053-.012-.04-.282-1.267-.011-.053v-.147l.011-.053.023-.053.011-.04.023-.04.034-.054.033-.04.034-.026.034-.04.045-.027.045-.027.046-.013.045-.013.056-.014.045-.013H28.23l.27.027.25.026.236.014h.09v-.934h-.022l-.18.04-.181.054-.17.04-.18.04-.18.04-.181.04-.192.04-.18.04-.181.04-.192.04-.192.04-.18.026-.046.014H26.716l-.045-.014h-.034l-.022.134-.045.173-.045.173-.034.08-.023.08-.022.094-.023.08-.034.08-.022.08-.034.08-.023.08-.034.08-.034.08-.034.08-.022.08-.034.08-.034.08-.034.08-.034.066-.033.08-.046.08-.033.067-.034.08-.045.067-.034.08-.045.066-.034.067-.045.08-.034.067-.045.066-.046.067-.022.04-.034.04-.034.04-.045.027-.034.026-.045.027-.045.013-.045.014-.046.013-.056.013h-.09l-.057-.013h-.045l-.045-.027-.045-.013-.045-.027-.034-.026-.045-.027-.034-.04-.655-.707v.28l-.011.04-.011.054-.012.04-.022.053-.023.04-.022.04-.034.04-.034.04-.045.027-.034.026-.045.027-.046.013-.045.014-.045.013-.056.013h-1.208l-.056-.013-.046-.013-.045-.014-.045-.013-.045-.027-.034-.026-.045-.027-.034-.04-.034-.04-.022-.04-.023-.04-.023-.053-.01-.04-.012-.054-.011-.04V9.5l-.034.013-.057.014H21.66l-.046-.014-.056-.013-.937-.307-.045-.013-.045-.027-.034-.026-.045-.027-.034-.04-.034-.027-.034-.04-.022-.04-.023-.053-.023-.04-.01-.053-.012-.04V8.62l.011-.053.045-.2.046-.187.033-.2.034-.2.034-.2.034-.2.034-.2.022-.2.023-.2.023-.213.022-.2.023-.214.011-.213.011-.2.012-.213.01-.214V5.26l.012-.053.011-.054.023-.04.023-.053.022-.04.034-.04.034-.04.034-.027.045-.026.045-.027.045-.027.045-.013.057-.013.045-.014H21.265l.632.054v-2.4l.01-.04.012-.054.011-.04.023-.053.023-.04.022-.04.034-.04.034-.04.045-.027.034-.026.045-.027.045-.013.045-.014.046-.013.056-.013h1.208zm3.905.546V5.98h-2.122V9.9l-.011.16v.16l-.011.16-.012.16-.01.147-.012.16-.023.146-.022.147-.012.147-.022.146-.034.147-.023.133-.022.147-.034.133-.034.134-.034.133-.034.133-.034.134-.045.133-.045.12-.045.133-.045.12-.045.12-.045.12-.057.12-.056.107-.057.12-.056.107-.057.12-.056.106-.068.107.813.88.045-.067.034-.066.034-.067.045-.053.034-.067.034-.067.045-.08.034-.066.034-.067.033-.067.034-.066.034-.08.034-.067.023-.067.033-.08.034-.066.034-.08.023-.067.034-.08.022-.067.034-.08.023-.08.022-.08.034-.066.023-.08.022-.08.023-.08.022-.08.045-.16.046-.16.033-.174.046-.173.033-.16.023-.173.034-.187.034-.173.022-.174.023-.186.011-.187.023-.187.011-.186.023-.2v-.187l.011-.2.011-.2v-.587l.226.027.226.027.214.04.226.053.192.04.192.04.192.04.192.04.18.04.18.053.181.04.18.054.362-1.027-.384-.093-.18-.04-.17-.04-.169-.04-.158-.027-.068-.013-.079-.014-.067-.013-.068-.013-.26-.04-.146-.027-.17-.027-.18-.026-.204-.04-.214-.027-.226-.027V7.18h3.172v3.053l-.192.054-.192.04-.192.053-.191.04-.192.04-.192.04-.192.04-.192.04-.192.027-.192.04-.203.026-.192.027-.192.027-.203.026-.192.027-.203.027.26 1.266.18-.04.192-.026.18-.04.181-.04.18-.04.181-.04.181-.04.18-.04.181-.04.17-.04.18-.04.17-.054.35-.08.338-.093v1.72l-.011.027v.053l-.012.027v.026l-.01.027v.027l-.012.013-.011.027-.012.026-.011.014-.011.013-.012.027-.01.013-.012.013-.011.014-.023.013-.011.013-.023.014-.011.013h-.023l-.011.013-.023.014h-.045l-.022.013h-.316l-.124-.013h-.125l-.135-.014-.136-.013-.135-.013-.135-.014.282 1.267h1.23l.068-.013h.068l.056-.014.068-.013.022-.013.034-.014h.023l.034-.013.022-.013.023-.014h.034l.022-.013.023-.013.022-.014.023-.013.022-.013.023-.027.023-.013.022-.014.023-.013.011-.027.023-.013.022-.027.023-.013.011-.027.023-.013.01-.027.012-.013.023-.027.011-.026.011-.027.023-.013.011-.027.012-.027.01-.026.012-.027.023-.067.022-.053.012-.067.01-.053.023-.067v-.08l.012-.066.011-.067V5.98h-2.088V2.513h-1.118zM22.427 2.5v12.32h1.118V5.3l.09.347.09.346.08.36.09.36.079.36.067.36.08.36.067.374.88-.267-.045-.213-.045-.214-.045-.2-.045-.2-.045-.2-.045-.2-.046-.2-.045-.186-.056-.187-.045-.187-.057-.173-.045-.187-.056-.173-.046-.173-.056-.174-.056-.16-.745.28V2.5h-1.118zm1.919 6.173l-.056.014-.046.013h-.101l-.045-.013h-.023v4.693l.057-.107.045-.106.045-.107.045-.107.045-.106.045-.12.045-.12.034-.12.034-.107.034-.133.034-.12.034-.12.034-.134.022-.133.034-.12.023-.133.022-.134.023-.146.022-.134.012-.146.022-.134.012-.146.01-.147.012-.147v-.16l.011-.146v-.16l.012-.147V8.527l-.497.146zm2.607 1.4v.134h.068l.192-.027.192-.027.192-.04.192-.026.067-.014-.067-.013-.192-.04-.18-.04-.193-.04-.124-.027L27 9.9l-.034-.013-.012.186zM21.208 5.54l-.011.227-.012.213-.01.213-.023.214-.023.213-.023.213-.022.214-.023.213-.034.2-.033.213-.034.2-.045.214-.034.2-.045.2-.046.2.937.306.045-.213.034-.213.034-.227.034-.213.034-.227.034-.213.034-.227.022-.227.023-.213.022-.227.023-.226.011-.227.012-.24.01-.227.012-.226.011-.24-.903-.08-.01.213zm5.757 2.173v.054l.372.053.328.053.26.054.214.026.248.054.17.04.36.08.159.04v-.454h-2.111zm3.25-4.773l-.045.147-.056.146-.056.147-.068.133-.057.147-.067.147-.057.146-.079.147-.068.147-.067.146-.08.147-.067.147-.079.16-.09.146-.08.147.859.533.09-.146.079-.134.09-.146.08-.147.078-.147.08-.146.067-.147.079-.147.068-.146.067-.147.068-.147.057-.146.067-.147.057-.16.056-.147.057-.146-.926-.534-.056.147zm-5.406.493l.147.254.146.253.147.253.147.267.135.28.147.28.135.293.136.294.88-.52-.135-.294-.136-.293-.067-.147-.068-.133-.068-.147-.067-.133-.068-.147-.068-.133-.068-.133-.067-.134-.08-.12-.067-.133-.068-.133-.068-.12-.925.546z" fill="#003bae"/><path d="M32.507 5.327a16.942 16.942 0 01-.429 3.36l.937.306c.226-1.146.361-2.333.395-3.586l-.903-.08zm3.07-.454l-.745.28V2.5h-1.117v12.32h1.117V5.3c.249.92.463 1.88.644 2.867l.88-.267a24.599 24.599 0 00-.779-3.027zm3.206-2.36V5.98H36.66v3.76c-.023 1.747-.373 3.187-1.061 4.32l.812.88c.858-1.36 1.287-3.12 1.31-5.28v-.387c.305.027.598.08.892.147.519.093 1.015.213 1.49.347l.36-1.027c-.541-.133-.981-.24-1.342-.293a28.23 28.23 0 00-1.4-.214V7.18h3.172v3.053a21.818 21.818 0 01-3.104.574l.26 1.266a39.327 39.327 0 002.844-.653v1.627c0 .346-.136.533-.395.533-.316 0-.666-.027-1.039-.067l.282 1.267h1.095c.768 0 1.152-.427 1.152-1.28V5.98H39.9V2.513h-1.117zm-1.761.374l-.926.546a18.57 18.57 0 011.14 2.174l.88-.52c-.36-.8-.721-1.534-1.094-2.2zm4.538-.094c-.271.774-.621 1.547-1.073 2.347l.858.533c.474-.76.847-1.546 1.14-2.346l-.925-.534z" fill="#fff" fill-rule="nonzero"/><path d="M34.877 1.967l.102.026.09.027.08.053.078.067.057.08.045.093.022.094.012.093v1.88h.022l.057-.027h.045l.045-.013h.056l.102.013.09.027.09.053.08.067.067.067.046.093.022.053.113.334.056.173.09.333.035-.026.045-.027.045-.013.045-.014.045-.013h.023l-.034-.067-.068-.133-.068-.147-.067-.133-.068-.133-.068-.134-.067-.133-.068-.133-.068-.12-.079-.134-.068-.12-.067-.12-.08-.12-.067-.12-.023-.04-.022-.053-.023-.04-.011-.053V3.38l.011-.053.011-.04.012-.054.022-.04.023-.053.034-.04.034-.027.034-.04.033-.026.046-.027.925-.547.045-.026.045-.027.046-.013.056-.014h.09l.102.014.101.026.08.054.079.066.067.067.023.053.147.254.135.266.147.267.135.28.136.28.067.12V2.46l.012-.04.01-.053.012-.04.023-.054.022-.04.023-.04.034-.04.034-.04.045-.026.034-.027.045-.027.045-.013.045-.013.045-.014.057-.013H39.9l.102.013.09.027.09.04.08.053.067.08.045.08.034.094.023.093V4.1l.045-.08.068-.147.067-.133.057-.147.068-.133.056-.147.057-.133.056-.147.045-.133.057-.147.045-.133.022-.053.023-.04.034-.04.022-.04.034-.04.034-.027.045-.027.045-.026.045-.027.046-.013.045-.014.045-.013h.146l.102.027.09.04.926.533.08.067.067.066.056.08.034.094.023.106v.147l-.012.04-.022.053-.057.147-.056.16-.068.16-.056.147-.068.16-.068.146-.079.16-.067.16-.08.147-.067.147-.08.16-.09.146-.056.107.09.027.09.04.08.053.067.08.046.08.034.093.022.094v7.76l-.011.093-.011.093-.012.08-.011.094-.023.08-.022.093-.023.08-.034.08-.022.04-.012.04-.022.04-.023.04-.022.027-.023.04-.022.04-.023.04-.023.026-.022.04-.034.027-.023.04-.033.027-.034.026-.023.04-.034.027-.034.027-.033.026-.034.027-.045.027-.034.026-.034.014-.034.026-.045.014-.034.026-.045.014-.034.013-.045.027-.045.013-.034.013-.045.014h-.046l-.079.026-.09.014-.079.013-.09.013h-1.332l-.045-.013-.045-.013-.057-.014-.045-.026-.045-.027-.045-.027-.034-.026-.034-.04-.034-.04-.022-.054-.023-.04-.023-.053-.01-.04-.283-1.267-.011-.053v-.147l.01-.053.023-.053.012-.04.022-.04.034-.054.034-.04.034-.026.034-.04.045-.027.045-.027.045-.013.045-.013.057-.014.045-.013H39.517l.27.027.249.026.237.014h.09v-.934h-.022l-.181.04-.18.054-.17.04-.18.04-.181.04-.18.04-.193.04-.18.04-.18.04-.193.04-.192.04-.18.026-.045.014H38.004l-.045-.014h-.034l-.023.134-.045.173-.045.173-.034.08-.022.08-.023.094-.022.08-.034.08-.023.08-.034.08-.022.08-.034.08-.034.08-.034.08-.022.08-.034.08-.034.08-.034.08-.034.066-.034.08-.045.08-.034.067-.034.08-.045.067-.034.08-.045.066-.034.067-.045.08-.034.067-.045.066-.045.067-.023.04-.033.04-.034.04-.045.027-.034.026-.045.027-.046.013-.045.014-.045.013-.056.013h-.091l-.056-.013h-.045l-.045-.027-.046-.013-.045-.027-.034-.026-.045-.027-.034-.04-.654-.707v.28l-.012.04-.01.054-.012.04-.023.053-.022.04-.023.04-.034.04-.034.04-.045.027-.034.026-.045.027-.045.013-.045.014-.045.013-.057.013H33.67l-.057-.013-.045-.013-.045-.014-.045-.013-.045-.027-.034-.026-.045-.027-.034-.04-.034-.04-.023-.04-.022-.04-.023-.053-.011-.04-.011-.054-.012-.04V9.5l-.034.013-.056.014H32.947l-.045-.014-.056-.013-.937-.307-.045-.013-.046-.027-.033-.026-.046-.027-.033-.04-.034-.027-.034-.04-.023-.04-.022-.053-.023-.04-.011-.053-.011-.04V8.62l.01-.053.046-.2.045-.187.034-.2.034-.2.034-.2.034-.2.033-.2.023-.2.023-.2.022-.213.023-.2.022-.214.012-.213.01-.2.012-.213.011-.214V5.26l.012-.053.011-.054.023-.04.022-.053.023-.04.034-.04.033-.04.034-.027.045-.026.046-.027.045-.027.045-.013.056-.013.046-.014h.101l.632.054v-2.4l.012-.04.01-.054.012-.04.023-.053.022-.04.023-.04.034-.04.034-.04.045-.027.034-.026.045-.027.045-.013.045-.014.045-.013.057-.013H34.877zm3.906.546V5.98H36.66V9.9l-.011.16v.16l-.012.16-.011.16-.011.147-.012.16-.022.146-.023.147-.011.147-.023.146-.033.147-.023.133-.023.147-.034.133-.033.134-.034.133-.034.133-.034.134-.045.133-.045.12-.045.133-.046.12-.045.12-.045.12-.056.12-.057.107-.056.12-.057.107-.056.12-.056.106-.068.107.812.88.046-.067.034-.066.033-.067.046-.053.033-.067.034-.067.045-.08.034-.066.034-.067.034-.067.034-.066.034-.08.034-.067.022-.067.034-.08.034-.066.034-.08.022-.067.034-.08.023-.067.034-.08.022-.08.023-.08.034-.066.022-.08.023-.08.022-.08.023-.08.045-.16.045-.16.034-.174.045-.173.034-.16.023-.173.034-.187.033-.173.023-.174.023-.186.01-.187.023-.187.012-.186.022-.2v-.187l.012-.2.01-.2v-.587l.227.027.225.027.215.04.226.053.191.04.192.04.192.04.192.04.18.04.181.053.18.04.182.054.36-1.027-.383-.093-.18-.04-.17-.04-.17-.04-.157-.027-.068-.013-.079-.014-.068-.013-.067-.013-.26-.04-.147-.027-.17-.027-.18-.026-.203-.04-.214-.027-.226-.027V7.18h3.172v3.053l-.192.054-.192.04-.192.053-.192.04-.192.04-.192.04-.192.04-.191.04-.192.027-.192.04-.203.026-.192.027-.192.027-.203.026-.192.027-.203.027.26 1.266.18-.04.192-.026.18-.04.18-.04.181-.04.181-.04.18-.04.181-.04.18-.04.17-.04.18-.04.17-.054.35-.08.339-.093v1.72l-.012.027v.053l-.01.027v.026l-.012.027v.027l-.011.013-.012.027-.011.026-.011.014-.012.013-.01.027-.012.013-.011.013-.012.014-.022.013-.012.013-.022.014-.012.013h-.022l-.011.013-.023.014h-.045l-.023.013h-.316l-.124-.013h-.124l-.136-.014-.135-.013-.135-.013-.136-.014.282 1.267h1.231l.067-.013h.068l.057-.014.067-.013.023-.013.034-.014h.022l.034-.013.023-.013.022-.014h.034l.023-.013.022-.013.023-.014.022-.013.023-.013.023-.027.022-.013.023-.014.022-.013.012-.027.022-.013.023-.027.022-.013.012-.027.022-.013.012-.027.01-.013.023-.027.012-.026.011-.027.023-.013.01-.027.012-.027.011-.026.012-.027.022-.067.023-.053.011-.067.011-.053.023-.067v-.08l.011-.066.012-.067V5.98H39.9V2.513h-1.117zM33.715 2.5v12.32h1.117V5.3l.09.347.09.346.08.36.09.36.08.36.067.36.079.36.068.374.88-.267-.045-.213-.045-.214-.045-.2-.046-.2-.045-.2-.045-.2-.045-.2-.045-.186-.057-.187-.045-.187-.056-.173-.045-.187-.057-.173-.045-.173-.056-.174-.057-.16-.745.28V2.5h-1.117zm1.919 6.173l-.057.014-.045.013H35.43l-.045-.013h-.022v4.693l.056-.107.045-.106.045-.107.046-.107.045-.106.045-.12.045-.12.034-.12.034-.107.034-.133.034-.12.033-.12.034-.134.023-.133.034-.12.022-.133.023-.134.022-.146.023-.134.011-.146.023-.134.011-.146.011-.147.012-.147v-.16l.011-.146v-.16l.011-.147V8.527l-.496.146zm2.607 1.4v.134h.068l.192-.027.192-.027.191-.04.192-.026.068-.014-.068-.013-.192-.04-.18-.04-.192-.04-.124-.027-.102-.013-.034-.013-.01.186zM32.496 5.54l-.012.227-.01.213-.012.213-.023.214-.022.213-.023.213-.022.214-.023.213-.034.2-.034.213-.034.2-.045.214-.034.2-.045.2-.045.2.937.306.045-.213.034-.213.034-.227.034-.213.034-.227.033-.213.034-.227.023-.227.022-.213.023-.227.023-.226.01-.227.012-.24.011-.227.012-.226.011-.24-.903-.08-.011.213zm5.756 2.173v.054l.373.053.327.053.26.054.214.026.249.054.169.04.361.08.158.04v-.454h-2.11zm3.251-4.773l-.045.147-.056.146-.057.147-.068.133-.056.147-.068.147-.056.146-.08.147-.067.147-.068.146-.079.147-.067.147-.08.16-.09.146-.079.147.858.533.09-.146.08-.134.09-.146.079-.147.079-.147.079-.146.068-.147.067-.147.08-.146.067-.147.068-.147.056-.146.068-.147.056-.16.057-.147.056-.146-.925-.534-.057.147zm-5.407.493l.147.254.147.253.147.253.146.267.136.28.147.28.135.293.135.294.88-.52-.135-.294-.135-.293-.068-.147-.067-.133-.068-.147-.068-.133-.068-.147-.067-.133-.068-.133-.068-.134-.079-.12-.068-.133-.067-.133-.068-.12-.926.546z" fill="#003bae"/><g><path d="M46.966 6.247V7.58h2.958v1.747h-2.088v5.48h1.162v-.56h3.07v.56h1.163v-5.48h-2.11V7.58h2.776V6.247H51.12V4.38c.915-.16 1.727-.373 2.427-.653l-.576-1.16c-1.58.56-3.51.84-5.79.84l.35 1.24c.846 0 1.648-.04 2.393-.107v1.707h-2.958zm2.032 6.693v-2.347h3.07v2.347h-3.07zm-4.03-10.36l-.835.96c.802.693 1.422 1.347 1.851 1.96l.813-.973a17.107 17.107 0 00-1.829-1.947zm-1.602 3.853v1.334h1.546V12.5c0 .28-.102.52-.293.72l.451 1.253a18.288 18.288 0 002.303-2.12l-.328-1.466c-.35.4-.677.773-.993 1.093V6.433h-2.686z" fill="#fff" fill-rule="nonzero"/><path d="M53.04 2.033l.09.027.09.027.079.053.067.067.057.08.022.04.576 1.16.034.093.023.093v.107l-.012.04-.011.053-.011.04-.023.054-.022.04-.023.04-.034.04-.034.04-.034.026-.045.027-.045.027-.045.013-.135.053-.147.054-.147.053-.147.053-.146.04-.147.054-.158.04-.158.053-.158.04-.17.04-.158.04-.169.027-.17.04-.078.013v.893h2.246l.102.014.09.026.09.04.08.054.067.08.045.08.034.093.023.093v1.44l-.012.04-.011.054-.011.04-.023.053-.022.04-.023.04-.034.04-.034.04-.045.027-.034.026-.045.027-.045.013-.045.014-.045.013-.057.013h-2.291v.68h1.58l.102.014.09.026.09.04.08.054.067.08.045.08.034.093.023.093V14.86l-.012.04-.011.053-.011.04-.023.054-.022.04-.023.04-.034.04-.034.04-.045.026-.034.027-.045.027-.045.013-.045.013-.045.014-.057.013h-1.253l-.056-.013-.045-.014-.045-.013-.046-.013-.045-.027-.034-.027-.045-.026-.034-.04-.034-.04-.022-.04-.023-.04-.022-.054-.012-.04-.01-.053-.012-.04v-.08h-2.01v.08l-.01.04-.012.053-.011.04-.023.054-.022.04-.023.04-.034.04-.034.04-.045.026-.034.027-.045.027-.045.013-.045.013-.045.014-.057.013H47.79l-.056-.013-.045-.014-.045-.013-.045-.013-.046-.027-.034-.027-.045-.026-.034-.04-.033-.04-.023-.04-.023-.04-.022-.054-.011-.04-.012-.053-.011-.04v-1.653l-.102.093-.146.147-.147.146-.147.134-.147.133-.146.147-.147.133-.158.12-.147.133-.158.134-.158.12-.147.133-.158.12-.045.027-.034.026-.056.014-.045.013-.045.013-.045.014H45.025l-.057-.014-.045-.013-.045-.013-.045-.014-.045-.026-.045-.027-.034-.04-.034-.04-.034-.027-.034-.053-.022-.04-.012-.04-.451-1.253-.023-.054-.01-.04v-.146l.01-.054.012-.04.01-.053.024-.04.022-.04.023-.04.034-.04.033-.027.012-.026.022-.014.012-.026.01-.014.012-.026.011-.014.012-.026v-.027l.011-.013v-.027l.011-.013v-.027l.012-.027V8.3H43.32l-.057-.013-.045-.014-.045-.013-.045-.013-.046-.027-.033-.027-.046-.026-.033-.04-.034-.04-.023-.04-.022-.04-.023-.054-.011-.04-.012-.053-.01-.04V6.38l.01-.04.012-.053.011-.04.023-.054.022-.04.023-.04.034-.04.033-.04.046-.026.033-.027.046-.027.045-.013.045-.013.045-.014.057-.013H45.634l-.022-.013-.034-.04-.034-.04-.034-.054-.034-.053-.045-.053-.045-.054-.079-.106-.09-.12-.09-.107-.102-.107-.102-.12-.113-.12-.112-.12-.113-.106-.124-.12-.125-.134-.135-.12-.136-.12-.135-.12-.147-.133-.034-.027-.033-.04-.034-.04-.023-.04-.022-.053-.012-.04-.011-.053-.011-.04V3.46l.011-.053.023-.054.01-.04.023-.04.034-.04.023-.04.835-.96.034-.04.045-.026.034-.04.045-.027.045-.013.057-.014.045-.013.045-.013h.056l.102.013.09.027.09.04.08.066.27.24.26.254.249.253.237.253.237.254.079.093V3.5l-.012-.04v-.107l.012-.04.01-.053.012-.04.023-.053.022-.04.023-.04.034-.04.034-.04.034-.027.045-.027.045-.026.045-.014.045-.013.045-.013.045-.014h.475l.203-.013h.203l.203-.013h.192l.192-.014.203-.013.192-.013.18-.014.192-.013.181-.027.18-.013.192-.027.17-.013.18-.027.17-.026.18-.027.17-.04.169-.027.158-.026.17-.04.157-.04.158-.027.158-.04.158-.04.147-.04.158-.053.147-.04.147-.04.146-.054.147-.053.045-.013.045-.014h.147zm-.215.587l-.158.053-.147.04-.158.054-.158.04-.158.04-.158.053-.17.04-.158.027-.169.04-.17.04-.18.026-.17.04-.18.027-.169.027-.18.026-.181.027-.192.027-.18.026-.193.014-.191.026-.192.014-.192.013-.192.013-.203.014-.203.013h-.204l-.203.013h-.203l-.203.014h-.429l.35 1.24h.474l.147-.014h.316l.146-.013h.147l.158-.013h.147l.147-.014.146-.013h.136l.147-.013.146-.014.136-.013v1.707h-2.958V7.58h2.958v1.747h-2.088v5.48h1.162v-.56h3.07v.56h1.163v-5.48h-2.11V7.58h2.776V6.247H51.12V4.38l.17-.027.169-.04.17-.026.157-.04.158-.027.158-.04.158-.04.158-.04.147-.04.147-.04.147-.053.146-.04.136-.054.135-.04.136-.053.135-.053-.576-1.16-.146.053zm-9.46 3.813v1.334h1.547v4.84l-.011.04-.012.053-.01.053-.012.04-.011.054-.023.04-.011.053-.023.04-.022.04-.034.04-.023.04-.034.04-.034.04-.033.04.451 1.253.147-.12.158-.12.147-.12.146-.12.147-.133.147-.12.147-.133.146-.134.147-.133.135-.133.147-.134.136-.146.146-.134.136-.146.135-.147.136-.147-.328-1.466-.26.293-.123.147-.125.133-.124.133-.124.134-.113.133-.124.12V6.433h-2.686zm8.703 6.507h-3.07v-2.347h3.07v2.347zm-2.54-1.813v1.28h2.01v-1.28h-2.01zm-2.945-.52l.056-.067.045-.04.034-.04.045-.027.045-.026.046-.014.045-.013.056-.013.045-.014h.057l.09.014.102.026.056.027V9.273l.011-.04.012-.053.01-.04.023-.053.023-.04.023-.04.033-.04.034-.04.045-.027.034-.027.046-.026.045-.014.045-.013.045-.013.056-.014h1.603v-.68h-2.472l-.056-.013-.045-.013-.045-.014-.046-.013-.045-.027-.034-.026-.045-.027-.022-.027v2.654zm-.192-4.76l-.034.026-.034.04-.034.027-.011.013.056.027.08.053.044.054.012-.027.022-.053.023-.04.022-.04.034-.04.034-.04.045-.027.034-.027.045-.026.046-.014.045-.013.045-.013.056-.014h2.472v-.6l-.146.014-.159.013h-.146l-.147.013h-.158l-.158.014h-.305l-.158.013h-.53l-.057-.013-.045-.014-.045-.013-.045-.013-.045-.027-.034-.027-.045-.026-.034-.04-.023-.027-.722.867zM44.133 3.54l.147.133.147.12.135.134.136.12.135.133.124.12.124.133.113.12.113.12.113.12.102.12.101.12.102.12.135.174.124.173.813-.973-.101-.12-.09-.12-.102-.12-.102-.12-.113-.12-.101-.12-.113-.12-.113-.134-.113-.12-.124-.12-.124-.12-.113-.12-.136-.12-.124-.133-.124-.12-.136-.12-.835.96z" fill="#003bae"/></g></g><defs><linearGradient id="_Linear1" x1="0" y1="0" x2="1" y2="0" gradientUnits="userSpaceOnUse" gradientTransform="matrix(58 0 0 15 1 8.5)"><stop offset="0" stop-color="#6b8dc4"/><stop offset=".43" stop-color="#87a3cf"/><stop offset=".89" stop-color="#d5dfee"/><stop offset=".96" stop-color="#c5d3e8"/><stop offset=".98" stop-color="#9bb3d7"/><stop offset="1" stop-color="#6b8dc4"/></linearGradient><linearGradient id="_Linear2" x1="0" y1="0" x2="1" y2="0" gradientUnits="userSpaceOnUse" gradientTransform="matrix(0 -2 2.66667 0 3 5)"><stop offset="0" stop-color="#b3c4e0"/><stop offset="1" stop-color="#a1b7d9"/></linearGradient></defs></svg>