<svg width="14" height="14" xmlns="http://www.w3.org/2000/svg" fill-rule="evenodd" clip-rule="evenodd" stroke-linecap="round" stroke-linejoin="round" stroke-miterlimit="1"><path d="M2 1L1 2v11h11l1-1V1H2z" fill="url(#_Radial1)"/><path d="M13.068.002l.068.007.067.012.067.016.065.021.063.025.062.029.06.034.057.037.054.041.052.045.048.048.045.052.041.054.037.057.034.06.029.062.025.063.021.065.016.067.012.067.007.068L14 1v11l-.002.065-.007.066-.01.064-.015.064-.019.062-.023.062-.027.059-.031.058-.035.056-.038.053-.041.05-.045.048-1 1-.048.045-.05.041-.053.038-.056.035-.058.031-.059.027-.062.023-.062.019-.064.015-.064.01-.066.007L12 14H1l-.068-.002-.068-.007-.067-.012-.067-.016-.065-.021-.063-.025-.062-.029-.06-.034-.057-.037-.054-.041-.052-.045-.048-.048-.045-.052-.041-.054-.037-.057-.034-.06-.029-.062-.025-.063-.021-.065-.016-.067-.012-.067-.007-.068L0 13V2l.002-.065.007-.066.01-.064.015-.064.019-.062.023-.062.027-.059.031-.058.035-.056.038-.053.041-.05.045-.048 1-1 .048-.045.05-.041.053-.038L1.5.134l.058-.031.059-.027.062-.023.062-.019.064-.015.064-.01.066-.007L2 0h11l.068.002zM2 1L1 2v11h11l1-1V1H2z"/><path d="M3 7v.5l3.5 3h1l3.5-3V7H9V3H5v4H3z" fill="none"/><clipPath id="a"><path d="M3 7v.5l3.5 3h1l3.5-3V7H9V3H5v4H3z"/></clipPath><g clip-path="url(#a)"><path d="M3 7v.5l3.5 3h1l3.5-3V7H9V3H5v4H3z" fill="#f4f4f4" stroke="#999" stroke-width=".33"/></g><path d="M9.05 2.202l.05.004.05.008.049.011.048.014.047.017.047.02.044.023.044.026.041.028.04.031.038.033.035.035.033.038.031.04.028.041.026.044.023.044.02.047.017.047.014.048.011.049.008.05.004.05L9.8 3v3.2H11l.05.002.05.004.05.008.049.011.048.014.047.017.047.02.044.023.044.026.041.028.04.031.038.033.035.035.033.038.031.04.028.041.026.044.023.044.02.047.017.047.014.048.011.049.008.05.004.05.002.05v.5l-.002.049-.004.049-.008.049-.01.048-.014.047-.016.047-.019.045-.022.044-.025.043-.027.041-.03.039-.032.038-.034.035-.036.033-3.5 3-.037.03-.039.028-.04.025-.041.022-.043.021-.043.017-.045.015-.046.013-.046.009-.047.007-.047.005-.047.001h-1l-.047-.001-.047-.005-.047-.007-.046-.009-.046-.013-.045-.015-.043-.017-.043-.021-.041-.022-.04-.025-.039-.028-.037-.03-3.5-3-.036-.033-.034-.035-.032-.038-.03-.039-.027-.041-.025-.043-.022-.044-.019-.045-.016-.047-.014-.047-.01-.048-.008-.049-.004-.049L2.2 7.5V7l.002-.05.004-.05.008-.05.011-.049.014-.048.017-.047.02-.047.023-.044.026-.044.028-.041.031-.04.033-.038.035-.035.038-.033.04-.031.041-.028.044-.026.044-.023.047-.02.047-.017.048-.014.049-.011.05-.008.05-.004L3 6.2h1.2V3l.002-.05.004-.05.008-.05.011-.049.014-.048.017-.047.02-.047.023-.044.026-.044.028-.041.031-.04.033-.038.035-.035.038-.033.04-.031.041-.028.044-.026.044-.023.047-.02.047-.017.048-.014.049-.011.05-.008.05-.004L5 2.2h4l.05.002zM5 3v4H3v.5l3.5 3h1l3.5-3V7H9V3H5z"/><defs><radialGradient id="_Radial1" cx="0" cy="0" r="1" gradientUnits="userSpaceOnUse" gradientTransform="matrix(13 0 0 14 6 0)"><stop offset="0" stop-color="#98bcff"/><stop offset=".61" stop-color="#89abea"/><stop offset=".82" stop-color="#6683b8"/><stop offset="1" stop-color="#415984"/></radialGradient></defs></svg>