<svg width="21" height="17" xmlns="http://www.w3.org/2000/svg" fill-rule="evenodd" clip-rule="evenodd" stroke-linejoin="round" stroke-miterlimit="2"><g transform="translate(1 2)"><path d="M2 1L1 2v11h16l1-1V1H2z" fill="url(#_Linear1)"/><clipPath id="a"><path d="M2 1L1 2v11h16l1-1V1H2z"/></clipPath><g clip-path="url(#a)"><path d="M2 15h1V4h15v11h1V3H2v12z" fill="url(#_Linear3)" transform="translate(-1 -2)"/></g><path d="M18.078.003l.078.009.077.016.076.021.074.027.071.033.068.038.066.044.061.049.058.053.053.058.049.061.044.066.038.068.033.071.027.074.021.076.016.077.009.078L19 1v11l-.003.078-.009.078-.016.077-.021.076-.027.074-.033.071-.038.068-.044.066-.049.061-.053.058-1 1-.058.053-.061.049-.066.044-.068.038-.071.033-.074.027-.076.021-.077.016-.078.009L17 14H1l-.078-.003-.078-.009-.077-.016-.076-.021-.074-.027-.071-.033-.068-.038-.066-.044-.061-.049-.058-.053-.053-.058-.049-.061-.044-.066-.038-.068-.033-.071-.027-.074-.021-.076-.016-.077-.009-.078L0 13V2l.003-.078.009-.078.016-.077.021-.076.027-.074.033-.071.038-.068.044-.066.049-.061.053-.058 1-1L1.351.24l.061-.049.066-.044.068-.038.071-.033.074-.027.076-.021.077-.016.078-.009L2 0h16l.078.003zM2 1L1 2v11h16l1-1V1H2z"/></g><path fill="url(#_Radial4)" d="M5 2h11v8H5z" transform="matrix(1.18182 0 0 1.25 -1.91 -1.5)"/><path d="M13 3h2v2h-2z"/><path d="M13 3h2v2h-2zM8 2h1v2h1V3h1v1h-1v1h2v1h-2v2h1V7H9v2H8V7H6v1h1V6H5V5h2V3H6v1h2V2zm0 3h1v1H8V5"/><path d="M17 11H4V1h13v10zM5 10h11V2H5v8z"/><defs><linearGradient id="_Linear1" x1="0" y1="0" x2="1" y2="0" gradientUnits="userSpaceOnUse" gradientTransform="matrix(0 -10.9091 8.31111 0 8.933 13)"><stop offset="0" stop-color="#3a588b"/><stop offset="1" stop-color="#97b5e8"/></linearGradient><linearGradient id="_Linear3" x1="0" y1="0" x2="1" y2="0" gradientUnits="userSpaceOnUse" gradientTransform="matrix(0 12 -8.47059 0 11 3)"><stop offset="0" stop-color="#aec6ed"/><stop offset=".57" stop-color="#97b1da"/><stop offset=".79" stop-color="#6884b2"/><stop offset="1" stop-color="#3c5a8d"/></linearGradient><radialGradient id="_Radial4" cx="0" cy="0" r="1" gradientUnits="userSpaceOnUse" gradientTransform="matrix(0 5.6 -12.6923 0 8.385 3.6)"><stop offset="0" stop-color="#fff"/><stop offset=".52" stop-color="#e7eefa"/><stop offset="1" stop-color="#9bb8ec"/></radialGradient></defs></svg>