<svg width="16" height="16" xmlns="http://www.w3.org/2000/svg" fill-rule="evenodd" clip-rule="evenodd" stroke-linejoin="round" stroke-miterlimit="2"><path fill="url(#_Radial1)" d="M1 2h5v4H1z" transform="matrix(2.8 0 0 3.5 -2.8 -7)"/><path fill="url(#_Radial2)" d="M2 2h10v10H2z"/><clipPath id="a"><path d="M2 2h10v10H2z"/></clipPath><g clip-path="url(#a)"><path fill="#c2dcbf" d="M2 10h10v1H2z"/><path fill="url(#_Radial4)" d="M2 9h11v1H2z" transform="matrix(.9091 0 0 1 .182 0)"/><path fill="url(#_Linear5)" d="M9 11h2v1H9z" transform="matrix(1 0 0 4 -3 -37)"/><path d="M8.039 6l.039.004.04.004.038.004.039.008.038.008.038.008.038.012.037.012.037.016.036.016.035.016.035.02.033.02.034.02.032.024.031.024.03.024.03.024.028.028.027.028.026.032.025.028.024.032.022.032.022.032.019.036.019.036.017.032.016.036.014.036.013.04.011.036.01.04.009.036.007.04.005.04.004.036.002.04L9 7v4l-.001.04-.002.04-.004.036-.005.04-.007.04-.009.036-.01.04-.011.036-.013.04-.014.036-.016.036-.017.032-.019.036-.019.036-.022.032-.022.032-.024.032-.025.028-.026.032-.027.028-.028.028-.03.024-.03.024-.031.024-.032.024-.034.02-.033.02-.035.02-.035.016-.036.016-.037.016-.037.012-.038.012-.038.008-.038.008-.039.008-.038.004-.04.004-.039.004H5.961l-.039-.004-.04-.004-.038-.004-.039-.008-.038-.008-.038-.008-.038-.012-.037-.012-.037-.016-.036-.016-.035-.016-.035-.02-.033-.02-.034-.02-.032-.024-.031-.024-.03-.024-.03-.024-.028-.028-.027-.028-.026-.032-.025-.028-.024-.032-.022-.032-.022-.032-.019-.036-.019-.036-.017-.032-.016-.036-.014-.036-.013-.04-.011-.036-.01-.04-.009-.036-.007-.04-.005-.04-.004-.036-.002-.04L5 11V7l.001-.04.002-.04.004-.036.005-.04.007-.04.009-.036.01-.04.011-.036.013-.04.014-.036.016-.036.017-.032.019-.036.019-.036.022-.032.022-.032.024-.032.025-.028.026-.032.027-.028.028-.028.03-.024.03-.024.031-.024.032-.024.034-.02.033-.02.035-.02.035-.016.036-.016.037-.016.037-.012.038-.012.038-.008.038-.008.039-.008.038-.004.04-.004L5.961 6h2.078zM6 7v4h2V7H6z" fill="#8e6a2b" fill-opacity=".62"/><circle cx="7" cy="5" r="3" fill="url(#_Radial6)"/><path d="M7.103 1.001l.102.004.102.007.101.009.1.011.1.014.099.016.098.019.097.021.097.024.095.026.095.028.094.031.092.032.092.035.09.037.089.039.088.041.087.043.086.046.084.047.084.049.081.051.081.053.079.055.078.057.076.058.074.06.074.062.071.064.071.065.068.067.067.068.065.071.064.071.062.074.06.074.058.076.057.078.055.079.053.081.051.081.049.084.047.084.046.086.043.087.041.088.039.089.037.09.035.092.032.092.031.094.028.095.026.095.024.097.021.097.019.098.016.099.014.1.011.1.009.101.007.102.004.102L11 5l-.001.103-.004.102-.007.102-.009.101-.011.1-.014.1-.016.099-.019.098-.021.097-.024.097-.026.095-.028.095-.031.094-.032.092-.035.092-.037.09-.039.089-.041.088-.043.087-.046.086-.047.084-.049.084-.051.081-.053.081-.055.079-.057.078-.058.076-.06.074-.062.074-.064.071-.065.071-.067.068-.068.067-.071.065-.071.064-.074.062-.074.06-.076.058-.078.057-.079.055-.081.053-.081.051-.084.049-.084.047-.086.046-.087.043-.088.041-.089.039-.09.037-.092.035-.092.032-.094.031-.095.028-.095.026-.097.024-.097.021-.098.019-.099.016-.1.014-.1.011-.101.009-.102.007-.102.004L7 9l-.103-.001-.102-.004-.102-.007-.101-.009-.1-.011-.1-.014-.099-.016-.098-.019-.097-.021-.097-.024-.095-.026-.095-.028-.094-.031-.092-.032-.092-.035-.09-.037-.089-.039-.088-.041-.087-.043-.086-.046-.084-.047-.084-.049-.081-.051-.081-.053-.079-.055-.078-.057-.076-.058-.074-.06-.074-.062-.071-.064-.071-.065-.068-.067-.067-.068-.065-.071-.064-.071-.062-.074-.06-.074-.058-.076-.057-.078-.055-.079-.053-.081-.051-.081-.049-.084-.047-.084-.046-.086-.043-.087-.041-.088-.039-.089-.037-.09-.035-.092-.032-.092-.031-.094-.028-.095-.026-.095-.024-.097-.021-.097-.019-.098-.016-.099-.014-.1-.011-.1-.009-.101-.007-.102-.004-.102L3 5l.001-.103.004-.102.007-.102.009-.101.011-.1.014-.1.016-.099.019-.098.021-.097.024-.097.026-.095.028-.095.031-.094.032-.092.035-.092.037-.09.039-.089.041-.088.043-.087.046-.086.047-.084.049-.084.051-.081.053-.081.055-.079.057-.078.058-.076.06-.074.062-.074.064-.071.065-.071.067-.068.068-.067.071-.065.071-.064.074-.062.074-.06.076-.058.078-.057.079-.055.081-.053.081-.051.084-.049.084-.047.086-.046.087-.043.088-.041.089-.039.09-.037.092-.035.092-.032.094-.031.095-.028.095-.026.097-.024.097-.021.098-.019.099-.016.1-.014.1-.011.101-.009.102-.007.102-.004L7 1l.103.001zm-.18 1l-.077.003-.077.005-.076.007-.075.008-.075.011-.074.012-.073.014-.073.016-.072.018-.072.019-.071.021-.07.023-.069.024-.069.026-.067.028-.067.029-.066.031-.065.032-.064.034-.064.036-.062.037-.061.038-.061.04-.059.041-.058.042-.058.044-.056.045-.055.047-.054.048-.052.049-.052.05-.05.052-.049.052-.048.054-.047.055-.045.056-.044.058-.042.058-.041.059-.04.061-.038.061-.037.062-.036.064-.034.064-.032.065-.031.066-.029.067-.028.067-.026.069-.024.069-.023.07-.021.071-.019.072-.018.072-.016.073-.014.073-.012.074-.011.075-.008.075-.007.076-.005.077-.003.077L4 5l.001.077.003.077.005.077.007.076.008.075.011.075.012.074.014.073.016.073.018.072.019.072.021.071.023.07.024.069.026.069.028.067.029.067.031.066.032.065.034.064.036.064.037.062.038.061.04.061.041.059.042.058.044.058.045.056.047.055.048.054.049.052.05.052.052.05.052.049.054.048.055.047.056.045.058.044.058.042.059.041.061.04.061.038.062.037.064.036.064.034.065.032.066.031.067.029.067.028.069.026.069.024.07.023.071.021.072.019.072.018.073.016.073.014.074.012.075.011.075.008.076.007.077.005.077.003L7 8l.077-.001.077-.003.077-.005.076-.007.075-.008.075-.011.074-.012.073-.014.073-.016.072-.018.072-.019.071-.021.07-.023.069-.024.069-.026.067-.028.067-.029.066-.031.065-.032.064-.034.064-.036.062-.037.061-.038.061-.04.059-.041.058-.042.058-.044.056-.045.055-.047.054-.048.052-.049.052-.05.05-.052.049-.052.048-.054.047-.055.045-.056.044-.058.042-.058.041-.059.04-.061.038-.061.037-.062.036-.064.034-.064.032-.065.031-.066.029-.067.028-.067.026-.069.024-.069.023-.07.021-.071.019-.072.018-.072.016-.073.014-.073.012-.074.011-.075.008-.075.007-.076.005-.077.003-.077L10 5l-.001-.077-.003-.077-.005-.077-.007-.076-.008-.075-.011-.075-.012-.074-.014-.073-.016-.073-.018-.072-.019-.072-.021-.071-.023-.07-.024-.069-.026-.069-.028-.067-.029-.067-.031-.066-.032-.065-.034-.064-.036-.064-.037-.062-.038-.061-.04-.061-.041-.059-.042-.058-.044-.058-.045-.056-.047-.055-.048-.054-.049-.052-.05-.052-.052-.05-.052-.049-.054-.048-.055-.047-.056-.045-.058-.044-.058-.042-.059-.041-.061-.04-.061-.038-.062-.037-.064-.036-.064-.034-.065-.032-.066-.031-.067-.029-.067-.028-.069-.026-.069-.024-.07-.023-.071-.021-.072-.019-.072-.018-.073-.016-.073-.014-.074-.012-.075-.011-.075-.008-.076-.007-.077-.005-.077-.003L7 2l-.077.001z" fill="#8a9e77" fill-opacity=".74"/><path fill="#c2dcbf" d="M2 11h10v1H2z"/></g><path d="M6 6H1V2h5v4zm-4.643-.286h4.286V2.286H1.357v3.428z" fill="url(#_Linear7)" transform="matrix(2.8 0 0 3.5 -2.8 -7)"/><circle cx="12.5" cy="12.5" r="3.5" fill="url(#_Radial8)"/><clipPath id="b"><circle cx="12.5" cy="12.5" r="3.5"/></clipPath><g clip-path="url(#b)"><path d="M12 11h1v1h1v1h-1v1h-1v-1h-1v-1h1v-1z" fill="#fff"/></g><path d="M12.59 9.001l.09.004.089.005.089.008.088.01.087.012.086.015.086.016.085.019.084.02.084.023.082.024.082.027.081.029.08.03.079.032.078.034.077.036.076.038.075.04.074.041.072.043.072.045.07.046.07.048.068.05.066.051.066.053.064.054.063.056.061.057.06.059.059.06.057.061.056.063.054.064.053.066.051.066.05.068.048.07.046.07.045.072.043.072.041.074.04.075.038.076.036.077.034.078.032.079.03.08.029.081.027.082.024.082.023.084.02.084.019.085.016.086.015.086.012.087.01.088.008.089.005.089.004.09.001.09-.001.09-.004.09-.005.089-.008.089-.01.088-.012.087-.015.086-.016.086-.019.085-.02.084-.023.084-.024.082-.027.082-.029.081-.03.08-.032.079-.034.078-.036.077-.038.076-.04.075-.041.074-.043.072-.045.072-.046.07-.048.07-.05.068-.051.066-.053.066-.054.064-.056.063-.057.061-.059.06-.06.059-.061.057-.063.056-.064.054-.066.053-.066.051-.068.05-.07.048-.07.046-.072.045-.072.043-.074.041-.075.04-.076.038-.077.036-.078.034-.079.032-.08.03-.081.029-.082.027-.082.024-.084.023-.084.02-.085.019-.086.016-.086.015-.087.012-.088.01-.089.008-.089.005-.09.004-.09.001-.09-.001-.09-.004-.089-.005-.089-.008-.088-.01-.087-.012-.086-.015-.086-.016-.085-.019-.084-.02-.084-.023-.082-.024-.082-.027-.081-.029-.08-.03-.079-.032-.078-.034-.077-.036-.076-.038-.075-.04-.074-.041-.072-.043-.072-.045-.07-.046-.07-.048-.068-.05-.066-.051-.066-.053-.064-.054-.063-.056-.061-.057-.06-.059-.059-.06-.057-.061-.056-.063-.054-.064-.053-.066-.051-.066-.05-.068-.048-.07-.046-.07-.045-.072-.043-.072-.041-.074-.04-.075-.038-.076-.036-.077-.034-.078-.032-.079-.03-.08-.029-.081-.027-.082-.024-.082-.023-.084-.02-.084-.019-.085-.016-.086-.015-.086-.012-.087-.01-.088-.008-.089-.005-.089-.004-.09L9 12.5l.001-.09.004-.09.005-.089.008-.089.01-.088.012-.087.015-.086.016-.086.019-.085.02-.084.023-.084.024-.082.027-.082.029-.081.03-.08.032-.079.034-.078.036-.077.038-.076.04-.075.041-.074.043-.072.045-.072.046-.07.048-.07.05-.068.051-.066.053-.066.054-.064.056-.063.057-.061.059-.06.06-.059.061-.057.063-.056.064-.054.066-.053.066-.051.068-.05.07-.048.07-.046.072-.045.072-.043.074-.041.075-.04.076-.038.077-.036.078-.034.079-.032.08-.03.081-.029.082-.027.082-.024.084-.023.084-.02.085-.019.086-.016.086-.015.087-.012.088-.01.089-.008.089-.005.09-.004L12.5 9l.09.001zm-.155 1l-.064.002-.064.004-.063.006-.063.007-.063.009-.061.01-.061.012-.061.013-.06.015-.059.016-.059.017-.058.019-.058.021-.057.021-.056.023-.056.025-.055.025-.054.027-.053.028-.053.03-.052.031-.051.032-.05.033-.05.034-.049.036-.047.036-.047.038-.046.039-.045.04-.044.041-.043.042-.042.043-.041.044-.04.045-.039.046-.038.047-.036.047-.036.049-.034.05-.033.05-.032.051-.031.052-.03.053-.028.053-.027.054-.025.055-.025.056-.023.056-.021.057-.021.058-.019.058-.017.059-.016.059-.015.06-.013.061-.012.061-.01.061-.009.063-.007.063-.006.063-.004.064-.002.064L10 12.5l.001.065.002.064.004.064.006.063.007.063.009.063.01.061.012.061.013.061.015.06.016.059.017.059.019.058.021.058.021.057.023.056.025.056.025.055.027.054.028.053.03.053.031.052.032.051.033.05.034.05.036.049.036.047.038.047.039.046.04.045.041.044.042.043.043.042.044.041.045.04.046.039.047.038.047.036.049.036.05.034.05.033.051.032.052.031.053.03.053.028.054.027.055.025.056.025.056.023.057.021.058.021.058.019.059.017.059.016.06.015.061.013.061.012.061.01.063.009.063.007.063.006.064.004.064.002.065.001.065-.001.064-.002.064-.004.063-.006.063-.007.063-.009.061-.01.061-.012.061-.013.06-.015.059-.016.059-.017.058-.019.058-.021.057-.021.056-.023.056-.025.055-.025.054-.027.053-.028.053-.03.052-.031.051-.032.05-.033.05-.034.049-.036.047-.036.047-.038.046-.039.045-.04.044-.041.043-.042.042-.043.041-.044.04-.045.039-.046.038-.047.036-.047.036-.049.034-.05.033-.05.032-.051.031-.052.03-.053.028-.053.027-.054.025-.055.025-.056.023-.056.021-.057.021-.058.019-.058.017-.059.016-.059.015-.06.013-.061.012-.061.01-.061.009-.063.007-.063.006-.063.004-.064.002-.064L15 12.5l-.001-.065-.002-.064-.004-.064-.006-.063-.007-.063-.009-.063-.01-.061-.012-.061-.013-.061-.015-.06-.016-.059-.017-.059-.019-.058-.021-.058-.021-.057-.023-.056-.025-.056-.025-.055-.027-.054-.028-.053-.03-.053-.031-.052-.032-.051-.033-.05-.034-.05-.036-.049-.036-.047-.038-.047-.039-.046-.04-.045-.041-.044-.042-.043-.043-.042-.044-.041-.045-.04-.046-.039-.047-.038-.047-.036-.049-.036-.05-.034-.05-.033-.051-.032-.052-.031-.053-.03-.053-.028-.054-.027-.055-.025-.056-.025-.056-.023-.057-.021-.058-.021-.058-.019-.059-.017-.059-.016-.06-.015-.061-.013-.061-.012-.061-.01-.063-.009-.063-.007-.063-.006-.064-.004-.064-.002L12.5 10l-.065.001z" fill="#336317" fill-opacity=".73"/><defs><radialGradient id="_Radial1" cx="0" cy="0" r="1" gradientUnits="userSpaceOnUse" gradientTransform="matrix(5 4 -5 4 1 2)"><stop offset="0" stop-color="#f4f5f7"/><stop offset="1" stop-color="#eaeef2"/></radialGradient><radialGradient id="_Radial2" cx="0" cy="0" r="1" gradientUnits="userSpaceOnUse" gradientTransform="matrix(1 -10 10 1 6 12)"><stop offset="0" stop-color="#a1bde8"/><stop offset="1" stop-color="#779dd6"/></radialGradient><radialGradient id="_Radial4" cx="0" cy="0" r="1" gradientUnits="userSpaceOnUse" gradientTransform="matrix(11 0 0 1 2 9.5)"><stop offset="0" stop-color="#a8d274"/><stop offset="1" stop-color="#7aba4f"/></radialGradient><radialGradient id="_Radial6" cx="0" cy="0" r="1" gradientUnits="userSpaceOnUse" gradientTransform="matrix(-2 -3 3 -2 8 6)"><stop offset="0" stop-color="#7aba4f"/><stop offset="1" stop-color="#a8d274"/></radialGradient><radialGradient id="_Radial8" cx="0" cy="0" r="1" gradientUnits="userSpaceOnUse" gradientTransform="matrix(3 3 -3 3 11 11)"><stop offset="0" stop-color="#b4d495"/><stop offset="1" stop-color="#87b960"/></radialGradient><linearGradient id="_Linear5" x1="0" y1="0" x2="1" y2="0" gradientUnits="userSpaceOnUse" gradientTransform="matrix(2 0 0 1 9 11.5)"><stop offset="0" stop-color="#cc9e4f"/><stop offset="1" stop-color="#a17831"/></linearGradient><linearGradient id="_Linear7" x1="0" y1="0" x2="1" y2="0" gradientUnits="userSpaceOnUse" gradientTransform="matrix(5 0 0 4 1 4)"><stop offset="0" stop-color="#6f90b6"/><stop offset="1" stop-color="#94adc9"/></linearGradient></defs></svg>