<svg width="16" height="22" xmlns="http://www.w3.org/2000/svg" fill-rule="evenodd" clip-rule="evenodd" stroke-linejoin="round" stroke-miterlimit="2"><path d="M16 4c0-2.208-1.792-4-4-4H4C1.792 0 0 1.792 0 4v14c0 2.208 1.792 4 4 4h8c2.208 0 4-1.792 4-4V4z" fill="url(#_Linear1)"/><path d="M12.103.001l.103.004.102.007.101.009.1.011.1.014.099.017.098.018.097.022.096.023.096.026.094.028.093.03.093.033.091.035.09.037.09.039.088.041.086.043.086.045.084.047.083.049.082.052.081.053.079.054.078.057.076.059.075.06.073.062.072.064.07.065.069.067.067.069.065.07.064.072.062.073.06.075.059.076.057.078.054.079.053.081.052.082.049.083.047.084.045.086.043.086.041.088.039.09.037.09.035.091.033.093.03.093.028.094.026.096.023.096.022.097.018.098.017.099.014.1.011.1.009.101.007.102.004.103L16 4v14l-.001.103-.004.103-.007.102-.009.101-.011.1-.014.1-.017.099-.018.098-.022.097-.023.096-.026.096-.028.094-.03.093-.033.093-.035.091-.037.09-.039.09-.041.088-.043.086-.045.086-.047.084-.049.083-.052.082-.053.081-.054.079-.057.078-.059.076-.06.075-.062.073-.064.072-.065.07-.067.069-.069.067-.07.065-.072.064-.073.062-.075.06-.076.059-.078.057-.079.054-.081.053-.082.052-.083.049-.084.047-.086.045-.086.043-.088.041-.09.039-.09.037-.091.035-.093.033-.093.03-.094.028-.096.026-.096.023-.097.022-.098.018-.099.017-.1.014-.1.011-.101.009-.102.007-.103.004L12 22H4l-.103-.001-.103-.004-.102-.007-.101-.009-.1-.011-.1-.014-.099-.017-.098-.018-.097-.022-.096-.023-.096-.026-.094-.028-.093-.03-.093-.033-.091-.035-.09-.037-.09-.039-.088-.041-.086-.043-.086-.045-.084-.047-.083-.049-.082-.052-.081-.053-.079-.054-.078-.057-.076-.059-.075-.06-.073-.062-.072-.064-.07-.065-.069-.067-.067-.069-.065-.07-.064-.072-.062-.073-.06-.075-.059-.076-.057-.078-.054-.079-.053-.081-.052-.082-.049-.083-.047-.084-.045-.086-.043-.086-.041-.088-.039-.09-.037-.09-.035-.091-.033-.093-.03-.093-.028-.094-.026-.096-.023-.096-.022-.097-.018-.098-.017-.099-.014-.1-.011-.1-.009-.101-.007-.102-.004-.103L0 18V4l.001-.103.004-.103.007-.102.009-.101.011-.1.014-.1.017-.099.018-.098.022-.097.023-.096.026-.096.028-.094.03-.093.033-.093.035-.091.037-.09.039-.09.041-.088.043-.086.045-.086.047-.084.049-.083.052-.082.053-.081.054-.079.057-.078.059-.076.06-.075.062-.073.064-.072.065-.07.067-.069.069-.067.07-.065.072-.064.073-.062.075-.06.076-.059.078-.057.079-.054.081-.053.082-.052L2.01.53l.084-.047.086-.045.086-.043.088-.041.09-.039.09-.037.091-.035.093-.033.093-.03.094-.028.096-.026.096-.023.097-.022.098-.018.099-.017.1-.014.1-.011.101-.009.102-.007.103-.004L4 0h8l.103.001zM4.006 1l-.084.001-.077.003-.077.005-.076.007-.075.008-.075.011-.074.012-.073.014-.073.016-.072.018-.071.019-.071.021-.07.023-.069.024-.068.026-.068.028-.066.029-.066.031-.065.032-.064.034-.064.035-.062.037-.061.038-.061.04-.059.041-.059.043-.057.044-.056.045-.055.047-.054.048-.053.049-.052.05-.05.052-.049.053-.048.054-.047.055-.045.056-.044.057-.043.059-.041.059-.04.061-.038.061-.037.062-.035.064-.034.064-.032.065-.031.066-.029.066-.028.068-.026.068-.024.069-.023.07-.021.071-.019.071-.018.072-.016.073-.014.073-.012.074-.011.075-.008.075-.007.076-.005.077-.003.077L1 4.006v13.988l.001.084.003.077.005.077.007.076.008.075.011.075.012.074.014.073.016.073.018.072.019.071.021.071.023.07.024.069.026.068.028.068.029.066.031.066.032.065.034.064.035.064.037.062.038.061.04.061.041.059.043.059.044.057.045.056.047.055.048.054.049.053.05.052.052.05.053.049.054.048.055.047.056.045.057.044.059.043.059.041.061.04.061.038.062.037.064.035.064.034.065.032.066.031.066.029.068.028.068.026.069.024.07.023.071.021.071.019.072.018.073.016.073.014.074.012.075.011.075.008.076.007.077.005.077.003.084.001h7.988l.084-.001.077-.003.077-.005.076-.007.075-.008.075-.011.074-.012.073-.014.073-.016.072-.018.071-.019.071-.021.07-.023.069-.024.068-.026.068-.028.066-.029.066-.031.065-.032.064-.034.064-.035.062-.037.061-.038.061-.04.059-.041.059-.043.057-.044.056-.045.055-.047.054-.048.053-.049.052-.05.05-.052.049-.053.048-.054.047-.055.045-.056.044-.057.043-.059.041-.059.04-.061.038-.061.037-.062.035-.064.034-.064.032-.065.031-.066.029-.066.028-.068.026-.068.024-.069.023-.07.021-.071.019-.071.018-.072.016-.073.014-.073.012-.074.011-.075.008-.075.007-.076.005-.077.003-.077.001-.084V4.006l-.001-.084-.003-.077-.005-.077-.007-.076-.008-.075-.011-.075-.012-.074-.014-.073-.016-.073-.018-.072-.019-.071-.021-.071-.023-.07-.024-.069-.026-.068-.028-.068-.029-.066-.031-.066-.032-.065-.034-.064-.035-.064-.037-.062-.038-.061-.04-.061-.041-.059-.043-.059-.044-.057-.045-.056-.047-.055-.048-.054-.049-.053-.05-.052-.052-.05-.053-.049-.054-.048-.055-.047-.056-.045-.057-.044-.059-.043-.059-.041-.061-.04-.061-.038-.062-.037-.064-.035-.064-.034-.065-.032-.066-.031-.066-.029-.068-.028-.068-.026-.069-.024-.07-.023-.071-.021-.071-.019-.072-.018-.073-.016-.073-.014-.074-.012-.075-.011-.075-.008-.076-.007-.077-.005-.077-.003L11.994 1H4.006z" fill="#5d5d5d" fill-opacity=".85"/><defs><linearGradient id="_Linear1" x1="0" y1="0" x2="1" y2="0" gradientUnits="userSpaceOnUse" gradientTransform="matrix(-2 22 -30.25 -2.75 9 0)"><stop offset="0" stop-color="#f9ef05"/><stop offset=".5" stop-color="#fffba4"/><stop offset="1" stop-color="#f9ef05"/></linearGradient></defs></svg>