<svg width="8" height="10" xmlns="http://www.w3.org/2000/svg" fill-rule="evenodd" clip-rule="evenodd" stroke-linejoin="round" stroke-miterlimit="2"><path d="M8 2.75A1.75 1.75 0 006.25 1h-3.5A1.75 1.75 0 001 2.75v4.5C1 8.216 1.784 9 2.75 9h3.5A1.75 1.75 0 008 7.25v-4.5z" fill="red"/><path d="M6.295 1.001l.045.001.045.003.044.004.044.005.043.006.044.007.043.009.042.009.042.01.042.011.041.013.041.013.04.014.04.015.04.017.039.017.038.018.038.019.038.019.037.021.036.022.036.022.035.023.035.024.034.025.033.025.033.027.032.027.031.028.031.028.03.03.03.03.028.031.028.031.027.032.027.033.025.033.025.034.024.035.023.035.022.036.022.036.021.037.019.038.019.038.018.038.017.039.017.04.015.04.014.04.013.041.013.041.011.042.01.042.009.042.009.043.007.044.006.043.005.044.004.044.003.045.001.045L8 2.75v4.5l-.001.045-.001.045-.003.045-.004.044-.005.044-.006.043-.007.044-.009.043-.009.042-.01.042-.011.042-.013.041-.013.041-.014.04-.015.04-.017.04-.017.039-.018.038-.019.038-.019.038-.021.037-.022.036-.022.036-.023.035-.024.035-.025.034-.025.033-.027.033-.027.032-.028.031-.028.031-.03.03-.03.03-.031.028-.031.028-.032.027-.033.027-.033.025-.034.025-.035.024-.035.023-.036.022-.036.022-.037.021-.038.019-.038.019-.038.018-.039.017-.04.017-.04.015-.04.014-.041.013-.041.013-.042.011-.042.01-.042.009-.043.009-.044.007-.043.006-.044.005-.044.004-.045.003-.045.001L6.25 9h-3.5l-.045-.001-.045-.001-.045-.003-.044-.004-.044-.005-.043-.006-.044-.007-.043-.009-.042-.009-.042-.01-.042-.011-.041-.013-.041-.013-.04-.014-.04-.015-.04-.017-.039-.017-.038-.018-.038-.019-.038-.019-.037-.021-.036-.022-.036-.022-.035-.023-.035-.024-.034-.025-.033-.025-.033-.027-.032-.027-.031-.028-.031-.028-.03-.03-.03-.03-.028-.031-.028-.031-.027-.032-.027-.033-.025-.033-.025-.034-.024-.035-.023-.035-.022-.036-.022-.036-.021-.037-.019-.038-.019-.038-.018-.038-.017-.039-.017-.04-.015-.04-.014-.04-.013-.041-.013-.041-.011-.042-.01-.042-.009-.042-.009-.043-.007-.044-.006-.043-.005-.044-.004-.044-.003-.045-.001-.045L1 7.25v-4.5l.001-.045.001-.045.003-.045.004-.044.005-.044.006-.043.007-.044.009-.043.009-.042.01-.042.011-.042.013-.041.013-.041.014-.04.015-.04.017-.04.017-.039.018-.038.019-.038.019-.038.021-.037.022-.036.022-.036.023-.035.024-.035.025-.034.025-.033.027-.033.027-.032.028-.031.028-.031.03-.03.03-.03.031-.028.031-.028.032-.027.033-.027.033-.025.034-.025.035-.024.035-.023.036-.022.036-.022.037-.021.038-.019.038-.019.038-.018.039-.017.04-.017.04-.015.04-.014.041-.013.041-.013.042-.011.042-.01.042-.009.043-.009.044-.007.043-.006.044-.005.044-.004.045-.003.045-.001L2.75 1h3.5l.045.001zM2.756 2H2.73l-.019.001-.02.001-.019.002-.019.002-.018.003-.019.003-.018.003-.018.004-.018.005-.017.004-.018.006-.017.005-.017.006-.017.007-.017.007-.017.007-.016.008-.016.008-.016.008-.016.009-.016.009-.015.01-.015.01-.015.01-.015.011-.014.011-.014.011-.014.012-.014.012-.013.012-.013.013-.013.013-.012.013-.012.014-.012.014-.011.014-.011.014-.011.015-.01.015-.01.015-.01.015-.009.016-.009.016-.008.016-.008.016-.008.016-.007.017-.007.017-.007.017-.006.017-.005.017-.006.018-.004.017-.005.018-.004.018-.003.018-.003.019-.003.018-.002.019-.002.019-.001.02L2 2.73v4.54l.001.019.001.02.002.019.002.019.003.018.003.019.003.018.004.018.005.018.004.017.006.018.005.017.006.017.007.017.007.017.007.017.008.016.008.016.008.016.009.016.009.016.01.015.01.015.01.015.011.015.011.014.011.014.012.014.012.014.012.013.013.013.013.013.013.012.014.012.014.012.014.011.014.011.015.011.015.01.015.01.015.01.016.009.016.009.016.008.016.008.016.008.017.007.017.007.017.007.017.006.017.005.018.006.017.004.018.005.018.004.018.003.019.003.018.003.019.002.019.002.02.001L2.73 8H6.27l.019-.001.02-.001.019-.002.019-.002.018-.003.019-.003.018-.003.018-.004.018-.005.017-.004.018-.006.017-.005.017-.006.017-.007.017-.007.017-.007.016-.008.016-.008.016-.008.016-.009.016-.009.015-.01.015-.01.015-.01.015-.011.014-.011.014-.011.014-.012.014-.012.013-.012.013-.013.013-.013.012-.013.012-.014.012-.014.011-.014.011-.014.011-.015.01-.015.01-.015.01-.015.009-.016.009-.016.008-.016.008-.016.008-.016.007-.017.007-.017.007-.017.006-.017.005-.017.006-.018.004-.017.005-.018.004-.018.003-.018.003-.019.003-.018.002-.019.002-.019.001-.02L7 7.27V2.73l-.001-.019-.001-.02-.002-.019-.002-.019-.003-.018-.003-.019-.003-.018-.004-.018-.005-.018-.004-.017-.006-.018-.005-.017-.006-.017-.007-.017-.007-.017-.007-.017-.008-.016-.008-.016-.008-.016-.009-.016-.009-.016-.01-.015-.01-.015-.01-.015-.011-.015-.011-.014-.011-.014-.012-.014-.012-.014-.012-.013-.013-.013-.013-.013-.013-.012-.014-.012-.014-.012-.014-.011-.014-.011-.015-.011-.015-.01-.015-.01-.015-.01-.016-.009-.016-.009-.016-.008-.016-.008-.016-.008-.017-.007-.017-.007-.017-.007-.017-.006-.017-.005-.018-.006-.017-.004-.018-.005-.018-.004-.018-.003-.019-.003-.018-.003-.019-.002-.019-.002-.02-.001L6.27 2H2.756z"/></svg>