<svg width="32" height="32" xmlns="http://www.w3.org/2000/svg" fill-rule="evenodd" clip-rule="evenodd" stroke-linejoin="round" stroke-miterlimit="2"><g transform="matrix(0 -.7 1.21739 0 -.935 24.2)"><path d="M16 2c8.279 0 15 5.153 15 11.5S24.279 25 16 25c-7.431 0-13.607-4.151-14.794-9.591-.04-.184-.241-.237-1.611-.74-5.021-1.84-4.484-6.326-4.309-6.749.489-1.188.973.882 2.556 2.026 1.174.848 3.594.817 3.689.512.044-.139.102-.273.157-.408C3.601 5.386 9.289 2 16 2z" fill="url(#_Linear1)"/><clipPath id="a"><path d="M16 2c8.279 0 15 5.153 15 11.5S24.279 25 16 25c-7.431 0-13.607-4.151-14.794-9.591-.04-.184-.241-.237-1.611-.74-5.021-1.84-4.484-6.326-4.309-6.749.489-1.188.973.882 2.556 2.026 1.174.848 3.594.817 3.689.512.044-.139.102-.273.157-.408C3.601 5.386 9.289 2 16 2z"/></clipPath><g clip-path="url(#a)"><path d="M16.746 6.261v4.327h1.04V9.295h5.281V8.17c-.262-.469-.427-.938-.541-1.668h-.803v1.262h-3.938V6.26h-1.039zM16.746 11.161v4.327h1.04v-1.293h5.281V13.07c-.262-.469-.427-.938-.541-1.668h-.803v1.262h-3.938V11.16h-1.039zM19.304 17.115l1.58.834c.35.146.839.354 1.25.5v.042a21.685 21.685 0 00-1.38-.052h-1.45v-1.324zm0 3.409v-.678h3.763v-1.98L19.2 15.821h-.881v2.617h-1.572v1.407h1.572v.678h.986zM7.91 8.2c0 1.21.777 2.252 2.174 2.252 1.345 0 1.965-.907 1.965-1.845 0-.24-.044-.438-.114-.646l1.319.135v2.127h1.082v-3.45l-3.09-.199-.376.699c.192.312.27.48.27.771 0 .49-.401.876-1.082.876-.716 0-1.1-.386-1.1-.928 0-.511.236-.907.524-1.22l-.795-.72C8.242 6.554 7.91 7.21 7.91 8.2zM8.015 11.161v4.327h1.039v-1.293h5.282V13.07c-.262-.469-.428-.938-.541-1.668h-.803v1.262H9.054V11.16H8.015zM10.573 17.115l1.58.834c.35.146.839.354 1.249.5v.042a21.685 21.685 0 00-1.38-.052h-1.449v-1.324zm0 3.409v-.678h3.763v-1.98l-3.868-2.044h-.881v2.617H8.015v1.407h1.572v.678h.986z" fill="#fff" fill-rule="nonzero"/><g><path d="M16.746 7.083v4.326h1.04v-1.292h5.281V8.99c-.262-.47-.427-.939-.541-1.669h-.803v1.262h-3.938V7.083h-1.039zM16.746 11.983v4.327h1.04v-1.293h5.281V13.89c-.262-.47-.427-.939-.541-1.668h-.803v1.261h-3.938v-1.501h-1.039zM19.304 17.936l1.58.834c.35.146.839.354 1.25.5v.042a21.685 21.685 0 00-1.38-.052h-1.45v-1.324zm0 3.41v-.679h3.763v-1.98L19.2 16.643h-.881v2.617h-1.572v1.407h1.572v.678h.986zM7.91 9.022c0 1.21.777 2.252 2.174 2.252 1.345 0 1.965-.907 1.965-1.846 0-.24-.044-.437-.114-.646l1.319.136v2.126h1.082v-3.45l-3.09-.199-.376.699c.192.313.27.48.27.771 0 .49-.401.876-1.082.876-.716 0-1.1-.386-1.1-.928 0-.51.236-.907.524-1.22l-.795-.719c-.445.5-.777 1.157-.777 2.148zM8.015 11.983v4.327h1.039v-1.293h5.282V13.89c-.262-.47-.428-.939-.541-1.668h-.803v1.261H9.054v-1.501H8.015zM10.573 17.936l1.58.834c.35.146.839.354 1.249.5v.042a21.685 21.685 0 00-1.38-.052h-1.449v-1.324zm0 3.41v-.679h3.763v-1.98l-3.868-2.044h-.881v2.617H8.015v1.407h1.572v.678h.986z" fill="#4a7bcb" fill-rule="nonzero"/></g></g><path d="M30.999 13.649l-.004.148-.006.147-.009.147-.01.147-.014.146-.015.146-.019.145-.02.145-.023.144-.025.143-.027.143-.03.143-.031.142-.035.141-.036.14-.039.14-.04.14-.043.139-.046.138-.047.137-.049.137-.052.136-.054.135-.056.135-.058.134-.06.133-.062.132-.064.132-.066.131-.068.13-.071.13-.072.128-.074.128-.076.127-.078.126-.08.125-.082.125-.084.123-.086.123-.087.121-.09.121-.091.12-.093.119-.095.118-.096.118-.099.116-.1.115-.102.114-.104.113-.105.113-.108.111-.108.11-.111.109-.112.108-.114.107-.116.106-.117.105-.118.104-.121.103-.122.101-.123.101-.125.099-.126.098-.129.097-.129.096-.131.095-.133.093-.133.092-.136.091-.137.09-.138.089-.14.087-.141.086-.142.085-.144.083-.145.082-.146.081-.148.08-.149.078-.15.077-.152.075-.152.074-.154.073-.156.071-.156.07-.158.069-.159.067-.16.066-.161.064-.162.063-.163.061-.165.06-.165.058-.167.057-.168.056-.168.053-.17.053-.171.051-.172.049-.172.047-.174.046-.175.045-.176.043-.176.041-.178.039-.178.038-.179.037-.18.034-.181.033-.182.032-.183.029-.183.028-.184.026-.185.025-.186.022-.186.021-.188.02-.188.017-.188.016-.19.013-.19.012-.19.011-.192.008-.192.007-.192.004-.193.003L16 25l-.174-.001-.173-.002-.173-.004-.173-.005-.172-.007-.171-.008-.171-.01-.171-.011-.17-.013-.169-.014-.169-.015-.168-.017-.167-.018-.167-.02-.167-.021-.165-.023-.166-.024-.164-.025-.164-.027-.163-.028-.163-.03-.161-.03-.161-.033-.161-.033-.16-.035-.158-.036-.159-.037-.157-.039-.157-.04-.156-.041-.155-.043-.154-.044-.154-.045-.153-.046-.152-.048-.151-.048-.15-.05-.15-.052-.148-.052-.148-.054-.147-.055-.145-.056-.145-.057-.144-.058-.144-.06-.142-.061-.141-.061-.14-.063-.14-.065-.138-.065-.137-.066-.137-.067-.135-.069-.134-.07-.133-.07-.133-.072-.131-.073-.13-.074-.129-.075-.128-.076-.127-.077-.125-.078-.125-.079-.123-.08-.123-.081-.121-.082-.12-.083-.119-.084-.117-.085-.117-.085-.115-.087-.114-.088-.113-.089-.111-.089-.11-.091-.109-.091-.108-.093-.107-.093-.105-.094-.104-.095-.102-.096-.101-.097-.1-.097-.099-.098-.097-.1-.096-.1-.094-.101-.093-.101-.092-.103-.09-.103-.089-.104-.087-.105-.086-.105-.085-.107-.083-.107-.082-.108-.08-.108-.078-.11-.077-.11-.076-.11-.074-.112-.072-.112-.071-.113-.07-.113-.067-.114-.067-.115-.064-.116-.063-.116-.062-.116-.06-.118-.058-.118-.056-.118-.055-.12-.053-.119-.052-.121-.05-.121-.048-.121-.046-.122-.045-.123-.043-.123-.041-.124-.04-.124-.037-.125-.036-.125-.034-.126-.033-.126-.03-.127-.029-.127-.004-.017-.006-.017-.006-.015-.009-.015-.009-.015-.012-.015-.014-.014-.016-.015-.018-.014-.021-.015-.024-.015-.027-.016-.03-.016-.033-.016-.037-.018-.041-.018-.093-.039-.11-.043-.128-.05-.149-.055-.363-.133-.461-.169-.117-.043-.115-.045-.112-.045-.111-.047-.109-.047-.106-.048-.105-.049-.103-.05-.101-.051-.099-.051-.097-.052-.096-.053-.093-.054-.092-.055-.09-.055-.088-.056-.087-.056-.084-.057-.083-.058-.081-.058-.08-.059-.078-.06-.076-.06-.074-.06-.073-.062-.071-.061-.07-.062-.068-.063-.067-.063-.065-.063-.063-.064-.062-.064-.061-.064-.059-.065-.057-.065-.056-.066-.055-.066-.053-.065-.052-.067-.051-.066-.049-.067-.048-.067-.046-.067-.045-.067-.044-.067-.043-.067-.041-.068-.04-.067-.039-.068-.038-.067-.036-.068-.035-.067-.035-.068-.033-.068-.062-.134-.059-.135-.054-.133-.05-.133-.046-.133-.042-.131-.039-.13-.035-.128-.032-.127-.028-.126-.026-.123-.022-.122-.019-.12-.017-.117-.014-.115-.012-.112-.009-.11-.008-.106-.005-.104-.003-.101-.002-.097.001-.093.001-.09.003-.086.004-.083.006-.078.006-.074.007-.069.008-.065.008-.06.009-.055.009-.051.009-.045.009-.039.009-.035.009-.028.009-.023.023-.053.023-.049.023-.044.023-.04.023-.035.023-.031.024-.026.023-.023.024-.019.012-.007.012-.007.012-.006.012-.005.012-.004.013-.003.012-.003.012-.001h.026l.012.001.013.003.013.003.013.003.013.005.013.005.027.014.027.016.028.019.028.022.028.025.03.027.029.03.031.033.031.035.063.076.067.085.07.093.073.099.076.105.164.226.087.119.092.122.097.124.101.126.052.063.054.063.054.064.056.063.058.063.058.062.061.062.061.062.063.061.064.061.066.059.067.059.069.058.07.056.072.056.073.054.056.039.058.038.059.037.061.035.062.034.064.033.065.032.067.03.067.029.069.029.07.027.07.025.072.025.072.024.073.022.073.022.074.02.075.02.075.018.075.017.075.016.075.016.076.014.075.013.075.013.075.011.075.01.074.01.074.009.073.008.073.006.072.007.071.005.071.004.069.004.068.002.068.002.066.002h.128l.062-.001.06-.002.059-.003.057-.003.055-.004.054-.004.051-.005.05-.006.047-.006.045-.007.043-.008.041-.008.038-.009.036-.009.033-.01.031-.011.027-.01.025-.012.022-.012.019-.012.016-.013.013-.013.009-.014.006-.014.017-.052.018-.051.039-.103.041-.101.042-.101.046-.109.046-.109.049-.108.049-.108.051-.107.053-.106.053-.107.055-.105.057-.105.057-.105.059-.104.06-.104.062-.103.063-.102.064-.102.065-.101.067-.101.067-.1.07-.1.07-.099.071-.098.073-.098.074-.097.075-.097.077-.096.077-.095.079-.095.08-.094.081-.094.082-.093.083-.092.085-.091.085-.091.087-.091.088-.089.089-.089.09-.088.091-.088.092-.087.094-.086.094-.085.095-.085.097-.084.097-.083.099-.083.099-.081.101-.081.102-.081.102-.079.104-.079.105-.078.105-.077.107-.077.107-.075.109-.075.109-.074.111-.073.111-.073.112-.071.113-.071.114-.07.115-.069.116-.069.117-.067.117-.067.119-.065.119-.065.121-.064.121-.063.122-.062.122-.062.124-.06.124-.06.125-.058.126-.058.127-.057.128-.056.128-.055.129-.054.13-.053.131-.052.131-.051.132-.05.133-.049.133-.049.135-.047.135-.046.135-.045.137-.045.137-.043.137-.042.139-.041.139-.041.139-.039.141-.038.141-.037.141-.036.142-.035.143-.034.144-.033.144-.032.144-.031.145-.029.146-.029.146-.027.147-.027.148-.025.148-.024.148-.023.149-.022.15-.021.15-.019.15-.019.151-.017.152-.016.152-.015.152-.014.153-.013.154-.012.153-.01.155-.009.154-.008.155-.007.156-.005.156-.004.156-.004.157-.001L16 2l.194.001.193.003.192.004.192.007.192.008.19.011.19.012.19.013.188.016.188.017.188.02.186.021.186.022.185.025.184.026.183.028.183.029.182.032.181.033.18.034.179.037.178.038.178.039.176.041.176.043.175.045.174.046.172.047.172.049.171.051.17.053.168.053.168.056.167.057.165.058.165.06.163.061.162.063.161.064.16.066.159.067.158.069.156.07.156.071.154.073.152.074.152.075.15.077.149.078.148.08.146.081.145.082.144.083.142.085.141.086.14.087.138.089.137.09.136.091.133.092.133.093.131.095.129.096.129.097.126.098.125.099.123.101.122.101.121.103.118.104.117.105.116.106.114.107.112.108.111.109.108.11.108.111.105.113.104.113.102.114.1.115.099.116.096.118.095.118.093.119.091.12.09.121.087.121.086.123.084.123.082.125.08.125.078.126.076.127.074.128.072.128.071.13.068.13.066.131.064.132.062.132.06.133.058.134.056.135.054.135.052.136.049.137.047.137.046.138.043.139.04.14.039.14.036.14.035.141.031.142.03.143.027.143.025.143.023.144.02.145.019.145.015.146.014.146.01.147.009.147.006.147.004.148.001.149-.001.149zm-1.524-.289l-.003-.14-.006-.139-.008-.139-.011-.138-.012-.138-.015-.138-.017-.136-.019-.137-.022-.136-.023-.135-.026-.134-.028-.135-.03-.133-.032-.133-.034-.132-.036-.132-.039-.131-.04-.131-.043-.129-.044-.13-.047-.128-.048-.128-.051-.127-.052-.126-.055-.126-.056-.125-.058-.124-.06-.124-.062-.122-.064-.122-.066-.121-.068-.121-.069-.119-.071-.119-.073-.118-.075-.117-.076-.116-.079-.115-.08-.115-.081-.114-.084-.112-.085-.112-.086-.111-.089-.11-.09-.109-.091-.108-.093-.107-.095-.106-.096-.105-.098-.104-.1-.103-.1-.102-.103-.101-.103-.1-.106-.099-.106-.098-.108-.097-.11-.095-.111-.095-.112-.094-.113-.092-.115-.091-.117-.09-.117-.089-.119-.088-.12-.087-.121-.085-.122-.085-.124-.083-.125-.082-.126-.08-.127-.08-.128-.078-.129-.077-.131-.076-.131-.074-.133-.073-.133-.072-.135-.071-.135-.069-.137-.068-.137-.067-.139-.065-.139-.064-.141-.063-.141-.062-.142-.06-.143-.058-.143-.058-.145-.056-.145-.054-.146-.053-.147-.052-.148-.051-.149-.049-.149-.047-.15-.046-.15-.045-.152-.043-.152-.042-.152-.041-.154-.039-.154-.037-.154-.036-.156-.035-.156-.033-.156-.032-.157-.03-.158-.029-.158-.027-.159-.026-.16-.024-.16-.023-.16-.021-.161-.02-.162-.018-.163-.017-.162-.015-.164-.013-.164-.012-.165-.011-.165-.009-.165-.007-.167-.005-.167-.005-.167-.002-.169-.001-.135.001-.136.001-.136.003-.135.004-.134.005-.135.005-.134.007-.133.008-.134.009-.132.01-.133.011-.132.012-.132.013-.131.014-.131.015-.131.016-.13.017-.13.018-.13.019-.129.02-.129.021-.128.022-.128.023-.127.024-.128.025-.126.026-.127.027-.126.028-.125.029-.126.029-.124.031-.125.032-.123.032-.124.034-.123.035-.122.035-.122.036-.122.038-.121.038-.121.039-.12.04-.119.041-.12.042-.118.043-.118.044-.118.044-.117.046-.117.046-.116.048-.115.048-.115.049-.114.05-.114.051-.113.052-.112.053-.112.053-.111.055-.111.055-.11.056-.109.057-.109.058-.108.058-.107.06-.107.06-.106.061-.105.062-.104.063-.104.064-.103.064-.102.066-.102.066-.1.066-.1.068-.1.069-.098.069-.097.07-.097.07-.096.072-.095.072-.094.073-.094.074-.092.074-.092.076-.091.076-.09.076-.088.078-.089.078-.087.079-.086.079-.085.081-.084.081-.084.081-.082.082-.081.083-.081.084-.079.084-.079.085-.077.086-.076.086-.076.087-.074.088-.073.088-.072.089-.071.089-.07.09-.069.091-.068.091-.067.092-.065.092-.065.093-.063.094-.062.094-.061.094-.06.096-.059.095-.057.097-.057.097-.055.097-.054.098-.053.098-.051.099-.05.1-.05.1-.047.1-.047.101-.045.102-.044.101-.044.105-.04.098-.038.094-.034.09-.014.038-.024.073-.042.096-.082.119-.102.106-.112.091-.118.077-.12.064-.117.054-.114.045-.111.037-.107.032-.104.027-.1.023-.099.02-.097.017-.095.015-.094.013-.093.011-.093.009-.093.008-.093.006-.093.006-.093.003-.093.003-.095.002H.471l-.096-.002-.097-.003-.097-.004-.098-.005-.099-.006-.099-.007-.101-.009-.1-.009-.102-.011-.102-.012-.102-.013-.103-.015-.104-.016-.104-.017-.104-.018-.105-.02-.105-.021-.105-.023-.106-.024-.105-.026-.106-.027-.105-.029-.105-.031-.105-.032-.104-.035-.104-.036-.104-.037-.102-.04-.102-.042-.101-.044-.099-.045-.098-.048-.097-.05-.068-.037.038.101.049.12.052.12.057.123.028.058.031.06.031.06.033.06.033.06.034.06.036.059.036.059.037.059.039.059.039.059.041.058.041.059.043.057.044.058.045.057.045.057.047.056.048.057.05.055.05.056.051.054.053.055.054.054.055.053.056.053.057.053.058.052.059.051.061.051.062.05.063.05.064.049.066.049.067.048.068.047.069.047.07.046.072.045.073.045.075.044.075.044.077.042.079.043.08.041.081.041.083.04.084.039.086.039.087.038.089.037.09.037.092.035.099.037.455.167.369.135.161.06.147.056.139.055.127.054.072.032.068.032.07.034.07.038.073.042.074.047.074.051.072.058.069.062.063.066.055.069.046.068.036.067.027.063.019.058.011.043.029.13.029.12.03.118.032.119.034.118.036.117.037.117.039.116.04.116.042.115.044.115.045.114.046.114.049.113.05.112.051.112.053.111.055.111.056.11.057.109.059.109.061.108.062.107.063.107.065.106.066.105.068.105.069.104.071.104.072.102.073.102.075.101.076.101.077.1.079.099.08.098.081.097.083.097.083.096.085.095.087.095.087.093.089.093.09.092.092.091.092.09.094.09.094.088.096.088.097.087.098.086.1.085.1.084.102.083.102.083.104.081.104.081.106.079.107.079.108.078.108.077.11.076.111.074.111.074.113.073.113.072.115.071.115.07.116.069.117.068.118.067.119.066.119.065.121.064.121.063.122.062.123.06.123.06.125.059.125.057.125.057.127.055.127.054.128.054.129.052.129.051.13.05.131.048.131.048.132.047.132.045.133.044.134.044.134.042.135.041.135.039.136.039.137.037.137.037.137.035.139.034.138.032.139.032.14.03.14.03.141.028.141.027.142.025.142.025.142.023.143.022.144.021.144.019.144.019.145.017.145.016.146.015.146.013.147.012.147.011.148.01.148.008.149.007.149.006.149.005.15.003.15.002.15.001.169-.001.167-.002.167-.005.167-.005.165-.007.165-.009.165-.011.164-.012.163-.013.163-.015.163-.017.162-.018.161-.02.16-.021.16-.023.16-.024.159-.026.158-.027.158-.029.157-.03.157-.032.155-.033.156-.035.154-.036.154-.037.154-.039.152-.041.152-.042.152-.043.15-.045.15-.046.149-.047.149-.049.148-.051.147-.052.146-.053.145-.054.145-.056.143-.058.143-.058.142-.06.141-.062.141-.063.139-.064.139-.065.137-.067.137-.068.135-.069.135-.071.133-.072.133-.073.131-.074.131-.076.129-.077.128-.078.127-.08.126-.08.125-.082.124-.083.122-.085.121-.085.12-.087.119-.088.117-.089.117-.09.115-.091.113-.092.112-.094.111-.095.11-.095.108-.097.106-.098.106-.099.103-.1.103-.101.1-.102.1-.103.098-.104.096-.105.095-.106.093-.107.091-.108.09-.109.089-.11.086-.111.085-.112.084-.112.081-.114.08-.115.079-.115.076-.116.075-.117.073-.118.071-.119.069-.119.068-.121.066-.121.064-.122.062-.122.06-.124.058-.124.056-.125.055-.126.052-.126.051-.127.048-.128.047-.128.044-.13.043-.129.04-.131.039-.131.036-.132.034-.132.032-.133.03-.133.028-.135.026-.134.023-.135.022-.136.019-.137.017-.136.015-.138.012-.138.011-.138.008-.139.006-.139.003-.14.001-.14-.001-.14z" fill="#4a7bcb" fill-opacity=".67"/></g><defs><linearGradient id="_Linear1" x1="0" y1="0" x2="1" y2="0" gradientUnits="userSpaceOnUse" gradientTransform="matrix(30 0 0 23 1 2)"><stop offset="0" stop-color="#82abfc"/><stop offset=".16" stop-color="#449cff"/><stop offset=".48" stop-color="#229fff"/><stop offset=".55" stop-color="#92c0ff"/><stop offset="1" stop-color="#bde6ff"/></linearGradient></defs></svg>