<svg width="32" height="32" xmlns="http://www.w3.org/2000/svg" fill-rule="evenodd" clip-rule="evenodd" stroke-linejoin="round" stroke-miterlimit="2"><path d="M16 2c8.279 0 15 5.153 15 11.5S24.279 25 16 25c-7.431 0-13.607-4.151-14.794-9.591-.04-.184-.241-.237-1.611-.74-5.021-1.84-4.484-6.326-4.309-6.749.489-1.188.973.882 2.556 2.026 1.174.848 3.594.817 3.689.512.044-.139.102-.273.157-.408C3.601 5.386 9.289 2 16 2z" fill="url(#_Linear1)" transform="matrix(0 -.7 1.21739 0 -.935 24.2)"/><path d="M15.681 2.5l.18.004.18.004.178.006.18.007.177.01.178.01.176.014.177.014.175.016.174.017.174.02.175.02.172.022.172.024.17.026.17.027.171.028.17.03.168.032.166.033.167.034.166.037.164.038.164.039.163.04.162.042.161.044.16.045.16.046.159.047.158.05.156.05.155.052.155.053.153.055.153.056.152.057.15.06.15.06.147.06.147.063.146.064.145.065.143.067.144.067.141.07.14.07.14.07.137.073.137.074.135.075.134.076.133.078.131.078.13.08.13.081.128.082.126.083.126.084.123.086.123.086.12.087.12.088.117.09.117.091.116.092.113.093.112.093.111.095.11.096.108.097.106.098.104.098.104.1.101.1.1.102.098.102.098.104.095.104.094.105.09.107.09.106.09.108.086.109.085.11.084.11.082.111.08.112.078.113.077.113.074.114.073.116.07.115.07.117.068.118.065.117.064.12.063.12.06.12.056.12.056.122.055.122.053.123.05.124.047.124.046.125.045.125.042.126.04.127.039.127.035.128.034.128.032.13.03.129.027.13.026.13.024.132.02.131.02.132.016.133.015.133.013.133.01.134.008.135.005.134.004.135.001.136-.001.122-.003.12-.005.122-.006.121-.008.12-.01.12-.012.12-.013.12-.016.119-.017.118-.019.118-.02.118-.022.117-.025.117-.025.116-.028.116-.03.116-.03.115-.033.115-.034.114-.036.114-.037.113-.04.112-.04.113-.043.112-.044.11-.045.112-.047.11-.049.11-.05.109-.052.108-.054.108-.054.108-.056.107-.059.107-.058.105-.061.105-.063.105-.064.104-.065.103-.067.103-.069.102-.069.101-.07.101-.074.101-.074.1-.074.098-.077.098-.079.098-.08.097-.08.096-.081.095-.084.095-.085.094-.085.093-.088.093-.089.092-.09.09-.091.091-.093.09-.094.088-.095.088-.096.087-.097.087-.099.086-.1.084-.1.084-.103.084-.103.082-.104.081-.106.081-.107.08-.108.079-.109.078-.11.077-.111.076-.113.075-.114.075-.114.074-.116.073-.117.071-.118.07-.118.07-.119.07-.122.068-.122.067-.122.066-.123.065-.126.064-.125.063-.127.063-.128.06-.127.06-.13.06-.131.058-.131.058-.132.056-.134.054-.134.054-.134.054-.136.051-.136.05-.138.05-.138.05-.138.046-.14.047-.142.045-.14.044-.142.044-.144.042-.143.04-.144.04-.146.038-.145.037-.147.036-.147.035-.148.034-.148.032-.15.032-.15.03-.15.028-.152.028-.152.026-.152.026-.153.023-.154.023-.154.021-.155.02-.02.004-.021.004-.019.004-.018.006-.018.007-.018.008-.017.01-.019.011-.017.013-.018.014-.018.017-.02.019-.02.021-.019.023-.022.026-.022.029-.047.065-.052.077-.061.09-.067.104-.162.254-.206.322-.052.082-.055.08-.055.08-.057.077-.057.076-.059.074-.06.074-.06.072-.062.07-.062.07-.064.068-.064.067-.066.065-.067.065-.067.063-.068.061-.068.061-.07.059-.07.058-.07.057-.073.056-.073.054-.073.054-.073.051-.075.051-.074.05-.076.05-.077.047-.076.047-.077.045-.078.044-.078.044-.078.042-.079.042-.08.04-.08.039-.08.038-.079.037-.081.037-.08.036-.082.034-.082.033-.081.033-.082.031-.082.03-.081.031-.083.029-.082.028-.082.027-.082.027-.083.025-.081.024-.083.025-.083.023-.163.043-.164.042-.162.037-.162.035-.162.033-.16.029-.158.027-.156.025-.154.022-.154.02-.15.018-.148.015-.146.014-.142.012-.14.01-.137.008-.134.006-.129.006-.126.003-.123.002-.118.002-.114-.001h-.11l-.104-.003-.1-.003-.096-.004-.09-.004-.084-.005-.079-.006-.073-.005-.067-.006-.062-.007-.055-.006-.047-.006-.043-.007-.034-.006-.028-.006-.065-.016-.06-.016-.053-.017-.048-.016-.043-.016-.038-.016-.031-.017-.028-.016-.024-.017-.008-.008-.009-.008-.007-.009-.006-.008-.005-.009-.004-.009-.003-.008-.001-.008v-.027l.004-.01.004-.008.004-.01.006-.008.006-.01.017-.018.02-.02.023-.019.026-.02.03-.02.034-.02.036-.02.04-.022.043-.022.092-.044.104-.047.113-.049.12-.05.129-.054.275-.115.145-.06.148-.065.151-.068.153-.07.077-.037.077-.038.078-.038.076-.039.077-.04.076-.041.075-.043.076-.043.074-.044.074-.045.072-.046.072-.047.07-.048.068-.049.069-.05.065-.051.048-.04.046-.04.045-.042.043-.042.041-.044.04-.044.04-.046.036-.047.035-.047.035-.048.033-.049.03-.049.031-.05.03-.05.026-.052.027-.051.024-.052.025-.052.022-.053.02-.052.02-.053.02-.052.016-.054.016-.052.016-.053.013-.052.012-.053.013-.051.01-.052.01-.051.008-.051.008-.05.006-.05.005-.05.005-.048.002-.048.003-.048.002-.046v-.133l-.003-.042-.004-.041-.004-.04-.005-.039-.004-.037-.006-.036-.008-.035-.007-.033-.009-.031-.01-.03-.01-.03-.01-.026-.011-.025-.012-.023-.014-.022-.012-.019-.014-.017-.015-.016-.015-.013-.015-.011-.016-.01-.017-.006-.017-.004-.064-.012-.062-.012-.125-.028-.123-.028-.123-.03-.133-.032-.132-.032-.132-.034-.131-.035-.13-.035-.13-.037-.13-.037-.128-.039-.128-.04-.127-.04-.127-.041-.127-.042-.125-.043-.124-.045-.124-.044-.123-.046-.123-.047-.122-.047-.122-.049-.12-.049-.12-.05-.119-.05-.118-.052-.118-.053-.117-.054-.116-.054-.115-.055-.115-.056-.114-.057-.113-.057-.112-.058-.111-.06-.11-.06-.112-.06-.108-.062-.108-.062-.107-.063-.108-.064-.106-.064-.104-.066-.104-.066-.103-.066-.102-.068-.101-.068-.102-.07-.098-.068-.099-.071-.098-.072-.097-.071-.096-.073-.095-.073-.093-.074-.094-.075-.091-.075-.092-.076-.09-.076-.089-.078-.089-.078-.086-.078-.086-.08-.086-.079-.084-.08-.084-.082-.081-.081-.082-.082-.079-.084-.079-.083-.078-.085-.077-.084-.075-.086-.076-.085-.073-.087-.073-.087-.07-.087-.07-.088-.07-.09-.068-.089-.067-.09-.066-.09-.065-.09-.063-.093-.062-.091-.061-.093-.06-.093-.06-.093-.056-.094-.056-.095-.055-.094-.055-.096-.052-.096-.052-.096-.05-.097-.05-.098-.047-.097-.046-.099-.045-.098-.044-.1-.043-.098-.041-.1-.04-.101-.04-.101-.037-.101-.035-.101-.035-.103-.033-.102-.033-.103-.03-.103-.03-.104-.028-.104-.027-.104-.025-.105-.023-.105-.023-.105-.021-.106-.02-.106-.018-.106-.017-.107-.016-.107-.014-.108-.013-.107-.01-.108-.01-.108-.009-.109-.006-.109-.005-.109-.005-.11v-.11L1.5 13l.001-.136.004-.135.005-.134.008-.135.01-.134.013-.133.015-.133.016-.133.02-.132.02-.131.024-.132.026-.13.027-.13.03-.13.032-.129.034-.128.035-.128.04-.127.04-.127.04-.126.046-.125.046-.125.047-.124.05-.124.053-.123.055-.122.056-.122.057-.12.06-.12.061-.12.065-.12.065-.117.068-.118.07-.117.07-.115.073-.116.074-.114.077-.113.078-.113.08-.112.082-.111.084-.11.085-.11.086-.11.089-.107.09-.106.091-.107.094-.105.095-.104.098-.104.098-.102.1-.101.101-.101.103-.1.105-.098.106-.098.108-.097.11-.096.11-.095.113-.093.113-.093.116-.092.117-.09.118-.09.119-.089.12-.087.123-.086.123-.086.126-.084.126-.083.128-.082.13-.081.13-.08.13-.078.134-.078.134-.076.135-.075.137-.074.138-.072.139-.072.14-.07.14-.07.144-.066.144-.067.145-.065.146-.064.147-.063.148-.06.15-.06.15-.06.151-.057.153-.056.153-.055.155-.053.155-.052.156-.05.158-.05.159-.047.16-.046.16-.045.16-.044.162-.042.164-.04.164-.04.164-.037.166-.037.167-.034.166-.033.168-.032.17-.03.17-.028.17-.027.17-.026.173-.024.172-.022.175-.02.174-.02.174-.017.175-.016.177-.014.176-.014.178-.01.178-.01.179-.007.178-.006.18-.004.18-.003.181-.001h.181zm-.351 1.067l-.17.003-.17.004-.17.005-.167.008-.168.009-.168.01-.166.012-.167.013-.165.016-.165.016-.163.018-.164.02-.162.02-.162.023-.16.024-.161.025-.16.027-.16.028-.156.03-.159.031-.155.033-.156.034-.155.035-.153.037-.154.038-.152.04-.15.04-.152.042-.148.043-.149.045-.147.046-.147.048-.145.048-.145.05-.144.051-.142.053-.141.053-.14.055-.14.056-.14.057-.135.059-.137.06-.135.06-.134.062-.133.063-.131.063-.13.065-.13.067-.127.067-.127.069-.125.07-.124.07-.123.072-.122.072-.12.074-.12.074-.118.076-.116.077-.115.078-.115.078-.112.08-.11.08-.11.081-.108.082-.108.084-.105.084-.104.084-.103.086-.101.087-.1.087-.098.088-.097.09-.095.089-.094.09-.092.092-.09.092-.09.093-.087.093-.086.094-.084.095-.083.096-.082.096-.079.097-.078.097-.076.099-.076.098-.073.1-.07.1-.071.1-.068.102-.066.101-.065.102-.063.103-.062.104-.06.104-.057.104-.056.105-.055.105-.052.107-.051.106-.05.107-.047.107-.046.108-.043.108-.043.11-.04.108-.04.11-.036.11-.035.11-.033.11-.031.112-.03.112-.028.112-.025.112-.025.113-.021.113-.021.114-.018.114-.016.114-.015.115-.013.116-.011.115-.009.116-.006.117-.006.116-.002.117-.002.119.002.094v.095l.005.096.004.094.006.094.007.094.008.094.01.093.01.094.013.092.013.094.015.092.016.092.017.092.018.092.02.091.02.091.022.091.023.091.025.09.025.091.027.09.028.09.03.088.03.09.031.088.033.089.034.088.036.088.035.088.038.087.039.087.039.086.04.087.044.086.042.085.044.086.046.085.046.085.048.085.049.084.05.083.05.084.053.083.054.082.053.083.056.082.056.082.059.08.058.081.06.08.06.08.063.08.063.08.064.078.065.078.067.078.067.078.068.077.07.076.07.076.07.076.074.075.073.075.074.074.076.073.076.073.078.073.078.072.08.071.08.072.081.07.083.07.084.07.084.068.085.068.085.068.088.067.088.067.088.066.09.066.09.064.093.064.093.064.092.063.095.062.095.062.096.06.096.061.1.06.098.058.098.06.1.057.101.056.102.057.103.055.103.056.105.053.105.054.105.053.108.052.107.05.108.051.108.05.11.049.11.048.112.048.112.047.112.045.113.046.114.044.115.043.114.043.117.042.116.041.118.04.118.04.118.038.12.038.118.037.121.036.122.035.121.035.122.033.123.033.124.031.123.031.128.031.12.028.114.027.11.023.046.01.089.017.116.03.145.057.13.071.11.079.094.082.078.084.066.082.054.08.045.078.04.074.032.073.028.07.025.07.02.067.018.067.016.066.014.065.01.065.01.065.008.065.007.065.004.065.003.065.003.067v.132l-.003.067-.003.068-.005.068-.006.069-.008.07-.008.069-.011.07-.011.07-.013.072-.015.071-.016.071-.018.072-.02.073-.02.073-.022.073-.025.073-.025.074-.028.073-.03.075-.031.073-.033.074-.035.074-.038.073-.039.074-.042.073-.044.072-.045.073-.05.072-.05.071-.054.07-.055.07-.058.069-.06.068-.046.047.123-.026.146-.035.146-.036.15-.04.07-.02.074-.021.073-.022.073-.023.073-.023.073-.024.072-.025.071-.025.072-.026.072-.028.072-.027.07-.029.072-.028.07-.03.07-.031.07-.032.07-.031.067-.033.07-.034.067-.035.068-.035.066-.036.067-.037.065-.037.065-.039.064-.04.065-.039.063-.04.062-.042.062-.043.061-.043.061-.044.06-.045.06-.046.058-.047.057-.048.057-.048.056-.049.055-.05.055-.051.053-.053.054-.052.051-.054.052-.056.05-.056.05-.056.049-.058.047-.06.048-.06.046-.06.045-.063.045-.063.043-.064.045-.07.203-.318.165-.258.073-.113.068-.103.067-.097.065-.089.04-.05.038-.048.042-.049.046-.049.051-.051.057-.052.062-.052.071-.05.076-.048.08-.044.084-.039.083-.032.081-.025.077-.02.07-.012.053-.008.158-.02.146-.02.144-.022.145-.022.143-.024.143-.025.142-.026.142-.027.14-.028.14-.03.14-.03.14-.032.138-.032.138-.035.136-.035.137-.035.135-.037.135-.039.134-.04.132-.039.133-.041.132-.043.13-.043.13-.044.13-.046.127-.046.128-.048.126-.048.127-.05.124-.05.124-.051.123-.053.123-.053.122-.054.12-.055.12-.056.118-.057.118-.058.117-.058.116-.06.115-.06.113-.061.114-.063.112-.063.11-.064.11-.064.11-.066.107-.066.107-.067.106-.068.104-.069.104-.07.102-.07.101-.071.101-.072.099-.072.098-.073.097-.074.096-.075.095-.076.093-.075.093-.077.09-.078.09-.078.09-.079.087-.08.086-.08.085-.08.084-.081.083-.082.082-.083.08-.083.08-.083.077-.085.077-.085.075-.085.073-.086.073-.086.072-.088.07-.087.069-.088.067-.089.066-.089.065-.09.064-.09.062-.09.06-.09.06-.093.058-.091.057-.093.055-.092.053-.093.054-.094.05-.094.05-.094.048-.095.048-.095.045-.096.045-.096.042-.096.042-.097.039-.097.039-.097.036-.098.037-.098.034-.099.033-.098.03-.1.03-.1.029-.098.026-.1.026-.101.023-.101.023-.101.02-.101.02-.102.019-.102.015-.102.015-.103.013-.103.013-.104.01-.103.008-.105.007-.104.006-.104.004-.105.002-.105.002-.105-.002-.119-.002-.116-.006-.117-.006-.117-.009-.116-.01-.115-.014-.116-.015-.115-.016-.114-.018-.114-.02-.114-.022-.113-.025-.113-.025-.112-.028-.112-.03-.112-.031-.111-.033-.11-.035-.111-.037-.11-.039-.11-.04-.109-.043-.109-.044-.108-.045-.108-.047-.107-.05-.107-.051-.106-.052-.107-.055-.105-.056-.105-.057-.104-.06-.104-.062-.104-.063-.103-.065-.102-.066-.101-.068-.102-.07-.1-.071-.1-.073-.1-.076-.098-.076-.099-.078-.097-.08-.097-.08-.096-.084-.096-.084-.095-.086-.094-.088-.093-.089-.093-.09-.092-.092-.092-.094-.09-.095-.09-.097-.089-.098-.088-.1-.087-.1-.087-.104-.086-.104-.084-.106-.084-.107-.084-.108-.081-.11-.082-.11-.08-.112-.08-.115-.078-.115-.078-.116-.077-.118-.076-.12-.074-.12-.074-.122-.072-.123-.072-.124-.07-.125-.07-.127-.069-.128-.067-.129-.067-.13-.065-.131-.063-.133-.063-.134-.063-.135-.06-.137-.06-.136-.058-.139-.057-.14-.056-.14-.055-.14-.053-.143-.053-.144-.051-.145-.05-.145-.048-.147-.048-.147-.046-.149-.045-.148-.043-.151-.042-.151-.04-.152-.04-.154-.038-.153-.037-.155-.035-.156-.034-.155-.033-.159-.03-.157-.03-.16-.029-.159-.027-.16-.025-.161-.024-.162-.022-.162-.021-.164-.02-.163-.018-.165-.016-.165-.016-.167-.013-.166-.012-.168-.01-.168-.009-.168-.008-.169-.005-.17-.004-.17-.002-.17-.001h-.17z" fill="#4a7bcb" fill-opacity=".67"/><path d="M25 9a1 1 0 00-1-1H4a1 1 0 00-1 1v2a1 1 0 001 1h13.128l1.932 3 1.212-3H24a1 1 0 001-1V9zM29 18a1 1 0 00-1-1H8a1 1 0 00-1 1v2a1 1 0 001 1h13.128l1.932 3 1.212-3H28a1 1 0 001-1v-2z" fill="#4a7bcb"/><path d="M25 24a1 1 0 00-1-1H4a1 1 0 00-1 1v2a1 1 0 001 1h13.128l1.932 3 1.212-3H24a1 1 0 001-1v-2z" fill="url(#_Radial2)" transform="translate(-1 -16)"/><path d="M25 24a1 1 0 00-1-1H4a1 1 0 00-1 1v2a1 1 0 001 1h13.128l1.932 3 1.212-3H24a1 1 0 001-1v-2z" fill="url(#_Radial3)" transform="translate(3 -7)"/><defs><radialGradient id="_Radial2" cx="0" cy="0" r="1" gradientUnits="userSpaceOnUse" gradientTransform="matrix(22 0 0 22 3 26.5)"><stop offset="0" stop-color="#fefff6"/><stop offset=".2" stop-color="#fffffd"/><stop offset=".45" stop-color="#fff"/><stop offset="1" stop-color="#fdfff8"/></radialGradient><radialGradient id="_Radial3" cx="0" cy="0" r="1" gradientUnits="userSpaceOnUse" gradientTransform="matrix(22 0 0 22 3 26.5)"><stop offset="0" stop-color="#fefff6"/><stop offset=".2" stop-color="#fffffd"/><stop offset=".45" stop-color="#fff"/><stop offset="1" stop-color="#fdfff8"/></radialGradient><linearGradient id="_Linear1" x1="0" y1="0" x2="1" y2="0" gradientUnits="userSpaceOnUse" gradientTransform="matrix(30 0 0 23 1 2)"><stop offset="0" stop-color="#82abfc"/><stop offset=".16" stop-color="#449cff"/><stop offset=".48" stop-color="#229fff"/><stop offset=".55" stop-color="#92c0ff"/><stop offset="1" stop-color="#bde6ff"/></linearGradient></defs></svg>