<svg width="16" height="16" xmlns="http://www.w3.org/2000/svg" fill-rule="evenodd" clip-rule="evenodd" stroke-linejoin="round" stroke-miterlimit="2"><path d="M9.725 12.089l.71 2.65a.704.704 0 01-.494.856.704.704 0 01-.855-.494l-.668-2.472a4.198 4.198 0 01-2.392-.16l3.14-5.436a.704.704 0 00-.257-.957.704.704 0 00-.957.256l-3.14 5.437A4.195 4.195 0 013.48 9.777l-2.475.658a.704.704 0 01-.856-.494.704.704 0 01.494-.855l2.651-.71c.016-.469.11-.931.28-1.368L1.71 5.933a.704.704 0 01-.256-.958.704.704 0 01.957-.256l1.82 1.051.908-1.572L4.35 1.26a.704.704 0 01.494-.855.704.704 0 01.856.494l.538 2.01 6.747 3.895 2.01-.539a.704.704 0 01.856.494.704.704 0 01-.494.856l-2.938.787-.908 1.572 1.82 1.05a.704.704 0 01.257.958.704.704 0 01-.957.256l-1.863-1.075a4.1 4.1 0 01-1.044.926zm3.282-6.106L6.94 2.48a3.52 3.52 0 014.785-1.282 3.52 3.52 0 011.282 4.785z" fill-rule="nonzero"/></svg>