<svg width="16" height="16" xmlns="http://www.w3.org/2000/svg" fill-rule="evenodd" clip-rule="evenodd" stroke-linejoin="round" stroke-miterlimit="2"><path d="M7.97 0a3.19 3.19 0 00-3.18 3.18V1.92H3.51V.64H.33l-.02.62s-.007.47.04 1.02C.398 2.824.449 3.452.81 4l.02.02c.206.303.493.584.92 1 .427.416.956.896 1.46 1.36.81.744 1.306 1.174 1.58 1.42l-.02 4.06L2.81 9.9c.16-.107.3-.232.4-.38.3-.441.3-.89.3-1.2H2.23c0 .25-.04.441-.08.5-.029.043-.068.093-.26.12-.002-.003-.017.003-.02 0-.354-.427-.312-.678-.22-.92.107-.28.34-.48.34-.48l-.8-1s-.473.373-.72 1.02c-.246.647-.183 1.657.66 2.5l3.84 3.84a3.21 3.21 0 003 2.1h.02a3.19 3.19 0 003.18-3.18v-4.3l.14.18.02.02c.775.943 1.696 1.33 2.4 1.44.704.11 1.26-.04 1.26-.04l.7-.2-.3-.68-1.06-2.46-.02-.06-.04-.06-3.28-4.52C10.557.9 9.395 0 8.01 0h-.04zm0 1.28h.04c1.052 0 1.9.85 1.9 1.9l-.02 9.64c0 1.051-.85 1.9-1.9 1.9h-.02c-1.05 0-1.92-.85-1.92-1.9l.02-9.64c0-1.05.85-1.9 1.9-1.9zm-6.36.64h.62V3.2h1.28v1.28h1.28v1.6c-.308-.279-.353-.302-.72-.64A69.5 69.5 0 012.65 4.1c-.41-.4-.759-.77-.78-.8-.077-.114-.22-.67-.26-1.14-.01-.13.005-.128 0-.24zm9.58 2.68l2.02 2.8.02.02.62 1.46c-.43-.08-.96-.294-1.5-.94-.007-.01-.012-.011-.02-.02L11.19 6.4V4.6zm-3.84 6.28v.64h-.64v1.28h.64v.64h1.28v-.64h.64v-1.28h-.64v-.64H7.35z" fill-rule="nonzero"/></svg>