<svg width="16" height="16" xmlns="http://www.w3.org/2000/svg" fill-rule="evenodd" clip-rule="evenodd" stroke-linejoin="round" stroke-miterlimit="2"><path d="M4.308 1A4.317 4.317 0 000 5.308v7.384c0 1.013.833 1.846 1.846 1.846h12.308A1.855 1.855 0 0016 12.692V4.077a1.855 1.855 0 00-1.846-1.846H7.31A4.288 4.288 0 004.308 1zm0 1.23a3.067 3.067 0 013.077 3.078 3.067 3.067 0 01-3.077 3.077A3.067 3.067 0 011.23 5.308 3.067 3.067 0 014.308 2.23zm-.616 1.232v2.461h2.462v-1.23h-1.23V3.461H3.691zm4.49 0h5.972c.346 0 .615.27.615.615v8.615c0 .346-.27.616-.615.616h-1.846v-1.231H8.615v1.23H1.846a.608.608 0 01-.615-.615V8.31a4.285 4.285 0 003.077 1.305 4.317 4.317 0 004.307-4.307c0-.664-.162-1.284-.433-1.846z" fill-rule="nonzero"/></svg>