<svg width="16" height="16" xmlns="http://www.w3.org/2000/svg" fill-rule="evenodd" clip-rule="evenodd" stroke-linecap="round" stroke-linejoin="bevel" stroke-miterlimit="2"><path d="M16 7.093A2.094 2.094 0 0013.907 5H2.093A2.094 2.094 0 000 7.093v6.814C0 15.062.938 16 2.093 16h11.814A2.094 2.094 0 0016 13.907V7.093z" fill="url(#_Radial1)"/><clipPath id="a"><path d="M16 7.093A2.094 2.094 0 0013.907 5H2.093A2.094 2.094 0 000 7.093v6.814C0 15.062.938 16 2.093 16h11.814A2.094 2.094 0 0016 13.907V7.093z"/></clipPath><g clip-path="url(#a)"><path d="M16 7.793L14.027 6H1.973L0 7.793v6.414L1.973 16h12.054L16 14.207V7.793zM.496 7.343l6.516 6.384 2.006.007 6.505-6.374m-.514 7.748l-3.835-3.486m-6.308.003l-3.852 3.503" fill="none" stroke="#000" stroke-width=".95" transform="matrix(1 0 0 1.1 0 -1.6)"/></g><path d="M13.961 5.001l.054.002.053.003.053.005.052.006.053.007.051.009.052.01.05.011.051.012.05.013.049.015.049.016.048.017.048.018.047.02.047.02.046.022.045.022.045.024.044.024.044.026.043.027.042.028.041.028.041.03.04.031.039.031.038.033.038.033.037.034.036.035.035.036.034.037.033.038.033.038.031.039.031.04.03.041.028.041.028.042.027.043.026.044.024.044.024.045.022.045.022.046.02.047.02.047.018.048.017.048.016.049.015.049.013.05.012.051.011.05.01.052.009.051.007.053.006.052.005.053.003.053.002.054.001.054v6.814l-.001.054-.002.054-.003.053-.005.053-.006.052-.007.053-.009.051-.01.052-.011.05-.012.051-.013.05-.015.049-.016.049-.017.048-.018.048-.02.047-.02.047-.022.046-.022.045-.024.045-.024.044-.026.044-.027.043-.028.042-.028.041-.03.041-.031.04-.031.039-.033.038-.033.038-.034.037-.035.036-.036.035-.037.034-.038.033-.038.033-.039.031-.04.031-.041.03-.041.028-.042.028-.043.027-.044.026-.044.024-.045.024-.045.022-.046.022-.047.02-.047.02-.048.018-.048.017-.049.016-.049.015-.05.013-.051.012-.05.011-.052.01-.051.009-.053.007-.052.006-.053.005-.053.003-.054.002-.054.001H2.093l-.054-.001-.054-.002-.053-.003-.053-.005-.052-.006-.053-.007-.051-.009-.052-.01-.05-.011-.051-.012-.05-.013-.049-.015-.049-.016-.048-.017-.048-.018-.047-.02-.047-.02-.046-.022-.045-.022-.045-.024-.044-.024-.044-.026-.043-.027-.042-.028-.041-.028-.041-.03-.04-.031-.039-.031-.038-.033-.038-.033-.037-.034-.036-.035-.035-.036-.034-.037-.033-.038-.033-.038-.031-.039-.031-.04-.03-.041-.028-.041-.028-.042-.027-.043-.026-.044-.024-.044-.024-.045-.022-.045-.022-.046-.02-.047-.02-.047-.018-.048-.017-.048-.016-.049-.015-.049-.013-.05-.012-.051-.011-.05-.01-.052-.009-.051-.007-.053-.006-.052-.005-.053-.003-.053-.002-.054L0 13.907V7.093l.001-.054.002-.054.003-.053.005-.053.006-.052.007-.053.009-.051.01-.052.011-.05.012-.051.013-.05.015-.049.016-.049.017-.048.018-.048.02-.047.02-.047.022-.046.022-.045.024-.045.024-.044.026-.044.027-.043.028-.042.028-.041.03-.041.031-.04.031-.039.033-.038.033-.038.034-.037.035-.036.036-.035.037-.034.038-.033.038-.033.039-.031.04-.031.041-.03.041-.028.042-.028.043-.027.044-.026.044-.024.045-.024.045-.022.046-.022.047-.02.047-.02.048-.018.048-.017.049-.016.049-.015.05-.013.051-.012.05-.011.052-.01.051-.009.053-.007.052-.006.053-.005.053-.003.054-.002L2.093 5h11.814l.054.001zM2.099 6h-.035l-.028.002-.028.001-.028.003-.027.003-.027.004-.027.004-.027.005-.026.006-.026.006-.026.007-.026.008-.025.008-.025.009-.025.01-.025.01-.024.01-.024.011-.023.012-.024.012-.023.013-.022.014-.023.014-.022.014-.022.015-.021.016-.021.016-.02.016-.021.018-.019.017-.02.018-.019.018-.018.019-.018.02-.017.019-.018.021-.016.02-.016.021-.016.021-.015.022-.014.022-.014.023-.014.022-.013.023-.012.024-.012.023-.011.024-.01.024-.01.025-.01.025-.009.025-.008.025-.008.026-.007.026-.006.026-.006.026-.005.027-.004.027-.004.027-.003.027-.003.028-.001.028L1 7.064v6.872l.002.028.001.028.003.028.003.027.004.027.004.027.005.027.006.026.006.026.007.026.008.026.008.025.009.025.01.025.01.025.01.024.011.024.012.023.012.024.013.023.014.022.014.023.014.022.015.022.016.021.016.021.016.02.018.021.017.019.018.02.018.019.019.018.02.018.019.017.021.018.02.016.021.016.021.016.022.015.022.014.023.014.022.014.023.013.024.012.023.012.024.011.024.01.025.01.025.01.025.009.025.008.026.008.026.007.026.006.026.006.027.005.027.004.027.004.027.003.028.003.028.001.028.002h11.872l.028-.002.028-.001.028-.003.027-.003.027-.004.027-.004.027-.005.026-.006.026-.006.026-.007.026-.008.025-.008.025-.009.025-.01.025-.01.024-.01.024-.011.023-.012.024-.012.023-.013.022-.014.023-.014.022-.014.022-.015.021-.016.021-.016.02-.016.021-.018.019-.017.02-.018.019-.018.018-.019.018-.02.017-.019.018-.021.016-.02.016-.021.016-.021.015-.022.014-.022.014-.023.014-.022.013-.023.012-.024.012-.023.011-.024.01-.024.01-.025.01-.025.009-.025.008-.025.008-.026.007-.026.006-.026.006-.026.005-.027.004-.027.004-.027.003-.027.003-.028.001-.028.002-.028V7.064l-.002-.028-.001-.028-.003-.028-.003-.027-.004-.027-.004-.027-.005-.027-.006-.026-.006-.026-.007-.026-.008-.026-.008-.025-.009-.025-.01-.025-.01-.025-.01-.024-.011-.024-.012-.023-.012-.024-.013-.023-.014-.022-.014-.023-.014-.022-.015-.022-.016-.021-.016-.021-.016-.02-.018-.021-.017-.019-.018-.02-.018-.019-.019-.018-.02-.018-.019-.017-.021-.018-.02-.016-.021-.016-.021-.016-.022-.015-.022-.014-.023-.014-.022-.014-.023-.013-.024-.012-.023-.012-.024-.011-.024-.01-.025-.01-.025-.01-.025-.009-.025-.008-.026-.008-.026-.007-.026-.006-.026-.006-.027-.005-.027-.004-.027-.004-.027-.003-.028-.003-.028-.001L13.936 6H2.099z"/><path d="M1.5 1.5l2 2" fill="none" stroke="#000" stroke-width="1.000005" stroke-linecap="butt" stroke-linejoin="miter"/><path d="M5 1l2 3" fill="none" stroke="#000" stroke-width="1.7" stroke-linecap="butt" stroke-linejoin="miter" transform="matrix(.5 0 0 .66667 3 .333)"/><path d="M11 1L9 4" fill="none" stroke="#000" stroke-width="1.7" stroke-linecap="butt" stroke-linejoin="miter" transform="matrix(.5 0 0 .66667 5 .333)"/><path d="M14.5 1.5l-2 2" fill="none" stroke="#000" stroke-width="1.000005" stroke-linecap="butt" stroke-linejoin="miter"/><defs><radialGradient id="_Radial1" cx="0" cy="0" r="1" gradientUnits="userSpaceOnUse" gradientTransform="matrix(10 0 0 11 7 5)"><stop offset="0" stop-color="#b5cfff"/><stop offset=".61" stop-color="#a6c1f1"/><stop offset=".82" stop-color="#839fd1"/><stop offset="1" stop-color="#5f7cb0"/></radialGradient></defs></svg>