<svg width="16" height="16" xmlns="http://www.w3.org/2000/svg" fill-rule="evenodd" clip-rule="evenodd" stroke-linecap="round" stroke-linejoin="bevel" stroke-miterlimit="2"><path d="M16 7.093A2.094 2.094 0 0013.907 5H2.093A2.094 2.094 0 000 7.093v6.814C0 15.062.938 16 2.093 16h11.814A2.094 2.094 0 0016 13.907V7.093z" fill="url(#_Radial1)"/><clipPath id="a"><path d="M16 7.093A2.094 2.094 0 0013.907 5H2.093A2.094 2.094 0 000 7.093v6.814C0 15.062.938 16 2.093 16h11.814A2.094 2.094 0 0016 13.907V7.093z"/></clipPath><g clip-path="url(#a)"><path d="M16 7.793L14.027 6H1.973L0 7.793v6.414L1.973 16h12.054L16 14.207V7.793zM.496 7.343l6.516 6.384 2.006.007 6.505-6.374m-.514 7.748l-3.835-3.486m-6.308.003l-3.852 3.503" fill="none" stroke="#000" stroke-width=".95" transform="matrix(1 0 0 1.1 0 -1.6)"/></g><path d="M13.961 5.001l.054.002.053.003.053.005.052.006.053.007.051.009.052.01.05.011.051.012.05.013.049.015.049.016.048.017.048.018.047.02.047.02.046.022.045.022.045.024.044.024.044.026.043.027.042.028.041.028.041.03.04.031.039.031.038.033.038.033.037.034.036.035.035.036.034.037.033.038.033.038.031.039.031.04.03.041.028.041.028.042.027.043.026.044.024.044.024.045.022.045.022.046.02.047.02.047.018.048.017.048.016.049.015.049.013.05.012.051.011.05.01.052.009.051.007.053.006.052.005.053.003.053.002.054.001.054v6.814l-.001.054-.002.054-.003.053-.005.053-.006.052-.007.053-.009.051-.01.052-.011.05-.012.051-.013.05-.015.049-.016.049-.017.048-.018.048-.02.047-.02.047-.022.046-.022.045-.024.045-.024.044-.026.044-.027.043-.028.042-.028.041-.03.041-.031.04-.031.039-.033.038-.033.038-.034.037-.035.036-.036.035-.037.034-.038.033-.038.033-.039.031-.04.031-.041.03-.041.028-.042.028-.043.027-.044.026-.044.024-.045.024-.045.022-.046.022-.047.02-.047.02-.048.018-.048.017-.049.016-.049.015-.05.013-.051.012-.05.011-.052.01-.051.009-.053.007-.052.006-.053.005-.053.003-.054.002-.054.001H2.093l-.054-.001-.054-.002-.053-.003-.053-.005-.052-.006-.053-.007-.051-.009-.052-.01-.05-.011-.051-.012-.05-.013-.049-.015-.049-.016-.048-.017-.048-.018-.047-.02-.047-.02-.046-.022-.045-.022-.045-.024-.044-.024-.044-.026-.043-.027-.042-.028-.041-.028-.041-.03-.04-.031-.039-.031-.038-.033-.038-.033-.037-.034-.036-.035-.035-.036-.034-.037-.033-.038-.033-.038-.031-.039-.031-.04-.03-.041-.028-.041-.028-.042-.027-.043-.026-.044-.024-.044-.024-.045-.022-.045-.022-.046-.02-.047-.02-.047-.018-.048-.017-.048-.016-.049-.015-.049-.013-.05-.012-.051-.011-.05-.01-.052-.009-.051-.007-.053-.006-.052-.005-.053-.003-.053-.002-.054L0 13.907V7.093l.001-.054.002-.054.003-.053.005-.053.006-.052.007-.053.009-.051.01-.052.011-.05.012-.051.013-.05.015-.049.016-.049.017-.048.018-.048.02-.047.02-.047.022-.046.022-.045.024-.045.024-.044.026-.044.027-.043.028-.042.028-.041.03-.041.031-.04.031-.039.033-.038.033-.038.034-.037.035-.036.036-.035.037-.034.038-.033.038-.033.039-.031.04-.031.041-.03.041-.028.042-.028.043-.027.044-.026.044-.024.045-.024.045-.022.046-.022.047-.02.047-.02.048-.018.048-.017.049-.016.049-.015.05-.013.051-.012.05-.011.052-.01.051-.009.053-.007.052-.006.053-.005.053-.003.054-.002L2.093 5h11.814l.054.001zM2.099 6h-.035l-.028.002-.028.001-.028.003-.027.003-.027.004-.027.004-.027.005-.026.006-.026.006-.026.007-.026.008-.025.008-.025.009-.025.01-.025.01-.024.01-.024.011-.023.012-.024.012-.023.013-.022.014-.023.014-.022.014-.022.015-.021.016-.021.016-.02.016-.021.018-.019.017-.02.018-.019.018-.018.019-.018.02-.017.019-.018.021-.016.02-.016.021-.016.021-.015.022-.014.022-.014.023-.014.022-.013.023-.012.024-.012.023-.011.024-.01.024-.01.025-.01.025-.009.025-.008.025-.008.026-.007.026-.006.026-.006.026-.005.027-.004.027-.004.027-.003.027-.003.028-.001.028L1 7.064v6.872l.002.028.001.028.003.028.003.027.004.027.004.027.005.027.006.026.006.026.007.026.008.026.008.025.009.025.01.025.01.025.01.024.011.024.012.023.012.024.013.023.014.022.014.023.014.022.015.022.016.021.016.021.016.02.018.021.017.019.018.02.018.019.019.018.02.018.019.017.021.018.02.016.021.016.021.016.022.015.022.014.023.014.022.014.023.013.024.012.023.012.024.011.024.01.025.01.025.01.025.009.025.008.026.008.026.007.026.006.026.006.027.005.027.004.027.004.027.003.028.003.028.001.028.002h11.872l.028-.002.028-.001.028-.003.027-.003.027-.004.027-.004.027-.005.026-.006.026-.006.026-.007.026-.008.025-.008.025-.009.025-.01.025-.01.024-.01.024-.011.023-.012.024-.012.023-.013.022-.014.023-.014.022-.014.022-.015.021-.016.021-.016.02-.016.021-.018.019-.017.02-.018.019-.018.018-.019.018-.02.017-.019.018-.021.016-.02.016-.021.016-.021.015-.022.014-.022.014-.023.014-.022.013-.023.012-.024.012-.023.011-.024.01-.024.01-.025.01-.025.009-.025.008-.025.008-.026.007-.026.006-.026.006-.026.005-.027.004-.027.004-.027.003-.027.003-.028.001-.028.002-.028V7.064l-.002-.028-.001-.028-.003-.028-.003-.027-.004-.027-.004-.027-.005-.027-.006-.026-.006-.026-.007-.026-.008-.026-.008-.025-.009-.025-.01-.025-.01-.025-.01-.024-.011-.024-.012-.023-.012-.024-.013-.023-.014-.022-.014-.023-.014-.022-.015-.022-.016-.021-.016-.021-.016-.02-.018-.021-.017-.019-.018-.02-.018-.019-.019-.018-.02-.018-.019-.017-.021-.018-.02-.016-.021-.016-.021-.016-.022-.015-.022-.014-.023-.014-.022-.014-.023-.013-.024-.012-.023-.012-.024-.011-.024-.01-.025-.01-.025-.01-.025-.009-.025-.008-.026-.008-.026-.007-.026-.006-.026-.006-.027-.005-.027-.004-.027-.004-.027-.003-.028-.003-.028-.001L13.936 6H2.099z"/><path d="M1.5 1.5l2 2" fill="none" stroke="#000" stroke-width="1.000005" stroke-linecap="butt" stroke-linejoin="miter"/><path d="M5 1l2 3" fill="none" stroke="#000" stroke-width="1.7" stroke-linecap="butt" stroke-linejoin="miter" transform="matrix(.5 0 0 .66667 3 .333)"/><path d="M11 1L9 4" fill="none" stroke="#000" stroke-width="1.7" stroke-linecap="butt" stroke-linejoin="miter" transform="matrix(.5 0 0 .66667 5 .333)"/><path d="M14.5 1.5l-2 2" fill="none" stroke="#000" stroke-width="1.000005" stroke-linecap="butt" stroke-linejoin="miter"/><g transform="matrix(1 0 0 2 0 -3)"><path d="M15 4.496C15 3.67 13.66 3 12.009 3h-1.018C9.34 3 8 3.67 8 4.496V5H7v3.5l9 .046V5h-1v-.504z" fill="none"/><clipPath id="b"><path d="M15 4.496C15 3.67 13.66 3 12.009 3h-1.018C9.34 3 8 3.67 8 4.496V5H7v3.5l9 .046V5h-1v-.504z"/></clipPath><g clip-path="url(#b)"><path d="M13 7c0-.5-.503-1-.917-1h-1.166C10.503 6 10 6.5 10 7v1.008L13 8V7zm2 .508h1.75V14.5H6.25V7.508H8V7c0-2.679 3-3 3-3h1s3 .346 3 3v.508z" fill="#999" stroke="url(#_Linear4)" stroke-width="1.07" stroke-linejoin="round" stroke-miterlimit="1.5" transform="matrix(.85714 0 0 .5 1.643 1.25)"/><path d="M16 7H7v7h9V7zM7 9.117h9m-9 2.207h9" fill="url(#_Linear5)" stroke="url(#_Linear6)" stroke-width="1.04" stroke-linejoin="miter" transform="matrix(1 0 0 .46429 0 2)"/></g><path d="M12.086 3l.076.002.077.002.075.004.075.004.075.005.074.006.073.007.073.008.072.009.071.01.071.01.07.012.069.012.068.013.067.014.067.014.066.016.065.016.064.017.063.017.062.019.061.019.061.02.059.02.058.021.057.022.056.023.055.023.053.024.053.024.051.025.051.026.048.026.048.027.047.028.045.028.043.028.043.029.041.03.039.03.039.03.036.031.036.032.034.032.032.033.031.032.029.034.027.034.026.034.025.034.022.035.021.035.02.036.017.036.016.036.014.037.013.037.01.037.009.038.006.038.005.038.003.038.001.039V5h1v3.546L7 8.5V5h1v-.504l.001-.039.003-.038.005-.038.006-.038.009-.038.01-.037.013-.037.014-.037.016-.036.017-.036.02-.036.021-.035.022-.035.025-.034.026-.034.027-.034.029-.034.031-.032.032-.033.034-.032.036-.032.036-.031.039-.03.039-.03.041-.03.043-.029.043-.028.045-.028.047-.028.048-.027.048-.026.051-.026.051-.025.053-.024.053-.024.055-.023.056-.023.057-.022.058-.021.059-.02.061-.02.061-.019.062-.019.063-.017.064-.017.065-.016.066-.016.067-.014.067-.014.068-.013.069-.012.07-.012.071-.01.071-.01.072-.009.073-.008.073-.007.074-.006.075-.005.075-.004.075-.004.077-.002.076-.002h1.172zm-1.088.5h-.058l-.052.001-.051.002-.05.002-.05.003-.05.004-.049.004-.048.004-.049.006-.047.005-.048.007-.046.007-.047.007-.046.008-.045.009-.045.009-.044.01-.044.01-.043.011-.042.011-.042.012-.042.012-.041.013-.04.013-.039.014-.039.014-.038.014-.037.015-.037.016-.036.016-.035.016-.034.017-.034.017-.032.018-.032.018-.031.018-.03.019-.03.019-.028.019-.027.02-.027.02-.025.02-.025.021-.023.021-.023.021-.021.022-.02.022-.02.022-.018.022-.017.023-.016.023-.016.023-.013.023-.013.024-.012.024-.01.024-.01.024-.008.025-.007.024-.006.025-.004.026-.003.025-.002.026L9 4.499V5.5H8v2.505l7 .035V5.5h-1V4.499l-.001-.029-.002-.026-.003-.025-.004-.026-.006-.025-.007-.024-.008-.025-.01-.024-.01-.024-.012-.024-.013-.024-.013-.023-.016-.023-.016-.023-.017-.023-.018-.022-.02-.022-.02-.022-.021-.022-.023-.021-.023-.021-.025-.021-.025-.02-.027-.02-.027-.02-.028-.019-.03-.019-.03-.019-.031-.018-.032-.018-.032-.018-.034-.017-.034-.017-.035-.016-.036-.016-.037-.016-.037-.015-.038-.014-.039-.014-.039-.014-.04-.013-.041-.013-.042-.012-.042-.012-.042-.011-.043-.011-.044-.01-.044-.01-.045-.009-.045-.009-.046-.008-.047-.007-.046-.007-.048-.007-.047-.005-.049-.006-.048-.004-.049-.004-.05-.004-.05-.003-.05-.002-.051-.002-.052-.001h-1.062z" fill="url(#_Linear7)"/></g><defs><linearGradient id="_Linear4" x1="0" y1="0" x2="1" y2="0" gradientUnits="userSpaceOnUse" gradientTransform="matrix(10.5 0 0 10.5 6.25 9.25)"><stop offset="0" stop-color="#5e5e5e"/><stop offset="1" stop-color="#121313"/></linearGradient><linearGradient id="_Linear5" x1="0" y1="0" x2="1" y2="0" gradientUnits="userSpaceOnUse" gradientTransform="matrix(9 0 0 7 7 10.5)"><stop offset="0" stop-color="#ccc"/><stop offset=".23" stop-color="#fff"/><stop offset="1" stop-color="#535353"/></linearGradient><linearGradient id="_Linear6" x1="0" y1="0" x2="1" y2="0" gradientUnits="userSpaceOnUse" gradientTransform="matrix(9 0 0 7 7 10.5)"><stop offset="0" stop-color="#5e5e5e"/><stop offset="1" stop-color="#121313"/></linearGradient><linearGradient id="_Linear7" x1="0" y1="0" x2="1" y2="0" gradientUnits="userSpaceOnUse" gradientTransform="matrix(9 0 0 5.54557 7 5.773)"><stop offset="0" stop-color="#5e5e5e"/><stop offset="1" stop-color="#121313"/></linearGradient><radialGradient id="_Radial1" cx="0" cy="0" r="1" gradientUnits="userSpaceOnUse" gradientTransform="matrix(10 0 0 11 7 5)"><stop offset="0" stop-color="#b5cfff"/><stop offset=".61" stop-color="#a6c1f1"/><stop offset=".82" stop-color="#839fd1"/><stop offset="1" stop-color="#5f7cb0"/></radialGradient></defs></svg>