<svg width="16" height="16" xmlns="http://www.w3.org/2000/svg" fill-rule="evenodd" clip-rule="evenodd" stroke-linejoin="round" stroke-miterlimit="2"><path d="M11 1l4 9h-2.257l.01 6.75H9.281L9.285 10H7l4-9z" fill="url(#_Radial1)" transform="matrix(0 .875 -.88889 0 15.889 .875)"/><path d="M7.045 6l.073.007.073.011.071.017.07.022.069.027 8 3.5.067.032.064.038.063.042.057.046.056.051.05.055.047.059.042.061.037.065.032.067.028.07.022.071.016.074.012.073.005.074v.076l-.005.074-.012.074-.016.073-.022.07-.028.07-.032.068-.037.065-.042.061-.047.059-.05.055-.056.05-.057.047-.063.042-.064.038-.067.032-8 3.5-.069.027-.07.022-.07.017-.074.011-.073.006h-.073l-.073-.004-.073-.01-.072-.015-.07-.021-.069-.026-.067-.031-.064-.035-.062-.04-.058-.045-.055-.05-.051-.052-.047-.056-.043-.06-.04-.062-.033-.065-.028-.068-.024-.07-.019-.07-.013-.073-.008-.072L6 14v-.973l-4.998.007-.072-.003-.071-.007-.07-.013-.07-.017-.067-.023-.066-.027-.064-.032-.062-.036-.058-.041-.056-.045-.053-.05-.049-.05-.044-.057-.04-.058-.037-.062-.032-.063-.028-.067-.022-.067-.018-.07-.013-.07-.007-.071L0 12.034V8.996l.003-.072.007-.07.013-.07.018-.07.022-.068.028-.066.032-.064.036-.06.041-.06.044-.055.05-.053.052-.048.055-.045.059-.04.06-.038.065-.031.066-.027.068-.023.069-.017.07-.014.07-.007.073-.002L6 7.999V7l.003-.074.008-.072.013-.073.019-.07.024-.07.028-.068.034-.065.039-.063.043-.06.047-.055.051-.053.055-.049.058-.044.062-.04.064-.036.067-.031.069-.026.07-.02.072-.015.073-.01L6.972 6h.073zM7 9l-6-.004v3.038l6-.009V14l8-3.5L7 7v2z"/><defs><radialGradient id="_Radial1" cx="0" cy="0" r="1" gradientUnits="userSpaceOnUse" gradientTransform="matrix(5.71429 0 0 14.625 9.286 15.625)"><stop offset="0" stop-color="#fff"/><stop offset=".6" stop-color="#f3f5f9"/><stop offset=".81" stop-color="#d8dfec"/><stop offset="1" stop-color="#bdc9df"/></radialGradient></defs></svg>