<svg width="16" height="16" xmlns="http://www.w3.org/2000/svg" fill-rule="evenodd" clip-rule="evenodd" stroke-linecap="round" stroke-miterlimit="2"><path d="M16 6.992S10.155 0 9 0H7C5.845 0 0 7.034 0 7.034v6.873C0 15.062.938 16 2.093 16h11.814A2.094 2.094 0 0016 13.907V6.992z" fill="url(#_Radial1)"/><path d="M9.028.001l.03.004.031.006.033.009.034.011.036.014.038.015.039.019.041.02.042.022.043.025.045.027.046.029.048.031.048.033.05.034.052.037.052.039.109.083.113.09.117.096.121.103.125.109.128.115.132.12.135.126.137.13.14.135.142.139.145.142.146.147.148.149.148.152.151.155.15.157.152.159.152.161.152.162.152.163.302.327.299.327.294.325.286.32.278.312.266.301.253.289.238.274.222.255.202.235.182.213.294.344.187.222.066.079v6.915l-.001.054-.002.054-.003.053-.005.053-.006.052-.007.053-.009.051-.01.052-.011.05-.012.051-.013.05-.015.049-.016.049-.017.048-.018.048-.02.047-.02.047-.022.046-.022.045-.024.045-.024.044-.026.044-.027.043-.028.042-.028.041-.03.041-.031.04-.031.039-.033.038-.033.038-.034.037-.035.036-.036.035-.037.034-.038.033-.038.033-.039.031-.04.031-.041.03-.041.028-.042.028-.043.027-.044.026-.044.024-.045.024-.045.022-.046.022-.047.02-.047.02-.048.018-.048.017-.049.016-.049.015-.05.013-.051.012-.05.011-.052.01-.051.009-.053.007-.052.006-.053.005-.053.003-.054.002-.054.001H2.093l-.054-.001-.054-.002-.053-.003-.053-.005-.052-.006-.053-.007-.051-.009-.052-.01-.05-.011-.051-.012-.05-.013-.049-.015-.049-.016-.048-.017-.048-.018-.047-.02-.047-.02-.046-.022-.045-.022-.045-.024-.044-.024-.044-.026-.043-.027-.042-.028-.041-.028-.041-.03-.04-.031-.039-.031-.038-.033-.038-.033-.037-.034-.036-.035-.035-.036-.034-.037-.033-.038-.033-.038-.031-.039-.031-.04-.03-.041-.028-.041-.028-.042-.027-.043-.026-.044-.024-.044-.024-.045-.022-.045-.022-.046-.02-.047-.02-.047-.018-.048-.017-.048-.016-.049-.015-.049-.013-.05-.012-.051-.011-.05-.01-.052-.009-.051-.007-.053-.006-.052-.005-.053-.003-.053-.002-.054L0 13.907V7.034l.066-.079.187-.223.294-.347.182-.213.202-.237.222-.257.238-.275.253-.291.266-.304.278-.313.286-.322.294-.327.299-.329.302-.329.152-.164.152-.163.152-.162.152-.16.15-.158.151-.155.148-.154.148-.15.146-.147.145-.144.142-.139.14-.136.137-.131.135-.126.132-.121.128-.115.125-.11.121-.104.117-.097.113-.09.109-.084.052-.039.052-.037.05-.035.048-.033.048-.031.046-.029.045-.027.043-.025.042-.023.041-.02.039-.018.038-.016.036-.014.034-.011.033-.009.031-.006.03-.004L7 0h2l.028.001zM7.128 1l-.017.01-.027.016-.03.019-.033.021-.036.024-.038.027-.04.029-.041.031-.094.072-.098.078-.105.087-.11.094-.116.102-.12.108-.124.114-.128.12-.131.125-.135.131-.137.135-.14.139-.142.143-.144.146-.146.15-.147.153-.148.155-.149.157-.149.159-.15.16-.149.161-.299.325-.295.326-.291.323-.283.318-.275.311-.264.301-.251.288-.236.273-.22.255-.201.235-.18.211-.291.344L1 7.398v6.538l.002.028.001.028.003.028.003.027.004.027.004.027.005.027.006.026.006.026.007.026.008.026.008.025.009.025.01.025.01.025.01.024.011.024.012.023.012.024.013.023.014.022.014.023.014.022.015.022.016.021.016.021.016.02.018.021.017.019.018.02.018.019.019.018.02.018.019.017.021.018.02.016.021.016.021.016.022.015.022.014.023.014.022.014.023.013.024.012.023.012.024.011.024.01.025.01.025.01.025.009.025.008.026.008.026.007.026.006.026.006.027.005.027.004.027.004.027.003.028.003.028.001.028.002h11.872l.028-.002.028-.001.028-.003.027-.003.027-.004.027-.004.027-.005.026-.006.026-.006.026-.007.026-.008.025-.008.025-.009.025-.01.025-.01.024-.01.024-.011.023-.012.024-.012.023-.013.022-.014.023-.014.022-.014.022-.015.021-.016.021-.016.02-.016.021-.018.019-.017.02-.018.019-.018.018-.019.018-.02.017-.019.018-.021.016-.02.016-.021.016-.021.015-.022.014-.022.014-.023.014-.022.013-.023.012-.024.012-.023.011-.024.01-.024.01-.025.01-.025.009-.025.008-.025.008-.026.007-.026.006-.026.006-.026.005-.027.004-.027.004-.027.003-.027.003-.028.001-.028.002-.028V7.357l-.016-.019-.291-.342-.18-.21-.201-.233-.22-.254-.236-.271-.251-.286-.264-.299-.275-.309-.283-.317-.291-.321-.295-.324-.299-.323-.149-.16-.15-.159-.149-.158-.149-.156-.148-.155-.147-.151-.146-.149-.143-.146-.143-.142-.139-.138-.138-.134-.134-.13-.132-.124-.128-.119-.124-.114-.12-.107-.116-.101-.11-.094-.105-.086-.098-.078-.094-.072-.04-.03-.041-.029-.038-.027-.036-.024-.033-.021-.03-.019-.027-.016L8.874 1H7.128z"/><path fill="#fffff2" d="M4 2h11v13H4z"/><path fill="url(#_Linear2)" d="M4 6h5v1H4z" transform="matrix(1.57143 0 0 1.08333 -.714 -2.333)"/><path fill="url(#_Linear3)" d="M4 6h5v1H4z" transform="matrix(-.62857 0 0 1.08333 12.014 -.167)"/><path fill="url(#_Linear4)" d="M4 6h5v1H4z" transform="matrix(.61007 0 0 1.08333 7.845 -.167)"/><path d="M15 15H4V2h11v13zM5 3v11h9V3H5z"/><g><path fill="#fffff2" d="M0 5h8v9H0z"/><path fill="url(#_Linear5)" d="M4 6h5v1H4z" transform="matrix(1.14286 0 0 .75 -3.429 2)"/><path fill="url(#_Linear6)" d="M4 6h5v1H4z" transform="matrix(.44369 0 0 .75 2.225 3.5)"/><path d="M8 14H0V5h8v9zM1 6v7h6V6H1z"/></g><g><path fill="#fffff2" d="M11.364 6l3.318 3.318L9 15l-3.318-3.318z"/><path fill="url(#_Linear7)" d="M4 6h5v1H4z" transform="matrix(.4052 .4052 -.42426 .42426 12.325 3.834)"/><path fill="url(#_Linear8)" d="M4 6h5v1H4z" transform="matrix(-.1896 -.1896 -.4735 .4735 15.02 7.865)"/><path d="M14.682 9.318L9 15l-3.318-3.318L11.364 6l3.318 3.318zm-7.586 2.364L9 13.586l4.268-4.268-1.904-1.904-4.268 4.268z"/></g><path d="M16 6.992L15 6V2H4v3H0v8.907C0 15.062.938 16 2.093 16h11.814A2.094 2.094 0 0016 13.907V6.992z" fill="none"/><clipPath id="a"><path d="M16 6.992L15 6V2H4v3H0v8.907C0 15.062.938 16 2.093 16h11.814A2.094 2.094 0 0016 13.907V6.992z"/></clipPath><g clip-path="url(#a)"><path d="M16 8.727l-1-.909-4 3.921-2-1.705-2.007-.006L5 11.739 1.951 8.751 0 8.727v5.48L1.973 16h12.054L16 14.207v-5.48zm-.991 6.381L11 11.739m-6 0l-3.986 3.389" fill="url(#_Radial10)" stroke="#000" stroke-width=".92" transform="matrix(1 0 0 1.17333 0 -2.773)"/></g><path d="M15 6l1 .992v6.915l-.001.054-.002.054-.003.053-.005.053-.006.052-.007.053-.009.051-.01.052-.011.05-.012.051-.013.05-.015.049-.016.049-.017.048-.018.048-.02.047-.02.047-.022.046-.022.045-.024.045-.024.044-.026.044-.027.043-.028.042-.028.041-.03.041-.031.04-.031.039-.033.038-.033.038-.034.037-.035.036-.036.035-.037.034-.038.033-.038.033-.039.031-.04.031-.041.03-.041.028-.042.028-.043.027-.044.026-.044.024-.045.024-.045.022-.046.022-.047.02-.047.02-.048.018-.048.017-.049.016-.049.015-.05.013-.051.012-.05.011-.052.01-.051.009-.053.007-.052.006-.053.005-.053.003-.054.002-.054.001H2.093l-.054-.001-.054-.002-.053-.003-.053-.005-.052-.006-.053-.007-.051-.009-.052-.01-.05-.011-.051-.012-.05-.013-.049-.015-.049-.016-.048-.017-.048-.018-.047-.02-.047-.02-.046-.022-.045-.022-.045-.024-.044-.024-.044-.026-.043-.027-.042-.028-.041-.028-.041-.03-.04-.031-.039-.031-.038-.033-.038-.033-.037-.034-.036-.035-.035-.036-.034-.037-.033-.038-.033-.038-.031-.039-.031-.04-.03-.041-.028-.041-.028-.042-.027-.043-.026-.044-.024-.044-.024-.045-.022-.045-.022-.046-.02-.047-.02-.047-.018-.048-.017-.048-.016-.049-.015-.049-.013-.05-.012-.051-.011-.05-.01-.052-.009-.051-.007-.053-.006-.052-.005-.053-.003-.053-.002-.054L0 13.907V5h4V2h11v4zM5 3v3H1v7.936l.002.028.001.028.003.028.003.027.004.027.004.027.005.027.006.026.006.026.007.026.008.026.008.025.009.025.01.025.01.025.01.024.011.024.012.023.012.024.013.023.014.022.014.023.014.022.015.022.016.021.016.021.016.02.018.021.017.019.018.02.018.019.019.018.02.018.019.017.021.018.02.016.021.016.021.016.022.015.022.014.023.014.022.014.023.013.024.012.023.012.024.011.024.01.025.01.025.01.025.009.025.008.026.008.026.007.026.006.026.006.027.005.027.004.027.004.027.003.028.003.028.001.028.002h11.872l.028-.002.028-.001.028-.003.027-.003.027-.004.027-.004.027-.005.026-.006.026-.006.026-.007.026-.008.025-.008.025-.009.025-.01.025-.01.024-.01.024-.011.023-.012.024-.012.023-.013.022-.014.023-.014.022-.014.022-.015.021-.016.021-.016.02-.016.021-.018.019-.017.02-.018.019-.018.018-.019.018-.02.017-.019.018-.021.016-.02.016-.021.016-.021.015-.022.014-.022.014-.023.014-.022.013-.023.012-.024.012-.023.011-.024.01-.024.01-.025.01-.025.009-.025.008-.025.008-.026.007-.026.006-.026.006-.026.005-.027.004-.027.004-.027.003-.027.003-.028.001-.028.002-.028V7.408l-1-.991V3H5z"/><g transform="matrix(1 0 0 2 0 -3)"><path d="M15 4.496C15 3.67 13.66 3 12.009 3h-1.018C9.34 3 8 3.67 8 4.496V5H7v3.5l9 .046V5h-1v-.504z" fill="none"/><clipPath id="b"><path d="M15 4.496C15 3.67 13.66 3 12.009 3h-1.018C9.34 3 8 3.67 8 4.496V5H7v3.5l9 .046V5h-1v-.504z"/></clipPath><g clip-path="url(#b)"><path d="M13 7c0-.5-.503-1-.917-1h-1.166C10.503 6 10 6.5 10 7v1.008L13 8V7zm2 .508h1.75V14.5H6.25V7.508H8V7c0-2.679 3-3 3-3h1s3 .346 3 3v.508z" fill="#999" stroke="url(#_Linear12)" stroke-width="1.07" stroke-linejoin="round" stroke-miterlimit="1.5" transform="matrix(.85714 0 0 .5 1.643 1.25)"/><path d="M16 7H7v7h9V7zM7 9.117h9m-9 2.207h9" fill="url(#_Linear13)" stroke="url(#_Linear14)" stroke-width="1.04" transform="matrix(1 0 0 .46429 0 2)"/></g><path d="M12.086 3l.076.002.077.002.075.004.075.004.075.005.074.006.073.007.073.008.072.009.071.01.071.01.07.012.069.012.068.013.067.014.067.014.066.016.065.016.064.017.063.017.062.019.061.019.061.02.059.02.058.021.057.022.056.023.055.023.053.024.053.024.051.025.051.026.048.026.048.027.047.028.045.028.043.028.043.029.041.03.039.03.039.03.036.031.036.032.034.032.032.033.031.032.029.034.027.034.026.034.025.034.022.035.021.035.02.036.017.036.016.036.014.037.013.037.01.037.009.038.006.038.005.038.003.038.001.039V5h1v3.546L7 8.5V5h1v-.504l.001-.039.003-.038.005-.038.006-.038.009-.038.01-.037.013-.037.014-.037.016-.036.017-.036.02-.036.021-.035.022-.035.025-.034.026-.034.027-.034.029-.034.031-.032.032-.033.034-.032.036-.032.036-.031.039-.03.039-.03.041-.03.043-.029.043-.028.045-.028.047-.028.048-.027.048-.026.051-.026.051-.025.053-.024.053-.024.055-.023.056-.023.057-.022.058-.021.059-.02.061-.02.061-.019.062-.019.063-.017.064-.017.065-.016.066-.016.067-.014.067-.014.068-.013.069-.012.07-.012.071-.01.071-.01.072-.009.073-.008.073-.007.074-.006.075-.005.075-.004.075-.004.077-.002.076-.002h1.172zm-1.088.5h-.058l-.052.001-.051.002-.05.002-.05.003-.05.004-.049.004-.048.004-.049.006-.047.005-.048.007-.046.007-.047.007-.046.008-.045.009-.045.009-.044.01-.044.01-.043.011-.042.011-.042.012-.042.012-.041.013-.04.013-.039.014-.039.014-.038.014-.037.015-.037.016-.036.016-.035.016-.034.017-.034.017-.032.018-.032.018-.031.018-.03.019-.03.019-.028.019-.027.02-.027.02-.025.02-.025.021-.023.021-.023.021-.021.022-.02.022-.02.022-.018.022-.017.023-.016.023-.016.023-.013.023-.013.024-.012.024-.01.024-.01.024-.008.025-.007.024-.006.025-.004.026-.003.025-.002.026L9 4.499V5.5H8v2.505l7 .035V5.5h-1V4.499l-.001-.029-.002-.026-.003-.025-.004-.026-.006-.025-.007-.024-.008-.025-.01-.024-.01-.024-.012-.024-.013-.024-.013-.023-.016-.023-.016-.023-.017-.023-.018-.022-.02-.022-.02-.022-.021-.022-.023-.021-.023-.021-.025-.021-.025-.02-.027-.02-.027-.02-.028-.019-.03-.019-.03-.019-.031-.018-.032-.018-.032-.018-.034-.017-.034-.017-.035-.016-.036-.016-.037-.016-.037-.015-.038-.014-.039-.014-.039-.014-.04-.013-.041-.013-.042-.012-.042-.012-.042-.011-.043-.011-.044-.01-.044-.01-.045-.009-.045-.009-.046-.008-.047-.007-.046-.007-.048-.007-.047-.005-.049-.006-.048-.004-.049-.004-.05-.004-.05-.003-.05-.002-.051-.002-.052-.001h-1.062z" fill="url(#_Linear15)"/></g><defs><linearGradient id="_Linear2" x1="0" y1="0" x2="1" y2="0" gradientUnits="userSpaceOnUse" gradientTransform="matrix(5 0 0 1 4 6)"><stop offset="0" stop-color="#fff"/><stop offset=".09" stop-color="#b8b8b8"/><stop offset=".21" stop-color="#e0e0e0"/><stop offset=".35" stop-color="#ececec"/><stop offset=".72" stop-color="#828282"/><stop offset="1" stop-color="#fff"/></linearGradient><linearGradient id="_Linear3" x1="0" y1="0" x2="1" y2="0" gradientUnits="userSpaceOnUse" gradientTransform="matrix(5 0 0 1 4 6)"><stop offset="0" stop-color="#fff"/><stop offset=".09" stop-color="#b8b8b8"/><stop offset=".21" stop-color="#e0e0e0"/><stop offset=".35" stop-color="#ececec"/><stop offset=".72" stop-color="#828282"/><stop offset="1" stop-color="#fff"/></linearGradient><linearGradient id="_Linear4" x1="0" y1="0" x2="1" y2="0" gradientUnits="userSpaceOnUse" gradientTransform="matrix(5 0 0 1 4 6)"><stop offset="0" stop-color="#fff"/><stop offset=".09" stop-color="#b8b8b8"/><stop offset=".21" stop-color="#e0e0e0"/><stop offset=".35" stop-color="#ececec"/><stop offset=".72" stop-color="#828282"/><stop offset="1" stop-color="#fff"/></linearGradient><linearGradient id="_Linear5" x1="0" y1="0" x2="1" y2="0" gradientUnits="userSpaceOnUse" gradientTransform="matrix(5 0 0 1 4 6)"><stop offset="0" stop-color="#fff"/><stop offset=".09" stop-color="#b8b8b8"/><stop offset=".21" stop-color="#e0e0e0"/><stop offset=".35" stop-color="#ececec"/><stop offset=".72" stop-color="#828282"/><stop offset="1" stop-color="#fff"/></linearGradient><linearGradient id="_Linear6" x1="0" y1="0" x2="1" y2="0" gradientUnits="userSpaceOnUse" gradientTransform="matrix(5 0 0 1 4 6)"><stop offset="0" stop-color="#fff"/><stop offset=".09" stop-color="#b8b8b8"/><stop offset=".21" stop-color="#e0e0e0"/><stop offset=".35" stop-color="#ececec"/><stop offset=".72" stop-color="#828282"/><stop offset="1" stop-color="#fff"/></linearGradient><linearGradient id="_Linear7" x1="0" y1="0" x2="1" y2="0" gradientUnits="userSpaceOnUse" gradientTransform="matrix(5 0 0 1 4 6)"><stop offset="0" stop-color="#fff"/><stop offset=".09" stop-color="#b8b8b8"/><stop offset=".21" stop-color="#e0e0e0"/><stop offset=".35" stop-color="#ececec"/><stop offset=".72" stop-color="#828282"/><stop offset="1" stop-color="#fff"/></linearGradient><linearGradient id="_Linear8" x1="0" y1="0" x2="1" y2="0" gradientUnits="userSpaceOnUse" gradientTransform="matrix(5 0 0 1 4 6)"><stop offset="0" stop-color="#fff"/><stop offset=".09" stop-color="#b8b8b8"/><stop offset=".21" stop-color="#e0e0e0"/><stop offset=".35" stop-color="#ececec"/><stop offset=".72" stop-color="#828282"/><stop offset="1" stop-color="#fff"/></linearGradient><linearGradient id="_Linear12" x1="0" y1="0" x2="1" y2="0" gradientUnits="userSpaceOnUse" gradientTransform="matrix(10.5 0 0 10.5 6.25 9.25)"><stop offset="0" stop-color="#5e5e5e"/><stop offset="1" stop-color="#121313"/></linearGradient><linearGradient id="_Linear13" x1="0" y1="0" x2="1" y2="0" gradientUnits="userSpaceOnUse" gradientTransform="matrix(9 0 0 7 7 10.5)"><stop offset="0" stop-color="#ccc"/><stop offset=".23" stop-color="#fff"/><stop offset="1" stop-color="#535353"/></linearGradient><linearGradient id="_Linear14" x1="0" y1="0" x2="1" y2="0" gradientUnits="userSpaceOnUse" gradientTransform="matrix(9 0 0 7 7 10.5)"><stop offset="0" stop-color="#5e5e5e"/><stop offset="1" stop-color="#121313"/></linearGradient><linearGradient id="_Linear15" x1="0" y1="0" x2="1" y2="0" gradientUnits="userSpaceOnUse" gradientTransform="matrix(9 0 0 5.54557 7 5.773)"><stop offset="0" stop-color="#5e5e5e"/><stop offset="1" stop-color="#121313"/></linearGradient><radialGradient id="_Radial1" cx="0" cy="0" r="1" gradientUnits="userSpaceOnUse" gradientTransform="matrix(10 0 0 11 7 5)"><stop offset="0" stop-color="#ff944d"/><stop offset=".61" stop-color="#ec8540"/><stop offset=".82" stop-color="#c06021"/><stop offset="1" stop-color="#913a00"/></radialGradient><radialGradient id="_Radial10" cx="0" cy="0" r="1" gradientUnits="userSpaceOnUse" gradientTransform="matrix(10 0 0 6 7 10)"><stop offset="0" stop-color="#ff944d"/><stop offset=".61" stop-color="#ec8540"/><stop offset=".82" stop-color="#c06021"/><stop offset="1" stop-color="#913a00"/></radialGradient></defs></svg>