<svg width="16" height="16" xmlns="http://www.w3.org/2000/svg" fill-rule="evenodd" clip-rule="evenodd" stroke-linecap="round" stroke-miterlimit="2"><path d="M16 6.992S10.155 1 9 1H7C5.845 1 0 7.034 0 7.034v6.873C0 15.062.938 16 2.093 16h11.814A2.094 2.094 0 0016 13.907V6.992z" fill="url(#_Radial1)"/><path d="M9.028 1.001l.03.003.031.006.033.007.034.01.036.011.038.014.039.015.041.018.042.019.043.021.045.023.046.025.048.026.048.029.05.029.104.065.109.071.113.077.117.083.121.088.125.094.128.098.132.103.135.108.137.111.14.116.142.119.145.122.146.125.148.128.148.131.151.133.15.134.152.136.152.138.304.278.302.281.299.28.294.279.286.274.278.267.266.259.253.247.238.235.222.219.384.383.294.295.187.19.066.068v6.915l-.001.054-.002.054-.003.053-.005.053-.006.052-.007.053-.009.051-.01.052-.011.05-.012.051-.013.05-.015.049-.016.049-.017.048-.018.048-.02.047-.02.047-.022.046-.022.045-.024.045-.024.044-.026.044-.027.043-.028.042-.028.041-.03.041-.031.04-.031.039-.033.038-.033.038-.034.037-.035.036-.036.035-.037.034-.038.033-.038.033-.039.031-.04.031-.041.03-.041.028-.042.028-.043.027-.044.026-.044.024-.045.024-.045.022-.046.022-.047.02-.047.02-.048.018-.048.017-.049.016-.049.015-.05.013-.051.012-.05.011-.052.01-.051.009-.053.007-.052.006-.053.005-.053.003-.054.002-.054.001H2.093l-.054-.001-.054-.002-.053-.003-.053-.005-.052-.006-.053-.007-.051-.009-.052-.01-.05-.011-.051-.012-.05-.013-.049-.015-.049-.016-.048-.017-.048-.018-.047-.02-.047-.02-.046-.022-.045-.022-.045-.024-.044-.024-.044-.026-.043-.027-.042-.028-.041-.028-.041-.03-.04-.031-.039-.031-.038-.033-.038-.033-.037-.034-.036-.035-.035-.036-.034-.037-.033-.038-.033-.038-.031-.039-.031-.04-.03-.041-.028-.041-.028-.042-.027-.043-.026-.044-.024-.044-.024-.045-.022-.045-.022-.046-.02-.047-.02-.047-.018-.048-.017-.048-.016-.049-.015-.049-.013-.05-.012-.051-.011-.05-.01-.052-.009-.051-.007-.053-.006-.052-.005-.053-.003-.053-.002-.054L0 13.907V7.034l.066-.068.187-.191.294-.298.384-.386.222-.22.238-.236.253-.25.266-.26.278-.269.286-.276.294-.281.299-.282.302-.282.304-.281.152-.138.152-.138.15-.135.151-.134.148-.131.148-.129.146-.126.145-.124.142-.119.14-.117.137-.112.135-.108.132-.104.128-.099.125-.094.121-.089.117-.084.113-.077.109-.072.104-.065.05-.03.048-.028.048-.027.046-.025.045-.023.043-.021.042-.02.041-.017.039-.016.038-.013.036-.012.034-.01.033-.007.031-.006.03-.003L7 1h2l.028.001zM7.095 2l-.017.008-.024.011-.027.015-.031.016-.033.019-.036.021-.036.021-.086.055-.092.06-.098.067-.104.074-.11.081-.116.087-.119.092-.124.098-.128.103-.131.107-.135.112-.137.115-.139.119-.142.123-.144.125-.145.129-.147.13-.148.133-.148.135-.149.135-.299.276-.299.279-.295.279-.29.277-.283.273-.275.266-.264.258-.25.247-.236.234-.219.218-.382.383L1 7.442v6.494l.002.028.001.028.003.028.003.027.004.027.004.027.005.027.006.026.006.026.007.026.008.026.008.025.009.025.01.025.01.025.01.024.011.024.012.023.012.024.013.023.014.022.014.023.014.022.015.022.016.021.016.021.016.02.018.021.017.019.018.02.018.019.019.018.02.018.019.017.021.018.02.016.021.016.021.016.022.015.022.014.023.014.022.014.023.013.024.012.023.012.024.011.024.01.025.01.025.01.025.009.025.008.026.008.026.007.026.006.026.006.027.005.027.004.027.004.027.003.028.003.028.001.028.002h11.872l.028-.002.028-.001.028-.003.027-.003.027-.004.027-.004.027-.005.026-.006.026-.006.026-.007.026-.008.025-.008.025-.009.025-.01.025-.01.024-.01.024-.011.023-.012.024-.012.023-.013.022-.014.023-.014.022-.014.022-.015.021-.016.021-.016.02-.016.021-.018.019-.017.02-.018.019-.018.018-.019.018-.02.017-.019.018-.021.016-.02.016-.021.016-.021.015-.022.014-.022.014-.023.014-.022.013-.023.012-.024.012-.023.011-.024.01-.024.01-.025.01-.025.009-.025.008-.025.008-.026.007-.026.006-.026.006-.026.005-.027.004-.027.004-.027.003-.027.003-.028.001-.028.002-.028V7.402l-.255-.257-.381-.38-.219-.217-.236-.232-.251-.245-.264-.256-.274-.265-.283-.271-.291-.275-.295-.277-.298-.276-.3-.275-.148-.134-.149-.134-.147-.132-.147-.129-.146-.128-.143-.124-.142-.122-.14-.118-.137-.115-.134-.111-.131-.106-.128-.102-.124-.097-.12-.092-.115-.086-.11-.08-.104-.074-.099-.067-.091-.06-.086-.054-.036-.021-.036-.021-.034-.019-.03-.016-.028-.014-.024-.012L8.906 2H7.095z"/><path fill="#fffff2" d="M1 3h14v12H1z"/><path fill="url(#_Linear2)" d="M4 6h5v1H4z" transform="matrix(2 0 0 1 -5 -1)"/><path fill="url(#_Linear3)" d="M4 6h5v1H4z" transform="matrix(-.8 0 0 1 11.2 1)"/><path fill="url(#_Linear4)" d="M4 6h5v1H4z" transform="matrix(-.8 0 0 1 14.2 2)"/><path fill="url(#_Linear5)" d="M4 6h5v1H4z" transform="matrix(.77646 0 0 1 5.894 1)"/><path d="M15 15H1V3h14v12zM2 4v10h12V4H2z"/><path d="M16 6.992L15 6V3H1v3L0 7.034v6.873C0 15.062.938 16 2.093 16h11.814A2.094 2.094 0 0016 13.907V6.992z" fill="none"/><clipPath id="a"><path d="M16 6.992L15 6V3H1v3L0 7.034v6.873C0 15.062.938 16 2.093 16h11.814A2.094 2.094 0 0016 13.907V6.992z"/></clipPath><g clip-path="url(#a)"><path d="M16 8.727l-1-.909-4 3.921-2-1.705-2.007-.006L5 11.739 1 7.818l-1 .909v5.48L1.973 16h12.054L16 14.207v-5.48zm-.991 6.381L11 11.739m-6 0l-3.986 3.389" fill="url(#_Radial7)" stroke="#000" stroke-width=".92" transform="matrix(1 0 0 1.17333 0 -2.773)"/></g><path d="M15 6l1 .992v6.915l-.001.054-.002.054-.003.053-.005.053-.006.052-.007.053-.009.051-.01.052-.011.05-.012.051-.013.05-.015.049-.016.049-.017.048-.018.048-.02.047-.02.047-.022.046-.022.045-.024.045-.024.044-.026.044-.027.043-.028.042-.028.041-.03.041-.031.04-.031.039-.033.038-.033.038-.034.037-.035.036-.036.035-.037.034-.038.033-.038.033-.039.031-.04.031-.041.03-.041.028-.042.028-.043.027-.044.026-.044.024-.045.024-.045.022-.046.022-.047.02-.047.02-.048.018-.048.017-.049.016-.049.015-.05.013-.051.012-.05.011-.052.01-.051.009-.053.007-.052.006-.053.005-.053.003-.054.002-.054.001H2.093l-.054-.001-.054-.002-.053-.003-.053-.005-.052-.006-.053-.007-.051-.009-.052-.01-.05-.011-.051-.012-.05-.013-.049-.015-.049-.016-.048-.017-.048-.018-.047-.02-.047-.02-.046-.022-.045-.022-.045-.024-.044-.024-.044-.026-.043-.027-.042-.028-.041-.028-.041-.03-.04-.031-.039-.031-.038-.033-.038-.033-.037-.034-.036-.035-.035-.036-.034-.037-.033-.038-.033-.038-.031-.039-.031-.04-.03-.041-.028-.041-.028-.042-.027-.043-.026-.044-.024-.044-.024-.045-.022-.045-.022-.046-.02-.047-.02-.047-.018-.048-.017-.048-.016-.049-.015-.049-.013-.05-.012-.051-.011-.05-.01-.052-.009-.051-.007-.053-.006-.052-.005-.053-.003-.053-.002-.054L0 13.907V7.034L1 6V3h14v3zM2 4v2.404L1 7.438v6.498l.002.028.001.028.003.028.003.027.004.027.004.027.005.027.006.026.006.026.007.026.008.026.008.025.009.025.01.025.01.025.01.024.011.024.012.023.012.024.013.023.014.022.014.023.014.022.015.022.016.021.016.021.016.02.018.021.017.019.018.02.018.019.019.018.02.018.019.017.021.018.02.016.021.016.021.016.022.015.022.014.023.014.022.014.023.013.024.012.023.012.024.011.024.01.025.01.025.01.025.009.025.008.026.008.026.007.026.006.026.006.027.005.027.004.027.004.027.003.028.003.028.001.028.002h11.872l.028-.002.028-.001.028-.003.027-.003.027-.004.027-.004.027-.005.026-.006.026-.006.026-.007.026-.008.025-.008.025-.009.025-.01.025-.01.024-.01.024-.011.023-.012.024-.012.023-.013.022-.014.023-.014.022-.014.022-.015.021-.016.021-.016.02-.016.021-.018.019-.017.02-.018.019-.018.018-.019.018-.02.017-.019.018-.021.016-.02.016-.021.016-.021.015-.022.014-.022.014-.023.014-.022.013-.023.012-.024.012-.023.011-.024.01-.024.01-.025.01-.025.009-.025.008-.025.008-.026.007-.026.006-.026.006-.026.005-.027.004-.027.004-.027.003-.027.003-.028.001-.028.002-.028V7.408l-1-.991V4H2z"/><defs><linearGradient id="_Linear2" x1="0" y1="0" x2="1" y2="0" gradientUnits="userSpaceOnUse" gradientTransform="matrix(5 0 0 1 4 6)"><stop offset="0" stop-color="#fff"/><stop offset=".09" stop-color="#b8b8b8"/><stop offset=".21" stop-color="#e0e0e0"/><stop offset=".35" stop-color="#ececec"/><stop offset=".72" stop-color="#828282"/><stop offset="1" stop-color="#fff"/></linearGradient><linearGradient id="_Linear3" x1="0" y1="0" x2="1" y2="0" gradientUnits="userSpaceOnUse" gradientTransform="matrix(5 0 0 1 4 6)"><stop offset="0" stop-color="#fff"/><stop offset=".09" stop-color="#b8b8b8"/><stop offset=".21" stop-color="#e0e0e0"/><stop offset=".35" stop-color="#ececec"/><stop offset=".72" stop-color="#828282"/><stop offset="1" stop-color="#fff"/></linearGradient><linearGradient id="_Linear4" x1="0" y1="0" x2="1" y2="0" gradientUnits="userSpaceOnUse" gradientTransform="matrix(5 0 0 1 4 6)"><stop offset="0" stop-color="#fff"/><stop offset=".09" stop-color="#b8b8b8"/><stop offset=".21" stop-color="#e0e0e0"/><stop offset=".35" stop-color="#ececec"/><stop offset=".72" stop-color="#828282"/><stop offset="1" stop-color="#fff"/></linearGradient><linearGradient id="_Linear5" x1="0" y1="0" x2="1" y2="0" gradientUnits="userSpaceOnUse" gradientTransform="matrix(5 0 0 1 4 6)"><stop offset="0" stop-color="#fff"/><stop offset=".09" stop-color="#b8b8b8"/><stop offset=".21" stop-color="#e0e0e0"/><stop offset=".35" stop-color="#ececec"/><stop offset=".72" stop-color="#828282"/><stop offset="1" stop-color="#fff"/></linearGradient><radialGradient id="_Radial1" cx="0" cy="0" r="1" gradientUnits="userSpaceOnUse" gradientTransform="matrix(10 0 0 11 7 5)"><stop offset="0" stop-color="#b5cfff"/><stop offset=".61" stop-color="#a6c1f1"/><stop offset=".82" stop-color="#839fd1"/><stop offset="1" stop-color="#5f7cb0"/></radialGradient><radialGradient id="_Radial7" cx="0" cy="0" r="1" gradientUnits="userSpaceOnUse" gradientTransform="matrix(10 0 0 6 7 10)"><stop offset="0" stop-color="#b5cfff"/><stop offset=".61" stop-color="#a6c1f1"/><stop offset=".82" stop-color="#839fd1"/><stop offset="1" stop-color="#5f7cb0"/></radialGradient></defs></svg>