<svg width="16" height="16" xmlns="http://www.w3.org/2000/svg" fill-rule="evenodd" clip-rule="evenodd" stroke-linecap="round" stroke-miterlimit="2"><path d="M16 6.992S10.155 0 9 0H7C5.845 0 0 7.034 0 7.034v6.873C0 15.062.938 16 2.093 16h11.814A2.094 2.094 0 0016 13.907V6.992z" fill="url(#_Radial1)"/><path d="M9.028.001l.03.004.031.006.033.009.034.011.036.014.038.015.039.019.041.02.042.022.043.025.045.027.046.029.048.031.048.033.05.034.052.037.052.039.109.083.113.09.117.096.121.103.125.109.128.115.132.12.135.126.137.13.14.135.142.139.145.142.146.147.148.149.148.152.151.155.15.157.152.159.152.161.152.162.152.163.302.327.299.327.294.325.286.32.278.312.266.301.253.289.238.274.222.255.202.235.182.213.294.344.187.222.066.079v6.915l-.001.054-.002.054-.003.053-.005.053-.006.052-.007.053-.009.051-.01.052-.011.05-.012.051-.013.05-.015.049-.016.049-.017.048-.018.048-.02.047-.02.047-.022.046-.022.045-.024.045-.024.044-.026.044-.027.043-.028.042-.028.041-.03.041-.031.04-.031.039-.033.038-.033.038-.034.037-.035.036-.036.035-.037.034-.038.033-.038.033-.039.031-.04.031-.041.03-.041.028-.042.028-.043.027-.044.026-.044.024-.045.024-.045.022-.046.022-.047.02-.047.02-.048.018-.048.017-.049.016-.049.015-.05.013-.051.012-.05.011-.052.01-.051.009-.053.007-.052.006-.053.005-.053.003-.054.002-.054.001H2.093l-.054-.001-.054-.002-.053-.003-.053-.005-.052-.006-.053-.007-.051-.009-.052-.01-.05-.011-.051-.012-.05-.013-.049-.015-.049-.016-.048-.017-.048-.018-.047-.02-.047-.02-.046-.022-.045-.022-.045-.024-.044-.024-.044-.026-.043-.027-.042-.028-.041-.028-.041-.03-.04-.031-.039-.031-.038-.033-.038-.033-.037-.034-.036-.035-.035-.036-.034-.037-.033-.038-.033-.038-.031-.039-.031-.04-.03-.041-.028-.041-.028-.042-.027-.043-.026-.044-.024-.044-.024-.045-.022-.045-.022-.046-.02-.047-.02-.047-.018-.048-.017-.048-.016-.049-.015-.049-.013-.05-.012-.051-.011-.05-.01-.052-.009-.051-.007-.053-.006-.052-.005-.053-.003-.053-.002-.054L0 13.907V7.034l.066-.079.187-.223.294-.347.182-.213.202-.237.222-.257.238-.275.253-.291.266-.304.278-.313.286-.322.294-.327.299-.329.302-.329.152-.164.152-.163.152-.162.152-.16.15-.158.151-.155.148-.154.148-.15.146-.147.145-.144.142-.139.14-.136.137-.131.135-.126.132-.121.128-.115.125-.11.121-.104.117-.097.113-.09.109-.084.052-.039.052-.037.05-.035.048-.033.048-.031.046-.029.045-.027.043-.025.042-.023.041-.02.039-.018.038-.016.036-.014.034-.011.033-.009.031-.006.03-.004L7 0h2l.028.001zM7.128 1l-.017.01-.027.016-.03.019-.033.021-.036.024-.038.027-.04.029-.041.031-.094.072-.098.078-.105.087-.11.094-.116.102-.12.108-.124.114-.128.12-.131.125-.135.131-.137.135-.14.139-.142.143-.144.146-.146.15-.147.153-.148.155-.149.157-.149.159-.15.16-.149.161-.299.325-.295.326-.291.323-.283.318-.275.311-.264.301-.251.288-.236.273-.22.255-.201.235-.18.211-.291.344L1 7.398v6.538l.002.028.001.028.003.028.003.027.004.027.004.027.005.027.006.026.006.026.007.026.008.026.008.025.009.025.01.025.01.025.01.024.011.024.012.023.012.024.013.023.014.022.014.023.014.022.015.022.016.021.016.021.016.02.018.021.017.019.018.02.018.019.019.018.02.018.019.017.021.018.02.016.021.016.021.016.022.015.022.014.023.014.022.014.023.013.024.012.023.012.024.011.024.01.025.01.025.01.025.009.025.008.026.008.026.007.026.006.026.006.027.005.027.004.027.004.027.003.028.003.028.001.028.002h11.872l.028-.002.028-.001.028-.003.027-.003.027-.004.027-.004.027-.005.026-.006.026-.006.026-.007.026-.008.025-.008.025-.009.025-.01.025-.01.024-.01.024-.011.023-.012.024-.012.023-.013.022-.014.023-.014.022-.014.022-.015.021-.016.021-.016.02-.016.021-.018.019-.017.02-.018.019-.018.018-.019.018-.02.017-.019.018-.021.016-.02.016-.021.016-.021.015-.022.014-.022.014-.023.014-.022.013-.023.012-.024.012-.023.011-.024.01-.024.01-.025.01-.025.009-.025.008-.025.008-.026.007-.026.006-.026.006-.026.005-.027.004-.027.004-.027.003-.027.003-.028.001-.028.002-.028V7.357l-.016-.019-.291-.342-.18-.21-.201-.233-.22-.254-.236-.271-.251-.286-.264-.299-.275-.309-.283-.317-.291-.321-.295-.324-.299-.323-.149-.16-.15-.159-.149-.158-.149-.156-.148-.155-.147-.151-.146-.149-.143-.146-.143-.142-.139-.138-.138-.134-.134-.13-.132-.124-.128-.119-.124-.114-.12-.107-.116-.101-.11-.094-.105-.086-.098-.078-.094-.072-.04-.03-.041-.029-.038-.027-.036-.024-.033-.021-.03-.019-.027-.016L8.874 1H7.128z"/><path fill="#fffff2" d="M4 2h11v13H4z"/><path fill="url(#_Linear2)" d="M4 6h5v1H4z" transform="matrix(1.57143 0 0 1.08333 -.714 -2.333)"/><path fill="url(#_Linear3)" d="M4 6h5v1H4z" transform="matrix(-.62857 0 0 1.08333 12.014 -.167)"/><path fill="url(#_Linear4)" d="M4 6h5v1H4z" transform="matrix(.61007 0 0 1.08333 7.845 -.167)"/><path d="M15 15H4V2h11v13zM5 3v11h9V3H5z"/><g><path fill="#fffff2" d="M0 5h8v9H0z"/><path fill="url(#_Linear5)" d="M4 6h5v1H4z" transform="matrix(1.14286 0 0 .75 -3.429 2)"/><path fill="url(#_Linear6)" d="M4 6h5v1H4z" transform="matrix(.44369 0 0 .75 2.225 3.5)"/><path d="M8 14H0V5h8v9zM1 6v7h6V6H1z"/></g><g><path fill="#fffff2" d="M11.364 6l3.318 3.318L9 15l-3.318-3.318z"/><path fill="url(#_Linear7)" d="M4 6h5v1H4z" transform="matrix(.4052 .4052 -.42426 .42426 12.325 3.834)"/><path fill="url(#_Linear8)" d="M4 6h5v1H4z" transform="matrix(-.1896 -.1896 -.4735 .4735 15.02 7.865)"/><path d="M14.682 9.318L9 15l-3.318-3.318L11.364 6l3.318 3.318zm-7.586 2.364L9 13.586l4.268-4.268-1.904-1.904-4.268 4.268z"/></g><path d="M16 6.992L15 6V2H4v3H0v8.907C0 15.062.938 16 2.093 16h11.814A2.094 2.094 0 0016 13.907V6.992z" fill="none"/><clipPath id="a"><path d="M16 6.992L15 6V2H4v3H0v8.907C0 15.062.938 16 2.093 16h11.814A2.094 2.094 0 0016 13.907V6.992z"/></clipPath><g clip-path="url(#a)"><path d="M16 8.727l-1-.909-4 3.921-2-1.705-2.007-.006L5 11.739 1.951 8.751 0 8.727v5.48L1.973 16h12.054L16 14.207v-5.48zm-.991 6.381L11 11.739m-6 0l-3.986 3.389" fill="url(#_Radial10)" stroke="#000" stroke-width=".92" transform="matrix(1 0 0 1.17333 0 -2.773)"/></g><path d="M15 6l1 .992v6.915l-.001.054-.002.054-.003.053-.005.053-.006.052-.007.053-.009.051-.01.052-.011.05-.012.051-.013.05-.015.049-.016.049-.017.048-.018.048-.02.047-.02.047-.022.046-.022.045-.024.045-.024.044-.026.044-.027.043-.028.042-.028.041-.03.041-.031.04-.031.039-.033.038-.033.038-.034.037-.035.036-.036.035-.037.034-.038.033-.038.033-.039.031-.04.031-.041.03-.041.028-.042.028-.043.027-.044.026-.044.024-.045.024-.045.022-.046.022-.047.02-.047.02-.048.018-.048.017-.049.016-.049.015-.05.013-.051.012-.05.011-.052.01-.051.009-.053.007-.052.006-.053.005-.053.003-.054.002-.054.001H2.093l-.054-.001-.054-.002-.053-.003-.053-.005-.052-.006-.053-.007-.051-.009-.052-.01-.05-.011-.051-.012-.05-.013-.049-.015-.049-.016-.048-.017-.048-.018-.047-.02-.047-.02-.046-.022-.045-.022-.045-.024-.044-.024-.044-.026-.043-.027-.042-.028-.041-.028-.041-.03-.04-.031-.039-.031-.038-.033-.038-.033-.037-.034-.036-.035-.035-.036-.034-.037-.033-.038-.033-.038-.031-.039-.031-.04-.03-.041-.028-.041-.028-.042-.027-.043-.026-.044-.024-.044-.024-.045-.022-.045-.022-.046-.02-.047-.02-.047-.018-.048-.017-.048-.016-.049-.015-.049-.013-.05-.012-.051-.011-.05-.01-.052-.009-.051-.007-.053-.006-.052-.005-.053-.003-.053-.002-.054L0 13.907V5h4V2h11v4zM5 3v3H1v7.936l.002.028.001.028.003.028.003.027.004.027.004.027.005.027.006.026.006.026.007.026.008.026.008.025.009.025.01.025.01.025.01.024.011.024.012.023.012.024.013.023.014.022.014.023.014.022.015.022.016.021.016.021.016.02.018.021.017.019.018.02.018.019.019.018.02.018.019.017.021.018.02.016.021.016.021.016.022.015.022.014.023.014.022.014.023.013.024.012.023.012.024.011.024.01.025.01.025.01.025.009.025.008.026.008.026.007.026.006.026.006.027.005.027.004.027.004.027.003.028.003.028.001.028.002h11.872l.028-.002.028-.001.028-.003.027-.003.027-.004.027-.004.027-.005.026-.006.026-.006.026-.007.026-.008.025-.008.025-.009.025-.01.025-.01.024-.01.024-.011.023-.012.024-.012.023-.013.022-.014.023-.014.022-.014.022-.015.021-.016.021-.016.02-.016.021-.018.019-.017.02-.018.019-.018.018-.019.018-.02.017-.019.018-.021.016-.02.016-.021.016-.021.015-.022.014-.022.014-.023.014-.022.013-.023.012-.024.012-.023.011-.024.01-.024.01-.025.01-.025.009-.025.008-.025.008-.026.007-.026.006-.026.006-.026.005-.027.004-.027.004-.027.003-.027.003-.028.001-.028.002-.028V7.408l-1-.991V3H5z"/><defs><linearGradient id="_Linear2" x1="0" y1="0" x2="1" y2="0" gradientUnits="userSpaceOnUse" gradientTransform="matrix(5 0 0 1 4 6)"><stop offset="0" stop-color="#fff"/><stop offset=".09" stop-color="#b8b8b8"/><stop offset=".21" stop-color="#e0e0e0"/><stop offset=".35" stop-color="#ececec"/><stop offset=".72" stop-color="#828282"/><stop offset="1" stop-color="#fff"/></linearGradient><linearGradient id="_Linear3" x1="0" y1="0" x2="1" y2="0" gradientUnits="userSpaceOnUse" gradientTransform="matrix(5 0 0 1 4 6)"><stop offset="0" stop-color="#fff"/><stop offset=".09" stop-color="#b8b8b8"/><stop offset=".21" stop-color="#e0e0e0"/><stop offset=".35" stop-color="#ececec"/><stop offset=".72" stop-color="#828282"/><stop offset="1" stop-color="#fff"/></linearGradient><linearGradient id="_Linear4" x1="0" y1="0" x2="1" y2="0" gradientUnits="userSpaceOnUse" gradientTransform="matrix(5 0 0 1 4 6)"><stop offset="0" stop-color="#fff"/><stop offset=".09" stop-color="#b8b8b8"/><stop offset=".21" stop-color="#e0e0e0"/><stop offset=".35" stop-color="#ececec"/><stop offset=".72" stop-color="#828282"/><stop offset="1" stop-color="#fff"/></linearGradient><linearGradient id="_Linear5" x1="0" y1="0" x2="1" y2="0" gradientUnits="userSpaceOnUse" gradientTransform="matrix(5 0 0 1 4 6)"><stop offset="0" stop-color="#fff"/><stop offset=".09" stop-color="#b8b8b8"/><stop offset=".21" stop-color="#e0e0e0"/><stop offset=".35" stop-color="#ececec"/><stop offset=".72" stop-color="#828282"/><stop offset="1" stop-color="#fff"/></linearGradient><linearGradient id="_Linear6" x1="0" y1="0" x2="1" y2="0" gradientUnits="userSpaceOnUse" gradientTransform="matrix(5 0 0 1 4 6)"><stop offset="0" stop-color="#fff"/><stop offset=".09" stop-color="#b8b8b8"/><stop offset=".21" stop-color="#e0e0e0"/><stop offset=".35" stop-color="#ececec"/><stop offset=".72" stop-color="#828282"/><stop offset="1" stop-color="#fff"/></linearGradient><linearGradient id="_Linear7" x1="0" y1="0" x2="1" y2="0" gradientUnits="userSpaceOnUse" gradientTransform="matrix(5 0 0 1 4 6)"><stop offset="0" stop-color="#fff"/><stop offset=".09" stop-color="#b8b8b8"/><stop offset=".21" stop-color="#e0e0e0"/><stop offset=".35" stop-color="#ececec"/><stop offset=".72" stop-color="#828282"/><stop offset="1" stop-color="#fff"/></linearGradient><linearGradient id="_Linear8" x1="0" y1="0" x2="1" y2="0" gradientUnits="userSpaceOnUse" gradientTransform="matrix(5 0 0 1 4 6)"><stop offset="0" stop-color="#fff"/><stop offset=".09" stop-color="#b8b8b8"/><stop offset=".21" stop-color="#e0e0e0"/><stop offset=".35" stop-color="#ececec"/><stop offset=".72" stop-color="#828282"/><stop offset="1" stop-color="#fff"/></linearGradient><radialGradient id="_Radial1" cx="0" cy="0" r="1" gradientUnits="userSpaceOnUse" gradientTransform="matrix(10 0 0 11 7 5)"><stop offset="0" stop-color="#ff944d"/><stop offset=".61" stop-color="#ec8540"/><stop offset=".82" stop-color="#c06021"/><stop offset="1" stop-color="#913a00"/></radialGradient><radialGradient id="_Radial10" cx="0" cy="0" r="1" gradientUnits="userSpaceOnUse" gradientTransform="matrix(10 0 0 6 7 10)"><stop offset="0" stop-color="#ff944d"/><stop offset=".61" stop-color="#ec8540"/><stop offset=".82" stop-color="#c06021"/><stop offset="1" stop-color="#913a00"/></radialGradient></defs></svg>