<svg width="15" height="15" xmlns="http://www.w3.org/2000/svg" fill-rule="evenodd" clip-rule="evenodd" stroke-linecap="round" stroke-linejoin="round" stroke-miterlimit="1.5"><g transform="matrix(1.44444 0 0 2.70486 -9.111 -8.115)"><path d="M15 4.496C15 3.67 13.66 3 12.009 3h-1.018C9.34 3 8 3.67 8 4.496V5H7v3.5l9 .046V5h-1v-.504z" fill="none"/><clipPath id="a"><path d="M15 4.496C15 3.67 13.66 3 12.009 3h-1.018C9.34 3 8 3.67 8 4.496V5H7v3.5l9 .046V5h-1v-.504z"/></clipPath><g clip-path="url(#a)"><path d="M13 7c0-.5-.503-1-.917-1h-1.166C10.503 6 10 6.5 10 7v1.008L13 8V7zm2 .508h1.75V14.5H6.25V7.508H8V7c0-2.679 3-3 3-3h1s3 .346 3 3v.508z" fill="#999" stroke="url(#_Linear2)" stroke-width=".77" transform="matrix(.85714 0 0 .5 1.643 1.25)"/><path d="M16 7H7v7h9V7zM7 9.117h9m-9 2.207h9" fill="url(#_Linear3)" stroke="url(#_Linear4)" stroke-width=".74" stroke-linejoin="miter" stroke-miterlimit="2" transform="matrix(1 0 0 .46429 0 2)"/></g><path d="M12.086 3l.076.002.077.002.075.004.075.004.075.005.074.006.073.007.073.008.072.009.071.01.071.01.07.012.069.012.068.013.067.014.067.014.066.016.065.016.064.017.063.017.062.019.061.019.061.02.059.02.058.021.057.022.056.023.055.023.053.024.053.024.051.025.051.026.048.026.048.027.047.028.045.028.043.028.043.029.041.03.039.03.039.03.036.031.036.032.034.032.032.033.031.032.029.034.027.034.026.034.025.034.022.035.021.035.02.036.017.036.016.036.014.037.013.037.01.037.009.038.006.038.005.038.003.038.001.039V5h1v3.546L7 8.5V5h1v-.504l.001-.039.003-.038.005-.038.006-.038.009-.038.01-.037.013-.037.014-.037.016-.036.017-.036.02-.036.021-.035.022-.035.025-.034.026-.034.027-.034.029-.034.031-.032.032-.033.034-.032.036-.032.036-.031.039-.03.039-.03.041-.03.043-.029.043-.028.045-.028.047-.028.048-.027.048-.026.051-.026.051-.025.053-.024.053-.024.055-.023.056-.023.057-.022.058-.021.059-.02.061-.02.061-.019.062-.019.063-.017.064-.017.065-.016.066-.016.067-.014.067-.014.068-.013.069-.012.07-.012.071-.01.071-.01.072-.009.073-.008.073-.007.074-.006.075-.005.075-.004.075-.004.077-.002.076-.002h1.172zm-1.09.37h-.065l-.06.001-.06.002-.06.003-.058.003-.059.004-.057.005-.058.006-.056.006-.056.007-.056.007-.055.008-.054.009-.054.01-.053.01-.052.01-.052.012-.051.012-.05.012-.05.013-.049.014-.048.014-.047.015-.046.015-.046.016-.045.016-.044.017-.043.017-.042.018-.041.018-.04.019-.039.019-.038.02-.038.02-.036.02-.035.021-.034.021-.033.022-.032.022-.031.022-.03.023-.029.023-.028.023-.026.024-.025.024-.024.024-.023.024-.022.025-.02.025-.02.025-.018.026-.016.026-.016.026-.014.026-.013.027-.012.026-.01.027-.009.028-.008.027-.006.028-.005.028-.004.028-.002.028-.001.031v.872h-1v2.764l7.616.038V5.37h-1v-.872l-.001-.031-.002-.028-.004-.028-.005-.028-.006-.028-.008-.027-.009-.028-.01-.027-.012-.026-.013-.027-.014-.026-.016-.026-.016-.026-.018-.026-.02-.025-.02-.025-.022-.025-.023-.024-.024-.024-.025-.024-.026-.024-.028-.023-.029-.023-.03-.023-.031-.022-.032-.022-.033-.022-.034-.021-.035-.021-.036-.02-.038-.02-.038-.02-.039-.019-.04-.019-.041-.018-.042-.018-.043-.017-.044-.017-.045-.016-.046-.016-.046-.015-.047-.015-.048-.014-.049-.014-.05-.013-.05-.012-.051-.012-.052-.012-.052-.01-.053-.01-.054-.01-.054-.009-.055-.008-.056-.007-.056-.007-.056-.006-.058-.006-.057-.005-.059-.004-.058-.003-.06-.003-.06-.002-.06-.001h-1.073z" fill="url(#_Linear5)"/></g><defs><linearGradient id="_Linear2" x1="0" y1="0" x2="1" y2="0" gradientUnits="userSpaceOnUse" gradientTransform="matrix(10.5 0 0 10.5 6.25 9.25)"><stop offset="0" stop-color="#5e5e5e"/><stop offset="1" stop-color="#121313"/></linearGradient><linearGradient id="_Linear3" x1="0" y1="0" x2="1" y2="0" gradientUnits="userSpaceOnUse" gradientTransform="matrix(9 0 0 7 7 10.5)"><stop offset="0" stop-color="#ccc"/><stop offset=".23" stop-color="#fff"/><stop offset="1" stop-color="#535353"/></linearGradient><linearGradient id="_Linear4" x1="0" y1="0" x2="1" y2="0" gradientUnits="userSpaceOnUse" gradientTransform="matrix(9 0 0 7 7 10.5)"><stop offset="0" stop-color="#5e5e5e"/><stop offset="1" stop-color="#121313"/></linearGradient><linearGradient id="_Linear5" x1="0" y1="0" x2="1" y2="0" gradientUnits="userSpaceOnUse" gradientTransform="matrix(9 0 0 5.54557 7 5.773)"><stop offset="0" stop-color="#5e5e5e"/><stop offset="1" stop-color="#121313"/></linearGradient></defs></svg>