<svg width="15" height="15" xmlns="http://www.w3.org/2000/svg" fill-rule="evenodd" clip-rule="evenodd" stroke-linejoin="round" stroke-miterlimit="2"><g transform="matrix(15.9067 0 0 17.4419 -.445 14.53)"><path d="M.793.027c.119 0 .178-.059.178-.143a.249.249 0 00-.04-.124L.654-.719C.61-.794.566-.833.5-.833s-.11.04-.154.115l-.277.479a.248.248 0 00-.041.123c0 .086.062.143.18.143h.585z" fill="url(#_Radial1)" fill-rule="nonzero"/><clipPath id="a"><path d="M.793.027c.119 0 .178-.059.178-.143a.249.249 0 00-.04-.124L.654-.719C.61-.794.566-.833.5-.833s-.11.04-.154.115l-.277.479a.248.248 0 00-.041.123c0 .086.062.143.18.143h.585z" clip-rule="nonzero"/></clipPath><g clip-path="url(#a)"><path d="M.138-.197l.279-.482C.447-.731.466-.752.5-.752s.053.021.083.073l.279.482c.02.033.03.056.03.077 0 .039-.028.066-.102.066H.212C.136-.054.108-.08.108-.121c0-.02.01-.043.03-.076zm.655.224c.119 0 .178-.059.178-.143a.249.249 0 00-.04-.124L.654-.719C.61-.794.566-.833.5-.833s-.11.04-.154.115l-.277.479a.248.248 0 00-.041.123c0 .086.062.143.18.143h.585zM.5-.112a.073.073 0 00.074-.074A.073.073 0 00.5-.262a.073.073 0 00-.074.076c0 .04.031.074.074.074zm0-.544c-.044 0-.068.024-.068.07 0 .033.009.084.03.184l.018.091h.04l.018-.091c.021-.1.03-.151.03-.184 0-.046-.024-.07-.068-.07z" fill-rule="nonzero"/></g></g><defs><radialGradient id="_Radial1" cx="0" cy="0" r="1" gradientUnits="userSpaceOnUse" gradientTransform="matrix(.50293 .63067 -.69153 .45867 .154 -.776)"><stop offset="0" stop-color="#fff"/><stop offset=".57" stop-color="#e8f1fc"/><stop offset=".79" stop-color="#b7d3f6"/><stop offset="1" stop-color="#89b7f0"/></radialGradient></defs></svg>