<svg width="28" height="30" xmlns="http://www.w3.org/2000/svg" fill-rule="evenodd" clip-rule="evenodd" stroke-linejoin="round" stroke-miterlimit="2"><path fill="#c1d2ee" d="M0 0h23v22H0z"/><path d="M11.094 5.975c1.102 0 1.954.203 2.571.621.617.406.918 1.027.918 1.85 0 .419-.105.786-.34 1.116-.224.33-.552.57-.998.735.564.114.984.367 1.26.747.288.38.42.824.42 1.318 0 .862-.29 1.521-.88 1.965-.59.443-1.43.659-2.505.659H5.754v-1.078l.997-.19V7.255l-.997-.19v-1.09h5.34zm-1.968 5.031v2.598h1.718c.499 0 .88-.114 1.142-.317.249-.202.38-.52.38-.925 0-.443-.105-.773-.328-1.014-.223-.228-.577-.342-1.05-.342H9.127zm0-1.254h1.338c.498 0 .892-.102 1.154-.304.276-.19.407-.482.407-.862 0-.418-.131-.723-.407-.925-.275-.19-.669-.292-1.207-.292H9.126v2.383z" fill-rule="nonzero"/><path d="M23 22H0V0h23v22zM1.067 20.933h20.866V1.067H1.067v19.866z" fill="#316ac5"/><path d="M16.03 24.146l.107-16.759 11.68 12.018-4.998.34 3.472 8.632-2.947 1.185-3.472-8.633-3.841 3.217z" fill="#fff"/><path d="M27.817 19.405l-4.998.34 3.472 8.632-2.947 1.185-3.472-8.633-3.841 3.217.106-16.759 11.68 12.018zm-10.773 2.588l3.242-2.715 3.613 8.983 1.09-.439-3.613-8.982 4.22-.286-8.475-8.72-.077 12.159z"/></svg>