<svg width="21" height="20" xmlns="http://www.w3.org/2000/svg" fill-rule="evenodd" clip-rule="evenodd" stroke-linejoin="round" stroke-miterlimit="2"><path d="M10.094 4.975c1.102 0 1.954.203 2.571.621.617.406.918 1.027.918 1.85 0 .419-.105.786-.34 1.116-.224.33-.552.57-.998.735.564.114.984.367 1.26.747.288.38.42.824.42 1.318 0 .862-.29 1.521-.88 1.965-.59.443-1.43.658-2.505.658H4.95v-1.077l.998-.19V6.255l-.997-.19v-1.09h5.143zM8.82 10.006v2.598h1.719c.498 0 .879-.114 1.128-.317.262-.202.393-.52.393-.925 0-.443-.104-.773-.328-1.014-.223-.228-.577-.342-1.05-.342H8.822zm0-1.254h1.338c.499 0 .892-.102 1.155-.304.275-.19.406-.482.406-.862 0-.418-.144-.723-.406-.925-.276-.19-.683-.292-1.22-.292H8.82v2.383z" fill-rule="nonzero"/></svg>