<svg width="21" height="20" xmlns="http://www.w3.org/2000/svg" fill-rule="evenodd" clip-rule="evenodd" stroke-linejoin="round" stroke-miterlimit="2"><path d="M5.911 15.846l.874-3.136H5.098v-1.1H7.07l.753-2.67H5.098v-1.1h3.01l.874-3.152h1.484l-.874 3.151h3.132l.874-3.151h1.485l-.855 3.151h1.709V8.94h-2.014l-.732 2.67h2.746v1.1h-3.05l-.855 3.136h-1.505l.854-3.136H8.27l-.854 3.136H5.91zm2.664-4.237h3.111l.753-2.669H9.307l-.732 2.67z" fill="#aaa" fill-rule="nonzero"/><path d="M5.54 15.302l.875-3.137H4.727v-1.1h1.972l.753-2.67H4.727v-1.1h3.01l.874-3.152h1.484l-.874 3.152h3.132l.874-3.152h1.485l-.854 3.152h1.708v1.1h-2.013l-.732 2.67h2.745v1.1h-3.05l-.855 3.137h-1.504l.854-3.137H7.899l-.854 3.137H5.54zm2.664-4.238h3.112l.752-2.669H8.936l-.732 2.67z" fill-rule="nonzero"/></svg>