<svg width="21" height="20" xmlns="http://www.w3.org/2000/svg" fill-rule="evenodd" clip-rule="evenodd" stroke-linejoin="round" stroke-miterlimit="2"><path d="M13.02 14.297l-.917-.694V2.02h-1.375L3.395 13.575l-1.375.722v.723h4.583v-.723l-1.375-.722 1.833-2.889h3.209v2.89l-.917.721v.723h3.667v-.723m-2.75-5.055H7.978L10.27 5.63v3.61z" fill="navy"/><path fill="#ffa600" d="M18 3.857v1.857h-4V3.857z"/><path fill="#fffb00" d="M18 5.714v1.857h-4V5.714z"/><path fill="#00ff01" d="M18 7.571V9.43h-4V7.57z"/><path fill="#00ffb8" d="M18 9.429v1.857h-4V9.429z"/><path fill="#0078ff" d="M18 11.286v1.857h-4v-1.857z"/><path fill="#7000ff" d="M18 13.143V15h-4v-1.857z"/><path fill="red" d="M18 2v1.857h-4V2z"/></svg>