<svg width="21" height="20" xmlns="http://www.w3.org/2000/svg" fill-rule="evenodd" clip-rule="evenodd" stroke-linejoin="round" stroke-miterlimit="2"><g transform="translate(-7 -6)"><path d="M15 9H9v10h9v-7l-3-3z" fill="none"/><clipPath id="a"><path d="M15 9H9v10h9v-7l-3-3z"/></clipPath><g clip-path="url(#a)"><path d="M15 9H9v10h9v-7l-3-3z" fill="#fff"/><path d="M15 9v3h3v7H9V9h6zm-5 1v8h7v-5h-3v-3h-4z"/><path d="M11 12h2v1h-2zM11 14h5v1h-5zM11 16h5v1h-5z"/></g><path d="M18 12v7H9V9h6l3 3zm-8-2v8h7v-5.586L14.586 10H10z"/></g><g transform="translate(-1 -3)"><path d="M15 9H9v10h9v-7l-3-3z" fill="none"/><clipPath id="b"><path d="M15 9H9v10h9v-7l-3-3z"/></clipPath><g clip-path="url(#b)"><path d="M15 9H9v10h9v-7l-3-3z" fill="#fff"/><path d="M15 9v3h3v7H9V9h6zm-5 1v8h7v-5h-3v-3h-4z" fill="navy"/><path fill="navy" d="M11 12h2v1h-2zM11 14h5v1h-5zM11 16h5v1h-5z"/></g><path d="M18 12v7H9V9h6l3 3zm-8-2v8h7v-5.586L14.586 10H10z" fill="navy"/></g></svg>