<svg width="21" height="20" xmlns="http://www.w3.org/2000/svg" fill-rule="evenodd" clip-rule="evenodd" stroke-linejoin="round" stroke-miterlimit="2"><g transform="translate(7.875 7.875) scale(.8125)"><circle cx="2" cy="2" r="8" fill="#1b70ef"/><clipPath id="a"><circle cx="2" cy="2" r="8"/></clipPath><g fill-rule="nonzero" clip-path="url(#a)"><path d="M-1.684 2.92l.002.01c.08.334.144.832.069 1.48-.08.693.231 1.373.803 1.772l.781.545s-.268 2.049.476 3.127A8.003 8.003 0 01-3.55-3.755C-4.145-2.56-4.75-.71-3.9.839c.39.709 1.006 1.168 1.69 1.464.261.112.457.34.525.617z" fill="#1b70ef"/><path d="M2-5.995c1.744 0 3.357.558 4.671 1.506 0 0-.688 1.056-.66 2.11a.505.505 0 00.508.487.508.508 0 00.454-.283c.184-.37.67-.817 1.894.074.091.152.178.307.258.465 0 0-.427.096-1 .026a.635.635 0 00-.449.112c-.09.065-.194.159-.31.275-.584.587-.68 1.808-.68 1.808-.012.255 0 .537.04.848.092.691.725 1.18 1.416 1.078l.03-.004a.857.857 0 01.981.801c.026.454.122.968.378 1.402A8.003 8.003 0 01.447 9.855s.225-.211.815-.825l1.244-1.319c.36-.394.718-.802 1.03-1.182a1.44 1.44 0 00-.37-2.142c-.697-.424-1.519-.97-2.049-1.479a1.25 1.25 0 00-.999-.338 9.723 9.723 0 00-1.8.36C-1.568 1.803-3.52.797-3.015-.086c.273-.48.733-.488 1.096-.396a.763.763 0 00.78-.264C-.697-1.294.274-1.807.983-2.132a.8.8 0 00.31-1.207C.356-4.597-.97-5.425-.97-5.425A7.976 7.976 0 012-5.995zm.326 2.586l.967-1.261s-.42-.379-1.934-.505c-.303-.025.841.8.967 1.766z" fill="#1b70ef"/><path d="M8.867-2.101c-1.225-.89-1.71-.443-1.894-.074a.508.508 0 01-.962-.204c-.028-1.054.66-2.11.66-2.11a8.034 8.034 0 012.196 2.388zM10 2.005c0 .95-.165 1.86-.469 2.705-.256-.434-.352-.948-.378-1.402a.857.857 0 00-.981-.8l-.03.003c-.69.101-1.324-.387-1.416-1.078-.04-.311-.052-.593-.04-.848 0 0 .096-1.221.68-1.808.116-.116.22-.21.31-.275a.635.635 0 01.45-.112c.572.07 1-.026 1-.026C9.684-.543 10 .694 10 2.005zM3.293-4.67L2.326-3.41C2.2-4.376 1.056-5.2 1.36-5.175c1.514.126 1.934.505 1.934.505zM1.293-3.34a.8.8 0 01-.31 1.208c-.708.325-1.679.838-2.123 1.386a.763.763 0 01-.78.264c-.362-.092-.822-.083-1.095.396-.505.883 1.447 1.889 1.333 3.016l-.002-.01a.908.908 0 00-.526-.617c-.683-.296-1.298-.755-1.688-1.464-.852-1.548-.247-3.398.349-4.595A7.998 7.998 0 01-.97-5.425s1.327.828 2.263 2.086z" fill="#34ff6d"/><path d="M3.167 4.387a1.44 1.44 0 01.368 2.142c-.311.38-.67.788-1.029 1.182l-1.244 1.32c-.59.613-.815.823-.815.823C-.297 8.776-.03 6.727-.03 6.727l-.78-.545a1.898 1.898 0 01-.804-1.772 4.236 4.236 0 00-.069-1.48 9.723 9.723 0 011.8-.36 1.25 1.25 0 011 .338c.529.509 1.351 1.055 2.049 1.479z" fill="#34ff6d"/></g><path d="M2.119-7.23l.119.002.118.004.118.005.117.007.118.008.117.01.116.011.116.012.116.014.115.016.115.017.114.018.114.019.113.021.113.023.113.024.112.025.111.026.111.028.111.029.11.031.109.032.109.033.108.034.108.036.107.037.106.038.106.04.105.04.105.042.103.044.104.044.102.046.102.047.102.048.1.049.1.05.099.052.099.053.097.054.097.055.097.056.095.057.095.059.094.059.093.061.093.061.091.063.091.064.09.065.09.066.088.067.087.068.087.069.086.07.085.071.084.072.083.073.083.074.081.074.081.076.079.077.079.078.078.079.077.079.076.081.074.081.074.083.073.083.072.084.071.085.07.086.069.087.068.087.067.088.066.09.065.09.064.091.063.091.061.093.061.093.059.094.059.095.057.095.056.097.055.097.054.097.053.099.052.099.05.1.049.1.048.102.047.102.046.102.044.104.044.103.042.105.04.105.04.106.038.106.037.107.036.108.034.108.033.109.032.109.031.11.029.111.028.111.026.111.025.112.024.113.023.113.021.113.019.114.018.114.017.115.016.115.014.116.012.116.011.116.01.117.008.118.007.117.005.118.004.118.002.119.001.119-.001.119-.002.119-.004.118-.005.118-.007.117-.008.118-.01.117-.011.116-.012.116-.014.116-.016.115-.017.115-.018.114-.019.114-.021.113-.023.113-.024.113-.025.112-.026.111-.028.111-.029.111-.031.11-.032.109-.033.109-.034.108-.036.108-.037.107-.038.106-.04.106-.04.105-.042.105-.044.103-.044.104-.046.102-.047.102-.048.102-.049.1-.05.1-.052.099-.053.099-.054.097-.055.097-.056.097-.057.095-.059.095-.059.094-.061.093-.061.093-.063.091-.064.091-.065.09-.066.09-.067.088-.068.087-.069.087-.07.086-.071.085-.072.084-.073.083-.074.083-.074.081-.076.081-.077.079-.078.079-.079.078-.079.077-.081.076-.081.074-.083.074-.083.073-.084.072-.085.071-.086.07-.087.069-.087.068-.088.067-.09.066-.09.065-.091.064-.091.063-.093.061-.093.061-.094.059-.095.059-.095.057-.097.056-.097.055-.097.054-.099.053-.099.052-.1.05-.1.049-.102.048-.102.047-.102.046-.104.044-.103.044-.105.042-.105.04-.106.04-.106.038-.107.037-.108.036-.108.034-.109.033-.109.032-.11.031-.111.029-.111.028-.111.026-.112.025-.113.024-.113.023-.113.021-.114.019-.114.018-.115.017-.115.016-.116.014-.116.012-.116.011-.117.01-.118.008-.117.007-.118.005-.118.004-.119.002-.119.001-.119-.001-.119-.002-.118-.004-.118-.005-.117-.007-.118-.008-.117-.01-.116-.011-.116-.012-.116-.014-.115-.016-.115-.017-.114-.018-.114-.019-.113-.021-.113-.023-.113-.024-.112-.025-.111-.026-.111-.028-.111-.029-.11-.031-.109-.032-.109-.033-.108-.034-.108-.036-.107-.037-.106-.038-.106-.04-.105-.04-.105-.042-.103-.044-.104-.044-.102-.046-.102-.047-.102-.048-.1-.049-.1-.05-.099-.052-.099-.053-.097-.054-.097-.055-.097-.056-.095-.057-.095-.059-.094-.059-.093-.061-.093-.061-.091-.063-.091-.064-.09-.065-.09-.066-.088-.067-.087-.068-.087-.069-.086-.07-.085-.071-.084-.072-.083-.073-.083-.074-.081-.074-.081-.076-.079-.077-.079-.078-.078-.079-.077-.079-.076-.081-.074-.081-.074-.083-.073-.083-.072-.084-.071-.085-.07-.086-.069-.087-.068-.087-.067-.088-.066-.09-.065-.09-.064-.091-.063-.091-.061-.093-.061-.093-.059-.094-.059-.095-.057-.095-.056-.097-.055-.097-.054-.097-.053-.099-.052-.099-.05-.1-.049-.1-.048-.102-.047-.102-.046-.102-.044-.104-.044-.103-.042-.105-.04-.105-.04-.106-.038-.106-.037-.107-.036-.108-.034-.108-.033-.109-.032-.109-.031-.11-.029-.111-.028-.111-.026-.111-.025-.112-.024-.113-.023-.113-.021-.113-.019-.114-.018-.114-.017-.115-.016-.115-.014-.116-.012-.116-.011-.116-.01-.117-.008-.118-.007-.117-.005-.118-.004-.118-.002-.119L-7.231 2l.001-.119.002-.119.004-.118.005-.118.007-.117.008-.118.01-.117.011-.116.012-.116.014-.116.016-.115.017-.115.018-.114.019-.114.021-.113.023-.113.024-.113.025-.112.026-.111.028-.111.029-.111.031-.11.032-.109.033-.109.034-.108.036-.108.037-.107.038-.106.04-.106.04-.105.042-.105.044-.103.044-.104.046-.102.047-.102.048-.102.049-.1.05-.1.052-.099.053-.099.054-.097.055-.097.056-.097.057-.095.059-.095.059-.094.061-.093.061-.093.063-.091.064-.091.065-.09.066-.09.067-.088.068-.087.069-.087.07-.086.071-.085.072-.084.073-.083.074-.083.074-.081.076-.081.077-.079.078-.079.079-.078.079-.077.081-.076.081-.074.083-.074.083-.073.084-.072.085-.071.086-.07.087-.069.087-.068.088-.067.09-.066.09-.065.091-.064.091-.063.093-.061.093-.061.094-.059.095-.059.095-.057.097-.056.097-.055.097-.054.099-.053.099-.052.1-.05.1-.049.102-.048.102-.047.102-.046.104-.044.103-.044.105-.042.105-.04.106-.04.106-.038.107-.037.108-.036.108-.034.109-.033.109-.032.11-.031.111-.029.111-.028.111-.026.112-.025.113-.024.113-.023.113-.021.114-.019.114-.018.115-.017.115-.016.116-.014.116-.012.116-.011.117-.01.118-.008.117-.007.118-.005.118-.004.119-.002L2-7.231l.119.001zm-.222 1.231l-.103.002-.103.003-.102.004-.102.006-.102.007-.101.009-.101.009-.101.011-.1.012-.1.014-.1.014-.099.016-.098.017-.099.018-.097.02-.098.02-.097.022-.096.023-.096.024-.096.025-.095.027-.095.027-.094.029-.094.03-.093.031-.092.032-.092.033-.092.034-.091.035-.091.037-.09.037-.089.039-.089.039-.088.041-.088.041-.087.043-.087.044-.086.044-.085.046-.085.047-.084.048-.083.048-.083.05-.082.05-.082.052-.08.053-.081.053-.079.054-.079.056-.078.056-.077.057-.077.058-.076.059-.075.06-.075.061-.073.061-.073.063-.072.063-.072.064-.071.065-.069.066-.069.067-.069.067-.067.069-.067.069-.066.069-.065.071-.064.072-.063.072-.063.073-.061.073-.061.075-.06.075-.059.076-.058.077-.057.077-.056.078-.056.079-.054.079-.053.081-.053.08-.052.082-.05.082-.05.083-.048.083-.048.084-.047.085-.046.085-.044.086-.044.087-.043.087-.041.088-.041.088-.039.089-.039.089-.037.09-.037.091-.035.091-.034.092-.033.092-.032.092-.031.093-.03.094-.029.094-.027.095-.027.095-.025.096-.024.096-.023.096-.022.097-.02.098-.02.097-.018.099-.017.098-.016.099-.014.1-.014.1-.012.1-.011.101-.009.101-.009.101-.007.102-.006.102-.004.102-.003.103-.002.103L-6 2l.001.103.002.103.003.103.004.102.006.102.007.102.009.101.009.101.011.101.012.1.014.1.014.1.016.099.017.098.018.099.02.097.02.098.022.097.023.096.024.096.025.096.027.095.027.095.029.094.03.094.031.093.032.092.033.092.034.092.035.091.037.091.037.09.039.089.039.089.041.088.041.088.043.087.044.087.044.086.046.085.047.085.048.084.048.083.05.083.05.082.052.082.053.08.053.081.054.079.056.079.056.078.057.077.058.077.059.076.06.075.061.075.061.073.063.073.063.072.064.072.065.071.066.069.067.069.067.069.069.067.069.067.069.066.071.065.072.064.072.063.073.063.073.061.075.061.075.06.076.059.077.058.077.057.078.056.079.056.079.054.081.053.08.053.082.052.082.05.083.05.083.048.084.048.085.047.085.046.086.044.087.044.087.043.088.041.088.041.089.039.089.039.09.037.091.037.091.035.092.034.092.033.092.032.093.031.094.03.094.029.095.027.095.027.096.025.096.024.096.023.097.022.098.02.097.02.099.018.098.017.099.016.1.014.1.014.1.012.101.011.101.009.101.009.102.007.102.006.102.004.103.003.103.002L2 10l.103-.001.103-.002.103-.003.102-.004.102-.006.102-.007.101-.009.101-.009.101-.011.1-.012.1-.014.1-.014.099-.016.098-.017.099-.018.097-.02.098-.02.097-.022.096-.023.096-.024.096-.025.095-.027.095-.027.094-.029.094-.03.093-.031.092-.032.092-.033.092-.034.091-.035.091-.037.09-.037.089-.039.089-.039.088-.041.088-.041.087-.043.087-.044.086-.044.085-.046.085-.047.084-.048.083-.048.083-.05.082-.05.082-.052.08-.053.081-.053.079-.054.079-.056.078-.056.077-.057.077-.058.076-.059.075-.06.075-.061.073-.061.073-.063.072-.063.072-.064.071-.065.069-.066.069-.067.069-.067.067-.069.067-.069.066-.069.065-.071.064-.072.063-.072.063-.073.061-.073.061-.075.06-.075.059-.076.058-.077.057-.077.056-.078.056-.079.054-.079.053-.081.053-.08.052-.082.05-.082.05-.083.048-.083.048-.084.047-.085.046-.085.044-.086.044-.087.043-.087.041-.088.041-.088.039-.089.039-.089.037-.09.037-.091.035-.091.034-.092.033-.092.032-.092.031-.093.03-.094.029-.094.027-.095.027-.095.025-.096.024-.096.023-.096.022-.097.02-.098.02-.097.018-.099.017-.098.016-.099.014-.1.014-.1.012-.1.011-.101.009-.101.009-.101.007-.102.006-.102.004-.102.003-.103.002-.103L10 2l-.001-.103-.002-.103-.003-.103-.004-.102-.006-.102-.007-.102-.009-.101-.009-.101-.011-.101-.012-.1-.014-.1-.014-.1-.016-.099-.017-.098-.018-.099-.02-.097-.02-.098-.022-.097-.023-.096-.024-.096-.025-.096-.027-.095-.027-.095-.029-.094-.03-.094-.031-.093-.032-.092-.033-.092-.034-.092-.035-.091-.037-.091-.037-.09-.039-.089-.039-.089-.041-.088-.041-.088-.043-.087-.044-.087-.044-.086-.046-.085-.047-.085-.048-.084-.048-.083-.05-.083-.05-.082-.052-.082-.053-.08-.053-.081-.054-.079-.056-.079-.056-.078-.057-.077-.058-.077-.059-.076-.06-.075-.061-.075-.061-.073-.063-.073-.063-.072-.064-.072-.065-.071-.066-.069-.067-.069-.067-.069-.069-.067-.069-.067-.069-.066-.071-.065-.072-.064-.072-.063-.073-.063-.073-.061-.075-.061-.075-.06-.076-.059-.077-.058-.077-.057-.078-.056-.079-.056-.079-.054-.081-.053-.08-.053-.082-.052-.082-.05-.083-.05-.083-.048-.084-.048-.085-.047-.085-.046-.086-.044-.087-.044-.087-.043-.088-.041-.088-.041-.089-.039-.089-.039-.09-.037-.091-.037-.091-.035-.092-.034-.092-.033-.092-.032-.093-.031-.094-.03-.094-.029-.095-.027-.095-.027-.096-.025-.096-.024-.096-.023-.097-.022-.098-.02-.097-.02-.099-.018-.098-.017-.099-.016-.1-.014-.1-.014-.1-.012-.101-.011-.101-.009-.101-.009-.102-.007-.102-.006-.102-.004-.103-.003-.103-.002L2-6l-.103.001z"/></g><path d="M28.5 52.3h4.3v4.3h-4.3c-6.5 0-13-7.3-13-15.2 0-7.9 6.7-15.2 13-15.2h17.3c6.3 0 13 7.3 13 15.2 0 6.1-3.9 11.8-8.7 14.1v-5c2.5-1.9 4.3-5.5 4.3-9.1 0-5.5-4.4-10.8-8.7-10.8H28.5c-4.2 0-8.7 5.3-8.7 10.8 0 5.5 4.4 10.9 8.7 10.9zm39-13h-4.3v4.3h4.3c4.3 0 8.7 5.3 8.7 10.8 0 5.5-4.4 10.8-8.7 10.8H50.2c-4.2 0-8.7-5.3-8.7-10.8 0-3.6 1.8-7.1 4.3-9.1v-5c-4.7 2.3-8.7 8-8.7 14.1 0 7.8 6.7 15.2 13 15.2h17.3c6.3 0 13-7.3 13-15.2 0-7.9-6.4-15.1-12.9-15.1z" fill="url(#_Linear2)" fill-rule="nonzero" transform="matrix(.16922 0 0 .18221 3.348 4.327)"/><path d="M11.186 8.102l.088.005.087.009.086.011.085.015.084.017.083.02.082.022.08.026.08.027.078.03.076.032.076.034.074.036.073.038.071.04.07.042.07.043.068.045.067.047.066.048.064.05.063.052.062.053.061.054.06.056.058.057.058.058.056.06.055.06.054.063.052.063.052.065.05.065.05.067.047.068.046.07.045.07.044.07.043.073.041.074.04.074.038.076.037.076.036.078.034.078.033.08.031.08.003.009h.736l.08.001.087.005.087.008.087.011.085.014.085.017.083.02.082.022.081.024.08.028.079.029.077.032.076.033.075.036.074.038.072.04.07.041.07.044.069.045.067.047.066.048.065.05.063.051.062.053.061.054.06.056.058.057.057.059.056.06.055.06.053.063.052.063.051.065.05.066.048.067.047.068.046.069.044.07.043.072.042.072.04.073.039.075.037.075.036.076.035.077.033.079.032.078.03.08.028.081.027.082.026.082.023.083.022.084.02.085.02.086.016.086.015.087.013.087.01.088.01.09.007.088.006.09.003.09v.183l-.004.091-.005.091-.008.09-.01.09-.011.09-.014.088-.016.087-.017.087-.02.086-.02.086-.023.084-.025.084-.026.083-.028.082-.03.081-.031.08-.033.08-.034.078-.035.078-.037.076-.039.076-.04.074-.041.073-.043.073-.044.071-.045.07-.046.07-.048.068-.049.067-.05.065-.051.065-.053.063-.054.062-.055.061-.056.06-.057.058-.059.057-.06.056-.06.054-.063.053-.063.051-.064.05-.066.049-.067.047-.068.045-.069.043-.07.042-.072.04-.073.038-.074.036-.076.034-.076.032-.078.03-.08.027-.08.025-.082.023-.082.02-.085.017-.084.015-.087.011-.087.008-.088.006-.078.001h-2.947l-.08-.002-.088-.005-.088-.008-.086-.012-.085-.014-.085-.018-.083-.02-.082-.023-.08-.026-.08-.028-.078-.03-.076-.032-.076-.035-.074-.036-.073-.038-.072-.04-.07-.043-.07-.044-.067-.045-.067-.047-.065-.049-.065-.05-.063-.052-.062-.053-.06-.054-.06-.056-.058-.057-.058-.06-.056-.059-.054-.061-.054-.062-.053-.064-.05-.064-.05-.066-.05-.067-.047-.068-.047-.07-.045-.07-.043-.07-.043-.073-.041-.073-.04-.075-.038-.075-.037-.076-.036-.077-.034-.079-.032-.079-.025-.064h-.73l-.079-.001-.088-.005-.088-.008-.086-.012-.086-.014-.085-.017-.083-.02-.083-.022-.081-.025-.08-.027-.08-.03-.077-.032-.076-.034-.075-.036-.074-.039-.072-.04-.071-.042-.07-.043-.069-.046-.067-.047-.066-.048-.065-.05-.064-.052-.062-.053-.061-.055-.06-.056-.059-.058-.057-.058-.056-.06-.055-.061-.054-.063-.052-.064-.051-.065-.05-.066-.049-.067-.047-.068-.046-.07-.045-.07-.043-.072-.042-.072-.04-.074-.04-.075-.038-.075-.036-.077-.035-.077-.034-.079-.032-.08-.03-.08-.029-.08-.027-.082-.026-.083-.024-.084-.022-.084-.02-.085-.02-.086-.016-.086-.016-.087-.013-.088-.011-.089-.01-.089-.007-.09-.005-.09-.004-.09v-.183l.004-.092.005-.09.008-.09.01-.09.012-.09.013-.088.016-.087.017-.087.02-.086.02-.086.024-.084.024-.084.027-.083.028-.082.03-.081.03-.08.033-.08.034-.078.036-.078.037-.076.038-.076.04-.074.041-.074.043-.072.044-.071.045-.07.046-.07.048-.068.05-.067.05-.065.05-.065.053-.063.054-.063.055-.06.056-.06.058-.058.058-.057.06-.056.06-.054.063-.053.063-.052.065-.05.065-.048.067-.047.068-.045.07-.043.07-.042.071-.04.073-.038.075-.036.075-.034.077-.032.078-.03.079-.027.08-.026.082-.022.083-.02.084-.017.085-.015.086-.011.087-.009.088-.005.079-.001h2.946l.08.001zm2.856 3.386v.783h.728l.034.001.034.002.034.004.034.005.034.006.034.007.034.009.034.01.034.011.033.013.034.013.033.015.033.016.033.017.032.019.033.019.032.02.032.022.031.022.032.024.03.025.031.025.03.027.03.027.03.028.029.03.029.03.028.03.028.032.027.032.026.034.027.033.025.035.026.036.024.036.024.037.024.037.022.038.023.039.021.04.02.04.021.04.02.04.018.042.018.042.017.042.017.043.015.043.015.044.014.044.013.044.013.045.01.045.011.045.01.045.009.046.007.046.007.046.006.047.005.046.003.047.003.046.002.047v.094l-.002.047-.003.047-.003.047-.005.046-.006.046-.007.047-.007.046-.01.045-.009.046-.01.045-.011.045-.013.045-.013.044-.014.044-.015.044-.015.043-.017.043-.017.042-.018.042-.019.041-.019.041-.02.04-.02.04-.022.04-.023.038-.022.038-.024.038-.024.037-.024.036-.026.035-.025.035-.027.034-.026.033-.027.033-.028.032-.028.03-.03.03-.028.03-.03.028-.03.027-.03.027-.03.025-.031.025-.032.023-.031.023-.032.021-.032.02-.033.02-.032.018-.033.018-.033.016-.033.014-.034.014-.033.013-.034.01-.034.01-.034.01-.034.007-.034.006-.034.005-.034.004-.034.002H11.809l-.033-.002-.034-.004-.033-.005-.034-.006-.033-.008-.034-.008-.033-.01-.033-.011-.033-.013-.033-.014-.033-.014-.033-.016-.033-.018-.032-.018-.032-.02-.032-.02-.032-.021-.032-.023-.031-.023-.031-.025-.03-.025-.03-.027-.03-.027-.03-.028-.03-.03-.028-.03-.029-.03-.028-.032-.027-.033-.027-.033-.026-.034-.026-.035-.026-.035-.024-.036-.025-.037-.023-.038-.023-.038-.023-.038-.021-.04-.021-.04-.02-.04-.02-.04-.02-.042-.018-.042-.017-.042-.017-.043-.016-.043-.015-.044-.014-.044-.013-.044-.013-.045-.012-.045-.01-.045-.01-.046-.009-.045-.008-.046-.006-.047-.006-.046-.005-.046-.004-.047-.003-.047-.001-.047v-.108l.003-.061.004-.062.006-.06.008-.06.01-.061.01-.06.012-.06.014-.058.016-.059.017-.057.018-.057.02-.057.02-.056.023-.055.023-.054.025-.053.026-.053.027-.052.029-.05.03-.05.03-.048.031-.047.033-.046.033-.045.035-.044.035-.042.036-.04.037-.04.038-.038.039-.037.039-.035v-.91l-.037.02-.037.02-.037.022-.037.023-.036.023-.036.025-.036.025-.036.026-.035.027-.035.028-.035.028-.034.03-.035.03-.033.03-.034.032-.033.032-.032.033-.033.034-.032.034-.031.035-.031.035-.03.037-.03.037-.03.037-.03.038-.028.039-.029.04-.027.04-.027.04-.027.04-.026.042-.025.042-.025.043-.025.043-.023.043-.023.044-.023.045-.022.044-.02.046-.021.045-.02.047-.02.046-.018.047-.017.047-.017.048-.016.048-.016.048-.014.049-.014.049-.013.05-.012.049-.012.05-.01.05-.01.05-.009.05-.008.051-.007.051-.006.051-.005.051-.005.052-.003.052-.002.051-.002.052v.119l.003.066.004.067.006.066.007.065.009.066.01.065.011.065.014.065.014.064.016.064.017.064.019.063.02.062.021.062.022.062.024.06.025.06.026.06.027.06.028.058.03.057.03.057.032.056.032.055.033.055.035.053.035.053.036.052.037.05.038.05.039.05.04.047.04.047.04.045.042.045.042.043.043.042.044.04.044.04.045.039.045.037.046.035.046.035.047.033.047.031.047.03.048.03.048.026.049.026.049.024.049.022.049.021.05.02.049.016.05.016.05.014.05.013.05.01.05.008.05.007.05.005.05.003.05.001H14.803l.05-.004.05-.005.05-.006.05-.009.05-.01.05-.012.05-.014.05-.015.05-.018.05-.019.049-.02.049-.022.049-.024.048-.026.048-.026.048-.029.048-.03.047-.03.047-.033.046-.034.045-.036.046-.037.044-.038.045-.04.043-.04.043-.042.042-.043.042-.044.041-.045.04-.047.04-.047.038-.049.038-.05.037-.05.036-.051.036-.053.034-.053.033-.055.033-.055.031-.056.03-.057.03-.057.028-.058.027-.06.026-.06.025-.06.024-.06.022-.062.022-.062.02-.063.018-.064.017-.063.016-.065.015-.064.013-.065.012-.066.01-.066.009-.066.007-.066.005-.067.005-.067.002-.067v-.135l-.002-.067-.004-.067-.006-.067-.007-.066-.008-.066-.01-.066-.011-.065-.012-.065-.015-.065-.015-.064-.016-.063-.018-.063-.02-.063-.02-.062-.022-.06-.023-.062-.024-.06-.025-.059-.026-.059-.027-.058-.029-.057-.03-.056-.03-.056-.031-.055-.033-.054-.033-.053-.035-.051-.035-.052-.036-.05-.037-.049-.038-.048-.039-.047-.04-.046-.04-.045-.04-.044-.042-.043-.042-.041-.043-.04-.044-.039-.044-.038-.045-.036-.045-.035-.047-.034-.046-.032-.047-.031-.047-.03-.048-.028-.048-.026-.049-.025-.049-.024-.05-.021-.049-.02-.05-.02-.05-.017-.05-.015-.051-.014-.051-.012-.051-.01-.051-.008-.052-.007-.051-.004-.052-.003-.051-.001h-.728zm-.004 1.786l-.024.062-.024.062-.026.06-.027.06-.027.06-.028.06-.03.058-.03.058-.03.057-.032.056-.033.057-.033.055-.034.055-.035.054-.036.054-.037.053-.037.052-.038.051-.039.051-.04.05-.04.05-.041.049-.042.047-.043.048-.043.046-.044.046-.045.045-.045.044-.046.043-.047.043-.048.041-.049.041-.049.04-.05.04-.05.037-.052.037-.052.037-.053.035-.053.034-.009.005h2.252l.005-.002.005-.003.007-.003.007-.005.009-.004.009-.006.01-.007.01-.007.011-.009.012-.009.012-.01.013-.011.013-.012.013-.013.013-.013.014-.014.013-.015.014-.016.014-.017.014-.017.014-.018.014-.019.013-.019.014-.02.013-.02.013-.021.013-.022.013-.022.012-.022.012-.023.012-.023.011-.024.01-.024.011-.024.01-.025.01-.024.009-.025.008-.025.008-.026.008-.025.007-.025.006-.026.006-.025.005-.025.005-.026.004-.025.004-.025.003-.025.003-.025.001-.024.002-.025v-.024l.001-.024v-.024l-.001-.024-.002-.024-.001-.025-.003-.024-.003-.025-.004-.025-.004-.026-.005-.025-.005-.025-.006-.026-.006-.025-.007-.025-.008-.026-.008-.025-.008-.025-.01-.025-.009-.025-.01-.024-.01-.024-.011-.024-.011-.024-.012-.023-.012-.023-.012-.023-.013-.022-.013-.021-.013-.021-.013-.02-.014-.02-.013-.02-.014-.019-.014-.017-.014-.018-.014-.016-.014-.016-.013-.015-.014-.015-.013-.013-.013-.013-.013-.011-.013-.011-.012-.01-.012-.01-.01-.008-.011-.007-.01-.007-.01-.006-.008-.005-.007-.004-.007-.003-.005-.003-.005-.002h-.71v.002zM8.17 9.101h-.05l-.05.004-.05.004-.05.007-.05.009-.05.01-.05.012-.05.014-.05.015-.05.018-.05.019-.049.02-.049.022-.048.024-.049.025-.048.027-.048.029-.048.03-.047.03-.046.033-.047.034-.045.036-.046.037-.044.038-.044.039-.044.04-.043.043-.042.043-.042.044-.04.045-.04.046-.04.048-.039.048-.038.05-.037.05-.036.052-.035.053-.035.053-.033.054-.033.056-.031.056-.03.056-.03.058-.028.058-.027.06-.026.06-.025.06-.024.06-.022.062-.021.062-.02.063-.019.063-.017.064-.016.064-.015.065-.013.065-.011.066-.01.065-.01.067-.006.066-.006.067-.004.067-.003.067v.135l.003.067.004.067.005.067.007.066.009.067.01.065.01.066.014.065.014.065.015.064.017.064.018.063.02.063.02.062.023.062.023.06.024.061.026.06.026.059.028.058.029.058.03.057.03.055.032.056.033.054.034.053.035.053.036.051.036.051.038.05.038.048.039.048.04.046.04.045.042.045.042.043.043.041.043.041.044.04.045.038.045.036.045.036.047.034.047.032.047.032.047.03.049.028.048.027.049.025.05.024.049.022.05.02.05.02.05.017.051.015.05.014.052.012.051.01.051.009.052.007.051.004.052.003.051.001h.728v-.783H8.17l-.034-.001-.034-.002-.034-.004-.034-.005L8 13.84l-.034-.007-.034-.01-.034-.01-.033-.011-.034-.013-.033-.014-.034-.015-.033-.016-.033-.018-.032-.018-.033-.02-.032-.02-.032-.022-.031-.023-.031-.024-.031-.025-.031-.026-.03-.027-.03-.028-.03-.028-.029-.03-.028-.03-.029-.031-.027-.033-.028-.033-.026-.033-.027-.035-.025-.035-.025-.036-.025-.036-.024-.037-.024-.038-.022-.039-.022-.039-.022-.04-.02-.04-.02-.04-.02-.042-.019-.042-.018-.042-.017-.043-.017-.043-.015-.043-.015-.044-.014-.044-.013-.045-.012-.045-.012-.045-.01-.046-.01-.045-.009-.046-.007-.047-.007-.046-.006-.046-.004-.047-.004-.047-.003-.047-.001-.046v-.094l.001-.047.003-.047.004-.047.005-.046.006-.047.006-.046.008-.046.01-.045.009-.046.01-.045.012-.045.013-.045.013-.044.014-.044.015-.044.016-.043.017-.043.017-.042.018-.042.02-.041.02-.041.02-.04.02-.04.022-.04.023-.038.023-.039.023-.037.025-.037.024-.036.026-.036.026-.034.026-.034.027-.034.027-.032.028-.032.029-.03.029-.03.029-.03.03-.028.03-.027.03-.027.03-.025.03-.025.032-.023.032-.023.032-.021.032-.02.032-.02.032-.019.033-.017.033-.016.032-.014.034-.014.033-.013.033-.011.033-.01.034-.009.033-.007.034-.006.033-.005.034-.004.033-.002h2.978l.034.002.034.004.034.005.034.006.034.007.034.01.034.009.034.011.033.013.034.014.033.014.033.016.033.017.033.019.032.02.032.02.032.021.031.023.032.023.03.025.031.025.03.027.03.027.03.028.029.03.029.03.028.03.028.032.027.032.027.034.026.034.025.034.026.036.024.036.024.037.024.037.022.039.023.038.021.04.02.04.021.04.02.04.018.042.018.042.017.042.017.043.015.043.015.044.014.044.013.044.013.045.011.045.01.045.01.046.009.045.007.046.007.046.006.047.005.046.003.047.003.047.002.047v.108l-.003.062-.005.06-.006.062-.008.06-.009.062-.01.06-.013.06-.014.06-.016.058-.016.058-.019.058-.02.057-.02.057-.022.055-.024.055-.025.054-.026.052-.027.052-.028.05-.03.05-.03.049-.032.047-.032.046-.034.044-.034.043-.036.042-.036.04-.037.038-.038.037-.038.035-.04.034v.91l.038-.02.038-.02.038-.022.037-.023.037-.024.036-.024.037-.025.036-.026.036-.027.035-.028.035-.028.035-.03.034-.03.034-.03.034-.032.033-.032.033-.033.032-.034.032-.034.032-.035.03-.036.031-.036.03-.037.03-.037.03-.038.028-.039.028-.04.028-.04.027-.04.026-.04.026-.042.025-.042.025-.043.024-.043.023-.043.023-.044.022-.045.022-.045.02-.045.021-.045.02-.047.018-.046.018-.047.018-.047.016-.048.016-.048.016-.048.014-.05.013-.048.013-.05.012-.049.011-.05.01-.05.01-.05.009-.05.008-.051.007-.051.006-.051.005-.052.004-.051.003-.052.003-.051.001-.052v-.12l-.003-.067-.004-.067-.005-.067-.007-.066-.01-.067-.01-.065-.011-.066-.013-.065-.015-.065-.016-.064-.017-.064-.019-.063-.02-.063-.02-.062-.023-.062-.024-.06-.025-.06-.026-.06-.027-.06-.028-.058-.03-.058-.03-.056-.031-.056-.033-.056-.033-.054-.034-.053-.036-.053-.036-.051-.037-.051-.038-.05-.039-.048-.039-.048-.04-.046-.041-.045-.042-.044-.042-.043-.043-.042-.043-.041-.045-.04-.044-.037-.046-.037-.045-.036-.047-.034-.046-.032-.047-.032-.048-.03-.048-.028-.048-.027-.049-.025-.048-.024-.05-.022-.049-.02-.05-.02-.049-.017-.05-.015-.05-.014-.05-.012-.05-.01-.05-.009-.05-.007-.05-.004-.05-.003-.05-.001H8.17zm.028 1.802h-.002l-.006.003-.007.004-.007.004-.009.005-.009.006-.01.007-.011.008-.011.008-.012.01-.013.01-.012.011-.014.012-.013.013-.014.014-.014.015-.014.015-.014.016-.014.017-.014.017-.015.019-.014.018-.014.02-.013.02-.014.02-.013.022-.014.022-.012.022-.013.022-.012.023-.012.024-.011.024-.011.024-.01.024-.01.024-.01.025-.01.025-.008.025-.008.025-.008.025-.007.025-.007.026-.006.025-.005.025-.005.025-.004.025-.004.024-.003.025-.002.024-.002.024-.002.025v.095l.002.024.002.025.002.025.003.025.004.025.004.026.005.026.005.025.006.026.007.026.007.026.008.026.008.025.008.026.01.025.01.026.01.025.01.024.01.025.012.024.012.024.012.023.012.024.013.022.013.022.014.022.013.02.014.021.014.02.014.02.014.018.014.018.014.017.014.016.014.015.014.015.014.014.013.013.013.012.013.011.012.01.012.01.01.009.011.007.01.007.01.006.008.005.007.004.007.004.005.002.003.002h.686l.01-.026.024-.062.025-.061.026-.06.027-.06.027-.06.029-.06.03-.058.03-.057.03-.057.033-.057.032-.056.034-.055.034-.054.035-.054.036-.054.036-.052.038-.052.038-.052.038-.05.04-.05.04-.049.04-.048.042-.048.043-.047.043-.046.043-.046.045-.044.045-.044.045-.043.047-.043.047-.04.047-.042.049-.04.049-.038.05-.038.05-.037.051-.036.052-.035.053-.034.015-.01H8.198z"/><defs><linearGradient id="_Linear2" x1="0" y1="0" x2="1" y2="0" gradientUnits="userSpaceOnUse" gradientTransform="matrix(0 46.7216 -36.2274 0 50.717 24.627)"><stop offset="0" stop-color="#fff"/><stop offset=".5" stop-color="#bfbfbf"/><stop offset="1" stop-color="#fff"/></linearGradient></defs></svg>