<svg width="21" height="20" xmlns="http://www.w3.org/2000/svg" fill-rule="evenodd" clip-rule="evenodd" stroke-linejoin="round" stroke-miterlimit="2"><g transform="matrix(0 -.46978 .30289 0 4.714 17.542)"><path d="M13.398 19.548A6.967 6.967 0 0115 24c0 3.86-3.14 7-7 7s-7-3.14-7-7 3.14-7 7-7h2.099l1.25-.909-1.25-.909H8c-3.86 0-7-3.14-7-7s3.14-7 7-7 7 3.14 7 7c0 1.69-.602 3.242-1.602 4.452l1.352.984 9.615-6.993c4.459-3.243 6.811-.007 6.811-.007l-17.778 12.93zM14 16a1 1 0 102 0 1 1 0 00-2 0zm-2 8a4 4 0 10-8 0 4 4 0 008 0zm0-15.818a4 4 0 10-8 0 4 4 0 008 0zm3.6 11l8.765 6.375c4.459 3.243 6.811.007 6.811.007L19 16.709l-3.4 2.473z" fill-rule="nonzero"/><clipPath id="a"><path d="M13.398 19.548A6.967 6.967 0 0115 24c0 3.86-3.14 7-7 7s-7-3.14-7-7 3.14-7 7-7h2.099l1.25-.909-1.25-.909H8c-3.86 0-7-3.14-7-7s3.14-7 7-7 7 3.14 7 7c0 1.69-.602 3.242-1.602 4.452l1.352.984 9.615-6.993c4.459-3.243 6.811-.007 6.811-.007l-17.778 12.93zM14 16a1 1 0 102 0 1 1 0 00-2 0zm-2 8a4 4 0 10-8 0 4 4 0 008 0zm0-15.818a4 4 0 10-8 0 4 4 0 008 0zm3.6 11l8.765 6.375c4.459 3.243 6.811.007 6.811.007L19 16.709l-3.4 2.473z" clip-rule="nonzero"/></clipPath><g clip-path="url(#a)"><path d="M13.398 19.548A6.967 6.967 0 0115 24c0 3.86-3.14 7-7 7s-7-3.14-7-7 3.14-7 7-7h2.099l1.25-.909-1.25-.909H8c-3.86 0-7-3.14-7-7s3.14-7 7-7 7 3.14 7 7c0 1.69-.602 3.242-1.602 4.452l1.352.984 9.615-6.993c4.459-3.243 6.811-.007 6.811-.007l-17.778 12.93zM14 16a1 1 0 102 0 1 1 0 00-2 0zm-2 8a4 4 0 10-8 0 4 4 0 008 0zm0-15.818a4 4 0 10-8 0 4 4 0 008 0zm3.6 11l8.765 6.375c4.459 3.243 6.811.007 6.811.007L19 16.709l-3.4 2.473z" fill="navy" fill-rule="nonzero"/><path d="M8.807 16.032l15.814 11.876 8.776.357.298-25.349-7.544.169L8.807 16.032z"/></g></g></svg>