<svg width="21" height="20" xmlns="http://www.w3.org/2000/svg" fill-rule="evenodd" clip-rule="evenodd" stroke-linecap="round" stroke-linejoin="bevel" stroke-miterlimit="2"><g transform="translate(2)"><path d="M16 7.093A2.094 2.094 0 0013.907 5H2.093A2.094 2.094 0 000 7.093v6.814C0 15.062.938 16 2.093 16h11.814A2.094 2.094 0 0016 13.907V7.093z" fill="url(#_Radial1)"/><clipPath id="a"><path d="M16 7.093A2.094 2.094 0 0013.907 5H2.093A2.094 2.094 0 000 7.093v6.814C0 15.062.938 16 2.093 16h11.814A2.094 2.094 0 0016 13.907V7.093z"/></clipPath><g clip-path="url(#a)"><path d="M16 7.793L14.027 6H1.973L0 7.793v6.414L1.973 16h12.054L16 14.207V7.793zM.496 7.343l6.516 6.384 2.006.007 6.505-6.374m-.514 7.748l-3.835-3.486m-6.308.003l-3.852 3.503" fill="none" stroke="#000" stroke-width=".95" transform="matrix(1 0 0 1.1 0 -1.6)"/></g><path d="M13.961 5.001l.054.002.053.003.053.005.052.006.053.007.051.009.052.01.05.011.051.012.05.013.049.015.049.016.048.017.048.018.047.02.047.02.046.022.045.022.045.024.044.024.044.026.043.027.042.028.041.028.041.03.04.031.039.031.038.033.038.033.037.034.036.035.035.036.034.037.033.038.033.038.031.039.031.04.03.041.028.041.028.042.027.043.026.044.024.044.024.045.022.045.022.046.02.047.02.047.018.048.017.048.016.049.015.049.013.05.012.051.011.05.01.052.009.051.007.053.006.052.005.053.003.053.002.054.001.054v6.814l-.001.054-.002.054-.003.053-.005.053-.006.052-.007.053-.009.051-.01.052-.011.05-.012.051-.013.05-.015.049-.016.049-.017.048-.018.048-.02.047-.02.047-.022.046-.022.045-.024.045-.024.044-.026.044-.027.043-.028.042-.028.041-.03.041-.031.04-.031.039-.033.038-.033.038-.034.037-.035.036-.036.035-.037.034-.038.033-.038.033-.039.031-.04.031-.041.03-.041.028-.042.028-.043.027-.044.026-.044.024-.045.024-.045.022-.046.022-.047.02-.047.02-.048.018-.048.017-.049.016-.049.015-.05.013-.051.012-.05.011-.052.01-.051.009-.053.007-.052.006-.053.005-.053.003-.054.002-.054.001H2.093l-.054-.001-.054-.002-.053-.003-.053-.005-.052-.006-.053-.007-.051-.009-.052-.01-.05-.011-.051-.012-.05-.013-.049-.015-.049-.016-.048-.017-.048-.018-.047-.02-.047-.02-.046-.022-.045-.022-.045-.024-.044-.024-.044-.026-.043-.027-.042-.028-.041-.028-.041-.03-.04-.031-.039-.031-.038-.033-.038-.033-.037-.034-.036-.035-.035-.036-.034-.037-.033-.038-.033-.038-.031-.039-.031-.04-.03-.041-.028-.041-.028-.042-.027-.043-.026-.044-.024-.044-.024-.045-.022-.045-.022-.046-.02-.047-.02-.047-.018-.048-.017-.048-.016-.049-.015-.049-.013-.05-.012-.051-.011-.05-.01-.052-.009-.051-.007-.053-.006-.052-.005-.053-.003-.053-.002-.054L0 13.907V7.093l.001-.054.002-.054.003-.053.005-.053.006-.052.007-.053.009-.051.01-.052.011-.05.012-.051.013-.05.015-.049.016-.049.017-.048.018-.048.02-.047.02-.047.022-.046.022-.045.024-.045.024-.044.026-.044.027-.043.028-.042.028-.041.03-.041.031-.04.031-.039.033-.038.033-.038.034-.037.035-.036.036-.035.037-.034.038-.033.038-.033.039-.031.04-.031.041-.03.041-.028.042-.028.043-.027.044-.026.044-.024.045-.024.045-.022.046-.022.047-.02.047-.02.048-.018.048-.017.049-.016.049-.015.05-.013.051-.012.05-.011.052-.01.051-.009.053-.007.052-.006.053-.005.053-.003.054-.002L2.093 5h11.814l.054.001zM2.099 6h-.035l-.028.002-.028.001-.028.003-.027.003-.027.004-.027.004-.027.005-.026.006-.026.006-.026.007-.026.008-.025.008-.025.009-.025.01-.025.01-.024.01-.024.011-.023.012-.024.012-.023.013-.022.014-.023.014-.022.014-.022.015-.021.016-.021.016-.02.016-.021.018-.019.017-.02.018-.019.018-.018.019-.018.02-.017.019-.018.021-.016.02-.016.021-.016.021-.015.022-.014.022-.014.023-.014.022-.013.023-.012.024-.012.023-.011.024-.01.024-.01.025-.01.025-.009.025-.008.025-.008.026-.007.026-.006.026-.006.026-.005.027-.004.027-.004.027-.003.027-.003.028-.001.028L1 7.064v6.872l.002.028.001.028.003.028.003.027.004.027.004.027.005.027.006.026.006.026.007.026.008.026.008.025.009.025.01.025.01.025.01.024.011.024.012.023.012.024.013.023.014.022.014.023.014.022.015.022.016.021.016.021.016.02.018.021.017.019.018.02.018.019.019.018.02.018.019.017.021.018.02.016.021.016.021.016.022.015.022.014.023.014.022.014.023.013.024.012.023.012.024.011.024.01.025.01.025.01.025.009.025.008.026.008.026.007.026.006.026.006.027.005.027.004.027.004.027.003.028.003.028.001.028.002h11.872l.028-.002.028-.001.028-.003.027-.003.027-.004.027-.004.027-.005.026-.006.026-.006.026-.007.026-.008.025-.008.025-.009.025-.01.025-.01.024-.01.024-.011.023-.012.024-.012.023-.013.022-.014.023-.014.022-.014.022-.015.021-.016.021-.016.02-.016.021-.018.019-.017.02-.018.019-.018.018-.019.018-.02.017-.019.018-.021.016-.02.016-.021.016-.021.015-.022.014-.022.014-.023.014-.022.013-.023.012-.024.012-.023.011-.024.01-.024.01-.025.01-.025.009-.025.008-.025.008-.026.007-.026.006-.026.006-.026.005-.027.004-.027.004-.027.003-.027.003-.028.001-.028.002-.028V7.064l-.002-.028-.001-.028-.003-.028-.003-.027-.004-.027-.004-.027-.005-.027-.006-.026-.006-.026-.007-.026-.008-.026-.008-.025-.009-.025-.01-.025-.01-.025-.01-.024-.011-.024-.012-.023-.012-.024-.013-.023-.014-.022-.014-.023-.014-.022-.015-.022-.016-.021-.016-.021-.016-.02-.018-.021-.017-.019-.018-.02-.018-.019-.019-.018-.02-.018-.019-.017-.021-.018-.02-.016-.021-.016-.021-.016-.022-.015-.022-.014-.023-.014-.022-.014-.023-.013-.024-.012-.023-.012-.024-.011-.024-.01-.025-.01-.025-.01-.025-.009-.025-.008-.026-.008-.026-.007-.026-.006-.026-.006-.027-.005-.027-.004-.027-.004-.027-.003-.028-.003-.028-.001L13.936 6H2.099z"/></g><path d="M11.088 4.777l-.076.266c-.205-.32-.418-.426-.844-.426-1.011 0-1.855 1.065-1.855 2.35 0 .867.479 1.43 1.232 1.43.426 0 .73-.144 1.019-.479.023.137.03.175.068.236.114.182.358.296.654.296.51 0 1.027-.228 1.422-.623.464-.464.723-1.118.723-1.833 0-1.59-1.263-2.73-3.035-2.73-1.178 0-2.099.342-2.798 1.042-.609.616-.928 1.43-.928 2.372 0 .883.312 1.689.882 2.252.6.6 1.437.905 2.51.905.547 0 1.095-.084 1.612-.244.358-.106.54-.198.95-.44l-.463-.67c-.365.22-.555.312-.852.403-.35.106-.768.167-1.164.167-1.528 0-2.54-.958-2.54-2.418 0-1.506 1.126-2.57 2.73-2.57.54 0 1.02.113 1.362.319.547.342.874.95.874 1.65 0 .586-.243 1.148-.616 1.437-.152.122-.334.198-.479.198-.129 0-.197-.068-.197-.19 0-.069.007-.145.03-.228l.456-1.689c.038-.167.175-.63.22-.783h-.897zM9.674 7.644c-.29 0-.441-.213-.441-.616 0-.35.121-.798.304-1.14.19-.358.456-.548.745-.548.267 0 .441.213.441.525 0 .35-.121.813-.304 1.17-.198.389-.464.61-.745.61z" fill-rule="nonzero"/><path d="M10.488 2.731h.09l.1.008.091.007.091.008.084.008.091.015.092.015.083.015.091.016.084.022.084.016.083.022.084.03.084.024.076.03.083.03.076.03.077.031.076.038.076.03.076.039.076.045.068.038.076.046.069.046.068.045.061.046.068.046.069.053.06.053.062.053.06.053.054.061.06.054.054.06.053.061.053.061.053.069.046.06.046.069.045.068.046.069.038.068.038.069.038.076.038.076.038.068.03.076.03.076.024.084.03.076.023.076.023.084.023.083.015.076.015.084.015.084.015.083.008.084.008.091.007.084v.335l-.007.076-.008.076-.008.076-.007.083-.015.076-.008.077-.015.068-.015.076-.023.076-.023.076-.015.069-.03.076-.023.068-.023.076-.03.069-.031.068-.03.068-.039.069-.03.068-.038.061-.038.069-.046.06-.038.061-.045.061-.046.061-.046.06-.045.062-.053.053-.046.053-.053.061-.046.046-.053.038-.046.045-.045.038-.054.046-.045.038h-.008l.274.388.038.06.023.07.022.068.008.076v.076l-.008.03-.007.038-.008.038-.007.03-.016.039-.015.03-.023.03-.015.03-.023.031-.022.03-.03.024-.031.022-.023.023-.038.023-.145.084-.136.076-.061.038-.069.03-.06.03-.061.031-.069.03-.06.03-.062.024-.068.022-.068.023-.061.023-.076.023-.069.023-.099.03-.114.03-.106.031-.107.023-.106.023-.114.022-.107.023-.114.015-.114.016-.106.015-.114.015-.115.008-.114.007-.106.008H9.84l-.106-.008-.107-.007-.099-.008-.106-.015-.107-.008-.098-.015-.1-.015-.098-.023-.099-.023-.099-.023-.091-.022-.099-.03-.091-.031-.092-.03-.09-.031-.092-.038-.084-.038-.091-.046-.084-.038-.083-.045-.084-.046-.076-.053-.084-.046-.076-.053-.076-.061-.076-.053-.068-.061-.076-.06-.069-.07-.06-.06-.07-.061-.06-.069-.053-.068-.061-.068-.053-.069L6.83 8.9l-.054-.068-.053-.076-.046-.076-.045-.077-.046-.076-.038-.083-.038-.076-.038-.084-.038-.084-.03-.083-.038-.084-.03-.084-.024-.083-.03-.091-.023-.084-.023-.091-.015-.092-.015-.09-.015-.092-.016-.091-.015-.092-.007-.091-.008-.091-.008-.092v-.387l.008-.1.008-.098.007-.099.015-.091.016-.1.015-.09.015-.092.023-.099.023-.09.023-.092.022-.091.03-.092.031-.083.038-.091.03-.084.039-.084.038-.083.045-.084.046-.084.046-.083.045-.076.046-.084.053-.076.053-.076.061-.076.053-.069.061-.076.061-.068L7.15 4l.068-.068.076-.076.084-.076.076-.069.084-.068.083-.061.084-.068.084-.061.091-.053.084-.061.091-.054.091-.045.1-.053.09-.046.1-.038.098-.046.099-.038.099-.03.106-.038.1-.03.106-.031.106-.023.107-.023.106-.022.114-.023.107-.016.114-.015.114-.007.114-.016.114-.007.122-.008H10.488zm-.198.533l-.114.007h-.107l-.106.008-.099.007-.106.016-.1.007-.098.015-.099.023-.099.015-.091.023-.091.023-.092.023-.091.03-.091.03-.091.031-.084.03-.084.039-.083.038-.084.038-.084.045-.076.038-.076.046-.076.053-.076.046-.076.053-.076.053-.069.061-.068.053-.068.061-.069.069-.068.06-.054.061-.06.054-.046.06-.053.069-.054.06-.045.062-.046.068-.045.06-.038.07-.046.068-.038.068-.038.076-.03.069-.039.068-.03.076-.03.076-.03.076-.024.076-.022.076-.023.076-.023.084-.023.076-.015.084-.015.076-.016.084-.015.083-.007.084-.008.084-.008.09-.007.084v.343l.007.076.008.083.008.084.007.076.015.076.016.084.015.076.015.076.015.076.023.076.023.076.023.076.023.069.03.076.03.068.03.069.031.068.03.068.039.069.038.068.038.061.038.069.045.06.038.061.046.061.046.061.053.053.046.061.053.053.053.054.053.053.061.053.061.053.06.053.062.046.068.046.06.045.07.046.068.038.068.046.069.038.076.03.076.038.068.03.084.03.076.031.076.03.084.024.083.022.076.023.092.023.083.015.084.023.091.015.092.008.09.015.092.008.099.007.091.008.099.008H10.161l.106-.008h.099l.106-.008.1-.007.106-.016.099-.007.106-.015.099-.016.099-.022.099-.016.099-.022.098-.023.1-.03.098-.023.1-.03.068-.024.06-.015.054-.023.06-.015.054-.023.053-.023.053-.022.053-.023.054-.03.053-.023.06-.03.054-.031.13-.076.144-.084-.464-.67-.13.077-.114.068-.053.03-.053.024-.053.03-.046.023-.053.023-.046.022-.045.016-.054.022-.045.016-.053.015-.054.023-.053.015-.068.023-.069.015-.068.015-.069.015-.068.016-.076.015-.076.015-.069.008-.076.015-.076.007-.076.008-.076.008h-.076l-.068.007H10l-.069-.007h-.068l-.068-.008-.069-.008-.06-.007-.07-.015-.068-.008-.06-.015-.061-.015-.061-.016-.069-.015-.053-.015-.06-.023-.061-.023-.061-.023-.054-.022-.053-.023-.06-.023-.054-.03-.053-.023-.046-.03-.053-.031-.053-.03-.046-.03-.045-.039-.046-.03-.046-.038-.045-.038-.046-.038-.038-.038-.046-.038-.038-.046-.038-.038-.038-.046-.038-.045-.038-.046-.03-.046-.03-.045-.031-.046-.03-.053-.03-.046-.031-.053-.03-.053-.024-.054-.022-.053-.023-.053-.023-.06-.023-.054-.015-.06-.015-.054-.023-.061-.015-.06-.008-.062-.015-.06-.008-.061-.015-.069-.008-.06v-.07l-.007-.06-.008-.068v-.274l.008-.069.007-.068.008-.069.008-.068.007-.068.016-.061.015-.069.015-.06.015-.069.015-.06.023-.062.015-.06.023-.061.023-.054.03-.06.023-.054.03-.06.031-.054.03-.053.03-.053.031-.053.038-.054.038-.053.038-.046.038-.045.038-.053.039-.046.045-.046.046-.045.038-.038.045-.046.054-.038.045-.038.046-.038.053-.038.053-.038.054-.038.053-.03.053-.039.053-.03.061-.03.053-.023.061-.03.061-.031.061-.023.06-.023.062-.023.06-.022.069-.016.068-.022.061-.016.069-.015.068-.015.069-.015.068-.008.068-.007.077-.008.068-.008.076-.007.068-.008h.251l.1.008.098.007.099.008.091.008.092.015.09.015.084.023.084.023.13.038.114.038.114.045.098.054.069.038.053.03.046.038.045.038.054.03.045.046.038.038.046.038.084.091.068.092.068.099.069.098.053.107.053.106.038.114.023.061.015.061.016.061.015.06.015.062.008.06.007.061.008.061v.069l.007.06v.175l-.007.061v.053l-.008.054-.007.053-.008.053-.015.053-.008.054-.015.045-.015.054-.015.053-.016.045-.015.054-.023.045-.015.046-.023.046-.022.045-.023.046-.023.045-.023.038-.03.046-.023.038-.03.038-.023.038-.03.038-.031.038-.03.03-.039.031-.03.03-.03.03-.039.031-.03.023-.03.023-.03.015-.031.023-.03.015-.031.015-.03.016-.03.015-.031.015-.03.008-.031.007-.03.008-.031.007-.03.008h-.099l-.023-.008-.015-.007-.023-.008-.015-.007-.016-.008-.007-.015-.015-.008-.008-.015-.008-.015-.007-.015-.008-.023-.007-.015v-.129l.007-.024v-.03l.008-.03.007-.03.008-.031.456-1.689.016-.076.03-.099.03-.106.03-.114.07-.228.045-.16h-.898l-.076.266-.022-.03-.016-.03-.022-.023-.016-.023-.022-.03-.016-.023-.022-.023-.023-.016-.023-.022-.015-.023-.023-.015-.023-.016-.023-.015-.023-.015-.022-.015-.03-.015-.024-.008-.022-.015-.03-.008-.024-.007-.03-.008-.03-.008-.03-.007-.031-.008-.03-.007h-.031l-.038-.008h-.03l-.077-.008H10.077l-.053.008-.046.008-.046.007-.045.008-.046.007-.045.008-.046.015-.038.015-.046.016-.045.015-.046.015-.038.023-.046.023-.038.022-.045.023-.038.023-.038.023-.046.03-.038.023-.038.03-.038.031-.038.03-.03.03-.039.039-.038.03-.03.038-.038.038-.03.038-.038.038-.03.038-.031.038-.03.046-.031.038-.03.046-.023.045-.03.046-.024.046-.03.045-.023.046-.023.053-.022.046-.023.045-.023.054-.023.053-.015.053-.023.046-.015.053-.015.053-.016.061-.015.053-.015.054-.008.053-.015.06-.007.054-.008.06-.008.054-.007.06-.008.062v.053l-.007.06V7.052l.007.076.008.076.007.076.016.069.022.106.023.099.038.099.038.091.046.084.053.083.053.076.061.069.069.06.068.062.076.045.084.046.083.038.084.03.091.03.1.016.098.015h.183l.038-.007h.076l.038-.008.038-.008.03-.007.038-.008.03-.007.039-.008.03-.008.03-.015.031-.008.038-.015.03-.015.03-.015.031-.015.03-.016.031-.022.03-.016.023-.022.03-.023.031-.023.03-.023.023-.023.03-.022.031-.03.023-.024.03-.03.023-.03.03-.031.024.122.015.045.015.046.038.053.053.069.069.053.038.023.038.023.038.015.045.023.046.015.046.015.045.008.054.007.053.008.053.007h.152l.046-.007h.045l.046-.008.053-.007.046-.008.045-.015.046-.008.053-.015.046-.008.046-.015.045-.015.046-.023.046-.015.045-.023.046-.015.045-.023.046-.023.046-.023.038-.022.045-.03.046-.031.038-.023.046-.03.038-.03.045-.031.038-.038.038-.03.038-.039.038-.03.038-.038.046-.046.038-.046.038-.045.046-.046.038-.045.03-.054.038-.045.038-.054.03-.053.031-.053.03-.053.03-.053.031-.061.023-.054.023-.06.023-.054.023-.06.022-.061.023-.061.015-.061.016-.06.015-.062.015-.06.015-.061.008-.069.007-.06.016-.07v-.06l.007-.068.008-.061V5.849l-.008-.076-.007-.068-.008-.076-.008-.069-.015-.068-.015-.069-.015-.068-.015-.068-.016-.069-.022-.068-.023-.061-.023-.069-.023-.06-.03-.061-.023-.061-.03-.061-.03-.06-.039-.062-.03-.053-.038-.06-.038-.054-.038-.053-.038-.053-.046-.054-.038-.053-.046-.053-.045-.046-.046-.053-.053-.046-.046-.045-.053-.046-.053-.038-.054-.046-.053-.038-.053-.045-.06-.038-.062-.038-.053-.038-.06-.03-.062-.039-.068-.03-.061-.03-.068-.031-.069-.023-.06-.03-.07-.023-.068-.023-.076-.023-.068-.022-.076-.023-.069-.016-.076-.015-.076-.015-.076-.015-.076-.015-.076-.008-.084-.008-.076-.007-.083-.008-.076-.007h-.274zm.015 2.076l.076.007.061.023.06.03.054.039.046.045.038.054.038.068.023.068.015.077.007.083v.099l-.007.068-.008.069-.007.076-.008.076-.015.076-.023.076-.015.076-.023.076-.023.076-.023.076-.03.076-.023.069-.03.076-.038.068-.03.069-.016.038-.023.03-.023.038-.015.03-.023.031-.022.03-.016.031-.022.03-.023.03-.023.024-.023.03-.023.023-.023.023-.022.022-.023.016-.023.023-.023.022-.023.016-.022.015-.03.015-.024.015-.023.015-.022.008-.03.015-.024.008-.022.007-.03.008-.024.008h-.03l-.023.007H9.621l-.023-.007h-.023l-.023-.008-.023-.008-.022-.007-.023-.008-.023-.015-.015-.008-.023-.015-.015-.015-.015-.015-.016-.015-.015-.016-.015-.022-.015-.016-.016-.023-.007-.022-.015-.023-.008-.023-.008-.03-.007-.023-.008-.03-.007-.031-.008-.03-.008-.03v-.069l-.007-.03V6.96l.007-.069.008-.068.008-.076.007-.069.015-.076.023-.076.015-.068.023-.076.023-.076.023-.076.03-.069.023-.068.03-.076.039-.061.03-.069.015-.03.023-.038.015-.03.023-.03.015-.024.023-.03.023-.03.023-.023.015-.023.023-.03.023-.023.022-.016.023-.022.023-.023.023-.015.023-.023.022-.015.023-.016.03-.015.024-.015.022-.008.023-.015.03-.008.023-.007.03-.008.024-.007.022-.008.03-.008h.024l.03-.007h.076zm-.122.57l-.007.008-.008.007-.007.008-.016.008-.007.015-.008.007-.015.016-.008.015-.015.007-.007.023-.016.016-.015.015-.007.023-.016.015-.007.023-.015.022-.023.054-.03.053-.024.053-.022.053-.023.061-.023.061-.015.06-.015.062-.016.06-.015.061-.015.054-.008.06-.007.054v.053l-.008.046v.068l.008-.008.007-.015.016-.007.015-.016.007-.015.016-.015.015-.023.015-.015.008-.023.015-.023.015-.023.015-.022.015-.023.008-.03.03-.054.023-.053.03-.06.024-.062.022-.06.016-.061.022-.069.016-.06.015-.062.015-.06.008-.061.015-.061.007-.06v-.054l.008-.046h-.008z" fill="#fff"/><defs><radialGradient id="_Radial1" cx="0" cy="0" r="1" gradientUnits="userSpaceOnUse" gradientTransform="matrix(10 0 0 11 7 5)"><stop offset="0" stop-color="#fffeb5"/><stop offset=".61" stop-color="#f1f0a6"/><stop offset=".82" stop-color="#d1d083"/><stop offset="1" stop-color="#b0af5f"/></radialGradient></defs></svg>