<svg width="21" height="20" xmlns="http://www.w3.org/2000/svg" fill-rule="evenodd" clip-rule="evenodd" stroke-linejoin="round" stroke-miterlimit="2"><path d="M.055-.313v-.082l.474-.2v.087l-.376.154.376.156v.088L.055-.313z" fill="url(#_Linear1)" fill-rule="nonzero" transform="matrix(14.17629 0 0 18.56192 1.482 16.5)"/><path d="M.529-.313L.055-.11v-.088L.43-.354.055-.508v-.087l.474.2v.082z" fill="url(#_Linear2)" fill-rule="nonzero" transform="matrix(14.17629 0 0 18.56192 9.761 16.5)"/><path d="M2.004 10.239V8.716l6.72-3.712v1.615l-5.33 2.858 5.33 2.896v1.634l-6.72-3.768zM17.003 10.239l-6.72 3.768v-1.634L15.6 9.477 10.283 6.62V5.004l6.72 3.712v1.523z" fill-rule="nonzero"/><defs><linearGradient id="_Linear1" x1="0" y1="0" x2="1" y2="0" gradientUnits="userSpaceOnUse" gradientTransform="matrix(0 .48486 -.38092 0 .478 -.589)"><stop offset="0" stop-color="#b0b0b0"/><stop offset="1" stop-color="#616161"/></linearGradient><linearGradient id="_Linear2" x1="0" y1="0" x2="1" y2="0" gradientUnits="userSpaceOnUse" gradientTransform="matrix(0 .48486 -.38092 0 -.106 -.589)"><stop offset="0" stop-color="#b0b0b0"/><stop offset="1" stop-color="#616161"/></linearGradient></defs></svg>