<svg width="21" height="20" xmlns="http://www.w3.org/2000/svg" fill-rule="evenodd" clip-rule="evenodd" stroke-linecap="round" stroke-linejoin="round" stroke-miterlimit="1.5"><g transform="matrix(1.07143 0 0 1 -.214 0)"><path fill="silver" d="M3 3h14v14H3z"/><clipPath id="a"><path d="M3 3h14v14H3z"/></clipPath><g clip-path="url(#a)"><path fill="url(#_Linear2)" d="M4 4h13v10H4z" transform="matrix(.93333 0 0 1 .2 0)"/><g transform="matrix(.93333 0 0 1 .2 0)"><circle cx="14" cy="7" r="2" fill="url(#_Linear3)"/><path d="M14.052 5.001l.051.002.051.003.05.004.051.006.049.007.05.008.049.01.048.01.049.012.047.013.047.014.047.015.046.016.046.018.045.018.045.02.044.02.043.022.043.023.042.023.042.025.041.025.04.027.039.027.039.029.038.029.038.03.037.031.035.032.036.033.034.033.033.034.033.036.032.035.031.037.03.038.029.038.029.039.027.039.027.04.025.041.025.042.023.042.023.043.022.043.02.044.02.045.018.045.018.046.016.046.015.047.014.047.013.047.012.049.01.048.01.049.008.05.007.049.006.051.004.05.003.051.002.051L16 7l-.001.052-.002.051-.003.051-.004.05-.006.051-.007.049-.008.05-.01.049-.01.048-.012.049-.013.047-.014.047-.015.047-.016.046-.018.046-.018.045-.02.045-.02.044-.022.043-.023.043-.023.042-.025.042-.025.041-.027.04-.027.039-.029.039-.029.038-.03.038-.031.037-.032.035-.033.036-.033.034-.034.033-.036.033-.035.032-.037.031-.038.03-.038.029-.039.029-.039.027-.04.027-.041.025-.042.025-.042.023-.043.023-.043.022-.044.02-.045.02-.045.018-.046.018-.046.016-.047.015-.047.014-.047.013-.049.012-.048.01-.049.01-.05.008-.049.007-.051.006-.05.004-.051.003-.051.002L14 9l-.052-.001-.051-.002-.051-.003-.05-.004-.051-.006-.049-.007-.05-.008-.049-.01-.048-.01-.049-.012-.047-.013-.047-.014-.047-.015-.046-.016-.046-.018-.045-.018-.045-.02-.044-.02-.043-.022-.043-.023-.042-.023-.042-.025-.041-.025-.04-.027-.039-.027-.039-.029-.038-.029-.038-.03-.037-.031-.035-.032-.036-.033-.034-.033-.033-.034-.033-.036-.032-.035-.031-.037-.03-.038-.029-.038-.029-.039-.027-.039-.027-.04-.025-.041-.025-.042-.023-.042-.023-.043-.022-.043-.02-.044-.02-.045-.018-.045-.018-.046-.016-.046-.015-.047-.014-.047-.013-.047-.012-.049-.01-.048-.01-.049-.008-.05-.007-.049-.006-.051-.004-.05-.003-.051-.002-.051L12 7l.001-.052.002-.051.003-.051.004-.05.006-.051.007-.049.008-.05.01-.049.01-.048.012-.049.013-.047.014-.047.015-.047.016-.046.018-.046.018-.045.02-.045.02-.044.022-.043.023-.043.023-.042.025-.042.025-.041.027-.04.027-.039.029-.039.029-.038.03-.038.031-.037.032-.035.033-.036.033-.034.034-.033.036-.033.035-.032.037-.031.038-.03.038-.029.039-.029.039-.027.04-.027.041-.025.042-.025.042-.023.043-.023.043-.022.044-.02.045-.02.045-.018.046-.018.046-.016.047-.015.047-.014.047-.013.049-.012.048-.01.049-.01.05-.008.049-.007.051-.006.05-.004.051-.003.051-.002L14 5l.052.001zm-.09.533l-.038.001-.037.003-.037.003-.037.004-.037.005-.036.006-.036.007-.035.008-.036.009-.034.009-.035.01-.034.011-.034.012-.033.013-.033.013-.033.015-.032.015-.032.016-.031.016-.031.017-.031.018-.03.019-.029.02-.029.02-.029.021-.028.021-.027.022-.027.023-.027.024-.026.024-.025.024-.024.025-.024.026-.024.027-.023.027-.022.027-.021.028-.021.029-.02.029-.02.029-.019.03-.018.031-.017.031-.016.031-.016.032-.015.032-.015.033-.013.033-.013.033-.012.034-.011.034-.01.035-.009.034-.009.036-.008.035-.007.036-.006.036-.005.037-.004.037-.003.037-.003.037-.001.038-.001.038.001.038.001.038.003.037.003.037.004.037.005.037.006.036.007.036.008.035.009.036.009.034.01.035.011.034.012.034.013.033.013.033.015.033.015.032.016.032.016.031.017.031.018.031.019.03.02.029.02.029.021.029.021.028.022.027.023.027.024.027.024.026.024.025.025.024.026.024.027.024.027.023.027.022.028.021.029.021.029.02.029.02.03.019.031.018.031.017.031.016.032.016.032.015.033.015.033.013.033.013.034.012.034.011.035.01.034.009.036.009.035.008.036.007.036.006.037.005.037.004.037.003.037.003.038.001.038.001.038-.001.038-.001.037-.003.037-.003.037-.004.037-.005.036-.006.036-.007.035-.008.036-.009.034-.009.035-.01.034-.011.034-.012.033-.013.033-.013.033-.015.032-.015.032-.016.031-.016.031-.017.031-.018.03-.019.029-.02.029-.02.029-.021.028-.021.027-.022.027-.023.027-.024.026-.024.025-.024.024-.025.024-.026.024-.027.023-.027.022-.027.021-.028.021-.029.02-.029.02-.029.019-.03.018-.031.017-.031.016-.031.016-.032.015-.032.015-.033.013-.033.013-.033.012-.034.011-.034.01-.035.009-.034.009-.036.008-.035.007-.036.006-.036.005-.037.004-.037.003-.037.003-.037.001-.038.001-.038-.001-.038-.001-.038-.003-.037-.003-.037-.004-.037-.005-.037-.006-.036-.007-.036-.008-.035-.009-.036-.009-.034-.01-.035-.011-.034-.012-.034-.013-.033-.013-.033-.015-.033-.015-.032-.016-.032-.016-.031-.017-.031-.018-.031-.019-.03-.02-.029-.02-.029-.021-.029-.021-.028-.022-.027-.023-.027-.024-.027-.024-.026-.024-.025-.025-.024-.026-.024-.027-.024-.027-.023-.027-.022-.028-.021-.029-.021-.029-.02-.029-.02-.03-.019-.031-.018-.031-.017-.031-.016-.032-.016-.032-.015-.033-.015-.033-.013-.033-.013-.034-.012-.034-.011-.035-.01-.034-.009-.036-.009-.035-.008-.036-.007-.036-.006-.037-.005-.037-.004-.037-.003-.037-.003-.038-.001L14 5.533l-.038.001z"/></g><path d="M15 16l-5-5H8l-5 5v1h12v-1" fill="silver" stroke="#000" stroke-width=".5" transform="matrix(.93333 0 0 1.12415 3.933 -1.11)"/><path d="M15 16l-5-5H8l-5 5v1h12v-1m-4.187-4.187l-.813.739M13.206 17l-3-2.669M8.253 17l-2-1.779" fill="gray" stroke="#000" stroke-width=".5" transform="matrix(.93333 0 0 1.12415 .2 -2.11)"/></g><path d="M17 17H3V3h14v14zM3.996 4.067v11.866h12.008V4.067H3.996z"/></g><defs><linearGradient id="_Linear2" x1="0" y1="0" x2="1" y2="0" gradientUnits="userSpaceOnUse" gradientTransform="matrix(0 10 -7.69231 0 10 4)"><stop offset="0" stop-color="#ffffa5"/><stop offset="1" stop-color="#fff"/></linearGradient><linearGradient id="_Linear3" x1="0" y1="0" x2="1" y2="0" gradientUnits="userSpaceOnUse" gradientTransform="matrix(0 4 -2.36686 0 13.846 5)"><stop offset="0" stop-color="#ffffd9"/><stop offset=".48" stop-color="#dede33"/><stop offset="1" stop-color="#d4d400"/></linearGradient></defs></svg>