<svg width="21" height="20" xmlns="http://www.w3.org/2000/svg" fill-rule="evenodd" clip-rule="evenodd" stroke-linejoin="round" stroke-miterlimit="2"><path d="M4.256 6.625h-.861V4.046c-.313.235-.681.404-1.106.519V3.94c.225-.054.469-.17.731-.329.262-.164.443-.354.537-.573h.7v3.586zM4.956 11.142v.633H1.952c.031-.24.131-.469.294-.683.162-.214.48-.499.961-.858.387-.284.625-.479.712-.583a.645.645 0 00.175-.42c0-.149-.05-.269-.15-.348-.106-.085-.25-.125-.43-.125a.666.666 0 00-.425.13c-.107.084-.169.229-.181.428l-.856-.07c.05-.373.212-.648.48-.807.27-.165.6-.25 1.006-.25.437 0 .787.095 1.037.285.256.19.38.428.38.708 0 .164-.037.314-.106.464a1.937 1.937 0 01-.343.453 5.22 5.22 0 01-.562.454c-.275.2-.443.33-.518.394-.069.065-.125.13-.175.195h1.705zM2.033 15.978l.825-.08c.03.17.1.3.218.39.113.084.256.13.418.13.175 0 .325-.05.45-.16a.55.55 0 00.181-.434c0-.17-.062-.31-.175-.41a.63.63 0 00-.424-.149c-.113 0-.244.015-.394.05l.094-.559c.231.005.406-.035.53-.12a.402.402 0 00.182-.339.345.345 0 00-.131-.284.551.551 0 00-.356-.11c-.15 0-.275.04-.375.12a.538.538 0 00-.193.36l-.787-.11c.056-.215.137-.39.25-.514.106-.13.262-.235.462-.31.2-.07.418-.11.668-.11.418 0 .755.11 1.011.325.206.175.312.374.312.594 0 .314-.212.563-.643.748.256.045.462.144.612.294a.75.75 0 01.231.554c0 .314-.143.583-.43.803-.288.219-.644.329-1.068.329-.406 0-.743-.09-1.006-.28-.268-.184-.424-.429-.462-.728z" fill="navy" fill-rule="nonzero"/><path d="M7 4h9v1H7zM7 9h9v1H7zM7 14h9v1H7z"/></svg>