<svg width="12" height="20" xmlns="http://www.w3.org/2000/svg" fill-rule="evenodd" clip-rule="evenodd" stroke-linecap="round" stroke-linejoin="round" stroke-miterlimit="1.5"><path d="M11.429 6v4c0 1.197-1.429 1.197-1.429 0V5c0-1.571 2.429-1.571 2.429 0v7c0 1.608-3.429 1.608-3.429 0V7" fill="none" stroke="#000" stroke-width=".63" transform="matrix(1.75 0 0 1.4318 -12.75 -1.689)"/><path d="M11.429 6v4c0 1.197-1.429 1.197-1.429 0V5c0-1.571 2.429-1.571 2.429 0v7c0 1.608-3.429 1.608-3.429 0V7" fill="none" stroke="#abc0dc" stroke-width=".63" transform="matrix(1.75 0 0 1.4318 -12.962 -1.997)"/></svg>