<svg width="21" height="20" xmlns="http://www.w3.org/2000/svg" fill-rule="evenodd" clip-rule="evenodd" stroke-linejoin="round" stroke-miterlimit="2"><path d="M16 5.008L14.992 4H3.008L2 5.008v9.984L3.008 16h11.984L16 14.992V5.008z" fill="url(#_Linear1)"/><path d="M16 5.008v9.984L14.992 16H3.008L2 14.992V5.008L3.008 4h11.984L16 5.008zM3.422 5L3 5.422v9.156l.422.422h11.156l.422-.422V5.422L14.578 5H3.422z"/><path d="M6 7V6v1m-1 .5h8V6l-3-3H8L5 6v1.5z"/><clipPath id="a"><path d="M6 7V6v1m-1 .5h8V6l-3-3H8L5 6v1.5z"/></clipPath><g clip-path="url(#a)"><path d="M6 7V6v1M5 8h8V6l-3-3H8L5 6v2z" fill="url(#_Linear3)"/><path d="M6 7h6V6L9.5 3.5h-1L6 6v1m-1 .5h8V6l-3-3H8L5 6v1.5zM9 5l1 1H8l1-1z"/></g><path d="M15 9H8v8h10v-5l-3-3z" fill="none"/><clipPath id="b"><path d="M15 9H8v8h10v-5l-3-3z"/></clipPath><g clip-path="url(#b)"><path d="M15 9H8v8h10v-5l-3-3z" fill="#fff"/><path d="M15 12h3v5H8V9h7v3zm-6-2v6h8v-3h-3v-3H9z" fill="navy"/><path fill="navy" d="M10 12h3v1h-3zM10 14h6v1h-6z"/></g><path d="M18 12v5H8V9h7l3 3zm-9-2v6h8v-3.586L14.586 10H9z" fill="navy"/><defs><linearGradient id="_Linear1" x1="0" y1="0" x2="1" y2="0" gradientUnits="userSpaceOnUse" gradientTransform="matrix(0 12 -10.2857 0 9 4)"><stop offset="0" stop-color="olive"/><stop offset="1" stop-color="gray"/></linearGradient><linearGradient id="_Linear3" x1="0" y1="0" x2="1" y2="0" gradientUnits="userSpaceOnUse" gradientTransform="matrix(0 4 -2.5 0 9 3)"><stop offset="0" stop-color="#ff0"/><stop offset="1" stop-color="silver"/></linearGradient></defs></svg>