<svg width="21" height="20" xmlns="http://www.w3.org/2000/svg" fill-rule="evenodd" clip-rule="evenodd" stroke-linejoin="round" stroke-miterlimit="2"><g transform="translate(-5 -7)"><path d="M17 9H8v16h13V13l-4-4z" fill="none"/><clipPath id="a"><path d="M17 9H8v16h13V13l-4-4z"/></clipPath><g clip-path="url(#a)"><path d="M17 9H8v16h13V13l-4-4z" fill="#fff"/><path d="M17 13h4v12H8V9h9v4zm-8-3v14h11V14h-4v-4H9z" fill="#292957"/></g><path d="M21 13v12H8V9h9l4 4zM9 10v14h11V13.414L16.586 10H9z" fill="#292957"/></g><text x="5.227" y="10.973" font-family="'Iosevka-Term-Heavy','Iosevka Term',monospace" font-weight="900" font-size="16" transform="matrix(.41556 0 0 .39296 2.343 7.974)">php</text></svg>