<svg width="21" height="20" xmlns="http://www.w3.org/2000/svg" fill-rule="evenodd" clip-rule="evenodd" stroke-linejoin="round" stroke-miterlimit="2"><g transform="translate(-5 -7)"><path d="M17 9H8v16h13V13l-4-4z" fill="none"/><clipPath id="a"><path d="M17 9H8v16h13V13l-4-4z"/></clipPath><g clip-path="url(#a)"><path d="M17 9H8v16h13V13l-4-4z" fill="#fff"/><path d="M17 13h4v12H8V9h9v4zm-8-3v14h11V14h-4v-4H9z" fill="#292957"/></g><path d="M21 13v12H8V9h9l4 4zM9 10v14h11V13.414L16.586 10H9z" fill="#292957"/></g><path d="M4.794 13.575V8.953h.931v.384a.933.933 0 01.346-.327.935.935 0 01.452-.107c.18 0 .34.038.479.113a.987.987 0 01.385.378c.153.245.226.56.226.943v.565c0 .384-.073.698-.226.944a.987.987 0 01-.385.377.991.991 0 01-.479.113.935.935 0 01-.452-.107.933.933 0 01-.346-.327v1.673h-.93zm.931-2.673c0 .183.033.327.1.44.046.07.1.126.166.158.053.031.12.044.193.044.086 0 .16-.02.22-.057a.454.454 0 00.179-.17.775.775 0 00.1-.415v-.565a.775.775 0 00-.1-.415.454.454 0 00-.18-.17.437.437 0 00-.22-.057.377.377 0 00-.192.044.483.483 0 00-.166.157.856.856 0 00-.1.44v.566zM8.119 12.286V7.664h.93v1.673a.933.933 0 01.346-.327.927.927 0 01.446-.107c.166 0 .319.038.445.107.147.082.273.201.373.358.153.246.226.573.226.969v1.949h-.931v-1.95a.856.856 0 00-.1-.44.431.431 0 00-.166-.157.353.353 0 00-.186-.044.353.353 0 00-.186.044.483.483 0 00-.167.157.856.856 0 00-.1.44v1.95h-.93zM11.443 13.575V8.953h.931v.384a.933.933 0 01.346-.327.935.935 0 01.452-.107c.18 0 .34.038.479.113a.987.987 0 01.385.378c.153.245.226.56.226.943v.565c0 .384-.073.698-.226.944a.987.987 0 01-.385.377.991.991 0 01-.479.113.935.935 0 01-.452-.107.933.933 0 01-.346-.327v1.673h-.93zm.931-2.673c0 .183.033.327.1.44.046.07.1.126.166.158.053.031.12.044.193.044.086 0 .16-.02.22-.057a.454.454 0 00.179-.17.775.775 0 00.1-.415v-.565a.775.775 0 00-.1-.415.454.454 0 00-.18-.17.437.437 0 00-.22-.057.377.377 0 00-.192.044.483.483 0 00-.166.157.856.856 0 00-.1.44v.566z" fill-rule="nonzero"/></svg>