<svg width="21" height="20" xmlns="http://www.w3.org/2000/svg" fill-rule="evenodd" clip-rule="evenodd" stroke-linejoin="round" stroke-miterlimit="2"><path d="M16 2.962L15.038 2H3.962L3 2.962v11.076l.962.962h6.408L14 18l.021-3h1.017l.962-.962V2.962z" fill="url(#_Radial1)"/><clipPath id="a"><path d="M16 2.962L15.038 2H3.962L3 2.962v11.076l.962.962h6.408L14 18l.021-3h1.017l.962-.962V2.962z"/></clipPath><g clip-path="url(#a)"><path d="M6 5h7v1H6zM6 7h2v1H6zM9 7h2v1H9zM12 7h1v1h-1zM11 9h2v1h-2zM7 9h3v1H7zM9 11h1v1H9zM11 11h2v1h-2zM6 11h2v1H6z"/></g><path d="M16 2.962v11.076l-.962.962h-1.017L14 18l-3.63-3H3.962L3 14.038V2.962L3.962 2h11.076l.962.962zM4.377 3L4 3.377v10.246l.377.377h6.353l2.285 1.888.013-1.888h1.595l.377-.377V3.377L14.623 3H4.377z"/><defs><radialGradient id="_Radial1" cx="0" cy="0" r="1" gradientUnits="userSpaceOnUse" gradientTransform="matrix(5 10 -10 5 7 4)"><stop offset="0" stop-color="#fff"/><stop offset="1" stop-color="#fdf8aa"/></radialGradient></defs></svg>