<svg width="21" height="20" xmlns="http://www.w3.org/2000/svg" fill-rule="evenodd" clip-rule="evenodd" stroke-linejoin="round" stroke-miterlimit="2"><path d="M14.02 11.52l-1-.481v-8.02h-1.5l-8 8-1.5.5v.5h5v-.5l-1.5-.5 2-2h3.5v2l-1 .5v.5h4v-.5m-3-3.5h-2.5l2.5-2.5v2.5z" fill="#00f"/><path d="M17 14.5l-1-.481V6h-1.5l-8 8-1.5.5v.5h5v-.5L8.5 14l2-2H14v2l-1 .5v.5h4v-.5M14 11h-2.5L14 8.5V11zm-9 5h12v1H5v-1" fill="#009"/><path d="M4.65 3l5.85 5.85L16.35 3H17v.65L11.15 9.5 17 15.35V16h-.65l-5.85-5.85L4.65 16H4v-.65L9.85 9.5 4 3.65V3h.65z" fill="#ff0101"/></svg>