<svg width="21" height="20" xmlns="http://www.w3.org/2000/svg" fill-rule="evenodd" clip-rule="evenodd" stroke-linejoin="round" stroke-miterlimit="2"><path d="M18 6.008c-3.363 3.448-6.323 7.563-8.934 11.77-.123.197-.695.28-1.529.043-1.435-1.584-1.926-2.733-3.709-4.366l1.261-1.646c1.321 1.45 1.874 2.105 3.226 3.483 2.635-3.478 6.477-6.56 9.685-9.284z" fill="navy"/><path d="M3.699 9.285v-.537c0-.965.347-2.568 1.042-4.794h1.056C6.492 6.18 6.84 7.784 6.84 8.748v.537H5.782v-.537c0-.145-.007-.305-.022-.472h-.982a5.287 5.287 0 00-.022.472v.537H3.699zm1.185-1.922h.77a26.62 26.62 0 00-.385-2.01 26.62 26.62 0 00-.385 2.01zM7.473 9.285V3.954h1.57c.302 0 .558.058.777.181.204.109.363.268.483.464.144.24.212.522.212.849 0 .268-.053.493-.166.674-.09.153-.212.276-.363.37.22.116.385.276.506.472.12.195.181.442.181.725 0 .34-.075.63-.226.885a1.373 1.373 0 01-.521.507c-.25.138-.543.204-.883.204h-1.57zM8.53 8.37h.513a.5.5 0 00.468-.261.85.85 0 00.106-.436.86.86 0 00-.106-.442.5.5 0 00-.196-.196.576.576 0 00-.272-.065H8.53v1.4zm0-2.314h.513a.35.35 0 00.249-.102c.113-.108.166-.275.166-.5 0-.225-.053-.384-.166-.486a.35.35 0 00-.25-.101H8.53v1.189zM11.186 7.725V5.513c0-.355.076-.653.227-.907.128-.21.31-.384.528-.507.25-.138.544-.203.89-.203.34 0 .635.065.884.203.219.123.4.297.528.515.083.145.144.297.181.464l-1.018.247a.648.648 0 00-.295-.45.595.595 0 00-.287-.065.535.535 0 00-.475.26.86.86 0 00-.106.443v2.212c0 .174.038.32.106.443.053.087.12.152.204.195a.576.576 0 00.271.066.595.595 0 00.287-.066.648.648 0 00.294-.45l1.02.247a1.579 1.579 0 01-.182.465c-.128.217-.31.391-.528.514-.25.138-.543.204-.883.204-.347 0-.642-.066-.89-.204a1.45 1.45 0 01-.53-.507c-.15-.254-.226-.551-.226-.907z" fill-rule="nonzero"/></svg>