<svg width="21" height="20" xmlns="http://www.w3.org/2000/svg" fill-rule="evenodd" clip-rule="evenodd" stroke-linecap="round" stroke-linejoin="round" stroke-miterlimit="1.5"><path d="M18 14.5l-1-.481V6h-1.5l-8 8-1.5.5v.5h5v-.5L9.5 14l2-2H15v2l-1 .5v.5h4v-.5M15 11h-2.5L15 8.5V11zm-9 5h12v1H6v-1" fill="#4d4da6"/><path d="M3.234 15.51l11-11" fill="none" stroke="#fff"/><path d="M3 15L14 4" fill="none" stroke="#4a4a4a"/><path d="M1.998 8.992v-.704c0-1.266.662-3.369 1.984-6.29h1.059c1.323 2.921 1.984 5.024 1.984 6.29v.704H5.967v-.704c0-.324-.04-.705-.12-1.133H3.177a6.51 6.51 0 00-.12 1.133v.704H1.999zM3.321 6.47h2.381c-.238-.98-.635-2.179-1.19-3.606-.556 1.427-.953 2.626-1.19 3.606z" fill="#4a4a4a" fill-rule="nonzero"/></svg>