<svg width="21" height="20" xmlns="http://www.w3.org/2000/svg" fill-rule="evenodd" clip-rule="evenodd" stroke-linejoin="round" stroke-miterlimit="2"><path d="M28.5 52.3h4.3v4.3h-4.3c-6.5 0-13-7.3-13-15.2 0-7.9 6.7-15.2 13-15.2h17.3c6.3 0 13 7.3 13 15.2 0 6.1-3.9 11.8-8.7 14.1v-5c2.5-1.9 4.3-5.5 4.3-9.1 0-5.5-4.4-10.8-8.7-10.8H28.5c-4.2 0-8.7 5.3-8.7 10.8 0 5.5 4.4 10.9 8.7 10.9zm39-13h-4.3v4.3h4.3c4.3 0 8.7 5.3 8.7 10.8 0 5.5-4.4 10.8-8.7 10.8H50.2c-4.2 0-8.7-5.3-8.7-10.8 0-3.6 1.8-7.1 4.3-9.1v-5c-4.7 2.3-8.7 8-8.7 14.1 0 7.8 6.7 15.2 13 15.2h17.3c6.3 0 13-7.3 13-15.2 0-7.9-6.4-15.1-12.9-15.1z" fill="url(#_Linear1)" fill-rule="nonzero" transform="matrix(.19877 0 0 .21403 .92 -.271)"/><path d="M10.12 4.338l.097.006.095.01.095.012.094.015.093.02.091.022.09.025.09.028.088.03.086.033.086.036.083.038.083.04.082.042.08.045.079.047.077.048.076.05.075.054.074.054.073.056.07.058.07.059.069.061.067.063.066.064.065.066.064.068.062.068.06.07.06.072.058.073.057.075.055.076.055.076.052.079.051.08.05.08.048.082.047.084.045.084.044.085.042.087.04.088.039.089.037.09.035.09.034.092.013.04.048-.005.071-.003h.864l.088.002.097.006.096.008.096.013.094.015.093.019.093.021.09.025.09.027.09.03.086.033.086.035.085.037.084.04.082.043.08.044.08.046.078.049.076.05.076.053.074.054.072.056.071.058.07.06.069.06.067.063.066.065.064.066.063.067.062.069.06.07.059.072.057.073.056.074.055.076.053.077.052.078.05.08.049.08.047.082.046.084.044.084.042.085.04.086.04.088.038.088.036.09.034.09.032.092.03.092.029.094.027.094.025.095.023.096.02.097.02.097.016.098.015.1.013.1.01.1.008.1.006.102.004.102.001.103-.001.103-.004.103-.006.103-.009.102-.01.1-.014.101-.015.1-.018.1-.02.097-.022.098-.024.097-.026.095-.028.095-.03.094-.031.093-.034.092-.035.09-.037.09-.039.09-.04.087-.042.087-.043.085-.046.085-.046.083-.048.082-.05.08-.051.08-.053.079-.054.077-.055.076-.057.074-.059.073-.059.072-.06.07-.063.069-.063.067-.065.066-.066.064-.068.063-.068.061-.07.06-.071.058-.073.056-.073.054-.075.052-.076.051-.078.049-.079.046-.08.045-.081.043-.083.04-.084.038-.085.035-.087.033-.088.03-.089.029-.09.025-.092.022-.093.019-.093.016-.095.012-.096.01-.097.005-.087.002h-3.458l-.088-.002-.098-.006-.096-.009-.095-.013-.094-.016-.093-.02-.092-.022-.09-.025-.09-.028-.088-.031-.087-.034-.085-.036-.084-.038-.083-.04-.081-.044-.08-.045-.08-.047-.077-.049-.076-.051-.075-.053-.073-.054-.073-.057-.07-.058-.07-.06-.069-.061-.067-.063-.066-.065-.064-.066-.063-.067-.062-.07-.061-.07-.06-.072-.058-.073-.056-.074-.055-.076-.054-.077-.053-.078-.05-.08-.05-.08-.049-.083-.046-.083-.045-.084-.044-.086-.042-.086-.04-.088-.039-.088-.037-.09-.035-.09-.033-.092-.003-.01-.039.005-.071.002h-.864l-.089-.001-.097-.006-.097-.009-.096-.012-.094-.016-.094-.019-.093-.022-.091-.025-.09-.027-.089-.03-.088-.034-.086-.035-.085-.038-.083-.04-.083-.043-.08-.045-.08-.047-.078-.048-.077-.051-.076-.053-.074-.055-.073-.056-.071-.058-.07-.06-.07-.062-.067-.063-.066-.064-.064-.067-.064-.067-.062-.07-.06-.07-.06-.072-.057-.074-.057-.074-.055-.076-.053-.078-.052-.078-.051-.08-.05-.081-.047-.083-.046-.083-.044-.084-.043-.086-.041-.087-.04-.088-.038-.088-.036-.09-.035-.091-.032-.092-.031-.093-.03-.094-.026-.094-.026-.096-.023-.096-.021-.097-.02-.098-.017-.099-.014-.099-.013-.1-.01-.1-.01-.102-.005-.102L3 8.693 3 8.59l.001-.104.004-.103.006-.102.009-.102.01-.101.014-.101.015-.1.018-.099.02-.098.022-.098.024-.096.026-.096.028-.095.03-.094.031-.093.034-.091.035-.091.037-.09.039-.09.04-.087.042-.087.043-.085.046-.084.046-.084.048-.082.05-.08.051-.08.053-.078.054-.077.055-.076.057-.075.059-.073.059-.071.06-.07.063-.07.063-.067.065-.066.066-.064.068-.063.068-.061.07-.06.071-.057.073-.056.073-.054.075-.053.076-.05.078-.05.079-.046.08-.045.081-.042.083-.04.084-.038.085-.036.087-.033.088-.03.089-.028.09-.025.092-.023.093-.019.093-.015.095-.013.096-.01.097-.005.087-.001h3.458l.088.001zM13.48 8.14v.92h.855l.04.002.04.002.04.004.04.006.04.007.04.009.04.01.04.012.04.013.039.015.039.016.039.017.039.019.038.02.039.022.038.022.037.024.038.026.037.026.037.028.036.029.036.03.036.03.035.033.034.033.034.034.034.036.033.036.033.037.032.038.031.04.03.04.031.04.03.042.029.042.028.043.027.044.027.045.026.045.025.047.025.047.023.047.023.048.022.049.021.049.02.05.02.05.018.05.018.052.016.051.015.052.015.053.013.053.013.053.01.053.011.054.009.054.008.054.007.055.005.054.004.055.004.055.002.055v.111l-.002.055-.004.055-.004.054-.005.055-.007.054-.008.055-.009.054-.01.053-.011.054-.013.053-.013.053-.015.052-.015.052-.016.052-.018.051-.018.051-.02.05-.02.05-.02.05-.023.048-.023.048-.023.047-.025.047-.025.046-.026.046-.027.044-.027.044-.028.044-.03.042-.029.042-.03.04-.03.04-.032.04-.032.038-.033.037-.033.036-.034.036-.034.034-.034.033-.035.032-.036.031-.036.03-.036.029-.037.028-.037.026-.038.025-.037.024-.038.023-.039.022-.038.02-.04.019-.038.017-.04.016-.039.015-.04.013-.04.012-.039.01-.04.009-.04.007-.04.006-.04.004-.04.002H10.858l-.04-.002-.038-.004-.04-.006-.04-.007-.038-.01-.04-.01-.039-.011-.039-.013-.039-.015-.039-.016-.038-.017-.039-.02-.038-.02-.038-.021-.038-.023-.038-.024-.037-.025-.037-.026-.037-.028-.036-.029-.036-.03-.036-.031-.035-.032-.035-.033-.034-.034-.033-.036-.034-.036-.033-.037-.032-.038-.031-.04-.031-.04-.03-.04-.03-.042-.03-.042-.028-.044-.028-.044-.027-.044-.026-.046-.026-.046-.025-.047-.024-.047-.023-.048-.022-.049-.022-.05-.02-.049-.02-.05-.018-.05-.018-.052-.017-.052-.015-.052-.015-.052-.014-.053-.012-.053-.012-.054-.01-.053-.01-.054-.007-.055-.007-.054-.006-.055-.004-.054-.003-.055-.002-.055-.001-.056V11.3l.004-.072.005-.072.007-.071.01-.071.01-.07.013-.071.015-.07.016-.07.018-.068.02-.067.021-.068.023-.066.025-.065.026-.065.028-.064.03-.063.03-.061.031-.06.034-.06.034-.058.036-.057.037-.056.038-.054.04-.052.04-.052.042-.05.042-.047.044-.047.044-.044.046-.043.046-.041v-1.07l-.044.023-.043.025-.044.026-.043.026-.042.028-.043.029-.042.03-.042.03-.041.032-.042.032-.04.034-.04.034-.041.035-.04.036-.039.037-.039.038-.038.039-.038.04-.038.04-.036.04-.037.042-.036.043-.035.043-.035.045-.034.044-.034.046-.033.046-.033.047-.032.047-.03.048-.031.049-.03.05-.03.05-.028.05-.028.051-.027.052-.026.052-.026.053-.025.053-.024.053-.023.055-.022.054-.022.055-.02.056-.02.056-.02.056-.018.057-.017.057-.016.058-.015.058-.015.058-.013.058-.012.059-.012.059-.01.06-.01.059-.008.06-.007.06-.006.06-.005.06-.004.061-.003.061-.002.061v.14l.003.078.005.078.007.077.008.077.01.077.012.077.014.077.015.075.018.076.018.075.02.075.022.074.024.073.025.073.026.072.028.072.029.07.03.07.032.07.034.068.034.068.036.067.037.065.038.065.04.064.04.063.041.062.042.06.044.06.044.059.046.057.046.056.047.055.048.053.05.053.049.05.05.05.052.048.051.046.053.046.053.043.054.042.054.04.055.04.055.036.056.036.056.033.057.032.057.03.057.028.058.027.058.024.058.022.058.02.059.02.058.016.06.014.058.012.059.01.059.008.059.006.058.004H14.375l.059-.004.059-.005.058-.008.06-.01.058-.012.059-.014.058-.017.06-.018.057-.02.059-.023.057-.024.058-.026.057-.028.057-.03.057-.03.056-.034.056-.035.055-.037.055-.038.055-.04.053-.042.053-.043.053-.045.052-.046.05-.048.051-.049.05-.05.049-.052.048-.054.047-.054.046-.056.046-.057.045-.058.043-.06.042-.06.042-.062.04-.063.04-.063.038-.065.037-.066.035-.067.035-.067.033-.069.032-.07.03-.07.03-.07.027-.072.027-.072.025-.073.023-.074.022-.075.02-.074.019-.076.017-.076.015-.076.014-.077.012-.078.01-.077.009-.078.006-.079.005-.078.003-.08.001-.079-.001-.079-.003-.079-.004-.078-.007-.078-.008-.079-.01-.077-.011-.077-.013-.077-.015-.076-.016-.076-.018-.075-.02-.075-.02-.074-.024-.073-.024-.073-.025-.072-.027-.071-.028-.07-.03-.07-.03-.07-.033-.068-.033-.067-.035-.066-.036-.065-.037-.065-.038-.063-.04-.062-.04-.061-.041-.06-.043-.06-.043-.057-.045-.057-.045-.055-.046-.054-.048-.053-.048-.051-.049-.05-.05-.049-.05-.047-.051-.046-.052-.044-.053-.043-.053-.04-.054-.04-.054-.038-.056-.037-.055-.034-.056-.033-.057-.031-.057-.03-.058-.027-.058-.026-.058-.024-.059-.022-.059-.02-.059-.018-.06-.016-.06-.014-.06-.012-.06-.01-.06-.007-.06-.006-.06-.003-.061-.002h-.855zm-.142 1.967l-.026.07-.027.07-.028.07-.03.068-.03.069-.03.067-.032.067-.033.067-.034.065-.035.065-.036.064-.037.064-.038.063-.039.062-.04.06-.04.061-.041.06-.043.06-.042.058-.044.057-.045.057-.046.056-.046.055-.048.054-.048.053-.049.053-.05.051-.05.051-.051.05-.052.049-.053.048-.054.046-.054.046-.056.045-.056.044-.057.043-.057.042-.059.04-.059.04-.06.038-.06.037-.062.036-.063.035-.054.029-.064.03-.066.027-.067.022-.069.016-.07.012-.07.007-.071.002-.071-.003-.053-.007.01.008.017.012.016.01.015.01.014.009.013.007.012.007.012.005.01.005.01.004.008.003.006.002.006.002h.004l.003.002h3.437l.003-.001h.004l.005-.002.006-.002.007-.003.009-.003.01-.003.01-.005.011-.006.012-.006.014-.008.014-.008.014-.01.016-.01.016-.011.016-.013.017-.013.018-.015.018-.015.018-.017.018-.017.019-.019.018-.02.019-.02.018-.021.02-.022.018-.023.018-.024.018-.025.018-.026.018-.026.018-.027.017-.027.017-.028.016-.03.016-.028.016-.03.015-.03.015-.031.014-.032.013-.031.013-.032.013-.032.012-.033.01-.032.011-.033.01-.033.009-.034.008-.033.008-.033.007-.033.006-.034.006-.033.005-.033.004-.033.003-.033.003-.033.002-.032v-.033l.001-.032v-.032l-.001-.032-.002-.033-.003-.032-.003-.033-.004-.033-.005-.033-.006-.034-.006-.033-.007-.033-.008-.034-.008-.033-.01-.033-.009-.033-.01-.033-.011-.033-.012-.032-.013-.032-.013-.032-.013-.032-.014-.03-.015-.032-.015-.03-.016-.03-.016-.03-.016-.028-.017-.028-.017-.028-.018-.027-.018-.026-.018-.025-.018-.025-.018-.024-.019-.023-.019-.022-.018-.022-.019-.02-.018-.02-.019-.018-.018-.018-.018-.016-.018-.016-.018-.014-.017-.014-.016-.012-.016-.012-.016-.01-.014-.01-.014-.008-.014-.007-.012-.007-.011-.005-.01-.005-.01-.004-.009-.003-.007-.002-.006-.002-.005-.001-.004-.001h-.003l-.002-.001h-.854l-.071-.003-.052-.005-.019.054zm-6.755-4.77h-.059l-.059.004-.059.006-.058.008-.06.01-.058.012-.059.014-.059.016-.058.018-.058.02-.059.023-.057.024-.058.026-.057.028-.057.03-.057.031-.056.034-.056.034-.055.037-.055.039-.055.04-.053.041-.053.043-.053.045-.052.046-.05.048-.051.05-.05.05-.049.052-.048.053-.047.054-.047.056-.045.057-.045.058-.043.06-.042.06-.042.062-.04.063-.04.064-.038.065-.037.065-.035.067-.035.068-.033.068-.032.07-.03.07-.03.07-.027.072-.027.073-.025.073-.023.073-.022.075-.02.075-.019.075-.017.076-.015.077-.014.077-.012.077-.01.078-.009.078-.006.078-.005.079L4 8.51 4 8.59l.001.08.003.078.004.079.007.078.008.078.01.078.012.077.013.077.015.077.017.076.018.075.02.075.021.074.023.074.024.073.026.073.027.071.029.071.03.07.031.07.033.068.033.068.036.067.036.065.037.065.039.064.04.063.04.061.043.06.043.06.043.059.045.057.046.055.047.055.048.053.048.052.05.05.05.05.05.048.053.046.052.045.053.043.054.041.054.04.055.039.056.036.056.035.056.034.057.031.058.03.058.028.058.026.058.024.06.022.059.02.059.019.06.016.06.014.06.012.06.01.06.008.06.006.061.003.061.001h.855v-.92h-.895l-.04-.004-.04-.004-.04-.005-.04-.008-.04-.009-.04-.01-.04-.012-.04-.014-.039-.014-.039-.017-.04-.018-.038-.019-.038-.02-.039-.022-.038-.023-.037-.025-.038-.025-.037-.027-.037-.028-.036-.03-.036-.03-.036-.031-.035-.033-.034-.034-.034-.034-.034-.036-.033-.037-.033-.037-.032-.04-.031-.039-.031-.04-.03-.042-.03-.041-.029-.044-.028-.043-.028-.045-.026-.045-.026-.046-.026-.047-.024-.047-.024-.048-.022-.048-.022-.05-.021-.049-.02-.05-.02-.05-.018-.052-.018-.052-.016-.051-.016-.053-.014-.053-.013-.053-.013-.053-.01-.054-.011-.054-.01-.054-.007-.054-.007-.055-.005-.055-.005-.055-.003-.055-.002-.055v-.11l.002-.055.003-.055.005-.055.006-.055.007-.054.008-.054.009-.054.01-.054.012-.054.012-.053.014-.053.014-.052.016-.052.017-.052.018-.05.018-.052.02-.05.02-.05.022-.049.022-.048.023-.049.024-.047.025-.047.025-.046.027-.045.027-.045.027-.044.029-.043.029-.043.03-.042.03-.04.031-.04.032-.04.032-.037.033-.038.033-.036.034-.035.034-.034.035-.034.035-.032.036-.03.036-.03.036-.03.037-.027.037-.027.037-.025.038-.024.037-.023.039-.021.038-.02.038-.02.039-.017.039-.016.039-.014.039-.014.04-.011.038-.01.04-.01.039-.007.04-.005.039-.004.039-.003h3.498l.04.003.04.004.04.005.04.008.04.008.04.01.04.012.039.014.04.014.039.016.039.018.039.019.038.02.038.021.038.023.038.024.038.025.037.027.037.027.036.03.036.03.035.03.035.032.035.034.034.034.034.035.033.036.033.038.032.038.031.039.03.04.031.04.03.042.028.043.029.043.027.044.027.045.026.045.025.046.025.047.023.047.023.049.022.048.021.05.02.05.02.05.018.05.017.051.017.052.015.052.015.052.013.053.012.053.012.054.01.054.009.054.008.054.007.054.005.055.004.055.003.055.002.055.001.055-.001.072-.003.072-.005.072-.007.072-.01.072-.01.071-.013.07-.015.071-.016.07-.018.07-.02.068-.021.068-.023.067-.025.066-.026.065-.028.064-.03.063-.03.062-.032.061-.033.06-.034.058-.036.057-.037.055-.038.054-.04.052-.04.05-.042.05-.042.047-.044.045-.044.043-.046.041-.046.04v1.07l.045-.024.044-.024.044-.026.044-.027.043-.028.044-.028.042-.03.043-.03.042-.032.041-.033.041-.033.041-.035.04-.035.04-.036.04-.037.039-.038.039-.038.038-.04.037-.04.037-.041.037-.042.036-.043.035-.043.035-.044.034-.045.034-.045.033-.047.032-.046.032-.048.03-.048.031-.049.03-.05.029-.049.028-.05.028-.052.026-.051.026-.053.026-.052.024-.053.024-.054.023-.055.022-.054.021-.055.02-.056.02-.056.019-.056.018-.057.017-.057.016-.057.015-.058.014-.058.013-.059.012-.059.011-.059.01-.06.01-.059.008-.06.007-.06.006-.06.005-.06.004-.061.002-.06.002-.062V8.51l-.003-.078-.005-.079-.007-.078-.008-.078-.01-.078-.012-.077-.014-.077-.016-.077-.017-.076-.018-.075-.02-.075-.022-.075-.024-.073-.025-.073-.026-.073-.028-.071-.029-.071-.03-.07-.032-.07-.034-.068-.034-.068-.036-.067-.037-.065-.038-.065-.04-.064-.04-.063-.041-.061-.042-.061-.044-.06-.044-.058-.046-.057-.046-.056-.047-.054-.048-.053-.05-.052-.049-.05-.05-.05-.052-.048-.051-.046-.053-.045-.053-.043-.054-.041-.054-.04-.055-.039-.055-.037-.056-.034-.056-.034-.057-.031-.057-.03-.057-.028-.058-.026-.058-.024-.058-.022-.058-.02-.059-.019-.059-.016-.058-.014-.059-.013-.059-.01-.059-.007-.059-.006-.059-.003-.058-.001H6.584zm.01 1.941h-.007l-.003.001-.004.001-.006.002-.007.003-.008.003-.009.003-.01.005-.012.006-.012.006-.014.008-.014.008-.015.01-.015.01-.017.012-.016.012-.018.014-.017.015-.019.016-.018.017-.018.018-.02.018-.018.02-.02.02-.018.023-.02.022-.018.023-.02.025-.018.025-.018.025-.018.027-.018.027-.018.027-.017.029-.016.029-.017.03-.016.03-.015.03-.015.03-.014.032-.014.031-.013.032-.013.032-.011.033-.012.032-.01.033-.01.033-.01.033-.008.033-.008.033-.007.033-.006.033-.006.033-.005.033-.004.033-.003.032-.003.032-.002.033v.031l-.001.032v.032l.001.033.002.032.003.033.003.033.004.034.005.033.006.034.006.033.007.034.008.034.008.033.01.034.01.034.01.033.011.033.012.033.013.033.013.033.013.032.014.032.015.031.016.031.015.03.017.03.016.03.017.029.018.028.017.027.018.027.019.026.018.026.019.024.019.024.019.023.018.021.02.021.018.02.019.02.018.017.019.017.018.016.017.015.017.014.017.013.016.011.015.01.015.01.014.01.013.007.013.006.011.006.01.004.01.004.008.003.007.002.005.002.005.001.003.001h.856l.071.004.03.003.001-.007.025-.071.027-.07.027-.07.029-.07.03-.069.03-.068.031-.067.032-.067.034-.066.034-.065.035-.065.037-.064.037-.063.037-.063.04-.062.039-.06.04-.061.042-.06.042-.059.043-.058.044-.057.044-.056.046-.056.046-.054.047-.054.048-.053.048-.053.05-.05.05-.051.05-.05.052-.048.052-.048.053-.047.054-.045.054-.045.056-.044.056-.042.056-.042.058-.04.058-.04.059-.038.06-.037.06-.036.062-.035.052-.028.064-.032.066-.027.068-.022.069-.017.07-.013.07-.007.072-.002.071.002.069.008-.011-.009-.016-.011-.016-.01-.014-.01-.015-.008-.013-.008-.012-.006-.012-.006-.01-.004-.01-.004-.008-.003-.007-.003-.006-.001-.005-.002h-.004l-.003-.001H6.595z"/><path d="M4.65 3l5.85 5.85L16.35 3H17v.65L11.15 9.5 17 15.35V16h-.65l-5.85-5.85L4.65 16H4v-.65L9.85 9.5 4 3.65V3h.65z" fill="#ff0101"/><defs><linearGradient id="_Linear1" x1="0" y1="0" x2="1" y2="0" gradientUnits="userSpaceOnUse" gradientTransform="matrix(0 46.7216 -36.2274 0 50.717 24.627)"><stop offset="0" stop-color="#fff"/><stop offset=".5" stop-color="#bfbfbf"/><stop offset="1" stop-color="#fff"/></linearGradient></defs></svg>