<svg width="15" height="15" xmlns="http://www.w3.org/2000/svg" fill-rule="evenodd" clip-rule="evenodd" stroke-linejoin="round" stroke-miterlimit="2"><path d="M59.632 75.107v-2.822c0-4.96 2.015-9.725 5.529-13.073 4.396-4.189 6.817-9.839 6.817-15.909 0-12.119-9.859-21.978-21.978-21.978-.827 0-1.667.046-2.496.138-10.5 1.161-18.86 10.013-19.447 20.591a21.998 21.998 0 006.64 17.02c3.604 3.496 5.671 8.31 5.671 13.208v2.824a5.444 5.444 0 005.438 5.438h8.387a5.442 5.442 0 005.439-5.437z" fill="url(#_Radial1)" fill-rule="nonzero" transform="matrix(.18355 0 0 .18355 -1.684 -2.193)"/><path d="M9.262 11.593v-.518c0-.91.37-1.785 1.015-2.4a3.998 3.998 0 001.25-2.92 4.039 4.039 0 00-4.491-4.009c-1.928.213-3.462 1.838-3.57 3.78A4.038 4.038 0 004.685 8.65a3.404 3.404 0 011.04 2.424v.519a1 1 0 00.999.998h1.54c.55 0 .998-.448.998-.998zm-.734 0a.264.264 0 01-.264.264h-1.54a.264.264 0 01-.264-.264v-.519c0-1.096-.46-2.172-1.264-2.951A3.304 3.304 0 014.2 5.567c.088-1.588 1.342-2.917 2.918-3.09a3.304 3.304 0 013.677 3.279 3.27 3.27 0 01-1.023 2.388 4.06 4.06 0 00-1.243 2.93v.519zM8.579 12.92h-2.17a.25.25 0 100 .5h2.17a.25.25 0 100-.5zM8.829 13.96a.25.25 0 00-.25-.25h-2.17a.25.25 0 100 .5h2.17a.25.25 0 00.25-.25zM.616 6.378h1.44a.25.25 0 100-.5H.616a.25.25 0 100 .5zM14.622 6.128a.25.25 0 00-.25-.25h-1.44a.25.25 0 100 .5h1.44a.25.25 0 00.25-.25zM7.244.121V.82c0 .067.112.122.25.122s.25-.055.25-.122V.121c0-.067-.112-.121-.25-.121s-.25.054-.25.121zM12.473.795l-1.018 1.018a.25.25 0 10.353.354l1.019-1.019a.25.25 0 10-.354-.353zM3.533 10.089a.25.25 0 00-.354 0l-1.018 1.018a.25.25 0 10.353.354l1.019-1.019a.25.25 0 000-.353zM3.18 2.167a.25.25 0 00.353 0 .25.25 0 000-.354L2.514.795a.25.25 0 10-.353.353l1.018 1.019zM12.473 11.46a.25.25 0 00.354 0 .25.25 0 000-.353l-1.019-1.018a.25.25 0 10-.353.353l1.018 1.019zM8.286 14.75a.25.25 0 00-.25-.25H6.951a.25.25 0 100 .5h1.085a.25.25 0 00.25-.25z" fill-rule="nonzero"/><defs><radialGradient id="_Radial1" cx="0" cy="0" r="1" gradientUnits="userSpaceOnUse" gradientTransform="matrix(15.9837 51.3231 -43.7064 29.7252 32.019 25.273)"><stop offset="0" stop-color="#fff"/><stop offset=".36" stop-color="#fafcff"/><stop offset=".66" stop-color="#eaf2fd"/><stop offset="1" stop-color="#89b7f0"/></radialGradient></defs></svg>