<svg width="15" height="15" xmlns="http://www.w3.org/2000/svg" fill-rule="evenodd" clip-rule="evenodd" stroke-linejoin="round" stroke-miterlimit="2"><g transform="matrix(.0153 0 0 -.01674 -.152 15.869)"><path d="M990 535.2c0 36.7-16 68.8-48 96.5-32 27.7-70.5 41.2-115.5 40.5H714.4c20.6 35.4 30.9 69.8 30.9 103.2 0 42.5-7.6 75.9-22.9 100.3-14.5 25.1-36.2 43.4-65.2 55-29 11.6-61 17.4-96.1 17.4-21.3 0-40.4-6.8-57.2-20.3-14.5-11.6-25.9-26.1-34.3-43.4-8.4-17.4-13.7-33.8-16-49.2-2.3-15.4-6.1-30.6-11.4-45.3-5.3-14.7-11.8-26.4-19.4-34.7-20.6-18-43.5-40.8-68.6-68.5-43.5-47-72.8-74.6-88.1-83h-175c-22.1 0-41.2-6.8-57.2-20.3s-24-29.9-24-49.2V189.8c0-18.7 8-34.7 24-48.2s35.1-20.3 57.2-20.3h184.1c9.1 0 38.5-7.1 88.1-21.2 54.9-16.1 102.5-28 142.9-35.7 40.4-7.7 82.7-11.9 126.9-12.5h72c59.5 0 107.5 14.5 144.1 43.4 36.6 28.9 54.9 67.5 54.9 115.8v2.9c25.2 27.7 37.7 59.5 37.7 95.5 0 8.4-.4 16.1-1.1 23.2 16 24.4 24 50.5 24 78.2 0 12.9-1.9 25.1-5.7 36.7 20.7 26.2 31 55.5 31 87.6z" fill="url(#_Radial1)" fill-rule="nonzero"/><clipPath id="a"><path d="M990 535.2c0 36.7-16 68.8-48 96.5-32 27.7-70.5 41.2-115.5 40.5H714.4c20.6 35.4 30.9 69.8 30.9 103.2 0 42.5-7.6 75.9-22.9 100.3-14.5 25.1-36.2 43.4-65.2 55-29 11.6-61 17.4-96.1 17.4-21.3 0-40.4-6.8-57.2-20.3-14.5-11.6-25.9-26.1-34.3-43.4-8.4-17.4-13.7-33.8-16-49.2-2.3-15.4-6.1-30.6-11.4-45.3-5.3-14.7-11.8-26.4-19.4-34.7-20.6-18-43.5-40.8-68.6-68.5-43.5-47-72.8-74.6-88.1-83h-175c-22.1 0-41.2-6.8-57.2-20.3s-24-29.9-24-49.2V189.8c0-18.7 8-34.7 24-48.2s35.1-20.3 57.2-20.3h184.1c9.1 0 38.5-7.1 88.1-21.2 54.9-16.1 102.5-28 142.9-35.7 40.4-7.7 82.7-11.9 126.9-12.5h72c59.5 0 107.5 14.5 144.1 43.4 36.6 28.9 54.9 67.5 54.9 115.8v2.9c25.2 27.7 37.7 59.5 37.7 95.5 0 8.4-.4 16.1-1.1 23.2 16 24.4 24 50.5 24 78.2 0 12.9-1.9 25.1-5.7 36.7 20.7 26.2 31 55.5 31 87.6z" clip-rule="nonzero"/></clipPath><g clip-path="url(#a)"><path d="M173.5 435.427c0-9.6-4.2-17.7-12.6-24.1-8.4-6.4-17.9-10-28.6-10.6-10.7-.6-20.2 2.9-28.6 10.6-8.4 7.7-12.6 15.8-12.6 24.1s4.2 16.4 12.6 24.1c8.4 7.7 17.9 11.3 28.6 10.6 10.7-.6 20.2-4.2 28.6-10.6 8.4-6.4 12.6-14.4 12.6-24.1zM908.8 534.3c0-12.2-4.6-26.7-13.7-43.4s-20.6-25.1-34.3-25.1c6.1-6.4 11.4-15.1 16-26.1 4.6-11 6.5-20.6 5.7-28.9 0-25.1-11.1-46.6-33.2-64.6 7.6-11.6 11.4-23.8 11.4-36.7 0-12.9-3.8-26.1-11.4-39.6-7.6-13.5-17.5-23.2-29.7-28.9 1.5-10.3 2.3-20.3 2.3-29.9 0-30.2-10.3-52.7-30.9-67.5-20.6-14.8-49.6-22.2-86.9-22.2h-81.2c-55.7 0-128.5 13.2-218.4 39.6-2.3.6-8.4 2.6-18.3 5.8-9.9 3.2-17.5 5.5-22.9 6.8-5.3 1.3-13 3.2-22.9 5.8-9.9 2.6-17.9 4.5-24 5.8-6.1 1.3-13 2.6-20.6 3.9-7.6 1.3-14.5 1.6-20.6 1h-20.6v345.4h20.6c6.9 0 14.5 1.6 22.9 4.8 8.4 3.2 16.8 8 25.2 14.5 8.4 6.4 16.8 12.5 25.2 18.3 8.4 5.8 16.8 13.8 25.2 24.1 8.4 10.3 15.6 18 21.7 23.2 6.1 5.1 13 12.5 20.6 22.2 7.6 9.7 12.6 14.8 14.9 15.4 22.9 24.4 39.3 40.8 49.2 49.2 17.5 15.4 30.1 35.1 37.7 58.9 7.6 23.8 14.1 46.3 19.4 67.5 5.3 21.2 13.3 36.7 24 46.3 41.2 0 68.6-8.7 82.3-26.1 13.7-17.4 20.2-43.4 19.4-78.2 0-20.6-9.9-49.2-29.7-85.9-19.8-36.7-30.1-65.3-30.9-85.9h224.1c21.3 0 40.4-7.1 57.2-21.2 16.8-14.2 25.2-29.9 25.2-47.3v-1zm81.2.9c0 36.7-16 68.8-48 96.5-32 27.7-70.5 41.2-115.5 40.5H714.4c20.6 35.4 30.9 69.8 30.9 103.2 0 42.5-7.6 75.9-22.9 100.3-14.5 25.1-36.2 43.4-65.2 55-29 11.6-61 17.4-96.1 17.4-21.3 0-40.4-6.8-57.2-20.3-14.5-11.6-25.9-26.1-34.3-43.4-8.4-17.4-13.7-33.8-16-49.2-2.3-15.4-6.1-30.6-11.4-45.3-5.3-14.7-11.8-26.4-19.4-34.7-20.6-18-43.5-40.8-68.6-68.5-43.5-47-72.8-74.6-88.1-83h-175c-22.1 0-41.2-6.8-57.2-20.3s-24-29.9-24-49.2V189.8c0-18.7 8-34.7 24-48.2s35.1-20.3 57.2-20.3h184.1c9.1 0 38.5-7.1 88.1-21.2 54.9-16.1 102.5-28 142.9-35.7 40.4-7.7 82.7-11.9 126.9-12.5h72c59.5 0 107.5 14.5 144.1 43.4 36.6 28.9 54.9 67.5 54.9 115.8v2.9c25.2 27.7 37.7 59.5 37.7 95.5 0 8.4-.4 16.1-1.1 23.2 16 24.4 24 50.5 24 78.2 0 12.9-1.9 25.1-5.7 36.7 20.7 26.2 31 55.5 31 87.6z" fill-rule="nonzero"/></g><path d="M567.645 948.032l6.472-.204 6.4-.34 6.328-.476 6.256-.611 6.184-.748 6.112-.883 6.04-1.02 5.969-1.155 5.898-1.292 5.827-1.427 5.755-1.564 5.684-1.699 5.614-1.835 5.543-1.971 5.473-2.107 2.697-1.107 2.655-1.147 2.612-1.185 2.569-1.225 2.526-1.265 2.484-1.303 2.441-1.343 2.399-1.383 2.356-1.422 2.313-1.461 2.271-1.501 2.228-1.54 2.185-1.579 2.143-1.62 2.101-1.658 2.057-1.699 2.016-1.737 1.973-1.778 1.931-1.816 1.888-1.857 1.845-1.896 1.804-1.936 1.761-1.975 1.718-2.015 1.677-2.055 1.634-2.095 1.591-2.134 1.55-2.174 1.507-2.214 1.465-2.253 1.423-2.294 1.38-2.333 1.412-2.314 1.367-2.366 1.321-2.42 1.277-2.472 1.231-2.525 1.187-2.578 1.141-2.631 1.097-2.683 1.051-2.736 1.007-2.79.962-2.842.916-2.895.872-2.948.827-3.001.782-3.054.737-3.107.693-3.161.648-3.213.602-3.266.558-3.319.514-3.373.468-3.425.424-3.479.379-3.532.335-3.585.29-3.638.446-7.436.267-7.649.089-7.862-.03-3.134-.091-3.14-.151-3.146-.211-3.152-.271-3.157-.332-3.164-.393-3.169-.452-3.176-.513-3.181-.574-3.186-.633-3.193-.694-3.199-.755-3.204-.814-3.211-.876-3.216-.935-3.222-.996-3.228-1.056-3.234-1.116-3.239-1.177-3.246-1.238-3.251-1.297-3.257-1.358-3.264-1.418-3.269-1.479-3.274-1.539-3.281-1.599-3.286-1.66-3.293-1.72-3.298-1.78-3.304-1.841-3.31-1.901-3.316h112.1l4.2.024 4.161-.059 4.124-.143 4.085-.225 4.048-.309 4.009-.392 3.971-.475 3.933-.558 3.895-.642 3.857-.725 3.819-.808 3.781-.891 3.742-.975 3.705-1.057 3.667-1.141 3.628-1.224 3.59-1.307 3.553-1.391 3.514-1.473 3.476-1.557 3.438-1.64 3.4-1.723 3.362-1.807 3.323-1.889 3.286-1.973 3.247-2.056 3.21-2.14 3.171-2.222 3.134-2.306 3.095-2.389 3.057-2.472L942 631.7l2.953-2.61 2.859-2.635 2.766-2.662 2.672-2.687 2.578-2.713 2.484-2.74 2.391-2.765 2.297-2.791 2.203-2.817 2.109-2.844 2.016-2.87 1.922-2.895 1.828-2.922 1.734-2.949 1.641-2.974 1.547-3.001 1.453-3.027 1.359-3.054 1.266-3.08 1.172-3.107 1.078-3.133.984-3.159.891-3.187.797-3.212.703-3.24.61-3.266.515-3.293.422-3.32.328-3.346.234-3.374.141-3.4.047-3.427-.03-3.001-.091-2.985-.151-2.968-.211-2.952-.272-2.935-.332-2.918-.393-2.902-.453-2.884-.513-2.868-.575-2.851-.634-2.834-.696-2.817-.755-2.8-.817-2.783-.877-2.766-.937-2.749-.999-2.731-1.059-2.714-1.119-2.696-1.181-2.679-1.241-2.662-1.302-2.643-1.362-2.627-1.423-2.608-1.485-2.591-1.544-2.574-1.606-2.555-1.667-2.537-1.727-2.52-1.789-2.501-1.849-2.484L959 447.6l1.336-4.378 1.158-4.436.979-4.494.802-4.555.623-4.615.446-4.677.267-4.74.089-4.805-.094-5.175-.281-5.137-.469-5.1-.656-5.061-.844-5.024-1.031-4.985-1.219-4.947-1.406-4.909-1.594-4.869-1.781-4.831-1.969-4.792-2.156-4.753-2.344-4.713-2.531-4.675-2.719-4.634-2.906-4.595.467-5.439.345-5.674.215-5.917.073-6.17-.037-3.363-.11-3.338-.183-3.313-.256-3.289-.33-3.265-.404-3.24-.477-3.215-.55-3.191-.624-3.167-.697-3.142-.771-3.117-.845-3.093-.918-3.069-.992-3.045-1.066-3.02-1.14-2.996-1.213-2.971-1.288-2.947-1.361-2.923-1.435-2.899-1.509-2.874-1.584-2.85-1.657-2.826-1.731-2.802-1.806-2.777-1.879-2.754-1.954-2.729-2.028-2.705-2.102-2.681-2.177-2.657-2.251-2.633L904.1 214v-2.9l-.054-4.5-.16-4.443-.269-4.386-.375-4.329-.482-4.272-.59-4.216-.697-4.158-.804-4.102-.912-4.045-1.018-3.988-1.126-3.932-1.233-3.874-1.341-3.818-1.447-3.761-1.555-3.704-1.662-3.647-1.769-3.59-1.877-3.534-1.983-3.476-2.091-3.42-2.198-3.363-2.306-3.306-2.412-3.25-2.52-3.192-2.627-3.136-2.735-3.079-2.841-3.022-2.949-2.965-3.056-2.908-3.163-2.852-3.27-2.794L849.2 95.3l-3.465-2.667-3.531-2.583-3.598-2.498-3.666-2.414-3.732-2.33-3.799-2.245-3.865-2.16-3.933-2.076-4-1.992-4.066-1.907-4.134-1.822-4.201-1.738-4.267-1.653-4.335-1.569-4.402-1.484-4.469-1.399-4.535-1.315-4.603-1.23-4.671-1.146-4.737-1.06-4.804-.976-4.872-.891-4.939-.806-5.006-.722-5.073-.637-5.14-.551-5.208-.467-5.275-.383-5.343-.297-5.409-.212-5.478-.128-5.544-.042h-72l-8.265.155-8.221.239-8.176.323-8.132.406-8.087.491-8.042.574-7.998.658-7.954.742-7.909.824-7.864.907-7.82.991-7.776 1.073-7.731 1.156-7.686 1.238-7.642 1.32L506.2 64.4l-7.659 1.493-7.829 1.591-7.997 1.69-8.167 1.788-8.335 1.887-8.506 1.985-8.675 2.084-8.845 2.182-9.014 2.28-9.185 2.379-9.355 2.478-9.525 2.575-9.696 2.675-9.866 2.772-10.038 2.871-10.208 2.97-17.653 4.959-15.758 4.302-13.862 3.643-6.219 1.574-5.746 1.409-5.27 1.244-4.796 1.079-4.321.913-3.845.747-3.371.582-2.895.415-2.42.25-1.944.083H91.1l-4.109.08-4.038.239-3.967.398-3.897.556-3.826.716-3.755.874-3.683 1.033-3.613 1.191-3.54 1.35-3.469 1.507-3.398 1.666-3.325 1.823-3.254 1.981-3.181 2.138-3.109 2.295L33.9 141.6l-2.906 2.561-2.719 2.619-2.531 2.679-2.344 2.738-2.156 2.798-1.969 2.858-1.781 2.918-.821 1.482-.773 1.497-.727 1.512-.679 1.528-.633 1.543-.586 1.558-.539 1.574-.492 1.589-.446 1.604-.398 1.62-.352 1.636-.304 1.651-.469 3.349-.281 3.411L9.9 189.8v344.4l.094 3.585.281 3.517.469 3.448.304 1.699.352 1.682.398 1.665.446 1.648.492 1.631.539 1.614.586 1.597.633 1.58.679 1.563.727 1.546.773 1.529.821 1.512.867 1.495.914 1.478.961 1.461 1.008 1.444 1.054 1.427 1.102 1.41 2.344 2.769 2.531 2.702 2.719 2.633L33.9 583.4l3.036 2.453 3.109 2.295 3.181 2.138 3.254 1.981 3.325 1.823 3.398 1.666 3.469 1.507 3.54 1.35 3.613 1.191 3.683 1.033 3.755.874 3.826.716 3.897.556 3.967.398 4.038.239 4.109.08h175l1.475.844 1.558.956 1.639 1.069 1.722 1.181 3.69 2.701 4.019 3.152 4.348 3.603 4.678 4.055 5.008 4.506 5.338 4.958 5.668 5.411 6 5.863 6.33 6.316 6.661 6.769 6.994 7.223 7.325 7.677 7.657 8.131 7.99 8.585 9.309 10.158 9.102 9.7 8.893 9.243 8.683 8.787 8.473 8.332 8.26 7.878 4.051 3.77 3.996 3.657 3.944 3.544 3.889 3.431 1.412 1.596 1.386 1.675 1.36 1.754 1.334 1.831 1.308 1.909 1.281 1.986 1.254 2.062 1.227 2.137 1.201 2.212 1.174 2.287 1.146 2.361 1.119 2.434 1.091 2.506 1.063 2.579 1.036 2.65 1.008 2.721 1.917 5.535 1.777 5.579 1.636 5.619 1.495 5.655 1.355 5.687 1.214 5.717 1.073 5.743.933 5.765.466 2.899.537 2.923.608 2.946.678 2.97.749 2.992.82 3.017.892 3.04.962 3.063 1.035 3.087 1.106 3.11 1.177 3.133 1.25 3.158 1.321 3.18 1.394 3.204 1.466 3.227 1.539 3.251 1.61 3.211 1.681 3.145 1.751 3.079 1.822 3.013 1.893 2.947 1.964 2.881 2.035 2.814 2.106 2.747 2.178 2.681 2.25 2.614 2.321 2.546 2.394 2.48 2.465 2.412 2.538 2.344 2.61 2.277 2.682 2.209 3.177 2.453 3.231 2.295 3.284 2.138 3.338 1.981 3.391 1.823 3.444 1.666 3.497 1.507 3.55 1.349 3.603 1.192 3.656 1.033 3.708.874 3.76.716 3.812.556 3.865.398 3.916.239 3.968.08 6.545-.068zm-7.62-59.715l-.975-.059-.884-.091-.809-.118-.754-.144-.719-.169-.704-.199-.706-.234-.727-.276-.765-.33-.815-.394-.877-.471-.947-.563-1.024-.666-1.103-.784-1.366-1.054-1.209-.996-1.252-1.093-1.221-1.127-1.192-1.166-1.165-1.208-1.143-1.253-1.12-1.301-1.1-1.354-1.081-1.41-1.062-1.468-1.044-1.532-1.026-1.598-1.008-1.666-.989-1.739-.969-1.813-.983-1.961-1.069-2.258-1.092-2.404-1.024-2.354-.958-2.305-.892-2.254-.828-2.204-.766-2.153-.704-2.101-.644-2.049-.585-1.997-.529-1.945-.474-1.892-.42-1.839-.368-1.788-.319-1.736-.374-2.321-1.043-6.451-1.321-7.066-1.495-7.041-1.671-7.014-1.847-6.984-2.023-6.95-2.202-6.913-2.343-6.765-1.391-3.754-1.41-3.61-1.475-3.575-1.541-3.54-1.613-3.508-1.687-3.474-1.766-3.444-1.852-3.412-1.942-3.382-2.039-3.351-2.143-3.321-2.253-3.29-2.372-3.257-2.499-3.222-2.635-3.185-2.08-2.35-2.624-2.785-2.806-2.633-3.671-3.239-3.519-3.163-3.593-3.287-3.574-3.327-7.638-7.285-7.816-7.687-8.082-8.177-8.339-8.667-8.59-9.154-9.224-10.065-8.274-8.892-7.921-8.41-7.62-7.985-7.324-7.566-7.037-7.15-6.759-6.744-6.493-6.346-6.242-5.958-6.014-5.586-5.814-5.232-5.654-4.9-5.552-4.601-5.536-4.341-5.351-3.917-3.176-2.18-3.036-1.979-3.197-1.963-2.374-1.357-3.952-2.088-4.101-1.831-4.231-1.564-4.34-1.291-4.428-1.01-4.495-.725-4.539-.437-4.561-.146H91.793l-1.998-.038-1.167-.069-1.03-.104-.91-.13-.806-.151-.723-.168-.661-.185-.62-.205-.6-.228-.6-.261-.619-.304-.654-.358-.703-.428-.762-.512-.828-.612-.871-.703-.777-.686-.597-.578-.447-.478-.529-.624-.03-.04-.078-.113-.063-.095-.049-.08-.038-.066-.03-.055-.024-.047-.02-.043-.018-.041-.018-.044-.018-.049-.019-.058-.022-.071-.023-.087-.025-.105-.096-.702-.043-.545-.037-1.404V190.537l.033-1.227.029-.354.055-.391.128-.21.144-.208.236-.307.355-.415.498-.527.664-.64.837-.737.893-.721.828-.612.763-.512.702-.428.653-.358.619-.304.601-.261.6-.228.62-.205.66-.185.724-.168.807-.151.908-.13 1.031-.104 1.167-.069 1.998-.038h184.936l5.608-.24 5.957-.614 5.291-.76 5.095-.879 5.144-.999 5.332-1.127 5.604-1.261 5.932-1.4 6.295-1.544 6.781-1.716 14.492-3.809 16.328-4.457 18.211-5.116 10.367-3.016 9.731-2.783 9.547-2.683 9.363-2.583 9.179-2.482 8.994-2.381 8.808-2.282 8.621-2.18 8.433-2.081 8.245-1.98 8.056-1.881 7.864-1.779 7.673-1.681 7.478-1.58 7.284-1.481 7.036-1.371 6.853-1.265 6.843-1.183 6.891-1.11 6.939-1.037 6.986-.964 7.034-.891 7.083-.818 7.131-.743 7.18-.669 7.229-.595 7.279-.519 7.329-.445 7.378-.369 7.429-.294 7.479-.217 7.227-.135h71.058l4.714.036 4.349.101 4.256.167 4.164.232 4.071.295 3.978.356 3.886.418 3.796.476 3.707.534 3.617.591 3.528.645 3.444.7 3.358.751 3.276.804 3.193.853 3.116.903 3.038.951 2.964 1 2.892 1.046 2.822 1.093 2.756 1.141 2.692 1.187 2.632 1.234 2.573 1.281 2.518 1.329 2.467 1.379 2.417 1.429 2.372 1.48 2.327 1.532 2.285 1.587 2.248 1.644 2.199 1.693 2.111 1.711 2.006 1.714 1.911 1.723 1.82 1.732 1.734 1.744 1.651 1.756 1.572 1.77 1.497 1.786 1.424 1.805 1.357 1.826 1.291 1.852 1.229 1.881 1.169 1.912 1.111 1.947 1.055 1.987 1.001 2.031.948 2.079.894 2.131.842 2.188.789 2.247.735 2.311.681 2.377.625 2.448.569 2.523.509 2.598.449 2.678.386 2.758.321 2.842.254 2.928.184 3.013.112 3.101.042 3.511V214l.188 4.535.565 4.509.937 4.457 1.305 4.379 1.664 4.276 2.014 4.148 2.353 3.996 2.678 3.822 2.987 3.624 1.906 2.138 1.427 1.669 1.365 1.666 1.303 1.662 1.244 1.66 1.186 1.656 1.13 1.655 1.076 1.656 1.023 1.656.972 1.658.924 1.662.875 1.667.829 1.674.783 1.682.739 1.693.697 1.705.654 1.72.613 1.736.572 1.755.531 1.774.491 1.798.45 1.823.411 1.85.37 1.877.329 1.908.288 1.94.246 1.975.203 2.011.16 2.048.115 2.087.07 2.127.023 2.138-.058 4.885-.165 4.583-.263 4.321-.409 4.761-.201 4.496.171 4.498.54 4.473.907 4.423 1.268 4.349 1.623 4.248 1.968 4.125 2.301 3.978 2.383 3.767 1.722 2.935 1.58 2.918 1.443 2.903 1.313 2.894 1.187 2.889 1.065 2.889.948 2.896.833 2.908.722 2.927.611 2.955.502 2.988.392 3.028.283 3.076.171 3.129.058 3.175-.052 2.771-.149 2.656-.243 2.551-.332 2.459-.418 2.375-.503 2.305-.586 2.247-1.005 3.291-1.126 4.301-.775 4.366-.42 4.406-.063 4.422.295 4.414.652 4.382 1.004 4.326 1.352 4.247 1.691 4.143 2.022 4.018 2.342 3.869 2.648 3.701 1.558 2.012 1.162 1.56 1.112 1.556 1.066 1.555 1.02 1.552.974 1.551.931 1.55.888 1.551.848 1.553.806 1.553.766 1.556.728 1.561.69 1.566.652 1.572.617 1.58.58 1.588.546 1.599.51 1.609.476 1.621.441 1.636.408 1.653.374 1.668.339 1.685.305 1.705.271 1.725.237 1.747.201 1.771.166 1.793.131 1.818.093 1.845.057 1.872.018 1.799-.027 2.023-.078 1.88-.128 1.834-.175 1.792-.223 1.753-.269 1.717-.314 1.685-.36 1.656-.404 1.63-.45 1.608-.495 1.592-.543 1.575-.59 1.566-.64 1.558-.692 1.554-.746 1.553-.801 1.555-.861 1.56-.921 1.566-.985 1.575-1.053 1.586-1.122 1.598-1.196 1.611-1.272 1.627-1.35 1.641-1.432 1.656-1.516 1.672-1.604 1.688-1.694 1.704-1.785 1.717-1.879 1.733-1.952 1.725-1.958 1.657-1.938 1.567-1.935 1.493-1.934 1.423-1.933 1.355-1.934 1.289-1.935 1.226-1.939 1.164-1.943 1.104-1.95 1.048-1.958.993-1.97.939-1.984.889-2 .838-2.019.791-2.041.743-2.067.697-2.095.652-2.126.607-2.162.563-2.199.518-2.24.474-2.283.429-2.331.384-2.38.338-2.432.291-2.486.243-2.543.194-2.601.144-2.663.092-2.724.038-3.692-.021H714.4l-4.965.173-4.936.517-4.88.859-4.793 1.195-4.681 1.525-4.54 1.846-4.374 2.156-4.181 2.453-3.966 2.737-3.727 3.005-3.467 3.255-3.186 3.486-2.887 3.698-2.571 3.887-2.241 4.055-1.898 4.199-1.543 4.319-1.18 4.413-.809 4.483-.435 4.526-.057 4.543.32 4.534.697 4.498 1.068 4.437 1.433 4.35 1.791 4.238 2.138 4.102 1.713 2.986 1.469 2.643 1.413 2.621 1.356 2.601 1.3 2.579 1.245 2.557 1.189 2.536 1.136 2.515 1.081 2.493 1.029 2.472.976 2.449.924 2.429.873 2.407.822 2.387.773 2.365.723 2.344.675 2.325.627 2.304.579 2.284.534 2.265.487 2.247.442 2.228.398 2.21.354 2.193.31 2.177.268 2.161.225 2.146.183 2.132.142 2.118.101 2.106.06 2.094.02 2.037-.075 6.645-.221 6.323-.373 6.22-.218 2.734-.265 2.837-.296 2.763-.328 2.69-.358 2.615-.386 2.541-.415 2.466-.441 2.391-.467 2.316-.491 2.24-.514 2.164-.535 2.09-.555 2.014-.573 1.939-.59 1.863-.605 1.789-.619 1.715-.631 1.642-.641 1.569-.65 1.498-.657 1.427-.663 1.358-.666 1.291-.669 1.224-.67 1.161-1.252 2.051-1.27 2.147-.772 1.244-.783 1.205-.795 1.168-.806 1.131-.817 1.095-.83 1.064-.841 1.031-.855 1.003-.869.975-.883.948-.9.923-.916.902-.935.879-.954.86-.975.841-.998.823-1.023.808-1.049.792-1.077.778-1.107.766-1.138.752-1.172.74-1.207.729-1.245.718-1.284.706-1.325.695-1.367.685-1.412.673-1.458.662-1.506.65-1.424.585-3.936 1.515-3.863 1.374-3.924 1.282-3.989 1.193-4.058 1.102-4.132 1.012-4.209.922-4.29.83-4.376.739-4.464.645-4.555.551-4.651.455-4.748.357-4.847.257-4.949.156-4.703.049-1.421-.029z"/></g><defs><radialGradient id="_Radial1" cx="0" cy="0" r="1" gradientUnits="userSpaceOnUse" gradientTransform="matrix(-326.7 -1075.44 -1176.12 298.733 793.98 1187.09)"><stop offset="0" stop-color="#fff"/><stop offset=".36" stop-color="#fafcff"/><stop offset=".66" stop-color="#eaf2fd"/><stop offset="1" stop-color="#89b7f0"/></radialGradient></defs></svg>