<svg width="15" height="15" xmlns="http://www.w3.org/2000/svg" fill-rule="evenodd" clip-rule="evenodd" stroke-linejoin="round" stroke-miterlimit="2"><path fill="url(#_Radial1)" d="M2 0h11v15H2z"/><path fill="#010001" d="M4 2h4v1H4z"/><path d="M4 2h4v1H4z"/><path fill="#010001" d="M4 4h4v1H4z"/><path d="M4 4h4v1H4z"/><path fill="#010001" d="M9 4h2v1H9z"/><path d="M9 4h2v1H9z"/><path fill="#010001" d="M8 6h3v1H8z"/><path d="M8 6h3v1H8z"/><path fill="#010001" d="M4 6h3v1H4z"/><path d="M4 6h3v1H4z"/><path fill="#010001" d="M4 8h1v1H4z"/><path d="M4 8h1v1H4z"/><path fill="#010001" d="M6 8h5v1H6z"/><path d="M6 8h5v1H6z"/><path fill="#010001" d="M4 10h6v1H4z"/><path d="M4 10h6v1H4z"/><path fill="#010001" d="M4 12h3v1H4z"/><path d="M4 12h3v1H4z"/><path fill="#010001" d="M8 12h1v1H8z"/><path d="M8 12h1v1H8z"/><path fill="#010001" d="M10 12h1v1h-1z"/><path d="M10 12h1v1h-1z"/><path d="M13 15H2V0h11v15zM3 1v13h9V1H3z"/><defs><radialGradient id="_Radial1" cx="0" cy="0" r="1" gradientUnits="userSpaceOnUse" gradientTransform="matrix(4 13 -10.9378 7.5293 3 1)"><stop offset="0" stop-color="#fff"/><stop offset=".36" stop-color="#fafcff"/><stop offset=".66" stop-color="#eaf2fd"/><stop offset="1" stop-color="#89b7f0"/></radialGradient></defs></svg>