<svg width="15" height="15" xmlns="http://www.w3.org/2000/svg" fill-rule="evenodd" clip-rule="evenodd" stroke-linecap="round" stroke-linejoin="round" stroke-miterlimit="1.5"><g transform="translate(-3 -2)"><circle cx="10.5" cy="9.5" r="7.5" fill="url(#_Radial1)"/><clipPath id="a"><circle cx="10.5" cy="9.5" r="7.5"/></clipPath><g clip-path="url(#a)"><path d="M7 12c1.882 1.755 4.876 1.864 7 0" fill="none" stroke="#000" stroke-width="1.75" transform="matrix(-.37102 0 0 -.71596 11.597 15.057)"/><path d="M7 12c1.882 1.755 4.876 1.864 7 0" fill="none" stroke="#000" stroke-width="1.75" transform="matrix(-.37102 0 0 -.71596 17.097 15.057)"/><g transform="translate(3 2)"><path d="M13 6H2s.012 3.07 0 3c.999 5.87 10.015 5.935 11 0V6z"/><clipPath id="b"><path d="M13 6H2s.012 3.07 0 3c.999 5.87 10.015 5.935 11 0V6z"/></clipPath><g clip-path="url(#b)"><path d="M10 7h2v2.181c-.017 1.266-1.169 2.464-2 2.8V7z" fill="url(#_Linear4)" transform="matrix(1.23548 0 0 1.08029 -2.618 -.823)"/><path d="M6 7h3v5.281c-.977.512-1.977.512-3 .02V7z" fill="url(#_Linear5)" transform="translate(-.346 -.584) scale(1.04608)"/><path d="M3 7h2v4.981c-.667-.208-2-1.708-2-2.8V7z" fill="url(#_Linear6)" transform="matrix(1.23966 0 0 1.08236 -.926 -.838)"/></g></g></g><path d="M10.597 2.001l.096.001.097.004.096.004.095.005.096.007.095.008.094.009.095.01.094.011.093.013.094.013.092.015.093.016.092.017.092.018.091.02.091.02.09.022.09.022.09.024.089.025.089.026.088.026.088.028.087.029.087.03.087.031.086.032.085.034.085.034.084.035.084.036.083.037.083.038.082.039.082.04.081.041.081.042.08.043.079.044.079.044.078.046.078.046.077.048.076.048.076.049.075.051.075.051.073.051.074.053.072.054.072.054.071.056.071.056.07.057.069.057.068.059.068.059.067.06.066.061.065.062.065.062.064.064.064.064.062.065.062.065.061.066.06.067.059.068.059.068.057.069.057.07.056.071.056.071.054.072.054.072.053.074.051.073.051.075.051.075.049.076.048.076.048.077.046.078.046.078.044.079.044.079.043.08.042.081.041.081.04.082.039.082.038.083.037.083.036.084.035.084.034.085.034.085.032.086.031.087.03.087.029.087.028.088.026.088.026.089.025.089.024.09.022.09.022.09.02.091.02.091.018.092.017.092.016.093.015.092.013.094.013.093.011.094.01.095.009.094.008.095.007.096.005.095.004.096.004.097.001.096L18 9.5l-.001.097-.001.096-.004.097-.004.096-.005.095-.007.096-.008.095-.009.094-.01.095-.011.094-.013.093-.013.094-.015.092-.016.093-.017.092-.018.092-.02.091-.02.091-.022.09-.022.09-.024.09-.025.089-.026.089-.026.088-.028.088-.029.087-.03.087-.031.087-.032.086-.034.085-.034.085-.035.084-.036.084-.037.083-.038.083-.039.082-.04.082-.041.081-.042.081-.043.08-.044.079-.044.079-.046.078-.046.078-.048.077-.048.076-.049.076-.051.075-.051.075-.051.073-.053.074-.054.072-.054.072-.056.071-.056.071-.057.07-.057.069-.059.068-.059.068-.06.067-.061.066-.062.065-.062.065-.064.064-.064.064-.065.062-.065.062-.066.061-.067.06-.068.059-.068.059-.069.057-.07.057-.071.056-.071.056-.072.054-.072.054-.074.053-.073.051-.075.051-.075.051-.076.049-.076.048-.077.048-.078.046-.078.046-.079.044-.079.044-.08.043-.081.042-.081.041-.082.04-.082.039-.083.038-.083.037-.084.036-.084.035-.085.034-.085.034-.086.032-.087.031-.087.03-.087.029-.088.028-.088.026-.089.026-.089.025-.09.024-.09.022-.09.022-.091.02-.091.02-.092.018-.092.017-.093.016-.092.015-.094.013-.093.013-.094.011-.095.01-.094.009-.095.008-.096.007-.095.005-.096.004-.097.004-.096.001L10.5 17l-.097-.001-.096-.001-.097-.004-.096-.004-.095-.005-.096-.007-.095-.008-.094-.009-.095-.01-.094-.011-.093-.013-.094-.013-.092-.015-.093-.016-.092-.017-.092-.018-.091-.02-.091-.02-.09-.022-.09-.022-.09-.024-.089-.025-.089-.026-.088-.026-.088-.028-.087-.029-.087-.03-.087-.031-.086-.032-.085-.034-.085-.034-.084-.035-.084-.036-.083-.037-.083-.038-.082-.039-.082-.04-.081-.041-.081-.042-.08-.043-.079-.044-.079-.044-.078-.046-.078-.046-.077-.048-.076-.048-.076-.049-.075-.051-.075-.051-.073-.051-.074-.053-.072-.054-.072-.054-.071-.056-.071-.056-.07-.057-.069-.057-.068-.059-.068-.059-.067-.06-.066-.061-.065-.062-.065-.062-.064-.064-.064-.064-.062-.065-.062-.065-.061-.066-.06-.067-.059-.068-.059-.068-.057-.069-.057-.07-.056-.071-.056-.071-.054-.072-.054-.072-.053-.074-.051-.073-.051-.075-.051-.075-.049-.076-.048-.076-.048-.077-.046-.078-.046-.078-.044-.079-.044-.079-.043-.08-.042-.081-.041-.081-.04-.082-.039-.082-.038-.083-.037-.083-.036-.084-.035-.084-.034-.085-.034-.085-.032-.086-.031-.087-.03-.087-.029-.087-.028-.088-.026-.088-.026-.089-.025-.089-.024-.09-.022-.09-.022-.09-.02-.091-.02-.091-.018-.092-.017-.092-.016-.093-.015-.092-.013-.094-.013-.093-.011-.094-.01-.095-.009-.094-.008-.095-.007-.096-.005-.095-.004-.096-.004-.097-.001-.096L3 9.5l.001-.097.001-.096.004-.097.004-.096.005-.095.007-.096.008-.095.009-.094.01-.095.011-.094.013-.093.013-.094.015-.092.016-.093.017-.092.018-.092.02-.091.02-.091.022-.09.022-.09.024-.09.025-.089.026-.089.026-.088.028-.088.029-.087.03-.087.031-.087.032-.086.034-.085.034-.085.035-.084.036-.084.037-.083.038-.083.039-.082.04-.082.041-.081.042-.081.043-.08.044-.079.044-.079.046-.078.046-.078.048-.077.048-.076.049-.076.051-.075.051-.075.051-.073.053-.074.054-.072.054-.072.056-.071.056-.071.057-.07.057-.069.059-.068.059-.068.06-.067.061-.066.062-.065.062-.065.064-.064.064-.064.065-.062.065-.062.066-.061.067-.06.068-.059.068-.059.069-.057.07-.057.071-.056.071-.056.072-.054.072-.054.074-.053.073-.051.075-.051.075-.051.076-.049.076-.048.077-.048.078-.046.078-.046.079-.044.079-.044.08-.043.081-.042.081-.041.082-.04.082-.039.083-.038.083-.037.084-.036.084-.035.085-.034.085-.034.086-.032.087-.031.087-.03.087-.029.088-.028.088-.026.089-.026.089-.025.09-.024.09-.022.09-.022.091-.02.091-.02.092-.018.092-.017.093-.016.092-.015.094-.013.093-.013.094-.011.095-.01.094-.009.095-.008.096-.007.095-.005.096-.004.097-.004.096-.001L10.5 2l.097.001zm-.181 1l-.084.001-.084.003-.083.004-.083.004-.083.006-.082.007-.082.008-.082.008-.081.01-.082.011-.08.012-.081.013-.08.014-.08.014-.079.016-.079.017-.079.018-.078.018-.078.02-.078.02-.077.022-.077.022-.076.023-.076.024-.076.026-.075.025-.075.027-.074.028-.074.029-.073.029-.073.031-.073.031-.072.032-.072.033-.071.034-.071.034-.07.036-.07.036-.069.037-.069.038-.068.039-.068.04-.067.04-.067.041-.066.042-.066.043-.065.043-.065.044-.064.045-.063.046-.063.047-.062.047-.062.048-.061.048-.061.05-.06.05-.059.051-.059.051-.058.052-.058.053-.056.054-.057.054-.055.055-.055.055-.054.057-.054.056-.053.058-.052.058-.051.059-.051.059-.05.06-.05.061-.048.061-.048.062-.047.062-.047.063-.046.063-.045.064-.044.065-.043.065-.043.066-.042.066-.041.067-.04.067-.04.068-.039.068-.038.069-.037.069-.036.07-.036.07-.034.071-.034.071-.033.072-.032.072-.031.073-.031.073-.029.073-.029.074-.028.074-.027.075-.025.075-.026.076-.024.076-.023.076-.022.077-.022.077-.02.078-.02.078-.018.078-.018.079-.017.079-.016.079-.014.08-.014.08-.013.081-.012.08-.011.082-.01.081-.008.082-.008.082-.007.082-.006.083-.004.083-.004.083-.003.084-.001.084L4 9.5l.001.084.001.084.003.084.004.083.004.083.006.083.007.082.008.082.008.082.01.081.011.082.012.08.013.081.014.08.014.08.016.079.017.079.018.079.018.078.02.078.02.078.022.077.022.077.023.076.024.076.026.076.025.075.027.075.028.074.029.074.029.073.031.073.031.073.032.072.033.072.034.071.034.071.036.07.036.07.037.069.038.069.039.068.04.068.04.067.041.067.042.066.043.066.043.065.044.065.045.064.046.063.047.063.047.062.048.062.048.061.05.061.05.06.051.059.051.059.052.058.053.058.054.056.054.057.055.055.055.055.057.054.056.054.058.053.058.052.059.051.059.051.06.05.061.05.061.048.062.048.062.047.063.047.063.046.064.045.065.044.065.043.066.043.066.042.067.041.067.04.068.04.068.039.069.038.069.037.07.036.07.036.071.034.071.034.072.033.072.032.073.031.073.031.073.029.074.029.074.028.075.027.075.025.076.026.076.024.076.023.077.022.077.022.078.02.078.02.078.018.079.018.079.017.079.016.08.014.08.014.081.013.08.012.082.011.081.01.082.008.082.008.082.007.083.006.083.004.083.004.084.003.084.001.084.001.084-.001.084-.001.084-.003.083-.004.083-.004.083-.006.082-.007.082-.008.082-.008.081-.01.082-.011.08-.012.081-.013.08-.014.08-.014.079-.016.079-.017.079-.018.078-.018.078-.02.078-.02.077-.022.077-.022.076-.023.076-.024.076-.026.075-.025.075-.027.074-.028.074-.029.073-.029.073-.031.073-.031.072-.032.072-.033.071-.034.071-.034.07-.036.07-.036.069-.037.069-.038.068-.039.068-.04.067-.04.067-.041.066-.042.066-.043.065-.043.065-.044.064-.045.063-.046.063-.047.062-.047.062-.048.061-.048.061-.05.06-.05.059-.051.059-.051.058-.052.058-.053.056-.054.057-.054.055-.055.055-.055.054-.057.054-.056.053-.058.052-.058.051-.059.051-.059.05-.06.05-.061.048-.061.048-.062.047-.062.047-.063.046-.063.045-.064.044-.065.043-.065.043-.066.042-.066.041-.067.04-.067.04-.068.039-.068.038-.069.037-.069.036-.07.036-.07.034-.071.034-.071.033-.072.032-.072.031-.073.031-.073.029-.073.029-.074.028-.074.027-.075.025-.075.026-.076.024-.076.023-.076.022-.077.022-.077.02-.078.02-.078.018-.078.018-.079.017-.079.016-.079.014-.08.014-.08.013-.081.012-.08.011-.082.01-.081.008-.082.008-.082.007-.082.006-.083.004-.083.004-.083.003-.084.001-.084L17 9.5l-.001-.084-.001-.084-.003-.084-.004-.083-.004-.083-.006-.083-.007-.082-.008-.082-.008-.082-.01-.081-.011-.082-.012-.08-.013-.081-.014-.08-.014-.08-.016-.079-.017-.079-.018-.079-.018-.078-.02-.078-.02-.078-.022-.077-.022-.077-.023-.076-.024-.076-.026-.076-.025-.075-.027-.075-.028-.074-.029-.074-.029-.073-.031-.073-.031-.073-.032-.072-.033-.072-.034-.071-.034-.071-.036-.07-.036-.07-.037-.069-.038-.069-.039-.068-.04-.068-.04-.067-.041-.067-.042-.066-.043-.066-.043-.065-.044-.065-.045-.064-.046-.063-.047-.063-.047-.062-.048-.062-.048-.061-.05-.061-.05-.06-.051-.059-.051-.059-.052-.058-.053-.058-.054-.056-.054-.057-.055-.055-.055-.055-.057-.054-.056-.054-.058-.053-.058-.052-.059-.051-.059-.051-.06-.05-.061-.05-.061-.048-.062-.048-.062-.047-.063-.047-.063-.046-.064-.045-.065-.044-.065-.043-.066-.043-.066-.042-.067-.041-.067-.04-.068-.04-.068-.039-.069-.038-.069-.037-.07-.036-.07-.036-.071-.034-.071-.034-.072-.033-.072-.032-.073-.031-.073-.031-.073-.029-.074-.029-.074-.028-.075-.027-.075-.025-.076-.026-.076-.024-.076-.023-.077-.022-.077-.022-.078-.02-.078-.02-.078-.018-.079-.018-.079-.017-.079-.016-.08-.014-.08-.014-.081-.013-.08-.012-.082-.011-.081-.01-.082-.008-.082-.008-.082-.007-.083-.006-.083-.004-.083-.004-.084-.003-.084-.001L10.5 3l-.084.001z"/></g><defs><linearGradient id="_Linear4" x1="0" y1="0" x2="1" y2="0" gradientUnits="userSpaceOnUse" gradientTransform="matrix(2 0 0 4.3 10 9.15)"><stop offset="0" stop-color="#fff"/><stop offset=".62" stop-color="#eaeaea"/><stop offset=".82" stop-color="#b7b7b7"/><stop offset="1" stop-color="gray"/></linearGradient><linearGradient id="_Linear5" x1="0" y1="0" x2="1" y2="0" gradientUnits="userSpaceOnUse" gradientTransform="matrix(3 0 0 5.09407 6 9.547)"><stop offset="0" stop-color="#fff"/><stop offset=".62" stop-color="#eaeaea"/><stop offset=".82" stop-color="#b7b7b7"/><stop offset="1" stop-color="gray"/></linearGradient><linearGradient id="_Linear6" x1="0" y1="0" x2="1" y2="0" gradientUnits="userSpaceOnUse" gradientTransform="matrix(2 0 0 4.3 3 9.15)"><stop offset="0" stop-color="#fff"/><stop offset=".62" stop-color="#eaeaea"/><stop offset=".82" stop-color="#b7b7b7"/><stop offset="1" stop-color="gray"/></linearGradient><radialGradient id="_Radial1" cx="0" cy="0" r="1" gradientUnits="userSpaceOnUse" gradientTransform="matrix(5.45455 13 -14.9152 7.5293 4.364 3)"><stop offset="0" stop-color="#fff"/><stop offset=".36" stop-color="#fafcff"/><stop offset=".66" stop-color="#eaf2fd"/><stop offset="1" stop-color="#89b7f0"/></radialGradient></defs></svg>