<svg width="15" height="15" xmlns="http://www.w3.org/2000/svg" fill-rule="evenodd" clip-rule="evenodd" stroke-linejoin="round" stroke-miterlimit="2"><g transform="matrix(15.9067 0 0 17.4419 -.445 14.53)"><path d="M.793.027c.119 0 .178-.059.178-.143a.249.249 0 00-.04-.124L.654-.719C.61-.794.566-.833.5-.833s-.11.04-.154.115l-.277.479a.248.248 0 00-.041.123c0 .086.062.143.18.143h.585z" fill="url(#_Radial1)" fill-rule="nonzero"/><clipPath id="a"><path d="M.793.027c.119 0 .178-.059.178-.143a.249.249 0 00-.04-.124L.654-.719C.61-.794.566-.833.5-.833s-.11.04-.154.115l-.277.479a.248.248 0 00-.041.123c0 .086.062.143.18.143h.585z" clip-rule="nonzero"/></clipPath><g clip-path="url(#a)"><path d="M.5-.112a.073.073 0 00.074-.074A.073.073 0 00.5-.262a.073.073 0 00-.074.076c0 .04.031.074.074.074zm0-.544c-.044 0-.068.024-.068.07 0 .033.009.084.03.184l.018.091h.04l.018-.091c.021-.1.03-.151.03-.184 0-.046-.024-.07-.068-.07z" fill-rule="nonzero"/></g><path d="M.503-.833l.015.001.014.002.014.004.013.005.012.007.012.008.011.009.012.011.006.007.009.011.008.011.008.012.009.012.008.014.277.479.009.017.009.017.007.016.005.015.004.016.004.014.001.015.001.014v.012L.97-.101v.004l-.001.004v.004l-.001.003-.001.004v.003l-.001.004-.001.003-.001.004-.001.003-.002.004-.001.003-.002.003-.001.003-.002.003-.001.003-.002.003L.95-.04l-.002.003-.002.003-.002.003-.002.003-.003.002-.002.003-.002.003-.003.002-.003.003-.002.002-.003.002-.003.003-.003.002-.003.002-.003.002L.908 0 .905.002.902.004.898.006.894.007.891.009.887.011.883.012.879.014.875.015.871.016.867.018.862.019.858.02.854.021.849.022.844.023.84.024H.835L.83.025H.825L.82.026H.815L.809.027H.192L.187.026H.176L.171.025.166.024H.162L.157.023.152.022.148.021.143.02.139.019.134.018.13.017.126.015.122.014.118.013.114.011.11.01.106.008.103.006.099.004.096.003.092.001.089-.001.086-.003.083-.006.08-.008.077-.01.074-.012.071-.015.068-.017.066-.02.063-.022.061-.025.058-.027.056-.03.054-.033.052-.036.05-.039.048-.042.046-.045.044-.048.043-.051.041-.054.04-.057.038-.061.037-.064.036-.067.034-.071.033-.074v-.004L.032-.082.031-.085.03-.089v-.004L.029-.096V-.1L.028-.104v-.022L.029-.13v-.007L.03-.141l.001-.003v-.004l.001-.004.001-.003.001-.004.001-.004.001-.004.001-.003.001-.004.002-.004.001-.004.002-.004.001-.004.002-.004.002-.004.001-.004.002-.004.002-.004.002-.004.002-.004.002-.004.003-.004.002-.004.003-.005.002-.004.277-.479.004-.007.004-.007.004-.006.005-.006.004-.007.004-.005.004-.006.004-.006.005-.005.004-.005.004-.005.002-.002.003-.002.002-.003.002-.002.002-.002.003-.002.002-.002L.41-.8l.002-.002.003-.002.002-.001.002-.002.003-.002.002-.001.003-.002.002-.002.002-.001.003-.001.002-.002.003-.001.002-.001.003-.001.002-.002.003-.001.003-.001.002-.001h.003L.46-.827l.002-.001.003-.001h.003L.471-.83l.002-.001h.003l.003-.001h.006l.003-.001h.015zm-.005.057H.495l-.002.001H.487l-.001.001H.482l-.001.001H.479l-.001.001H.476l-.002.001H.473L.472-.77.47-.769H.469l-.001.001-.001.001H.465l-.001.001-.001.001-.002.001-.001.001-.001.001-.002.001-.001.001-.002.001-.001.001-.002.002-.001.001-.002.001-.001.002-.002.001-.001.002-.002.002-.002.001-.003.004-.003.004-.004.004-.003.004-.004.005L.42-.72l-.004.005-.003.006-.004.006-.004.006-.004.006-.276.479-.003.004-.002.004-.002.003-.002.004-.002.004-.002.003-.001.004-.002.003-.002.004-.001.003-.002.003-.001.003-.001.004-.001.003L.1-.16l-.002.003-.001.003v.003l-.001.002-.001.003-.001.003v.003l-.001.002v.003l-.001.002v.005l-.001.003V-.116l.001.013.002.012.004.012.005.01.007.009.009.008.011.007.012.005.013.004.013.003.015.002.016.001h.603l.004-.001h.008l.004-.001h.007l.004-.001h.004l.003-.001.003-.001h.003l.003-.001.003-.001.003-.001.003-.001.002-.001.003-.001.002-.001.002-.001.003-.001.002-.001.002-.001.002-.001.002-.001.002-.001.001-.001.002-.001.002-.001.001-.002.002-.001.001-.001.002-.001.001-.002.001-.001.001-.001.002-.002.001-.001.001-.002.001-.001.001-.002.001-.001.001-.002.001-.002L.9-.075l.001-.002v-.002l.001-.002.001-.002.001-.002v-.002l.001-.002v-.002l.001-.002v-.003l.001-.002v-.005l.001-.002v-.021L.907-.128v-.005L.906-.136v-.003L.905-.141v-.003L.904-.147.903-.15v-.003L.902-.156.901-.159.9-.162.899-.165.898-.168.896-.171.895-.174.894-.178.892-.181.891-.184.889-.188.887-.191.886-.195.884-.198.882-.202.88-.205.878-.209.875-.213.599-.692.595-.698.591-.704.587-.71.584-.715.58-.721.577-.726.573-.73.57-.735.566-.739.563-.743.56-.746.558-.748.557-.75.555-.751.554-.753.552-.754.55-.755.549-.757.548-.758.546-.759.545-.76.543-.761.542-.762.54-.763.539-.764.538-.765.536-.766.535-.767.534-.768H.532L.531-.769.53-.77H.529L.527-.771H.526L.525-.772H.522L.521-.773H.52L.518-.774H.514L.513-.775H.507L.505-.776H.498z"/></g><defs><radialGradient id="_Radial1" cx="0" cy="0" r="1" gradientUnits="userSpaceOnUse" gradientTransform="matrix(.50293 .63067 -.69153 .45867 .154 -.776)"><stop offset="0" stop-color="#fff"/><stop offset=".57" stop-color="#e8f1fc"/><stop offset=".79" stop-color="#b7d3f6"/><stop offset="1" stop-color="#89b7f0"/></radialGradient></defs></svg>